G04 #@! TF.GenerationSoftware,KiCad,Pcbnew,(5.0.0)*
G04 #@! TF.CreationDate,2018-09-10T17:35:09-05:00*
G04 #@! TF.ProjectId,mini-attinyuino,6D696E692D617474696E7975696E6F2E,1.0*
G04 #@! TF.SameCoordinates,Original*
G04 #@! TF.FileFunction,Copper,L2,Bot,Signal*
G04 #@! TF.FilePolarity,Positive*
%FSLAX46Y46*%
G04 Gerber Fmt 4.6, Leading zero omitted, Abs format (unit mm)*
G04 Created by KiCad (PCBNEW (5.0.0)) date 09/10/18 17:35:09*
%MOMM*%
%LPD*%
G01*
G04 APERTURE LIST*
G04 #@! TA.AperFunction,ComponentPad*
%ADD10R,1.700000X1.700000*%
G04 #@! TD*
G04 #@! TA.AperFunction,ComponentPad*
%ADD11O,1.700000X1.700000*%
G04 #@! TD*
G04 #@! TA.AperFunction,ComponentPad*
%ADD12R,1.600000X1.600000*%
G04 #@! TD*
G04 #@! TA.AperFunction,ComponentPad*
%ADD13C,1.600000*%
G04 #@! TD*
G04 #@! TA.AperFunction,ComponentPad*
%ADD14R,1.800000X1.800000*%
G04 #@! TD*
G04 #@! TA.AperFunction,ComponentPad*
%ADD15C,1.800000*%
G04 #@! TD*
G04 #@! TA.AperFunction,ComponentPad*
%ADD16O,1.600000X1.600000*%
G04 #@! TD*
G04 #@! TA.AperFunction,ComponentPad*
%ADD17C,1.700000*%
G04 #@! TD*
G04 #@! TA.AperFunction,ComponentPad*
%ADD18C,3.500000*%
G04 #@! TD*
G04 #@! TA.AperFunction,ComponentPad*
%ADD19C,2.000000*%
G04 #@! TD*
G04 #@! TA.AperFunction,ComponentPad*
%ADD20C,1.300000*%
G04 #@! TD*
G04 #@! TA.AperFunction,ComponentPad*
%ADD21R,1.300000X1.300000*%
G04 #@! TD*
G04 #@! TA.AperFunction,ViaPad*
%ADD22C,0.685800*%
G04 #@! TD*
G04 #@! TA.AperFunction,Conductor*
%ADD23C,0.300000*%
G04 #@! TD*
G04 #@! TA.AperFunction,Conductor*
%ADD24C,0.254000*%
G04 #@! TD*
G04 APERTURE END LIST*
D10*
G04 #@! TO.P,J1,1*
G04 #@! TO.N,VBUS*
X120514000Y-111023000D03*
D11*
G04 #@! TO.P,J1,2*
G04 #@! TO.N,/PG4*
X123054000Y-111023000D03*
G04 #@! TO.P,J1,3*
G04 #@! TO.N,/PG1*
X125594000Y-111023000D03*
G04 #@! TO.P,J1,4*
G04 #@! TO.N,/PG3*
X128134000Y-111023000D03*
G04 #@! TO.P,J1,5*
G04 #@! TO.N,+5V*
X130674000Y-111023000D03*
G04 #@! TD*
D12*
G04 #@! TO.P,C1,1*
G04 #@! TO.N,+5V*
X133215000Y-93753800D03*
D13*
G04 #@! TO.P,C1,2*
G04 #@! TO.N,GND*
X133215000Y-91253800D03*
G04 #@! TD*
G04 #@! TO.P,C2,1*
G04 #@! TO.N,+5V*
X126591000Y-95048700D03*
G04 #@! TO.P,C2,2*
G04 #@! TO.N,GND*
X126591000Y-90048700D03*
G04 #@! TD*
D14*
G04 #@! TO.P,D1,1*
G04 #@! TO.N,Net-(D1-Pad1)*
X96631800Y-109913000D03*
D15*
G04 #@! TO.P,D1,2*
G04 #@! TO.N,+5V*
X96631800Y-112453000D03*
G04 #@! TD*
D12*
G04 #@! TO.P,D2,1*
G04 #@! TO.N,+5V*
X121623000Y-105256000D03*
D16*
G04 #@! TO.P,D2,2*
G04 #@! TO.N,VBUS*
X114003000Y-105256000D03*
G04 #@! TD*
D15*
G04 #@! TO.P,D3,2*
G04 #@! TO.N,/PG1*
X96631800Y-85410500D03*
D14*
G04 #@! TO.P,D3,1*
G04 #@! TO.N,Net-(D3-Pad1)*
X96631800Y-87950500D03*
G04 #@! TD*
D12*
G04 #@! TO.P,D4,1*
G04 #@! TO.N,Net-(D4-Pad1)*
X114003000Y-94592300D03*
D16*
G04 #@! TO.P,D4,2*
G04 #@! TO.N,GND*
X121623000Y-94592300D03*
G04 #@! TD*
G04 #@! TO.P,D5,2*
G04 #@! TO.N,GND*
X121623000Y-97980300D03*
D12*
G04 #@! TO.P,D5,1*
G04 #@! TO.N,Net-(D5-Pad1)*
X114003000Y-97980300D03*
G04 #@! TD*
D11*
G04 #@! TO.P,J2,5*
G04 #@! TO.N,/PG5*
X130674000Y-86766400D03*
G04 #@! TO.P,J2,4*
G04 #@! TO.N,Net-(J2-Pad4)*
X128134000Y-86766400D03*
G04 #@! TO.P,J2,3*
G04 #@! TO.N,Net-(J2-Pad3)*
X125594000Y-86766400D03*
G04 #@! TO.P,J2,2*
G04 #@! TO.N,GND*
X123054000Y-86766400D03*
D10*
G04 #@! TO.P,J2,1*
G04 #@! TO.N,VCC*
X120514000Y-86766400D03*
G04 #@! TD*
G04 #@! TO.P,J3,1*
G04 #@! TO.N,VBUS*
X108204000Y-100182000D03*
D17*
G04 #@! TO.P,J3,2*
G04 #@! TO.N,Net-(D4-Pad1)*
X108204000Y-97682000D03*
G04 #@! TO.P,J3,3*
G04 #@! TO.N,Net-(D5-Pad1)*
X106204000Y-97682000D03*
G04 #@! TO.P,J3,4*
G04 #@! TO.N,GND*
X106204000Y-100182000D03*
D18*
G04 #@! TO.P,J3,5*
X103494000Y-104952000D03*
X103494000Y-92912000D03*
G04 #@! TD*
D13*
G04 #@! TO.P,R1,1*
G04 #@! TO.N,Net-(D1-Pad1)*
X100752000Y-108735000D03*
D16*
G04 #@! TO.P,R1,2*
G04 #@! TO.N,GND*
X110912000Y-108735000D03*
G04 #@! TD*
D13*
G04 #@! TO.P,R2,1*
G04 #@! TO.N,Net-(D3-Pad1)*
X100752000Y-89179400D03*
D16*
G04 #@! TO.P,R2,2*
G04 #@! TO.N,GND*
X110912000Y-89179400D03*
G04 #@! TD*
D13*
G04 #@! TO.P,R3,1*
G04 #@! TO.N,Net-(D5-Pad1)*
X112733000Y-101618000D03*
D16*
G04 #@! TO.P,R3,2*
G04 #@! TO.N,Net-(J2-Pad3)*
X122893000Y-101618000D03*
G04 #@! TD*
G04 #@! TO.P,R4,2*
G04 #@! TO.N,Net-(J2-Pad4)*
X126591000Y-97581000D03*
D13*
G04 #@! TO.P,R4,1*
G04 #@! TO.N,+5V*
X126591000Y-107741000D03*
G04 #@! TD*
D16*
G04 #@! TO.P,R5,2*
G04 #@! TO.N,Net-(J2-Pad4)*
X122893000Y-90954400D03*
D13*
G04 #@! TO.P,R5,1*
G04 #@! TO.N,Net-(D4-Pad1)*
X112733000Y-90954400D03*
G04 #@! TD*
D19*
G04 #@! TO.P,SW1,2*
G04 #@! TO.N,/PG5*
X142744000Y-99236600D03*
G04 #@! TO.P,SW1,1*
G04 #@! TO.N,GND*
X147244000Y-99236600D03*
G04 #@! TO.P,SW1,2*
G04 #@! TO.N,/PG5*
X142744000Y-105736600D03*
G04 #@! TO.P,SW1,1*
G04 #@! TO.N,GND*
X147244000Y-105736600D03*
G04 #@! TD*
D20*
G04 #@! TO.P,U1,2*
G04 #@! TO.N,GND*
X114428000Y-110124000D03*
G04 #@! TO.P,U1,3*
G04 #@! TO.N,VCC*
X115698000Y-108854000D03*
D21*
G04 #@! TO.P,U1,1*
G04 #@! TO.N,+5V*
X115698000Y-111394000D03*
G04 #@! TD*
D12*
G04 #@! TO.P,U2,1*
G04 #@! TO.N,/PG5*
X138467000Y-98686600D03*
D16*
G04 #@! TO.P,U2,5*
G04 #@! TO.N,/PG4*
X130847000Y-106306600D03*
G04 #@! TO.P,U2,2*
G04 #@! TO.N,Net-(J2-Pad4)*
X135927000Y-98686600D03*
G04 #@! TO.P,U2,6*
G04 #@! TO.N,/PG1*
X133387000Y-106306600D03*
G04 #@! TO.P,U2,3*
G04 #@! TO.N,Net-(J2-Pad3)*
X133387000Y-98686600D03*
G04 #@! TO.P,U2,7*
G04 #@! TO.N,/PG3*
X135927000Y-106306600D03*
G04 #@! TO.P,U2,4*
G04 #@! TO.N,GND*
X130847000Y-98686600D03*
G04 #@! TO.P,U2,8*
G04 #@! TO.N,+5V*
X138467000Y-106306600D03*
G04 #@! TD*
D22*
G04 #@! TO.N,/PG5*
X137032500Y-109187300D03*
G04 #@! TD*
D23*
G04 #@! TO.N,+5V*
X126448300Y-106958800D02*
X127811800Y-105595300D01*
X127811800Y-105595300D02*
X127811800Y-96269500D01*
X127811800Y-96269500D02*
X126591000Y-95048700D01*
X126591000Y-107741000D02*
X126448300Y-107598300D01*
X126448300Y-107598300D02*
X126448300Y-106958800D01*
X126448300Y-106958800D02*
X124530100Y-106958800D01*
X124530100Y-106958800D02*
X122827300Y-105256000D01*
X138467000Y-106306600D02*
X137262700Y-106306600D01*
X137262700Y-106306600D02*
X137262700Y-106752300D01*
X137262700Y-106752300D02*
X132992000Y-111023000D01*
X132992000Y-111023000D02*
X130674000Y-111023000D01*
X121623000Y-105256000D02*
X122827300Y-105256000D01*
X121623000Y-105256000D02*
X120418700Y-105256000D01*
X115698000Y-111394000D02*
X115698000Y-110339700D01*
X115698000Y-110339700D02*
X115803200Y-110339700D01*
X115803200Y-110339700D02*
X120418700Y-105724200D01*
X120418700Y-105724200D02*
X120418700Y-105256000D01*
G04 #@! TO.N,GND*
X110912000Y-89179400D02*
X109707700Y-89179400D01*
X104933700Y-93673200D02*
X104255200Y-93673200D01*
X104255200Y-93673200D02*
X103494000Y-92912000D01*
X109707700Y-89179400D02*
X105213900Y-93673200D01*
X105213900Y-93673200D02*
X104933700Y-93673200D01*
X104933700Y-93673200D02*
X104933700Y-98911700D01*
X104933700Y-98911700D02*
X106204000Y-100182000D01*
X130847000Y-93621800D02*
X133215000Y-91253800D01*
X130847000Y-98686600D02*
X130847000Y-93621800D01*
X126591000Y-90048700D02*
X130164100Y-93621800D01*
X130164100Y-93621800D02*
X130847000Y-93621800D01*
X121623000Y-97980300D02*
X121623000Y-94592300D01*
X106204000Y-102822700D02*
X106204000Y-100182000D01*
X110912000Y-107530700D02*
X106204000Y-102822700D01*
X103494000Y-104952000D02*
X104074700Y-104952000D01*
X104074700Y-104952000D02*
X106204000Y-102822700D01*
X110912000Y-108735000D02*
X110912000Y-107530700D01*
D24*
G04 #@! TO.N,/PG1*
X125594000Y-111023000D02*
X126825300Y-111023000D01*
X133387000Y-106306600D02*
X132205700Y-106306600D01*
X132205700Y-106306600D02*
X132205700Y-106675900D01*
X132205700Y-106675900D02*
X131393700Y-107487900D01*
X131393700Y-107487900D02*
X129850200Y-107487900D01*
X129850200Y-107487900D02*
X126825300Y-110512800D01*
X126825300Y-110512800D02*
X126825300Y-111023000D01*
D23*
G04 #@! TO.N,VCC*
X120514000Y-86766400D02*
X120514000Y-88020700D01*
X115698000Y-108854000D02*
X115698000Y-92836700D01*
X115698000Y-92836700D02*
X120514000Y-88020700D01*
D24*
G04 #@! TO.N,/PG3*
X128134000Y-111023000D02*
X129365300Y-111023000D01*
X135927000Y-106306600D02*
X134745700Y-106306600D01*
X134745700Y-106306600D02*
X134745700Y-106675800D01*
X134745700Y-106675800D02*
X132112100Y-109309400D01*
X132112100Y-109309400D02*
X130568700Y-109309400D01*
X130568700Y-109309400D02*
X129365300Y-110512800D01*
X129365300Y-110512800D02*
X129365300Y-111023000D01*
G04 #@! TO.N,/PG4*
X123054000Y-111023000D02*
X124285300Y-111023000D01*
X130847000Y-106306600D02*
X129665700Y-106306600D01*
X129665700Y-106306600D02*
X129665700Y-106380700D01*
X129665700Y-106380700D02*
X126961000Y-109085400D01*
X126961000Y-109085400D02*
X125712700Y-109085400D01*
X125712700Y-109085400D02*
X124285300Y-110512800D01*
X124285300Y-110512800D02*
X124285300Y-111023000D01*
G04 #@! TO.N,/PG5*
X142744000Y-105736600D02*
X139293300Y-109187300D01*
X139293300Y-109187300D02*
X137032500Y-109187300D01*
X142744000Y-105736600D02*
X142744000Y-99236600D01*
X130674000Y-86766400D02*
X130674000Y-87997700D01*
X138467000Y-98686600D02*
X138467000Y-94829800D01*
X138467000Y-94829800D02*
X131634900Y-87997700D01*
X131634900Y-87997700D02*
X130674000Y-87997700D01*
D23*
G04 #@! TO.N,VBUS*
X114003000Y-105256000D02*
X114003000Y-104051700D01*
X108204000Y-100182000D02*
X109458300Y-100182000D01*
X109458300Y-100182000D02*
X113328000Y-104051700D01*
X113328000Y-104051700D02*
X114003000Y-104051700D01*
D24*
G04 #@! TO.N,Net-(D4-Pad1)*
X108204000Y-97682000D02*
X111293700Y-94592300D01*
X111293700Y-94592300D02*
X114003000Y-94592300D01*
X112733000Y-90954400D02*
X114003000Y-92224400D01*
X114003000Y-92224400D02*
X114003000Y-94592300D01*
G04 #@! TO.N,Net-(J2-Pad4)*
X126591000Y-97581000D02*
X126591000Y-96399700D01*
X126591000Y-96399700D02*
X126221800Y-96399700D01*
X126221800Y-96399700D02*
X124074300Y-94252200D01*
X124074300Y-94252200D02*
X124074300Y-90954400D01*
X122893000Y-90954400D02*
X124074300Y-90954400D01*
X124074300Y-90954400D02*
X124074300Y-90050800D01*
X124074300Y-90050800D02*
X126902700Y-87222400D01*
X126902700Y-87222400D02*
X126902700Y-86766400D01*
X128134000Y-86766400D02*
X126902700Y-86766400D01*
G04 #@! TD*
G04 #@! TO.N,GND*
G36*
X146870791Y-84011668D02*
X146870790Y-86571252D01*
X146869983Y-86573263D01*
X146870790Y-86646547D01*
X146870790Y-86681913D01*
X146871202Y-86683986D01*
X146871645Y-86724187D01*
X146885782Y-86757282D01*
X146892804Y-86792584D01*
X146915143Y-86826017D01*
X146915971Y-86827956D01*
X146935899Y-86857081D01*
X146976658Y-86918083D01*
X146978461Y-86919288D01*
X149665791Y-90846926D01*
X149665790Y-111043602D01*
X147021174Y-113291525D01*
X146976659Y-113321269D01*
X146943262Y-113371252D01*
X146905937Y-113418369D01*
X146901602Y-113433601D01*
X146892805Y-113446767D01*
X146881080Y-113505712D01*
X146864623Y-113563539D01*
X146870791Y-113616726D01*
X146870790Y-114934915D01*
X96364293Y-114870128D01*
X96054554Y-114801461D01*
X95728389Y-114698620D01*
X95412419Y-114567741D01*
X95109063Y-114409823D01*
X94820628Y-114226070D01*
X94549302Y-114017873D01*
X94297168Y-113786834D01*
X94066117Y-113534687D01*
X93857924Y-113263367D01*
X93674170Y-112974931D01*
X93516252Y-112671575D01*
X93385372Y-112355604D01*
X93282531Y-112029438D01*
X93208508Y-111695544D01*
X93163869Y-111356470D01*
X93148590Y-111006527D01*
X93148590Y-109013000D01*
X95343336Y-109013000D01*
X95343336Y-110813000D01*
X95372906Y-110961659D01*
X95457114Y-111087686D01*
X95583141Y-111171894D01*
X95731800Y-111201464D01*
X96305861Y-111201464D01*
X95906172Y-111367021D01*
X95545821Y-111727372D01*
X95350800Y-112198193D01*
X95350800Y-112707807D01*
X95545821Y-113178628D01*
X95906172Y-113538979D01*
X96376993Y-113734000D01*
X96886607Y-113734000D01*
X97357428Y-113538979D01*
X97717779Y-113178628D01*
X97885625Y-112773411D01*
X104899000Y-112773411D01*
X104899000Y-113362589D01*
X105124468Y-113906919D01*
X105541081Y-114323532D01*
X106085411Y-114549000D01*
X106674589Y-114549000D01*
X107218919Y-114323532D01*
X107635532Y-113906919D01*
X107861000Y-113362589D01*
X107861000Y-112773411D01*
X143317000Y-112773411D01*
X143317000Y-113362589D01*
X143542468Y-113906919D01*
X143959081Y-114323532D01*
X144503411Y-114549000D01*
X145092589Y-114549000D01*
X145636919Y-114323532D01*
X146053532Y-113906919D01*
X146279000Y-113362589D01*
X146279000Y-112773411D01*
X146053532Y-112229081D01*
X145636919Y-111812468D01*
X145092589Y-111587000D01*
X144503411Y-111587000D01*
X143959081Y-111812468D01*
X143542468Y-112229081D01*
X143317000Y-112773411D01*
X107861000Y-112773411D01*
X107635532Y-112229081D01*
X107218919Y-111812468D01*
X106674589Y-111587000D01*
X106085411Y-111587000D01*
X105541081Y-111812468D01*
X105124468Y-112229081D01*
X104899000Y-112773411D01*
X97885625Y-112773411D01*
X97912800Y-112707807D01*
X97912800Y-112198193D01*
X97717779Y-111727372D01*
X97357428Y-111367021D01*
X96957739Y-111201464D01*
X97531800Y-111201464D01*
X97680459Y-111171894D01*
X97806486Y-111087686D01*
X97890694Y-110961659D01*
X97920264Y-110813000D01*
X97920264Y-109013000D01*
X97890694Y-108864341D01*
X97806486Y-108738314D01*
X97680459Y-108654106D01*
X97531800Y-108624536D01*
X95731800Y-108624536D01*
X95583141Y-108654106D01*
X95457114Y-108738314D01*
X95372906Y-108864341D01*
X95343336Y-109013000D01*
X93148590Y-109013000D01*
X93148590Y-108500085D01*
X99571000Y-108500085D01*
X99571000Y-108969915D01*
X99750797Y-109403983D01*
X100083017Y-109736203D01*
X100517085Y-109916000D01*
X100986915Y-109916000D01*
X101420983Y-109736203D01*
X101753203Y-109403983D01*
X101885728Y-109084039D01*
X109520096Y-109084039D01*
X109680959Y-109472423D01*
X110056866Y-109887389D01*
X110562959Y-110126914D01*
X110785000Y-110005629D01*
X110785000Y-108862000D01*
X111039000Y-108862000D01*
X111039000Y-110005629D01*
X111261041Y-110126914D01*
X111649468Y-109943078D01*
X113130378Y-109943078D01*
X113159917Y-110453428D01*
X113298389Y-110787729D01*
X113528984Y-110843410D01*
X114248395Y-110124000D01*
X113528984Y-109404590D01*
X113298389Y-109460271D01*
X113130378Y-109943078D01*
X111649468Y-109943078D01*
X111767134Y-109887389D01*
X112143041Y-109472423D01*
X112303904Y-109084039D01*
X112181915Y-108862000D01*
X111039000Y-108862000D01*
X110785000Y-108862000D01*
X109642085Y-108862000D01*
X109520096Y-109084039D01*
X101885728Y-109084039D01*
X101933000Y-108969915D01*
X101933000Y-108500085D01*
X101885729Y-108385961D01*
X109520096Y-108385961D01*
X109642085Y-108608000D01*
X110785000Y-108608000D01*
X110785000Y-107464371D01*
X111039000Y-107464371D01*
X111039000Y-108608000D01*
X112181915Y-108608000D01*
X112303904Y-108385961D01*
X112143041Y-107997577D01*
X111767134Y-107582611D01*
X111261041Y-107343086D01*
X111039000Y-107464371D01*
X110785000Y-107464371D01*
X110562959Y-107343086D01*
X110056866Y-107582611D01*
X109680959Y-107997577D01*
X109520096Y-108385961D01*
X101885729Y-108385961D01*
X101753203Y-108066017D01*
X101420983Y-107733797D01*
X100986915Y-107554000D01*
X100517085Y-107554000D01*
X100083017Y-107733797D01*
X99750797Y-108066017D01*
X99571000Y-108500085D01*
X93148590Y-108500085D01*
X93148590Y-106646528D01*
X101979077Y-106646528D01*
X102169364Y-106991271D01*
X103050591Y-107342956D01*
X103999323Y-107330641D01*
X104818636Y-106991271D01*
X105008923Y-106646528D01*
X103494000Y-105131605D01*
X101979077Y-106646528D01*
X93148590Y-106646528D01*
X93148590Y-104508591D01*
X101103044Y-104508591D01*
X101115359Y-105457323D01*
X101454729Y-106276636D01*
X101799472Y-106466923D01*
X103314395Y-104952000D01*
X103673605Y-104952000D01*
X105188528Y-106466923D01*
X105533271Y-106276636D01*
X105884956Y-105395409D01*
X105872641Y-104446677D01*
X105533271Y-103627364D01*
X105188528Y-103437077D01*
X103673605Y-104952000D01*
X103314395Y-104952000D01*
X101799472Y-103437077D01*
X101454729Y-103627364D01*
X101103044Y-104508591D01*
X93148590Y-104508591D01*
X93148590Y-103257472D01*
X101979077Y-103257472D01*
X103494000Y-104772395D01*
X105008923Y-103257472D01*
X104818636Y-102912729D01*
X103937409Y-102561044D01*
X102988677Y-102573359D01*
X102169364Y-102912729D01*
X101979077Y-103257472D01*
X93148590Y-103257472D01*
X93148590Y-99953279D01*
X104707282Y-99953279D01*
X104733685Y-100543458D01*
X104908741Y-100966080D01*
X105160042Y-101046353D01*
X106024395Y-100182000D01*
X105160042Y-99317647D01*
X104908741Y-99397920D01*
X104707282Y-99953279D01*
X93148590Y-99953279D01*
X93148590Y-97437139D01*
X104973000Y-97437139D01*
X104973000Y-97926861D01*
X105160408Y-98379306D01*
X105506694Y-98725592D01*
X105657831Y-98788195D01*
X105419920Y-98886741D01*
X105339647Y-99138042D01*
X106204000Y-100002395D01*
X106218143Y-99988253D01*
X106397748Y-100167858D01*
X106383605Y-100182000D01*
X106397748Y-100196143D01*
X106218143Y-100375748D01*
X106204000Y-100361605D01*
X105339647Y-101225958D01*
X105419920Y-101477259D01*
X105975279Y-101678718D01*
X106565458Y-101652315D01*
X106988080Y-101477259D01*
X107054452Y-101269477D01*
X107079314Y-101306686D01*
X107205341Y-101390894D01*
X107354000Y-101420464D01*
X109054000Y-101420464D01*
X109202659Y-101390894D01*
X109328686Y-101306686D01*
X109412894Y-101180659D01*
X109442464Y-101032000D01*
X109442464Y-100917111D01*
X112915548Y-104390195D01*
X112945171Y-104434529D01*
X113073997Y-104520608D01*
X112890522Y-104795197D01*
X112798863Y-105256000D01*
X112890522Y-105716803D01*
X113151547Y-106107453D01*
X113542197Y-106368478D01*
X113886682Y-106437000D01*
X114119318Y-106437000D01*
X114463803Y-106368478D01*
X114854453Y-106107453D01*
X115115478Y-105716803D01*
X115167000Y-105457782D01*
X115167000Y-107958002D01*
X115113986Y-107979961D01*
X114823961Y-108269986D01*
X114667000Y-108648921D01*
X114667000Y-108846588D01*
X114608922Y-108826378D01*
X114098572Y-108855917D01*
X113764271Y-108994389D01*
X113708590Y-109224984D01*
X114428000Y-109944395D01*
X114442143Y-109930253D01*
X114621748Y-110109858D01*
X114607605Y-110124000D01*
X114621748Y-110138142D01*
X114442142Y-110317748D01*
X114428000Y-110303605D01*
X113708590Y-111023016D01*
X113764271Y-111253611D01*
X114247078Y-111421622D01*
X114659536Y-111397749D01*
X114659536Y-112044000D01*
X114689106Y-112192659D01*
X114773314Y-112318686D01*
X114899341Y-112402894D01*
X115048000Y-112432464D01*
X116348000Y-112432464D01*
X116496659Y-112402894D01*
X116622686Y-112318686D01*
X116706894Y-112192659D01*
X116736464Y-112044000D01*
X116736464Y-110744000D01*
X116706894Y-110595341D01*
X116622686Y-110469314D01*
X116503902Y-110389945D01*
X116720847Y-110173000D01*
X119275536Y-110173000D01*
X119275536Y-111873000D01*
X119305106Y-112021659D01*
X119389314Y-112147686D01*
X119515341Y-112231894D01*
X119664000Y-112261464D01*
X121364000Y-112261464D01*
X121512659Y-112231894D01*
X121638686Y-112147686D01*
X121722894Y-112021659D01*
X121752464Y-111873000D01*
X121752464Y-110173000D01*
X121722894Y-110024341D01*
X121638686Y-109898314D01*
X121512659Y-109814106D01*
X121364000Y-109784536D01*
X119664000Y-109784536D01*
X119515341Y-109814106D01*
X119389314Y-109898314D01*
X119305106Y-110024341D01*
X119275536Y-110173000D01*
X116720847Y-110173000D01*
X120557215Y-106336633D01*
X120674341Y-106414894D01*
X120823000Y-106444464D01*
X122423000Y-106444464D01*
X122571659Y-106414894D01*
X122697686Y-106330686D01*
X122781894Y-106204659D01*
X122811464Y-106056000D01*
X122811464Y-105991111D01*
X124117650Y-107297298D01*
X124147271Y-107341629D01*
X124191602Y-107371250D01*
X124191603Y-107371251D01*
X124322914Y-107458990D01*
X124530100Y-107500202D01*
X124582394Y-107489800D01*
X125416745Y-107489800D01*
X125410000Y-107506085D01*
X125410000Y-107975915D01*
X125589797Y-108409983D01*
X125755845Y-108576031D01*
X125712699Y-108567449D01*
X125662671Y-108577400D01*
X125662668Y-108577400D01*
X125514488Y-108606875D01*
X125346453Y-108719153D01*
X125318112Y-108761568D01*
X123961468Y-110118212D01*
X123938549Y-110133526D01*
X123534312Y-109863424D01*
X123175239Y-109792000D01*
X122932761Y-109792000D01*
X122573688Y-109863424D01*
X122166499Y-110135499D01*
X121894424Y-110542688D01*
X121798884Y-111023000D01*
X121894424Y-111503312D01*
X122166499Y-111910501D01*
X122573688Y-112182576D01*
X122932761Y-112254000D01*
X123175239Y-112254000D01*
X123534312Y-112182576D01*
X123941501Y-111910501D01*
X124195075Y-111531000D01*
X124235268Y-111531000D01*
X124285300Y-111540952D01*
X124439129Y-111510353D01*
X124706499Y-111910501D01*
X125113688Y-112182576D01*
X125472761Y-112254000D01*
X125715239Y-112254000D01*
X126074312Y-112182576D01*
X126481501Y-111910501D01*
X126735075Y-111531000D01*
X126775268Y-111531000D01*
X126825300Y-111540952D01*
X126979129Y-111510353D01*
X127246499Y-111910501D01*
X127653688Y-112182576D01*
X128012761Y-112254000D01*
X128255239Y-112254000D01*
X128614312Y-112182576D01*
X129021501Y-111910501D01*
X129275075Y-111531000D01*
X129315268Y-111531000D01*
X129365300Y-111540952D01*
X129519129Y-111510353D01*
X129786499Y-111910501D01*
X130193688Y-112182576D01*
X130552761Y-112254000D01*
X130795239Y-112254000D01*
X131154312Y-112182576D01*
X131561501Y-111910501D01*
X131725744Y-111664693D01*
X134660700Y-111664693D01*
X134660700Y-112013307D01*
X134794109Y-112335384D01*
X135040616Y-112581891D01*
X135362693Y-112715300D01*
X135711307Y-112715300D01*
X136033384Y-112581891D01*
X136279891Y-112335384D01*
X136413300Y-112013307D01*
X136413300Y-111664693D01*
X136279891Y-111342616D01*
X136033384Y-111096109D01*
X135711307Y-110962700D01*
X135362693Y-110962700D01*
X135040616Y-111096109D01*
X134794109Y-111342616D01*
X134660700Y-111664693D01*
X131725744Y-111664693D01*
X131799707Y-111554000D01*
X132939710Y-111554000D01*
X132992000Y-111564401D01*
X133044290Y-111554000D01*
X133044294Y-111554000D01*
X133199186Y-111523190D01*
X133374829Y-111405829D01*
X133404452Y-111361495D01*
X134697001Y-110068946D01*
X134794109Y-110303384D01*
X135040616Y-110549891D01*
X135362693Y-110683300D01*
X135711307Y-110683300D01*
X135794855Y-110648693D01*
X139740700Y-110648693D01*
X139740700Y-110997307D01*
X139874109Y-111319384D01*
X140120616Y-111565891D01*
X140442693Y-111699300D01*
X140791307Y-111699300D01*
X141113384Y-111565891D01*
X141359891Y-111319384D01*
X141493300Y-110997307D01*
X141493300Y-110648693D01*
X141359891Y-110326616D01*
X141113384Y-110080109D01*
X140791307Y-109946700D01*
X140442693Y-109946700D01*
X140120616Y-110080109D01*
X139874109Y-110326616D01*
X139740700Y-110648693D01*
X135794855Y-110648693D01*
X136033384Y-110549891D01*
X136279891Y-110303384D01*
X136413300Y-109981307D01*
X136413300Y-109632693D01*
X136279891Y-109310616D01*
X136033384Y-109064109D01*
X135983164Y-109043307D01*
X136308600Y-109043307D01*
X136308600Y-109331293D01*
X136418807Y-109597356D01*
X136622444Y-109800993D01*
X136888507Y-109911200D01*
X137176493Y-109911200D01*
X137442556Y-109800993D01*
X137548249Y-109695300D01*
X139243272Y-109695300D01*
X139293300Y-109705251D01*
X139343328Y-109695300D01*
X139343332Y-109695300D01*
X139491512Y-109665825D01*
X139659547Y-109553547D01*
X139687888Y-109511132D01*
X142195029Y-107003992D01*
X142469302Y-107117600D01*
X143018698Y-107117600D01*
X143526273Y-106907355D01*
X143544496Y-106889132D01*
X146271073Y-106889132D01*
X146369736Y-107155987D01*
X146979461Y-107382508D01*
X147629460Y-107358456D01*
X148118264Y-107155987D01*
X148216927Y-106889132D01*
X147244000Y-105916205D01*
X146271073Y-106889132D01*
X143544496Y-106889132D01*
X143914755Y-106518873D01*
X144125000Y-106011298D01*
X144125000Y-105472061D01*
X145598092Y-105472061D01*
X145622144Y-106122060D01*
X145824613Y-106610864D01*
X146091468Y-106709527D01*
X147064395Y-105736600D01*
X147423605Y-105736600D01*
X148396532Y-106709527D01*
X148663387Y-106610864D01*
X148889908Y-106001139D01*
X148865856Y-105351140D01*
X148663387Y-104862336D01*
X148396532Y-104763673D01*
X147423605Y-105736600D01*
X147064395Y-105736600D01*
X146091468Y-104763673D01*
X145824613Y-104862336D01*
X145598092Y-105472061D01*
X144125000Y-105472061D01*
X144125000Y-105461902D01*
X143914755Y-104954327D01*
X143544496Y-104584068D01*
X146271073Y-104584068D01*
X147244000Y-105556995D01*
X148216927Y-104584068D01*
X148118264Y-104317213D01*
X147508539Y-104090692D01*
X146858540Y-104114744D01*
X146369736Y-104317213D01*
X146271073Y-104584068D01*
X143544496Y-104584068D01*
X143526273Y-104565845D01*
X143252000Y-104452237D01*
X143252000Y-100520963D01*
X143526273Y-100407355D01*
X143544496Y-100389132D01*
X146271073Y-100389132D01*
X146369736Y-100655987D01*
X146979461Y-100882508D01*
X147629460Y-100858456D01*
X148118264Y-100655987D01*
X148216927Y-100389132D01*
X147244000Y-99416205D01*
X146271073Y-100389132D01*
X143544496Y-100389132D01*
X143914755Y-100018873D01*
X144125000Y-99511298D01*
X144125000Y-98972061D01*
X145598092Y-98972061D01*
X145622144Y-99622060D01*
X145824613Y-100110864D01*
X146091468Y-100209527D01*
X147064395Y-99236600D01*
X147423605Y-99236600D01*
X148396532Y-100209527D01*
X148663387Y-100110864D01*
X148889908Y-99501139D01*
X148865856Y-98851140D01*
X148663387Y-98362336D01*
X148396532Y-98263673D01*
X147423605Y-99236600D01*
X147064395Y-99236600D01*
X146091468Y-98263673D01*
X145824613Y-98362336D01*
X145598092Y-98972061D01*
X144125000Y-98972061D01*
X144125000Y-98961902D01*
X143914755Y-98454327D01*
X143544496Y-98084068D01*
X146271073Y-98084068D01*
X147244000Y-99056995D01*
X148216927Y-98084068D01*
X148118264Y-97817213D01*
X147508539Y-97590692D01*
X146858540Y-97614744D01*
X146369736Y-97817213D01*
X146271073Y-98084068D01*
X143544496Y-98084068D01*
X143526273Y-98065845D01*
X143018698Y-97855600D01*
X142469302Y-97855600D01*
X141961727Y-98065845D01*
X141573245Y-98454327D01*
X141363000Y-98961902D01*
X141363000Y-99511298D01*
X141573245Y-100018873D01*
X141961727Y-100407355D01*
X142236001Y-100520963D01*
X142236000Y-104452237D01*
X141961727Y-104565845D01*
X141573245Y-104954327D01*
X141363000Y-105461902D01*
X141363000Y-106011298D01*
X141476608Y-106285571D01*
X139082880Y-108679300D01*
X137548249Y-108679300D01*
X137442556Y-108573607D01*
X137176493Y-108463400D01*
X136888507Y-108463400D01*
X136622444Y-108573607D01*
X136418807Y-108777244D01*
X136308600Y-109043307D01*
X135983164Y-109043307D01*
X135798946Y-108967001D01*
X137601198Y-107164750D01*
X137614212Y-107156055D01*
X137615547Y-107158053D01*
X138006197Y-107419078D01*
X138350682Y-107487600D01*
X138583318Y-107487600D01*
X138927803Y-107419078D01*
X139318453Y-107158053D01*
X139579478Y-106767403D01*
X139671137Y-106306600D01*
X139579478Y-105845797D01*
X139318453Y-105455147D01*
X138927803Y-105194122D01*
X138583318Y-105125600D01*
X138350682Y-105125600D01*
X138006197Y-105194122D01*
X137615547Y-105455147D01*
X137401426Y-105775600D01*
X137314994Y-105775600D01*
X137262700Y-105765198D01*
X137153094Y-105787000D01*
X137055514Y-105806410D01*
X137026233Y-105825975D01*
X136778453Y-105455147D01*
X136387803Y-105194122D01*
X136043318Y-105125600D01*
X135810682Y-105125600D01*
X135466197Y-105194122D01*
X135075547Y-105455147D01*
X134846058Y-105798600D01*
X134795732Y-105798600D01*
X134745700Y-105788648D01*
X134695668Y-105798600D01*
X134547488Y-105828075D01*
X134501999Y-105858470D01*
X134499478Y-105845797D01*
X134238453Y-105455147D01*
X133847803Y-105194122D01*
X133503318Y-105125600D01*
X133270682Y-105125600D01*
X132926197Y-105194122D01*
X132535547Y-105455147D01*
X132306058Y-105798600D01*
X132255732Y-105798600D01*
X132205700Y-105788648D01*
X132155668Y-105798600D01*
X132007488Y-105828075D01*
X131961999Y-105858470D01*
X131959478Y-105845797D01*
X131698453Y-105455147D01*
X131307803Y-105194122D01*
X130963318Y-105125600D01*
X130730682Y-105125600D01*
X130386197Y-105194122D01*
X129995547Y-105455147D01*
X129766058Y-105798600D01*
X129715732Y-105798600D01*
X129665700Y-105788648D01*
X129615668Y-105798600D01*
X129467488Y-105828075D01*
X129299453Y-105940353D01*
X129187175Y-106108388D01*
X129179126Y-106148854D01*
X127772000Y-107555980D01*
X127772000Y-107506085D01*
X127592203Y-107072017D01*
X127339117Y-106818931D01*
X128150298Y-106007750D01*
X128194629Y-105978129D01*
X128225863Y-105931385D01*
X128311990Y-105802486D01*
X128321199Y-105756190D01*
X128342800Y-105647594D01*
X128342800Y-105647591D01*
X128353201Y-105595301D01*
X128342800Y-105543011D01*
X128342800Y-99035641D01*
X129455086Y-99035641D01*
X129694611Y-99541734D01*
X130109577Y-99917641D01*
X130497961Y-100078504D01*
X130720000Y-99956515D01*
X130720000Y-98813600D01*
X129576371Y-98813600D01*
X129455086Y-99035641D01*
X128342800Y-99035641D01*
X128342800Y-98337559D01*
X129455086Y-98337559D01*
X129576371Y-98559600D01*
X130720000Y-98559600D01*
X130720000Y-97416685D01*
X130974000Y-97416685D01*
X130974000Y-98559600D01*
X130994000Y-98559600D01*
X130994000Y-98813600D01*
X130974000Y-98813600D01*
X130974000Y-99956515D01*
X131196039Y-100078504D01*
X131584423Y-99917641D01*
X131999389Y-99541734D01*
X132238914Y-99035641D01*
X132117630Y-98813602D01*
X132208125Y-98813602D01*
X132274522Y-99147403D01*
X132535547Y-99538053D01*
X132926197Y-99799078D01*
X133270682Y-99867600D01*
X133503318Y-99867600D01*
X133847803Y-99799078D01*
X134238453Y-99538053D01*
X134499478Y-99147403D01*
X134591137Y-98686600D01*
X134722863Y-98686600D01*
X134814522Y-99147403D01*
X135075547Y-99538053D01*
X135466197Y-99799078D01*
X135810682Y-99867600D01*
X136043318Y-99867600D01*
X136387803Y-99799078D01*
X136778453Y-99538053D01*
X137039478Y-99147403D01*
X137131137Y-98686600D01*
X137039478Y-98225797D01*
X136778453Y-97835147D01*
X136387803Y-97574122D01*
X136043318Y-97505600D01*
X135810682Y-97505600D01*
X135466197Y-97574122D01*
X135075547Y-97835147D01*
X134814522Y-98225797D01*
X134722863Y-98686600D01*
X134591137Y-98686600D01*
X134499478Y-98225797D01*
X134238453Y-97835147D01*
X133847803Y-97574122D01*
X133503318Y-97505600D01*
X133270682Y-97505600D01*
X132926197Y-97574122D01*
X132535547Y-97835147D01*
X132274522Y-98225797D01*
X132208125Y-98559598D01*
X132117630Y-98559598D01*
X132238914Y-98337559D01*
X131999389Y-97831466D01*
X131584423Y-97455559D01*
X131196039Y-97294696D01*
X130974000Y-97416685D01*
X130720000Y-97416685D01*
X130497961Y-97294696D01*
X130109577Y-97455559D01*
X129694611Y-97831466D01*
X129455086Y-98337559D01*
X128342800Y-98337559D01*
X128342800Y-96321794D01*
X128353202Y-96269500D01*
X128311990Y-96062314D01*
X128224251Y-95931003D01*
X128224250Y-95931002D01*
X128194629Y-95886671D01*
X128150298Y-95857050D01*
X127714846Y-95421598D01*
X127772000Y-95283615D01*
X127772000Y-94813785D01*
X127592203Y-94379717D01*
X127259983Y-94047497D01*
X126825915Y-93867700D01*
X126356085Y-93867700D01*
X125922017Y-94047497D01*
X125589797Y-94379717D01*
X125410000Y-94813785D01*
X125410000Y-94869480D01*
X124582300Y-94041780D01*
X124582300Y-92953800D01*
X132026536Y-92953800D01*
X132026536Y-94553800D01*
X132056106Y-94702459D01*
X132140314Y-94828486D01*
X132266341Y-94912694D01*
X132415000Y-94942264D01*
X134015000Y-94942264D01*
X134163659Y-94912694D01*
X134289686Y-94828486D01*
X134373894Y-94702459D01*
X134403464Y-94553800D01*
X134403464Y-92953800D01*
X134373894Y-92805141D01*
X134289686Y-92679114D01*
X134163659Y-92594906D01*
X134015000Y-92565336D01*
X133829773Y-92565336D01*
X133969005Y-92507664D01*
X134043139Y-92261545D01*
X133215000Y-91433405D01*
X132386861Y-92261545D01*
X132460995Y-92507664D01*
X132621445Y-92565336D01*
X132415000Y-92565336D01*
X132266341Y-92594906D01*
X132140314Y-92679114D01*
X132056106Y-92805141D01*
X132026536Y-92953800D01*
X124582300Y-92953800D01*
X124582300Y-91056445D01*
X125762861Y-91056445D01*
X125836995Y-91302564D01*
X126374223Y-91495665D01*
X126944454Y-91468478D01*
X127345005Y-91302564D01*
X127419139Y-91056445D01*
X127399718Y-91037023D01*
X131768035Y-91037023D01*
X131795222Y-91607254D01*
X131961136Y-92007805D01*
X132207255Y-92081939D01*
X133035395Y-91253800D01*
X132207255Y-90425661D01*
X131961136Y-90499795D01*
X131768035Y-91037023D01*
X127399718Y-91037023D01*
X126591000Y-90228305D01*
X125762861Y-91056445D01*
X124582300Y-91056445D01*
X124582300Y-91004431D01*
X124592252Y-90954400D01*
X124582300Y-90904368D01*
X124582300Y-90261220D01*
X125218350Y-89625170D01*
X125144035Y-89831923D01*
X125171222Y-90402154D01*
X125337136Y-90802705D01*
X125583255Y-90876839D01*
X126411395Y-90048700D01*
X126770605Y-90048700D01*
X127598745Y-90876839D01*
X127844864Y-90802705D01*
X128037965Y-90265477D01*
X128010778Y-89695246D01*
X127844864Y-89294695D01*
X127598745Y-89220561D01*
X126770605Y-90048700D01*
X126411395Y-90048700D01*
X126397252Y-90034558D01*
X126576858Y-89854952D01*
X126591000Y-89869095D01*
X127419139Y-89040955D01*
X127345005Y-88794836D01*
X126807777Y-88601735D01*
X126237546Y-88628922D01*
X126198372Y-88645148D01*
X127223716Y-87619805D01*
X127246499Y-87653901D01*
X127653688Y-87925976D01*
X128012761Y-87997400D01*
X128255239Y-87997400D01*
X128614312Y-87925976D01*
X129021501Y-87653901D01*
X129293576Y-87246712D01*
X129389116Y-86766400D01*
X129418884Y-86766400D01*
X129514424Y-87246712D01*
X129786499Y-87653901D01*
X130166001Y-87907476D01*
X130166001Y-87947663D01*
X130156048Y-87997700D01*
X130195475Y-88195912D01*
X130307753Y-88363947D01*
X130475788Y-88476225D01*
X130623968Y-88505700D01*
X130674000Y-88515652D01*
X130724032Y-88505700D01*
X131424480Y-88505700D01*
X132784652Y-89865872D01*
X132460995Y-89999936D01*
X132386861Y-90246055D01*
X133215000Y-91074195D01*
X133229142Y-91060052D01*
X133408748Y-91239658D01*
X133394605Y-91253800D01*
X134222745Y-92081939D01*
X134468864Y-92007805D01*
X134589887Y-91671107D01*
X137959001Y-95040221D01*
X137959000Y-97498136D01*
X137667000Y-97498136D01*
X137518341Y-97527706D01*
X137392314Y-97611914D01*
X137308106Y-97737941D01*
X137278536Y-97886600D01*
X137278536Y-99486600D01*
X137308106Y-99635259D01*
X137392314Y-99761286D01*
X137518341Y-99845494D01*
X137667000Y-99875064D01*
X139267000Y-99875064D01*
X139415659Y-99845494D01*
X139541686Y-99761286D01*
X139625894Y-99635259D01*
X139655464Y-99486600D01*
X139655464Y-97886600D01*
X139625894Y-97737941D01*
X139541686Y-97611914D01*
X139415659Y-97527706D01*
X139267000Y-97498136D01*
X138975000Y-97498136D01*
X138975000Y-94879826D01*
X138984951Y-94829799D01*
X138975000Y-94779772D01*
X138975000Y-94779768D01*
X138945525Y-94631588D01*
X138833247Y-94463553D01*
X138790832Y-94435212D01*
X132029488Y-87673868D01*
X132001147Y-87631453D01*
X131833112Y-87519175D01*
X131684932Y-87489700D01*
X131684928Y-87489700D01*
X131672825Y-87487293D01*
X131833576Y-87246712D01*
X131929116Y-86766400D01*
X131833576Y-86286088D01*
X131561501Y-85878899D01*
X131154312Y-85606824D01*
X130795239Y-85535400D01*
X130552761Y-85535400D01*
X130193688Y-85606824D01*
X129786499Y-85878899D01*
X129514424Y-86286088D01*
X129418884Y-86766400D01*
X129389116Y-86766400D01*
X129293576Y-86286088D01*
X129021501Y-85878899D01*
X128614312Y-85606824D01*
X128255239Y-85535400D01*
X128012761Y-85535400D01*
X127653688Y-85606824D01*
X127246499Y-85878899D01*
X126992925Y-86258400D01*
X126952732Y-86258400D01*
X126902700Y-86248448D01*
X126852668Y-86258400D01*
X126748871Y-86279047D01*
X126481501Y-85878899D01*
X126074312Y-85606824D01*
X125715239Y-85535400D01*
X125472761Y-85535400D01*
X125113688Y-85606824D01*
X124706499Y-85878899D01*
X124436245Y-86283363D01*
X124249183Y-85885042D01*
X123820924Y-85494755D01*
X123410890Y-85324924D01*
X123181000Y-85446245D01*
X123181000Y-86639400D01*
X123201000Y-86639400D01*
X123201000Y-86893400D01*
X123181000Y-86893400D01*
X123181000Y-88086555D01*
X123410890Y-88207876D01*
X123820924Y-88038045D01*
X124249183Y-87647758D01*
X124436245Y-87249437D01*
X124706499Y-87653901D01*
X125113688Y-87925976D01*
X125419812Y-87986868D01*
X123750466Y-89656214D01*
X123708054Y-89684553D01*
X123679715Y-89726965D01*
X123679712Y-89726968D01*
X123595775Y-89852589D01*
X123569261Y-89985887D01*
X123353803Y-89841922D01*
X123009318Y-89773400D01*
X122776682Y-89773400D01*
X122432197Y-89841922D01*
X122041547Y-90102947D01*
X121780522Y-90493597D01*
X121688863Y-90954400D01*
X121780522Y-91415203D01*
X122041547Y-91805853D01*
X122432197Y-92066878D01*
X122776682Y-92135400D01*
X123009318Y-92135400D01*
X123353803Y-92066878D01*
X123566301Y-91924891D01*
X123566300Y-94202172D01*
X123556349Y-94252200D01*
X123566300Y-94302228D01*
X123566300Y-94302231D01*
X123576056Y-94351275D01*
X123595775Y-94450411D01*
X123661323Y-94548510D01*
X123708053Y-94618447D01*
X123750468Y-94646788D01*
X125795703Y-96692024D01*
X125739547Y-96729547D01*
X125478522Y-97120197D01*
X125386863Y-97581000D01*
X125478522Y-98041803D01*
X125739547Y-98432453D01*
X126130197Y-98693478D01*
X126474682Y-98762000D01*
X126707318Y-98762000D01*
X127051803Y-98693478D01*
X127280801Y-98540466D01*
X127280800Y-105375352D01*
X126228353Y-106427800D01*
X124750048Y-106427800D01*
X123239752Y-104917505D01*
X123210129Y-104873171D01*
X123034486Y-104755810D01*
X122879594Y-104725000D01*
X122879590Y-104725000D01*
X122827300Y-104714599D01*
X122811464Y-104717749D01*
X122811464Y-104456000D01*
X122781894Y-104307341D01*
X122697686Y-104181314D01*
X122571659Y-104097106D01*
X122423000Y-104067536D01*
X120823000Y-104067536D01*
X120674341Y-104097106D01*
X120548314Y-104181314D01*
X120464106Y-104307341D01*
X120434536Y-104456000D01*
X120434536Y-104717748D01*
X120418700Y-104714598D01*
X120366406Y-104725000D01*
X120211514Y-104755810D01*
X120035871Y-104873171D01*
X119918510Y-105048814D01*
X119877298Y-105256000D01*
X119887700Y-105308293D01*
X119887700Y-105504252D01*
X116729000Y-108662953D01*
X116729000Y-108648921D01*
X116572039Y-108269986D01*
X116282014Y-107979961D01*
X116229000Y-107958002D01*
X116229000Y-101618000D01*
X121688863Y-101618000D01*
X121780522Y-102078803D01*
X122041547Y-102469453D01*
X122432197Y-102730478D01*
X122776682Y-102799000D01*
X123009318Y-102799000D01*
X123353803Y-102730478D01*
X123744453Y-102469453D01*
X124005478Y-102078803D01*
X124097137Y-101618000D01*
X124005478Y-101157197D01*
X123744453Y-100766547D01*
X123353803Y-100505522D01*
X123009318Y-100437000D01*
X122776682Y-100437000D01*
X122432197Y-100505522D01*
X122041547Y-100766547D01*
X121780522Y-101157197D01*
X121688863Y-101618000D01*
X116229000Y-101618000D01*
X116229000Y-98329339D01*
X120231096Y-98329339D01*
X120391959Y-98717723D01*
X120767866Y-99132689D01*
X121273959Y-99372214D01*
X121496000Y-99250929D01*
X121496000Y-98107300D01*
X121750000Y-98107300D01*
X121750000Y-99250929D01*
X121972041Y-99372214D01*
X122478134Y-99132689D01*
X122854041Y-98717723D01*
X123014904Y-98329339D01*
X122892915Y-98107300D01*
X121750000Y-98107300D01*
X121496000Y-98107300D01*
X120353085Y-98107300D01*
X120231096Y-98329339D01*
X116229000Y-98329339D01*
X116229000Y-97631261D01*
X120231096Y-97631261D01*
X120353085Y-97853300D01*
X121496000Y-97853300D01*
X121496000Y-96709671D01*
X121750000Y-96709671D01*
X121750000Y-97853300D01*
X122892915Y-97853300D01*
X123014904Y-97631261D01*
X122854041Y-97242877D01*
X122478134Y-96827911D01*
X121972041Y-96588386D01*
X121750000Y-96709671D01*
X121496000Y-96709671D01*
X121273959Y-96588386D01*
X120767866Y-96827911D01*
X120391959Y-97242877D01*
X120231096Y-97631261D01*
X116229000Y-97631261D01*
X116229000Y-94941339D01*
X120231096Y-94941339D01*
X120391959Y-95329723D01*
X120767866Y-95744689D01*
X121273959Y-95984214D01*
X121496000Y-95862929D01*
X121496000Y-94719300D01*
X121750000Y-94719300D01*
X121750000Y-95862929D01*
X121972041Y-95984214D01*
X122478134Y-95744689D01*
X122854041Y-95329723D01*
X123014904Y-94941339D01*
X122892915Y-94719300D01*
X121750000Y-94719300D01*
X121496000Y-94719300D01*
X120353085Y-94719300D01*
X120231096Y-94941339D01*
X116229000Y-94941339D01*
X116229000Y-94243261D01*
X120231096Y-94243261D01*
X120353085Y-94465300D01*
X121496000Y-94465300D01*
X121496000Y-93321671D01*
X121750000Y-93321671D01*
X121750000Y-94465300D01*
X122892915Y-94465300D01*
X123014904Y-94243261D01*
X122854041Y-93854877D01*
X122478134Y-93439911D01*
X121972041Y-93200386D01*
X121750000Y-93321671D01*
X121496000Y-93321671D01*
X121273959Y-93200386D01*
X120767866Y-93439911D01*
X120391959Y-93854877D01*
X120231096Y-94243261D01*
X116229000Y-94243261D01*
X116229000Y-93056647D01*
X120852495Y-88433152D01*
X120896829Y-88403529D01*
X121014190Y-88227886D01*
X121045000Y-88072994D01*
X121055402Y-88020700D01*
X121052252Y-88004864D01*
X121364000Y-88004864D01*
X121512659Y-87975294D01*
X121638686Y-87891086D01*
X121722894Y-87765059D01*
X121752464Y-87616400D01*
X121752464Y-87421295D01*
X121858817Y-87647758D01*
X122287076Y-88038045D01*
X122697110Y-88207876D01*
X122927000Y-88086555D01*
X122927000Y-86893400D01*
X122907000Y-86893400D01*
X122907000Y-86639400D01*
X122927000Y-86639400D01*
X122927000Y-85446245D01*
X122697110Y-85324924D01*
X122287076Y-85494755D01*
X121858817Y-85885042D01*
X121752464Y-86111505D01*
X121752464Y-85916400D01*
X121722894Y-85767741D01*
X121638686Y-85641714D01*
X121512659Y-85557506D01*
X121364000Y-85527936D01*
X119664000Y-85527936D01*
X119515341Y-85557506D01*
X119389314Y-85641714D01*
X119305106Y-85767741D01*
X119275536Y-85916400D01*
X119275536Y-87616400D01*
X119305106Y-87765059D01*
X119389314Y-87891086D01*
X119515341Y-87975294D01*
X119664000Y-88004864D01*
X119778889Y-88004864D01*
X115359503Y-92424250D01*
X115315172Y-92453871D01*
X115285551Y-92498202D01*
X115285549Y-92498204D01*
X115197810Y-92629515D01*
X115156599Y-92836700D01*
X115167001Y-92888995D01*
X115167001Y-93669315D01*
X115161894Y-93643641D01*
X115077686Y-93517614D01*
X114951659Y-93433406D01*
X114803000Y-93403836D01*
X114511000Y-93403836D01*
X114511000Y-92274427D01*
X114520951Y-92224399D01*
X114511000Y-92174369D01*
X114511000Y-92174368D01*
X114481525Y-92026188D01*
X114469242Y-92007805D01*
X114397588Y-91900567D01*
X114397586Y-91900565D01*
X114369247Y-91858153D01*
X114326836Y-91829815D01*
X113847319Y-91350298D01*
X113914000Y-91189315D01*
X113914000Y-90719485D01*
X113734203Y-90285417D01*
X113401983Y-89953197D01*
X112967915Y-89773400D01*
X112498085Y-89773400D01*
X112137762Y-89922651D01*
X112143041Y-89916823D01*
X112303904Y-89528439D01*
X112181915Y-89306400D01*
X111039000Y-89306400D01*
X111039000Y-90450029D01*
X111261041Y-90571314D01*
X111699289Y-90363899D01*
X111552000Y-90719485D01*
X111552000Y-91189315D01*
X111731797Y-91623383D01*
X112064017Y-91955603D01*
X112498085Y-92135400D01*
X112967915Y-92135400D01*
X113128898Y-92068719D01*
X113495000Y-92434821D01*
X113495000Y-93403836D01*
X113203000Y-93403836D01*
X113054341Y-93433406D01*
X112928314Y-93517614D01*
X112844106Y-93643641D01*
X112814536Y-93792300D01*
X112814536Y-94084300D01*
X111343728Y-94084300D01*
X111293700Y-94074349D01*
X111243672Y-94084300D01*
X111243668Y-94084300D01*
X111095488Y-94113775D01*
X111034986Y-94154202D01*
X110969867Y-94197712D01*
X110969865Y-94197714D01*
X110927453Y-94226053D01*
X110899114Y-94268465D01*
X108638167Y-96529413D01*
X108448861Y-96451000D01*
X107959139Y-96451000D01*
X107506694Y-96638408D01*
X107204000Y-96941102D01*
X106901306Y-96638408D01*
X106448861Y-96451000D01*
X105959139Y-96451000D01*
X105506694Y-96638408D01*
X105160408Y-96984694D01*
X104973000Y-97437139D01*
X93148590Y-97437139D01*
X93148590Y-94606528D01*
X101979077Y-94606528D01*
X102169364Y-94951271D01*
X103050591Y-95302956D01*
X103999323Y-95290641D01*
X104818636Y-94951271D01*
X105008923Y-94606528D01*
X103494000Y-93091605D01*
X101979077Y-94606528D01*
X93148590Y-94606528D01*
X93148590Y-92468591D01*
X101103044Y-92468591D01*
X101115359Y-93417323D01*
X101454729Y-94236636D01*
X101799472Y-94426923D01*
X103314395Y-92912000D01*
X103673605Y-92912000D01*
X105188528Y-94426923D01*
X105533271Y-94236636D01*
X105884956Y-93355409D01*
X105872641Y-92406677D01*
X105533271Y-91587364D01*
X105188528Y-91397077D01*
X103673605Y-92912000D01*
X103314395Y-92912000D01*
X101799472Y-91397077D01*
X101454729Y-91587364D01*
X101103044Y-92468591D01*
X93148590Y-92468591D01*
X93148590Y-91217472D01*
X101979077Y-91217472D01*
X103494000Y-92732395D01*
X105008923Y-91217472D01*
X104818636Y-90872729D01*
X103937409Y-90521044D01*
X102988677Y-90533359D01*
X102169364Y-90872729D01*
X101979077Y-91217472D01*
X93148590Y-91217472D01*
X93148590Y-87050500D01*
X95343336Y-87050500D01*
X95343336Y-88850500D01*
X95372906Y-88999159D01*
X95457114Y-89125186D01*
X95583141Y-89209394D01*
X95731800Y-89238964D01*
X97531800Y-89238964D01*
X97680459Y-89209394D01*
X97806486Y-89125186D01*
X97890694Y-88999159D01*
X97901569Y-88944485D01*
X99571000Y-88944485D01*
X99571000Y-89414315D01*
X99750797Y-89848383D01*
X100083017Y-90180603D01*
X100517085Y-90360400D01*
X100986915Y-90360400D01*
X101420983Y-90180603D01*
X101753203Y-89848383D01*
X101885728Y-89528439D01*
X109520096Y-89528439D01*
X109680959Y-89916823D01*
X110056866Y-90331789D01*
X110562959Y-90571314D01*
X110785000Y-90450029D01*
X110785000Y-89306400D01*
X109642085Y-89306400D01*
X109520096Y-89528439D01*
X101885728Y-89528439D01*
X101933000Y-89414315D01*
X101933000Y-88944485D01*
X101885729Y-88830361D01*
X109520096Y-88830361D01*
X109642085Y-89052400D01*
X110785000Y-89052400D01*
X110785000Y-87908771D01*
X111039000Y-87908771D01*
X111039000Y-89052400D01*
X112181915Y-89052400D01*
X112303904Y-88830361D01*
X112143041Y-88441977D01*
X111767134Y-88027011D01*
X111261041Y-87787486D01*
X111039000Y-87908771D01*
X110785000Y-87908771D01*
X110562959Y-87787486D01*
X110056866Y-88027011D01*
X109680959Y-88441977D01*
X109520096Y-88830361D01*
X101885729Y-88830361D01*
X101753203Y-88510417D01*
X101420983Y-88178197D01*
X100986915Y-87998400D01*
X100517085Y-87998400D01*
X100083017Y-88178197D01*
X99750797Y-88510417D01*
X99571000Y-88944485D01*
X97901569Y-88944485D01*
X97920264Y-88850500D01*
X97920264Y-87050500D01*
X97890694Y-86901841D01*
X97806486Y-86775814D01*
X97680459Y-86691606D01*
X97531800Y-86662036D01*
X96957739Y-86662036D01*
X97357428Y-86496479D01*
X97717779Y-86136128D01*
X97912800Y-85665307D01*
X97912800Y-85155693D01*
X97717779Y-84684872D01*
X97482918Y-84450011D01*
X104899000Y-84450011D01*
X104899000Y-85039189D01*
X105124468Y-85583519D01*
X105541081Y-86000132D01*
X106085411Y-86225600D01*
X106674589Y-86225600D01*
X107218919Y-86000132D01*
X107635532Y-85583519D01*
X107861000Y-85039189D01*
X107861000Y-84450011D01*
X143317000Y-84450011D01*
X143317000Y-85039189D01*
X143542468Y-85583519D01*
X143959081Y-86000132D01*
X144503411Y-86225600D01*
X145092589Y-86225600D01*
X145636919Y-86000132D01*
X146053532Y-85583519D01*
X146279000Y-85039189D01*
X146279000Y-84450011D01*
X146053532Y-83905681D01*
X145636919Y-83489068D01*
X145092589Y-83263600D01*
X144503411Y-83263600D01*
X143959081Y-83489068D01*
X143542468Y-83905681D01*
X143317000Y-84450011D01*
X107861000Y-84450011D01*
X107635532Y-83905681D01*
X107218919Y-83489068D01*
X106674589Y-83263600D01*
X106085411Y-83263600D01*
X105541081Y-83489068D01*
X105124468Y-83905681D01*
X104899000Y-84450011D01*
X97482918Y-84450011D01*
X97357428Y-84324521D01*
X96886607Y-84129500D01*
X96376993Y-84129500D01*
X95906172Y-84324521D01*
X95545821Y-84684872D01*
X95350800Y-85155693D01*
X95350800Y-85665307D01*
X95545821Y-86136128D01*
X95906172Y-86496479D01*
X96305861Y-86662036D01*
X95731800Y-86662036D01*
X95583141Y-86691606D01*
X95457114Y-86775814D01*
X95372906Y-86901841D01*
X95343336Y-87050500D01*
X93148590Y-87050500D01*
X93148590Y-86857075D01*
X93163869Y-86507132D01*
X93208508Y-86168058D01*
X93282531Y-85834164D01*
X93385372Y-85507998D01*
X93516252Y-85192027D01*
X93674170Y-84888671D01*
X93857924Y-84600235D01*
X94066117Y-84328915D01*
X94297168Y-84076768D01*
X94549302Y-83845729D01*
X94820628Y-83637532D01*
X95109063Y-83453779D01*
X95412419Y-83295861D01*
X95728389Y-83164982D01*
X96054554Y-83062141D01*
X96364297Y-82993473D01*
X145625020Y-82928388D01*
X146870791Y-84011668D01*
X146870791Y-84011668D01*
G37*
X146870791Y-84011668D02*
X146870790Y-86571252D01*
X146869983Y-86573263D01*
X146870790Y-86646547D01*
X146870790Y-86681913D01*
X146871202Y-86683986D01*
X146871645Y-86724187D01*
X146885782Y-86757282D01*
X146892804Y-86792584D01*
X146915143Y-86826017D01*
X146915971Y-86827956D01*
X146935899Y-86857081D01*
X146976658Y-86918083D01*
X146978461Y-86919288D01*
X149665791Y-90846926D01*
X149665790Y-111043602D01*
X147021174Y-113291525D01*
X146976659Y-113321269D01*
X146943262Y-113371252D01*
X146905937Y-113418369D01*
X146901602Y-113433601D01*
X146892805Y-113446767D01*
X146881080Y-113505712D01*
X146864623Y-113563539D01*
X146870791Y-113616726D01*
X146870790Y-114934915D01*
X96364293Y-114870128D01*
X96054554Y-114801461D01*
X95728389Y-114698620D01*
X95412419Y-114567741D01*
X95109063Y-114409823D01*
X94820628Y-114226070D01*
X94549302Y-114017873D01*
X94297168Y-113786834D01*
X94066117Y-113534687D01*
X93857924Y-113263367D01*
X93674170Y-112974931D01*
X93516252Y-112671575D01*
X93385372Y-112355604D01*
X93282531Y-112029438D01*
X93208508Y-111695544D01*
X93163869Y-111356470D01*
X93148590Y-111006527D01*
X93148590Y-109013000D01*
X95343336Y-109013000D01*
X95343336Y-110813000D01*
X95372906Y-110961659D01*
X95457114Y-111087686D01*
X95583141Y-111171894D01*
X95731800Y-111201464D01*
X96305861Y-111201464D01*
X95906172Y-111367021D01*
X95545821Y-111727372D01*
X95350800Y-112198193D01*
X95350800Y-112707807D01*
X95545821Y-113178628D01*
X95906172Y-113538979D01*
X96376993Y-113734000D01*
X96886607Y-113734000D01*
X97357428Y-113538979D01*
X97717779Y-113178628D01*
X97885625Y-112773411D01*
X104899000Y-112773411D01*
X104899000Y-113362589D01*
X105124468Y-113906919D01*
X105541081Y-114323532D01*
X106085411Y-114549000D01*
X106674589Y-114549000D01*
X107218919Y-114323532D01*
X107635532Y-113906919D01*
X107861000Y-113362589D01*
X107861000Y-112773411D01*
X143317000Y-112773411D01*
X143317000Y-113362589D01*
X143542468Y-113906919D01*
X143959081Y-114323532D01*
X144503411Y-114549000D01*
X145092589Y-114549000D01*
X145636919Y-114323532D01*
X146053532Y-113906919D01*
X146279000Y-113362589D01*
X146279000Y-112773411D01*
X146053532Y-112229081D01*
X145636919Y-111812468D01*
X145092589Y-111587000D01*
X144503411Y-111587000D01*
X143959081Y-111812468D01*
X143542468Y-112229081D01*
X143317000Y-112773411D01*
X107861000Y-112773411D01*
X107635532Y-112229081D01*
X107218919Y-111812468D01*
X106674589Y-111587000D01*
X106085411Y-111587000D01*
X105541081Y-111812468D01*
X105124468Y-112229081D01*
X104899000Y-112773411D01*
X97885625Y-112773411D01*
X97912800Y-112707807D01*
X97912800Y-112198193D01*
X97717779Y-111727372D01*
X97357428Y-111367021D01*
X96957739Y-111201464D01*
X97531800Y-111201464D01*
X97680459Y-111171894D01*
X97806486Y-111087686D01*
X97890694Y-110961659D01*
X97920264Y-110813000D01*
X97920264Y-109013000D01*
X97890694Y-108864341D01*
X97806486Y-108738314D01*
X97680459Y-108654106D01*
X97531800Y-108624536D01*
X95731800Y-108624536D01*
X95583141Y-108654106D01*
X95457114Y-108738314D01*
X95372906Y-108864341D01*
X95343336Y-109013000D01*
X93148590Y-109013000D01*
X93148590Y-108500085D01*
X99571000Y-108500085D01*
X99571000Y-108969915D01*
X99750797Y-109403983D01*
X100083017Y-109736203D01*
X100517085Y-109916000D01*
X100986915Y-109916000D01*
X101420983Y-109736203D01*
X101753203Y-109403983D01*
X101885728Y-109084039D01*
X109520096Y-109084039D01*
X109680959Y-109472423D01*
X110056866Y-109887389D01*
X110562959Y-110126914D01*
X110785000Y-110005629D01*
X110785000Y-108862000D01*
X111039000Y-108862000D01*
X111039000Y-110005629D01*
X111261041Y-110126914D01*
X111649468Y-109943078D01*
X113130378Y-109943078D01*
X113159917Y-110453428D01*
X113298389Y-110787729D01*
X113528984Y-110843410D01*
X114248395Y-110124000D01*
X113528984Y-109404590D01*
X113298389Y-109460271D01*
X113130378Y-109943078D01*
X111649468Y-109943078D01*
X111767134Y-109887389D01*
X112143041Y-109472423D01*
X112303904Y-109084039D01*
X112181915Y-108862000D01*
X111039000Y-108862000D01*
X110785000Y-108862000D01*
X109642085Y-108862000D01*
X109520096Y-109084039D01*
X101885728Y-109084039D01*
X101933000Y-108969915D01*
X101933000Y-108500085D01*
X101885729Y-108385961D01*
X109520096Y-108385961D01*
X109642085Y-108608000D01*
X110785000Y-108608000D01*
X110785000Y-107464371D01*
X111039000Y-107464371D01*
X111039000Y-108608000D01*
X112181915Y-108608000D01*
X112303904Y-108385961D01*
X112143041Y-107997577D01*
X111767134Y-107582611D01*
X111261041Y-107343086D01*
X111039000Y-107464371D01*
X110785000Y-107464371D01*
X110562959Y-107343086D01*
X110056866Y-107582611D01*
X109680959Y-107997577D01*
X109520096Y-108385961D01*
X101885729Y-108385961D01*
X101753203Y-108066017D01*
X101420983Y-107733797D01*
X100986915Y-107554000D01*
X100517085Y-107554000D01*
X100083017Y-107733797D01*
X99750797Y-108066017D01*
X99571000Y-108500085D01*
X93148590Y-108500085D01*
X93148590Y-106646528D01*
X101979077Y-106646528D01*
X102169364Y-106991271D01*
X103050591Y-107342956D01*
X103999323Y-107330641D01*
X104818636Y-106991271D01*
X105008923Y-106646528D01*
X103494000Y-105131605D01*
X101979077Y-106646528D01*
X93148590Y-106646528D01*
X93148590Y-104508591D01*
X101103044Y-104508591D01*
X101115359Y-105457323D01*
X101454729Y-106276636D01*
X101799472Y-106466923D01*
X103314395Y-104952000D01*
X103673605Y-104952000D01*
X105188528Y-106466923D01*
X105533271Y-106276636D01*
X105884956Y-105395409D01*
X105872641Y-104446677D01*
X105533271Y-103627364D01*
X105188528Y-103437077D01*
X103673605Y-104952000D01*
X103314395Y-104952000D01*
X101799472Y-103437077D01*
X101454729Y-103627364D01*
X101103044Y-104508591D01*
X93148590Y-104508591D01*
X93148590Y-103257472D01*
X101979077Y-103257472D01*
X103494000Y-104772395D01*
X105008923Y-103257472D01*
X104818636Y-102912729D01*
X103937409Y-102561044D01*
X102988677Y-102573359D01*
X102169364Y-102912729D01*
X101979077Y-103257472D01*
X93148590Y-103257472D01*
X93148590Y-99953279D01*
X104707282Y-99953279D01*
X104733685Y-100543458D01*
X104908741Y-100966080D01*
X105160042Y-101046353D01*
X106024395Y-100182000D01*
X105160042Y-99317647D01*
X104908741Y-99397920D01*
X104707282Y-99953279D01*
X93148590Y-99953279D01*
X93148590Y-97437139D01*
X104973000Y-97437139D01*
X104973000Y-97926861D01*
X105160408Y-98379306D01*
X105506694Y-98725592D01*
X105657831Y-98788195D01*
X105419920Y-98886741D01*
X105339647Y-99138042D01*
X106204000Y-100002395D01*
X106218143Y-99988253D01*
X106397748Y-100167858D01*
X106383605Y-100182000D01*
X106397748Y-100196143D01*
X106218143Y-100375748D01*
X106204000Y-100361605D01*
X105339647Y-101225958D01*
X105419920Y-101477259D01*
X105975279Y-101678718D01*
X106565458Y-101652315D01*
X106988080Y-101477259D01*
X107054452Y-101269477D01*
X107079314Y-101306686D01*
X107205341Y-101390894D01*
X107354000Y-101420464D01*
X109054000Y-101420464D01*
X109202659Y-101390894D01*
X109328686Y-101306686D01*
X109412894Y-101180659D01*
X109442464Y-101032000D01*
X109442464Y-100917111D01*
X112915548Y-104390195D01*
X112945171Y-104434529D01*
X113073997Y-104520608D01*
X112890522Y-104795197D01*
X112798863Y-105256000D01*
X112890522Y-105716803D01*
X113151547Y-106107453D01*
X113542197Y-106368478D01*
X113886682Y-106437000D01*
X114119318Y-106437000D01*
X114463803Y-106368478D01*
X114854453Y-106107453D01*
X115115478Y-105716803D01*
X115167000Y-105457782D01*
X115167000Y-107958002D01*
X115113986Y-107979961D01*
X114823961Y-108269986D01*
X114667000Y-108648921D01*
X114667000Y-108846588D01*
X114608922Y-108826378D01*
X114098572Y-108855917D01*
X113764271Y-108994389D01*
X113708590Y-109224984D01*
X114428000Y-109944395D01*
X114442143Y-109930253D01*
X114621748Y-110109858D01*
X114607605Y-110124000D01*
X114621748Y-110138142D01*
X114442142Y-110317748D01*
X114428000Y-110303605D01*
X113708590Y-111023016D01*
X113764271Y-111253611D01*
X114247078Y-111421622D01*
X114659536Y-111397749D01*
X114659536Y-112044000D01*
X114689106Y-112192659D01*
X114773314Y-112318686D01*
X114899341Y-112402894D01*
X115048000Y-112432464D01*
X116348000Y-112432464D01*
X116496659Y-112402894D01*
X116622686Y-112318686D01*
X116706894Y-112192659D01*
X116736464Y-112044000D01*
X116736464Y-110744000D01*
X116706894Y-110595341D01*
X116622686Y-110469314D01*
X116503902Y-110389945D01*
X116720847Y-110173000D01*
X119275536Y-110173000D01*
X119275536Y-111873000D01*
X119305106Y-112021659D01*
X119389314Y-112147686D01*
X119515341Y-112231894D01*
X119664000Y-112261464D01*
X121364000Y-112261464D01*
X121512659Y-112231894D01*
X121638686Y-112147686D01*
X121722894Y-112021659D01*
X121752464Y-111873000D01*
X121752464Y-110173000D01*
X121722894Y-110024341D01*
X121638686Y-109898314D01*
X121512659Y-109814106D01*
X121364000Y-109784536D01*
X119664000Y-109784536D01*
X119515341Y-109814106D01*
X119389314Y-109898314D01*
X119305106Y-110024341D01*
X119275536Y-110173000D01*
X116720847Y-110173000D01*
X120557215Y-106336633D01*
X120674341Y-106414894D01*
X120823000Y-106444464D01*
X122423000Y-106444464D01*
X122571659Y-106414894D01*
X122697686Y-106330686D01*
X122781894Y-106204659D01*
X122811464Y-106056000D01*
X122811464Y-105991111D01*
X124117650Y-107297298D01*
X124147271Y-107341629D01*
X124191602Y-107371250D01*
X124191603Y-107371251D01*
X124322914Y-107458990D01*
X124530100Y-107500202D01*
X124582394Y-107489800D01*
X125416745Y-107489800D01*
X125410000Y-107506085D01*
X125410000Y-107975915D01*
X125589797Y-108409983D01*
X125755845Y-108576031D01*
X125712699Y-108567449D01*
X125662671Y-108577400D01*
X125662668Y-108577400D01*
X125514488Y-108606875D01*
X125346453Y-108719153D01*
X125318112Y-108761568D01*
X123961468Y-110118212D01*
X123938549Y-110133526D01*
X123534312Y-109863424D01*
X123175239Y-109792000D01*
X122932761Y-109792000D01*
X122573688Y-109863424D01*
X122166499Y-110135499D01*
X121894424Y-110542688D01*
X121798884Y-111023000D01*
X121894424Y-111503312D01*
X122166499Y-111910501D01*
X122573688Y-112182576D01*
X122932761Y-112254000D01*
X123175239Y-112254000D01*
X123534312Y-112182576D01*
X123941501Y-111910501D01*
X124195075Y-111531000D01*
X124235268Y-111531000D01*
X124285300Y-111540952D01*
X124439129Y-111510353D01*
X124706499Y-111910501D01*
X125113688Y-112182576D01*
X125472761Y-112254000D01*
X125715239Y-112254000D01*
X126074312Y-112182576D01*
X126481501Y-111910501D01*
X126735075Y-111531000D01*
X126775268Y-111531000D01*
X126825300Y-111540952D01*
X126979129Y-111510353D01*
X127246499Y-111910501D01*
X127653688Y-112182576D01*
X128012761Y-112254000D01*
X128255239Y-112254000D01*
X128614312Y-112182576D01*
X129021501Y-111910501D01*
X129275075Y-111531000D01*
X129315268Y-111531000D01*
X129365300Y-111540952D01*
X129519129Y-111510353D01*
X129786499Y-111910501D01*
X130193688Y-112182576D01*
X130552761Y-112254000D01*
X130795239Y-112254000D01*
X131154312Y-112182576D01*
X131561501Y-111910501D01*
X131725744Y-111664693D01*
X134660700Y-111664693D01*
X134660700Y-112013307D01*
X134794109Y-112335384D01*
X135040616Y-112581891D01*
X135362693Y-112715300D01*
X135711307Y-112715300D01*
X136033384Y-112581891D01*
X136279891Y-112335384D01*
X136413300Y-112013307D01*
X136413300Y-111664693D01*
X136279891Y-111342616D01*
X136033384Y-111096109D01*
X135711307Y-110962700D01*
X135362693Y-110962700D01*
X135040616Y-111096109D01*
X134794109Y-111342616D01*
X134660700Y-111664693D01*
X131725744Y-111664693D01*
X131799707Y-111554000D01*
X132939710Y-111554000D01*
X132992000Y-111564401D01*
X133044290Y-111554000D01*
X133044294Y-111554000D01*
X133199186Y-111523190D01*
X133374829Y-111405829D01*
X133404452Y-111361495D01*
X134697001Y-110068946D01*
X134794109Y-110303384D01*
X135040616Y-110549891D01*
X135362693Y-110683300D01*
X135711307Y-110683300D01*
X135794855Y-110648693D01*
X139740700Y-110648693D01*
X139740700Y-110997307D01*
X139874109Y-111319384D01*
X140120616Y-111565891D01*
X140442693Y-111699300D01*
X140791307Y-111699300D01*
X141113384Y-111565891D01*
X141359891Y-111319384D01*
X141493300Y-110997307D01*
X141493300Y-110648693D01*
X141359891Y-110326616D01*
X141113384Y-110080109D01*
X140791307Y-109946700D01*
X140442693Y-109946700D01*
X140120616Y-110080109D01*
X139874109Y-110326616D01*
X139740700Y-110648693D01*
X135794855Y-110648693D01*
X136033384Y-110549891D01*
X136279891Y-110303384D01*
X136413300Y-109981307D01*
X136413300Y-109632693D01*
X136279891Y-109310616D01*
X136033384Y-109064109D01*
X135983164Y-109043307D01*
X136308600Y-109043307D01*
X136308600Y-109331293D01*
X136418807Y-109597356D01*
X136622444Y-109800993D01*
X136888507Y-109911200D01*
X137176493Y-109911200D01*
X137442556Y-109800993D01*
X137548249Y-109695300D01*
X139243272Y-109695300D01*
X139293300Y-109705251D01*
X139343328Y-109695300D01*
X139343332Y-109695300D01*
X139491512Y-109665825D01*
X139659547Y-109553547D01*
X139687888Y-109511132D01*
X142195029Y-107003992D01*
X142469302Y-107117600D01*
X143018698Y-107117600D01*
X143526273Y-106907355D01*
X143544496Y-106889132D01*
X146271073Y-106889132D01*
X146369736Y-107155987D01*
X146979461Y-107382508D01*
X147629460Y-107358456D01*
X148118264Y-107155987D01*
X148216927Y-106889132D01*
X147244000Y-105916205D01*
X146271073Y-106889132D01*
X143544496Y-106889132D01*
X143914755Y-106518873D01*
X144125000Y-106011298D01*
X144125000Y-105472061D01*
X145598092Y-105472061D01*
X145622144Y-106122060D01*
X145824613Y-106610864D01*
X146091468Y-106709527D01*
X147064395Y-105736600D01*
X147423605Y-105736600D01*
X148396532Y-106709527D01*
X148663387Y-106610864D01*
X148889908Y-106001139D01*
X148865856Y-105351140D01*
X148663387Y-104862336D01*
X148396532Y-104763673D01*
X147423605Y-105736600D01*
X147064395Y-105736600D01*
X146091468Y-104763673D01*
X145824613Y-104862336D01*
X145598092Y-105472061D01*
X144125000Y-105472061D01*
X144125000Y-105461902D01*
X143914755Y-104954327D01*
X143544496Y-104584068D01*
X146271073Y-104584068D01*
X147244000Y-105556995D01*
X148216927Y-104584068D01*
X148118264Y-104317213D01*
X147508539Y-104090692D01*
X146858540Y-104114744D01*
X146369736Y-104317213D01*
X146271073Y-104584068D01*
X143544496Y-104584068D01*
X143526273Y-104565845D01*
X143252000Y-104452237D01*
X143252000Y-100520963D01*
X143526273Y-100407355D01*
X143544496Y-100389132D01*
X146271073Y-100389132D01*
X146369736Y-100655987D01*
X146979461Y-100882508D01*
X147629460Y-100858456D01*
X148118264Y-100655987D01*
X148216927Y-100389132D01*
X147244000Y-99416205D01*
X146271073Y-100389132D01*
X143544496Y-100389132D01*
X143914755Y-100018873D01*
X144125000Y-99511298D01*
X144125000Y-98972061D01*
X145598092Y-98972061D01*
X145622144Y-99622060D01*
X145824613Y-100110864D01*
X146091468Y-100209527D01*
X147064395Y-99236600D01*
X147423605Y-99236600D01*
X148396532Y-100209527D01*
X148663387Y-100110864D01*
X148889908Y-99501139D01*
X148865856Y-98851140D01*
X148663387Y-98362336D01*
X148396532Y-98263673D01*
X147423605Y-99236600D01*
X147064395Y-99236600D01*
X146091468Y-98263673D01*
X145824613Y-98362336D01*
X145598092Y-98972061D01*
X144125000Y-98972061D01*
X144125000Y-98961902D01*
X143914755Y-98454327D01*
X143544496Y-98084068D01*
X146271073Y-98084068D01*
X147244000Y-99056995D01*
X148216927Y-98084068D01*
X148118264Y-97817213D01*
X147508539Y-97590692D01*
X146858540Y-97614744D01*
X146369736Y-97817213D01*
X146271073Y-98084068D01*
X143544496Y-98084068D01*
X143526273Y-98065845D01*
X143018698Y-97855600D01*
X142469302Y-97855600D01*
X141961727Y-98065845D01*
X141573245Y-98454327D01*
X141363000Y-98961902D01*
X141363000Y-99511298D01*
X141573245Y-100018873D01*
X141961727Y-100407355D01*
X142236001Y-100520963D01*
X142236000Y-104452237D01*
X141961727Y-104565845D01*
X141573245Y-104954327D01*
X141363000Y-105461902D01*
X141363000Y-106011298D01*
X141476608Y-106285571D01*
X139082880Y-108679300D01*
X137548249Y-108679300D01*
X137442556Y-108573607D01*
X137176493Y-108463400D01*
X136888507Y-108463400D01*
X136622444Y-108573607D01*
X136418807Y-108777244D01*
X136308600Y-109043307D01*
X135983164Y-109043307D01*
X135798946Y-108967001D01*
X137601198Y-107164750D01*
X137614212Y-107156055D01*
X137615547Y-107158053D01*
X138006197Y-107419078D01*
X138350682Y-107487600D01*
X138583318Y-107487600D01*
X138927803Y-107419078D01*
X139318453Y-107158053D01*
X139579478Y-106767403D01*
X139671137Y-106306600D01*
X139579478Y-105845797D01*
X139318453Y-105455147D01*
X138927803Y-105194122D01*
X138583318Y-105125600D01*
X138350682Y-105125600D01*
X138006197Y-105194122D01*
X137615547Y-105455147D01*
X137401426Y-105775600D01*
X137314994Y-105775600D01*
X137262700Y-105765198D01*
X137153094Y-105787000D01*
X137055514Y-105806410D01*
X137026233Y-105825975D01*
X136778453Y-105455147D01*
X136387803Y-105194122D01*
X136043318Y-105125600D01*
X135810682Y-105125600D01*
X135466197Y-105194122D01*
X135075547Y-105455147D01*
X134846058Y-105798600D01*
X134795732Y-105798600D01*
X134745700Y-105788648D01*
X134695668Y-105798600D01*
X134547488Y-105828075D01*
X134501999Y-105858470D01*
X134499478Y-105845797D01*
X134238453Y-105455147D01*
X133847803Y-105194122D01*
X133503318Y-105125600D01*
X133270682Y-105125600D01*
X132926197Y-105194122D01*
X132535547Y-105455147D01*
X132306058Y-105798600D01*
X132255732Y-105798600D01*
X132205700Y-105788648D01*
X132155668Y-105798600D01*
X132007488Y-105828075D01*
X131961999Y-105858470D01*
X131959478Y-105845797D01*
X131698453Y-105455147D01*
X131307803Y-105194122D01*
X130963318Y-105125600D01*
X130730682Y-105125600D01*
X130386197Y-105194122D01*
X129995547Y-105455147D01*
X129766058Y-105798600D01*
X129715732Y-105798600D01*
X129665700Y-105788648D01*
X129615668Y-105798600D01*
X129467488Y-105828075D01*
X129299453Y-105940353D01*
X129187175Y-106108388D01*
X129179126Y-106148854D01*
X127772000Y-107555980D01*
X127772000Y-107506085D01*
X127592203Y-107072017D01*
X127339117Y-106818931D01*
X128150298Y-106007750D01*
X128194629Y-105978129D01*
X128225863Y-105931385D01*
X128311990Y-105802486D01*
X128321199Y-105756190D01*
X128342800Y-105647594D01*
X128342800Y-105647591D01*
X128353201Y-105595301D01*
X128342800Y-105543011D01*
X128342800Y-99035641D01*
X129455086Y-99035641D01*
X129694611Y-99541734D01*
X130109577Y-99917641D01*
X130497961Y-100078504D01*
X130720000Y-99956515D01*
X130720000Y-98813600D01*
X129576371Y-98813600D01*
X129455086Y-99035641D01*
X128342800Y-99035641D01*
X128342800Y-98337559D01*
X129455086Y-98337559D01*
X129576371Y-98559600D01*
X130720000Y-98559600D01*
X130720000Y-97416685D01*
X130974000Y-97416685D01*
X130974000Y-98559600D01*
X130994000Y-98559600D01*
X130994000Y-98813600D01*
X130974000Y-98813600D01*
X130974000Y-99956515D01*
X131196039Y-100078504D01*
X131584423Y-99917641D01*
X131999389Y-99541734D01*
X132238914Y-99035641D01*
X132117630Y-98813602D01*
X132208125Y-98813602D01*
X132274522Y-99147403D01*
X132535547Y-99538053D01*
X132926197Y-99799078D01*
X133270682Y-99867600D01*
X133503318Y-99867600D01*
X133847803Y-99799078D01*
X134238453Y-99538053D01*
X134499478Y-99147403D01*
X134591137Y-98686600D01*
X134722863Y-98686600D01*
X134814522Y-99147403D01*
X135075547Y-99538053D01*
X135466197Y-99799078D01*
X135810682Y-99867600D01*
X136043318Y-99867600D01*
X136387803Y-99799078D01*
X136778453Y-99538053D01*
X137039478Y-99147403D01*
X137131137Y-98686600D01*
X137039478Y-98225797D01*
X136778453Y-97835147D01*
X136387803Y-97574122D01*
X136043318Y-97505600D01*
X135810682Y-97505600D01*
X135466197Y-97574122D01*
X135075547Y-97835147D01*
X134814522Y-98225797D01*
X134722863Y-98686600D01*
X134591137Y-98686600D01*
X134499478Y-98225797D01*
X134238453Y-97835147D01*
X133847803Y-97574122D01*
X133503318Y-97505600D01*
X133270682Y-97505600D01*
X132926197Y-97574122D01*
X132535547Y-97835147D01*
X132274522Y-98225797D01*
X132208125Y-98559598D01*
X132117630Y-98559598D01*
X132238914Y-98337559D01*
X131999389Y-97831466D01*
X131584423Y-97455559D01*
X131196039Y-97294696D01*
X130974000Y-97416685D01*
X130720000Y-97416685D01*
X130497961Y-97294696D01*
X130109577Y-97455559D01*
X129694611Y-97831466D01*
X129455086Y-98337559D01*
X128342800Y-98337559D01*
X128342800Y-96321794D01*
X128353202Y-96269500D01*
X128311990Y-96062314D01*
X128224251Y-95931003D01*
X128224250Y-95931002D01*
X128194629Y-95886671D01*
X128150298Y-95857050D01*
X127714846Y-95421598D01*
X127772000Y-95283615D01*
X127772000Y-94813785D01*
X127592203Y-94379717D01*
X127259983Y-94047497D01*
X126825915Y-93867700D01*
X126356085Y-93867700D01*
X125922017Y-94047497D01*
X125589797Y-94379717D01*
X125410000Y-94813785D01*
X125410000Y-94869480D01*
X124582300Y-94041780D01*
X124582300Y-92953800D01*
X132026536Y-92953800D01*
X132026536Y-94553800D01*
X132056106Y-94702459D01*
X132140314Y-94828486D01*
X132266341Y-94912694D01*
X132415000Y-94942264D01*
X134015000Y-94942264D01*
X134163659Y-94912694D01*
X134289686Y-94828486D01*
X134373894Y-94702459D01*
X134403464Y-94553800D01*
X134403464Y-92953800D01*
X134373894Y-92805141D01*
X134289686Y-92679114D01*
X134163659Y-92594906D01*
X134015000Y-92565336D01*
X133829773Y-92565336D01*
X133969005Y-92507664D01*
X134043139Y-92261545D01*
X133215000Y-91433405D01*
X132386861Y-92261545D01*
X132460995Y-92507664D01*
X132621445Y-92565336D01*
X132415000Y-92565336D01*
X132266341Y-92594906D01*
X132140314Y-92679114D01*
X132056106Y-92805141D01*
X132026536Y-92953800D01*
X124582300Y-92953800D01*
X124582300Y-91056445D01*
X125762861Y-91056445D01*
X125836995Y-91302564D01*
X126374223Y-91495665D01*
X126944454Y-91468478D01*
X127345005Y-91302564D01*
X127419139Y-91056445D01*
X127399718Y-91037023D01*
X131768035Y-91037023D01*
X131795222Y-91607254D01*
X131961136Y-92007805D01*
X132207255Y-92081939D01*
X133035395Y-91253800D01*
X132207255Y-90425661D01*
X131961136Y-90499795D01*
X131768035Y-91037023D01*
X127399718Y-91037023D01*
X126591000Y-90228305D01*
X125762861Y-91056445D01*
X124582300Y-91056445D01*
X124582300Y-91004431D01*
X124592252Y-90954400D01*
X124582300Y-90904368D01*
X124582300Y-90261220D01*
X125218350Y-89625170D01*
X125144035Y-89831923D01*
X125171222Y-90402154D01*
X125337136Y-90802705D01*
X125583255Y-90876839D01*
X126411395Y-90048700D01*
X126770605Y-90048700D01*
X127598745Y-90876839D01*
X127844864Y-90802705D01*
X128037965Y-90265477D01*
X128010778Y-89695246D01*
X127844864Y-89294695D01*
X127598745Y-89220561D01*
X126770605Y-90048700D01*
X126411395Y-90048700D01*
X126397252Y-90034558D01*
X126576858Y-89854952D01*
X126591000Y-89869095D01*
X127419139Y-89040955D01*
X127345005Y-88794836D01*
X126807777Y-88601735D01*
X126237546Y-88628922D01*
X126198372Y-88645148D01*
X127223716Y-87619805D01*
X127246499Y-87653901D01*
X127653688Y-87925976D01*
X128012761Y-87997400D01*
X128255239Y-87997400D01*
X128614312Y-87925976D01*
X129021501Y-87653901D01*
X129293576Y-87246712D01*
X129389116Y-86766400D01*
X129418884Y-86766400D01*
X129514424Y-87246712D01*
X129786499Y-87653901D01*
X130166001Y-87907476D01*
X130166001Y-87947663D01*
X130156048Y-87997700D01*
X130195475Y-88195912D01*
X130307753Y-88363947D01*
X130475788Y-88476225D01*
X130623968Y-88505700D01*
X130674000Y-88515652D01*
X130724032Y-88505700D01*
X131424480Y-88505700D01*
X132784652Y-89865872D01*
X132460995Y-89999936D01*
X132386861Y-90246055D01*
X133215000Y-91074195D01*
X133229142Y-91060052D01*
X133408748Y-91239658D01*
X133394605Y-91253800D01*
X134222745Y-92081939D01*
X134468864Y-92007805D01*
X134589887Y-91671107D01*
X137959001Y-95040221D01*
X137959000Y-97498136D01*
X137667000Y-97498136D01*
X137518341Y-97527706D01*
X137392314Y-97611914D01*
X137308106Y-97737941D01*
X137278536Y-97886600D01*
X137278536Y-99486600D01*
X137308106Y-99635259D01*
X137392314Y-99761286D01*
X137518341Y-99845494D01*
X137667000Y-99875064D01*
X139267000Y-99875064D01*
X139415659Y-99845494D01*
X139541686Y-99761286D01*
X139625894Y-99635259D01*
X139655464Y-99486600D01*
X139655464Y-97886600D01*
X139625894Y-97737941D01*
X139541686Y-97611914D01*
X139415659Y-97527706D01*
X139267000Y-97498136D01*
X138975000Y-97498136D01*
X138975000Y-94879826D01*
X138984951Y-94829799D01*
X138975000Y-94779772D01*
X138975000Y-94779768D01*
X138945525Y-94631588D01*
X138833247Y-94463553D01*
X138790832Y-94435212D01*
X132029488Y-87673868D01*
X132001147Y-87631453D01*
X131833112Y-87519175D01*
X131684932Y-87489700D01*
X131684928Y-87489700D01*
X131672825Y-87487293D01*
X131833576Y-87246712D01*
X131929116Y-86766400D01*
X131833576Y-86286088D01*
X131561501Y-85878899D01*
X131154312Y-85606824D01*
X130795239Y-85535400D01*
X130552761Y-85535400D01*
X130193688Y-85606824D01*
X129786499Y-85878899D01*
X129514424Y-86286088D01*
X129418884Y-86766400D01*
X129389116Y-86766400D01*
X129293576Y-86286088D01*
X129021501Y-85878899D01*
X128614312Y-85606824D01*
X128255239Y-85535400D01*
X128012761Y-85535400D01*
X127653688Y-85606824D01*
X127246499Y-85878899D01*
X126992925Y-86258400D01*
X126952732Y-86258400D01*
X126902700Y-86248448D01*
X126852668Y-86258400D01*
X126748871Y-86279047D01*
X126481501Y-85878899D01*
X126074312Y-85606824D01*
X125715239Y-85535400D01*
X125472761Y-85535400D01*
X125113688Y-85606824D01*
X124706499Y-85878899D01*
X124436245Y-86283363D01*
X124249183Y-85885042D01*
X123820924Y-85494755D01*
X123410890Y-85324924D01*
X123181000Y-85446245D01*
X123181000Y-86639400D01*
X123201000Y-86639400D01*
X123201000Y-86893400D01*
X123181000Y-86893400D01*
X123181000Y-88086555D01*
X123410890Y-88207876D01*
X123820924Y-88038045D01*
X124249183Y-87647758D01*
X124436245Y-87249437D01*
X124706499Y-87653901D01*
X125113688Y-87925976D01*
X125419812Y-87986868D01*
X123750466Y-89656214D01*
X123708054Y-89684553D01*
X123679715Y-89726965D01*
X123679712Y-89726968D01*
X123595775Y-89852589D01*
X123569261Y-89985887D01*
X123353803Y-89841922D01*
X123009318Y-89773400D01*
X122776682Y-89773400D01*
X122432197Y-89841922D01*
X122041547Y-90102947D01*
X121780522Y-90493597D01*
X121688863Y-90954400D01*
X121780522Y-91415203D01*
X122041547Y-91805853D01*
X122432197Y-92066878D01*
X122776682Y-92135400D01*
X123009318Y-92135400D01*
X123353803Y-92066878D01*
X123566301Y-91924891D01*
X123566300Y-94202172D01*
X123556349Y-94252200D01*
X123566300Y-94302228D01*
X123566300Y-94302231D01*
X123576056Y-94351275D01*
X123595775Y-94450411D01*
X123661323Y-94548510D01*
X123708053Y-94618447D01*
X123750468Y-94646788D01*
X125795703Y-96692024D01*
X125739547Y-96729547D01*
X125478522Y-97120197D01*
X125386863Y-97581000D01*
X125478522Y-98041803D01*
X125739547Y-98432453D01*
X126130197Y-98693478D01*
X126474682Y-98762000D01*
X126707318Y-98762000D01*
X127051803Y-98693478D01*
X127280801Y-98540466D01*
X127280800Y-105375352D01*
X126228353Y-106427800D01*
X124750048Y-106427800D01*
X123239752Y-104917505D01*
X123210129Y-104873171D01*
X123034486Y-104755810D01*
X122879594Y-104725000D01*
X122879590Y-104725000D01*
X122827300Y-104714599D01*
X122811464Y-104717749D01*
X122811464Y-104456000D01*
X122781894Y-104307341D01*
X122697686Y-104181314D01*
X122571659Y-104097106D01*
X122423000Y-104067536D01*
X120823000Y-104067536D01*
X120674341Y-104097106D01*
X120548314Y-104181314D01*
X120464106Y-104307341D01*
X120434536Y-104456000D01*
X120434536Y-104717748D01*
X120418700Y-104714598D01*
X120366406Y-104725000D01*
X120211514Y-104755810D01*
X120035871Y-104873171D01*
X119918510Y-105048814D01*
X119877298Y-105256000D01*
X119887700Y-105308293D01*
X119887700Y-105504252D01*
X116729000Y-108662953D01*
X116729000Y-108648921D01*
X116572039Y-108269986D01*
X116282014Y-107979961D01*
X116229000Y-107958002D01*
X116229000Y-101618000D01*
X121688863Y-101618000D01*
X121780522Y-102078803D01*
X122041547Y-102469453D01*
X122432197Y-102730478D01*
X122776682Y-102799000D01*
X123009318Y-102799000D01*
X123353803Y-102730478D01*
X123744453Y-102469453D01*
X124005478Y-102078803D01*
X124097137Y-101618000D01*
X124005478Y-101157197D01*
X123744453Y-100766547D01*
X123353803Y-100505522D01*
X123009318Y-100437000D01*
X122776682Y-100437000D01*
X122432197Y-100505522D01*
X122041547Y-100766547D01*
X121780522Y-101157197D01*
X121688863Y-101618000D01*
X116229000Y-101618000D01*
X116229000Y-98329339D01*
X120231096Y-98329339D01*
X120391959Y-98717723D01*
X120767866Y-99132689D01*
X121273959Y-99372214D01*
X121496000Y-99250929D01*
X121496000Y-98107300D01*
X121750000Y-98107300D01*
X121750000Y-99250929D01*
X121972041Y-99372214D01*
X122478134Y-99132689D01*
X122854041Y-98717723D01*
X123014904Y-98329339D01*
X122892915Y-98107300D01*
X121750000Y-98107300D01*
X121496000Y-98107300D01*
X120353085Y-98107300D01*
X120231096Y-98329339D01*
X116229000Y-98329339D01*
X116229000Y-97631261D01*
X120231096Y-97631261D01*
X120353085Y-97853300D01*
X121496000Y-97853300D01*
X121496000Y-96709671D01*
X121750000Y-96709671D01*
X121750000Y-97853300D01*
X122892915Y-97853300D01*
X123014904Y-97631261D01*
X122854041Y-97242877D01*
X122478134Y-96827911D01*
X121972041Y-96588386D01*
X121750000Y-96709671D01*
X121496000Y-96709671D01*
X121273959Y-96588386D01*
X120767866Y-96827911D01*
X120391959Y-97242877D01*
X120231096Y-97631261D01*
X116229000Y-97631261D01*
X116229000Y-94941339D01*
X120231096Y-94941339D01*
X120391959Y-95329723D01*
X120767866Y-95744689D01*
X121273959Y-95984214D01*
X121496000Y-95862929D01*
X121496000Y-94719300D01*
X121750000Y-94719300D01*
X121750000Y-95862929D01*
X121972041Y-95984214D01*
X122478134Y-95744689D01*
X122854041Y-95329723D01*
X123014904Y-94941339D01*
X122892915Y-94719300D01*
X121750000Y-94719300D01*
X121496000Y-94719300D01*
X120353085Y-94719300D01*
X120231096Y-94941339D01*
X116229000Y-94941339D01*
X116229000Y-94243261D01*
X120231096Y-94243261D01*
X120353085Y-94465300D01*
X121496000Y-94465300D01*
X121496000Y-93321671D01*
X121750000Y-93321671D01*
X121750000Y-94465300D01*
X122892915Y-94465300D01*
X123014904Y-94243261D01*
X122854041Y-93854877D01*
X122478134Y-93439911D01*
X121972041Y-93200386D01*
X121750000Y-93321671D01*
X121496000Y-93321671D01*
X121273959Y-93200386D01*
X120767866Y-93439911D01*
X120391959Y-93854877D01*
X120231096Y-94243261D01*
X116229000Y-94243261D01*
X116229000Y-93056647D01*
X120852495Y-88433152D01*
X120896829Y-88403529D01*
X121014190Y-88227886D01*
X121045000Y-88072994D01*
X121055402Y-88020700D01*
X121052252Y-88004864D01*
X121364000Y-88004864D01*
X121512659Y-87975294D01*
X121638686Y-87891086D01*
X121722894Y-87765059D01*
X121752464Y-87616400D01*
X121752464Y-87421295D01*
X121858817Y-87647758D01*
X122287076Y-88038045D01*
X122697110Y-88207876D01*
X122927000Y-88086555D01*
X122927000Y-86893400D01*
X122907000Y-86893400D01*
X122907000Y-86639400D01*
X122927000Y-86639400D01*
X122927000Y-85446245D01*
X122697110Y-85324924D01*
X122287076Y-85494755D01*
X121858817Y-85885042D01*
X121752464Y-86111505D01*
X121752464Y-85916400D01*
X121722894Y-85767741D01*
X121638686Y-85641714D01*
X121512659Y-85557506D01*
X121364000Y-85527936D01*
X119664000Y-85527936D01*
X119515341Y-85557506D01*
X119389314Y-85641714D01*
X119305106Y-85767741D01*
X119275536Y-85916400D01*
X119275536Y-87616400D01*
X119305106Y-87765059D01*
X119389314Y-87891086D01*
X119515341Y-87975294D01*
X119664000Y-88004864D01*
X119778889Y-88004864D01*
X115359503Y-92424250D01*
X115315172Y-92453871D01*
X115285551Y-92498202D01*
X115285549Y-92498204D01*
X115197810Y-92629515D01*
X115156599Y-92836700D01*
X115167001Y-92888995D01*
X115167001Y-93669315D01*
X115161894Y-93643641D01*
X115077686Y-93517614D01*
X114951659Y-93433406D01*
X114803000Y-93403836D01*
X114511000Y-93403836D01*
X114511000Y-92274427D01*
X114520951Y-92224399D01*
X114511000Y-92174369D01*
X114511000Y-92174368D01*
X114481525Y-92026188D01*
X114469242Y-92007805D01*
X114397588Y-91900567D01*
X114397586Y-91900565D01*
X114369247Y-91858153D01*
X114326836Y-91829815D01*
X113847319Y-91350298D01*
X113914000Y-91189315D01*
X113914000Y-90719485D01*
X113734203Y-90285417D01*
X113401983Y-89953197D01*
X112967915Y-89773400D01*
X112498085Y-89773400D01*
X112137762Y-89922651D01*
X112143041Y-89916823D01*
X112303904Y-89528439D01*
X112181915Y-89306400D01*
X111039000Y-89306400D01*
X111039000Y-90450029D01*
X111261041Y-90571314D01*
X111699289Y-90363899D01*
X111552000Y-90719485D01*
X111552000Y-91189315D01*
X111731797Y-91623383D01*
X112064017Y-91955603D01*
X112498085Y-92135400D01*
X112967915Y-92135400D01*
X113128898Y-92068719D01*
X113495000Y-92434821D01*
X113495000Y-93403836D01*
X113203000Y-93403836D01*
X113054341Y-93433406D01*
X112928314Y-93517614D01*
X112844106Y-93643641D01*
X112814536Y-93792300D01*
X112814536Y-94084300D01*
X111343728Y-94084300D01*
X111293700Y-94074349D01*
X111243672Y-94084300D01*
X111243668Y-94084300D01*
X111095488Y-94113775D01*
X111034986Y-94154202D01*
X110969867Y-94197712D01*
X110969865Y-94197714D01*
X110927453Y-94226053D01*
X110899114Y-94268465D01*
X108638167Y-96529413D01*
X108448861Y-96451000D01*
X107959139Y-96451000D01*
X107506694Y-96638408D01*
X107204000Y-96941102D01*
X106901306Y-96638408D01*
X106448861Y-96451000D01*
X105959139Y-96451000D01*
X105506694Y-96638408D01*
X105160408Y-96984694D01*
X104973000Y-97437139D01*
X93148590Y-97437139D01*
X93148590Y-94606528D01*
X101979077Y-94606528D01*
X102169364Y-94951271D01*
X103050591Y-95302956D01*
X103999323Y-95290641D01*
X104818636Y-94951271D01*
X105008923Y-94606528D01*
X103494000Y-93091605D01*
X101979077Y-94606528D01*
X93148590Y-94606528D01*
X93148590Y-92468591D01*
X101103044Y-92468591D01*
X101115359Y-93417323D01*
X101454729Y-94236636D01*
X101799472Y-94426923D01*
X103314395Y-92912000D01*
X103673605Y-92912000D01*
X105188528Y-94426923D01*
X105533271Y-94236636D01*
X105884956Y-93355409D01*
X105872641Y-92406677D01*
X105533271Y-91587364D01*
X105188528Y-91397077D01*
X103673605Y-92912000D01*
X103314395Y-92912000D01*
X101799472Y-91397077D01*
X101454729Y-91587364D01*
X101103044Y-92468591D01*
X93148590Y-92468591D01*
X93148590Y-91217472D01*
X101979077Y-91217472D01*
X103494000Y-92732395D01*
X105008923Y-91217472D01*
X104818636Y-90872729D01*
X103937409Y-90521044D01*
X102988677Y-90533359D01*
X102169364Y-90872729D01*
X101979077Y-91217472D01*
X93148590Y-91217472D01*
X93148590Y-87050500D01*
X95343336Y-87050500D01*
X95343336Y-88850500D01*
X95372906Y-88999159D01*
X95457114Y-89125186D01*
X95583141Y-89209394D01*
X95731800Y-89238964D01*
X97531800Y-89238964D01*
X97680459Y-89209394D01*
X97806486Y-89125186D01*
X97890694Y-88999159D01*
X97901569Y-88944485D01*
X99571000Y-88944485D01*
X99571000Y-89414315D01*
X99750797Y-89848383D01*
X100083017Y-90180603D01*
X100517085Y-90360400D01*
X100986915Y-90360400D01*
X101420983Y-90180603D01*
X101753203Y-89848383D01*
X101885728Y-89528439D01*
X109520096Y-89528439D01*
X109680959Y-89916823D01*
X110056866Y-90331789D01*
X110562959Y-90571314D01*
X110785000Y-90450029D01*
X110785000Y-89306400D01*
X109642085Y-89306400D01*
X109520096Y-89528439D01*
X101885728Y-89528439D01*
X101933000Y-89414315D01*
X101933000Y-88944485D01*
X101885729Y-88830361D01*
X109520096Y-88830361D01*
X109642085Y-89052400D01*
X110785000Y-89052400D01*
X110785000Y-87908771D01*
X111039000Y-87908771D01*
X111039000Y-89052400D01*
X112181915Y-89052400D01*
X112303904Y-88830361D01*
X112143041Y-88441977D01*
X111767134Y-88027011D01*
X111261041Y-87787486D01*
X111039000Y-87908771D01*
X110785000Y-87908771D01*
X110562959Y-87787486D01*
X110056866Y-88027011D01*
X109680959Y-88441977D01*
X109520096Y-88830361D01*
X101885729Y-88830361D01*
X101753203Y-88510417D01*
X101420983Y-88178197D01*
X100986915Y-87998400D01*
X100517085Y-87998400D01*
X100083017Y-88178197D01*
X99750797Y-88510417D01*
X99571000Y-88944485D01*
X97901569Y-88944485D01*
X97920264Y-88850500D01*
X97920264Y-87050500D01*
X97890694Y-86901841D01*
X97806486Y-86775814D01*
X97680459Y-86691606D01*
X97531800Y-86662036D01*
X96957739Y-86662036D01*
X97357428Y-86496479D01*
X97717779Y-86136128D01*
X97912800Y-85665307D01*
X97912800Y-85155693D01*
X97717779Y-84684872D01*
X97482918Y-84450011D01*
X104899000Y-84450011D01*
X104899000Y-85039189D01*
X105124468Y-85583519D01*
X105541081Y-86000132D01*
X106085411Y-86225600D01*
X106674589Y-86225600D01*
X107218919Y-86000132D01*
X107635532Y-85583519D01*
X107861000Y-85039189D01*
X107861000Y-84450011D01*
X143317000Y-84450011D01*
X143317000Y-85039189D01*
X143542468Y-85583519D01*
X143959081Y-86000132D01*
X144503411Y-86225600D01*
X145092589Y-86225600D01*
X145636919Y-86000132D01*
X146053532Y-85583519D01*
X146279000Y-85039189D01*
X146279000Y-84450011D01*
X146053532Y-83905681D01*
X145636919Y-83489068D01*
X145092589Y-83263600D01*
X144503411Y-83263600D01*
X143959081Y-83489068D01*
X143542468Y-83905681D01*
X143317000Y-84450011D01*
X107861000Y-84450011D01*
X107635532Y-83905681D01*
X107218919Y-83489068D01*
X106674589Y-83263600D01*
X106085411Y-83263600D01*
X105541081Y-83489068D01*
X105124468Y-83905681D01*
X104899000Y-84450011D01*
X97482918Y-84450011D01*
X97357428Y-84324521D01*
X96886607Y-84129500D01*
X96376993Y-84129500D01*
X95906172Y-84324521D01*
X95545821Y-84684872D01*
X95350800Y-85155693D01*
X95350800Y-85665307D01*
X95545821Y-86136128D01*
X95906172Y-86496479D01*
X96305861Y-86662036D01*
X95731800Y-86662036D01*
X95583141Y-86691606D01*
X95457114Y-86775814D01*
X95372906Y-86901841D01*
X95343336Y-87050500D01*
X93148590Y-87050500D01*
X93148590Y-86857075D01*
X93163869Y-86507132D01*
X93208508Y-86168058D01*
X93282531Y-85834164D01*
X93385372Y-85507998D01*
X93516252Y-85192027D01*
X93674170Y-84888671D01*
X93857924Y-84600235D01*
X94066117Y-84328915D01*
X94297168Y-84076768D01*
X94549302Y-83845729D01*
X94820628Y-83637532D01*
X95109063Y-83453779D01*
X95412419Y-83295861D01*
X95728389Y-83164982D01*
X96054554Y-83062141D01*
X96364297Y-82993473D01*
X145625020Y-82928388D01*
X146870791Y-84011668D01*
G04 #@! TD*
M02*
