M48
;DRILL file {KiCad (5.0.0)} date 09/11/18 18:50:07
;FORMAT={3:3/ absolute / metric / suppress leading zeros}
FMAT,2
METRIC,TZ
T1C0.330
T2C1.000
T3C0.700
T4C2.200
%
G90
G05
M71
T1
X120940Y-88560
X121527Y-96520
X122160Y-95494
X122227Y-89397
X122340Y-91752
X125939Y-92154
X128376Y-96437
X130202Y-89386
X130795Y-93150
X138196Y-96689
T2
X126515Y-87234
X129055Y-87234
X131595Y-87234
X134135Y-87234
X136675Y-87234
X126515Y-99779
X129055Y-99779
X131595Y-99779
X134135Y-99779
X136675Y-99779
T3
X120669Y-91453
X120669Y-95603
T4
X139941Y-87813
X139941Y-99195
X123647Y-99195
X123647Y-87813
T0
M30
