G04 #@! TF.GenerationSoftware,KiCad,Pcbnew,(5.0.0)*
G04 #@! TF.CreationDate,2018-09-11T18:50:04-05:00*
G04 #@! TF.ProjectId,mini-attinyuino,6D696E692D617474696E7975696E6F2E,1.0*
G04 #@! TF.SameCoordinates,Original*
G04 #@! TF.FileFunction,Copper,L2,Bot,Signal*
G04 #@! TF.FilePolarity,Positive*
%FSLAX46Y46*%
G04 Gerber Fmt 4.6, Leading zero omitted, Abs format (unit mm)*
G04 Created by KiCad (PCBNEW (5.0.0)) date 09/11/18 18:50:04*
%MOMM*%
%LPD*%
G01*
G04 APERTURE LIST*
G04 #@! TA.AperFunction,ComponentPad*
%ADD10O,1.700000X1.700000*%
G04 #@! TD*
G04 #@! TA.AperFunction,ComponentPad*
%ADD11R,1.700000X1.700000*%
G04 #@! TD*
G04 #@! TA.AperFunction,Conductor*
%ADD12C,0.127000*%
G04 #@! TD*
G04 #@! TA.AperFunction,SMDPad,CuDef*
%ADD13C,1.350000*%
G04 #@! TD*
G04 #@! TA.AperFunction,SMDPad,CuDef*
%ADD14C,0.975000*%
G04 #@! TD*
G04 #@! TA.AperFunction,SMDPad,CuDef*
%ADD15C,0.850000*%
G04 #@! TD*
G04 #@! TA.AperFunction,SMDPad,CuDef*
%ADD16R,1.500000X1.000000*%
G04 #@! TD*
G04 #@! TA.AperFunction,SMDPad,CuDef*
%ADD17R,1.800000X1.000000*%
G04 #@! TD*
G04 #@! TA.AperFunction,SMDPad,CuDef*
%ADD18R,1.840000X2.200000*%
G04 #@! TD*
G04 #@! TA.AperFunction,SMDPad,CuDef*
%ADD19C,1.000000*%
G04 #@! TD*
G04 #@! TA.AperFunction,ViaPad*
%ADD20C,0.685800*%
G04 #@! TD*
G04 #@! TA.AperFunction,Conductor*
%ADD21C,0.300000*%
G04 #@! TD*
G04 #@! TA.AperFunction,Conductor*
%ADD22C,0.254000*%
G04 #@! TD*
G04 APERTURE END LIST*
D10*
G04 #@! TO.P,J1,5*
G04 #@! TO.N,+5V*
X136675000Y-99778800D03*
G04 #@! TO.P,J1,4*
G04 #@! TO.N,/PG3*
X134135000Y-99778800D03*
G04 #@! TO.P,J1,3*
G04 #@! TO.N,/PG1*
X131595000Y-99778800D03*
G04 #@! TO.P,J1,2*
G04 #@! TO.N,/PG4*
X129055000Y-99778800D03*
D11*
G04 #@! TO.P,J1,1*
G04 #@! TO.N,VBUS*
X126515000Y-99778800D03*
G04 #@! TD*
G04 #@! TO.P,J2,1*
G04 #@! TO.N,VCC*
X126515000Y-87233800D03*
D10*
G04 #@! TO.P,J2,2*
G04 #@! TO.N,GND*
X129055000Y-87233800D03*
G04 #@! TO.P,J2,3*
G04 #@! TO.N,Net-(J2-Pad3)*
X131595000Y-87233800D03*
G04 #@! TO.P,J2,4*
G04 #@! TO.N,Net-(J2-Pad4)*
X134135000Y-87233800D03*
G04 #@! TO.P,J2,5*
G04 #@! TO.N,/PG5*
X136675000Y-87233800D03*
G04 #@! TD*
D12*
G04 #@! TO.N,+5V*
G04 #@! TO.C,C1*
G36*
X132454505Y-91441904D02*
X132478773Y-91445504D01*
X132502572Y-91451465D01*
X132525671Y-91459730D01*
X132547850Y-91470220D01*
X132568893Y-91482832D01*
X132588599Y-91497447D01*
X132606777Y-91513923D01*
X132623253Y-91532101D01*
X132637868Y-91551807D01*
X132650480Y-91572850D01*
X132660970Y-91595029D01*
X132669235Y-91618128D01*
X132675196Y-91641927D01*
X132678796Y-91666195D01*
X132680000Y-91690699D01*
X132680000Y-92590701D01*
X132678796Y-92615205D01*
X132675196Y-92639473D01*
X132669235Y-92663272D01*
X132660970Y-92686371D01*
X132650480Y-92708550D01*
X132637868Y-92729593D01*
X132623253Y-92749299D01*
X132606777Y-92767477D01*
X132588599Y-92783953D01*
X132568893Y-92798568D01*
X132547850Y-92811180D01*
X132525671Y-92821670D01*
X132502572Y-92829935D01*
X132478773Y-92835896D01*
X132454505Y-92839496D01*
X132430001Y-92840700D01*
X131579999Y-92840700D01*
X131555495Y-92839496D01*
X131531227Y-92835896D01*
X131507428Y-92829935D01*
X131484329Y-92821670D01*
X131462150Y-92811180D01*
X131441107Y-92798568D01*
X131421401Y-92783953D01*
X131403223Y-92767477D01*
X131386747Y-92749299D01*
X131372132Y-92729593D01*
X131359520Y-92708550D01*
X131349030Y-92686371D01*
X131340765Y-92663272D01*
X131334804Y-92639473D01*
X131331204Y-92615205D01*
X131330000Y-92590701D01*
X131330000Y-91690699D01*
X131331204Y-91666195D01*
X131334804Y-91641927D01*
X131340765Y-91618128D01*
X131349030Y-91595029D01*
X131359520Y-91572850D01*
X131372132Y-91551807D01*
X131386747Y-91532101D01*
X131403223Y-91513923D01*
X131421401Y-91497447D01*
X131441107Y-91482832D01*
X131462150Y-91470220D01*
X131484329Y-91459730D01*
X131507428Y-91451465D01*
X131531227Y-91445504D01*
X131555495Y-91441904D01*
X131579999Y-91440700D01*
X132430001Y-91440700D01*
X132454505Y-91441904D01*
X132454505Y-91441904D01*
G37*
D13*
G04 #@! TD*
G04 #@! TO.P,C1,1*
G04 #@! TO.N,+5V*
X132005000Y-92140700D03*
D12*
G04 #@! TO.N,GND*
G04 #@! TO.C,C1*
G36*
X132454505Y-94141904D02*
X132478773Y-94145504D01*
X132502572Y-94151465D01*
X132525671Y-94159730D01*
X132547850Y-94170220D01*
X132568893Y-94182832D01*
X132588599Y-94197447D01*
X132606777Y-94213923D01*
X132623253Y-94232101D01*
X132637868Y-94251807D01*
X132650480Y-94272850D01*
X132660970Y-94295029D01*
X132669235Y-94318128D01*
X132675196Y-94341927D01*
X132678796Y-94366195D01*
X132680000Y-94390699D01*
X132680000Y-95290701D01*
X132678796Y-95315205D01*
X132675196Y-95339473D01*
X132669235Y-95363272D01*
X132660970Y-95386371D01*
X132650480Y-95408550D01*
X132637868Y-95429593D01*
X132623253Y-95449299D01*
X132606777Y-95467477D01*
X132588599Y-95483953D01*
X132568893Y-95498568D01*
X132547850Y-95511180D01*
X132525671Y-95521670D01*
X132502572Y-95529935D01*
X132478773Y-95535896D01*
X132454505Y-95539496D01*
X132430001Y-95540700D01*
X131579999Y-95540700D01*
X131555495Y-95539496D01*
X131531227Y-95535896D01*
X131507428Y-95529935D01*
X131484329Y-95521670D01*
X131462150Y-95511180D01*
X131441107Y-95498568D01*
X131421401Y-95483953D01*
X131403223Y-95467477D01*
X131386747Y-95449299D01*
X131372132Y-95429593D01*
X131359520Y-95408550D01*
X131349030Y-95386371D01*
X131340765Y-95363272D01*
X131334804Y-95339473D01*
X131331204Y-95315205D01*
X131330000Y-95290701D01*
X131330000Y-94390699D01*
X131331204Y-94366195D01*
X131334804Y-94341927D01*
X131340765Y-94318128D01*
X131349030Y-94295029D01*
X131359520Y-94272850D01*
X131372132Y-94251807D01*
X131386747Y-94232101D01*
X131403223Y-94213923D01*
X131421401Y-94197447D01*
X131441107Y-94182832D01*
X131462150Y-94170220D01*
X131484329Y-94159730D01*
X131507428Y-94151465D01*
X131531227Y-94145504D01*
X131555495Y-94141904D01*
X131579999Y-94140700D01*
X132430001Y-94140700D01*
X132454505Y-94141904D01*
X132454505Y-94141904D01*
G37*
D13*
G04 #@! TD*
G04 #@! TO.P,C1,2*
G04 #@! TO.N,GND*
X132005000Y-94840700D03*
D12*
G04 #@! TO.N,+5V*
G04 #@! TO.C,C2*
G36*
X140873142Y-92035274D02*
X140896803Y-92038784D01*
X140920007Y-92044596D01*
X140942529Y-92052654D01*
X140964153Y-92062882D01*
X140984670Y-92075179D01*
X141003883Y-92089429D01*
X141021607Y-92105493D01*
X141037671Y-92123217D01*
X141051921Y-92142430D01*
X141064218Y-92162947D01*
X141074446Y-92184571D01*
X141082504Y-92207093D01*
X141088316Y-92230297D01*
X141091826Y-92253958D01*
X141093000Y-92277850D01*
X141093000Y-92765350D01*
X141091826Y-92789242D01*
X141088316Y-92812903D01*
X141082504Y-92836107D01*
X141074446Y-92858629D01*
X141064218Y-92880253D01*
X141051921Y-92900770D01*
X141037671Y-92919983D01*
X141021607Y-92937707D01*
X141003883Y-92953771D01*
X140984670Y-92968021D01*
X140964153Y-92980318D01*
X140942529Y-92990546D01*
X140920007Y-92998604D01*
X140896803Y-93004416D01*
X140873142Y-93007926D01*
X140849250Y-93009100D01*
X139936750Y-93009100D01*
X139912858Y-93007926D01*
X139889197Y-93004416D01*
X139865993Y-92998604D01*
X139843471Y-92990546D01*
X139821847Y-92980318D01*
X139801330Y-92968021D01*
X139782117Y-92953771D01*
X139764393Y-92937707D01*
X139748329Y-92919983D01*
X139734079Y-92900770D01*
X139721782Y-92880253D01*
X139711554Y-92858629D01*
X139703496Y-92836107D01*
X139697684Y-92812903D01*
X139694174Y-92789242D01*
X139693000Y-92765350D01*
X139693000Y-92277850D01*
X139694174Y-92253958D01*
X139697684Y-92230297D01*
X139703496Y-92207093D01*
X139711554Y-92184571D01*
X139721782Y-92162947D01*
X139734079Y-92142430D01*
X139748329Y-92123217D01*
X139764393Y-92105493D01*
X139782117Y-92089429D01*
X139801330Y-92075179D01*
X139821847Y-92062882D01*
X139843471Y-92052654D01*
X139865993Y-92044596D01*
X139889197Y-92038784D01*
X139912858Y-92035274D01*
X139936750Y-92034100D01*
X140849250Y-92034100D01*
X140873142Y-92035274D01*
X140873142Y-92035274D01*
G37*
D14*
G04 #@! TD*
G04 #@! TO.P,C2,1*
G04 #@! TO.N,+5V*
X140393000Y-92521600D03*
D12*
G04 #@! TO.N,GND*
G04 #@! TO.C,C2*
G36*
X140873142Y-93910274D02*
X140896803Y-93913784D01*
X140920007Y-93919596D01*
X140942529Y-93927654D01*
X140964153Y-93937882D01*
X140984670Y-93950179D01*
X141003883Y-93964429D01*
X141021607Y-93980493D01*
X141037671Y-93998217D01*
X141051921Y-94017430D01*
X141064218Y-94037947D01*
X141074446Y-94059571D01*
X141082504Y-94082093D01*
X141088316Y-94105297D01*
X141091826Y-94128958D01*
X141093000Y-94152850D01*
X141093000Y-94640350D01*
X141091826Y-94664242D01*
X141088316Y-94687903D01*
X141082504Y-94711107D01*
X141074446Y-94733629D01*
X141064218Y-94755253D01*
X141051921Y-94775770D01*
X141037671Y-94794983D01*
X141021607Y-94812707D01*
X141003883Y-94828771D01*
X140984670Y-94843021D01*
X140964153Y-94855318D01*
X140942529Y-94865546D01*
X140920007Y-94873604D01*
X140896803Y-94879416D01*
X140873142Y-94882926D01*
X140849250Y-94884100D01*
X139936750Y-94884100D01*
X139912858Y-94882926D01*
X139889197Y-94879416D01*
X139865993Y-94873604D01*
X139843471Y-94865546D01*
X139821847Y-94855318D01*
X139801330Y-94843021D01*
X139782117Y-94828771D01*
X139764393Y-94812707D01*
X139748329Y-94794983D01*
X139734079Y-94775770D01*
X139721782Y-94755253D01*
X139711554Y-94733629D01*
X139703496Y-94711107D01*
X139697684Y-94687903D01*
X139694174Y-94664242D01*
X139693000Y-94640350D01*
X139693000Y-94152850D01*
X139694174Y-94128958D01*
X139697684Y-94105297D01*
X139703496Y-94082093D01*
X139711554Y-94059571D01*
X139721782Y-94037947D01*
X139734079Y-94017430D01*
X139748329Y-93998217D01*
X139764393Y-93980493D01*
X139782117Y-93964429D01*
X139801330Y-93950179D01*
X139821847Y-93937882D01*
X139843471Y-93927654D01*
X139865993Y-93919596D01*
X139889197Y-93913784D01*
X139912858Y-93910274D01*
X139936750Y-93909100D01*
X140849250Y-93909100D01*
X140873142Y-93910274D01*
X140873142Y-93910274D01*
G37*
D14*
G04 #@! TD*
G04 #@! TO.P,C2,2*
G04 #@! TO.N,GND*
X140393000Y-94396600D03*
D12*
G04 #@! TO.N,GND*
G04 #@! TO.C,R1*
G36*
X126206142Y-95480674D02*
X126229803Y-95484184D01*
X126253007Y-95489996D01*
X126275529Y-95498054D01*
X126297153Y-95508282D01*
X126317670Y-95520579D01*
X126336883Y-95534829D01*
X126354607Y-95550893D01*
X126370671Y-95568617D01*
X126384921Y-95587830D01*
X126397218Y-95608347D01*
X126407446Y-95629971D01*
X126415504Y-95652493D01*
X126421316Y-95675697D01*
X126424826Y-95699358D01*
X126426000Y-95723250D01*
X126426000Y-96635750D01*
X126424826Y-96659642D01*
X126421316Y-96683303D01*
X126415504Y-96706507D01*
X126407446Y-96729029D01*
X126397218Y-96750653D01*
X126384921Y-96771170D01*
X126370671Y-96790383D01*
X126354607Y-96808107D01*
X126336883Y-96824171D01*
X126317670Y-96838421D01*
X126297153Y-96850718D01*
X126275529Y-96860946D01*
X126253007Y-96869004D01*
X126229803Y-96874816D01*
X126206142Y-96878326D01*
X126182250Y-96879500D01*
X125694750Y-96879500D01*
X125670858Y-96878326D01*
X125647197Y-96874816D01*
X125623993Y-96869004D01*
X125601471Y-96860946D01*
X125579847Y-96850718D01*
X125559330Y-96838421D01*
X125540117Y-96824171D01*
X125522393Y-96808107D01*
X125506329Y-96790383D01*
X125492079Y-96771170D01*
X125479782Y-96750653D01*
X125469554Y-96729029D01*
X125461496Y-96706507D01*
X125455684Y-96683303D01*
X125452174Y-96659642D01*
X125451000Y-96635750D01*
X125451000Y-95723250D01*
X125452174Y-95699358D01*
X125455684Y-95675697D01*
X125461496Y-95652493D01*
X125469554Y-95629971D01*
X125479782Y-95608347D01*
X125492079Y-95587830D01*
X125506329Y-95568617D01*
X125522393Y-95550893D01*
X125540117Y-95534829D01*
X125559330Y-95520579D01*
X125579847Y-95508282D01*
X125601471Y-95498054D01*
X125623993Y-95489996D01*
X125647197Y-95484184D01*
X125670858Y-95480674D01*
X125694750Y-95479500D01*
X126182250Y-95479500D01*
X126206142Y-95480674D01*
X126206142Y-95480674D01*
G37*
D14*
G04 #@! TD*
G04 #@! TO.P,R1,2*
G04 #@! TO.N,GND*
X125938500Y-96179500D03*
D12*
G04 #@! TO.N,Net-(D1-Pad1)*
G04 #@! TO.C,R1*
G36*
X124331142Y-95480674D02*
X124354803Y-95484184D01*
X124378007Y-95489996D01*
X124400529Y-95498054D01*
X124422153Y-95508282D01*
X124442670Y-95520579D01*
X124461883Y-95534829D01*
X124479607Y-95550893D01*
X124495671Y-95568617D01*
X124509921Y-95587830D01*
X124522218Y-95608347D01*
X124532446Y-95629971D01*
X124540504Y-95652493D01*
X124546316Y-95675697D01*
X124549826Y-95699358D01*
X124551000Y-95723250D01*
X124551000Y-96635750D01*
X124549826Y-96659642D01*
X124546316Y-96683303D01*
X124540504Y-96706507D01*
X124532446Y-96729029D01*
X124522218Y-96750653D01*
X124509921Y-96771170D01*
X124495671Y-96790383D01*
X124479607Y-96808107D01*
X124461883Y-96824171D01*
X124442670Y-96838421D01*
X124422153Y-96850718D01*
X124400529Y-96860946D01*
X124378007Y-96869004D01*
X124354803Y-96874816D01*
X124331142Y-96878326D01*
X124307250Y-96879500D01*
X123819750Y-96879500D01*
X123795858Y-96878326D01*
X123772197Y-96874816D01*
X123748993Y-96869004D01*
X123726471Y-96860946D01*
X123704847Y-96850718D01*
X123684330Y-96838421D01*
X123665117Y-96824171D01*
X123647393Y-96808107D01*
X123631329Y-96790383D01*
X123617079Y-96771170D01*
X123604782Y-96750653D01*
X123594554Y-96729029D01*
X123586496Y-96706507D01*
X123580684Y-96683303D01*
X123577174Y-96659642D01*
X123576000Y-96635750D01*
X123576000Y-95723250D01*
X123577174Y-95699358D01*
X123580684Y-95675697D01*
X123586496Y-95652493D01*
X123594554Y-95629971D01*
X123604782Y-95608347D01*
X123617079Y-95587830D01*
X123631329Y-95568617D01*
X123647393Y-95550893D01*
X123665117Y-95534829D01*
X123684330Y-95520579D01*
X123704847Y-95508282D01*
X123726471Y-95498054D01*
X123748993Y-95489996D01*
X123772197Y-95484184D01*
X123795858Y-95480674D01*
X123819750Y-95479500D01*
X124307250Y-95479500D01*
X124331142Y-95480674D01*
X124331142Y-95480674D01*
G37*
D14*
G04 #@! TD*
G04 #@! TO.P,R1,1*
G04 #@! TO.N,Net-(D1-Pad1)*
X124063500Y-96179500D03*
D12*
G04 #@! TO.N,Net-(D3-Pad1)*
G04 #@! TO.C,R2*
G36*
X124331142Y-90058174D02*
X124354803Y-90061684D01*
X124378007Y-90067496D01*
X124400529Y-90075554D01*
X124422153Y-90085782D01*
X124442670Y-90098079D01*
X124461883Y-90112329D01*
X124479607Y-90128393D01*
X124495671Y-90146117D01*
X124509921Y-90165330D01*
X124522218Y-90185847D01*
X124532446Y-90207471D01*
X124540504Y-90229993D01*
X124546316Y-90253197D01*
X124549826Y-90276858D01*
X124551000Y-90300750D01*
X124551000Y-91213250D01*
X124549826Y-91237142D01*
X124546316Y-91260803D01*
X124540504Y-91284007D01*
X124532446Y-91306529D01*
X124522218Y-91328153D01*
X124509921Y-91348670D01*
X124495671Y-91367883D01*
X124479607Y-91385607D01*
X124461883Y-91401671D01*
X124442670Y-91415921D01*
X124422153Y-91428218D01*
X124400529Y-91438446D01*
X124378007Y-91446504D01*
X124354803Y-91452316D01*
X124331142Y-91455826D01*
X124307250Y-91457000D01*
X123819750Y-91457000D01*
X123795858Y-91455826D01*
X123772197Y-91452316D01*
X123748993Y-91446504D01*
X123726471Y-91438446D01*
X123704847Y-91428218D01*
X123684330Y-91415921D01*
X123665117Y-91401671D01*
X123647393Y-91385607D01*
X123631329Y-91367883D01*
X123617079Y-91348670D01*
X123604782Y-91328153D01*
X123594554Y-91306529D01*
X123586496Y-91284007D01*
X123580684Y-91260803D01*
X123577174Y-91237142D01*
X123576000Y-91213250D01*
X123576000Y-90300750D01*
X123577174Y-90276858D01*
X123580684Y-90253197D01*
X123586496Y-90229993D01*
X123594554Y-90207471D01*
X123604782Y-90185847D01*
X123617079Y-90165330D01*
X123631329Y-90146117D01*
X123647393Y-90128393D01*
X123665117Y-90112329D01*
X123684330Y-90098079D01*
X123704847Y-90085782D01*
X123726471Y-90075554D01*
X123748993Y-90067496D01*
X123772197Y-90061684D01*
X123795858Y-90058174D01*
X123819750Y-90057000D01*
X124307250Y-90057000D01*
X124331142Y-90058174D01*
X124331142Y-90058174D01*
G37*
D14*
G04 #@! TD*
G04 #@! TO.P,R2,1*
G04 #@! TO.N,Net-(D3-Pad1)*
X124063500Y-90757000D03*
D12*
G04 #@! TO.N,GND*
G04 #@! TO.C,R2*
G36*
X126206142Y-90058174D02*
X126229803Y-90061684D01*
X126253007Y-90067496D01*
X126275529Y-90075554D01*
X126297153Y-90085782D01*
X126317670Y-90098079D01*
X126336883Y-90112329D01*
X126354607Y-90128393D01*
X126370671Y-90146117D01*
X126384921Y-90165330D01*
X126397218Y-90185847D01*
X126407446Y-90207471D01*
X126415504Y-90229993D01*
X126421316Y-90253197D01*
X126424826Y-90276858D01*
X126426000Y-90300750D01*
X126426000Y-91213250D01*
X126424826Y-91237142D01*
X126421316Y-91260803D01*
X126415504Y-91284007D01*
X126407446Y-91306529D01*
X126397218Y-91328153D01*
X126384921Y-91348670D01*
X126370671Y-91367883D01*
X126354607Y-91385607D01*
X126336883Y-91401671D01*
X126317670Y-91415921D01*
X126297153Y-91428218D01*
X126275529Y-91438446D01*
X126253007Y-91446504D01*
X126229803Y-91452316D01*
X126206142Y-91455826D01*
X126182250Y-91457000D01*
X125694750Y-91457000D01*
X125670858Y-91455826D01*
X125647197Y-91452316D01*
X125623993Y-91446504D01*
X125601471Y-91438446D01*
X125579847Y-91428218D01*
X125559330Y-91415921D01*
X125540117Y-91401671D01*
X125522393Y-91385607D01*
X125506329Y-91367883D01*
X125492079Y-91348670D01*
X125479782Y-91328153D01*
X125469554Y-91306529D01*
X125461496Y-91284007D01*
X125455684Y-91260803D01*
X125452174Y-91237142D01*
X125451000Y-91213250D01*
X125451000Y-90300750D01*
X125452174Y-90276858D01*
X125455684Y-90253197D01*
X125461496Y-90229993D01*
X125469554Y-90207471D01*
X125479782Y-90185847D01*
X125492079Y-90165330D01*
X125506329Y-90146117D01*
X125522393Y-90128393D01*
X125540117Y-90112329D01*
X125559330Y-90098079D01*
X125579847Y-90085782D01*
X125601471Y-90075554D01*
X125623993Y-90067496D01*
X125647197Y-90061684D01*
X125670858Y-90058174D01*
X125694750Y-90057000D01*
X126182250Y-90057000D01*
X126206142Y-90058174D01*
X126206142Y-90058174D01*
G37*
D14*
G04 #@! TD*
G04 #@! TO.P,R2,2*
G04 #@! TO.N,GND*
X125938500Y-90757000D03*
D12*
G04 #@! TO.N,Net-(D5-Pad1)*
G04 #@! TO.C,R3*
G36*
X124331142Y-92769374D02*
X124354803Y-92772884D01*
X124378007Y-92778696D01*
X124400529Y-92786754D01*
X124422153Y-92796982D01*
X124442670Y-92809279D01*
X124461883Y-92823529D01*
X124479607Y-92839593D01*
X124495671Y-92857317D01*
X124509921Y-92876530D01*
X124522218Y-92897047D01*
X124532446Y-92918671D01*
X124540504Y-92941193D01*
X124546316Y-92964397D01*
X124549826Y-92988058D01*
X124551000Y-93011950D01*
X124551000Y-93924450D01*
X124549826Y-93948342D01*
X124546316Y-93972003D01*
X124540504Y-93995207D01*
X124532446Y-94017729D01*
X124522218Y-94039353D01*
X124509921Y-94059870D01*
X124495671Y-94079083D01*
X124479607Y-94096807D01*
X124461883Y-94112871D01*
X124442670Y-94127121D01*
X124422153Y-94139418D01*
X124400529Y-94149646D01*
X124378007Y-94157704D01*
X124354803Y-94163516D01*
X124331142Y-94167026D01*
X124307250Y-94168200D01*
X123819750Y-94168200D01*
X123795858Y-94167026D01*
X123772197Y-94163516D01*
X123748993Y-94157704D01*
X123726471Y-94149646D01*
X123704847Y-94139418D01*
X123684330Y-94127121D01*
X123665117Y-94112871D01*
X123647393Y-94096807D01*
X123631329Y-94079083D01*
X123617079Y-94059870D01*
X123604782Y-94039353D01*
X123594554Y-94017729D01*
X123586496Y-93995207D01*
X123580684Y-93972003D01*
X123577174Y-93948342D01*
X123576000Y-93924450D01*
X123576000Y-93011950D01*
X123577174Y-92988058D01*
X123580684Y-92964397D01*
X123586496Y-92941193D01*
X123594554Y-92918671D01*
X123604782Y-92897047D01*
X123617079Y-92876530D01*
X123631329Y-92857317D01*
X123647393Y-92839593D01*
X123665117Y-92823529D01*
X123684330Y-92809279D01*
X123704847Y-92796982D01*
X123726471Y-92786754D01*
X123748993Y-92778696D01*
X123772197Y-92772884D01*
X123795858Y-92769374D01*
X123819750Y-92768200D01*
X124307250Y-92768200D01*
X124331142Y-92769374D01*
X124331142Y-92769374D01*
G37*
D14*
G04 #@! TD*
G04 #@! TO.P,R3,1*
G04 #@! TO.N,Net-(D5-Pad1)*
X124063500Y-93468200D03*
D12*
G04 #@! TO.N,Net-(J2-Pad3)*
G04 #@! TO.C,R3*
G36*
X126206142Y-92769374D02*
X126229803Y-92772884D01*
X126253007Y-92778696D01*
X126275529Y-92786754D01*
X126297153Y-92796982D01*
X126317670Y-92809279D01*
X126336883Y-92823529D01*
X126354607Y-92839593D01*
X126370671Y-92857317D01*
X126384921Y-92876530D01*
X126397218Y-92897047D01*
X126407446Y-92918671D01*
X126415504Y-92941193D01*
X126421316Y-92964397D01*
X126424826Y-92988058D01*
X126426000Y-93011950D01*
X126426000Y-93924450D01*
X126424826Y-93948342D01*
X126421316Y-93972003D01*
X126415504Y-93995207D01*
X126407446Y-94017729D01*
X126397218Y-94039353D01*
X126384921Y-94059870D01*
X126370671Y-94079083D01*
X126354607Y-94096807D01*
X126336883Y-94112871D01*
X126317670Y-94127121D01*
X126297153Y-94139418D01*
X126275529Y-94149646D01*
X126253007Y-94157704D01*
X126229803Y-94163516D01*
X126206142Y-94167026D01*
X126182250Y-94168200D01*
X125694750Y-94168200D01*
X125670858Y-94167026D01*
X125647197Y-94163516D01*
X125623993Y-94157704D01*
X125601471Y-94149646D01*
X125579847Y-94139418D01*
X125559330Y-94127121D01*
X125540117Y-94112871D01*
X125522393Y-94096807D01*
X125506329Y-94079083D01*
X125492079Y-94059870D01*
X125479782Y-94039353D01*
X125469554Y-94017729D01*
X125461496Y-93995207D01*
X125455684Y-93972003D01*
X125452174Y-93948342D01*
X125451000Y-93924450D01*
X125451000Y-93011950D01*
X125452174Y-92988058D01*
X125455684Y-92964397D01*
X125461496Y-92941193D01*
X125469554Y-92918671D01*
X125479782Y-92897047D01*
X125492079Y-92876530D01*
X125506329Y-92857317D01*
X125522393Y-92839593D01*
X125540117Y-92823529D01*
X125559330Y-92809279D01*
X125579847Y-92796982D01*
X125601471Y-92786754D01*
X125623993Y-92778696D01*
X125647197Y-92772884D01*
X125670858Y-92769374D01*
X125694750Y-92768200D01*
X126182250Y-92768200D01*
X126206142Y-92769374D01*
X126206142Y-92769374D01*
G37*
D14*
G04 #@! TD*
G04 #@! TO.P,R3,2*
G04 #@! TO.N,Net-(J2-Pad3)*
X125938500Y-93468200D03*
D12*
G04 #@! TO.N,+5V*
G04 #@! TO.C,R4*
G36*
X130157142Y-89993474D02*
X130180803Y-89996984D01*
X130204007Y-90002796D01*
X130226529Y-90010854D01*
X130248153Y-90021082D01*
X130268670Y-90033379D01*
X130287883Y-90047629D01*
X130305607Y-90063693D01*
X130321671Y-90081417D01*
X130335921Y-90100630D01*
X130348218Y-90121147D01*
X130358446Y-90142771D01*
X130366504Y-90165293D01*
X130372316Y-90188497D01*
X130375826Y-90212158D01*
X130377000Y-90236050D01*
X130377000Y-90723550D01*
X130375826Y-90747442D01*
X130372316Y-90771103D01*
X130366504Y-90794307D01*
X130358446Y-90816829D01*
X130348218Y-90838453D01*
X130335921Y-90858970D01*
X130321671Y-90878183D01*
X130305607Y-90895907D01*
X130287883Y-90911971D01*
X130268670Y-90926221D01*
X130248153Y-90938518D01*
X130226529Y-90948746D01*
X130204007Y-90956804D01*
X130180803Y-90962616D01*
X130157142Y-90966126D01*
X130133250Y-90967300D01*
X129220750Y-90967300D01*
X129196858Y-90966126D01*
X129173197Y-90962616D01*
X129149993Y-90956804D01*
X129127471Y-90948746D01*
X129105847Y-90938518D01*
X129085330Y-90926221D01*
X129066117Y-90911971D01*
X129048393Y-90895907D01*
X129032329Y-90878183D01*
X129018079Y-90858970D01*
X129005782Y-90838453D01*
X128995554Y-90816829D01*
X128987496Y-90794307D01*
X128981684Y-90771103D01*
X128978174Y-90747442D01*
X128977000Y-90723550D01*
X128977000Y-90236050D01*
X128978174Y-90212158D01*
X128981684Y-90188497D01*
X128987496Y-90165293D01*
X128995554Y-90142771D01*
X129005782Y-90121147D01*
X129018079Y-90100630D01*
X129032329Y-90081417D01*
X129048393Y-90063693D01*
X129066117Y-90047629D01*
X129085330Y-90033379D01*
X129105847Y-90021082D01*
X129127471Y-90010854D01*
X129149993Y-90002796D01*
X129173197Y-89996984D01*
X129196858Y-89993474D01*
X129220750Y-89992300D01*
X130133250Y-89992300D01*
X130157142Y-89993474D01*
X130157142Y-89993474D01*
G37*
D14*
G04 #@! TD*
G04 #@! TO.P,R4,1*
G04 #@! TO.N,+5V*
X129677000Y-90479800D03*
D12*
G04 #@! TO.N,Net-(J2-Pad4)*
G04 #@! TO.C,R4*
G36*
X130157142Y-91868474D02*
X130180803Y-91871984D01*
X130204007Y-91877796D01*
X130226529Y-91885854D01*
X130248153Y-91896082D01*
X130268670Y-91908379D01*
X130287883Y-91922629D01*
X130305607Y-91938693D01*
X130321671Y-91956417D01*
X130335921Y-91975630D01*
X130348218Y-91996147D01*
X130358446Y-92017771D01*
X130366504Y-92040293D01*
X130372316Y-92063497D01*
X130375826Y-92087158D01*
X130377000Y-92111050D01*
X130377000Y-92598550D01*
X130375826Y-92622442D01*
X130372316Y-92646103D01*
X130366504Y-92669307D01*
X130358446Y-92691829D01*
X130348218Y-92713453D01*
X130335921Y-92733970D01*
X130321671Y-92753183D01*
X130305607Y-92770907D01*
X130287883Y-92786971D01*
X130268670Y-92801221D01*
X130248153Y-92813518D01*
X130226529Y-92823746D01*
X130204007Y-92831804D01*
X130180803Y-92837616D01*
X130157142Y-92841126D01*
X130133250Y-92842300D01*
X129220750Y-92842300D01*
X129196858Y-92841126D01*
X129173197Y-92837616D01*
X129149993Y-92831804D01*
X129127471Y-92823746D01*
X129105847Y-92813518D01*
X129085330Y-92801221D01*
X129066117Y-92786971D01*
X129048393Y-92770907D01*
X129032329Y-92753183D01*
X129018079Y-92733970D01*
X129005782Y-92713453D01*
X128995554Y-92691829D01*
X128987496Y-92669307D01*
X128981684Y-92646103D01*
X128978174Y-92622442D01*
X128977000Y-92598550D01*
X128977000Y-92111050D01*
X128978174Y-92087158D01*
X128981684Y-92063497D01*
X128987496Y-92040293D01*
X128995554Y-92017771D01*
X129005782Y-91996147D01*
X129018079Y-91975630D01*
X129032329Y-91956417D01*
X129048393Y-91938693D01*
X129066117Y-91922629D01*
X129085330Y-91908379D01*
X129105847Y-91896082D01*
X129127471Y-91885854D01*
X129149993Y-91877796D01*
X129173197Y-91871984D01*
X129196858Y-91868474D01*
X129220750Y-91867300D01*
X130133250Y-91867300D01*
X130157142Y-91868474D01*
X130157142Y-91868474D01*
G37*
D14*
G04 #@! TD*
G04 #@! TO.P,R4,2*
G04 #@! TO.N,Net-(J2-Pad4)*
X129677000Y-92354800D03*
D12*
G04 #@! TO.N,Net-(J2-Pad4)*
G04 #@! TO.C,R5*
G36*
X130157142Y-94095174D02*
X130180803Y-94098684D01*
X130204007Y-94104496D01*
X130226529Y-94112554D01*
X130248153Y-94122782D01*
X130268670Y-94135079D01*
X130287883Y-94149329D01*
X130305607Y-94165393D01*
X130321671Y-94183117D01*
X130335921Y-94202330D01*
X130348218Y-94222847D01*
X130358446Y-94244471D01*
X130366504Y-94266993D01*
X130372316Y-94290197D01*
X130375826Y-94313858D01*
X130377000Y-94337750D01*
X130377000Y-94825250D01*
X130375826Y-94849142D01*
X130372316Y-94872803D01*
X130366504Y-94896007D01*
X130358446Y-94918529D01*
X130348218Y-94940153D01*
X130335921Y-94960670D01*
X130321671Y-94979883D01*
X130305607Y-94997607D01*
X130287883Y-95013671D01*
X130268670Y-95027921D01*
X130248153Y-95040218D01*
X130226529Y-95050446D01*
X130204007Y-95058504D01*
X130180803Y-95064316D01*
X130157142Y-95067826D01*
X130133250Y-95069000D01*
X129220750Y-95069000D01*
X129196858Y-95067826D01*
X129173197Y-95064316D01*
X129149993Y-95058504D01*
X129127471Y-95050446D01*
X129105847Y-95040218D01*
X129085330Y-95027921D01*
X129066117Y-95013671D01*
X129048393Y-94997607D01*
X129032329Y-94979883D01*
X129018079Y-94960670D01*
X129005782Y-94940153D01*
X128995554Y-94918529D01*
X128987496Y-94896007D01*
X128981684Y-94872803D01*
X128978174Y-94849142D01*
X128977000Y-94825250D01*
X128977000Y-94337750D01*
X128978174Y-94313858D01*
X128981684Y-94290197D01*
X128987496Y-94266993D01*
X128995554Y-94244471D01*
X129005782Y-94222847D01*
X129018079Y-94202330D01*
X129032329Y-94183117D01*
X129048393Y-94165393D01*
X129066117Y-94149329D01*
X129085330Y-94135079D01*
X129105847Y-94122782D01*
X129127471Y-94112554D01*
X129149993Y-94104496D01*
X129173197Y-94098684D01*
X129196858Y-94095174D01*
X129220750Y-94094000D01*
X130133250Y-94094000D01*
X130157142Y-94095174D01*
X130157142Y-94095174D01*
G37*
D14*
G04 #@! TD*
G04 #@! TO.P,R5,2*
G04 #@! TO.N,Net-(J2-Pad4)*
X129677000Y-94581500D03*
D12*
G04 #@! TO.N,Net-(D4-Pad1)*
G04 #@! TO.C,R5*
G36*
X130157142Y-95970174D02*
X130180803Y-95973684D01*
X130204007Y-95979496D01*
X130226529Y-95987554D01*
X130248153Y-95997782D01*
X130268670Y-96010079D01*
X130287883Y-96024329D01*
X130305607Y-96040393D01*
X130321671Y-96058117D01*
X130335921Y-96077330D01*
X130348218Y-96097847D01*
X130358446Y-96119471D01*
X130366504Y-96141993D01*
X130372316Y-96165197D01*
X130375826Y-96188858D01*
X130377000Y-96212750D01*
X130377000Y-96700250D01*
X130375826Y-96724142D01*
X130372316Y-96747803D01*
X130366504Y-96771007D01*
X130358446Y-96793529D01*
X130348218Y-96815153D01*
X130335921Y-96835670D01*
X130321671Y-96854883D01*
X130305607Y-96872607D01*
X130287883Y-96888671D01*
X130268670Y-96902921D01*
X130248153Y-96915218D01*
X130226529Y-96925446D01*
X130204007Y-96933504D01*
X130180803Y-96939316D01*
X130157142Y-96942826D01*
X130133250Y-96944000D01*
X129220750Y-96944000D01*
X129196858Y-96942826D01*
X129173197Y-96939316D01*
X129149993Y-96933504D01*
X129127471Y-96925446D01*
X129105847Y-96915218D01*
X129085330Y-96902921D01*
X129066117Y-96888671D01*
X129048393Y-96872607D01*
X129032329Y-96854883D01*
X129018079Y-96835670D01*
X129005782Y-96815153D01*
X128995554Y-96793529D01*
X128987496Y-96771007D01*
X128981684Y-96747803D01*
X128978174Y-96724142D01*
X128977000Y-96700250D01*
X128977000Y-96212750D01*
X128978174Y-96188858D01*
X128981684Y-96165197D01*
X128987496Y-96141993D01*
X128995554Y-96119471D01*
X129005782Y-96097847D01*
X129018079Y-96077330D01*
X129032329Y-96058117D01*
X129048393Y-96040393D01*
X129066117Y-96024329D01*
X129085330Y-96010079D01*
X129105847Y-95997782D01*
X129127471Y-95987554D01*
X129149993Y-95979496D01*
X129173197Y-95973684D01*
X129196858Y-95970174D01*
X129220750Y-95969000D01*
X130133250Y-95969000D01*
X130157142Y-95970174D01*
X130157142Y-95970174D01*
G37*
D14*
G04 #@! TD*
G04 #@! TO.P,R5,1*
G04 #@! TO.N,Net-(D4-Pad1)*
X129677000Y-96456500D03*
D15*
G04 #@! TO.P,U1,2*
G04 #@! TO.N,GND*
X133947000Y-93385600D03*
D12*
G04 #@! TD*
G04 #@! TO.N,GND*
G04 #@! TO.C,U1*
G36*
X133522000Y-92885600D02*
X134372000Y-92285600D01*
X134372000Y-94485600D01*
X133522000Y-93885600D01*
X133522000Y-92885600D01*
X133522000Y-92885600D01*
G37*
D16*
G04 #@! TO.P,U1,1*
G04 #@! TO.N,+5V*
X138094000Y-91885600D03*
D17*
G04 #@! TO.P,U1,2*
G04 #@! TO.N,GND*
X137947500Y-93385600D03*
D16*
G04 #@! TO.P,U1,3*
G04 #@! TO.N,VCC*
X138094000Y-94885600D03*
D18*
G04 #@! TO.P,U1,2*
G04 #@! TO.N,GND*
X135280500Y-93385600D03*
D19*
X136690200Y-93385600D03*
D12*
G04 #@! TD*
G04 #@! TO.N,GND*
G04 #@! TO.C,U1*
G36*
X137190200Y-93785600D02*
X136190200Y-94485600D01*
X136190200Y-92285600D01*
X137190200Y-92985600D01*
X137190200Y-93785600D01*
X137190200Y-93785600D01*
G37*
D20*
G04 #@! TO.N,+5V*
X130201700Y-89385500D03*
G04 #@! TO.N,GND*
X138195500Y-96688900D03*
G04 #@! TO.N,Net-(D1-Pad1)*
X121526600Y-96520100D03*
G04 #@! TO.N,/PG1*
X120939500Y-88559700D03*
G04 #@! TO.N,Net-(D3-Pad1)*
X122227300Y-89397300D03*
G04 #@! TO.N,Net-(D5-Pad1)*
X122160400Y-95494100D03*
G04 #@! TO.N,VBUS*
X122340200Y-91751700D03*
G04 #@! TO.N,Net-(D4-Pad1)*
X128376000Y-96436800D03*
G04 #@! TO.N,Net-(J2-Pad4)*
X130795100Y-93150400D03*
G04 #@! TO.N,Net-(J2-Pad3)*
X125938500Y-92153500D03*
G04 #@! TD*
D21*
G04 #@! TO.N,+5V*
X130201700Y-90479800D02*
X129677000Y-90479800D01*
X132005000Y-92140700D02*
X130344100Y-90479800D01*
X130344100Y-90479800D02*
X130201700Y-90479800D01*
X130201700Y-90479800D02*
X130201700Y-89385500D01*
X138094000Y-91885600D02*
X136939700Y-91885600D01*
X136939700Y-91885600D02*
X136866500Y-91812400D01*
X136866500Y-91812400D02*
X132333300Y-91812400D01*
X132333300Y-91812400D02*
X132005000Y-92140700D01*
X140393000Y-92521600D02*
X139757000Y-91885600D01*
X139757000Y-91885600D02*
X138094000Y-91885600D01*
X136675000Y-98663100D02*
X137790700Y-98663100D01*
X137790700Y-98663100D02*
X141531000Y-94922800D01*
X141531000Y-94922800D02*
X141531000Y-93659600D01*
X141531000Y-93659600D02*
X140393000Y-92521600D01*
X136675000Y-99778800D02*
X136675000Y-98663100D01*
G04 #@! TO.N,GND*
X136690200Y-93385600D02*
X137947500Y-93385600D01*
X135280500Y-93385600D02*
X136690200Y-93385600D01*
X126857900Y-96179500D02*
X126857900Y-91676400D01*
X126857900Y-91676400D02*
X125938500Y-90757000D01*
X138195500Y-96688900D02*
X136904600Y-97979800D01*
X136904600Y-97979800D02*
X128054800Y-97979800D01*
X128054800Y-97979800D02*
X126857900Y-96782900D01*
X126857900Y-96782900D02*
X126857900Y-96179500D01*
X126857900Y-96179500D02*
X125938500Y-96179500D01*
X132005000Y-94840700D02*
X131326700Y-95519000D01*
X131326700Y-95519000D02*
X128926500Y-95519000D01*
X128926500Y-95519000D02*
X127993300Y-94585800D01*
X127993300Y-94585800D02*
X127993300Y-89549800D01*
X127993300Y-89549800D02*
X129055000Y-88488100D01*
X139887500Y-94396600D02*
X139887500Y-94996900D01*
X139887500Y-94996900D02*
X138195500Y-96688900D01*
X137947500Y-93385600D02*
X139251800Y-93385600D01*
X139251800Y-93385600D02*
X139251800Y-93760900D01*
X139251800Y-93760900D02*
X139887500Y-94396600D01*
X140393000Y-94396600D02*
X139887500Y-94396600D01*
X129055000Y-87233800D02*
X129055000Y-88488100D01*
X133947000Y-93385600D02*
X132491900Y-94840700D01*
X132491900Y-94840700D02*
X132005000Y-94840700D01*
X133947000Y-93385600D02*
X133956200Y-93385600D01*
X135280500Y-93385600D02*
X133956200Y-93385600D01*
D22*
G04 #@! TO.N,Net-(D1-Pad1)*
X124063500Y-96179500D02*
X123723000Y-96520000D01*
X123723000Y-96520000D02*
X121526600Y-96520000D01*
X121526600Y-96520000D02*
X121526600Y-96520100D01*
G04 #@! TO.N,/PG1*
X130363700Y-99778800D02*
X130363700Y-99317000D01*
X130363700Y-99317000D02*
X129594200Y-98547500D01*
X129594200Y-98547500D02*
X126700600Y-98547500D01*
X126700600Y-98547500D02*
X125001000Y-96847900D01*
X125001000Y-96847900D02*
X125001000Y-92763200D01*
X125001000Y-92763200D02*
X124385600Y-92147800D01*
X124385600Y-92147800D02*
X123859900Y-92147800D01*
X123859900Y-92147800D02*
X120939500Y-89227400D01*
X120939500Y-89227400D02*
X120939500Y-88559700D01*
X131595000Y-99778800D02*
X130363700Y-99778800D01*
G04 #@! TO.N,Net-(D3-Pad1)*
X124063500Y-90757000D02*
X123587000Y-90757000D01*
X123587000Y-90757000D02*
X122227300Y-89397300D01*
D21*
G04 #@! TO.N,VCC*
X136939700Y-94885600D02*
X134428300Y-97397000D01*
X134428300Y-97397000D02*
X128274600Y-97397000D01*
X128274600Y-97397000D02*
X127438900Y-96561300D01*
X127438900Y-96561300D02*
X127438900Y-89412000D01*
X127438900Y-89412000D02*
X126515000Y-88488100D01*
X126515000Y-87233800D02*
X126515000Y-88488100D01*
X138094000Y-94885600D02*
X136939700Y-94885600D01*
D22*
G04 #@! TO.N,Net-(D5-Pad1)*
X124063500Y-93468200D02*
X122160400Y-95371300D01*
X122160400Y-95371300D02*
X122160400Y-95494100D01*
D21*
G04 #@! TO.N,VBUS*
X122340200Y-91751700D02*
X119914600Y-94177300D01*
X119914600Y-94177300D02*
X119914600Y-95964700D01*
X119914600Y-95964700D02*
X121510600Y-97560700D01*
X121510600Y-97560700D02*
X124145000Y-97560700D01*
X124145000Y-97560700D02*
X125260700Y-98676400D01*
X125260700Y-98676400D02*
X125260700Y-99778800D01*
X126515000Y-99778800D02*
X125260700Y-99778800D01*
D22*
G04 #@! TO.N,Net-(D4-Pad1)*
X129677000Y-96456500D02*
X128395700Y-96456500D01*
X128395700Y-96456500D02*
X128376000Y-96436800D01*
G04 #@! TO.N,Net-(J2-Pad4)*
X130586600Y-93264400D02*
X130681100Y-93264400D01*
X130681100Y-93264400D02*
X130795100Y-93150400D01*
X130586600Y-93264400D02*
X129677000Y-92354800D01*
X129677000Y-94581500D02*
X130586600Y-93671900D01*
X130586600Y-93671900D02*
X130586600Y-93264400D01*
X134135000Y-87233800D02*
X132903700Y-87233800D01*
X132903700Y-87233800D02*
X132903700Y-87695600D01*
X132903700Y-87695600D02*
X132134200Y-88465100D01*
X132134200Y-88465100D02*
X130036500Y-88465100D01*
X130036500Y-88465100D02*
X128578900Y-89922700D01*
X128578900Y-89922700D02*
X128578900Y-91256700D01*
X128578900Y-91256700D02*
X129677000Y-92354800D01*
G04 #@! TO.N,Net-(J2-Pad3)*
X125938500Y-93468200D02*
X125938500Y-92153500D01*
G04 #@! TD*
G04 #@! TO.N,GND*
G36*
X139333301Y-95422427D02*
X139566690Y-95519100D01*
X140107250Y-95519100D01*
X140265998Y-95360352D01*
X140265998Y-95436854D01*
X137570753Y-98132100D01*
X136727294Y-98132100D01*
X136675000Y-98121698D01*
X136622706Y-98132100D01*
X136467814Y-98162910D01*
X136292171Y-98280271D01*
X136174810Y-98455914D01*
X136134299Y-98659574D01*
X135787499Y-98891299D01*
X135515424Y-99298488D01*
X135419884Y-99778800D01*
X135515424Y-100259112D01*
X135787499Y-100666301D01*
X135925485Y-100758501D01*
X134886509Y-100757168D01*
X135022501Y-100666301D01*
X135294576Y-100259112D01*
X135390116Y-99778800D01*
X135294576Y-99298488D01*
X135022501Y-98891299D01*
X134615312Y-98619224D01*
X134256239Y-98547800D01*
X134013761Y-98547800D01*
X133654688Y-98619224D01*
X133247499Y-98891299D01*
X132975424Y-99298488D01*
X132879884Y-99778800D01*
X132975424Y-100259112D01*
X133247499Y-100666301D01*
X133380600Y-100755236D01*
X132351376Y-100753916D01*
X132482501Y-100666301D01*
X132754576Y-100259112D01*
X132850116Y-99778800D01*
X132754576Y-99298488D01*
X132482501Y-98891299D01*
X132075312Y-98619224D01*
X131716239Y-98547800D01*
X131473761Y-98547800D01*
X131114688Y-98619224D01*
X130707499Y-98891299D01*
X130687039Y-98921919D01*
X129988787Y-98223667D01*
X129960447Y-98181253D01*
X129792412Y-98068975D01*
X129644232Y-98039500D01*
X129644228Y-98039500D01*
X129594200Y-98029549D01*
X129544172Y-98039500D01*
X126911020Y-98039500D01*
X126386020Y-97514500D01*
X126552309Y-97514500D01*
X126785698Y-97417827D01*
X126964327Y-97239199D01*
X127061000Y-97005810D01*
X127061000Y-96947422D01*
X127100405Y-96973752D01*
X127862148Y-97735495D01*
X127891771Y-97779829D01*
X128067414Y-97897190D01*
X128222306Y-97928000D01*
X128222309Y-97928000D01*
X128274599Y-97938401D01*
X128326889Y-97928000D01*
X134376010Y-97928000D01*
X134428300Y-97938401D01*
X134480590Y-97928000D01*
X134480594Y-97928000D01*
X134635486Y-97897190D01*
X134811129Y-97779829D01*
X134840752Y-97735495D01*
X137007890Y-95568358D01*
X137069314Y-95660286D01*
X137195341Y-95744494D01*
X137344000Y-95774064D01*
X138844000Y-95774064D01*
X138992659Y-95744494D01*
X139118686Y-95660286D01*
X139202894Y-95534259D01*
X139232464Y-95385600D01*
X139232464Y-95321589D01*
X139333301Y-95422427D01*
X139333301Y-95422427D01*
G37*
X139333301Y-95422427D02*
X139566690Y-95519100D01*
X140107250Y-95519100D01*
X140265998Y-95360352D01*
X140265998Y-95436854D01*
X137570753Y-98132100D01*
X136727294Y-98132100D01*
X136675000Y-98121698D01*
X136622706Y-98132100D01*
X136467814Y-98162910D01*
X136292171Y-98280271D01*
X136174810Y-98455914D01*
X136134299Y-98659574D01*
X135787499Y-98891299D01*
X135515424Y-99298488D01*
X135419884Y-99778800D01*
X135515424Y-100259112D01*
X135787499Y-100666301D01*
X135925485Y-100758501D01*
X134886509Y-100757168D01*
X135022501Y-100666301D01*
X135294576Y-100259112D01*
X135390116Y-99778800D01*
X135294576Y-99298488D01*
X135022501Y-98891299D01*
X134615312Y-98619224D01*
X134256239Y-98547800D01*
X134013761Y-98547800D01*
X133654688Y-98619224D01*
X133247499Y-98891299D01*
X132975424Y-99298488D01*
X132879884Y-99778800D01*
X132975424Y-100259112D01*
X133247499Y-100666301D01*
X133380600Y-100755236D01*
X132351376Y-100753916D01*
X132482501Y-100666301D01*
X132754576Y-100259112D01*
X132850116Y-99778800D01*
X132754576Y-99298488D01*
X132482501Y-98891299D01*
X132075312Y-98619224D01*
X131716239Y-98547800D01*
X131473761Y-98547800D01*
X131114688Y-98619224D01*
X130707499Y-98891299D01*
X130687039Y-98921919D01*
X129988787Y-98223667D01*
X129960447Y-98181253D01*
X129792412Y-98068975D01*
X129644232Y-98039500D01*
X129644228Y-98039500D01*
X129594200Y-98029549D01*
X129544172Y-98039500D01*
X126911020Y-98039500D01*
X126386020Y-97514500D01*
X126552309Y-97514500D01*
X126785698Y-97417827D01*
X126964327Y-97239199D01*
X127061000Y-97005810D01*
X127061000Y-96947422D01*
X127100405Y-96973752D01*
X127862148Y-97735495D01*
X127891771Y-97779829D01*
X128067414Y-97897190D01*
X128222306Y-97928000D01*
X128222309Y-97928000D01*
X128274599Y-97938401D01*
X128326889Y-97928000D01*
X134376010Y-97928000D01*
X134428300Y-97938401D01*
X134480590Y-97928000D01*
X134480594Y-97928000D01*
X134635486Y-97897190D01*
X134811129Y-97779829D01*
X134840752Y-97735495D01*
X137007890Y-95568358D01*
X137069314Y-95660286D01*
X137195341Y-95744494D01*
X137344000Y-95774064D01*
X138844000Y-95774064D01*
X138992659Y-95744494D01*
X139118686Y-95660286D01*
X139202894Y-95534259D01*
X139232464Y-95385600D01*
X139232464Y-95321589D01*
X139333301Y-95422427D01*
G36*
X125276536Y-86383800D02*
X125276536Y-88083800D01*
X125306106Y-88232459D01*
X125390314Y-88358486D01*
X125516341Y-88442694D01*
X125665000Y-88472264D01*
X125976749Y-88472264D01*
X125973599Y-88488100D01*
X126014810Y-88695285D01*
X126102549Y-88826596D01*
X126102551Y-88826598D01*
X126132172Y-88870929D01*
X126176503Y-88900550D01*
X126907901Y-89631949D01*
X126907901Y-89640875D01*
X126785698Y-89518673D01*
X126552309Y-89422000D01*
X126224250Y-89422000D01*
X126065500Y-89580750D01*
X126065500Y-90630000D01*
X126085500Y-90630000D01*
X126085500Y-90884000D01*
X126065500Y-90884000D01*
X126065500Y-90904000D01*
X125811500Y-90904000D01*
X125811500Y-90884000D01*
X125791500Y-90884000D01*
X125791500Y-90630000D01*
X125811500Y-90630000D01*
X125811500Y-89580750D01*
X125652750Y-89422000D01*
X125324691Y-89422000D01*
X125091302Y-89518673D01*
X124912673Y-89697301D01*
X124816000Y-89930690D01*
X124816000Y-89946058D01*
X124754293Y-89853707D01*
X124549188Y-89716660D01*
X124307250Y-89668536D01*
X123819750Y-89668536D01*
X123577812Y-89716660D01*
X123390343Y-89841923D01*
X122951200Y-89402780D01*
X122951200Y-89253307D01*
X122888403Y-89101702D01*
X123352411Y-89293900D01*
X123941589Y-89293900D01*
X124485919Y-89068432D01*
X124902532Y-88651819D01*
X125128000Y-88107489D01*
X125128000Y-87518311D01*
X124902532Y-86973981D01*
X124485919Y-86557368D01*
X123941589Y-86331900D01*
X123352411Y-86331900D01*
X122808081Y-86557368D01*
X122391468Y-86973981D01*
X122166000Y-87518311D01*
X122166000Y-88107489D01*
X122391468Y-88651819D01*
X122442575Y-88702926D01*
X122371293Y-88673400D01*
X122083307Y-88673400D01*
X121817244Y-88783607D01*
X121613607Y-88987244D01*
X121556246Y-89125726D01*
X121476735Y-89046214D01*
X121553193Y-88969756D01*
X121663400Y-88703693D01*
X121663400Y-88415707D01*
X121553193Y-88149644D01*
X121349556Y-87946007D01*
X121083493Y-87835800D01*
X120795507Y-87835800D01*
X120529444Y-87946007D01*
X120325807Y-88149644D01*
X120215600Y-88415707D01*
X120215600Y-88703693D01*
X120325807Y-88969756D01*
X120431500Y-89075449D01*
X120431500Y-89177372D01*
X120421549Y-89227400D01*
X120431500Y-89277428D01*
X120431500Y-89277431D01*
X120460975Y-89425611D01*
X120573253Y-89593647D01*
X120615668Y-89621988D01*
X122072656Y-91078977D01*
X121930144Y-91138007D01*
X121726507Y-91341644D01*
X121616300Y-91607707D01*
X121616300Y-91724653D01*
X119576105Y-93764848D01*
X119531771Y-93794471D01*
X119414410Y-93970115D01*
X119383600Y-94125007D01*
X119383600Y-94125010D01*
X119373199Y-94177300D01*
X119383600Y-94229590D01*
X119383601Y-95912405D01*
X119373199Y-95964700D01*
X119414410Y-96171885D01*
X119502149Y-96303196D01*
X119502151Y-96303198D01*
X119531772Y-96347529D01*
X119576103Y-96377150D01*
X121098150Y-97899198D01*
X121127771Y-97943529D01*
X121172102Y-97973150D01*
X121172103Y-97973151D01*
X121303414Y-98060890D01*
X121510600Y-98102102D01*
X121562894Y-98091700D01*
X122655449Y-98091700D01*
X122391468Y-98355681D01*
X122166000Y-98900011D01*
X122166000Y-99489189D01*
X122391468Y-100033519D01*
X122808081Y-100450132D01*
X123352411Y-100675600D01*
X123941589Y-100675600D01*
X124485919Y-100450132D01*
X124836435Y-100099616D01*
X124877871Y-100161629D01*
X125053514Y-100278990D01*
X125208406Y-100309800D01*
X125260700Y-100320202D01*
X125276536Y-100317052D01*
X125276536Y-100628800D01*
X125299624Y-100744871D01*
X118214894Y-100735783D01*
X118101054Y-100710545D01*
X117966240Y-100668038D01*
X117835657Y-100613949D01*
X117710284Y-100548685D01*
X117591072Y-100472738D01*
X117478920Y-100386681D01*
X117374722Y-100291202D01*
X117279226Y-100186985D01*
X117193174Y-100074840D01*
X117117232Y-99955635D01*
X117051963Y-99830256D01*
X116997874Y-99699670D01*
X116955367Y-99564860D01*
X116924776Y-99426872D01*
X116906326Y-99286727D01*
X116899799Y-99137238D01*
X116899799Y-91307495D01*
X119938000Y-91307495D01*
X119938000Y-91598305D01*
X120049288Y-91866978D01*
X120254922Y-92072612D01*
X120523595Y-92183900D01*
X120814405Y-92183900D01*
X121083078Y-92072612D01*
X121288712Y-91866978D01*
X121400000Y-91598305D01*
X121400000Y-91307495D01*
X121288712Y-91038822D01*
X121083078Y-90833188D01*
X120814405Y-90721900D01*
X120523595Y-90721900D01*
X120254922Y-90833188D01*
X120049288Y-91038822D01*
X119938000Y-91307495D01*
X116899799Y-91307495D01*
X116899799Y-87913788D01*
X116906326Y-87764299D01*
X116924776Y-87624154D01*
X116955367Y-87486166D01*
X116997874Y-87351356D01*
X117051963Y-87220770D01*
X117117232Y-87095391D01*
X117193174Y-86976186D01*
X117279226Y-86864041D01*
X117374722Y-86759824D01*
X117478920Y-86664345D01*
X117591072Y-86578288D01*
X117710284Y-86502341D01*
X117835657Y-86437077D01*
X117966240Y-86382988D01*
X118101054Y-86340481D01*
X118214898Y-86315242D01*
X125292033Y-86305892D01*
X125276536Y-86383800D01*
X125276536Y-86383800D01*
G37*
X125276536Y-86383800D02*
X125276536Y-88083800D01*
X125306106Y-88232459D01*
X125390314Y-88358486D01*
X125516341Y-88442694D01*
X125665000Y-88472264D01*
X125976749Y-88472264D01*
X125973599Y-88488100D01*
X126014810Y-88695285D01*
X126102549Y-88826596D01*
X126102551Y-88826598D01*
X126132172Y-88870929D01*
X126176503Y-88900550D01*
X126907901Y-89631949D01*
X126907901Y-89640875D01*
X126785698Y-89518673D01*
X126552309Y-89422000D01*
X126224250Y-89422000D01*
X126065500Y-89580750D01*
X126065500Y-90630000D01*
X126085500Y-90630000D01*
X126085500Y-90884000D01*
X126065500Y-90884000D01*
X126065500Y-90904000D01*
X125811500Y-90904000D01*
X125811500Y-90884000D01*
X125791500Y-90884000D01*
X125791500Y-90630000D01*
X125811500Y-90630000D01*
X125811500Y-89580750D01*
X125652750Y-89422000D01*
X125324691Y-89422000D01*
X125091302Y-89518673D01*
X124912673Y-89697301D01*
X124816000Y-89930690D01*
X124816000Y-89946058D01*
X124754293Y-89853707D01*
X124549188Y-89716660D01*
X124307250Y-89668536D01*
X123819750Y-89668536D01*
X123577812Y-89716660D01*
X123390343Y-89841923D01*
X122951200Y-89402780D01*
X122951200Y-89253307D01*
X122888403Y-89101702D01*
X123352411Y-89293900D01*
X123941589Y-89293900D01*
X124485919Y-89068432D01*
X124902532Y-88651819D01*
X125128000Y-88107489D01*
X125128000Y-87518311D01*
X124902532Y-86973981D01*
X124485919Y-86557368D01*
X123941589Y-86331900D01*
X123352411Y-86331900D01*
X122808081Y-86557368D01*
X122391468Y-86973981D01*
X122166000Y-87518311D01*
X122166000Y-88107489D01*
X122391468Y-88651819D01*
X122442575Y-88702926D01*
X122371293Y-88673400D01*
X122083307Y-88673400D01*
X121817244Y-88783607D01*
X121613607Y-88987244D01*
X121556246Y-89125726D01*
X121476735Y-89046214D01*
X121553193Y-88969756D01*
X121663400Y-88703693D01*
X121663400Y-88415707D01*
X121553193Y-88149644D01*
X121349556Y-87946007D01*
X121083493Y-87835800D01*
X120795507Y-87835800D01*
X120529444Y-87946007D01*
X120325807Y-88149644D01*
X120215600Y-88415707D01*
X120215600Y-88703693D01*
X120325807Y-88969756D01*
X120431500Y-89075449D01*
X120431500Y-89177372D01*
X120421549Y-89227400D01*
X120431500Y-89277428D01*
X120431500Y-89277431D01*
X120460975Y-89425611D01*
X120573253Y-89593647D01*
X120615668Y-89621988D01*
X122072656Y-91078977D01*
X121930144Y-91138007D01*
X121726507Y-91341644D01*
X121616300Y-91607707D01*
X121616300Y-91724653D01*
X119576105Y-93764848D01*
X119531771Y-93794471D01*
X119414410Y-93970115D01*
X119383600Y-94125007D01*
X119383600Y-94125010D01*
X119373199Y-94177300D01*
X119383600Y-94229590D01*
X119383601Y-95912405D01*
X119373199Y-95964700D01*
X119414410Y-96171885D01*
X119502149Y-96303196D01*
X119502151Y-96303198D01*
X119531772Y-96347529D01*
X119576103Y-96377150D01*
X121098150Y-97899198D01*
X121127771Y-97943529D01*
X121172102Y-97973150D01*
X121172103Y-97973151D01*
X121303414Y-98060890D01*
X121510600Y-98102102D01*
X121562894Y-98091700D01*
X122655449Y-98091700D01*
X122391468Y-98355681D01*
X122166000Y-98900011D01*
X122166000Y-99489189D01*
X122391468Y-100033519D01*
X122808081Y-100450132D01*
X123352411Y-100675600D01*
X123941589Y-100675600D01*
X124485919Y-100450132D01*
X124836435Y-100099616D01*
X124877871Y-100161629D01*
X125053514Y-100278990D01*
X125208406Y-100309800D01*
X125260700Y-100320202D01*
X125276536Y-100317052D01*
X125276536Y-100628800D01*
X125299624Y-100744871D01*
X118214894Y-100735783D01*
X118101054Y-100710545D01*
X117966240Y-100668038D01*
X117835657Y-100613949D01*
X117710284Y-100548685D01*
X117591072Y-100472738D01*
X117478920Y-100386681D01*
X117374722Y-100291202D01*
X117279226Y-100186985D01*
X117193174Y-100074840D01*
X117117232Y-99955635D01*
X117051963Y-99830256D01*
X116997874Y-99699670D01*
X116955367Y-99564860D01*
X116924776Y-99426872D01*
X116906326Y-99286727D01*
X116899799Y-99137238D01*
X116899799Y-91307495D01*
X119938000Y-91307495D01*
X119938000Y-91598305D01*
X120049288Y-91866978D01*
X120254922Y-92072612D01*
X120523595Y-92183900D01*
X120814405Y-92183900D01*
X121083078Y-92072612D01*
X121288712Y-91866978D01*
X121400000Y-91598305D01*
X121400000Y-91307495D01*
X121288712Y-91038822D01*
X121083078Y-90833188D01*
X120814405Y-90721900D01*
X120523595Y-90721900D01*
X120254922Y-90833188D01*
X120049288Y-91038822D01*
X119938000Y-91307495D01*
X116899799Y-91307495D01*
X116899799Y-87913788D01*
X116906326Y-87764299D01*
X116924776Y-87624154D01*
X116955367Y-87486166D01*
X116997874Y-87351356D01*
X117051963Y-87220770D01*
X117117232Y-87095391D01*
X117193174Y-86976186D01*
X117279226Y-86864041D01*
X117374722Y-86759824D01*
X117478920Y-86664345D01*
X117591072Y-86578288D01*
X117710284Y-86502341D01*
X117835657Y-86437077D01*
X117966240Y-86382988D01*
X118101054Y-86340481D01*
X118214898Y-86315242D01*
X125292033Y-86305892D01*
X125276536Y-86383800D01*
G36*
X129182000Y-87106800D02*
X129202000Y-87106800D01*
X129202000Y-87360800D01*
X129182000Y-87360800D01*
X129182000Y-88553955D01*
X129212911Y-88570268D01*
X128255068Y-89528112D01*
X128212653Y-89556453D01*
X128184313Y-89598867D01*
X128184312Y-89598868D01*
X128134679Y-89673150D01*
X128100375Y-89724489D01*
X128070900Y-89872669D01*
X128070900Y-89872672D01*
X128060949Y-89922700D01*
X128070900Y-89972728D01*
X128070901Y-91206667D01*
X128060949Y-91256700D01*
X128100375Y-91454911D01*
X128184312Y-91580532D01*
X128184315Y-91580535D01*
X128212654Y-91622947D01*
X128255066Y-91651286D01*
X128609489Y-92005710D01*
X128588536Y-92111050D01*
X128588536Y-92598550D01*
X128636660Y-92840488D01*
X128773707Y-93045593D01*
X128978812Y-93182640D01*
X129220750Y-93230764D01*
X129834543Y-93230764D01*
X130071929Y-93468150D01*
X129834543Y-93705536D01*
X129220750Y-93705536D01*
X128978812Y-93753660D01*
X128773707Y-93890707D01*
X128636660Y-94095812D01*
X128588536Y-94337750D01*
X128588536Y-94825250D01*
X128636660Y-95067188D01*
X128773707Y-95272293D01*
X128978812Y-95409340D01*
X129220750Y-95457464D01*
X130133250Y-95457464D01*
X130375188Y-95409340D01*
X130580293Y-95272293D01*
X130717340Y-95067188D01*
X130737129Y-94967702D01*
X130853748Y-94967702D01*
X130695000Y-95126450D01*
X130695000Y-95667009D01*
X130791673Y-95900398D01*
X130970301Y-96079027D01*
X131203690Y-96175700D01*
X131719250Y-96175700D01*
X131878000Y-96016950D01*
X131878000Y-94967700D01*
X132132000Y-94967700D01*
X132132000Y-96016950D01*
X132290750Y-96175700D01*
X132806310Y-96175700D01*
X133039699Y-96079027D01*
X133218327Y-95900398D01*
X133315000Y-95667009D01*
X133315000Y-95126450D01*
X133156250Y-94967700D01*
X132132000Y-94967700D01*
X131878000Y-94967700D01*
X131858000Y-94967700D01*
X131858000Y-94713700D01*
X131878000Y-94713700D01*
X131878000Y-93664450D01*
X132132000Y-93664450D01*
X132132000Y-94713700D01*
X133156250Y-94713700D01*
X133315000Y-94554950D01*
X133315000Y-94531974D01*
X133820000Y-94888445D01*
X133820000Y-94840052D01*
X133822173Y-94845298D01*
X134000801Y-95023927D01*
X134074000Y-95054247D01*
X134074000Y-95056073D01*
X134124235Y-95083757D01*
X134164652Y-95091796D01*
X134234190Y-95120600D01*
X134309459Y-95120600D01*
X134372000Y-95133040D01*
X134434541Y-95120600D01*
X134994750Y-95120600D01*
X135153500Y-94961850D01*
X135153500Y-93512600D01*
X133884250Y-93512600D01*
X133864250Y-93532600D01*
X133820000Y-93532600D01*
X133820000Y-93512600D01*
X132874560Y-93512600D01*
X132874560Y-93533970D01*
X132806310Y-93505700D01*
X132290750Y-93505700D01*
X132132000Y-93664450D01*
X131878000Y-93664450D01*
X131719250Y-93505700D01*
X131431474Y-93505700D01*
X131519000Y-93294393D01*
X131519000Y-93217031D01*
X131579999Y-93229164D01*
X132430001Y-93229164D01*
X132674330Y-93180564D01*
X132874560Y-93046775D01*
X132874560Y-93258600D01*
X133820000Y-93258600D01*
X133820000Y-93238600D01*
X133864250Y-93238600D01*
X133884250Y-93258600D01*
X135153500Y-93258600D01*
X135153500Y-93238600D01*
X135407500Y-93238600D01*
X135407500Y-93258600D01*
X137837640Y-93258600D01*
X137837640Y-93238600D01*
X138074500Y-93238600D01*
X138074500Y-93258600D01*
X138094500Y-93258600D01*
X138094500Y-93512600D01*
X138074500Y-93512600D01*
X138074500Y-93532600D01*
X137837640Y-93532600D01*
X137837640Y-93512600D01*
X135407500Y-93512600D01*
X135407500Y-94961850D01*
X135566250Y-95120600D01*
X135953752Y-95120600D01*
X134208353Y-96866000D01*
X130732495Y-96866000D01*
X130765464Y-96700250D01*
X130765464Y-96212750D01*
X130717340Y-95970812D01*
X130580293Y-95765707D01*
X130375188Y-95628660D01*
X130133250Y-95580536D01*
X129220750Y-95580536D01*
X128978812Y-95628660D01*
X128773707Y-95765707D01*
X128746344Y-95806658D01*
X128519993Y-95712900D01*
X128232007Y-95712900D01*
X127969900Y-95821468D01*
X127969900Y-89464294D01*
X127980302Y-89412000D01*
X127939090Y-89204814D01*
X127851351Y-89073503D01*
X127851350Y-89073502D01*
X127821729Y-89029171D01*
X127777398Y-88999550D01*
X127250111Y-88472264D01*
X127365000Y-88472264D01*
X127513659Y-88442694D01*
X127639686Y-88358486D01*
X127723894Y-88232459D01*
X127753464Y-88083800D01*
X127753464Y-87888695D01*
X127859817Y-88115158D01*
X128288076Y-88505445D01*
X128698110Y-88675276D01*
X128928000Y-88553955D01*
X128928000Y-87360800D01*
X128908000Y-87360800D01*
X128908000Y-87106800D01*
X128928000Y-87106800D01*
X128928000Y-87086800D01*
X129182000Y-87086800D01*
X129182000Y-87106800D01*
X129182000Y-87106800D01*
G37*
X129182000Y-87106800D02*
X129202000Y-87106800D01*
X129202000Y-87360800D01*
X129182000Y-87360800D01*
X129182000Y-88553955D01*
X129212911Y-88570268D01*
X128255068Y-89528112D01*
X128212653Y-89556453D01*
X128184313Y-89598867D01*
X128184312Y-89598868D01*
X128134679Y-89673150D01*
X128100375Y-89724489D01*
X128070900Y-89872669D01*
X128070900Y-89872672D01*
X128060949Y-89922700D01*
X128070900Y-89972728D01*
X128070901Y-91206667D01*
X128060949Y-91256700D01*
X128100375Y-91454911D01*
X128184312Y-91580532D01*
X128184315Y-91580535D01*
X128212654Y-91622947D01*
X128255066Y-91651286D01*
X128609489Y-92005710D01*
X128588536Y-92111050D01*
X128588536Y-92598550D01*
X128636660Y-92840488D01*
X128773707Y-93045593D01*
X128978812Y-93182640D01*
X129220750Y-93230764D01*
X129834543Y-93230764D01*
X130071929Y-93468150D01*
X129834543Y-93705536D01*
X129220750Y-93705536D01*
X128978812Y-93753660D01*
X128773707Y-93890707D01*
X128636660Y-94095812D01*
X128588536Y-94337750D01*
X128588536Y-94825250D01*
X128636660Y-95067188D01*
X128773707Y-95272293D01*
X128978812Y-95409340D01*
X129220750Y-95457464D01*
X130133250Y-95457464D01*
X130375188Y-95409340D01*
X130580293Y-95272293D01*
X130717340Y-95067188D01*
X130737129Y-94967702D01*
X130853748Y-94967702D01*
X130695000Y-95126450D01*
X130695000Y-95667009D01*
X130791673Y-95900398D01*
X130970301Y-96079027D01*
X131203690Y-96175700D01*
X131719250Y-96175700D01*
X131878000Y-96016950D01*
X131878000Y-94967700D01*
X132132000Y-94967700D01*
X132132000Y-96016950D01*
X132290750Y-96175700D01*
X132806310Y-96175700D01*
X133039699Y-96079027D01*
X133218327Y-95900398D01*
X133315000Y-95667009D01*
X133315000Y-95126450D01*
X133156250Y-94967700D01*
X132132000Y-94967700D01*
X131878000Y-94967700D01*
X131858000Y-94967700D01*
X131858000Y-94713700D01*
X131878000Y-94713700D01*
X131878000Y-93664450D01*
X132132000Y-93664450D01*
X132132000Y-94713700D01*
X133156250Y-94713700D01*
X133315000Y-94554950D01*
X133315000Y-94531974D01*
X133820000Y-94888445D01*
X133820000Y-94840052D01*
X133822173Y-94845298D01*
X134000801Y-95023927D01*
X134074000Y-95054247D01*
X134074000Y-95056073D01*
X134124235Y-95083757D01*
X134164652Y-95091796D01*
X134234190Y-95120600D01*
X134309459Y-95120600D01*
X134372000Y-95133040D01*
X134434541Y-95120600D01*
X134994750Y-95120600D01*
X135153500Y-94961850D01*
X135153500Y-93512600D01*
X133884250Y-93512600D01*
X133864250Y-93532600D01*
X133820000Y-93532600D01*
X133820000Y-93512600D01*
X132874560Y-93512600D01*
X132874560Y-93533970D01*
X132806310Y-93505700D01*
X132290750Y-93505700D01*
X132132000Y-93664450D01*
X131878000Y-93664450D01*
X131719250Y-93505700D01*
X131431474Y-93505700D01*
X131519000Y-93294393D01*
X131519000Y-93217031D01*
X131579999Y-93229164D01*
X132430001Y-93229164D01*
X132674330Y-93180564D01*
X132874560Y-93046775D01*
X132874560Y-93258600D01*
X133820000Y-93258600D01*
X133820000Y-93238600D01*
X133864250Y-93238600D01*
X133884250Y-93258600D01*
X135153500Y-93258600D01*
X135153500Y-93238600D01*
X135407500Y-93238600D01*
X135407500Y-93258600D01*
X137837640Y-93258600D01*
X137837640Y-93238600D01*
X138074500Y-93238600D01*
X138074500Y-93258600D01*
X138094500Y-93258600D01*
X138094500Y-93512600D01*
X138074500Y-93512600D01*
X138074500Y-93532600D01*
X137837640Y-93532600D01*
X137837640Y-93512600D01*
X135407500Y-93512600D01*
X135407500Y-94961850D01*
X135566250Y-95120600D01*
X135953752Y-95120600D01*
X134208353Y-96866000D01*
X130732495Y-96866000D01*
X130765464Y-96700250D01*
X130765464Y-96212750D01*
X130717340Y-95970812D01*
X130580293Y-95765707D01*
X130375188Y-95628660D01*
X130133250Y-95580536D01*
X129220750Y-95580536D01*
X128978812Y-95628660D01*
X128773707Y-95765707D01*
X128746344Y-95806658D01*
X128519993Y-95712900D01*
X128232007Y-95712900D01*
X127969900Y-95821468D01*
X127969900Y-89464294D01*
X127980302Y-89412000D01*
X127939090Y-89204814D01*
X127851351Y-89073503D01*
X127851350Y-89073502D01*
X127821729Y-89029171D01*
X127777398Y-88999550D01*
X127250111Y-88472264D01*
X127365000Y-88472264D01*
X127513659Y-88442694D01*
X127639686Y-88358486D01*
X127723894Y-88232459D01*
X127753464Y-88083800D01*
X127753464Y-87888695D01*
X127859817Y-88115158D01*
X128288076Y-88505445D01*
X128698110Y-88675276D01*
X128928000Y-88553955D01*
X128928000Y-87360800D01*
X128908000Y-87360800D01*
X128908000Y-87106800D01*
X128928000Y-87106800D01*
X128928000Y-87086800D01*
X129182000Y-87086800D01*
X129182000Y-87106800D01*
G36*
X126907900Y-95063375D02*
X126785698Y-94941173D01*
X126552309Y-94844500D01*
X126224250Y-94844500D01*
X126065500Y-95003250D01*
X126065500Y-96052500D01*
X126085500Y-96052500D01*
X126085500Y-96306500D01*
X126065500Y-96306500D01*
X126065500Y-96326500D01*
X125811500Y-96326500D01*
X125811500Y-96306500D01*
X125791500Y-96306500D01*
X125791500Y-96052500D01*
X125811500Y-96052500D01*
X125811500Y-95003250D01*
X125652750Y-94844500D01*
X125509000Y-94844500D01*
X125509000Y-94519716D01*
X125694750Y-94556664D01*
X126182250Y-94556664D01*
X126424188Y-94508540D01*
X126629293Y-94371493D01*
X126766340Y-94166388D01*
X126814464Y-93924450D01*
X126814464Y-93011950D01*
X126766340Y-92770012D01*
X126629293Y-92564907D01*
X126568468Y-92524265D01*
X126662400Y-92297493D01*
X126662400Y-92046399D01*
X126785698Y-91995327D01*
X126907901Y-91873125D01*
X126907900Y-95063375D01*
X126907900Y-95063375D01*
G37*
X126907900Y-95063375D02*
X126785698Y-94941173D01*
X126552309Y-94844500D01*
X126224250Y-94844500D01*
X126065500Y-95003250D01*
X126065500Y-96052500D01*
X126085500Y-96052500D01*
X126085500Y-96306500D01*
X126065500Y-96306500D01*
X126065500Y-96326500D01*
X125811500Y-96326500D01*
X125811500Y-96306500D01*
X125791500Y-96306500D01*
X125791500Y-96052500D01*
X125811500Y-96052500D01*
X125811500Y-95003250D01*
X125652750Y-94844500D01*
X125509000Y-94844500D01*
X125509000Y-94519716D01*
X125694750Y-94556664D01*
X126182250Y-94556664D01*
X126424188Y-94508540D01*
X126629293Y-94371493D01*
X126766340Y-94166388D01*
X126814464Y-93924450D01*
X126814464Y-93011950D01*
X126766340Y-92770012D01*
X126629293Y-92564907D01*
X126568468Y-92524265D01*
X126662400Y-92297493D01*
X126662400Y-92046399D01*
X126785698Y-91995327D01*
X126907901Y-91873125D01*
X126907900Y-95063375D01*
G36*
X126907900Y-96312150D02*
X126902252Y-96306502D01*
X126907900Y-96306502D01*
X126907900Y-96312150D01*
X126907900Y-96312150D01*
G37*
X126907900Y-96312150D02*
X126902252Y-96306502D01*
X126907900Y-96306502D01*
X126907900Y-96312150D01*
G36*
X126907900Y-96052498D02*
X126902252Y-96052498D01*
X126907900Y-96046850D01*
X126907900Y-96052498D01*
X126907900Y-96052498D01*
G37*
X126907900Y-96052498D02*
X126902252Y-96052498D01*
X126907900Y-96046850D01*
X126907900Y-96052498D01*
G36*
X140520000Y-94269600D02*
X140540000Y-94269600D01*
X140540000Y-94523600D01*
X140520000Y-94523600D01*
X140520000Y-94543600D01*
X140266000Y-94543600D01*
X140266000Y-94523600D01*
X140246000Y-94523600D01*
X140246000Y-94269600D01*
X140266000Y-94269600D01*
X140266000Y-94249600D01*
X140520000Y-94249600D01*
X140520000Y-94269600D01*
X140520000Y-94269600D01*
G37*
X140520000Y-94269600D02*
X140540000Y-94269600D01*
X140540000Y-94523600D01*
X140520000Y-94523600D01*
X140520000Y-94543600D01*
X140266000Y-94543600D01*
X140266000Y-94523600D01*
X140246000Y-94523600D01*
X140246000Y-94269600D01*
X140266000Y-94269600D01*
X140266000Y-94249600D01*
X140520000Y-94249600D01*
X140520000Y-94269600D01*
G36*
X139489707Y-93212393D02*
X139582058Y-93274100D01*
X139566690Y-93274100D01*
X139482500Y-93308973D01*
X139482500Y-93258598D01*
X139323752Y-93258598D01*
X139441742Y-93140608D01*
X139489707Y-93212393D01*
X139489707Y-93212393D01*
G37*
X139489707Y-93212393D02*
X139582058Y-93274100D01*
X139566690Y-93274100D01*
X139482500Y-93308973D01*
X139482500Y-93258598D01*
X139323752Y-93258598D01*
X139441742Y-93140608D01*
X139489707Y-93212393D01*
G04 #@! TD*
M02*
