G04 #@! TF.GenerationSoftware,KiCad,Pcbnew,(5.0.0)*
G04 #@! TF.CreationDate,2018-09-11T18:50:04-05:00*
G04 #@! TF.ProjectId,mini-attinyuino,6D696E692D617474696E7975696E6F2E,1.0*
G04 #@! TF.SameCoordinates,Original*
G04 #@! TF.FileFunction,Legend,Bot*
G04 #@! TF.FilePolarity,Positive*
%FSLAX46Y46*%
G04 Gerber Fmt 4.6, Leading zero omitted, Abs format (unit mm)*
G04 Created by KiCad (PCBNEW (5.0.0)) date 09/11/18 18:50:04*
%MOMM*%
%LPD*%
G01*
G04 APERTURE LIST*
%ADD10C,0.127000*%
%ADD11C,0.010000*%
%ADD12C,0.120000*%
%ADD13C,0.150000*%
%ADD14C,0.100000*%
G04 APERTURE END LIST*
D10*
X140001651Y-90629388D02*
X140201651Y-90343674D01*
X140344508Y-90629388D02*
X140344508Y-90029388D01*
X140115937Y-90029388D01*
X140058794Y-90057960D01*
X140030222Y-90086531D01*
X140001651Y-90143674D01*
X140001651Y-90229388D01*
X140030222Y-90286531D01*
X140058794Y-90315102D01*
X140115937Y-90343674D01*
X140344508Y-90343674D01*
X139887365Y-90686531D02*
X139430222Y-90686531D01*
X139315937Y-90086531D02*
X139287365Y-90057960D01*
X139230222Y-90029388D01*
X139087365Y-90029388D01*
X139030222Y-90057960D01*
X139001651Y-90086531D01*
X138973080Y-90143674D01*
X138973080Y-90200817D01*
X139001651Y-90286531D01*
X139344508Y-90629388D01*
X138973080Y-90629388D01*
X138601651Y-90029388D02*
X138544508Y-90029388D01*
X138487365Y-90057960D01*
X138458794Y-90086531D01*
X138430222Y-90143674D01*
X138401651Y-90257960D01*
X138401651Y-90400817D01*
X138430222Y-90515102D01*
X138458794Y-90572245D01*
X138487365Y-90600817D01*
X138544508Y-90629388D01*
X138601651Y-90629388D01*
X138658794Y-90600817D01*
X138687365Y-90572245D01*
X138715937Y-90515102D01*
X138744508Y-90400817D01*
X138744508Y-90257960D01*
X138715937Y-90143674D01*
X138687365Y-90086531D01*
X138658794Y-90057960D01*
X138601651Y-90029388D01*
X137830222Y-90629388D02*
X138173080Y-90629388D01*
X138001651Y-90629388D02*
X138001651Y-90029388D01*
X138058794Y-90115102D01*
X138115937Y-90172245D01*
X138173080Y-90200817D01*
X137487365Y-90286531D02*
X137544508Y-90257960D01*
X137573080Y-90229388D01*
X137601651Y-90172245D01*
X137601651Y-90143674D01*
X137573080Y-90086531D01*
X137544508Y-90057960D01*
X137487365Y-90029388D01*
X137373080Y-90029388D01*
X137315937Y-90057960D01*
X137287365Y-90086531D01*
X137258794Y-90143674D01*
X137258794Y-90172245D01*
X137287365Y-90229388D01*
X137315937Y-90257960D01*
X137373080Y-90286531D01*
X137487365Y-90286531D01*
X137544508Y-90315102D01*
X137573080Y-90343674D01*
X137601651Y-90400817D01*
X137601651Y-90515102D01*
X137573080Y-90572245D01*
X137544508Y-90600817D01*
X137487365Y-90629388D01*
X137373080Y-90629388D01*
X137315937Y-90600817D01*
X137287365Y-90572245D01*
X137258794Y-90515102D01*
X137258794Y-90400817D01*
X137287365Y-90343674D01*
X137315937Y-90315102D01*
X137373080Y-90286531D01*
X136887365Y-90029388D02*
X136830222Y-90029388D01*
X136773080Y-90057960D01*
X136744508Y-90086531D01*
X136715937Y-90143674D01*
X136687365Y-90257960D01*
X136687365Y-90400817D01*
X136715937Y-90515102D01*
X136744508Y-90572245D01*
X136773080Y-90600817D01*
X136830222Y-90629388D01*
X136887365Y-90629388D01*
X136944508Y-90600817D01*
X136973080Y-90572245D01*
X137001651Y-90515102D01*
X137030222Y-90400817D01*
X137030222Y-90257960D01*
X137001651Y-90143674D01*
X136973080Y-90086531D01*
X136944508Y-90057960D01*
X136887365Y-90029388D01*
X136401651Y-90629388D02*
X136287365Y-90629388D01*
X136230222Y-90600817D01*
X136201651Y-90572245D01*
X136144508Y-90486531D01*
X136115937Y-90372245D01*
X136115937Y-90143674D01*
X136144508Y-90086531D01*
X136173080Y-90057960D01*
X136230222Y-90029388D01*
X136344508Y-90029388D01*
X136401651Y-90057960D01*
X136430222Y-90086531D01*
X136458794Y-90143674D01*
X136458794Y-90286531D01*
X136430222Y-90343674D01*
X136401651Y-90372245D01*
X136344508Y-90400817D01*
X136230222Y-90400817D01*
X136173080Y-90372245D01*
X136144508Y-90343674D01*
X136115937Y-90286531D01*
X135744508Y-90029388D02*
X135687365Y-90029388D01*
X135630222Y-90057960D01*
X135601651Y-90086531D01*
X135573080Y-90143674D01*
X135544508Y-90257960D01*
X135544508Y-90400817D01*
X135573080Y-90515102D01*
X135601651Y-90572245D01*
X135630222Y-90600817D01*
X135687365Y-90629388D01*
X135744508Y-90629388D01*
X135801651Y-90600817D01*
X135830222Y-90572245D01*
X135858794Y-90515102D01*
X135887365Y-90400817D01*
X135887365Y-90257960D01*
X135858794Y-90143674D01*
X135830222Y-90086531D01*
X135801651Y-90057960D01*
X135744508Y-90029388D01*
X135001651Y-90029388D02*
X135287365Y-90029388D01*
X135315937Y-90315102D01*
X135287365Y-90286531D01*
X135230222Y-90257960D01*
X135087365Y-90257960D01*
X135030222Y-90286531D01*
X135001651Y-90315102D01*
X134973080Y-90372245D01*
X134973080Y-90515102D01*
X135001651Y-90572245D01*
X135030222Y-90600817D01*
X135087365Y-90629388D01*
X135230222Y-90629388D01*
X135287365Y-90600817D01*
X135315937Y-90572245D01*
X122734042Y-96520925D02*
X122762614Y-96549497D01*
X122848328Y-96578068D01*
X122905471Y-96578068D01*
X122991185Y-96549497D01*
X123048328Y-96492354D01*
X123076900Y-96435211D01*
X123105471Y-96320925D01*
X123105471Y-96235211D01*
X123076900Y-96120925D01*
X123048328Y-96063782D01*
X122991185Y-96006640D01*
X122905471Y-95978068D01*
X122848328Y-95978068D01*
X122762614Y-96006640D01*
X122734042Y-96035211D01*
X122134042Y-96520925D02*
X122162614Y-96549497D01*
X122248328Y-96578068D01*
X122305471Y-96578068D01*
X122391185Y-96549497D01*
X122448328Y-96492354D01*
X122476900Y-96435211D01*
X122505471Y-96320925D01*
X122505471Y-96235211D01*
X122476900Y-96120925D01*
X122448328Y-96063782D01*
X122391185Y-96006640D01*
X122305471Y-95978068D01*
X122248328Y-95978068D01*
X122162614Y-96006640D01*
X122134042Y-96035211D01*
X121219757Y-96263782D02*
X121134042Y-96292354D01*
X121105471Y-96320925D01*
X121076900Y-96378068D01*
X121076900Y-96463782D01*
X121105471Y-96520925D01*
X121134042Y-96549497D01*
X121191185Y-96578068D01*
X121419757Y-96578068D01*
X121419757Y-95978068D01*
X121219757Y-95978068D01*
X121162614Y-96006640D01*
X121134042Y-96035211D01*
X121105471Y-96092354D01*
X121105471Y-96149497D01*
X121134042Y-96206640D01*
X121162614Y-96235211D01*
X121219757Y-96263782D01*
X121419757Y-96263782D01*
X120705471Y-96292354D02*
X120705471Y-96578068D01*
X120905471Y-95978068D02*
X120705471Y-96292354D01*
X120505471Y-95978068D01*
X120305471Y-96349497D02*
X119848328Y-96349497D01*
X119591185Y-96549497D02*
X119505471Y-96578068D01*
X119362614Y-96578068D01*
X119305471Y-96549497D01*
X119276900Y-96520925D01*
X119248328Y-96463782D01*
X119248328Y-96406640D01*
X119276900Y-96349497D01*
X119305471Y-96320925D01*
X119362614Y-96292354D01*
X119476900Y-96263782D01*
X119534042Y-96235211D01*
X119562614Y-96206640D01*
X119591185Y-96149497D01*
X119591185Y-96092354D01*
X119562614Y-96035211D01*
X119534042Y-96006640D01*
X119476900Y-95978068D01*
X119334042Y-95978068D01*
X119248328Y-96006640D01*
X119019757Y-96406640D02*
X118734042Y-96406640D01*
X119076900Y-96578068D02*
X118876900Y-95978068D01*
X118676900Y-96578068D01*
X117762614Y-96178068D02*
X117762614Y-96578068D01*
X117905471Y-95949497D02*
X118048328Y-96378068D01*
X117676900Y-96378068D01*
X117448328Y-96520925D02*
X117419757Y-96549497D01*
X117448328Y-96578068D01*
X117476900Y-96549497D01*
X117448328Y-96520925D01*
X117448328Y-96578068D01*
X117048328Y-95978068D02*
X116991185Y-95978068D01*
X116934042Y-96006640D01*
X116905471Y-96035211D01*
X116876900Y-96092354D01*
X116848328Y-96206640D01*
X116848328Y-96349497D01*
X116876900Y-96463782D01*
X116905471Y-96520925D01*
X116934042Y-96549497D01*
X116991185Y-96578068D01*
X117048328Y-96578068D01*
X117105471Y-96549497D01*
X117134042Y-96520925D01*
X117162614Y-96463782D01*
X117191185Y-96349497D01*
X117191185Y-96206640D01*
X117162614Y-96092354D01*
X117134042Y-96035211D01*
X117105471Y-96006640D01*
X117048328Y-95978068D01*
X122034997Y-87246782D02*
X121949282Y-87275354D01*
X121920711Y-87303925D01*
X121892140Y-87361068D01*
X121892140Y-87446782D01*
X121920711Y-87503925D01*
X121949282Y-87532497D01*
X122006425Y-87561068D01*
X122234997Y-87561068D01*
X122234997Y-86961068D01*
X122034997Y-86961068D01*
X121977854Y-86989640D01*
X121949282Y-87018211D01*
X121920711Y-87075354D01*
X121920711Y-87132497D01*
X121949282Y-87189640D01*
X121977854Y-87218211D01*
X122034997Y-87246782D01*
X122234997Y-87246782D01*
X121663568Y-87389640D02*
X121377854Y-87389640D01*
X121720711Y-87561068D02*
X121520711Y-86961068D01*
X121320711Y-87561068D01*
X120777854Y-87503925D02*
X120806425Y-87532497D01*
X120892140Y-87561068D01*
X120949282Y-87561068D01*
X121034997Y-87532497D01*
X121092140Y-87475354D01*
X121120711Y-87418211D01*
X121149282Y-87303925D01*
X121149282Y-87218211D01*
X121120711Y-87103925D01*
X121092140Y-87046782D01*
X121034997Y-86989640D01*
X120949282Y-86961068D01*
X120892140Y-86961068D01*
X120806425Y-86989640D01*
X120777854Y-87018211D01*
X120520711Y-87561068D02*
X120520711Y-86961068D01*
X120177854Y-87561068D02*
X120434997Y-87218211D01*
X120177854Y-86961068D02*
X120520711Y-87303925D01*
X119492140Y-87532497D02*
X119406425Y-87561068D01*
X119263568Y-87561068D01*
X119206425Y-87532497D01*
X119177854Y-87503925D01*
X119149282Y-87446782D01*
X119149282Y-87389640D01*
X119177854Y-87332497D01*
X119206425Y-87303925D01*
X119263568Y-87275354D01*
X119377854Y-87246782D01*
X119434997Y-87218211D01*
X119463568Y-87189640D01*
X119492140Y-87132497D01*
X119492140Y-87075354D01*
X119463568Y-87018211D01*
X119434997Y-86989640D01*
X119377854Y-86961068D01*
X119234997Y-86961068D01*
X119149282Y-86989640D01*
X118892140Y-87561068D02*
X118892140Y-86961068D01*
X118606425Y-87561068D02*
X118606425Y-86961068D01*
X118463568Y-86961068D01*
X118377854Y-86989640D01*
X118320711Y-87046782D01*
X118292140Y-87103925D01*
X118263568Y-87218211D01*
X118263568Y-87303925D01*
X118292140Y-87418211D01*
X118320711Y-87475354D01*
X118377854Y-87532497D01*
X118463568Y-87561068D01*
X118606425Y-87561068D01*
X118006425Y-87246782D02*
X117806425Y-87246782D01*
X117720711Y-87561068D02*
X118006425Y-87561068D01*
X118006425Y-86961068D01*
X117720711Y-86961068D01*
X136918685Y-97425868D02*
X137204400Y-97425868D01*
X137232971Y-97711582D01*
X137204400Y-97683011D01*
X137147257Y-97654440D01*
X137004400Y-97654440D01*
X136947257Y-97683011D01*
X136918685Y-97711582D01*
X136890114Y-97768725D01*
X136890114Y-97911582D01*
X136918685Y-97968725D01*
X136947257Y-97997297D01*
X137004400Y-98025868D01*
X137147257Y-98025868D01*
X137204400Y-97997297D01*
X137232971Y-97968725D01*
X136718685Y-97425868D02*
X136518685Y-98025868D01*
X136318685Y-97425868D01*
X134730748Y-97625868D02*
X134302177Y-97625868D01*
X134559320Y-97368725D02*
X134730748Y-98140154D01*
X134359320Y-97883011D02*
X134787891Y-97883011D01*
X134530748Y-98140154D02*
X134359320Y-97368725D01*
X134130748Y-97483011D02*
X134102177Y-97454440D01*
X134045034Y-97425868D01*
X133902177Y-97425868D01*
X133845034Y-97454440D01*
X133816462Y-97483011D01*
X133787891Y-97540154D01*
X133787891Y-97597297D01*
X133816462Y-97683011D01*
X134159320Y-98025868D01*
X133787891Y-98025868D01*
X132205988Y-97625868D02*
X131777417Y-97625868D01*
X132034560Y-97368725D02*
X132205988Y-98140154D01*
X131834560Y-97883011D02*
X132263131Y-97883011D01*
X132005988Y-98140154D02*
X131834560Y-97368725D01*
X131263131Y-98025868D02*
X131605988Y-98025868D01*
X131434560Y-98025868D02*
X131434560Y-97425868D01*
X131491702Y-97511582D01*
X131548845Y-97568725D01*
X131605988Y-97597297D01*
X129640588Y-97625868D02*
X129212017Y-97625868D01*
X129469160Y-97368725D02*
X129640588Y-98140154D01*
X129269160Y-97883011D02*
X129697731Y-97883011D01*
X129440588Y-98140154D02*
X129269160Y-97368725D01*
X128897731Y-97425868D02*
X128840588Y-97425868D01*
X128783445Y-97454440D01*
X128754874Y-97483011D01*
X128726302Y-97540154D01*
X128697731Y-97654440D01*
X128697731Y-97797297D01*
X128726302Y-97911582D01*
X128754874Y-97968725D01*
X128783445Y-97997297D01*
X128840588Y-98025868D01*
X128897731Y-98025868D01*
X128954874Y-97997297D01*
X128983445Y-97968725D01*
X129012017Y-97911582D01*
X129040588Y-97797297D01*
X129040588Y-97654440D01*
X129012017Y-97540154D01*
X128983445Y-97483011D01*
X128954874Y-97454440D01*
X128897731Y-97425868D01*
X127648511Y-97425868D02*
X127648511Y-97911582D01*
X127619940Y-97968725D01*
X127591368Y-97997297D01*
X127534225Y-98025868D01*
X127419940Y-98025868D01*
X127362797Y-97997297D01*
X127334225Y-97968725D01*
X127305654Y-97911582D01*
X127305654Y-97425868D01*
X127048511Y-97997297D02*
X126962797Y-98025868D01*
X126819940Y-98025868D01*
X126762797Y-97997297D01*
X126734225Y-97968725D01*
X126705654Y-97911582D01*
X126705654Y-97854440D01*
X126734225Y-97797297D01*
X126762797Y-97768725D01*
X126819940Y-97740154D01*
X126934225Y-97711582D01*
X126991368Y-97683011D01*
X127019940Y-97654440D01*
X127048511Y-97597297D01*
X127048511Y-97540154D01*
X127019940Y-97483011D01*
X126991368Y-97454440D01*
X126934225Y-97425868D01*
X126791368Y-97425868D01*
X126705654Y-97454440D01*
X126248511Y-97711582D02*
X126162797Y-97740154D01*
X126134225Y-97768725D01*
X126105654Y-97825868D01*
X126105654Y-97911582D01*
X126134225Y-97968725D01*
X126162797Y-97997297D01*
X126219940Y-98025868D01*
X126448511Y-98025868D01*
X126448511Y-97425868D01*
X126248511Y-97425868D01*
X126191368Y-97454440D01*
X126162797Y-97483011D01*
X126134225Y-97540154D01*
X126134225Y-97597297D01*
X126162797Y-97654440D01*
X126191368Y-97683011D01*
X126248511Y-97711582D01*
X126448511Y-97711582D01*
X125848511Y-97797297D02*
X125391368Y-97797297D01*
X125619940Y-98025868D02*
X125619940Y-97568725D01*
X137112651Y-89422888D02*
X137312651Y-89137174D01*
X137455508Y-89422888D02*
X137455508Y-88822888D01*
X137226937Y-88822888D01*
X137169794Y-88851460D01*
X137141222Y-88880031D01*
X137112651Y-88937174D01*
X137112651Y-89022888D01*
X137141222Y-89080031D01*
X137169794Y-89108602D01*
X137226937Y-89137174D01*
X137455508Y-89137174D01*
X136884080Y-89394317D02*
X136798365Y-89422888D01*
X136655508Y-89422888D01*
X136598365Y-89394317D01*
X136569794Y-89365745D01*
X136541222Y-89308602D01*
X136541222Y-89251460D01*
X136569794Y-89194317D01*
X136598365Y-89165745D01*
X136655508Y-89137174D01*
X136769794Y-89108602D01*
X136826937Y-89080031D01*
X136855508Y-89051460D01*
X136884080Y-88994317D01*
X136884080Y-88937174D01*
X136855508Y-88880031D01*
X136826937Y-88851460D01*
X136769794Y-88822888D01*
X136626937Y-88822888D01*
X136541222Y-88851460D01*
X136369794Y-88822888D02*
X136026937Y-88822888D01*
X136198365Y-89422888D02*
X136198365Y-88822888D01*
X134730748Y-89022888D02*
X134302177Y-89022888D01*
X134559320Y-88765745D02*
X134730748Y-89537174D01*
X134359320Y-89280031D02*
X134787891Y-89280031D01*
X134530748Y-89537174D02*
X134359320Y-88765745D01*
X134159320Y-88822888D02*
X133787891Y-88822888D01*
X133987891Y-89051460D01*
X133902177Y-89051460D01*
X133845034Y-89080031D01*
X133816462Y-89108602D01*
X133787891Y-89165745D01*
X133787891Y-89308602D01*
X133816462Y-89365745D01*
X133845034Y-89394317D01*
X133902177Y-89422888D01*
X134073605Y-89422888D01*
X134130748Y-89394317D01*
X134159320Y-89365745D01*
X129478982Y-88851460D02*
X129536125Y-88822888D01*
X129621840Y-88822888D01*
X129707554Y-88851460D01*
X129764697Y-88908602D01*
X129793268Y-88965745D01*
X129821840Y-89080031D01*
X129821840Y-89165745D01*
X129793268Y-89280031D01*
X129764697Y-89337174D01*
X129707554Y-89394317D01*
X129621840Y-89422888D01*
X129564697Y-89422888D01*
X129478982Y-89394317D01*
X129450411Y-89365745D01*
X129450411Y-89165745D01*
X129564697Y-89165745D01*
X129193268Y-89422888D02*
X129193268Y-88822888D01*
X128850411Y-89422888D01*
X128850411Y-88822888D01*
X128564697Y-89422888D02*
X128564697Y-88822888D01*
X128421840Y-88822888D01*
X128336125Y-88851460D01*
X128278982Y-88908602D01*
X128250411Y-88965745D01*
X128221840Y-89080031D01*
X128221840Y-89165745D01*
X128250411Y-89280031D01*
X128278982Y-89337174D01*
X128336125Y-89394317D01*
X128421840Y-89422888D01*
X128564697Y-89422888D01*
X127334225Y-89088282D02*
X127248511Y-89116854D01*
X127219940Y-89145425D01*
X127191368Y-89202568D01*
X127191368Y-89288282D01*
X127219940Y-89345425D01*
X127248511Y-89373997D01*
X127305654Y-89402568D01*
X127534225Y-89402568D01*
X127534225Y-88802568D01*
X127334225Y-88802568D01*
X127277082Y-88831140D01*
X127248511Y-88859711D01*
X127219940Y-88916854D01*
X127219940Y-88973997D01*
X127248511Y-89031140D01*
X127277082Y-89059711D01*
X127334225Y-89088282D01*
X127534225Y-89088282D01*
X126962797Y-89231140D02*
X126677082Y-89231140D01*
X127019940Y-89402568D02*
X126819940Y-88802568D01*
X126619940Y-89402568D01*
X126505654Y-88802568D02*
X126162797Y-88802568D01*
X126334225Y-89402568D02*
X126334225Y-88802568D01*
X125962797Y-89173997D02*
X125505654Y-89173997D01*
X125734225Y-89402568D02*
X125734225Y-88945425D01*
X132142488Y-89022888D02*
X131713917Y-89022888D01*
X131971060Y-88765745D02*
X132142488Y-89537174D01*
X131771060Y-89280031D02*
X132199631Y-89280031D01*
X131942488Y-89537174D02*
X131771060Y-88765745D01*
X131256774Y-89022888D02*
X131256774Y-89422888D01*
X131399631Y-88794317D02*
X131542488Y-89222888D01*
X131171060Y-89222888D01*
X127908968Y-90588825D02*
X127594682Y-90588825D01*
X127537540Y-90560254D01*
X127508968Y-90503111D01*
X127508968Y-90388825D01*
X127537540Y-90331682D01*
X127880397Y-90588825D02*
X127908968Y-90531682D01*
X127908968Y-90388825D01*
X127880397Y-90331682D01*
X127823254Y-90303111D01*
X127766111Y-90303111D01*
X127708968Y-90331682D01*
X127680397Y-90388825D01*
X127680397Y-90531682D01*
X127651825Y-90588825D01*
X127508968Y-90788825D02*
X127508968Y-91017397D01*
X127308968Y-90874540D02*
X127823254Y-90874540D01*
X127880397Y-90903111D01*
X127908968Y-90960254D01*
X127908968Y-91017397D01*
X127508968Y-91131682D02*
X127508968Y-91360254D01*
X127308968Y-91217397D02*
X127823254Y-91217397D01*
X127880397Y-91245968D01*
X127908968Y-91303111D01*
X127908968Y-91360254D01*
X127908968Y-91560254D02*
X127508968Y-91560254D01*
X127308968Y-91560254D02*
X127337540Y-91531682D01*
X127366111Y-91560254D01*
X127337540Y-91588825D01*
X127308968Y-91560254D01*
X127366111Y-91560254D01*
X127508968Y-91845968D02*
X127908968Y-91845968D01*
X127566111Y-91845968D02*
X127537540Y-91874540D01*
X127508968Y-91931682D01*
X127508968Y-92017397D01*
X127537540Y-92074540D01*
X127594682Y-92103111D01*
X127908968Y-92103111D01*
X127508968Y-92331682D02*
X127908968Y-92474540D01*
X127508968Y-92617397D02*
X127908968Y-92474540D01*
X128051825Y-92417397D01*
X128080397Y-92388825D01*
X128108968Y-92331682D01*
X127508968Y-93103111D02*
X127908968Y-93103111D01*
X127508968Y-92845968D02*
X127823254Y-92845968D01*
X127880397Y-92874540D01*
X127908968Y-92931682D01*
X127908968Y-93017397D01*
X127880397Y-93074540D01*
X127851825Y-93103111D01*
X127908968Y-93388825D02*
X127508968Y-93388825D01*
X127308968Y-93388825D02*
X127337540Y-93360254D01*
X127366111Y-93388825D01*
X127337540Y-93417397D01*
X127308968Y-93388825D01*
X127366111Y-93388825D01*
X127508968Y-93674540D02*
X127908968Y-93674540D01*
X127566111Y-93674540D02*
X127537540Y-93703111D01*
X127508968Y-93760254D01*
X127508968Y-93845968D01*
X127537540Y-93903111D01*
X127594682Y-93931682D01*
X127908968Y-93931682D01*
X127908968Y-94303111D02*
X127880397Y-94245968D01*
X127851825Y-94217397D01*
X127794682Y-94188825D01*
X127623254Y-94188825D01*
X127566111Y-94217397D01*
X127537540Y-94245968D01*
X127508968Y-94303111D01*
X127508968Y-94388825D01*
X127537540Y-94445968D01*
X127566111Y-94474540D01*
X127623254Y-94503111D01*
X127794682Y-94503111D01*
X127851825Y-94474540D01*
X127880397Y-94445968D01*
X127908968Y-94388825D01*
X127908968Y-94303111D01*
X127851825Y-94760254D02*
X127880397Y-94788825D01*
X127908968Y-94760254D01*
X127880397Y-94731682D01*
X127851825Y-94760254D01*
X127908968Y-94760254D01*
X127880397Y-95303111D02*
X127908968Y-95245968D01*
X127908968Y-95131682D01*
X127880397Y-95074540D01*
X127851825Y-95045968D01*
X127794682Y-95017397D01*
X127623254Y-95017397D01*
X127566111Y-95045968D01*
X127537540Y-95074540D01*
X127508968Y-95131682D01*
X127508968Y-95245968D01*
X127537540Y-95303111D01*
X127908968Y-95645968D02*
X127880397Y-95588825D01*
X127851825Y-95560254D01*
X127794682Y-95531682D01*
X127623254Y-95531682D01*
X127566111Y-95560254D01*
X127537540Y-95588825D01*
X127508968Y-95645968D01*
X127508968Y-95731682D01*
X127537540Y-95788825D01*
X127566111Y-95817397D01*
X127623254Y-95845968D01*
X127794682Y-95845968D01*
X127851825Y-95817397D01*
X127880397Y-95788825D01*
X127908968Y-95731682D01*
X127908968Y-95645968D01*
X127908968Y-96103111D02*
X127508968Y-96103111D01*
X127566111Y-96103111D02*
X127537540Y-96131682D01*
X127508968Y-96188825D01*
X127508968Y-96274540D01*
X127537540Y-96331682D01*
X127594682Y-96360254D01*
X127908968Y-96360254D01*
X127594682Y-96360254D02*
X127537540Y-96388825D01*
X127508968Y-96445968D01*
X127508968Y-96531682D01*
X127537540Y-96588825D01*
X127594682Y-96617397D01*
X127908968Y-96617397D01*
X142581300Y-91177728D02*
X142581300Y-91463442D01*
X142752728Y-91120585D02*
X142152728Y-91320585D01*
X142752728Y-91520585D01*
X142152728Y-91634871D02*
X142152728Y-91977728D01*
X142752728Y-91806300D02*
X142152728Y-91806300D01*
X142152728Y-92092014D02*
X142152728Y-92434871D01*
X142752728Y-92263442D02*
X142152728Y-92263442D01*
X142752728Y-92634871D02*
X142352728Y-92634871D01*
X142152728Y-92634871D02*
X142181300Y-92606300D01*
X142209871Y-92634871D01*
X142181300Y-92663442D01*
X142152728Y-92634871D01*
X142209871Y-92634871D01*
X142352728Y-92920585D02*
X142752728Y-92920585D01*
X142409871Y-92920585D02*
X142381300Y-92949157D01*
X142352728Y-93006300D01*
X142352728Y-93092014D01*
X142381300Y-93149157D01*
X142438442Y-93177728D01*
X142752728Y-93177728D01*
X142352728Y-93406300D02*
X142752728Y-93549157D01*
X142352728Y-93692014D02*
X142752728Y-93549157D01*
X142895585Y-93492014D01*
X142924157Y-93463442D01*
X142952728Y-93406300D01*
X142152728Y-93920585D02*
X142638442Y-93920585D01*
X142695585Y-93949157D01*
X142724157Y-93977728D01*
X142752728Y-94034871D01*
X142752728Y-94149157D01*
X142724157Y-94206300D01*
X142695585Y-94234871D01*
X142638442Y-94263442D01*
X142152728Y-94263442D01*
X142752728Y-94549157D02*
X142152728Y-94549157D01*
X142752728Y-94834871D02*
X142152728Y-94834871D01*
X142752728Y-95177728D01*
X142152728Y-95177728D01*
X142152728Y-95577728D02*
X142152728Y-95692014D01*
X142181300Y-95749157D01*
X142238442Y-95806300D01*
X142352728Y-95834871D01*
X142552728Y-95834871D01*
X142667014Y-95806300D01*
X142724157Y-95749157D01*
X142752728Y-95692014D01*
X142752728Y-95577728D01*
X142724157Y-95520585D01*
X142667014Y-95463442D01*
X142552728Y-95434871D01*
X142352728Y-95434871D01*
X142238442Y-95463442D01*
X142181300Y-95520585D01*
X142152728Y-95577728D01*
X120577854Y-98030108D02*
X120577854Y-97430108D01*
X120577854Y-97658680D02*
X120520711Y-97630108D01*
X120406425Y-97630108D01*
X120349282Y-97658680D01*
X120320711Y-97687251D01*
X120292140Y-97744394D01*
X120292140Y-97915822D01*
X120320711Y-97972965D01*
X120349282Y-98001537D01*
X120406425Y-98030108D01*
X120520711Y-98030108D01*
X120577854Y-98001537D01*
X120092140Y-97630108D02*
X119949282Y-98030108D01*
X119806425Y-97630108D02*
X119949282Y-98030108D01*
X120006425Y-98172965D01*
X120034997Y-98201537D01*
X120092140Y-98230108D01*
X121463568Y-98742822D02*
X121263568Y-98742822D01*
X121177854Y-99057108D02*
X121463568Y-99057108D01*
X121463568Y-98457108D01*
X121177854Y-98457108D01*
X120834997Y-99057108D02*
X120892140Y-99028537D01*
X120920711Y-98971394D01*
X120920711Y-98457108D01*
X120349282Y-99057108D02*
X120349282Y-98742822D01*
X120377854Y-98685680D01*
X120434997Y-98657108D01*
X120549282Y-98657108D01*
X120606425Y-98685680D01*
X120349282Y-99028537D02*
X120406425Y-99057108D01*
X120549282Y-99057108D01*
X120606425Y-99028537D01*
X120634997Y-98971394D01*
X120634997Y-98914251D01*
X120606425Y-98857108D01*
X120549282Y-98828537D01*
X120406425Y-98828537D01*
X120349282Y-98799965D01*
X119806425Y-99057108D02*
X119806425Y-98457108D01*
X119806425Y-99028537D02*
X119863568Y-99057108D01*
X119977854Y-99057108D01*
X120034997Y-99028537D01*
X120063568Y-98999965D01*
X120092140Y-98942822D01*
X120092140Y-98771394D01*
X120063568Y-98714251D01*
X120034997Y-98685680D01*
X119977854Y-98657108D01*
X119863568Y-98657108D01*
X119806425Y-98685680D01*
X119520711Y-99057108D02*
X119520711Y-98657108D01*
X119520711Y-98457108D02*
X119549282Y-98485680D01*
X119520711Y-98514251D01*
X119492140Y-98485680D01*
X119520711Y-98457108D01*
X119520711Y-98514251D01*
X119149282Y-99057108D02*
X119206425Y-99028537D01*
X119234997Y-98999965D01*
X119263568Y-98942822D01*
X119263568Y-98771394D01*
X119234997Y-98714251D01*
X119206425Y-98685680D01*
X119149282Y-98657108D01*
X119063568Y-98657108D01*
X119006425Y-98685680D01*
X118977854Y-98714251D01*
X118949282Y-98771394D01*
X118949282Y-98942822D01*
X118977854Y-98999965D01*
X119006425Y-99028537D01*
X119063568Y-99057108D01*
X119149282Y-99057108D01*
X121734997Y-100084108D02*
X121734997Y-99484108D01*
X121534997Y-99912680D01*
X121334997Y-99484108D01*
X121334997Y-100084108D01*
X120792140Y-100084108D02*
X120792140Y-99769822D01*
X120820711Y-99712680D01*
X120877854Y-99684108D01*
X120992140Y-99684108D01*
X121049282Y-99712680D01*
X120792140Y-100055537D02*
X120849282Y-100084108D01*
X120992140Y-100084108D01*
X121049282Y-100055537D01*
X121077854Y-99998394D01*
X121077854Y-99941251D01*
X121049282Y-99884108D01*
X120992140Y-99855537D01*
X120849282Y-99855537D01*
X120792140Y-99826965D01*
X120506425Y-100084108D02*
X120506425Y-99684108D01*
X120506425Y-99798394D02*
X120477854Y-99741251D01*
X120449282Y-99712680D01*
X120392140Y-99684108D01*
X120334997Y-99684108D01*
X120220711Y-99684108D02*
X119992140Y-99684108D01*
X120134997Y-99484108D02*
X120134997Y-99998394D01*
X120106425Y-100055537D01*
X120049282Y-100084108D01*
X119992140Y-100084108D01*
X119792140Y-100084108D02*
X119792140Y-99684108D01*
X119792140Y-99484108D02*
X119820711Y-99512680D01*
X119792140Y-99541251D01*
X119763568Y-99512680D01*
X119792140Y-99484108D01*
X119792140Y-99541251D01*
X119506425Y-99684108D02*
X119506425Y-100084108D01*
X119506425Y-99741251D02*
X119477854Y-99712680D01*
X119420711Y-99684108D01*
X119334997Y-99684108D01*
X119277854Y-99712680D01*
X119249282Y-99769822D01*
X119249282Y-100084108D01*
X118734997Y-100055537D02*
X118792140Y-100084108D01*
X118906425Y-100084108D01*
X118963568Y-100055537D01*
X118992140Y-99998394D01*
X118992140Y-99769822D01*
X118963568Y-99712680D01*
X118906425Y-99684108D01*
X118792140Y-99684108D01*
X118734997Y-99712680D01*
X118706425Y-99769822D01*
X118706425Y-99826965D01*
X118992140Y-99884108D01*
X118506425Y-99684108D02*
X118192140Y-99684108D01*
X118506425Y-100084108D01*
X118192140Y-100084108D01*
D11*
G04 #@! TO.C,REF01*
G36*
X119599936Y-89220238D02*
X119543088Y-89521790D01*
X119123562Y-89694732D01*
X118871916Y-89523615D01*
X118801442Y-89475970D01*
X118737737Y-89433430D01*
X118683774Y-89397935D01*
X118642527Y-89371430D01*
X118616966Y-89355856D01*
X118610005Y-89352498D01*
X118597465Y-89361134D01*
X118570669Y-89385012D01*
X118532620Y-89421079D01*
X118486321Y-89466287D01*
X118434777Y-89517584D01*
X118380991Y-89571921D01*
X118327965Y-89626248D01*
X118278705Y-89677515D01*
X118236213Y-89722671D01*
X118203493Y-89758666D01*
X118183549Y-89782450D01*
X118178781Y-89790410D01*
X118185643Y-89805085D01*
X118204880Y-89837234D01*
X118234470Y-89883712D01*
X118272390Y-89941376D01*
X118316618Y-90007080D01*
X118342246Y-90044556D01*
X118388959Y-90112988D01*
X118430468Y-90174740D01*
X118464760Y-90226739D01*
X118489820Y-90265912D01*
X118503636Y-90289185D01*
X118505712Y-90294075D01*
X118501005Y-90307975D01*
X118488177Y-90340370D01*
X118469162Y-90386705D01*
X118445897Y-90442426D01*
X118420316Y-90502978D01*
X118394355Y-90563806D01*
X118369950Y-90620356D01*
X118349037Y-90668072D01*
X118333551Y-90702401D01*
X118325428Y-90718788D01*
X118324948Y-90719432D01*
X118312193Y-90722561D01*
X118278223Y-90729541D01*
X118226560Y-90739687D01*
X118160724Y-90752312D01*
X118084236Y-90766729D01*
X118039610Y-90775043D01*
X117957879Y-90790604D01*
X117884057Y-90805412D01*
X117821879Y-90818656D01*
X117775078Y-90829525D01*
X117747391Y-90837209D01*
X117741826Y-90839647D01*
X117736374Y-90856150D01*
X117731976Y-90893420D01*
X117728628Y-90947100D01*
X117726326Y-91012832D01*
X117725068Y-91086257D01*
X117724852Y-91163016D01*
X117725673Y-91238752D01*
X117727529Y-91309106D01*
X117730418Y-91369720D01*
X117734335Y-91416236D01*
X117739278Y-91444295D01*
X117742243Y-91450136D01*
X117759966Y-91457137D01*
X117797519Y-91467147D01*
X117849936Y-91478989D01*
X117912248Y-91491487D01*
X117934000Y-91495530D01*
X118038876Y-91514740D01*
X118121720Y-91530211D01*
X118185270Y-91542557D01*
X118232263Y-91552393D01*
X118265437Y-91560334D01*
X118287529Y-91566996D01*
X118301276Y-91572993D01*
X118309416Y-91578939D01*
X118310555Y-91580114D01*
X118321923Y-91599046D01*
X118339265Y-91635889D01*
X118360850Y-91686133D01*
X118384946Y-91745266D01*
X118409821Y-91808776D01*
X118433743Y-91872152D01*
X118454981Y-91930882D01*
X118471803Y-91980455D01*
X118482478Y-92016359D01*
X118485273Y-92034082D01*
X118485040Y-92034703D01*
X118475569Y-92049190D01*
X118454082Y-92081064D01*
X118422837Y-92127009D01*
X118384093Y-92183705D01*
X118340107Y-92247837D01*
X118327581Y-92266062D01*
X118282916Y-92332134D01*
X118243612Y-92392420D01*
X118211812Y-92443455D01*
X118189655Y-92481780D01*
X118179283Y-92503931D01*
X118178781Y-92506652D01*
X118187495Y-92520956D01*
X118211575Y-92549292D01*
X118247924Y-92588616D01*
X118293447Y-92635881D01*
X118345048Y-92688043D01*
X118399633Y-92742055D01*
X118454106Y-92794873D01*
X118505371Y-92843451D01*
X118550333Y-92884743D01*
X118585896Y-92915705D01*
X118608965Y-92933290D01*
X118615346Y-92936161D01*
X118630201Y-92929398D01*
X118660614Y-92911159D01*
X118701632Y-92884517D01*
X118733191Y-92863072D01*
X118790375Y-92823723D01*
X118858094Y-92777391D01*
X118926020Y-92731133D01*
X118962539Y-92706375D01*
X119086148Y-92622767D01*
X119189909Y-92678870D01*
X119237180Y-92703448D01*
X119277377Y-92722551D01*
X119304574Y-92733447D01*
X119311498Y-92734963D01*
X119319823Y-92723769D01*
X119336246Y-92692137D01*
X119359543Y-92642985D01*
X119388486Y-92579230D01*
X119421850Y-92503791D01*
X119458409Y-92419584D01*
X119496936Y-92329528D01*
X119536206Y-92236541D01*
X119574992Y-92143540D01*
X119612070Y-92053443D01*
X119646211Y-91969168D01*
X119676192Y-91893633D01*
X119700784Y-91829754D01*
X119718764Y-91780451D01*
X119728903Y-91748641D01*
X119730534Y-91737716D01*
X119717609Y-91723781D01*
X119689311Y-91701160D01*
X119651554Y-91674553D01*
X119648385Y-91672448D01*
X119550800Y-91594334D01*
X119472114Y-91503202D01*
X119413009Y-91401965D01*
X119374168Y-91293538D01*
X119356272Y-91180834D01*
X119360003Y-91066768D01*
X119386043Y-90954254D01*
X119435075Y-90846205D01*
X119449500Y-90822565D01*
X119524531Y-90727107D01*
X119613170Y-90650452D01*
X119712351Y-90593000D01*
X119819005Y-90555149D01*
X119930064Y-90537298D01*
X120042461Y-90539845D01*
X120153127Y-90563190D01*
X120258994Y-90607730D01*
X120356995Y-90673865D01*
X120387310Y-90700707D01*
X120464462Y-90784732D01*
X120520682Y-90873186D01*
X120559247Y-90972335D01*
X120580726Y-91070523D01*
X120586028Y-91180917D01*
X120568348Y-91291860D01*
X120529481Y-91399601D01*
X120471223Y-91500389D01*
X120395369Y-91590476D01*
X120303717Y-91666112D01*
X120291672Y-91674084D01*
X120253511Y-91700194D01*
X120224501Y-91722815D01*
X120210632Y-91737259D01*
X120210431Y-91737716D01*
X120213408Y-91753341D01*
X120225211Y-91788802D01*
X120244614Y-91841182D01*
X120270388Y-91907565D01*
X120301309Y-91985034D01*
X120336149Y-92070670D01*
X120373683Y-92161557D01*
X120412683Y-92254779D01*
X120451923Y-92347417D01*
X120490176Y-92436555D01*
X120526217Y-92519275D01*
X120558817Y-92592661D01*
X120586752Y-92653795D01*
X120608795Y-92699761D01*
X120623718Y-92727641D01*
X120629728Y-92734963D01*
X120648091Y-92729261D01*
X120682452Y-92713969D01*
X120726884Y-92691819D01*
X120751317Y-92678870D01*
X120855078Y-92622767D01*
X120978687Y-92706375D01*
X121041786Y-92749207D01*
X121110870Y-92796342D01*
X121175607Y-92840723D01*
X121208034Y-92863072D01*
X121253641Y-92893697D01*
X121292260Y-92917967D01*
X121318852Y-92932807D01*
X121327490Y-92935944D01*
X121340061Y-92927481D01*
X121367884Y-92903856D01*
X121408261Y-92867522D01*
X121458495Y-92820931D01*
X121515888Y-92766537D01*
X121552186Y-92731612D01*
X121615690Y-92669216D01*
X121670573Y-92613408D01*
X121714614Y-92566574D01*
X121745595Y-92531102D01*
X121761298Y-92509381D01*
X121762805Y-92504972D01*
X121755814Y-92488205D01*
X121736494Y-92454302D01*
X121706991Y-92406696D01*
X121669445Y-92348819D01*
X121626000Y-92284104D01*
X121613645Y-92266062D01*
X121568627Y-92200487D01*
X121528240Y-92141448D01*
X121494740Y-92092262D01*
X121470386Y-92056248D01*
X121457436Y-92036722D01*
X121456185Y-92034703D01*
X121458056Y-92019142D01*
X121467987Y-91984929D01*
X121484247Y-91936575D01*
X121505105Y-91878591D01*
X121528827Y-91815490D01*
X121553684Y-91751783D01*
X121577942Y-91691981D01*
X121599871Y-91640596D01*
X121617738Y-91602139D01*
X121629813Y-91581122D01*
X121630671Y-91580114D01*
X121638054Y-91574108D01*
X121650525Y-91568168D01*
X121670820Y-91561680D01*
X121701678Y-91554029D01*
X121745834Y-91544600D01*
X121806026Y-91532779D01*
X121884993Y-91517949D01*
X121985470Y-91499497D01*
X122007225Y-91495530D01*
X122071702Y-91483073D01*
X122127911Y-91470886D01*
X122170887Y-91460146D01*
X122195660Y-91452029D01*
X122198982Y-91450136D01*
X122204456Y-91433358D01*
X122208906Y-91395865D01*
X122212328Y-91342014D01*
X122214719Y-91276164D01*
X122216077Y-91202673D01*
X122216399Y-91125900D01*
X122215681Y-91050203D01*
X122213921Y-90979940D01*
X122211116Y-90919470D01*
X122207262Y-90873150D01*
X122202357Y-90845339D01*
X122199400Y-90839647D01*
X122182937Y-90833906D01*
X122145451Y-90824565D01*
X122090675Y-90812435D01*
X122022345Y-90798327D01*
X121944194Y-90783050D01*
X121901616Y-90775043D01*
X121820829Y-90759941D01*
X121748787Y-90746260D01*
X121689011Y-90734687D01*
X121645021Y-90725907D01*
X121620339Y-90720607D01*
X121616277Y-90719432D01*
X121609411Y-90706185D01*
X121594898Y-90674277D01*
X121574671Y-90628267D01*
X121550666Y-90572712D01*
X121524818Y-90512173D01*
X121499060Y-90451206D01*
X121475327Y-90394371D01*
X121455554Y-90346226D01*
X121441676Y-90311330D01*
X121435626Y-90294241D01*
X121435514Y-90293494D01*
X121442372Y-90280013D01*
X121461598Y-90248990D01*
X121491172Y-90203509D01*
X121529073Y-90146652D01*
X121573280Y-90081503D01*
X121598979Y-90044082D01*
X121645807Y-89975467D01*
X121687399Y-89913172D01*
X121721725Y-89860349D01*
X121746757Y-89820147D01*
X121760465Y-89795720D01*
X121762444Y-89790244D01*
X121753934Y-89777498D01*
X121730407Y-89750283D01*
X121694868Y-89711648D01*
X121650323Y-89664643D01*
X121599777Y-89612315D01*
X121546236Y-89557715D01*
X121492705Y-89503890D01*
X121442189Y-89453890D01*
X121397694Y-89410763D01*
X121362225Y-89377559D01*
X121338787Y-89357326D01*
X121330946Y-89352498D01*
X121318180Y-89359287D01*
X121287644Y-89378362D01*
X121242310Y-89407781D01*
X121185144Y-89445601D01*
X121119116Y-89489881D01*
X121069310Y-89523615D01*
X120817664Y-89694732D01*
X120607901Y-89608261D01*
X120398137Y-89521790D01*
X120341289Y-89220238D01*
X120284440Y-88918686D01*
X119656785Y-88918686D01*
X119599936Y-89220238D01*
X119599936Y-89220238D01*
G37*
X119599936Y-89220238D02*
X119543088Y-89521790D01*
X119123562Y-89694732D01*
X118871916Y-89523615D01*
X118801442Y-89475970D01*
X118737737Y-89433430D01*
X118683774Y-89397935D01*
X118642527Y-89371430D01*
X118616966Y-89355856D01*
X118610005Y-89352498D01*
X118597465Y-89361134D01*
X118570669Y-89385012D01*
X118532620Y-89421079D01*
X118486321Y-89466287D01*
X118434777Y-89517584D01*
X118380991Y-89571921D01*
X118327965Y-89626248D01*
X118278705Y-89677515D01*
X118236213Y-89722671D01*
X118203493Y-89758666D01*
X118183549Y-89782450D01*
X118178781Y-89790410D01*
X118185643Y-89805085D01*
X118204880Y-89837234D01*
X118234470Y-89883712D01*
X118272390Y-89941376D01*
X118316618Y-90007080D01*
X118342246Y-90044556D01*
X118388959Y-90112988D01*
X118430468Y-90174740D01*
X118464760Y-90226739D01*
X118489820Y-90265912D01*
X118503636Y-90289185D01*
X118505712Y-90294075D01*
X118501005Y-90307975D01*
X118488177Y-90340370D01*
X118469162Y-90386705D01*
X118445897Y-90442426D01*
X118420316Y-90502978D01*
X118394355Y-90563806D01*
X118369950Y-90620356D01*
X118349037Y-90668072D01*
X118333551Y-90702401D01*
X118325428Y-90718788D01*
X118324948Y-90719432D01*
X118312193Y-90722561D01*
X118278223Y-90729541D01*
X118226560Y-90739687D01*
X118160724Y-90752312D01*
X118084236Y-90766729D01*
X118039610Y-90775043D01*
X117957879Y-90790604D01*
X117884057Y-90805412D01*
X117821879Y-90818656D01*
X117775078Y-90829525D01*
X117747391Y-90837209D01*
X117741826Y-90839647D01*
X117736374Y-90856150D01*
X117731976Y-90893420D01*
X117728628Y-90947100D01*
X117726326Y-91012832D01*
X117725068Y-91086257D01*
X117724852Y-91163016D01*
X117725673Y-91238752D01*
X117727529Y-91309106D01*
X117730418Y-91369720D01*
X117734335Y-91416236D01*
X117739278Y-91444295D01*
X117742243Y-91450136D01*
X117759966Y-91457137D01*
X117797519Y-91467147D01*
X117849936Y-91478989D01*
X117912248Y-91491487D01*
X117934000Y-91495530D01*
X118038876Y-91514740D01*
X118121720Y-91530211D01*
X118185270Y-91542557D01*
X118232263Y-91552393D01*
X118265437Y-91560334D01*
X118287529Y-91566996D01*
X118301276Y-91572993D01*
X118309416Y-91578939D01*
X118310555Y-91580114D01*
X118321923Y-91599046D01*
X118339265Y-91635889D01*
X118360850Y-91686133D01*
X118384946Y-91745266D01*
X118409821Y-91808776D01*
X118433743Y-91872152D01*
X118454981Y-91930882D01*
X118471803Y-91980455D01*
X118482478Y-92016359D01*
X118485273Y-92034082D01*
X118485040Y-92034703D01*
X118475569Y-92049190D01*
X118454082Y-92081064D01*
X118422837Y-92127009D01*
X118384093Y-92183705D01*
X118340107Y-92247837D01*
X118327581Y-92266062D01*
X118282916Y-92332134D01*
X118243612Y-92392420D01*
X118211812Y-92443455D01*
X118189655Y-92481780D01*
X118179283Y-92503931D01*
X118178781Y-92506652D01*
X118187495Y-92520956D01*
X118211575Y-92549292D01*
X118247924Y-92588616D01*
X118293447Y-92635881D01*
X118345048Y-92688043D01*
X118399633Y-92742055D01*
X118454106Y-92794873D01*
X118505371Y-92843451D01*
X118550333Y-92884743D01*
X118585896Y-92915705D01*
X118608965Y-92933290D01*
X118615346Y-92936161D01*
X118630201Y-92929398D01*
X118660614Y-92911159D01*
X118701632Y-92884517D01*
X118733191Y-92863072D01*
X118790375Y-92823723D01*
X118858094Y-92777391D01*
X118926020Y-92731133D01*
X118962539Y-92706375D01*
X119086148Y-92622767D01*
X119189909Y-92678870D01*
X119237180Y-92703448D01*
X119277377Y-92722551D01*
X119304574Y-92733447D01*
X119311498Y-92734963D01*
X119319823Y-92723769D01*
X119336246Y-92692137D01*
X119359543Y-92642985D01*
X119388486Y-92579230D01*
X119421850Y-92503791D01*
X119458409Y-92419584D01*
X119496936Y-92329528D01*
X119536206Y-92236541D01*
X119574992Y-92143540D01*
X119612070Y-92053443D01*
X119646211Y-91969168D01*
X119676192Y-91893633D01*
X119700784Y-91829754D01*
X119718764Y-91780451D01*
X119728903Y-91748641D01*
X119730534Y-91737716D01*
X119717609Y-91723781D01*
X119689311Y-91701160D01*
X119651554Y-91674553D01*
X119648385Y-91672448D01*
X119550800Y-91594334D01*
X119472114Y-91503202D01*
X119413009Y-91401965D01*
X119374168Y-91293538D01*
X119356272Y-91180834D01*
X119360003Y-91066768D01*
X119386043Y-90954254D01*
X119435075Y-90846205D01*
X119449500Y-90822565D01*
X119524531Y-90727107D01*
X119613170Y-90650452D01*
X119712351Y-90593000D01*
X119819005Y-90555149D01*
X119930064Y-90537298D01*
X120042461Y-90539845D01*
X120153127Y-90563190D01*
X120258994Y-90607730D01*
X120356995Y-90673865D01*
X120387310Y-90700707D01*
X120464462Y-90784732D01*
X120520682Y-90873186D01*
X120559247Y-90972335D01*
X120580726Y-91070523D01*
X120586028Y-91180917D01*
X120568348Y-91291860D01*
X120529481Y-91399601D01*
X120471223Y-91500389D01*
X120395369Y-91590476D01*
X120303717Y-91666112D01*
X120291672Y-91674084D01*
X120253511Y-91700194D01*
X120224501Y-91722815D01*
X120210632Y-91737259D01*
X120210431Y-91737716D01*
X120213408Y-91753341D01*
X120225211Y-91788802D01*
X120244614Y-91841182D01*
X120270388Y-91907565D01*
X120301309Y-91985034D01*
X120336149Y-92070670D01*
X120373683Y-92161557D01*
X120412683Y-92254779D01*
X120451923Y-92347417D01*
X120490176Y-92436555D01*
X120526217Y-92519275D01*
X120558817Y-92592661D01*
X120586752Y-92653795D01*
X120608795Y-92699761D01*
X120623718Y-92727641D01*
X120629728Y-92734963D01*
X120648091Y-92729261D01*
X120682452Y-92713969D01*
X120726884Y-92691819D01*
X120751317Y-92678870D01*
X120855078Y-92622767D01*
X120978687Y-92706375D01*
X121041786Y-92749207D01*
X121110870Y-92796342D01*
X121175607Y-92840723D01*
X121208034Y-92863072D01*
X121253641Y-92893697D01*
X121292260Y-92917967D01*
X121318852Y-92932807D01*
X121327490Y-92935944D01*
X121340061Y-92927481D01*
X121367884Y-92903856D01*
X121408261Y-92867522D01*
X121458495Y-92820931D01*
X121515888Y-92766537D01*
X121552186Y-92731612D01*
X121615690Y-92669216D01*
X121670573Y-92613408D01*
X121714614Y-92566574D01*
X121745595Y-92531102D01*
X121761298Y-92509381D01*
X121762805Y-92504972D01*
X121755814Y-92488205D01*
X121736494Y-92454302D01*
X121706991Y-92406696D01*
X121669445Y-92348819D01*
X121626000Y-92284104D01*
X121613645Y-92266062D01*
X121568627Y-92200487D01*
X121528240Y-92141448D01*
X121494740Y-92092262D01*
X121470386Y-92056248D01*
X121457436Y-92036722D01*
X121456185Y-92034703D01*
X121458056Y-92019142D01*
X121467987Y-91984929D01*
X121484247Y-91936575D01*
X121505105Y-91878591D01*
X121528827Y-91815490D01*
X121553684Y-91751783D01*
X121577942Y-91691981D01*
X121599871Y-91640596D01*
X121617738Y-91602139D01*
X121629813Y-91581122D01*
X121630671Y-91580114D01*
X121638054Y-91574108D01*
X121650525Y-91568168D01*
X121670820Y-91561680D01*
X121701678Y-91554029D01*
X121745834Y-91544600D01*
X121806026Y-91532779D01*
X121884993Y-91517949D01*
X121985470Y-91499497D01*
X122007225Y-91495530D01*
X122071702Y-91483073D01*
X122127911Y-91470886D01*
X122170887Y-91460146D01*
X122195660Y-91452029D01*
X122198982Y-91450136D01*
X122204456Y-91433358D01*
X122208906Y-91395865D01*
X122212328Y-91342014D01*
X122214719Y-91276164D01*
X122216077Y-91202673D01*
X122216399Y-91125900D01*
X122215681Y-91050203D01*
X122213921Y-90979940D01*
X122211116Y-90919470D01*
X122207262Y-90873150D01*
X122202357Y-90845339D01*
X122199400Y-90839647D01*
X122182937Y-90833906D01*
X122145451Y-90824565D01*
X122090675Y-90812435D01*
X122022345Y-90798327D01*
X121944194Y-90783050D01*
X121901616Y-90775043D01*
X121820829Y-90759941D01*
X121748787Y-90746260D01*
X121689011Y-90734687D01*
X121645021Y-90725907D01*
X121620339Y-90720607D01*
X121616277Y-90719432D01*
X121609411Y-90706185D01*
X121594898Y-90674277D01*
X121574671Y-90628267D01*
X121550666Y-90572712D01*
X121524818Y-90512173D01*
X121499060Y-90451206D01*
X121475327Y-90394371D01*
X121455554Y-90346226D01*
X121441676Y-90311330D01*
X121435626Y-90294241D01*
X121435514Y-90293494D01*
X121442372Y-90280013D01*
X121461598Y-90248990D01*
X121491172Y-90203509D01*
X121529073Y-90146652D01*
X121573280Y-90081503D01*
X121598979Y-90044082D01*
X121645807Y-89975467D01*
X121687399Y-89913172D01*
X121721725Y-89860349D01*
X121746757Y-89820147D01*
X121760465Y-89795720D01*
X121762444Y-89790244D01*
X121753934Y-89777498D01*
X121730407Y-89750283D01*
X121694868Y-89711648D01*
X121650323Y-89664643D01*
X121599777Y-89612315D01*
X121546236Y-89557715D01*
X121492705Y-89503890D01*
X121442189Y-89453890D01*
X121397694Y-89410763D01*
X121362225Y-89377559D01*
X121338787Y-89357326D01*
X121330946Y-89352498D01*
X121318180Y-89359287D01*
X121287644Y-89378362D01*
X121242310Y-89407781D01*
X121185144Y-89445601D01*
X121119116Y-89489881D01*
X121069310Y-89523615D01*
X120817664Y-89694732D01*
X120607901Y-89608261D01*
X120398137Y-89521790D01*
X120341289Y-89220238D01*
X120284440Y-88918686D01*
X119656785Y-88918686D01*
X119599936Y-89220238D01*
G36*
X118177440Y-93388250D02*
X118134189Y-93401465D01*
X118106342Y-93418161D01*
X118097271Y-93431365D01*
X118099768Y-93447017D01*
X118115969Y-93471605D01*
X118129668Y-93489020D01*
X118157908Y-93520503D01*
X118179125Y-93533749D01*
X118197212Y-93532884D01*
X118250865Y-93519230D01*
X118290270Y-93519850D01*
X118322268Y-93535324D01*
X118333010Y-93544381D01*
X118367395Y-93576247D01*
X118367395Y-93992399D01*
X118505712Y-93992399D01*
X118505712Y-93388834D01*
X118436553Y-93388834D01*
X118395031Y-93390476D01*
X118373609Y-93396307D01*
X118367398Y-93407681D01*
X118367395Y-93408018D01*
X118364461Y-93419933D01*
X118351196Y-93418379D01*
X118332816Y-93409783D01*
X118294854Y-93393788D01*
X118264028Y-93384165D01*
X118224364Y-93381698D01*
X118177440Y-93388250D01*
X118177440Y-93388250D01*
G37*
X118177440Y-93388250D02*
X118134189Y-93401465D01*
X118106342Y-93418161D01*
X118097271Y-93431365D01*
X118099768Y-93447017D01*
X118115969Y-93471605D01*
X118129668Y-93489020D01*
X118157908Y-93520503D01*
X118179125Y-93533749D01*
X118197212Y-93532884D01*
X118250865Y-93519230D01*
X118290270Y-93519850D01*
X118322268Y-93535324D01*
X118333010Y-93544381D01*
X118367395Y-93576247D01*
X118367395Y-93992399D01*
X118505712Y-93992399D01*
X118505712Y-93388834D01*
X118436553Y-93388834D01*
X118395031Y-93390476D01*
X118373609Y-93396307D01*
X118367398Y-93407681D01*
X118367395Y-93408018D01*
X118364461Y-93419933D01*
X118351196Y-93418379D01*
X118332816Y-93409783D01*
X118294854Y-93393788D01*
X118264028Y-93384165D01*
X118224364Y-93381698D01*
X118177440Y-93388250D01*
G36*
X120730912Y-93399222D02*
X120699617Y-93414170D01*
X120669309Y-93435761D01*
X120646218Y-93460611D01*
X120629400Y-93492307D01*
X120617906Y-93534434D01*
X120610791Y-93590578D01*
X120607107Y-93664326D01*
X120605908Y-93759264D01*
X120605889Y-93769205D01*
X120605613Y-93992399D01*
X120743930Y-93992399D01*
X120743930Y-93786638D01*
X120744028Y-93710409D01*
X120744709Y-93655159D01*
X120746551Y-93616721D01*
X120750133Y-93590926D01*
X120756032Y-93573604D01*
X120764827Y-93560588D01*
X120777080Y-93547727D01*
X120819947Y-93520093D01*
X120866743Y-93514965D01*
X120911324Y-93532437D01*
X120926828Y-93545441D01*
X120938210Y-93557667D01*
X120946381Y-93570760D01*
X120951874Y-93588835D01*
X120955220Y-93616007D01*
X120956951Y-93656390D01*
X120957597Y-93714099D01*
X120957692Y-93784352D01*
X120957692Y-93992399D01*
X121096009Y-93992399D01*
X121096009Y-93388834D01*
X121026850Y-93388834D01*
X120985328Y-93390476D01*
X120963906Y-93396307D01*
X120957695Y-93407681D01*
X120957692Y-93408018D01*
X120954810Y-93419158D01*
X120942099Y-93417894D01*
X120916826Y-93405654D01*
X120859505Y-93387644D01*
X120793937Y-93385641D01*
X120730912Y-93399222D01*
X120730912Y-93399222D01*
G37*
X120730912Y-93399222D02*
X120699617Y-93414170D01*
X120669309Y-93435761D01*
X120646218Y-93460611D01*
X120629400Y-93492307D01*
X120617906Y-93534434D01*
X120610791Y-93590578D01*
X120607107Y-93664326D01*
X120605908Y-93759264D01*
X120605889Y-93769205D01*
X120605613Y-93992399D01*
X120743930Y-93992399D01*
X120743930Y-93786638D01*
X120744028Y-93710409D01*
X120744709Y-93655159D01*
X120746551Y-93616721D01*
X120750133Y-93590926D01*
X120756032Y-93573604D01*
X120764827Y-93560588D01*
X120777080Y-93547727D01*
X120819947Y-93520093D01*
X120866743Y-93514965D01*
X120911324Y-93532437D01*
X120926828Y-93545441D01*
X120938210Y-93557667D01*
X120946381Y-93570760D01*
X120951874Y-93588835D01*
X120955220Y-93616007D01*
X120956951Y-93656390D01*
X120957597Y-93714099D01*
X120957692Y-93784352D01*
X120957692Y-93992399D01*
X121096009Y-93992399D01*
X121096009Y-93388834D01*
X121026850Y-93388834D01*
X120985328Y-93390476D01*
X120963906Y-93396307D01*
X120957695Y-93407681D01*
X120957692Y-93408018D01*
X120954810Y-93419158D01*
X120942099Y-93417894D01*
X120916826Y-93405654D01*
X120859505Y-93387644D01*
X120793937Y-93385641D01*
X120730912Y-93399222D01*
G36*
X117299002Y-93386677D02*
X117266804Y-93394499D01*
X117205075Y-93423141D01*
X117152290Y-93466887D01*
X117115759Y-93519337D01*
X117110740Y-93531113D01*
X117103855Y-93561960D01*
X117099036Y-93607591D01*
X117097395Y-93653712D01*
X117097395Y-93740913D01*
X117279722Y-93740913D01*
X117354921Y-93741198D01*
X117407897Y-93742924D01*
X117441575Y-93747401D01*
X117458880Y-93755940D01*
X117462737Y-93769850D01*
X117456071Y-93790442D01*
X117444130Y-93814535D01*
X117410820Y-93854745D01*
X117364532Y-93874778D01*
X117307956Y-93874125D01*
X117243869Y-93852321D01*
X117188483Y-93825413D01*
X117142525Y-93861752D01*
X117096567Y-93898092D01*
X117139804Y-93938039D01*
X117197526Y-93975783D01*
X117268514Y-93998540D01*
X117344871Y-94004908D01*
X117418701Y-93993488D01*
X117430613Y-93989613D01*
X117495501Y-93955726D01*
X117543770Y-93905206D01*
X117576435Y-93836545D01*
X117594515Y-93748234D01*
X117594725Y-93746341D01*
X117596344Y-93650098D01*
X117589800Y-93615762D01*
X117462048Y-93615762D01*
X117450316Y-93621042D01*
X117418462Y-93625087D01*
X117371503Y-93627396D01*
X117341746Y-93627745D01*
X117286252Y-93627526D01*
X117251554Y-93626136D01*
X117233299Y-93622471D01*
X117227134Y-93615430D01*
X117228705Y-93603910D01*
X117230022Y-93599453D01*
X117252518Y-93557575D01*
X117287897Y-93523824D01*
X117319120Y-93508993D01*
X117360599Y-93509888D01*
X117402631Y-93528384D01*
X117437888Y-93559006D01*
X117459046Y-93596282D01*
X117462048Y-93615762D01*
X117589800Y-93615762D01*
X117580210Y-93565449D01*
X117548202Y-93494411D01*
X117502199Y-93438999D01*
X117444079Y-93401229D01*
X117375720Y-93383116D01*
X117299002Y-93386677D01*
X117299002Y-93386677D01*
G37*
X117299002Y-93386677D02*
X117266804Y-93394499D01*
X117205075Y-93423141D01*
X117152290Y-93466887D01*
X117115759Y-93519337D01*
X117110740Y-93531113D01*
X117103855Y-93561960D01*
X117099036Y-93607591D01*
X117097395Y-93653712D01*
X117097395Y-93740913D01*
X117279722Y-93740913D01*
X117354921Y-93741198D01*
X117407897Y-93742924D01*
X117441575Y-93747401D01*
X117458880Y-93755940D01*
X117462737Y-93769850D01*
X117456071Y-93790442D01*
X117444130Y-93814535D01*
X117410820Y-93854745D01*
X117364532Y-93874778D01*
X117307956Y-93874125D01*
X117243869Y-93852321D01*
X117188483Y-93825413D01*
X117142525Y-93861752D01*
X117096567Y-93898092D01*
X117139804Y-93938039D01*
X117197526Y-93975783D01*
X117268514Y-93998540D01*
X117344871Y-94004908D01*
X117418701Y-93993488D01*
X117430613Y-93989613D01*
X117495501Y-93955726D01*
X117543770Y-93905206D01*
X117576435Y-93836545D01*
X117594515Y-93748234D01*
X117594725Y-93746341D01*
X117596344Y-93650098D01*
X117589800Y-93615762D01*
X117462048Y-93615762D01*
X117450316Y-93621042D01*
X117418462Y-93625087D01*
X117371503Y-93627396D01*
X117341746Y-93627745D01*
X117286252Y-93627526D01*
X117251554Y-93626136D01*
X117233299Y-93622471D01*
X117227134Y-93615430D01*
X117228705Y-93603910D01*
X117230022Y-93599453D01*
X117252518Y-93557575D01*
X117287897Y-93523824D01*
X117319120Y-93508993D01*
X117360599Y-93509888D01*
X117402631Y-93528384D01*
X117437888Y-93559006D01*
X117459046Y-93596282D01*
X117462048Y-93615762D01*
X117589800Y-93615762D01*
X117580210Y-93565449D01*
X117548202Y-93494411D01*
X117502199Y-93438999D01*
X117444079Y-93401229D01*
X117375720Y-93383116D01*
X117299002Y-93386677D01*
G36*
X117759674Y-93394100D02*
X117686820Y-93425050D01*
X117663873Y-93440115D01*
X117634546Y-93463268D01*
X117616136Y-93481473D01*
X117612939Y-93487403D01*
X117621965Y-93500560D01*
X117645063Y-93522887D01*
X117663556Y-93538470D01*
X117714172Y-93579146D01*
X117754140Y-93545515D01*
X117785026Y-93523804D01*
X117815141Y-93516310D01*
X117849608Y-93518140D01*
X117904339Y-93531748D01*
X117942014Y-93559992D01*
X117964909Y-93605653D01*
X117975303Y-93671509D01*
X117975305Y-93671551D01*
X117974406Y-93745159D01*
X117960437Y-93799166D01*
X117932572Y-93835936D01*
X117913575Y-93848388D01*
X117863124Y-93863893D01*
X117809237Y-93863903D01*
X117762354Y-93848858D01*
X117751256Y-93841507D01*
X117723424Y-93822731D01*
X117701664Y-93819654D01*
X117678196Y-93833629D01*
X117652251Y-93858730D01*
X117611184Y-93901100D01*
X117656779Y-93938684D01*
X117727226Y-93981102D01*
X117806667Y-94002005D01*
X117889685Y-94000492D01*
X117944206Y-93986631D01*
X118007930Y-93952355D01*
X118058895Y-93898432D01*
X118082049Y-93860369D01*
X118100801Y-93805756D01*
X118110185Y-93736589D01*
X118110257Y-93661627D01*
X118101076Y-93589629D01*
X118082701Y-93529357D01*
X118079807Y-93523178D01*
X118036948Y-93462571D01*
X117978921Y-93418444D01*
X117910309Y-93391713D01*
X117835699Y-93383293D01*
X117759674Y-93394100D01*
X117759674Y-93394100D01*
G37*
X117759674Y-93394100D02*
X117686820Y-93425050D01*
X117663873Y-93440115D01*
X117634546Y-93463268D01*
X117616136Y-93481473D01*
X117612939Y-93487403D01*
X117621965Y-93500560D01*
X117645063Y-93522887D01*
X117663556Y-93538470D01*
X117714172Y-93579146D01*
X117754140Y-93545515D01*
X117785026Y-93523804D01*
X117815141Y-93516310D01*
X117849608Y-93518140D01*
X117904339Y-93531748D01*
X117942014Y-93559992D01*
X117964909Y-93605653D01*
X117975303Y-93671509D01*
X117975305Y-93671551D01*
X117974406Y-93745159D01*
X117960437Y-93799166D01*
X117932572Y-93835936D01*
X117913575Y-93848388D01*
X117863124Y-93863893D01*
X117809237Y-93863903D01*
X117762354Y-93848858D01*
X117751256Y-93841507D01*
X117723424Y-93822731D01*
X117701664Y-93819654D01*
X117678196Y-93833629D01*
X117652251Y-93858730D01*
X117611184Y-93901100D01*
X117656779Y-93938684D01*
X117727226Y-93981102D01*
X117806667Y-94002005D01*
X117889685Y-94000492D01*
X117944206Y-93986631D01*
X118007930Y-93952355D01*
X118058895Y-93898432D01*
X118082049Y-93860369D01*
X118100801Y-93805756D01*
X118110185Y-93736589D01*
X118110257Y-93661627D01*
X118101076Y-93589629D01*
X118082701Y-93529357D01*
X118079807Y-93523178D01*
X118036948Y-93462571D01*
X117978921Y-93418444D01*
X117910309Y-93391713D01*
X117835699Y-93383293D01*
X117759674Y-93394100D01*
G36*
X118983533Y-93584562D02*
X118982345Y-93676783D01*
X118978003Y-93746830D01*
X118969342Y-93797601D01*
X118955196Y-93831992D01*
X118934400Y-93852899D01*
X118905790Y-93863220D01*
X118870365Y-93865856D01*
X118833264Y-93862902D01*
X118805082Y-93852109D01*
X118784657Y-93830580D01*
X118770821Y-93795419D01*
X118762409Y-93743730D01*
X118758257Y-93672614D01*
X118757197Y-93584562D01*
X118757197Y-93388834D01*
X118618880Y-93388834D01*
X118618880Y-93992399D01*
X118688038Y-93992399D01*
X118729730Y-93990709D01*
X118751199Y-93984776D01*
X118757197Y-93973513D01*
X118760809Y-93963481D01*
X118775186Y-93965603D01*
X118804164Y-93979800D01*
X118870581Y-94001700D01*
X118941025Y-94000148D01*
X119008523Y-93976367D01*
X119040667Y-93957582D01*
X119065185Y-93937242D01*
X119083096Y-93911793D01*
X119095421Y-93877678D01*
X119103177Y-93831341D01*
X119107384Y-93769227D01*
X119109060Y-93687781D01*
X119109276Y-93624798D01*
X119109276Y-93388834D01*
X118983533Y-93388834D01*
X118983533Y-93584562D01*
X118983533Y-93584562D01*
G37*
X118983533Y-93584562D02*
X118982345Y-93676783D01*
X118978003Y-93746830D01*
X118969342Y-93797601D01*
X118955196Y-93831992D01*
X118934400Y-93852899D01*
X118905790Y-93863220D01*
X118870365Y-93865856D01*
X118833264Y-93862902D01*
X118805082Y-93852109D01*
X118784657Y-93830580D01*
X118770821Y-93795419D01*
X118762409Y-93743730D01*
X118758257Y-93672614D01*
X118757197Y-93584562D01*
X118757197Y-93388834D01*
X118618880Y-93388834D01*
X118618880Y-93992399D01*
X118688038Y-93992399D01*
X118729730Y-93990709D01*
X118751199Y-93984776D01*
X118757197Y-93973513D01*
X118760809Y-93963481D01*
X118775186Y-93965603D01*
X118804164Y-93979800D01*
X118870581Y-94001700D01*
X118941025Y-94000148D01*
X119008523Y-93976367D01*
X119040667Y-93957582D01*
X119065185Y-93937242D01*
X119083096Y-93911793D01*
X119095421Y-93877678D01*
X119103177Y-93831341D01*
X119107384Y-93769227D01*
X119109060Y-93687781D01*
X119109276Y-93624798D01*
X119109276Y-93388834D01*
X118983533Y-93388834D01*
X118983533Y-93584562D01*
G36*
X119366138Y-93396275D02*
X119302537Y-93430912D01*
X119252777Y-93485592D01*
X119229332Y-93530062D01*
X119219266Y-93569341D01*
X119212744Y-93625336D01*
X119209949Y-93689841D01*
X119211064Y-93754649D01*
X119216274Y-93811554D01*
X119222359Y-93841947D01*
X119242886Y-93883526D01*
X119278437Y-93927688D01*
X119321281Y-93966307D01*
X119363689Y-93991254D01*
X119364723Y-93991650D01*
X119417347Y-94002551D01*
X119479712Y-94002821D01*
X119538976Y-93992896D01*
X119561860Y-93984942D01*
X119620798Y-93951520D01*
X119663010Y-93907731D01*
X119690744Y-93849758D01*
X119706249Y-93773785D01*
X119709757Y-93733991D01*
X119709310Y-93683986D01*
X119574524Y-93683986D01*
X119569983Y-93756952D01*
X119556914Y-93812554D01*
X119536144Y-93848081D01*
X119521348Y-93858240D01*
X119483436Y-93865324D01*
X119438373Y-93863227D01*
X119399413Y-93853032D01*
X119389196Y-93847424D01*
X119362241Y-93814758D01*
X119344449Y-93764765D01*
X119336876Y-93703925D01*
X119340575Y-93638717D01*
X119348843Y-93599473D01*
X119372580Y-93554025D01*
X119410051Y-93525616D01*
X119455180Y-93515793D01*
X119501889Y-93526107D01*
X119537768Y-93551332D01*
X119556623Y-93572145D01*
X119567628Y-93592659D01*
X119572874Y-93620423D01*
X119574451Y-93662982D01*
X119574524Y-93683986D01*
X119709310Y-93683986D01*
X119708806Y-93627800D01*
X119691512Y-93540721D01*
X119657871Y-93472750D01*
X119607882Y-93423884D01*
X119541544Y-93394119D01*
X119527299Y-93390668D01*
X119441690Y-93382565D01*
X119366138Y-93396275D01*
X119366138Y-93396275D01*
G37*
X119366138Y-93396275D02*
X119302537Y-93430912D01*
X119252777Y-93485592D01*
X119229332Y-93530062D01*
X119219266Y-93569341D01*
X119212744Y-93625336D01*
X119209949Y-93689841D01*
X119211064Y-93754649D01*
X119216274Y-93811554D01*
X119222359Y-93841947D01*
X119242886Y-93883526D01*
X119278437Y-93927688D01*
X119321281Y-93966307D01*
X119363689Y-93991254D01*
X119364723Y-93991650D01*
X119417347Y-94002551D01*
X119479712Y-94002821D01*
X119538976Y-93992896D01*
X119561860Y-93984942D01*
X119620798Y-93951520D01*
X119663010Y-93907731D01*
X119690744Y-93849758D01*
X119706249Y-93773785D01*
X119709757Y-93733991D01*
X119709310Y-93683986D01*
X119574524Y-93683986D01*
X119569983Y-93756952D01*
X119556914Y-93812554D01*
X119536144Y-93848081D01*
X119521348Y-93858240D01*
X119483436Y-93865324D01*
X119438373Y-93863227D01*
X119399413Y-93853032D01*
X119389196Y-93847424D01*
X119362241Y-93814758D01*
X119344449Y-93764765D01*
X119336876Y-93703925D01*
X119340575Y-93638717D01*
X119348843Y-93599473D01*
X119372580Y-93554025D01*
X119410051Y-93525616D01*
X119455180Y-93515793D01*
X119501889Y-93526107D01*
X119537768Y-93551332D01*
X119556623Y-93572145D01*
X119567628Y-93592659D01*
X119572874Y-93620423D01*
X119574451Y-93662982D01*
X119574524Y-93683986D01*
X119709310Y-93683986D01*
X119708806Y-93627800D01*
X119691512Y-93540721D01*
X119657871Y-93472750D01*
X119607882Y-93423884D01*
X119541544Y-93394119D01*
X119527299Y-93390668D01*
X119441690Y-93382565D01*
X119366138Y-93396275D01*
G36*
X119962883Y-93386672D02*
X119915266Y-93395702D01*
X119865866Y-93414590D01*
X119860588Y-93416997D01*
X119823126Y-93436696D01*
X119797183Y-93455001D01*
X119788797Y-93466728D01*
X119796783Y-93485852D01*
X119816180Y-93514070D01*
X119824790Y-93524604D01*
X119860272Y-93566067D01*
X119906015Y-93539078D01*
X119949550Y-93521098D01*
X119999850Y-93511487D01*
X120048088Y-93510880D01*
X120085433Y-93519911D01*
X120094395Y-93525547D01*
X120111463Y-93551391D01*
X120113537Y-93581161D01*
X120100766Y-93604417D01*
X120093212Y-93608928D01*
X120070575Y-93614529D01*
X120030785Y-93621112D01*
X119981734Y-93627403D01*
X119972685Y-93628390D01*
X119893904Y-93642018D01*
X119836764Y-93665166D01*
X119798870Y-93699972D01*
X119777821Y-93748574D01*
X119771265Y-93807938D01*
X119780323Y-93875418D01*
X119809736Y-93928408D01*
X119859622Y-93967003D01*
X119930100Y-93991301D01*
X120008335Y-94000887D01*
X120072134Y-94000772D01*
X120123884Y-93992065D01*
X120159227Y-93980045D01*
X120203883Y-93959100D01*
X120245153Y-93934794D01*
X120259821Y-93924096D01*
X120297543Y-93893304D01*
X120252048Y-93847269D01*
X120206553Y-93801233D01*
X120154828Y-93835463D01*
X120102948Y-93861172D01*
X120047549Y-93874619D01*
X119994295Y-93876038D01*
X119948851Y-93865663D01*
X119916884Y-93843727D01*
X119906562Y-93825218D01*
X119908111Y-93795534D01*
X119933760Y-93772835D01*
X119983440Y-93757160D01*
X120037869Y-93749915D01*
X120121636Y-93736093D01*
X120183867Y-93710016D01*
X120225393Y-93670919D01*
X120247047Y-93618040D01*
X120250047Y-93555346D01*
X120235229Y-93489862D01*
X120201446Y-93440364D01*
X120148395Y-93406628D01*
X120075774Y-93388427D01*
X120021972Y-93384859D01*
X119962883Y-93386672D01*
X119962883Y-93386672D01*
G37*
X119962883Y-93386672D02*
X119915266Y-93395702D01*
X119865866Y-93414590D01*
X119860588Y-93416997D01*
X119823126Y-93436696D01*
X119797183Y-93455001D01*
X119788797Y-93466728D01*
X119796783Y-93485852D01*
X119816180Y-93514070D01*
X119824790Y-93524604D01*
X119860272Y-93566067D01*
X119906015Y-93539078D01*
X119949550Y-93521098D01*
X119999850Y-93511487D01*
X120048088Y-93510880D01*
X120085433Y-93519911D01*
X120094395Y-93525547D01*
X120111463Y-93551391D01*
X120113537Y-93581161D01*
X120100766Y-93604417D01*
X120093212Y-93608928D01*
X120070575Y-93614529D01*
X120030785Y-93621112D01*
X119981734Y-93627403D01*
X119972685Y-93628390D01*
X119893904Y-93642018D01*
X119836764Y-93665166D01*
X119798870Y-93699972D01*
X119777821Y-93748574D01*
X119771265Y-93807938D01*
X119780323Y-93875418D01*
X119809736Y-93928408D01*
X119859622Y-93967003D01*
X119930100Y-93991301D01*
X120008335Y-94000887D01*
X120072134Y-94000772D01*
X120123884Y-93992065D01*
X120159227Y-93980045D01*
X120203883Y-93959100D01*
X120245153Y-93934794D01*
X120259821Y-93924096D01*
X120297543Y-93893304D01*
X120252048Y-93847269D01*
X120206553Y-93801233D01*
X120154828Y-93835463D01*
X120102948Y-93861172D01*
X120047549Y-93874619D01*
X119994295Y-93876038D01*
X119948851Y-93865663D01*
X119916884Y-93843727D01*
X119906562Y-93825218D01*
X119908111Y-93795534D01*
X119933760Y-93772835D01*
X119983440Y-93757160D01*
X120037869Y-93749915D01*
X120121636Y-93736093D01*
X120183867Y-93710016D01*
X120225393Y-93670919D01*
X120247047Y-93618040D01*
X120250047Y-93555346D01*
X120235229Y-93489862D01*
X120201446Y-93440364D01*
X120148395Y-93406628D01*
X120075774Y-93388427D01*
X120021972Y-93384859D01*
X119962883Y-93386672D01*
G36*
X121333599Y-93402834D02*
X121321068Y-93408734D01*
X121277699Y-93440503D01*
X121236690Y-93486866D01*
X121206068Y-93537916D01*
X121197359Y-93561386D01*
X121189412Y-93603311D01*
X121184674Y-93653977D01*
X121184099Y-93674899D01*
X121184029Y-93740913D01*
X121563983Y-93740913D01*
X121555883Y-93775493D01*
X121536004Y-93816390D01*
X121501247Y-93851734D01*
X121459898Y-93874502D01*
X121433549Y-93879230D01*
X121397816Y-93873493D01*
X121355182Y-93859102D01*
X121340699Y-93852482D01*
X121287140Y-93825733D01*
X121241433Y-93860596D01*
X121215058Y-93884175D01*
X121201024Y-93903637D01*
X121200314Y-93909349D01*
X121212851Y-93923193D01*
X121240328Y-93944232D01*
X121265266Y-93960645D01*
X121332564Y-93990150D01*
X121408010Y-94003504D01*
X121482788Y-94000032D01*
X121542395Y-93981883D01*
X121603841Y-93943004D01*
X121647508Y-93891815D01*
X121674826Y-93825587D01*
X121687222Y-93741591D01*
X121688321Y-93703156D01*
X121683922Y-93615081D01*
X121683382Y-93612519D01*
X121557482Y-93612519D01*
X121554015Y-93620778D01*
X121539763Y-93625333D01*
X121510370Y-93627285D01*
X121461475Y-93627737D01*
X121442648Y-93627745D01*
X121385367Y-93627063D01*
X121349041Y-93624584D01*
X121329504Y-93619663D01*
X121322590Y-93611654D01*
X121322345Y-93609082D01*
X121330236Y-93588643D01*
X121349985Y-93560009D01*
X121358475Y-93549983D01*
X121389994Y-93521628D01*
X121422849Y-93510479D01*
X121440551Y-93509547D01*
X121488439Y-93521201D01*
X121528599Y-93552505D01*
X121554073Y-93597972D01*
X121554525Y-93599453D01*
X121557482Y-93612519D01*
X121683382Y-93612519D01*
X121669292Y-93545730D01*
X121642938Y-93490245D01*
X121610707Y-93450859D01*
X121551117Y-93408151D01*
X121481068Y-93385329D01*
X121406561Y-93383266D01*
X121333599Y-93402834D01*
X121333599Y-93402834D01*
G37*
X121333599Y-93402834D02*
X121321068Y-93408734D01*
X121277699Y-93440503D01*
X121236690Y-93486866D01*
X121206068Y-93537916D01*
X121197359Y-93561386D01*
X121189412Y-93603311D01*
X121184674Y-93653977D01*
X121184099Y-93674899D01*
X121184029Y-93740913D01*
X121563983Y-93740913D01*
X121555883Y-93775493D01*
X121536004Y-93816390D01*
X121501247Y-93851734D01*
X121459898Y-93874502D01*
X121433549Y-93879230D01*
X121397816Y-93873493D01*
X121355182Y-93859102D01*
X121340699Y-93852482D01*
X121287140Y-93825733D01*
X121241433Y-93860596D01*
X121215058Y-93884175D01*
X121201024Y-93903637D01*
X121200314Y-93909349D01*
X121212851Y-93923193D01*
X121240328Y-93944232D01*
X121265266Y-93960645D01*
X121332564Y-93990150D01*
X121408010Y-94003504D01*
X121482788Y-94000032D01*
X121542395Y-93981883D01*
X121603841Y-93943004D01*
X121647508Y-93891815D01*
X121674826Y-93825587D01*
X121687222Y-93741591D01*
X121688321Y-93703156D01*
X121683922Y-93615081D01*
X121683382Y-93612519D01*
X121557482Y-93612519D01*
X121554015Y-93620778D01*
X121539763Y-93625333D01*
X121510370Y-93627285D01*
X121461475Y-93627737D01*
X121442648Y-93627745D01*
X121385367Y-93627063D01*
X121349041Y-93624584D01*
X121329504Y-93619663D01*
X121322590Y-93611654D01*
X121322345Y-93609082D01*
X121330236Y-93588643D01*
X121349985Y-93560009D01*
X121358475Y-93549983D01*
X121389994Y-93521628D01*
X121422849Y-93510479D01*
X121440551Y-93509547D01*
X121488439Y-93521201D01*
X121528599Y-93552505D01*
X121554073Y-93597972D01*
X121554525Y-93599453D01*
X121557482Y-93612519D01*
X121683382Y-93612519D01*
X121669292Y-93545730D01*
X121642938Y-93490245D01*
X121610707Y-93450859D01*
X121551117Y-93408151D01*
X121481068Y-93385329D01*
X121406561Y-93383266D01*
X121333599Y-93402834D01*
G36*
X122515161Y-93395368D02*
X122449379Y-93424451D01*
X122399440Y-93473013D01*
X122365274Y-93541128D01*
X122346807Y-93628871D01*
X122345483Y-93642571D01*
X122344446Y-93739159D01*
X122357893Y-93823822D01*
X122385008Y-93892441D01*
X122399527Y-93914514D01*
X122450101Y-93961231D01*
X122514509Y-93991488D01*
X122586566Y-94004044D01*
X122660085Y-93997659D01*
X122715972Y-93977992D01*
X122764032Y-93944849D01*
X122803312Y-93901395D01*
X122803992Y-93900378D01*
X122819944Y-93873558D01*
X122830310Y-93846588D01*
X122836588Y-93812552D01*
X122840273Y-93764530D01*
X122841897Y-93725151D01*
X122842572Y-93689439D01*
X122716855Y-93689439D01*
X122715626Y-93724990D01*
X122711166Y-93772314D01*
X122703297Y-93802685D01*
X122689107Y-93824292D01*
X122675817Y-93836914D01*
X122628702Y-93863342D01*
X122579405Y-93866873D01*
X122533493Y-93847859D01*
X122510538Y-93826551D01*
X122493996Y-93805079D01*
X122484321Y-93784533D01*
X122480074Y-93757794D01*
X122479820Y-93717743D01*
X122481128Y-93680858D01*
X122483943Y-93628167D01*
X122488405Y-93593992D01*
X122496448Y-93571700D01*
X122510003Y-93554662D01*
X122520745Y-93544923D01*
X122565677Y-93519343D01*
X122614149Y-93518067D01*
X122654794Y-93533219D01*
X122689467Y-93564862D01*
X122710124Y-93616840D01*
X122716855Y-93689439D01*
X122842572Y-93689439D01*
X122843379Y-93646841D01*
X122840848Y-93588276D01*
X122833262Y-93544227D01*
X122819581Y-93509468D01*
X122798765Y-93478771D01*
X122791047Y-93469656D01*
X122742789Y-93424241D01*
X122691028Y-93397713D01*
X122627728Y-93386599D01*
X122596861Y-93385691D01*
X122515161Y-93395368D01*
X122515161Y-93395368D01*
G37*
X122515161Y-93395368D02*
X122449379Y-93424451D01*
X122399440Y-93473013D01*
X122365274Y-93541128D01*
X122346807Y-93628871D01*
X122345483Y-93642571D01*
X122344446Y-93739159D01*
X122357893Y-93823822D01*
X122385008Y-93892441D01*
X122399527Y-93914514D01*
X122450101Y-93961231D01*
X122514509Y-93991488D01*
X122586566Y-94004044D01*
X122660085Y-93997659D01*
X122715972Y-93977992D01*
X122764032Y-93944849D01*
X122803312Y-93901395D01*
X122803992Y-93900378D01*
X122819944Y-93873558D01*
X122830310Y-93846588D01*
X122836588Y-93812552D01*
X122840273Y-93764530D01*
X122841897Y-93725151D01*
X122842572Y-93689439D01*
X122716855Y-93689439D01*
X122715626Y-93724990D01*
X122711166Y-93772314D01*
X122703297Y-93802685D01*
X122689107Y-93824292D01*
X122675817Y-93836914D01*
X122628702Y-93863342D01*
X122579405Y-93866873D01*
X122533493Y-93847859D01*
X122510538Y-93826551D01*
X122493996Y-93805079D01*
X122484321Y-93784533D01*
X122480074Y-93757794D01*
X122479820Y-93717743D01*
X122481128Y-93680858D01*
X122483943Y-93628167D01*
X122488405Y-93593992D01*
X122496448Y-93571700D01*
X122510003Y-93554662D01*
X122520745Y-93544923D01*
X122565677Y-93519343D01*
X122614149Y-93518067D01*
X122654794Y-93533219D01*
X122689467Y-93564862D01*
X122710124Y-93616840D01*
X122716855Y-93689439D01*
X122842572Y-93689439D01*
X122843379Y-93646841D01*
X122840848Y-93588276D01*
X122833262Y-93544227D01*
X122819581Y-93509468D01*
X122798765Y-93478771D01*
X122791047Y-93469656D01*
X122742789Y-93424241D01*
X122691028Y-93397713D01*
X122627728Y-93386599D01*
X122596861Y-93385691D01*
X122515161Y-93395368D01*
G36*
X117944319Y-94335190D02*
X117884215Y-94350817D01*
X117833879Y-94383068D01*
X117809507Y-94407160D01*
X117769555Y-94464115D01*
X117746658Y-94530185D01*
X117738792Y-94611402D01*
X117738752Y-94617968D01*
X117738682Y-94683983D01*
X118118636Y-94683983D01*
X118110537Y-94718562D01*
X118095913Y-94749879D01*
X118070319Y-94782511D01*
X118064965Y-94787720D01*
X118018957Y-94815914D01*
X117966490Y-94820695D01*
X117906097Y-94802146D01*
X117895860Y-94797151D01*
X117864461Y-94781965D01*
X117843430Y-94773314D01*
X117839761Y-94772513D01*
X117826952Y-94780283D01*
X117802522Y-94799292D01*
X117790121Y-94809680D01*
X117764424Y-94833541D01*
X117755985Y-94849297D01*
X117761842Y-94863791D01*
X117764972Y-94867754D01*
X117786175Y-94885099D01*
X117821162Y-94906179D01*
X117845563Y-94918485D01*
X117914828Y-94940166D01*
X117991512Y-94947191D01*
X118064135Y-94938867D01*
X118084474Y-94932906D01*
X118147424Y-94899172D01*
X118194085Y-94847265D01*
X118224727Y-94776679D01*
X118239618Y-94686912D01*
X118241253Y-94639973D01*
X118236479Y-94571633D01*
X118115910Y-94571633D01*
X118104248Y-94576685D01*
X118072902Y-94580649D01*
X118027329Y-94582988D01*
X117996454Y-94583389D01*
X117940919Y-94583003D01*
X117905867Y-94581195D01*
X117886638Y-94576993D01*
X117878570Y-94569423D01*
X117876999Y-94558438D01*
X117887779Y-94524601D01*
X117914920Y-94491160D01*
X117950623Y-94465492D01*
X117986340Y-94454992D01*
X118034852Y-94464306D01*
X118076847Y-94491233D01*
X118105964Y-94530047D01*
X118115910Y-94571633D01*
X118236479Y-94571633D01*
X118234301Y-94540456D01*
X118212845Y-94461169D01*
X118176430Y-94401483D01*
X118124603Y-94360769D01*
X118056910Y-94338399D01*
X118020238Y-94334091D01*
X117944319Y-94335190D01*
X117944319Y-94335190D01*
G37*
X117944319Y-94335190D02*
X117884215Y-94350817D01*
X117833879Y-94383068D01*
X117809507Y-94407160D01*
X117769555Y-94464115D01*
X117746658Y-94530185D01*
X117738792Y-94611402D01*
X117738752Y-94617968D01*
X117738682Y-94683983D01*
X118118636Y-94683983D01*
X118110537Y-94718562D01*
X118095913Y-94749879D01*
X118070319Y-94782511D01*
X118064965Y-94787720D01*
X118018957Y-94815914D01*
X117966490Y-94820695D01*
X117906097Y-94802146D01*
X117895860Y-94797151D01*
X117864461Y-94781965D01*
X117843430Y-94773314D01*
X117839761Y-94772513D01*
X117826952Y-94780283D01*
X117802522Y-94799292D01*
X117790121Y-94809680D01*
X117764424Y-94833541D01*
X117755985Y-94849297D01*
X117761842Y-94863791D01*
X117764972Y-94867754D01*
X117786175Y-94885099D01*
X117821162Y-94906179D01*
X117845563Y-94918485D01*
X117914828Y-94940166D01*
X117991512Y-94947191D01*
X118064135Y-94938867D01*
X118084474Y-94932906D01*
X118147424Y-94899172D01*
X118194085Y-94847265D01*
X118224727Y-94776679D01*
X118239618Y-94686912D01*
X118241253Y-94639973D01*
X118236479Y-94571633D01*
X118115910Y-94571633D01*
X118104248Y-94576685D01*
X118072902Y-94580649D01*
X118027329Y-94582988D01*
X117996454Y-94583389D01*
X117940919Y-94583003D01*
X117905867Y-94581195D01*
X117886638Y-94576993D01*
X117878570Y-94569423D01*
X117876999Y-94558438D01*
X117887779Y-94524601D01*
X117914920Y-94491160D01*
X117950623Y-94465492D01*
X117986340Y-94454992D01*
X118034852Y-94464306D01*
X118076847Y-94491233D01*
X118105964Y-94530047D01*
X118115910Y-94571633D01*
X118236479Y-94571633D01*
X118234301Y-94540456D01*
X118212845Y-94461169D01*
X118176430Y-94401483D01*
X118124603Y-94360769D01*
X118056910Y-94338399D01*
X118020238Y-94334091D01*
X117944319Y-94335190D01*
G36*
X118341645Y-94331706D02*
X118293305Y-94341235D01*
X118265786Y-94355345D01*
X118236836Y-94378788D01*
X118278024Y-94430791D01*
X118303418Y-94462284D01*
X118320662Y-94477648D01*
X118337798Y-94479996D01*
X118362873Y-94472437D01*
X118374643Y-94468161D01*
X118422630Y-94461851D01*
X118466576Y-94475376D01*
X118498840Y-94505930D01*
X118504081Y-94515672D01*
X118509788Y-94541478D01*
X118514194Y-94589037D01*
X118517089Y-94654978D01*
X118518269Y-94735930D01*
X118518286Y-94747446D01*
X118518286Y-94948042D01*
X118656603Y-94948042D01*
X118656603Y-94331903D01*
X118587444Y-94331903D01*
X118547567Y-94332945D01*
X118526793Y-94337578D01*
X118519111Y-94348069D01*
X118518286Y-94357965D01*
X118518286Y-94384026D01*
X118485155Y-94357965D01*
X118447165Y-94340185D01*
X118396130Y-94331394D01*
X118341645Y-94331706D01*
X118341645Y-94331706D01*
G37*
X118341645Y-94331706D02*
X118293305Y-94341235D01*
X118265786Y-94355345D01*
X118236836Y-94378788D01*
X118278024Y-94430791D01*
X118303418Y-94462284D01*
X118320662Y-94477648D01*
X118337798Y-94479996D01*
X118362873Y-94472437D01*
X118374643Y-94468161D01*
X118422630Y-94461851D01*
X118466576Y-94475376D01*
X118498840Y-94505930D01*
X118504081Y-94515672D01*
X118509788Y-94541478D01*
X118514194Y-94589037D01*
X118517089Y-94654978D01*
X118518269Y-94735930D01*
X118518286Y-94747446D01*
X118518286Y-94948042D01*
X118656603Y-94948042D01*
X118656603Y-94331903D01*
X118587444Y-94331903D01*
X118547567Y-94332945D01*
X118526793Y-94337578D01*
X118519111Y-94348069D01*
X118518286Y-94357965D01*
X118518286Y-94384026D01*
X118485155Y-94357965D01*
X118447165Y-94340185D01*
X118396130Y-94331394D01*
X118341645Y-94331706D01*
G36*
X118938489Y-94335637D02*
X118885489Y-94348510D01*
X118870169Y-94355330D01*
X118840472Y-94373194D01*
X118817680Y-94393313D01*
X118800817Y-94419182D01*
X118788902Y-94454293D01*
X118780958Y-94502140D01*
X118776006Y-94566216D01*
X118773069Y-94650014D01*
X118771953Y-94705988D01*
X118767848Y-94948042D01*
X118837968Y-94948042D01*
X118880507Y-94946258D01*
X118902424Y-94940162D01*
X118908088Y-94929926D01*
X118911079Y-94918857D01*
X118924449Y-94920974D01*
X118942667Y-94929849D01*
X118988276Y-94943453D01*
X119046893Y-94947119D01*
X119108546Y-94941123D01*
X119163262Y-94925741D01*
X119168170Y-94923606D01*
X119218177Y-94888475D01*
X119251144Y-94839639D01*
X119266313Y-94782553D01*
X119265154Y-94762044D01*
X119141392Y-94762044D01*
X119130487Y-94789645D01*
X119098155Y-94809424D01*
X119045990Y-94820039D01*
X119018113Y-94821448D01*
X118971653Y-94817840D01*
X118940771Y-94803817D01*
X118933236Y-94797151D01*
X118912824Y-94760886D01*
X118908088Y-94727993D01*
X118908088Y-94683983D01*
X118969387Y-94683983D01*
X119040644Y-94687615D01*
X119090624Y-94699038D01*
X119122204Y-94719044D01*
X119129274Y-94727963D01*
X119141392Y-94762044D01*
X119265154Y-94762044D01*
X119262929Y-94722676D01*
X119240237Y-94665464D01*
X119209276Y-94626800D01*
X119190524Y-94610084D01*
X119172167Y-94599098D01*
X119148281Y-94592400D01*
X119112943Y-94588546D01*
X119060231Y-94586093D01*
X119039323Y-94585388D01*
X118908088Y-94581099D01*
X118908280Y-94541378D01*
X118913363Y-94499625D01*
X118931738Y-94474378D01*
X118968861Y-94458250D01*
X118969857Y-94457962D01*
X119022490Y-94451620D01*
X119073994Y-94459904D01*
X119112270Y-94480047D01*
X119127628Y-94489993D01*
X119144170Y-94488617D01*
X119169625Y-94474207D01*
X119184572Y-94464037D01*
X119213809Y-94442308D01*
X119231920Y-94426020D01*
X119234826Y-94421357D01*
X119222860Y-94397225D01*
X119187504Y-94368405D01*
X119172147Y-94358681D01*
X119127999Y-94341934D01*
X119068502Y-94332447D01*
X119002413Y-94330315D01*
X118938489Y-94335637D01*
X118938489Y-94335637D01*
G37*
X118938489Y-94335637D02*
X118885489Y-94348510D01*
X118870169Y-94355330D01*
X118840472Y-94373194D01*
X118817680Y-94393313D01*
X118800817Y-94419182D01*
X118788902Y-94454293D01*
X118780958Y-94502140D01*
X118776006Y-94566216D01*
X118773069Y-94650014D01*
X118771953Y-94705988D01*
X118767848Y-94948042D01*
X118837968Y-94948042D01*
X118880507Y-94946258D01*
X118902424Y-94940162D01*
X118908088Y-94929926D01*
X118911079Y-94918857D01*
X118924449Y-94920974D01*
X118942667Y-94929849D01*
X118988276Y-94943453D01*
X119046893Y-94947119D01*
X119108546Y-94941123D01*
X119163262Y-94925741D01*
X119168170Y-94923606D01*
X119218177Y-94888475D01*
X119251144Y-94839639D01*
X119266313Y-94782553D01*
X119265154Y-94762044D01*
X119141392Y-94762044D01*
X119130487Y-94789645D01*
X119098155Y-94809424D01*
X119045990Y-94820039D01*
X119018113Y-94821448D01*
X118971653Y-94817840D01*
X118940771Y-94803817D01*
X118933236Y-94797151D01*
X118912824Y-94760886D01*
X118908088Y-94727993D01*
X118908088Y-94683983D01*
X118969387Y-94683983D01*
X119040644Y-94687615D01*
X119090624Y-94699038D01*
X119122204Y-94719044D01*
X119129274Y-94727963D01*
X119141392Y-94762044D01*
X119265154Y-94762044D01*
X119262929Y-94722676D01*
X119240237Y-94665464D01*
X119209276Y-94626800D01*
X119190524Y-94610084D01*
X119172167Y-94599098D01*
X119148281Y-94592400D01*
X119112943Y-94588546D01*
X119060231Y-94586093D01*
X119039323Y-94585388D01*
X118908088Y-94581099D01*
X118908280Y-94541378D01*
X118913363Y-94499625D01*
X118931738Y-94474378D01*
X118968861Y-94458250D01*
X118969857Y-94457962D01*
X119022490Y-94451620D01*
X119073994Y-94459904D01*
X119112270Y-94480047D01*
X119127628Y-94489993D01*
X119144170Y-94488617D01*
X119169625Y-94474207D01*
X119184572Y-94464037D01*
X119213809Y-94442308D01*
X119231920Y-94426020D01*
X119234826Y-94421357D01*
X119222860Y-94397225D01*
X119187504Y-94368405D01*
X119172147Y-94358681D01*
X119127999Y-94341934D01*
X119068502Y-94332447D01*
X119002413Y-94330315D01*
X118938489Y-94335637D01*
G36*
X119695376Y-94334457D02*
X119645645Y-94338191D01*
X119515609Y-94727993D01*
X119495222Y-94658834D01*
X119482954Y-94616094D01*
X119466815Y-94558335D01*
X119449388Y-94494845D01*
X119440174Y-94460790D01*
X119405512Y-94331903D01*
X119262509Y-94331903D01*
X119305254Y-94467077D01*
X119326304Y-94533562D01*
X119351733Y-94613759D01*
X119378290Y-94697413D01*
X119401998Y-94772002D01*
X119455998Y-94941755D01*
X119514302Y-94945548D01*
X119572605Y-94949342D01*
X119604221Y-94844954D01*
X119623718Y-94780109D01*
X119644996Y-94708620D01*
X119663592Y-94645483D01*
X119664326Y-94642970D01*
X119678216Y-94600189D01*
X119690471Y-94570999D01*
X119699054Y-94559961D01*
X119700818Y-94561238D01*
X119707009Y-94578350D01*
X119718772Y-94615007D01*
X119734675Y-94666598D01*
X119753286Y-94728514D01*
X119763357Y-94762572D01*
X119817893Y-94948042D01*
X119933636Y-94948042D01*
X120026163Y-94655691D01*
X120052156Y-94573682D01*
X120075834Y-94499207D01*
X120096080Y-94435764D01*
X120111774Y-94386852D01*
X120121798Y-94355969D01*
X120124845Y-94346946D01*
X120122433Y-94337707D01*
X120103492Y-94333661D01*
X120064077Y-94334066D01*
X120057907Y-94334372D01*
X119984814Y-94338191D01*
X119936943Y-94514230D01*
X119919347Y-94578431D01*
X119903623Y-94634869D01*
X119891154Y-94678642D01*
X119883326Y-94704850D01*
X119881880Y-94709123D01*
X119875886Y-94704210D01*
X119863799Y-94678752D01*
X119847007Y-94636217D01*
X119826897Y-94580070D01*
X119809897Y-94529350D01*
X119745106Y-94330724D01*
X119695376Y-94334457D01*
X119695376Y-94334457D01*
G37*
X119695376Y-94334457D02*
X119645645Y-94338191D01*
X119515609Y-94727993D01*
X119495222Y-94658834D01*
X119482954Y-94616094D01*
X119466815Y-94558335D01*
X119449388Y-94494845D01*
X119440174Y-94460790D01*
X119405512Y-94331903D01*
X119262509Y-94331903D01*
X119305254Y-94467077D01*
X119326304Y-94533562D01*
X119351733Y-94613759D01*
X119378290Y-94697413D01*
X119401998Y-94772002D01*
X119455998Y-94941755D01*
X119514302Y-94945548D01*
X119572605Y-94949342D01*
X119604221Y-94844954D01*
X119623718Y-94780109D01*
X119644996Y-94708620D01*
X119663592Y-94645483D01*
X119664326Y-94642970D01*
X119678216Y-94600189D01*
X119690471Y-94570999D01*
X119699054Y-94559961D01*
X119700818Y-94561238D01*
X119707009Y-94578350D01*
X119718772Y-94615007D01*
X119734675Y-94666598D01*
X119753286Y-94728514D01*
X119763357Y-94762572D01*
X119817893Y-94948042D01*
X119933636Y-94948042D01*
X120026163Y-94655691D01*
X120052156Y-94573682D01*
X120075834Y-94499207D01*
X120096080Y-94435764D01*
X120111774Y-94386852D01*
X120121798Y-94355969D01*
X120124845Y-94346946D01*
X120122433Y-94337707D01*
X120103492Y-94333661D01*
X120064077Y-94334066D01*
X120057907Y-94334372D01*
X119984814Y-94338191D01*
X119936943Y-94514230D01*
X119919347Y-94578431D01*
X119903623Y-94634869D01*
X119891154Y-94678642D01*
X119883326Y-94704850D01*
X119881880Y-94709123D01*
X119875886Y-94704210D01*
X119863799Y-94678752D01*
X119847007Y-94636217D01*
X119826897Y-94580070D01*
X119809897Y-94529350D01*
X119745106Y-94330724D01*
X119695376Y-94334457D01*
G36*
X120178088Y-94948042D02*
X120247246Y-94948042D01*
X120287388Y-94946865D01*
X120308294Y-94941992D01*
X120315822Y-94931406D01*
X120316405Y-94924249D01*
X120317674Y-94909896D01*
X120325679Y-94907143D01*
X120346715Y-94915991D01*
X120363073Y-94924249D01*
X120425877Y-94943817D01*
X120494148Y-94944949D01*
X120549652Y-94930355D01*
X120601338Y-94895097D01*
X120640738Y-94843055D01*
X120662313Y-94781670D01*
X120662862Y-94778238D01*
X120666067Y-94740791D01*
X120667661Y-94687033D01*
X120667533Y-94646375D01*
X120530179Y-94646375D01*
X120526997Y-94700414D01*
X120519759Y-94744955D01*
X120509960Y-94770108D01*
X120472889Y-94804480D01*
X120428874Y-94816802D01*
X120383484Y-94806838D01*
X120344697Y-94777115D01*
X120330008Y-94757125D01*
X120321419Y-94733270D01*
X120317396Y-94698450D01*
X120316405Y-94646150D01*
X120318178Y-94594359D01*
X120322863Y-94548854D01*
X120329503Y-94518401D01*
X120330610Y-94515672D01*
X120357391Y-94483220D01*
X120396479Y-94465403D01*
X120440215Y-94462526D01*
X120480938Y-94474894D01*
X120510987Y-94502813D01*
X120514104Y-94508368D01*
X120523861Y-94542242D01*
X120529177Y-94590948D01*
X120530179Y-94646375D01*
X120667533Y-94646375D01*
X120667468Y-94625760D01*
X120666564Y-94592783D01*
X120660414Y-94511201D01*
X120647633Y-94449950D01*
X120626371Y-94404669D01*
X120594778Y-94370999D01*
X120564107Y-94351234D01*
X120521254Y-94337340D01*
X120467956Y-94332574D01*
X120413380Y-94336456D01*
X120366692Y-94348502D01*
X120342024Y-94362913D01*
X120316405Y-94386098D01*
X120316405Y-94092993D01*
X120178088Y-94092993D01*
X120178088Y-94948042D01*
X120178088Y-94948042D01*
G37*
X120178088Y-94948042D02*
X120247246Y-94948042D01*
X120287388Y-94946865D01*
X120308294Y-94941992D01*
X120315822Y-94931406D01*
X120316405Y-94924249D01*
X120317674Y-94909896D01*
X120325679Y-94907143D01*
X120346715Y-94915991D01*
X120363073Y-94924249D01*
X120425877Y-94943817D01*
X120494148Y-94944949D01*
X120549652Y-94930355D01*
X120601338Y-94895097D01*
X120640738Y-94843055D01*
X120662313Y-94781670D01*
X120662862Y-94778238D01*
X120666067Y-94740791D01*
X120667661Y-94687033D01*
X120667533Y-94646375D01*
X120530179Y-94646375D01*
X120526997Y-94700414D01*
X120519759Y-94744955D01*
X120509960Y-94770108D01*
X120472889Y-94804480D01*
X120428874Y-94816802D01*
X120383484Y-94806838D01*
X120344697Y-94777115D01*
X120330008Y-94757125D01*
X120321419Y-94733270D01*
X120317396Y-94698450D01*
X120316405Y-94646150D01*
X120318178Y-94594359D01*
X120322863Y-94548854D01*
X120329503Y-94518401D01*
X120330610Y-94515672D01*
X120357391Y-94483220D01*
X120396479Y-94465403D01*
X120440215Y-94462526D01*
X120480938Y-94474894D01*
X120510987Y-94502813D01*
X120514104Y-94508368D01*
X120523861Y-94542242D01*
X120529177Y-94590948D01*
X120530179Y-94646375D01*
X120667533Y-94646375D01*
X120667468Y-94625760D01*
X120666564Y-94592783D01*
X120660414Y-94511201D01*
X120647633Y-94449950D01*
X120626371Y-94404669D01*
X120594778Y-94370999D01*
X120564107Y-94351234D01*
X120521254Y-94337340D01*
X120467956Y-94332574D01*
X120413380Y-94336456D01*
X120366692Y-94348502D01*
X120342024Y-94362913D01*
X120316405Y-94386098D01*
X120316405Y-94092993D01*
X120178088Y-94092993D01*
X120178088Y-94948042D01*
G36*
X120970256Y-94333240D02*
X120951439Y-94338880D01*
X120945373Y-94351273D01*
X120945118Y-94356867D01*
X120944029Y-94372450D01*
X120936532Y-94374896D01*
X120916281Y-94364213D01*
X120904251Y-94356914D01*
X120866300Y-94341283D01*
X120820972Y-94333554D01*
X120773444Y-94332960D01*
X120728895Y-94338733D01*
X120692502Y-94350104D01*
X120669443Y-94366308D01*
X120664896Y-94386575D01*
X120667191Y-94392063D01*
X120683920Y-94414846D01*
X120709863Y-94442867D01*
X120714555Y-94447397D01*
X120739283Y-94468225D01*
X120760618Y-94474955D01*
X120790455Y-94470258D01*
X120802408Y-94467137D01*
X120839605Y-94459641D01*
X120865759Y-94463012D01*
X120887846Y-94474901D01*
X120908078Y-94490855D01*
X120922979Y-94510920D01*
X120933334Y-94538922D01*
X120939929Y-94578687D01*
X120943549Y-94634043D01*
X120944978Y-94708814D01*
X120945118Y-94753960D01*
X120945118Y-94948042D01*
X121070860Y-94948042D01*
X121070860Y-94331903D01*
X121007989Y-94331903D01*
X120970256Y-94333240D01*
X120970256Y-94333240D01*
G37*
X120970256Y-94333240D02*
X120951439Y-94338880D01*
X120945373Y-94351273D01*
X120945118Y-94356867D01*
X120944029Y-94372450D01*
X120936532Y-94374896D01*
X120916281Y-94364213D01*
X120904251Y-94356914D01*
X120866300Y-94341283D01*
X120820972Y-94333554D01*
X120773444Y-94332960D01*
X120728895Y-94338733D01*
X120692502Y-94350104D01*
X120669443Y-94366308D01*
X120664896Y-94386575D01*
X120667191Y-94392063D01*
X120683920Y-94414846D01*
X120709863Y-94442867D01*
X120714555Y-94447397D01*
X120739283Y-94468225D01*
X120760618Y-94474955D01*
X120790455Y-94470258D01*
X120802408Y-94467137D01*
X120839605Y-94459641D01*
X120865759Y-94463012D01*
X120887846Y-94474901D01*
X120908078Y-94490855D01*
X120922979Y-94510920D01*
X120933334Y-94538922D01*
X120939929Y-94578687D01*
X120943549Y-94634043D01*
X120944978Y-94708814D01*
X120945118Y-94753960D01*
X120945118Y-94948042D01*
X121070860Y-94948042D01*
X121070860Y-94331903D01*
X121007989Y-94331903D01*
X120970256Y-94333240D01*
G36*
X121361110Y-94336775D02*
X121301955Y-94352559D01*
X121256923Y-94381168D01*
X121225146Y-94418639D01*
X121215266Y-94434631D01*
X121207973Y-94451383D01*
X121202874Y-94472812D01*
X121199579Y-94502836D01*
X121197697Y-94545374D01*
X121196837Y-94604342D01*
X121196607Y-94683660D01*
X121196603Y-94704704D01*
X121196603Y-94948042D01*
X121256959Y-94948042D01*
X121295457Y-94945346D01*
X121323923Y-94938515D01*
X121331055Y-94934303D01*
X121350552Y-94927033D01*
X121370466Y-94934303D01*
X121403253Y-94943380D01*
X121450878Y-94947033D01*
X121503664Y-94945448D01*
X121551936Y-94938809D01*
X121580118Y-94930292D01*
X121634653Y-94895283D01*
X121668735Y-94846699D01*
X121684057Y-94782102D01*
X121684199Y-94780443D01*
X121682855Y-94751786D01*
X121561256Y-94751786D01*
X121550626Y-94784381D01*
X121533310Y-94802725D01*
X121498552Y-94816599D01*
X121452673Y-94822137D01*
X121405888Y-94819411D01*
X121368414Y-94808494D01*
X121357915Y-94801489D01*
X121339568Y-94769124D01*
X121334920Y-94732331D01*
X121334920Y-94683983D01*
X121404482Y-94683983D01*
X121470567Y-94689070D01*
X121520664Y-94703483D01*
X121551829Y-94725949D01*
X121561256Y-94751786D01*
X121682855Y-94751786D01*
X121680887Y-94709867D01*
X121657610Y-94654065D01*
X121613848Y-94611867D01*
X121607799Y-94608028D01*
X121581807Y-94595529D01*
X121549635Y-94587960D01*
X121504660Y-94584281D01*
X121451231Y-94583436D01*
X121334920Y-94583389D01*
X121334920Y-94534631D01*
X121339853Y-94496801D01*
X121352443Y-94471456D01*
X121353917Y-94470107D01*
X121381934Y-94459020D01*
X121424226Y-94454723D01*
X121470964Y-94456835D01*
X121512318Y-94464976D01*
X121536857Y-94477185D01*
X121550153Y-94486966D01*
X121564194Y-94488833D01*
X121583571Y-94480820D01*
X121612876Y-94460959D01*
X121656703Y-94427283D01*
X121660725Y-94424129D01*
X121658664Y-94412456D01*
X121641468Y-94393042D01*
X121615333Y-94371468D01*
X121586452Y-94353316D01*
X121577378Y-94349029D01*
X121544280Y-94340476D01*
X121495780Y-94334375D01*
X121441595Y-94331928D01*
X121439061Y-94331923D01*
X121361110Y-94336775D01*
X121361110Y-94336775D01*
G37*
X121361110Y-94336775D02*
X121301955Y-94352559D01*
X121256923Y-94381168D01*
X121225146Y-94418639D01*
X121215266Y-94434631D01*
X121207973Y-94451383D01*
X121202874Y-94472812D01*
X121199579Y-94502836D01*
X121197697Y-94545374D01*
X121196837Y-94604342D01*
X121196607Y-94683660D01*
X121196603Y-94704704D01*
X121196603Y-94948042D01*
X121256959Y-94948042D01*
X121295457Y-94945346D01*
X121323923Y-94938515D01*
X121331055Y-94934303D01*
X121350552Y-94927033D01*
X121370466Y-94934303D01*
X121403253Y-94943380D01*
X121450878Y-94947033D01*
X121503664Y-94945448D01*
X121551936Y-94938809D01*
X121580118Y-94930292D01*
X121634653Y-94895283D01*
X121668735Y-94846699D01*
X121684057Y-94782102D01*
X121684199Y-94780443D01*
X121682855Y-94751786D01*
X121561256Y-94751786D01*
X121550626Y-94784381D01*
X121533310Y-94802725D01*
X121498552Y-94816599D01*
X121452673Y-94822137D01*
X121405888Y-94819411D01*
X121368414Y-94808494D01*
X121357915Y-94801489D01*
X121339568Y-94769124D01*
X121334920Y-94732331D01*
X121334920Y-94683983D01*
X121404482Y-94683983D01*
X121470567Y-94689070D01*
X121520664Y-94703483D01*
X121551829Y-94725949D01*
X121561256Y-94751786D01*
X121682855Y-94751786D01*
X121680887Y-94709867D01*
X121657610Y-94654065D01*
X121613848Y-94611867D01*
X121607799Y-94608028D01*
X121581807Y-94595529D01*
X121549635Y-94587960D01*
X121504660Y-94584281D01*
X121451231Y-94583436D01*
X121334920Y-94583389D01*
X121334920Y-94534631D01*
X121339853Y-94496801D01*
X121352443Y-94471456D01*
X121353917Y-94470107D01*
X121381934Y-94459020D01*
X121424226Y-94454723D01*
X121470964Y-94456835D01*
X121512318Y-94464976D01*
X121536857Y-94477185D01*
X121550153Y-94486966D01*
X121564194Y-94488833D01*
X121583571Y-94480820D01*
X121612876Y-94460959D01*
X121656703Y-94427283D01*
X121660725Y-94424129D01*
X121658664Y-94412456D01*
X121641468Y-94393042D01*
X121615333Y-94371468D01*
X121586452Y-94353316D01*
X121577378Y-94349029D01*
X121544280Y-94340476D01*
X121495780Y-94334375D01*
X121441595Y-94331928D01*
X121439061Y-94331923D01*
X121361110Y-94336775D01*
G36*
X121885659Y-93399404D02*
X121859147Y-93412502D01*
X121826453Y-93435326D01*
X121802625Y-93460216D01*
X121786306Y-93491469D01*
X121776140Y-93533386D01*
X121770772Y-93590264D01*
X121768844Y-93666404D01*
X121768731Y-93699137D01*
X121769061Y-93770876D01*
X121770427Y-93822147D01*
X121773400Y-93857624D01*
X121778549Y-93881983D01*
X121786443Y-93899900D01*
X121794657Y-93912122D01*
X121847087Y-93964125D01*
X121908830Y-93995404D01*
X121975436Y-94004812D01*
X122042458Y-93991200D01*
X122063692Y-93981574D01*
X122114524Y-93955079D01*
X122114524Y-94370272D01*
X122077425Y-94351088D01*
X122028543Y-94336245D01*
X121968461Y-94332442D01*
X121908464Y-94339463D01*
X121863156Y-94355233D01*
X121825575Y-94385267D01*
X121793464Y-94428244D01*
X121791050Y-94432656D01*
X121780867Y-94453441D01*
X121773430Y-94474390D01*
X121768311Y-94499768D01*
X121765081Y-94533838D01*
X121763313Y-94580861D01*
X121762577Y-94645102D01*
X121762444Y-94717396D01*
X121762444Y-94948042D01*
X121900761Y-94948042D01*
X121900761Y-94522753D01*
X121939449Y-94490199D01*
X121979638Y-94464160D01*
X122017697Y-94459425D01*
X122055966Y-94471609D01*
X122076362Y-94483540D01*
X122091542Y-94500533D01*
X122102338Y-94526215D01*
X122109583Y-94564211D01*
X122114108Y-94618146D01*
X122116744Y-94691645D01*
X122117672Y-94740567D01*
X122120811Y-94941755D01*
X122186826Y-94945556D01*
X122252840Y-94949356D01*
X122252840Y-93700870D01*
X122114524Y-93700870D01*
X122110997Y-93770474D01*
X122099115Y-93818789D01*
X122076920Y-93848851D01*
X122042459Y-93863691D01*
X122007642Y-93866656D01*
X121968229Y-93863248D01*
X121942071Y-93849837D01*
X121925714Y-93832116D01*
X121912837Y-93813055D01*
X121905172Y-93791821D01*
X121901761Y-93762069D01*
X121901649Y-93717456D01*
X121902797Y-93680100D01*
X121905432Y-93623824D01*
X121909356Y-93586878D01*
X121915963Y-93563443D01*
X121926649Y-93547700D01*
X121936733Y-93538600D01*
X121978870Y-93518757D01*
X122028740Y-93515552D01*
X122057376Y-93522388D01*
X122085728Y-93546684D01*
X122104509Y-93593948D01*
X122113612Y-93663844D01*
X122114524Y-93700870D01*
X122252840Y-93700870D01*
X122252840Y-93388834D01*
X122183682Y-93388834D01*
X122142160Y-93390476D01*
X122120738Y-93396307D01*
X122114526Y-93407681D01*
X122114524Y-93408018D01*
X122111642Y-93419158D01*
X122098930Y-93417893D01*
X122073657Y-93405653D01*
X122014769Y-93386927D01*
X121948515Y-93384959D01*
X121885659Y-93399404D01*
X121885659Y-93399404D01*
G37*
X121885659Y-93399404D02*
X121859147Y-93412502D01*
X121826453Y-93435326D01*
X121802625Y-93460216D01*
X121786306Y-93491469D01*
X121776140Y-93533386D01*
X121770772Y-93590264D01*
X121768844Y-93666404D01*
X121768731Y-93699137D01*
X121769061Y-93770876D01*
X121770427Y-93822147D01*
X121773400Y-93857624D01*
X121778549Y-93881983D01*
X121786443Y-93899900D01*
X121794657Y-93912122D01*
X121847087Y-93964125D01*
X121908830Y-93995404D01*
X121975436Y-94004812D01*
X122042458Y-93991200D01*
X122063692Y-93981574D01*
X122114524Y-93955079D01*
X122114524Y-94370272D01*
X122077425Y-94351088D01*
X122028543Y-94336245D01*
X121968461Y-94332442D01*
X121908464Y-94339463D01*
X121863156Y-94355233D01*
X121825575Y-94385267D01*
X121793464Y-94428244D01*
X121791050Y-94432656D01*
X121780867Y-94453441D01*
X121773430Y-94474390D01*
X121768311Y-94499768D01*
X121765081Y-94533838D01*
X121763313Y-94580861D01*
X121762577Y-94645102D01*
X121762444Y-94717396D01*
X121762444Y-94948042D01*
X121900761Y-94948042D01*
X121900761Y-94522753D01*
X121939449Y-94490199D01*
X121979638Y-94464160D01*
X122017697Y-94459425D01*
X122055966Y-94471609D01*
X122076362Y-94483540D01*
X122091542Y-94500533D01*
X122102338Y-94526215D01*
X122109583Y-94564211D01*
X122114108Y-94618146D01*
X122116744Y-94691645D01*
X122117672Y-94740567D01*
X122120811Y-94941755D01*
X122186826Y-94945556D01*
X122252840Y-94949356D01*
X122252840Y-93700870D01*
X122114524Y-93700870D01*
X122110997Y-93770474D01*
X122099115Y-93818789D01*
X122076920Y-93848851D01*
X122042459Y-93863691D01*
X122007642Y-93866656D01*
X121968229Y-93863248D01*
X121942071Y-93849837D01*
X121925714Y-93832116D01*
X121912837Y-93813055D01*
X121905172Y-93791821D01*
X121901761Y-93762069D01*
X121901649Y-93717456D01*
X121902797Y-93680100D01*
X121905432Y-93623824D01*
X121909356Y-93586878D01*
X121915963Y-93563443D01*
X121926649Y-93547700D01*
X121936733Y-93538600D01*
X121978870Y-93518757D01*
X122028740Y-93515552D01*
X122057376Y-93522388D01*
X122085728Y-93546684D01*
X122104509Y-93593948D01*
X122113612Y-93663844D01*
X122114524Y-93700870D01*
X122252840Y-93700870D01*
X122252840Y-93388834D01*
X122183682Y-93388834D01*
X122142160Y-93390476D01*
X122120738Y-93396307D01*
X122114526Y-93407681D01*
X122114524Y-93408018D01*
X122111642Y-93419158D01*
X122098930Y-93417893D01*
X122073657Y-93405653D01*
X122014769Y-93386927D01*
X121948515Y-93384959D01*
X121885659Y-93399404D01*
D12*
G04 #@! TO.C,J1*
X125185000Y-98448800D02*
X125185000Y-99778800D01*
X126515000Y-98448800D02*
X125185000Y-98448800D01*
X127785000Y-98448800D02*
X127785000Y-101108800D01*
X127785000Y-101108800D02*
X138005000Y-101108800D01*
X127785000Y-98448800D02*
X138005000Y-98448800D01*
X138005000Y-98448800D02*
X138005000Y-101108800D01*
G04 #@! TO.C,J2*
X138005000Y-85903800D02*
X138005000Y-88563800D01*
X127785000Y-85903800D02*
X138005000Y-85903800D01*
X127785000Y-88563800D02*
X138005000Y-88563800D01*
X127785000Y-85903800D02*
X127785000Y-88563800D01*
X126515000Y-85903800D02*
X125185000Y-85903800D01*
X125185000Y-85903800D02*
X125185000Y-87233800D01*
G04 #@! TO.C,C1*
X131070000Y-95090700D02*
X131070000Y-91180700D01*
X131070000Y-91180700D02*
X132940000Y-91180700D01*
X132940000Y-91180700D02*
X132940000Y-95090700D01*
G04 #@! TO.C,C2*
X139683000Y-93200522D02*
X139683000Y-93717678D01*
X141103000Y-93200522D02*
X141103000Y-93717678D01*
G04 #@! TO.C,R1*
X124742422Y-95469500D02*
X125259578Y-95469500D01*
X124742422Y-96889500D02*
X125259578Y-96889500D01*
G04 #@! TO.C,R2*
X124742422Y-91467000D02*
X125259578Y-91467000D01*
X124742422Y-90047000D02*
X125259578Y-90047000D01*
G04 #@! TO.C,R3*
X124742422Y-94178200D02*
X125259578Y-94178200D01*
X124742422Y-92758200D02*
X125259578Y-92758200D01*
G04 #@! TO.C,R4*
X128967000Y-91158722D02*
X128967000Y-91675878D01*
X130387000Y-91158722D02*
X130387000Y-91675878D01*
G04 #@! TO.C,R5*
X128967000Y-95777578D02*
X128967000Y-95260422D01*
X130387000Y-95777578D02*
X130387000Y-95260422D01*
G04 #@! TO.C,U1*
X134834000Y-94585600D02*
X134834000Y-95785600D01*
X134834000Y-95785600D02*
X137534000Y-95785600D01*
X138834000Y-90985600D02*
X134834000Y-90985600D01*
X134834000Y-90985600D02*
X134834000Y-92185600D01*
G04 #@! TO.C,C1*
D13*
X132217054Y-93335786D02*
X132255149Y-93297691D01*
X132293244Y-93183405D01*
X132293244Y-93107215D01*
X132255149Y-92992929D01*
X132178959Y-92916739D01*
X132102768Y-92878643D01*
X131950387Y-92840548D01*
X131836101Y-92840548D01*
X131683720Y-92878643D01*
X131607530Y-92916739D01*
X131531340Y-92992929D01*
X131493244Y-93107215D01*
X131493244Y-93183405D01*
X131531340Y-93297691D01*
X131569435Y-93335786D01*
X132293244Y-94097691D02*
X132293244Y-93640548D01*
X132293244Y-93869120D02*
X131493244Y-93869120D01*
X131607530Y-93792929D01*
X131683720Y-93716739D01*
X131721816Y-93640548D01*
G04 #@! TO.C,C2*
D14*
X140586811Y-93355446D02*
X140610620Y-93331637D01*
X140634430Y-93260208D01*
X140634430Y-93212589D01*
X140610620Y-93141160D01*
X140563001Y-93093541D01*
X140515382Y-93069732D01*
X140420144Y-93045922D01*
X140348716Y-93045922D01*
X140253478Y-93069732D01*
X140205859Y-93093541D01*
X140158240Y-93141160D01*
X140134430Y-93212589D01*
X140134430Y-93260208D01*
X140158240Y-93331637D01*
X140182049Y-93355446D01*
X140182049Y-93545922D02*
X140158240Y-93569732D01*
X140134430Y-93617351D01*
X140134430Y-93736399D01*
X140158240Y-93784018D01*
X140182049Y-93807827D01*
X140229668Y-93831637D01*
X140277287Y-93831637D01*
X140348716Y-93807827D01*
X140634430Y-93522113D01*
X140634430Y-93831637D01*
G04 #@! TO.C,R1*
X125144552Y-96419951D02*
X125311219Y-96181856D01*
X125430266Y-96419951D02*
X125430266Y-95919951D01*
X125239790Y-95919951D01*
X125192171Y-95943761D01*
X125168361Y-95967570D01*
X125144552Y-96015189D01*
X125144552Y-96086618D01*
X125168361Y-96134237D01*
X125192171Y-96158046D01*
X125239790Y-96181856D01*
X125430266Y-96181856D01*
X124668361Y-96419951D02*
X124954076Y-96419951D01*
X124811219Y-96419951D02*
X124811219Y-95919951D01*
X124858838Y-95991380D01*
X124906457Y-96038999D01*
X124954076Y-96062808D01*
G04 #@! TO.C,R2*
X125089653Y-90978110D02*
X125256320Y-90740015D01*
X125375367Y-90978110D02*
X125375367Y-90478110D01*
X125184891Y-90478110D01*
X125137272Y-90501920D01*
X125113462Y-90525729D01*
X125089653Y-90573348D01*
X125089653Y-90644777D01*
X125113462Y-90692396D01*
X125137272Y-90716205D01*
X125184891Y-90740015D01*
X125375367Y-90740015D01*
X124899177Y-90525729D02*
X124875367Y-90501920D01*
X124827748Y-90478110D01*
X124708700Y-90478110D01*
X124661081Y-90501920D01*
X124637272Y-90525729D01*
X124613462Y-90573348D01*
X124613462Y-90620967D01*
X124637272Y-90692396D01*
X124922986Y-90978110D01*
X124613462Y-90978110D01*
G04 #@! TO.C,R3*
X125076713Y-93798530D02*
X125243380Y-93560435D01*
X125362427Y-93798530D02*
X125362427Y-93298530D01*
X125171951Y-93298530D01*
X125124332Y-93322340D01*
X125100522Y-93346149D01*
X125076713Y-93393768D01*
X125076713Y-93465197D01*
X125100522Y-93512816D01*
X125124332Y-93536625D01*
X125171951Y-93560435D01*
X125362427Y-93560435D01*
X124910046Y-93298530D02*
X124600522Y-93298530D01*
X124767189Y-93489006D01*
X124695760Y-93489006D01*
X124648141Y-93512816D01*
X124624332Y-93536625D01*
X124600522Y-93584244D01*
X124600522Y-93703292D01*
X124624332Y-93750911D01*
X124648141Y-93774720D01*
X124695760Y-93798530D01*
X124838618Y-93798530D01*
X124886237Y-93774720D01*
X124910046Y-93750911D01*
G04 #@! TO.C,R4*
X129890490Y-91331426D02*
X129652395Y-91164760D01*
X129890490Y-91045712D02*
X129390490Y-91045712D01*
X129390490Y-91236188D01*
X129414300Y-91283807D01*
X129438109Y-91307617D01*
X129485728Y-91331426D01*
X129557157Y-91331426D01*
X129604776Y-91307617D01*
X129628585Y-91283807D01*
X129652395Y-91236188D01*
X129652395Y-91045712D01*
X129557157Y-91759998D02*
X129890490Y-91759998D01*
X129366680Y-91640950D02*
X129723823Y-91521902D01*
X129723823Y-91831426D01*
G04 #@! TO.C,R5*
X129917451Y-95386927D02*
X129679356Y-95220261D01*
X129917451Y-95101213D02*
X129417451Y-95101213D01*
X129417451Y-95291689D01*
X129441261Y-95339308D01*
X129465070Y-95363118D01*
X129512689Y-95386927D01*
X129584118Y-95386927D01*
X129631737Y-95363118D01*
X129655546Y-95339308D01*
X129679356Y-95291689D01*
X129679356Y-95101213D01*
X129417451Y-95839308D02*
X129417451Y-95601213D01*
X129655546Y-95577403D01*
X129631737Y-95601213D01*
X129607927Y-95648832D01*
X129607927Y-95767880D01*
X129631737Y-95815499D01*
X129655546Y-95839308D01*
X129703165Y-95863118D01*
X129822213Y-95863118D01*
X129869832Y-95839308D01*
X129893641Y-95815499D01*
X129917451Y-95767880D01*
X129917451Y-95648832D01*
X129893641Y-95601213D01*
X129869832Y-95577403D01*
G04 #@! TO.C,U1*
D13*
X136428503Y-91131404D02*
X136428503Y-91779023D01*
X136390408Y-91855214D01*
X136352313Y-91893309D01*
X136276122Y-91931404D01*
X136123741Y-91931404D01*
X136047551Y-91893309D01*
X136009456Y-91855214D01*
X135971360Y-91779023D01*
X135971360Y-91131404D01*
X135171360Y-91931404D02*
X135628503Y-91931404D01*
X135399932Y-91931404D02*
X135399932Y-91131404D01*
X135476122Y-91245690D01*
X135552313Y-91321880D01*
X135628503Y-91359976D01*
G04 #@! TD*
M02*
