G04 #@! TF.GenerationSoftware,KiCad,Pcbnew,(5.0.0)*
G04 #@! TF.CreationDate,2018-09-11T18:50:04-05:00*
G04 #@! TF.ProjectId,mini-attinyuino,6D696E692D617474696E7975696E6F2E,1.0*
G04 #@! TF.SameCoordinates,Original*
G04 #@! TF.FileFunction,Copper,L1,Top,Signal*
G04 #@! TF.FilePolarity,Positive*
%FSLAX46Y46*%
G04 Gerber Fmt 4.6, Leading zero omitted, Abs format (unit mm)*
G04 Created by KiCad (PCBNEW (5.0.0)) date 09/11/18 18:50:04*
%MOMM*%
%LPD*%
G01*
G04 APERTURE LIST*
G04 #@! TA.AperFunction,SMDPad,CuDef*
%ADD10R,0.650000X1.050000*%
G04 #@! TD*
G04 #@! TA.AperFunction,ComponentPad*
%ADD11O,1.700000X1.700000*%
G04 #@! TD*
G04 #@! TA.AperFunction,ComponentPad*
%ADD12R,1.700000X1.700000*%
G04 #@! TD*
G04 #@! TA.AperFunction,SMDPad,CuDef*
%ADD13R,1.300000X1.700000*%
G04 #@! TD*
G04 #@! TA.AperFunction,SMDPad,CuDef*
%ADD14R,0.500000X0.500000*%
G04 #@! TD*
G04 #@! TA.AperFunction,Conductor*
%ADD15C,0.127000*%
G04 #@! TD*
G04 #@! TA.AperFunction,SMDPad,CuDef*
%ADD16C,0.975000*%
G04 #@! TD*
G04 #@! TA.AperFunction,SMDPad,CuDef*
%ADD17R,1.900000X1.800000*%
G04 #@! TD*
G04 #@! TA.AperFunction,SMDPad,CuDef*
%ADD18R,1.900000X1.900000*%
G04 #@! TD*
G04 #@! TA.AperFunction,SMDPad,CuDef*
%ADD19R,1.350000X0.400000*%
G04 #@! TD*
G04 #@! TA.AperFunction,SMDPad,CuDef*
%ADD20R,1.700000X0.650000*%
G04 #@! TD*
G04 #@! TA.AperFunction,ViaPad*
%ADD21C,0.685800*%
G04 #@! TD*
G04 #@! TA.AperFunction,Conductor*
%ADD22C,0.300000*%
G04 #@! TD*
G04 #@! TA.AperFunction,Conductor*
%ADD23C,0.254000*%
G04 #@! TD*
G04 APERTURE END LIST*
D10*
G04 #@! TO.P,SW1,1*
G04 #@! TO.N,GND*
X138815000Y-95563500D03*
X138815000Y-91413500D03*
G04 #@! TO.P,SW1,2*
G04 #@! TO.N,/PG5*
X140965000Y-95563500D03*
X140965000Y-91413500D03*
G04 #@! TD*
D11*
G04 #@! TO.P,J1,5*
G04 #@! TO.N,+5V*
X136675000Y-99778800D03*
G04 #@! TO.P,J1,4*
G04 #@! TO.N,/PG3*
X134135000Y-99778800D03*
G04 #@! TO.P,J1,3*
G04 #@! TO.N,/PG1*
X131595000Y-99778800D03*
G04 #@! TO.P,J1,2*
G04 #@! TO.N,/PG4*
X129055000Y-99778800D03*
D12*
G04 #@! TO.P,J1,1*
G04 #@! TO.N,VBUS*
X126515000Y-99778800D03*
G04 #@! TD*
G04 #@! TO.P,J2,1*
G04 #@! TO.N,VCC*
X126515000Y-87233800D03*
D11*
G04 #@! TO.P,J2,2*
G04 #@! TO.N,GND*
X129055000Y-87233800D03*
G04 #@! TO.P,J2,3*
G04 #@! TO.N,Net-(J2-Pad3)*
X131595000Y-87233800D03*
G04 #@! TO.P,J2,4*
G04 #@! TO.N,Net-(J2-Pad4)*
X134135000Y-87233800D03*
G04 #@! TO.P,J2,5*
G04 #@! TO.N,/PG5*
X136675000Y-87233800D03*
G04 #@! TD*
D13*
G04 #@! TO.P,D4,1*
G04 #@! TO.N,Net-(D4-Pad1)*
X123419000Y-93526500D03*
G04 #@! TO.P,D4,2*
G04 #@! TO.N,GND*
X126919000Y-93526500D03*
G04 #@! TD*
D14*
G04 #@! TO.P,D2,1*
G04 #@! TO.N,+5V*
X126269000Y-91008200D03*
G04 #@! TO.P,D2,2*
G04 #@! TO.N,VBUS*
X124069000Y-91008200D03*
G04 #@! TD*
D15*
G04 #@! TO.N,Net-(D3-Pad1)*
G04 #@! TO.C,D3*
G36*
X119332142Y-86529874D02*
X119355803Y-86533384D01*
X119379007Y-86539196D01*
X119401529Y-86547254D01*
X119423153Y-86557482D01*
X119443670Y-86569779D01*
X119462883Y-86584029D01*
X119480607Y-86600093D01*
X119496671Y-86617817D01*
X119510921Y-86637030D01*
X119523218Y-86657547D01*
X119533446Y-86679171D01*
X119541504Y-86701693D01*
X119547316Y-86724897D01*
X119550826Y-86748558D01*
X119552000Y-86772450D01*
X119552000Y-87684950D01*
X119550826Y-87708842D01*
X119547316Y-87732503D01*
X119541504Y-87755707D01*
X119533446Y-87778229D01*
X119523218Y-87799853D01*
X119510921Y-87820370D01*
X119496671Y-87839583D01*
X119480607Y-87857307D01*
X119462883Y-87873371D01*
X119443670Y-87887621D01*
X119423153Y-87899918D01*
X119401529Y-87910146D01*
X119379007Y-87918204D01*
X119355803Y-87924016D01*
X119332142Y-87927526D01*
X119308250Y-87928700D01*
X118820750Y-87928700D01*
X118796858Y-87927526D01*
X118773197Y-87924016D01*
X118749993Y-87918204D01*
X118727471Y-87910146D01*
X118705847Y-87899918D01*
X118685330Y-87887621D01*
X118666117Y-87873371D01*
X118648393Y-87857307D01*
X118632329Y-87839583D01*
X118618079Y-87820370D01*
X118605782Y-87799853D01*
X118595554Y-87778229D01*
X118587496Y-87755707D01*
X118581684Y-87732503D01*
X118578174Y-87708842D01*
X118577000Y-87684950D01*
X118577000Y-86772450D01*
X118578174Y-86748558D01*
X118581684Y-86724897D01*
X118587496Y-86701693D01*
X118595554Y-86679171D01*
X118605782Y-86657547D01*
X118618079Y-86637030D01*
X118632329Y-86617817D01*
X118648393Y-86600093D01*
X118666117Y-86584029D01*
X118685330Y-86569779D01*
X118705847Y-86557482D01*
X118727471Y-86547254D01*
X118749993Y-86539196D01*
X118773197Y-86533384D01*
X118796858Y-86529874D01*
X118820750Y-86528700D01*
X119308250Y-86528700D01*
X119332142Y-86529874D01*
X119332142Y-86529874D01*
G37*
D16*
G04 #@! TD*
G04 #@! TO.P,D3,1*
G04 #@! TO.N,Net-(D3-Pad1)*
X119064500Y-87228700D03*
D15*
G04 #@! TO.N,/PG1*
G04 #@! TO.C,D3*
G36*
X121207142Y-86529874D02*
X121230803Y-86533384D01*
X121254007Y-86539196D01*
X121276529Y-86547254D01*
X121298153Y-86557482D01*
X121318670Y-86569779D01*
X121337883Y-86584029D01*
X121355607Y-86600093D01*
X121371671Y-86617817D01*
X121385921Y-86637030D01*
X121398218Y-86657547D01*
X121408446Y-86679171D01*
X121416504Y-86701693D01*
X121422316Y-86724897D01*
X121425826Y-86748558D01*
X121427000Y-86772450D01*
X121427000Y-87684950D01*
X121425826Y-87708842D01*
X121422316Y-87732503D01*
X121416504Y-87755707D01*
X121408446Y-87778229D01*
X121398218Y-87799853D01*
X121385921Y-87820370D01*
X121371671Y-87839583D01*
X121355607Y-87857307D01*
X121337883Y-87873371D01*
X121318670Y-87887621D01*
X121298153Y-87899918D01*
X121276529Y-87910146D01*
X121254007Y-87918204D01*
X121230803Y-87924016D01*
X121207142Y-87927526D01*
X121183250Y-87928700D01*
X120695750Y-87928700D01*
X120671858Y-87927526D01*
X120648197Y-87924016D01*
X120624993Y-87918204D01*
X120602471Y-87910146D01*
X120580847Y-87899918D01*
X120560330Y-87887621D01*
X120541117Y-87873371D01*
X120523393Y-87857307D01*
X120507329Y-87839583D01*
X120493079Y-87820370D01*
X120480782Y-87799853D01*
X120470554Y-87778229D01*
X120462496Y-87755707D01*
X120456684Y-87732503D01*
X120453174Y-87708842D01*
X120452000Y-87684950D01*
X120452000Y-86772450D01*
X120453174Y-86748558D01*
X120456684Y-86724897D01*
X120462496Y-86701693D01*
X120470554Y-86679171D01*
X120480782Y-86657547D01*
X120493079Y-86637030D01*
X120507329Y-86617817D01*
X120523393Y-86600093D01*
X120541117Y-86584029D01*
X120560330Y-86569779D01*
X120580847Y-86557482D01*
X120602471Y-86547254D01*
X120624993Y-86539196D01*
X120648197Y-86533384D01*
X120671858Y-86529874D01*
X120695750Y-86528700D01*
X121183250Y-86528700D01*
X121207142Y-86529874D01*
X121207142Y-86529874D01*
G37*
D16*
G04 #@! TD*
G04 #@! TO.P,D3,2*
G04 #@! TO.N,/PG1*
X120939500Y-87228700D03*
D17*
G04 #@! TO.P,J3,6*
G04 #@! TO.N,GND*
X118219000Y-89527900D03*
X118219000Y-97527900D03*
D18*
G04 #@! TO.P,J3,*
G04 #@! TO.N,*
X118219000Y-92327900D03*
X118219000Y-94727900D03*
D19*
G04 #@! TO.P,J3,1*
G04 #@! TO.N,VBUS*
X121094000Y-92227900D03*
G04 #@! TO.P,J3,2*
G04 #@! TO.N,Net-(D4-Pad1)*
X121094000Y-92877900D03*
G04 #@! TO.P,J3,3*
G04 #@! TO.N,Net-(D5-Pad1)*
X121094000Y-93527900D03*
G04 #@! TO.P,J3,4*
G04 #@! TO.N,Net-(J3-Pad4)*
X121094000Y-94177900D03*
G04 #@! TO.P,J3,5*
G04 #@! TO.N,GND*
X121094000Y-94827900D03*
G04 #@! TD*
D15*
G04 #@! TO.N,Net-(D1-Pad1)*
G04 #@! TO.C,D1*
G36*
X119337142Y-99128274D02*
X119360803Y-99131784D01*
X119384007Y-99137596D01*
X119406529Y-99145654D01*
X119428153Y-99155882D01*
X119448670Y-99168179D01*
X119467883Y-99182429D01*
X119485607Y-99198493D01*
X119501671Y-99216217D01*
X119515921Y-99235430D01*
X119528218Y-99255947D01*
X119538446Y-99277571D01*
X119546504Y-99300093D01*
X119552316Y-99323297D01*
X119555826Y-99346958D01*
X119557000Y-99370850D01*
X119557000Y-100283350D01*
X119555826Y-100307242D01*
X119552316Y-100330903D01*
X119546504Y-100354107D01*
X119538446Y-100376629D01*
X119528218Y-100398253D01*
X119515921Y-100418770D01*
X119501671Y-100437983D01*
X119485607Y-100455707D01*
X119467883Y-100471771D01*
X119448670Y-100486021D01*
X119428153Y-100498318D01*
X119406529Y-100508546D01*
X119384007Y-100516604D01*
X119360803Y-100522416D01*
X119337142Y-100525926D01*
X119313250Y-100527100D01*
X118825750Y-100527100D01*
X118801858Y-100525926D01*
X118778197Y-100522416D01*
X118754993Y-100516604D01*
X118732471Y-100508546D01*
X118710847Y-100498318D01*
X118690330Y-100486021D01*
X118671117Y-100471771D01*
X118653393Y-100455707D01*
X118637329Y-100437983D01*
X118623079Y-100418770D01*
X118610782Y-100398253D01*
X118600554Y-100376629D01*
X118592496Y-100354107D01*
X118586684Y-100330903D01*
X118583174Y-100307242D01*
X118582000Y-100283350D01*
X118582000Y-99370850D01*
X118583174Y-99346958D01*
X118586684Y-99323297D01*
X118592496Y-99300093D01*
X118600554Y-99277571D01*
X118610782Y-99255947D01*
X118623079Y-99235430D01*
X118637329Y-99216217D01*
X118653393Y-99198493D01*
X118671117Y-99182429D01*
X118690330Y-99168179D01*
X118710847Y-99155882D01*
X118732471Y-99145654D01*
X118754993Y-99137596D01*
X118778197Y-99131784D01*
X118801858Y-99128274D01*
X118825750Y-99127100D01*
X119313250Y-99127100D01*
X119337142Y-99128274D01*
X119337142Y-99128274D01*
G37*
D16*
G04 #@! TD*
G04 #@! TO.P,D1,1*
G04 #@! TO.N,Net-(D1-Pad1)*
X119069500Y-99827100D03*
D15*
G04 #@! TO.N,+5V*
G04 #@! TO.C,D1*
G36*
X121212142Y-99128274D02*
X121235803Y-99131784D01*
X121259007Y-99137596D01*
X121281529Y-99145654D01*
X121303153Y-99155882D01*
X121323670Y-99168179D01*
X121342883Y-99182429D01*
X121360607Y-99198493D01*
X121376671Y-99216217D01*
X121390921Y-99235430D01*
X121403218Y-99255947D01*
X121413446Y-99277571D01*
X121421504Y-99300093D01*
X121427316Y-99323297D01*
X121430826Y-99346958D01*
X121432000Y-99370850D01*
X121432000Y-100283350D01*
X121430826Y-100307242D01*
X121427316Y-100330903D01*
X121421504Y-100354107D01*
X121413446Y-100376629D01*
X121403218Y-100398253D01*
X121390921Y-100418770D01*
X121376671Y-100437983D01*
X121360607Y-100455707D01*
X121342883Y-100471771D01*
X121323670Y-100486021D01*
X121303153Y-100498318D01*
X121281529Y-100508546D01*
X121259007Y-100516604D01*
X121235803Y-100522416D01*
X121212142Y-100525926D01*
X121188250Y-100527100D01*
X120700750Y-100527100D01*
X120676858Y-100525926D01*
X120653197Y-100522416D01*
X120629993Y-100516604D01*
X120607471Y-100508546D01*
X120585847Y-100498318D01*
X120565330Y-100486021D01*
X120546117Y-100471771D01*
X120528393Y-100455707D01*
X120512329Y-100437983D01*
X120498079Y-100418770D01*
X120485782Y-100398253D01*
X120475554Y-100376629D01*
X120467496Y-100354107D01*
X120461684Y-100330903D01*
X120458174Y-100307242D01*
X120457000Y-100283350D01*
X120457000Y-99370850D01*
X120458174Y-99346958D01*
X120461684Y-99323297D01*
X120467496Y-99300093D01*
X120475554Y-99277571D01*
X120485782Y-99255947D01*
X120498079Y-99235430D01*
X120512329Y-99216217D01*
X120528393Y-99198493D01*
X120546117Y-99182429D01*
X120565330Y-99168179D01*
X120585847Y-99155882D01*
X120607471Y-99145654D01*
X120629993Y-99137596D01*
X120653197Y-99131784D01*
X120676858Y-99128274D01*
X120700750Y-99127100D01*
X121188250Y-99127100D01*
X121212142Y-99128274D01*
X121212142Y-99128274D01*
G37*
D16*
G04 #@! TD*
G04 #@! TO.P,D1,2*
G04 #@! TO.N,+5V*
X120944500Y-99827100D03*
D13*
G04 #@! TO.P,D5,2*
G04 #@! TO.N,GND*
X126919000Y-96194900D03*
G04 #@! TO.P,D5,1*
G04 #@! TO.N,Net-(D5-Pad1)*
X123419000Y-96194900D03*
G04 #@! TD*
D20*
G04 #@! TO.P,U2,1*
G04 #@! TO.N,/PG5*
X129324000Y-91583500D03*
G04 #@! TO.P,U2,2*
G04 #@! TO.N,Net-(J2-Pad4)*
X129324000Y-92853500D03*
G04 #@! TO.P,U2,3*
G04 #@! TO.N,Net-(J2-Pad3)*
X129324000Y-94123500D03*
G04 #@! TO.P,U2,4*
G04 #@! TO.N,GND*
X129324000Y-95393500D03*
G04 #@! TO.P,U2,5*
G04 #@! TO.N,/PG4*
X136624000Y-95393500D03*
G04 #@! TO.P,U2,6*
G04 #@! TO.N,/PG1*
X136624000Y-94123500D03*
G04 #@! TO.P,U2,7*
G04 #@! TO.N,/PG3*
X136624000Y-92853500D03*
G04 #@! TO.P,U2,8*
G04 #@! TO.N,+5V*
X136624000Y-91583500D03*
G04 #@! TD*
D21*
G04 #@! TO.N,+5V*
X130201700Y-89385500D03*
G04 #@! TO.N,GND*
X138195500Y-96688900D03*
G04 #@! TO.N,Net-(D1-Pad1)*
X121526600Y-96520100D03*
G04 #@! TO.N,/PG1*
X120939500Y-88559700D03*
G04 #@! TO.N,Net-(D3-Pad1)*
X122227300Y-89397300D03*
G04 #@! TO.N,Net-(D5-Pad1)*
X122160400Y-95494100D03*
G04 #@! TO.N,VBUS*
X122340200Y-91751700D03*
G04 #@! TO.N,Net-(D4-Pad1)*
X128376000Y-96436800D03*
G04 #@! TO.N,Net-(J2-Pad4)*
X130795100Y-93150400D03*
G04 #@! TO.N,Net-(J2-Pad3)*
X125938500Y-92153500D03*
G04 #@! TD*
D22*
G04 #@! TO.N,+5V*
X136675000Y-99778800D02*
X137929300Y-99778800D01*
X136624000Y-91583500D02*
X137878300Y-91583500D01*
X137878300Y-91583500D02*
X137878300Y-92124900D01*
X137878300Y-92124900D02*
X140083900Y-94330500D01*
X140083900Y-94330500D02*
X140083900Y-96849300D01*
X140083900Y-96849300D02*
X137929300Y-99003900D01*
X137929300Y-99003900D02*
X137929300Y-99778800D01*
X135996900Y-91583500D02*
X136624000Y-91583500D01*
X135996900Y-91583500D02*
X135369700Y-91583500D01*
X135369700Y-91583500D02*
X128973100Y-97980100D01*
X128973100Y-97980100D02*
X124886700Y-97980100D01*
X124886700Y-97980100D02*
X124565900Y-97659300D01*
X124565900Y-97659300D02*
X123030500Y-97659300D01*
X123030500Y-97659300D02*
X120944500Y-99745300D01*
X120944500Y-99745300D02*
X120944500Y-99827100D01*
X126269000Y-91008200D02*
X126923300Y-91008200D01*
X130201700Y-89385500D02*
X128546000Y-89385500D01*
X128546000Y-89385500D02*
X126923300Y-91008200D01*
G04 #@! TO.N,GND*
X120330400Y-90285000D02*
X119573300Y-89527900D01*
X125179600Y-90354000D02*
X125110600Y-90285000D01*
X125110600Y-90285000D02*
X120330400Y-90285000D01*
X120014700Y-94827900D02*
X119880500Y-94693700D01*
X119880500Y-94693700D02*
X119880500Y-90734900D01*
X119880500Y-90734900D02*
X120330400Y-90285000D01*
X120103300Y-94827900D02*
X120014700Y-94827900D01*
X120014700Y-94827900D02*
X119605600Y-95237000D01*
X119605600Y-95237000D02*
X119605600Y-95830400D01*
X119605600Y-95830400D02*
X119212400Y-96223600D01*
X119212400Y-96223600D02*
X118219000Y-96223600D01*
X118219000Y-89527900D02*
X119573300Y-89527900D01*
X125179600Y-90354000D02*
X125680400Y-90354000D01*
X125680400Y-90354000D02*
X127800700Y-88233700D01*
X127800700Y-88233700D02*
X127800700Y-87233800D01*
X125864700Y-93526500D02*
X125179600Y-92841400D01*
X125179600Y-92841400D02*
X125179600Y-90354000D01*
X121094000Y-94827900D02*
X120103300Y-94827900D01*
X118219000Y-97527900D02*
X118219000Y-96223600D01*
X138195500Y-96688900D02*
X138391600Y-96492800D01*
X138391600Y-96492800D02*
X138815000Y-96492800D01*
X138815000Y-95563500D02*
X138815000Y-96492800D01*
X129324000Y-95393500D02*
X130578300Y-95393500D01*
X138815000Y-91413500D02*
X138815000Y-90484200D01*
X138815000Y-90484200D02*
X135487600Y-90484200D01*
X135487600Y-90484200D02*
X130578300Y-95393500D01*
X126919000Y-93526500D02*
X125864700Y-93526500D01*
X126919000Y-94240600D02*
X126919000Y-93526500D01*
X126919000Y-95393500D02*
X126919000Y-96194900D01*
X126919000Y-94678200D02*
X126919000Y-95393500D01*
X128069700Y-95393500D02*
X126919000Y-95393500D01*
X129324000Y-95393500D02*
X128069700Y-95393500D01*
X129055000Y-87233800D02*
X127800700Y-87233800D01*
X126919000Y-94240600D02*
X126919000Y-94678200D01*
D23*
G04 #@! TO.N,Net-(D1-Pad1)*
X121526600Y-96520100D02*
X121526600Y-97370000D01*
X121526600Y-97370000D02*
X119069500Y-99827100D01*
G04 #@! TO.N,/PG1*
X120939500Y-87228700D02*
X120939500Y-88559700D01*
X136624000Y-94123500D02*
X137855300Y-94123500D01*
X131595000Y-99778800D02*
X132826300Y-99778800D01*
X132826300Y-99778800D02*
X132826300Y-99317000D01*
X132826300Y-99317000D02*
X133595800Y-98547500D01*
X133595800Y-98547500D02*
X135220000Y-98547500D01*
X135220000Y-98547500D02*
X137855300Y-95912200D01*
X137855300Y-95912200D02*
X137855300Y-94123500D01*
G04 #@! TO.N,Net-(D3-Pad1)*
X122227300Y-89397300D02*
X120711400Y-89397300D01*
X120711400Y-89397300D02*
X119064500Y-87750400D01*
X119064500Y-87750400D02*
X119064500Y-87228700D01*
G04 #@! TO.N,Net-(D5-Pad1)*
X122439300Y-95215200D02*
X122150300Y-94926200D01*
X122150300Y-94926200D02*
X122150300Y-93527900D01*
X123419000Y-96194900D02*
X122439300Y-95215200D01*
X122439300Y-95215200D02*
X122160400Y-95494100D01*
X121094000Y-93527900D02*
X122150300Y-93527900D01*
G04 #@! TO.N,/PG3*
X134135000Y-99778800D02*
X135366300Y-99778800D01*
X136624000Y-92853500D02*
X137855300Y-92853500D01*
X137855300Y-92853500D02*
X139522800Y-94521000D01*
X139522800Y-94521000D02*
X139522800Y-96584000D01*
X139522800Y-96584000D02*
X138350900Y-97755900D01*
X138350900Y-97755900D02*
X136879000Y-97755900D01*
X136879000Y-97755900D02*
X135366300Y-99268600D01*
X135366300Y-99268600D02*
X135366300Y-99778800D01*
G04 #@! TO.N,/PG4*
X129055000Y-99778800D02*
X130286300Y-99778800D01*
X136624000Y-95393500D02*
X134161400Y-95393500D01*
X134161400Y-95393500D02*
X130286300Y-99268600D01*
X130286300Y-99268600D02*
X130286300Y-99778800D01*
G04 #@! TO.N,/PG5*
X136675000Y-87233800D02*
X135443700Y-87233800D01*
X129324000Y-91583500D02*
X131604200Y-91583500D01*
X131604200Y-91583500D02*
X135443700Y-87744000D01*
X135443700Y-87744000D02*
X135443700Y-87233800D01*
X137906300Y-87233800D02*
X137906300Y-87889900D01*
X137906300Y-87889900D02*
X140523600Y-90507200D01*
X140523600Y-90507200D02*
X140965000Y-90507200D01*
X140965000Y-91413500D02*
X140965000Y-90507200D01*
X136675000Y-87233800D02*
X137906300Y-87233800D01*
X140965000Y-91413500D02*
X140965000Y-95563500D01*
D22*
G04 #@! TO.N,VBUS*
X122340200Y-91751700D02*
X123083700Y-91008200D01*
X123083700Y-91008200D02*
X123414700Y-91008200D01*
X122173300Y-92227900D02*
X122173300Y-91918600D01*
X122173300Y-91918600D02*
X122340200Y-91751700D01*
X121094000Y-92227900D02*
X122173300Y-92227900D01*
X124069000Y-91008200D02*
X123414700Y-91008200D01*
D23*
G04 #@! TO.N,Net-(D4-Pad1)*
X128376000Y-96436800D02*
X128376000Y-96778300D01*
X128376000Y-96778300D02*
X127728000Y-97426300D01*
X127728000Y-97426300D02*
X126110800Y-97426300D01*
X126110800Y-97426300D02*
X124450300Y-95765800D01*
X124450300Y-95765800D02*
X124450300Y-93526500D01*
X123419000Y-93526500D02*
X124450300Y-93526500D01*
X121094000Y-92877900D02*
X122770400Y-92877900D01*
X122770400Y-92877900D02*
X123419000Y-93526500D01*
G04 #@! TO.N,Net-(J2-Pad4)*
X129324000Y-92853500D02*
X130555300Y-92853500D01*
X130555300Y-92853500D02*
X130555300Y-92910600D01*
X130555300Y-92910600D02*
X130795100Y-93150400D01*
G04 #@! TO.N,Net-(J2-Pad3)*
X128092700Y-92153500D02*
X128092700Y-91082700D01*
X128092700Y-91082700D02*
X129065700Y-90109700D01*
X129065700Y-90109700D02*
X130510700Y-90109700D01*
X130510700Y-90109700D02*
X131595000Y-89025400D01*
X131595000Y-89025400D02*
X131595000Y-87233800D01*
X128092700Y-94123500D02*
X128092700Y-92153500D01*
X128092700Y-92153500D02*
X125938500Y-92153500D01*
X129324000Y-94123500D02*
X128092700Y-94123500D01*
G04 #@! TD*
G04 #@! TO.N,GND*
G36*
X125276536Y-86383800D02*
X125276536Y-88083800D01*
X125306106Y-88232459D01*
X125390314Y-88358486D01*
X125516341Y-88442694D01*
X125665000Y-88472264D01*
X127365000Y-88472264D01*
X127513659Y-88442694D01*
X127639686Y-88358486D01*
X127723894Y-88232459D01*
X127753464Y-88083800D01*
X127753464Y-87888695D01*
X127859817Y-88115158D01*
X128288076Y-88505445D01*
X128698110Y-88675276D01*
X128928000Y-88553955D01*
X128928000Y-87360800D01*
X128908000Y-87360800D01*
X128908000Y-87106800D01*
X128928000Y-87106800D01*
X128928000Y-87086800D01*
X129182000Y-87086800D01*
X129182000Y-87106800D01*
X129202000Y-87106800D01*
X129202000Y-87360800D01*
X129182000Y-87360800D01*
X129182000Y-88553955D01*
X129411890Y-88675276D01*
X129821924Y-88505445D01*
X130250183Y-88115158D01*
X130437245Y-87716837D01*
X130707499Y-88121301D01*
X131087000Y-88374876D01*
X131087000Y-88814979D01*
X130847946Y-89054034D01*
X130815393Y-88975444D01*
X130611756Y-88771807D01*
X130345693Y-88661600D01*
X130057707Y-88661600D01*
X129791644Y-88771807D01*
X129708951Y-88854500D01*
X128598289Y-88854500D01*
X128545999Y-88844099D01*
X128493709Y-88854500D01*
X128493706Y-88854500D01*
X128338814Y-88885310D01*
X128163171Y-89002671D01*
X128133548Y-89047005D01*
X126735750Y-90444803D01*
X126667659Y-90399306D01*
X126519000Y-90369736D01*
X126019000Y-90369736D01*
X125870341Y-90399306D01*
X125744314Y-90483514D01*
X125660106Y-90609541D01*
X125630536Y-90758200D01*
X125630536Y-91258200D01*
X125660106Y-91406859D01*
X125701141Y-91468273D01*
X125528444Y-91539807D01*
X125324807Y-91743444D01*
X125214600Y-92009507D01*
X125214600Y-92297493D01*
X125324807Y-92563556D01*
X125528444Y-92767193D01*
X125634000Y-92810916D01*
X125634000Y-93240750D01*
X125792750Y-93399500D01*
X126792000Y-93399500D01*
X126792000Y-93379500D01*
X127046000Y-93379500D01*
X127046000Y-93399500D01*
X127066000Y-93399500D01*
X127066000Y-93653500D01*
X127046000Y-93653500D01*
X127046000Y-94852750D01*
X127053950Y-94860700D01*
X127046000Y-94868650D01*
X127046000Y-96067900D01*
X127066000Y-96067900D01*
X127066000Y-96321900D01*
X127046000Y-96321900D01*
X127046000Y-96341900D01*
X126792000Y-96341900D01*
X126792000Y-96321900D01*
X125792750Y-96321900D01*
X125758785Y-96355865D01*
X124958300Y-95555380D01*
X124958300Y-93812250D01*
X125634000Y-93812250D01*
X125634000Y-94502810D01*
X125730673Y-94736199D01*
X125855175Y-94860700D01*
X125730673Y-94985201D01*
X125634000Y-95218590D01*
X125634000Y-95909150D01*
X125792750Y-96067900D01*
X126792000Y-96067900D01*
X126792000Y-94868650D01*
X126784050Y-94860700D01*
X126792000Y-94852750D01*
X126792000Y-93653500D01*
X125792750Y-93653500D01*
X125634000Y-93812250D01*
X124958300Y-93812250D01*
X124958300Y-93576532D01*
X124968252Y-93526500D01*
X124928825Y-93328288D01*
X124816547Y-93160253D01*
X124648512Y-93047975D01*
X124500332Y-93018500D01*
X124457464Y-93009973D01*
X124457464Y-92676500D01*
X124427894Y-92527841D01*
X124343686Y-92401814D01*
X124217659Y-92317606D01*
X124069000Y-92288036D01*
X122827613Y-92288036D01*
X122953893Y-92161756D01*
X123064100Y-91895693D01*
X123064100Y-91778747D01*
X123303648Y-91539200D01*
X123553764Y-91539200D01*
X123670341Y-91617094D01*
X123819000Y-91646664D01*
X124319000Y-91646664D01*
X124467659Y-91617094D01*
X124593686Y-91532886D01*
X124677894Y-91406859D01*
X124707464Y-91258200D01*
X124707464Y-90758200D01*
X124677894Y-90609541D01*
X124593686Y-90483514D01*
X124467659Y-90399306D01*
X124319000Y-90369736D01*
X123819000Y-90369736D01*
X123670341Y-90399306D01*
X123553764Y-90477200D01*
X123135994Y-90477200D01*
X123083700Y-90466798D01*
X123031406Y-90477200D01*
X122876514Y-90508010D01*
X122700871Y-90625371D01*
X122671250Y-90669702D01*
X122313153Y-91027800D01*
X122196207Y-91027800D01*
X121930144Y-91138007D01*
X121726507Y-91341644D01*
X121616300Y-91607707D01*
X121616300Y-91639436D01*
X121382963Y-91639436D01*
X121400000Y-91598305D01*
X121400000Y-91307495D01*
X121288712Y-91038822D01*
X121083078Y-90833188D01*
X120814405Y-90721900D01*
X120523595Y-90721900D01*
X120254922Y-90833188D01*
X120049288Y-91038822D01*
X119938000Y-91307495D01*
X119938000Y-91598305D01*
X120049288Y-91866978D01*
X120060685Y-91878375D01*
X120060106Y-91879241D01*
X120030536Y-92027900D01*
X120030536Y-92427900D01*
X120055400Y-92552900D01*
X120030536Y-92677900D01*
X120030536Y-93077900D01*
X120055400Y-93202900D01*
X120030536Y-93327900D01*
X120030536Y-93727900D01*
X120055400Y-93852900D01*
X120030536Y-93977900D01*
X120030536Y-94118338D01*
X119880673Y-94268202D01*
X119784000Y-94501591D01*
X119784000Y-94569150D01*
X119942750Y-94727900D01*
X120257030Y-94727900D01*
X120270341Y-94736794D01*
X120419000Y-94766364D01*
X121241000Y-94766364D01*
X121241000Y-94927900D01*
X121221000Y-94927900D01*
X121221000Y-94974900D01*
X121063069Y-94974900D01*
X120967000Y-94935107D01*
X120967000Y-94927900D01*
X120949601Y-94927900D01*
X120814405Y-94871900D01*
X120523595Y-94871900D01*
X120388399Y-94927900D01*
X119942750Y-94927900D01*
X119784000Y-95086650D01*
X119784000Y-95154209D01*
X119880673Y-95387598D01*
X119941682Y-95448607D01*
X119938000Y-95457495D01*
X119938000Y-95748305D01*
X120049288Y-96016978D01*
X120254922Y-96222612D01*
X120523595Y-96333900D01*
X120814405Y-96333900D01*
X120821379Y-96331011D01*
X120802700Y-96376107D01*
X120802700Y-96664093D01*
X120912907Y-96930156D01*
X121018601Y-97035850D01*
X121018601Y-97159578D01*
X119804000Y-98374180D01*
X119804000Y-97813650D01*
X119645250Y-97654900D01*
X118346000Y-97654900D01*
X118346000Y-98904150D01*
X118373480Y-98931630D01*
X118241660Y-99128912D01*
X118193536Y-99370850D01*
X118193536Y-100283350D01*
X118241660Y-100525288D01*
X118378707Y-100730393D01*
X118387104Y-100736004D01*
X118214894Y-100735783D01*
X118101054Y-100710545D01*
X117966240Y-100668038D01*
X117835657Y-100613949D01*
X117710284Y-100548685D01*
X117591072Y-100472738D01*
X117478920Y-100386681D01*
X117374722Y-100291202D01*
X117279226Y-100186985D01*
X117193174Y-100074840D01*
X117117232Y-99955635D01*
X117051963Y-99830256D01*
X116997874Y-99699670D01*
X116955367Y-99564860D01*
X116924776Y-99426872D01*
X116906326Y-99286727D01*
X116899799Y-99137238D01*
X116899799Y-98956725D01*
X116909301Y-98966227D01*
X117142690Y-99062900D01*
X117933250Y-99062900D01*
X118092000Y-98904150D01*
X118092000Y-97654900D01*
X118072000Y-97654900D01*
X118072000Y-97400900D01*
X118092000Y-97400900D01*
X118092000Y-97380900D01*
X118346000Y-97380900D01*
X118346000Y-97400900D01*
X119645250Y-97400900D01*
X119804000Y-97242150D01*
X119804000Y-96501591D01*
X119707327Y-96268202D01*
X119528699Y-96089573D01*
X119349659Y-96015412D01*
X119443686Y-95952586D01*
X119527894Y-95826559D01*
X119557464Y-95677900D01*
X119557464Y-93777900D01*
X119527894Y-93629241D01*
X119460181Y-93527900D01*
X119527894Y-93426559D01*
X119557464Y-93277900D01*
X119557464Y-91377900D01*
X119527894Y-91229241D01*
X119443686Y-91103214D01*
X119349659Y-91040388D01*
X119528699Y-90966227D01*
X119707327Y-90787598D01*
X119804000Y-90554209D01*
X119804000Y-89813650D01*
X119645250Y-89654900D01*
X118346000Y-89654900D01*
X118346000Y-89674900D01*
X118092000Y-89674900D01*
X118092000Y-89654900D01*
X118072000Y-89654900D01*
X118072000Y-89400900D01*
X118092000Y-89400900D01*
X118092000Y-88151650D01*
X117933250Y-87992900D01*
X117142690Y-87992900D01*
X116909301Y-88089573D01*
X116899799Y-88099075D01*
X116899799Y-87913788D01*
X116906326Y-87764299D01*
X116924776Y-87624154D01*
X116955367Y-87486166D01*
X116997874Y-87351356D01*
X117051963Y-87220770D01*
X117117232Y-87095391D01*
X117193174Y-86976186D01*
X117279226Y-86864041D01*
X117374722Y-86759824D01*
X117478920Y-86664345D01*
X117591072Y-86578288D01*
X117710284Y-86502341D01*
X117835657Y-86437077D01*
X117966240Y-86382988D01*
X118101054Y-86340481D01*
X118214898Y-86315242D01*
X118389265Y-86315012D01*
X118373707Y-86325407D01*
X118236660Y-86530512D01*
X118188536Y-86772450D01*
X118188536Y-87684950D01*
X118236660Y-87926888D01*
X118370483Y-88127167D01*
X118346000Y-88151650D01*
X118346000Y-89400900D01*
X119645250Y-89400900D01*
X119804000Y-89242150D01*
X119804000Y-89208320D01*
X120316812Y-89721132D01*
X120345153Y-89763547D01*
X120513188Y-89875825D01*
X120661368Y-89905300D01*
X120661371Y-89905300D01*
X120711399Y-89915251D01*
X120761427Y-89905300D01*
X121711551Y-89905300D01*
X121817244Y-90010993D01*
X122083307Y-90121200D01*
X122371293Y-90121200D01*
X122637356Y-90010993D01*
X122840993Y-89807356D01*
X122951200Y-89541293D01*
X122951200Y-89253307D01*
X122888403Y-89101702D01*
X123352411Y-89293900D01*
X123941589Y-89293900D01*
X124485919Y-89068432D01*
X124902532Y-88651819D01*
X125128000Y-88107489D01*
X125128000Y-87518311D01*
X124902532Y-86973981D01*
X124485919Y-86557368D01*
X123941589Y-86331900D01*
X123352411Y-86331900D01*
X122808081Y-86557368D01*
X122391468Y-86973981D01*
X122166000Y-87518311D01*
X122166000Y-88107489D01*
X122391468Y-88651819D01*
X122442575Y-88702926D01*
X122371293Y-88673400D01*
X122083307Y-88673400D01*
X121817244Y-88783607D01*
X121711551Y-88889300D01*
X121586519Y-88889300D01*
X121663400Y-88703693D01*
X121663400Y-88415707D01*
X121564180Y-88176168D01*
X121630293Y-88131993D01*
X121767340Y-87926888D01*
X121815464Y-87684950D01*
X121815464Y-86772450D01*
X121767340Y-86530512D01*
X121630293Y-86325407D01*
X121608370Y-86310759D01*
X125292033Y-86305892D01*
X125276536Y-86383800D01*
X125276536Y-86383800D01*
G37*
X125276536Y-86383800D02*
X125276536Y-88083800D01*
X125306106Y-88232459D01*
X125390314Y-88358486D01*
X125516341Y-88442694D01*
X125665000Y-88472264D01*
X127365000Y-88472264D01*
X127513659Y-88442694D01*
X127639686Y-88358486D01*
X127723894Y-88232459D01*
X127753464Y-88083800D01*
X127753464Y-87888695D01*
X127859817Y-88115158D01*
X128288076Y-88505445D01*
X128698110Y-88675276D01*
X128928000Y-88553955D01*
X128928000Y-87360800D01*
X128908000Y-87360800D01*
X128908000Y-87106800D01*
X128928000Y-87106800D01*
X128928000Y-87086800D01*
X129182000Y-87086800D01*
X129182000Y-87106800D01*
X129202000Y-87106800D01*
X129202000Y-87360800D01*
X129182000Y-87360800D01*
X129182000Y-88553955D01*
X129411890Y-88675276D01*
X129821924Y-88505445D01*
X130250183Y-88115158D01*
X130437245Y-87716837D01*
X130707499Y-88121301D01*
X131087000Y-88374876D01*
X131087000Y-88814979D01*
X130847946Y-89054034D01*
X130815393Y-88975444D01*
X130611756Y-88771807D01*
X130345693Y-88661600D01*
X130057707Y-88661600D01*
X129791644Y-88771807D01*
X129708951Y-88854500D01*
X128598289Y-88854500D01*
X128545999Y-88844099D01*
X128493709Y-88854500D01*
X128493706Y-88854500D01*
X128338814Y-88885310D01*
X128163171Y-89002671D01*
X128133548Y-89047005D01*
X126735750Y-90444803D01*
X126667659Y-90399306D01*
X126519000Y-90369736D01*
X126019000Y-90369736D01*
X125870341Y-90399306D01*
X125744314Y-90483514D01*
X125660106Y-90609541D01*
X125630536Y-90758200D01*
X125630536Y-91258200D01*
X125660106Y-91406859D01*
X125701141Y-91468273D01*
X125528444Y-91539807D01*
X125324807Y-91743444D01*
X125214600Y-92009507D01*
X125214600Y-92297493D01*
X125324807Y-92563556D01*
X125528444Y-92767193D01*
X125634000Y-92810916D01*
X125634000Y-93240750D01*
X125792750Y-93399500D01*
X126792000Y-93399500D01*
X126792000Y-93379500D01*
X127046000Y-93379500D01*
X127046000Y-93399500D01*
X127066000Y-93399500D01*
X127066000Y-93653500D01*
X127046000Y-93653500D01*
X127046000Y-94852750D01*
X127053950Y-94860700D01*
X127046000Y-94868650D01*
X127046000Y-96067900D01*
X127066000Y-96067900D01*
X127066000Y-96321900D01*
X127046000Y-96321900D01*
X127046000Y-96341900D01*
X126792000Y-96341900D01*
X126792000Y-96321900D01*
X125792750Y-96321900D01*
X125758785Y-96355865D01*
X124958300Y-95555380D01*
X124958300Y-93812250D01*
X125634000Y-93812250D01*
X125634000Y-94502810D01*
X125730673Y-94736199D01*
X125855175Y-94860700D01*
X125730673Y-94985201D01*
X125634000Y-95218590D01*
X125634000Y-95909150D01*
X125792750Y-96067900D01*
X126792000Y-96067900D01*
X126792000Y-94868650D01*
X126784050Y-94860700D01*
X126792000Y-94852750D01*
X126792000Y-93653500D01*
X125792750Y-93653500D01*
X125634000Y-93812250D01*
X124958300Y-93812250D01*
X124958300Y-93576532D01*
X124968252Y-93526500D01*
X124928825Y-93328288D01*
X124816547Y-93160253D01*
X124648512Y-93047975D01*
X124500332Y-93018500D01*
X124457464Y-93009973D01*
X124457464Y-92676500D01*
X124427894Y-92527841D01*
X124343686Y-92401814D01*
X124217659Y-92317606D01*
X124069000Y-92288036D01*
X122827613Y-92288036D01*
X122953893Y-92161756D01*
X123064100Y-91895693D01*
X123064100Y-91778747D01*
X123303648Y-91539200D01*
X123553764Y-91539200D01*
X123670341Y-91617094D01*
X123819000Y-91646664D01*
X124319000Y-91646664D01*
X124467659Y-91617094D01*
X124593686Y-91532886D01*
X124677894Y-91406859D01*
X124707464Y-91258200D01*
X124707464Y-90758200D01*
X124677894Y-90609541D01*
X124593686Y-90483514D01*
X124467659Y-90399306D01*
X124319000Y-90369736D01*
X123819000Y-90369736D01*
X123670341Y-90399306D01*
X123553764Y-90477200D01*
X123135994Y-90477200D01*
X123083700Y-90466798D01*
X123031406Y-90477200D01*
X122876514Y-90508010D01*
X122700871Y-90625371D01*
X122671250Y-90669702D01*
X122313153Y-91027800D01*
X122196207Y-91027800D01*
X121930144Y-91138007D01*
X121726507Y-91341644D01*
X121616300Y-91607707D01*
X121616300Y-91639436D01*
X121382963Y-91639436D01*
X121400000Y-91598305D01*
X121400000Y-91307495D01*
X121288712Y-91038822D01*
X121083078Y-90833188D01*
X120814405Y-90721900D01*
X120523595Y-90721900D01*
X120254922Y-90833188D01*
X120049288Y-91038822D01*
X119938000Y-91307495D01*
X119938000Y-91598305D01*
X120049288Y-91866978D01*
X120060685Y-91878375D01*
X120060106Y-91879241D01*
X120030536Y-92027900D01*
X120030536Y-92427900D01*
X120055400Y-92552900D01*
X120030536Y-92677900D01*
X120030536Y-93077900D01*
X120055400Y-93202900D01*
X120030536Y-93327900D01*
X120030536Y-93727900D01*
X120055400Y-93852900D01*
X120030536Y-93977900D01*
X120030536Y-94118338D01*
X119880673Y-94268202D01*
X119784000Y-94501591D01*
X119784000Y-94569150D01*
X119942750Y-94727900D01*
X120257030Y-94727900D01*
X120270341Y-94736794D01*
X120419000Y-94766364D01*
X121241000Y-94766364D01*
X121241000Y-94927900D01*
X121221000Y-94927900D01*
X121221000Y-94974900D01*
X121063069Y-94974900D01*
X120967000Y-94935107D01*
X120967000Y-94927900D01*
X120949601Y-94927900D01*
X120814405Y-94871900D01*
X120523595Y-94871900D01*
X120388399Y-94927900D01*
X119942750Y-94927900D01*
X119784000Y-95086650D01*
X119784000Y-95154209D01*
X119880673Y-95387598D01*
X119941682Y-95448607D01*
X119938000Y-95457495D01*
X119938000Y-95748305D01*
X120049288Y-96016978D01*
X120254922Y-96222612D01*
X120523595Y-96333900D01*
X120814405Y-96333900D01*
X120821379Y-96331011D01*
X120802700Y-96376107D01*
X120802700Y-96664093D01*
X120912907Y-96930156D01*
X121018601Y-97035850D01*
X121018601Y-97159578D01*
X119804000Y-98374180D01*
X119804000Y-97813650D01*
X119645250Y-97654900D01*
X118346000Y-97654900D01*
X118346000Y-98904150D01*
X118373480Y-98931630D01*
X118241660Y-99128912D01*
X118193536Y-99370850D01*
X118193536Y-100283350D01*
X118241660Y-100525288D01*
X118378707Y-100730393D01*
X118387104Y-100736004D01*
X118214894Y-100735783D01*
X118101054Y-100710545D01*
X117966240Y-100668038D01*
X117835657Y-100613949D01*
X117710284Y-100548685D01*
X117591072Y-100472738D01*
X117478920Y-100386681D01*
X117374722Y-100291202D01*
X117279226Y-100186985D01*
X117193174Y-100074840D01*
X117117232Y-99955635D01*
X117051963Y-99830256D01*
X116997874Y-99699670D01*
X116955367Y-99564860D01*
X116924776Y-99426872D01*
X116906326Y-99286727D01*
X116899799Y-99137238D01*
X116899799Y-98956725D01*
X116909301Y-98966227D01*
X117142690Y-99062900D01*
X117933250Y-99062900D01*
X118092000Y-98904150D01*
X118092000Y-97654900D01*
X118072000Y-97654900D01*
X118072000Y-97400900D01*
X118092000Y-97400900D01*
X118092000Y-97380900D01*
X118346000Y-97380900D01*
X118346000Y-97400900D01*
X119645250Y-97400900D01*
X119804000Y-97242150D01*
X119804000Y-96501591D01*
X119707327Y-96268202D01*
X119528699Y-96089573D01*
X119349659Y-96015412D01*
X119443686Y-95952586D01*
X119527894Y-95826559D01*
X119557464Y-95677900D01*
X119557464Y-93777900D01*
X119527894Y-93629241D01*
X119460181Y-93527900D01*
X119527894Y-93426559D01*
X119557464Y-93277900D01*
X119557464Y-91377900D01*
X119527894Y-91229241D01*
X119443686Y-91103214D01*
X119349659Y-91040388D01*
X119528699Y-90966227D01*
X119707327Y-90787598D01*
X119804000Y-90554209D01*
X119804000Y-89813650D01*
X119645250Y-89654900D01*
X118346000Y-89654900D01*
X118346000Y-89674900D01*
X118092000Y-89674900D01*
X118092000Y-89654900D01*
X118072000Y-89654900D01*
X118072000Y-89400900D01*
X118092000Y-89400900D01*
X118092000Y-88151650D01*
X117933250Y-87992900D01*
X117142690Y-87992900D01*
X116909301Y-88089573D01*
X116899799Y-88099075D01*
X116899799Y-87913788D01*
X116906326Y-87764299D01*
X116924776Y-87624154D01*
X116955367Y-87486166D01*
X116997874Y-87351356D01*
X117051963Y-87220770D01*
X117117232Y-87095391D01*
X117193174Y-86976186D01*
X117279226Y-86864041D01*
X117374722Y-86759824D01*
X117478920Y-86664345D01*
X117591072Y-86578288D01*
X117710284Y-86502341D01*
X117835657Y-86437077D01*
X117966240Y-86382988D01*
X118101054Y-86340481D01*
X118214898Y-86315242D01*
X118389265Y-86315012D01*
X118373707Y-86325407D01*
X118236660Y-86530512D01*
X118188536Y-86772450D01*
X118188536Y-87684950D01*
X118236660Y-87926888D01*
X118370483Y-88127167D01*
X118346000Y-88151650D01*
X118346000Y-89400900D01*
X119645250Y-89400900D01*
X119804000Y-89242150D01*
X119804000Y-89208320D01*
X120316812Y-89721132D01*
X120345153Y-89763547D01*
X120513188Y-89875825D01*
X120661368Y-89905300D01*
X120661371Y-89905300D01*
X120711399Y-89915251D01*
X120761427Y-89905300D01*
X121711551Y-89905300D01*
X121817244Y-90010993D01*
X122083307Y-90121200D01*
X122371293Y-90121200D01*
X122637356Y-90010993D01*
X122840993Y-89807356D01*
X122951200Y-89541293D01*
X122951200Y-89253307D01*
X122888403Y-89101702D01*
X123352411Y-89293900D01*
X123941589Y-89293900D01*
X124485919Y-89068432D01*
X124902532Y-88651819D01*
X125128000Y-88107489D01*
X125128000Y-87518311D01*
X124902532Y-86973981D01*
X124485919Y-86557368D01*
X123941589Y-86331900D01*
X123352411Y-86331900D01*
X122808081Y-86557368D01*
X122391468Y-86973981D01*
X122166000Y-87518311D01*
X122166000Y-88107489D01*
X122391468Y-88651819D01*
X122442575Y-88702926D01*
X122371293Y-88673400D01*
X122083307Y-88673400D01*
X121817244Y-88783607D01*
X121711551Y-88889300D01*
X121586519Y-88889300D01*
X121663400Y-88703693D01*
X121663400Y-88415707D01*
X121564180Y-88176168D01*
X121630293Y-88131993D01*
X121767340Y-87926888D01*
X121815464Y-87684950D01*
X121815464Y-86772450D01*
X121767340Y-86530512D01*
X121630293Y-86325407D01*
X121608370Y-86310759D01*
X125292033Y-86305892D01*
X125276536Y-86383800D01*
G36*
X129451000Y-95266500D02*
X129471000Y-95266500D01*
X129471000Y-95520500D01*
X129451000Y-95520500D01*
X129451000Y-96194750D01*
X129609750Y-96353500D01*
X129848753Y-96353500D01*
X128753153Y-97449100D01*
X128423620Y-97449100D01*
X128699832Y-97172888D01*
X128742247Y-97144547D01*
X128843425Y-96993124D01*
X128989693Y-96846856D01*
X129099900Y-96580793D01*
X129099900Y-96292807D01*
X129099620Y-96292130D01*
X129197000Y-96194750D01*
X129197000Y-95520500D01*
X129177000Y-95520500D01*
X129177000Y-95266500D01*
X129197000Y-95266500D01*
X129197000Y-95246500D01*
X129451000Y-95246500D01*
X129451000Y-95266500D01*
X129451000Y-95266500D01*
G37*
X129451000Y-95266500D02*
X129471000Y-95266500D01*
X129471000Y-95520500D01*
X129451000Y-95520500D01*
X129451000Y-96194750D01*
X129609750Y-96353500D01*
X129848753Y-96353500D01*
X128753153Y-97449100D01*
X128423620Y-97449100D01*
X128699832Y-97172888D01*
X128742247Y-97144547D01*
X128843425Y-96993124D01*
X128989693Y-96846856D01*
X129099900Y-96580793D01*
X129099900Y-96292807D01*
X129099620Y-96292130D01*
X129197000Y-96194750D01*
X129197000Y-95520500D01*
X129177000Y-95520500D01*
X129177000Y-95266500D01*
X129197000Y-95266500D01*
X129197000Y-95246500D01*
X129451000Y-95246500D01*
X129451000Y-95266500D01*
G36*
X138130301Y-96626827D02*
X138363690Y-96723500D01*
X138529250Y-96723500D01*
X138687998Y-96564752D01*
X138687998Y-96700381D01*
X138140480Y-97247900D01*
X137238021Y-97247900D01*
X137994698Y-96491223D01*
X138130301Y-96626827D01*
X138130301Y-96626827D01*
G37*
X138130301Y-96626827D02*
X138363690Y-96723500D01*
X138529250Y-96723500D01*
X138687998Y-96564752D01*
X138687998Y-96700381D01*
X138140480Y-97247900D01*
X137238021Y-97247900D01*
X137994698Y-96491223D01*
X138130301Y-96626827D01*
G36*
X118346002Y-96151648D02*
X118346002Y-96066364D01*
X118431286Y-96066364D01*
X118346002Y-96151648D01*
X118346002Y-96151648D01*
G37*
X118346002Y-96151648D02*
X118346002Y-96066364D01*
X118431286Y-96066364D01*
X118346002Y-96151648D01*
G36*
X118091998Y-96151648D02*
X118006714Y-96066364D01*
X118091998Y-96066364D01*
X118091998Y-96151648D01*
X118091998Y-96151648D01*
G37*
X118091998Y-96151648D02*
X118006714Y-96066364D01*
X118091998Y-96066364D01*
X118091998Y-96151648D01*
G36*
X138942000Y-95436500D02*
X138962000Y-95436500D01*
X138962000Y-95690500D01*
X138942000Y-95690500D01*
X138942000Y-95710500D01*
X138688000Y-95710500D01*
X138688000Y-95690500D01*
X138668000Y-95690500D01*
X138668000Y-95436500D01*
X138688000Y-95436500D01*
X138688000Y-95416500D01*
X138942000Y-95416500D01*
X138942000Y-95436500D01*
X138942000Y-95436500D01*
G37*
X138942000Y-95436500D02*
X138962000Y-95436500D01*
X138962000Y-95690500D01*
X138942000Y-95690500D01*
X138942000Y-95710500D01*
X138688000Y-95710500D01*
X138688000Y-95690500D01*
X138668000Y-95690500D01*
X138668000Y-95436500D01*
X138688000Y-95436500D01*
X138688000Y-95416500D01*
X138942000Y-95416500D01*
X138942000Y-95436500D01*
G36*
X130666002Y-95536252D02*
X130650252Y-95520502D01*
X130681752Y-95520502D01*
X130666002Y-95536252D01*
X130666002Y-95536252D01*
G37*
X130666002Y-95536252D02*
X130650252Y-95520502D01*
X130681752Y-95520502D01*
X130666002Y-95536252D01*
G36*
X136194688Y-88393376D02*
X136553761Y-88464800D01*
X136796239Y-88464800D01*
X137155312Y-88393376D01*
X137484691Y-88173292D01*
X137511712Y-88213732D01*
X137511715Y-88213735D01*
X137540054Y-88256147D01*
X137582466Y-88284486D01*
X140129014Y-90831035D01*
X140157353Y-90873447D01*
X140199765Y-90901786D01*
X140199767Y-90901788D01*
X140251536Y-90936379D01*
X140251536Y-91938500D01*
X140281106Y-92087159D01*
X140365314Y-92213186D01*
X140457000Y-92274448D01*
X140457001Y-93941171D01*
X140422395Y-93918048D01*
X138942002Y-92437655D01*
X138942002Y-92414752D01*
X139100750Y-92573500D01*
X139266310Y-92573500D01*
X139499699Y-92476827D01*
X139678327Y-92298198D01*
X139775000Y-92064809D01*
X139775000Y-91699250D01*
X139616250Y-91540500D01*
X138942000Y-91540500D01*
X138942000Y-91560500D01*
X138688000Y-91560500D01*
X138688000Y-91540500D01*
X138668000Y-91540500D01*
X138668000Y-91286500D01*
X138688000Y-91286500D01*
X138688000Y-90412250D01*
X138942000Y-90412250D01*
X138942000Y-91286500D01*
X139616250Y-91286500D01*
X139775000Y-91127750D01*
X139775000Y-90762191D01*
X139678327Y-90528802D01*
X139499699Y-90350173D01*
X139266310Y-90253500D01*
X139100750Y-90253500D01*
X138942000Y-90412250D01*
X138688000Y-90412250D01*
X138529250Y-90253500D01*
X138363690Y-90253500D01*
X138130301Y-90350173D01*
X137951673Y-90528802D01*
X137855000Y-90762191D01*
X137855000Y-91046733D01*
X137826006Y-91052500D01*
X137794580Y-91052500D01*
X137748686Y-90983814D01*
X137622659Y-90899606D01*
X137474000Y-90870036D01*
X135774000Y-90870036D01*
X135625341Y-90899606D01*
X135499314Y-90983814D01*
X135453420Y-91052500D01*
X135421989Y-91052500D01*
X135369699Y-91042099D01*
X135317409Y-91052500D01*
X135317406Y-91052500D01*
X135162514Y-91083310D01*
X134986871Y-91200671D01*
X134957248Y-91245005D01*
X130809000Y-95393254D01*
X130809000Y-95266498D01*
X130650252Y-95266498D01*
X130809000Y-95107750D01*
X130809000Y-94942190D01*
X130712327Y-94708801D01*
X130544141Y-94540616D01*
X130562464Y-94448500D01*
X130562464Y-93837583D01*
X130651107Y-93874300D01*
X130939093Y-93874300D01*
X131205156Y-93764093D01*
X131408793Y-93560456D01*
X131519000Y-93294393D01*
X131519000Y-93006407D01*
X131408793Y-92740344D01*
X131205156Y-92536707D01*
X130939093Y-92426500D01*
X130830624Y-92426500D01*
X130753512Y-92374975D01*
X130605332Y-92345500D01*
X130555300Y-92335548D01*
X130509399Y-92344678D01*
X130448686Y-92253814D01*
X130395835Y-92218500D01*
X130448686Y-92183186D01*
X130509948Y-92091500D01*
X131554172Y-92091500D01*
X131604200Y-92101451D01*
X131654228Y-92091500D01*
X131654232Y-92091500D01*
X131802412Y-92062025D01*
X131970447Y-91949747D01*
X131998788Y-91907332D01*
X135767536Y-88138585D01*
X135790451Y-88123274D01*
X136194688Y-88393376D01*
X136194688Y-88393376D01*
G37*
X136194688Y-88393376D02*
X136553761Y-88464800D01*
X136796239Y-88464800D01*
X137155312Y-88393376D01*
X137484691Y-88173292D01*
X137511712Y-88213732D01*
X137511715Y-88213735D01*
X137540054Y-88256147D01*
X137582466Y-88284486D01*
X140129014Y-90831035D01*
X140157353Y-90873447D01*
X140199765Y-90901786D01*
X140199767Y-90901788D01*
X140251536Y-90936379D01*
X140251536Y-91938500D01*
X140281106Y-92087159D01*
X140365314Y-92213186D01*
X140457000Y-92274448D01*
X140457001Y-93941171D01*
X140422395Y-93918048D01*
X138942002Y-92437655D01*
X138942002Y-92414752D01*
X139100750Y-92573500D01*
X139266310Y-92573500D01*
X139499699Y-92476827D01*
X139678327Y-92298198D01*
X139775000Y-92064809D01*
X139775000Y-91699250D01*
X139616250Y-91540500D01*
X138942000Y-91540500D01*
X138942000Y-91560500D01*
X138688000Y-91560500D01*
X138688000Y-91540500D01*
X138668000Y-91540500D01*
X138668000Y-91286500D01*
X138688000Y-91286500D01*
X138688000Y-90412250D01*
X138942000Y-90412250D01*
X138942000Y-91286500D01*
X139616250Y-91286500D01*
X139775000Y-91127750D01*
X139775000Y-90762191D01*
X139678327Y-90528802D01*
X139499699Y-90350173D01*
X139266310Y-90253500D01*
X139100750Y-90253500D01*
X138942000Y-90412250D01*
X138688000Y-90412250D01*
X138529250Y-90253500D01*
X138363690Y-90253500D01*
X138130301Y-90350173D01*
X137951673Y-90528802D01*
X137855000Y-90762191D01*
X137855000Y-91046733D01*
X137826006Y-91052500D01*
X137794580Y-91052500D01*
X137748686Y-90983814D01*
X137622659Y-90899606D01*
X137474000Y-90870036D01*
X135774000Y-90870036D01*
X135625341Y-90899606D01*
X135499314Y-90983814D01*
X135453420Y-91052500D01*
X135421989Y-91052500D01*
X135369699Y-91042099D01*
X135317409Y-91052500D01*
X135317406Y-91052500D01*
X135162514Y-91083310D01*
X134986871Y-91200671D01*
X134957248Y-91245005D01*
X130809000Y-95393254D01*
X130809000Y-95266498D01*
X130650252Y-95266498D01*
X130809000Y-95107750D01*
X130809000Y-94942190D01*
X130712327Y-94708801D01*
X130544141Y-94540616D01*
X130562464Y-94448500D01*
X130562464Y-93837583D01*
X130651107Y-93874300D01*
X130939093Y-93874300D01*
X131205156Y-93764093D01*
X131408793Y-93560456D01*
X131519000Y-93294393D01*
X131519000Y-93006407D01*
X131408793Y-92740344D01*
X131205156Y-92536707D01*
X130939093Y-92426500D01*
X130830624Y-92426500D01*
X130753512Y-92374975D01*
X130605332Y-92345500D01*
X130555300Y-92335548D01*
X130509399Y-92344678D01*
X130448686Y-92253814D01*
X130395835Y-92218500D01*
X130448686Y-92183186D01*
X130509948Y-92091500D01*
X131554172Y-92091500D01*
X131604200Y-92101451D01*
X131654228Y-92091500D01*
X131654232Y-92091500D01*
X131802412Y-92062025D01*
X131970447Y-91949747D01*
X131998788Y-91907332D01*
X135767536Y-88138585D01*
X135790451Y-88123274D01*
X136194688Y-88393376D01*
G04 #@! TD*
M02*
