G04 #@! TF.GenerationSoftware,KiCad,Pcbnew,(5.0.0)*
G04 #@! TF.CreationDate,2018-09-11T18:50:04-05:00*
G04 #@! TF.ProjectId,mini-attinyuino,6D696E692D617474696E7975696E6F2E,1.0*
G04 #@! TF.SameCoordinates,Original*
G04 #@! TF.FileFunction,Soldermask,Bot*
G04 #@! TF.FilePolarity,Negative*
%FSLAX46Y46*%
G04 Gerber Fmt 4.6, Leading zero omitted, Abs format (unit mm)*
G04 Created by KiCad (PCBNEW (5.0.0)) date 09/11/18 18:50:04*
%MOMM*%
%LPD*%
G01*
G04 APERTURE LIST*
%ADD10C,2.300000*%
%ADD11O,1.800000X1.800000*%
%ADD12R,1.800000X1.800000*%
%ADD13C,0.800000*%
%ADD14C,0.127000*%
%ADD15C,1.450000*%
%ADD16C,1.075000*%
%ADD17C,0.950000*%
%ADD18R,1.600000X1.100000*%
%ADD19R,1.900000X1.100000*%
%ADD20R,1.940000X2.300000*%
%ADD21C,1.100000*%
G04 APERTURE END LIST*
D10*
G04 #@! TO.C,MH1*
X139941000Y-99194600D03*
G04 #@! TD*
G04 #@! TO.C,MH3*
X139941000Y-87812900D03*
G04 #@! TD*
D11*
G04 #@! TO.C,J1*
X136675000Y-99778800D03*
X134135000Y-99778800D03*
X131595000Y-99778800D03*
X129055000Y-99778800D03*
D12*
X126515000Y-99778800D03*
G04 #@! TD*
G04 #@! TO.C,J2*
X126515000Y-87233800D03*
D11*
X129055000Y-87233800D03*
X131595000Y-87233800D03*
X134135000Y-87233800D03*
X136675000Y-87233800D03*
G04 #@! TD*
D10*
G04 #@! TO.C,MH4*
X123647000Y-99194600D03*
G04 #@! TD*
D13*
G04 #@! TO.C,J3*
X120669000Y-91452900D03*
X120669000Y-95602900D03*
G04 #@! TD*
D10*
G04 #@! TO.C,MH2*
X123647000Y-87812900D03*
G04 #@! TD*
D14*
G04 #@! TO.C,C1*
G36*
X132487801Y-91391993D02*
X132513867Y-91395859D01*
X132539429Y-91402262D01*
X132564239Y-91411140D01*
X132588061Y-91422406D01*
X132610663Y-91435953D01*
X132631828Y-91451651D01*
X132651353Y-91469347D01*
X132669049Y-91488872D01*
X132684747Y-91510037D01*
X132698294Y-91532639D01*
X132709560Y-91556461D01*
X132718438Y-91581271D01*
X132724841Y-91606833D01*
X132728707Y-91632899D01*
X132730000Y-91659218D01*
X132730000Y-92622182D01*
X132728707Y-92648501D01*
X132724841Y-92674567D01*
X132718438Y-92700129D01*
X132709560Y-92724939D01*
X132698294Y-92748761D01*
X132684747Y-92771363D01*
X132669049Y-92792528D01*
X132651353Y-92812053D01*
X132631828Y-92829749D01*
X132610663Y-92845447D01*
X132588061Y-92858994D01*
X132564239Y-92870260D01*
X132539429Y-92879138D01*
X132513867Y-92885541D01*
X132487801Y-92889407D01*
X132461482Y-92890700D01*
X131548518Y-92890700D01*
X131522199Y-92889407D01*
X131496133Y-92885541D01*
X131470571Y-92879138D01*
X131445761Y-92870260D01*
X131421939Y-92858994D01*
X131399337Y-92845447D01*
X131378172Y-92829749D01*
X131358647Y-92812053D01*
X131340951Y-92792528D01*
X131325253Y-92771363D01*
X131311706Y-92748761D01*
X131300440Y-92724939D01*
X131291562Y-92700129D01*
X131285159Y-92674567D01*
X131281293Y-92648501D01*
X131280000Y-92622182D01*
X131280000Y-91659218D01*
X131281293Y-91632899D01*
X131285159Y-91606833D01*
X131291562Y-91581271D01*
X131300440Y-91556461D01*
X131311706Y-91532639D01*
X131325253Y-91510037D01*
X131340951Y-91488872D01*
X131358647Y-91469347D01*
X131378172Y-91451651D01*
X131399337Y-91435953D01*
X131421939Y-91422406D01*
X131445761Y-91411140D01*
X131470571Y-91402262D01*
X131496133Y-91395859D01*
X131522199Y-91391993D01*
X131548518Y-91390700D01*
X132461482Y-91390700D01*
X132487801Y-91391993D01*
X132487801Y-91391993D01*
G37*
D15*
X132005000Y-92140700D03*
D14*
G36*
X132487801Y-94091993D02*
X132513867Y-94095859D01*
X132539429Y-94102262D01*
X132564239Y-94111140D01*
X132588061Y-94122406D01*
X132610663Y-94135953D01*
X132631828Y-94151651D01*
X132651353Y-94169347D01*
X132669049Y-94188872D01*
X132684747Y-94210037D01*
X132698294Y-94232639D01*
X132709560Y-94256461D01*
X132718438Y-94281271D01*
X132724841Y-94306833D01*
X132728707Y-94332899D01*
X132730000Y-94359218D01*
X132730000Y-95322182D01*
X132728707Y-95348501D01*
X132724841Y-95374567D01*
X132718438Y-95400129D01*
X132709560Y-95424939D01*
X132698294Y-95448761D01*
X132684747Y-95471363D01*
X132669049Y-95492528D01*
X132651353Y-95512053D01*
X132631828Y-95529749D01*
X132610663Y-95545447D01*
X132588061Y-95558994D01*
X132564239Y-95570260D01*
X132539429Y-95579138D01*
X132513867Y-95585541D01*
X132487801Y-95589407D01*
X132461482Y-95590700D01*
X131548518Y-95590700D01*
X131522199Y-95589407D01*
X131496133Y-95585541D01*
X131470571Y-95579138D01*
X131445761Y-95570260D01*
X131421939Y-95558994D01*
X131399337Y-95545447D01*
X131378172Y-95529749D01*
X131358647Y-95512053D01*
X131340951Y-95492528D01*
X131325253Y-95471363D01*
X131311706Y-95448761D01*
X131300440Y-95424939D01*
X131291562Y-95400129D01*
X131285159Y-95374567D01*
X131281293Y-95348501D01*
X131280000Y-95322182D01*
X131280000Y-94359218D01*
X131281293Y-94332899D01*
X131285159Y-94306833D01*
X131291562Y-94281271D01*
X131300440Y-94256461D01*
X131311706Y-94232639D01*
X131325253Y-94210037D01*
X131340951Y-94188872D01*
X131358647Y-94169347D01*
X131378172Y-94151651D01*
X131399337Y-94135953D01*
X131421939Y-94122406D01*
X131445761Y-94111140D01*
X131470571Y-94102262D01*
X131496133Y-94095859D01*
X131522199Y-94091993D01*
X131548518Y-94090700D01*
X132461482Y-94090700D01*
X132487801Y-94091993D01*
X132487801Y-94091993D01*
G37*
D15*
X132005000Y-94840700D03*
G04 #@! TD*
D14*
G04 #@! TO.C,C2*
G36*
X140900592Y-91985394D02*
X140926681Y-91989264D01*
X140952264Y-91995672D01*
X140977096Y-92004557D01*
X141000938Y-92015834D01*
X141023560Y-92029393D01*
X141044743Y-92045103D01*
X141064285Y-92062815D01*
X141081997Y-92082357D01*
X141097707Y-92103540D01*
X141111266Y-92126162D01*
X141122543Y-92150004D01*
X141131428Y-92174836D01*
X141137836Y-92200419D01*
X141141706Y-92226508D01*
X141143000Y-92252850D01*
X141143000Y-92790350D01*
X141141706Y-92816692D01*
X141137836Y-92842781D01*
X141131428Y-92868364D01*
X141122543Y-92893196D01*
X141111266Y-92917038D01*
X141097707Y-92939660D01*
X141081997Y-92960843D01*
X141064285Y-92980385D01*
X141044743Y-92998097D01*
X141023560Y-93013807D01*
X141000938Y-93027366D01*
X140977096Y-93038643D01*
X140952264Y-93047528D01*
X140926681Y-93053936D01*
X140900592Y-93057806D01*
X140874250Y-93059100D01*
X139911750Y-93059100D01*
X139885408Y-93057806D01*
X139859319Y-93053936D01*
X139833736Y-93047528D01*
X139808904Y-93038643D01*
X139785062Y-93027366D01*
X139762440Y-93013807D01*
X139741257Y-92998097D01*
X139721715Y-92980385D01*
X139704003Y-92960843D01*
X139688293Y-92939660D01*
X139674734Y-92917038D01*
X139663457Y-92893196D01*
X139654572Y-92868364D01*
X139648164Y-92842781D01*
X139644294Y-92816692D01*
X139643000Y-92790350D01*
X139643000Y-92252850D01*
X139644294Y-92226508D01*
X139648164Y-92200419D01*
X139654572Y-92174836D01*
X139663457Y-92150004D01*
X139674734Y-92126162D01*
X139688293Y-92103540D01*
X139704003Y-92082357D01*
X139721715Y-92062815D01*
X139741257Y-92045103D01*
X139762440Y-92029393D01*
X139785062Y-92015834D01*
X139808904Y-92004557D01*
X139833736Y-91995672D01*
X139859319Y-91989264D01*
X139885408Y-91985394D01*
X139911750Y-91984100D01*
X140874250Y-91984100D01*
X140900592Y-91985394D01*
X140900592Y-91985394D01*
G37*
D16*
X140393000Y-92521600D03*
D14*
G36*
X140900592Y-93860394D02*
X140926681Y-93864264D01*
X140952264Y-93870672D01*
X140977096Y-93879557D01*
X141000938Y-93890834D01*
X141023560Y-93904393D01*
X141044743Y-93920103D01*
X141064285Y-93937815D01*
X141081997Y-93957357D01*
X141097707Y-93978540D01*
X141111266Y-94001162D01*
X141122543Y-94025004D01*
X141131428Y-94049836D01*
X141137836Y-94075419D01*
X141141706Y-94101508D01*
X141143000Y-94127850D01*
X141143000Y-94665350D01*
X141141706Y-94691692D01*
X141137836Y-94717781D01*
X141131428Y-94743364D01*
X141122543Y-94768196D01*
X141111266Y-94792038D01*
X141097707Y-94814660D01*
X141081997Y-94835843D01*
X141064285Y-94855385D01*
X141044743Y-94873097D01*
X141023560Y-94888807D01*
X141000938Y-94902366D01*
X140977096Y-94913643D01*
X140952264Y-94922528D01*
X140926681Y-94928936D01*
X140900592Y-94932806D01*
X140874250Y-94934100D01*
X139911750Y-94934100D01*
X139885408Y-94932806D01*
X139859319Y-94928936D01*
X139833736Y-94922528D01*
X139808904Y-94913643D01*
X139785062Y-94902366D01*
X139762440Y-94888807D01*
X139741257Y-94873097D01*
X139721715Y-94855385D01*
X139704003Y-94835843D01*
X139688293Y-94814660D01*
X139674734Y-94792038D01*
X139663457Y-94768196D01*
X139654572Y-94743364D01*
X139648164Y-94717781D01*
X139644294Y-94691692D01*
X139643000Y-94665350D01*
X139643000Y-94127850D01*
X139644294Y-94101508D01*
X139648164Y-94075419D01*
X139654572Y-94049836D01*
X139663457Y-94025004D01*
X139674734Y-94001162D01*
X139688293Y-93978540D01*
X139704003Y-93957357D01*
X139721715Y-93937815D01*
X139741257Y-93920103D01*
X139762440Y-93904393D01*
X139785062Y-93890834D01*
X139808904Y-93879557D01*
X139833736Y-93870672D01*
X139859319Y-93864264D01*
X139885408Y-93860394D01*
X139911750Y-93859100D01*
X140874250Y-93859100D01*
X140900592Y-93860394D01*
X140900592Y-93860394D01*
G37*
D16*
X140393000Y-94396600D03*
G04 #@! TD*
D14*
G04 #@! TO.C,R1*
G36*
X126233592Y-95430794D02*
X126259681Y-95434664D01*
X126285264Y-95441072D01*
X126310096Y-95449957D01*
X126333938Y-95461234D01*
X126356560Y-95474793D01*
X126377743Y-95490503D01*
X126397285Y-95508215D01*
X126414997Y-95527757D01*
X126430707Y-95548940D01*
X126444266Y-95571562D01*
X126455543Y-95595404D01*
X126464428Y-95620236D01*
X126470836Y-95645819D01*
X126474706Y-95671908D01*
X126476000Y-95698250D01*
X126476000Y-96660750D01*
X126474706Y-96687092D01*
X126470836Y-96713181D01*
X126464428Y-96738764D01*
X126455543Y-96763596D01*
X126444266Y-96787438D01*
X126430707Y-96810060D01*
X126414997Y-96831243D01*
X126397285Y-96850785D01*
X126377743Y-96868497D01*
X126356560Y-96884207D01*
X126333938Y-96897766D01*
X126310096Y-96909043D01*
X126285264Y-96917928D01*
X126259681Y-96924336D01*
X126233592Y-96928206D01*
X126207250Y-96929500D01*
X125669750Y-96929500D01*
X125643408Y-96928206D01*
X125617319Y-96924336D01*
X125591736Y-96917928D01*
X125566904Y-96909043D01*
X125543062Y-96897766D01*
X125520440Y-96884207D01*
X125499257Y-96868497D01*
X125479715Y-96850785D01*
X125462003Y-96831243D01*
X125446293Y-96810060D01*
X125432734Y-96787438D01*
X125421457Y-96763596D01*
X125412572Y-96738764D01*
X125406164Y-96713181D01*
X125402294Y-96687092D01*
X125401000Y-96660750D01*
X125401000Y-95698250D01*
X125402294Y-95671908D01*
X125406164Y-95645819D01*
X125412572Y-95620236D01*
X125421457Y-95595404D01*
X125432734Y-95571562D01*
X125446293Y-95548940D01*
X125462003Y-95527757D01*
X125479715Y-95508215D01*
X125499257Y-95490503D01*
X125520440Y-95474793D01*
X125543062Y-95461234D01*
X125566904Y-95449957D01*
X125591736Y-95441072D01*
X125617319Y-95434664D01*
X125643408Y-95430794D01*
X125669750Y-95429500D01*
X126207250Y-95429500D01*
X126233592Y-95430794D01*
X126233592Y-95430794D01*
G37*
D16*
X125938500Y-96179500D03*
D14*
G36*
X124358592Y-95430794D02*
X124384681Y-95434664D01*
X124410264Y-95441072D01*
X124435096Y-95449957D01*
X124458938Y-95461234D01*
X124481560Y-95474793D01*
X124502743Y-95490503D01*
X124522285Y-95508215D01*
X124539997Y-95527757D01*
X124555707Y-95548940D01*
X124569266Y-95571562D01*
X124580543Y-95595404D01*
X124589428Y-95620236D01*
X124595836Y-95645819D01*
X124599706Y-95671908D01*
X124601000Y-95698250D01*
X124601000Y-96660750D01*
X124599706Y-96687092D01*
X124595836Y-96713181D01*
X124589428Y-96738764D01*
X124580543Y-96763596D01*
X124569266Y-96787438D01*
X124555707Y-96810060D01*
X124539997Y-96831243D01*
X124522285Y-96850785D01*
X124502743Y-96868497D01*
X124481560Y-96884207D01*
X124458938Y-96897766D01*
X124435096Y-96909043D01*
X124410264Y-96917928D01*
X124384681Y-96924336D01*
X124358592Y-96928206D01*
X124332250Y-96929500D01*
X123794750Y-96929500D01*
X123768408Y-96928206D01*
X123742319Y-96924336D01*
X123716736Y-96917928D01*
X123691904Y-96909043D01*
X123668062Y-96897766D01*
X123645440Y-96884207D01*
X123624257Y-96868497D01*
X123604715Y-96850785D01*
X123587003Y-96831243D01*
X123571293Y-96810060D01*
X123557734Y-96787438D01*
X123546457Y-96763596D01*
X123537572Y-96738764D01*
X123531164Y-96713181D01*
X123527294Y-96687092D01*
X123526000Y-96660750D01*
X123526000Y-95698250D01*
X123527294Y-95671908D01*
X123531164Y-95645819D01*
X123537572Y-95620236D01*
X123546457Y-95595404D01*
X123557734Y-95571562D01*
X123571293Y-95548940D01*
X123587003Y-95527757D01*
X123604715Y-95508215D01*
X123624257Y-95490503D01*
X123645440Y-95474793D01*
X123668062Y-95461234D01*
X123691904Y-95449957D01*
X123716736Y-95441072D01*
X123742319Y-95434664D01*
X123768408Y-95430794D01*
X123794750Y-95429500D01*
X124332250Y-95429500D01*
X124358592Y-95430794D01*
X124358592Y-95430794D01*
G37*
D16*
X124063500Y-96179500D03*
G04 #@! TD*
D14*
G04 #@! TO.C,R2*
G36*
X124358592Y-90008294D02*
X124384681Y-90012164D01*
X124410264Y-90018572D01*
X124435096Y-90027457D01*
X124458938Y-90038734D01*
X124481560Y-90052293D01*
X124502743Y-90068003D01*
X124522285Y-90085715D01*
X124539997Y-90105257D01*
X124555707Y-90126440D01*
X124569266Y-90149062D01*
X124580543Y-90172904D01*
X124589428Y-90197736D01*
X124595836Y-90223319D01*
X124599706Y-90249408D01*
X124601000Y-90275750D01*
X124601000Y-91238250D01*
X124599706Y-91264592D01*
X124595836Y-91290681D01*
X124589428Y-91316264D01*
X124580543Y-91341096D01*
X124569266Y-91364938D01*
X124555707Y-91387560D01*
X124539997Y-91408743D01*
X124522285Y-91428285D01*
X124502743Y-91445997D01*
X124481560Y-91461707D01*
X124458938Y-91475266D01*
X124435096Y-91486543D01*
X124410264Y-91495428D01*
X124384681Y-91501836D01*
X124358592Y-91505706D01*
X124332250Y-91507000D01*
X123794750Y-91507000D01*
X123768408Y-91505706D01*
X123742319Y-91501836D01*
X123716736Y-91495428D01*
X123691904Y-91486543D01*
X123668062Y-91475266D01*
X123645440Y-91461707D01*
X123624257Y-91445997D01*
X123604715Y-91428285D01*
X123587003Y-91408743D01*
X123571293Y-91387560D01*
X123557734Y-91364938D01*
X123546457Y-91341096D01*
X123537572Y-91316264D01*
X123531164Y-91290681D01*
X123527294Y-91264592D01*
X123526000Y-91238250D01*
X123526000Y-90275750D01*
X123527294Y-90249408D01*
X123531164Y-90223319D01*
X123537572Y-90197736D01*
X123546457Y-90172904D01*
X123557734Y-90149062D01*
X123571293Y-90126440D01*
X123587003Y-90105257D01*
X123604715Y-90085715D01*
X123624257Y-90068003D01*
X123645440Y-90052293D01*
X123668062Y-90038734D01*
X123691904Y-90027457D01*
X123716736Y-90018572D01*
X123742319Y-90012164D01*
X123768408Y-90008294D01*
X123794750Y-90007000D01*
X124332250Y-90007000D01*
X124358592Y-90008294D01*
X124358592Y-90008294D01*
G37*
D16*
X124063500Y-90757000D03*
D14*
G36*
X126233592Y-90008294D02*
X126259681Y-90012164D01*
X126285264Y-90018572D01*
X126310096Y-90027457D01*
X126333938Y-90038734D01*
X126356560Y-90052293D01*
X126377743Y-90068003D01*
X126397285Y-90085715D01*
X126414997Y-90105257D01*
X126430707Y-90126440D01*
X126444266Y-90149062D01*
X126455543Y-90172904D01*
X126464428Y-90197736D01*
X126470836Y-90223319D01*
X126474706Y-90249408D01*
X126476000Y-90275750D01*
X126476000Y-91238250D01*
X126474706Y-91264592D01*
X126470836Y-91290681D01*
X126464428Y-91316264D01*
X126455543Y-91341096D01*
X126444266Y-91364938D01*
X126430707Y-91387560D01*
X126414997Y-91408743D01*
X126397285Y-91428285D01*
X126377743Y-91445997D01*
X126356560Y-91461707D01*
X126333938Y-91475266D01*
X126310096Y-91486543D01*
X126285264Y-91495428D01*
X126259681Y-91501836D01*
X126233592Y-91505706D01*
X126207250Y-91507000D01*
X125669750Y-91507000D01*
X125643408Y-91505706D01*
X125617319Y-91501836D01*
X125591736Y-91495428D01*
X125566904Y-91486543D01*
X125543062Y-91475266D01*
X125520440Y-91461707D01*
X125499257Y-91445997D01*
X125479715Y-91428285D01*
X125462003Y-91408743D01*
X125446293Y-91387560D01*
X125432734Y-91364938D01*
X125421457Y-91341096D01*
X125412572Y-91316264D01*
X125406164Y-91290681D01*
X125402294Y-91264592D01*
X125401000Y-91238250D01*
X125401000Y-90275750D01*
X125402294Y-90249408D01*
X125406164Y-90223319D01*
X125412572Y-90197736D01*
X125421457Y-90172904D01*
X125432734Y-90149062D01*
X125446293Y-90126440D01*
X125462003Y-90105257D01*
X125479715Y-90085715D01*
X125499257Y-90068003D01*
X125520440Y-90052293D01*
X125543062Y-90038734D01*
X125566904Y-90027457D01*
X125591736Y-90018572D01*
X125617319Y-90012164D01*
X125643408Y-90008294D01*
X125669750Y-90007000D01*
X126207250Y-90007000D01*
X126233592Y-90008294D01*
X126233592Y-90008294D01*
G37*
D16*
X125938500Y-90757000D03*
G04 #@! TD*
D14*
G04 #@! TO.C,R3*
G36*
X124358592Y-92719494D02*
X124384681Y-92723364D01*
X124410264Y-92729772D01*
X124435096Y-92738657D01*
X124458938Y-92749934D01*
X124481560Y-92763493D01*
X124502743Y-92779203D01*
X124522285Y-92796915D01*
X124539997Y-92816457D01*
X124555707Y-92837640D01*
X124569266Y-92860262D01*
X124580543Y-92884104D01*
X124589428Y-92908936D01*
X124595836Y-92934519D01*
X124599706Y-92960608D01*
X124601000Y-92986950D01*
X124601000Y-93949450D01*
X124599706Y-93975792D01*
X124595836Y-94001881D01*
X124589428Y-94027464D01*
X124580543Y-94052296D01*
X124569266Y-94076138D01*
X124555707Y-94098760D01*
X124539997Y-94119943D01*
X124522285Y-94139485D01*
X124502743Y-94157197D01*
X124481560Y-94172907D01*
X124458938Y-94186466D01*
X124435096Y-94197743D01*
X124410264Y-94206628D01*
X124384681Y-94213036D01*
X124358592Y-94216906D01*
X124332250Y-94218200D01*
X123794750Y-94218200D01*
X123768408Y-94216906D01*
X123742319Y-94213036D01*
X123716736Y-94206628D01*
X123691904Y-94197743D01*
X123668062Y-94186466D01*
X123645440Y-94172907D01*
X123624257Y-94157197D01*
X123604715Y-94139485D01*
X123587003Y-94119943D01*
X123571293Y-94098760D01*
X123557734Y-94076138D01*
X123546457Y-94052296D01*
X123537572Y-94027464D01*
X123531164Y-94001881D01*
X123527294Y-93975792D01*
X123526000Y-93949450D01*
X123526000Y-92986950D01*
X123527294Y-92960608D01*
X123531164Y-92934519D01*
X123537572Y-92908936D01*
X123546457Y-92884104D01*
X123557734Y-92860262D01*
X123571293Y-92837640D01*
X123587003Y-92816457D01*
X123604715Y-92796915D01*
X123624257Y-92779203D01*
X123645440Y-92763493D01*
X123668062Y-92749934D01*
X123691904Y-92738657D01*
X123716736Y-92729772D01*
X123742319Y-92723364D01*
X123768408Y-92719494D01*
X123794750Y-92718200D01*
X124332250Y-92718200D01*
X124358592Y-92719494D01*
X124358592Y-92719494D01*
G37*
D16*
X124063500Y-93468200D03*
D14*
G36*
X126233592Y-92719494D02*
X126259681Y-92723364D01*
X126285264Y-92729772D01*
X126310096Y-92738657D01*
X126333938Y-92749934D01*
X126356560Y-92763493D01*
X126377743Y-92779203D01*
X126397285Y-92796915D01*
X126414997Y-92816457D01*
X126430707Y-92837640D01*
X126444266Y-92860262D01*
X126455543Y-92884104D01*
X126464428Y-92908936D01*
X126470836Y-92934519D01*
X126474706Y-92960608D01*
X126476000Y-92986950D01*
X126476000Y-93949450D01*
X126474706Y-93975792D01*
X126470836Y-94001881D01*
X126464428Y-94027464D01*
X126455543Y-94052296D01*
X126444266Y-94076138D01*
X126430707Y-94098760D01*
X126414997Y-94119943D01*
X126397285Y-94139485D01*
X126377743Y-94157197D01*
X126356560Y-94172907D01*
X126333938Y-94186466D01*
X126310096Y-94197743D01*
X126285264Y-94206628D01*
X126259681Y-94213036D01*
X126233592Y-94216906D01*
X126207250Y-94218200D01*
X125669750Y-94218200D01*
X125643408Y-94216906D01*
X125617319Y-94213036D01*
X125591736Y-94206628D01*
X125566904Y-94197743D01*
X125543062Y-94186466D01*
X125520440Y-94172907D01*
X125499257Y-94157197D01*
X125479715Y-94139485D01*
X125462003Y-94119943D01*
X125446293Y-94098760D01*
X125432734Y-94076138D01*
X125421457Y-94052296D01*
X125412572Y-94027464D01*
X125406164Y-94001881D01*
X125402294Y-93975792D01*
X125401000Y-93949450D01*
X125401000Y-92986950D01*
X125402294Y-92960608D01*
X125406164Y-92934519D01*
X125412572Y-92908936D01*
X125421457Y-92884104D01*
X125432734Y-92860262D01*
X125446293Y-92837640D01*
X125462003Y-92816457D01*
X125479715Y-92796915D01*
X125499257Y-92779203D01*
X125520440Y-92763493D01*
X125543062Y-92749934D01*
X125566904Y-92738657D01*
X125591736Y-92729772D01*
X125617319Y-92723364D01*
X125643408Y-92719494D01*
X125669750Y-92718200D01*
X126207250Y-92718200D01*
X126233592Y-92719494D01*
X126233592Y-92719494D01*
G37*
D16*
X125938500Y-93468200D03*
G04 #@! TD*
D14*
G04 #@! TO.C,R4*
G36*
X130184592Y-89943594D02*
X130210681Y-89947464D01*
X130236264Y-89953872D01*
X130261096Y-89962757D01*
X130284938Y-89974034D01*
X130307560Y-89987593D01*
X130328743Y-90003303D01*
X130348285Y-90021015D01*
X130365997Y-90040557D01*
X130381707Y-90061740D01*
X130395266Y-90084362D01*
X130406543Y-90108204D01*
X130415428Y-90133036D01*
X130421836Y-90158619D01*
X130425706Y-90184708D01*
X130427000Y-90211050D01*
X130427000Y-90748550D01*
X130425706Y-90774892D01*
X130421836Y-90800981D01*
X130415428Y-90826564D01*
X130406543Y-90851396D01*
X130395266Y-90875238D01*
X130381707Y-90897860D01*
X130365997Y-90919043D01*
X130348285Y-90938585D01*
X130328743Y-90956297D01*
X130307560Y-90972007D01*
X130284938Y-90985566D01*
X130261096Y-90996843D01*
X130236264Y-91005728D01*
X130210681Y-91012136D01*
X130184592Y-91016006D01*
X130158250Y-91017300D01*
X129195750Y-91017300D01*
X129169408Y-91016006D01*
X129143319Y-91012136D01*
X129117736Y-91005728D01*
X129092904Y-90996843D01*
X129069062Y-90985566D01*
X129046440Y-90972007D01*
X129025257Y-90956297D01*
X129005715Y-90938585D01*
X128988003Y-90919043D01*
X128972293Y-90897860D01*
X128958734Y-90875238D01*
X128947457Y-90851396D01*
X128938572Y-90826564D01*
X128932164Y-90800981D01*
X128928294Y-90774892D01*
X128927000Y-90748550D01*
X128927000Y-90211050D01*
X128928294Y-90184708D01*
X128932164Y-90158619D01*
X128938572Y-90133036D01*
X128947457Y-90108204D01*
X128958734Y-90084362D01*
X128972293Y-90061740D01*
X128988003Y-90040557D01*
X129005715Y-90021015D01*
X129025257Y-90003303D01*
X129046440Y-89987593D01*
X129069062Y-89974034D01*
X129092904Y-89962757D01*
X129117736Y-89953872D01*
X129143319Y-89947464D01*
X129169408Y-89943594D01*
X129195750Y-89942300D01*
X130158250Y-89942300D01*
X130184592Y-89943594D01*
X130184592Y-89943594D01*
G37*
D16*
X129677000Y-90479800D03*
D14*
G36*
X130184592Y-91818594D02*
X130210681Y-91822464D01*
X130236264Y-91828872D01*
X130261096Y-91837757D01*
X130284938Y-91849034D01*
X130307560Y-91862593D01*
X130328743Y-91878303D01*
X130348285Y-91896015D01*
X130365997Y-91915557D01*
X130381707Y-91936740D01*
X130395266Y-91959362D01*
X130406543Y-91983204D01*
X130415428Y-92008036D01*
X130421836Y-92033619D01*
X130425706Y-92059708D01*
X130427000Y-92086050D01*
X130427000Y-92623550D01*
X130425706Y-92649892D01*
X130421836Y-92675981D01*
X130415428Y-92701564D01*
X130406543Y-92726396D01*
X130395266Y-92750238D01*
X130381707Y-92772860D01*
X130365997Y-92794043D01*
X130348285Y-92813585D01*
X130328743Y-92831297D01*
X130307560Y-92847007D01*
X130284938Y-92860566D01*
X130261096Y-92871843D01*
X130236264Y-92880728D01*
X130210681Y-92887136D01*
X130184592Y-92891006D01*
X130158250Y-92892300D01*
X129195750Y-92892300D01*
X129169408Y-92891006D01*
X129143319Y-92887136D01*
X129117736Y-92880728D01*
X129092904Y-92871843D01*
X129069062Y-92860566D01*
X129046440Y-92847007D01*
X129025257Y-92831297D01*
X129005715Y-92813585D01*
X128988003Y-92794043D01*
X128972293Y-92772860D01*
X128958734Y-92750238D01*
X128947457Y-92726396D01*
X128938572Y-92701564D01*
X128932164Y-92675981D01*
X128928294Y-92649892D01*
X128927000Y-92623550D01*
X128927000Y-92086050D01*
X128928294Y-92059708D01*
X128932164Y-92033619D01*
X128938572Y-92008036D01*
X128947457Y-91983204D01*
X128958734Y-91959362D01*
X128972293Y-91936740D01*
X128988003Y-91915557D01*
X129005715Y-91896015D01*
X129025257Y-91878303D01*
X129046440Y-91862593D01*
X129069062Y-91849034D01*
X129092904Y-91837757D01*
X129117736Y-91828872D01*
X129143319Y-91822464D01*
X129169408Y-91818594D01*
X129195750Y-91817300D01*
X130158250Y-91817300D01*
X130184592Y-91818594D01*
X130184592Y-91818594D01*
G37*
D16*
X129677000Y-92354800D03*
G04 #@! TD*
D14*
G04 #@! TO.C,R5*
G36*
X130184592Y-94045294D02*
X130210681Y-94049164D01*
X130236264Y-94055572D01*
X130261096Y-94064457D01*
X130284938Y-94075734D01*
X130307560Y-94089293D01*
X130328743Y-94105003D01*
X130348285Y-94122715D01*
X130365997Y-94142257D01*
X130381707Y-94163440D01*
X130395266Y-94186062D01*
X130406543Y-94209904D01*
X130415428Y-94234736D01*
X130421836Y-94260319D01*
X130425706Y-94286408D01*
X130427000Y-94312750D01*
X130427000Y-94850250D01*
X130425706Y-94876592D01*
X130421836Y-94902681D01*
X130415428Y-94928264D01*
X130406543Y-94953096D01*
X130395266Y-94976938D01*
X130381707Y-94999560D01*
X130365997Y-95020743D01*
X130348285Y-95040285D01*
X130328743Y-95057997D01*
X130307560Y-95073707D01*
X130284938Y-95087266D01*
X130261096Y-95098543D01*
X130236264Y-95107428D01*
X130210681Y-95113836D01*
X130184592Y-95117706D01*
X130158250Y-95119000D01*
X129195750Y-95119000D01*
X129169408Y-95117706D01*
X129143319Y-95113836D01*
X129117736Y-95107428D01*
X129092904Y-95098543D01*
X129069062Y-95087266D01*
X129046440Y-95073707D01*
X129025257Y-95057997D01*
X129005715Y-95040285D01*
X128988003Y-95020743D01*
X128972293Y-94999560D01*
X128958734Y-94976938D01*
X128947457Y-94953096D01*
X128938572Y-94928264D01*
X128932164Y-94902681D01*
X128928294Y-94876592D01*
X128927000Y-94850250D01*
X128927000Y-94312750D01*
X128928294Y-94286408D01*
X128932164Y-94260319D01*
X128938572Y-94234736D01*
X128947457Y-94209904D01*
X128958734Y-94186062D01*
X128972293Y-94163440D01*
X128988003Y-94142257D01*
X129005715Y-94122715D01*
X129025257Y-94105003D01*
X129046440Y-94089293D01*
X129069062Y-94075734D01*
X129092904Y-94064457D01*
X129117736Y-94055572D01*
X129143319Y-94049164D01*
X129169408Y-94045294D01*
X129195750Y-94044000D01*
X130158250Y-94044000D01*
X130184592Y-94045294D01*
X130184592Y-94045294D01*
G37*
D16*
X129677000Y-94581500D03*
D14*
G36*
X130184592Y-95920294D02*
X130210681Y-95924164D01*
X130236264Y-95930572D01*
X130261096Y-95939457D01*
X130284938Y-95950734D01*
X130307560Y-95964293D01*
X130328743Y-95980003D01*
X130348285Y-95997715D01*
X130365997Y-96017257D01*
X130381707Y-96038440D01*
X130395266Y-96061062D01*
X130406543Y-96084904D01*
X130415428Y-96109736D01*
X130421836Y-96135319D01*
X130425706Y-96161408D01*
X130427000Y-96187750D01*
X130427000Y-96725250D01*
X130425706Y-96751592D01*
X130421836Y-96777681D01*
X130415428Y-96803264D01*
X130406543Y-96828096D01*
X130395266Y-96851938D01*
X130381707Y-96874560D01*
X130365997Y-96895743D01*
X130348285Y-96915285D01*
X130328743Y-96932997D01*
X130307560Y-96948707D01*
X130284938Y-96962266D01*
X130261096Y-96973543D01*
X130236264Y-96982428D01*
X130210681Y-96988836D01*
X130184592Y-96992706D01*
X130158250Y-96994000D01*
X129195750Y-96994000D01*
X129169408Y-96992706D01*
X129143319Y-96988836D01*
X129117736Y-96982428D01*
X129092904Y-96973543D01*
X129069062Y-96962266D01*
X129046440Y-96948707D01*
X129025257Y-96932997D01*
X129005715Y-96915285D01*
X128988003Y-96895743D01*
X128972293Y-96874560D01*
X128958734Y-96851938D01*
X128947457Y-96828096D01*
X128938572Y-96803264D01*
X128932164Y-96777681D01*
X128928294Y-96751592D01*
X128927000Y-96725250D01*
X128927000Y-96187750D01*
X128928294Y-96161408D01*
X128932164Y-96135319D01*
X128938572Y-96109736D01*
X128947457Y-96084904D01*
X128958734Y-96061062D01*
X128972293Y-96038440D01*
X128988003Y-96017257D01*
X129005715Y-95997715D01*
X129025257Y-95980003D01*
X129046440Y-95964293D01*
X129069062Y-95950734D01*
X129092904Y-95939457D01*
X129117736Y-95930572D01*
X129143319Y-95924164D01*
X129169408Y-95920294D01*
X129195750Y-95919000D01*
X130158250Y-95919000D01*
X130184592Y-95920294D01*
X130184592Y-95920294D01*
G37*
D16*
X129677000Y-96456500D03*
G04 #@! TD*
D17*
G04 #@! TO.C,U1*
X133947000Y-93385600D03*
D14*
G36*
X133472000Y-92859692D02*
X134422000Y-92189104D01*
X134422000Y-94582096D01*
X133472000Y-93911508D01*
X133472000Y-92859692D01*
X133472000Y-92859692D01*
G37*
D18*
X138094000Y-91885600D03*
D19*
X137947500Y-93385600D03*
D18*
X138094000Y-94885600D03*
D20*
X135280500Y-93385600D03*
D21*
X136690200Y-93385600D03*
D14*
G36*
X137240200Y-93811633D02*
X136140200Y-94581633D01*
X136140200Y-92189567D01*
X137240200Y-92959567D01*
X137240200Y-93811633D01*
X137240200Y-93811633D01*
G37*
G04 #@! TD*
M02*
