G04 #@! TF.GenerationSoftware,KiCad,Pcbnew,(5.0.0)*
G04 #@! TF.CreationDate,2018-09-08T13:32:02-05:00*
G04 #@! TF.ProjectId,mini-attinyuino,6D696E692D617474696E7975696E6F2E,1.0*
G04 #@! TF.SameCoordinates,Original*
G04 #@! TF.FileFunction,Copper,L1,Top,Signal*
G04 #@! TF.FilePolarity,Positive*
%FSLAX46Y46*%
G04 Gerber Fmt 4.6, Leading zero omitted, Abs format (unit mm)*
G04 Created by KiCad (PCBNEW (5.0.0)) date 09/08/18 13:32:02*
%MOMM*%
%LPD*%
G01*
G04 APERTURE LIST*
G04 #@! TA.AperFunction,SMDPad,CuDef*
%ADD10R,0.650000X1.050000*%
G04 #@! TD*
G04 #@! TA.AperFunction,ComponentPad*
%ADD11O,1.700000X1.700000*%
G04 #@! TD*
G04 #@! TA.AperFunction,ComponentPad*
%ADD12R,1.700000X1.700000*%
G04 #@! TD*
G04 #@! TA.AperFunction,SMDPad,CuDef*
%ADD13R,1.300000X1.700000*%
G04 #@! TD*
G04 #@! TA.AperFunction,SMDPad,CuDef*
%ADD14R,0.500000X0.500000*%
G04 #@! TD*
G04 #@! TA.AperFunction,Conductor*
%ADD15C,0.127000*%
G04 #@! TD*
G04 #@! TA.AperFunction,SMDPad,CuDef*
%ADD16C,0.975000*%
G04 #@! TD*
G04 #@! TA.AperFunction,SMDPad,CuDef*
%ADD17R,1.900000X1.800000*%
G04 #@! TD*
G04 #@! TA.AperFunction,SMDPad,CuDef*
%ADD18R,1.900000X1.900000*%
G04 #@! TD*
G04 #@! TA.AperFunction,SMDPad,CuDef*
%ADD19R,1.350000X0.400000*%
G04 #@! TD*
G04 #@! TA.AperFunction,SMDPad,CuDef*
%ADD20R,1.700000X0.650000*%
G04 #@! TD*
G04 #@! TA.AperFunction,ViaPad*
%ADD21C,0.685800*%
G04 #@! TD*
G04 #@! TA.AperFunction,Conductor*
%ADD22C,0.300000*%
G04 #@! TD*
G04 #@! TA.AperFunction,Conductor*
%ADD23C,0.254000*%
G04 #@! TD*
G04 APERTURE END LIST*
D10*
G04 #@! TO.P,SW1,1*
G04 #@! TO.N,GND*
X138815000Y-95563500D03*
X138815000Y-91413500D03*
G04 #@! TO.P,SW1,2*
G04 #@! TO.N,/PG5*
X140965000Y-95563500D03*
X140965000Y-91413500D03*
G04 #@! TD*
D11*
G04 #@! TO.P,J1,5*
G04 #@! TO.N,+5V*
X136675000Y-99778800D03*
G04 #@! TO.P,J1,4*
G04 #@! TO.N,/PG3*
X134135000Y-99778800D03*
G04 #@! TO.P,J1,3*
G04 #@! TO.N,/PG1*
X131595000Y-99778800D03*
G04 #@! TO.P,J1,2*
G04 #@! TO.N,/PG4*
X129055000Y-99778800D03*
D12*
G04 #@! TO.P,J1,1*
G04 #@! TO.N,VBUS*
X126515000Y-99778800D03*
G04 #@! TD*
G04 #@! TO.P,J2,1*
G04 #@! TO.N,VCC*
X126515000Y-87233800D03*
D11*
G04 #@! TO.P,J2,2*
G04 #@! TO.N,GND*
X129055000Y-87233800D03*
G04 #@! TO.P,J2,3*
G04 #@! TO.N,Net-(J2-Pad3)*
X131595000Y-87233800D03*
G04 #@! TO.P,J2,4*
G04 #@! TO.N,Net-(J2-Pad4)*
X134135000Y-87233800D03*
G04 #@! TO.P,J2,5*
G04 #@! TO.N,/PG5*
X136675000Y-87233800D03*
G04 #@! TD*
D13*
G04 #@! TO.P,D4,1*
G04 #@! TO.N,Net-(D4-Pad1)*
X123419000Y-93526500D03*
G04 #@! TO.P,D4,2*
G04 #@! TO.N,GND*
X126919000Y-93526500D03*
G04 #@! TD*
D14*
G04 #@! TO.P,D2,1*
G04 #@! TO.N,+5V*
X126269000Y-91008200D03*
G04 #@! TO.P,D2,2*
G04 #@! TO.N,VBUS*
X124069000Y-91008200D03*
G04 #@! TD*
D15*
G04 #@! TO.N,Net-(D3-Pad1)*
G04 #@! TO.C,D3*
G36*
X119332142Y-86529874D02*
X119355803Y-86533384D01*
X119379007Y-86539196D01*
X119401529Y-86547254D01*
X119423153Y-86557482D01*
X119443670Y-86569779D01*
X119462883Y-86584029D01*
X119480607Y-86600093D01*
X119496671Y-86617817D01*
X119510921Y-86637030D01*
X119523218Y-86657547D01*
X119533446Y-86679171D01*
X119541504Y-86701693D01*
X119547316Y-86724897D01*
X119550826Y-86748558D01*
X119552000Y-86772450D01*
X119552000Y-87684950D01*
X119550826Y-87708842D01*
X119547316Y-87732503D01*
X119541504Y-87755707D01*
X119533446Y-87778229D01*
X119523218Y-87799853D01*
X119510921Y-87820370D01*
X119496671Y-87839583D01*
X119480607Y-87857307D01*
X119462883Y-87873371D01*
X119443670Y-87887621D01*
X119423153Y-87899918D01*
X119401529Y-87910146D01*
X119379007Y-87918204D01*
X119355803Y-87924016D01*
X119332142Y-87927526D01*
X119308250Y-87928700D01*
X118820750Y-87928700D01*
X118796858Y-87927526D01*
X118773197Y-87924016D01*
X118749993Y-87918204D01*
X118727471Y-87910146D01*
X118705847Y-87899918D01*
X118685330Y-87887621D01*
X118666117Y-87873371D01*
X118648393Y-87857307D01*
X118632329Y-87839583D01*
X118618079Y-87820370D01*
X118605782Y-87799853D01*
X118595554Y-87778229D01*
X118587496Y-87755707D01*
X118581684Y-87732503D01*
X118578174Y-87708842D01*
X118577000Y-87684950D01*
X118577000Y-86772450D01*
X118578174Y-86748558D01*
X118581684Y-86724897D01*
X118587496Y-86701693D01*
X118595554Y-86679171D01*
X118605782Y-86657547D01*
X118618079Y-86637030D01*
X118632329Y-86617817D01*
X118648393Y-86600093D01*
X118666117Y-86584029D01*
X118685330Y-86569779D01*
X118705847Y-86557482D01*
X118727471Y-86547254D01*
X118749993Y-86539196D01*
X118773197Y-86533384D01*
X118796858Y-86529874D01*
X118820750Y-86528700D01*
X119308250Y-86528700D01*
X119332142Y-86529874D01*
X119332142Y-86529874D01*
G37*
D16*
G04 #@! TD*
G04 #@! TO.P,D3,1*
G04 #@! TO.N,Net-(D3-Pad1)*
X119064500Y-87228700D03*
D15*
G04 #@! TO.N,/PG1*
G04 #@! TO.C,D3*
G36*
X121207142Y-86529874D02*
X121230803Y-86533384D01*
X121254007Y-86539196D01*
X121276529Y-86547254D01*
X121298153Y-86557482D01*
X121318670Y-86569779D01*
X121337883Y-86584029D01*
X121355607Y-86600093D01*
X121371671Y-86617817D01*
X121385921Y-86637030D01*
X121398218Y-86657547D01*
X121408446Y-86679171D01*
X121416504Y-86701693D01*
X121422316Y-86724897D01*
X121425826Y-86748558D01*
X121427000Y-86772450D01*
X121427000Y-87684950D01*
X121425826Y-87708842D01*
X121422316Y-87732503D01*
X121416504Y-87755707D01*
X121408446Y-87778229D01*
X121398218Y-87799853D01*
X121385921Y-87820370D01*
X121371671Y-87839583D01*
X121355607Y-87857307D01*
X121337883Y-87873371D01*
X121318670Y-87887621D01*
X121298153Y-87899918D01*
X121276529Y-87910146D01*
X121254007Y-87918204D01*
X121230803Y-87924016D01*
X121207142Y-87927526D01*
X121183250Y-87928700D01*
X120695750Y-87928700D01*
X120671858Y-87927526D01*
X120648197Y-87924016D01*
X120624993Y-87918204D01*
X120602471Y-87910146D01*
X120580847Y-87899918D01*
X120560330Y-87887621D01*
X120541117Y-87873371D01*
X120523393Y-87857307D01*
X120507329Y-87839583D01*
X120493079Y-87820370D01*
X120480782Y-87799853D01*
X120470554Y-87778229D01*
X120462496Y-87755707D01*
X120456684Y-87732503D01*
X120453174Y-87708842D01*
X120452000Y-87684950D01*
X120452000Y-86772450D01*
X120453174Y-86748558D01*
X120456684Y-86724897D01*
X120462496Y-86701693D01*
X120470554Y-86679171D01*
X120480782Y-86657547D01*
X120493079Y-86637030D01*
X120507329Y-86617817D01*
X120523393Y-86600093D01*
X120541117Y-86584029D01*
X120560330Y-86569779D01*
X120580847Y-86557482D01*
X120602471Y-86547254D01*
X120624993Y-86539196D01*
X120648197Y-86533384D01*
X120671858Y-86529874D01*
X120695750Y-86528700D01*
X121183250Y-86528700D01*
X121207142Y-86529874D01*
X121207142Y-86529874D01*
G37*
D16*
G04 #@! TD*
G04 #@! TO.P,D3,2*
G04 #@! TO.N,/PG1*
X120939500Y-87228700D03*
D17*
G04 #@! TO.P,J3,6*
G04 #@! TO.N,GND*
X118219000Y-89527900D03*
X118219000Y-97527900D03*
D18*
G04 #@! TO.P,J3,*
G04 #@! TO.N,*
X118219000Y-92327900D03*
X118219000Y-94727900D03*
D19*
G04 #@! TO.P,J3,1*
G04 #@! TO.N,VBUS*
X121094000Y-92227900D03*
G04 #@! TO.P,J3,2*
G04 #@! TO.N,Net-(D4-Pad1)*
X121094000Y-92877900D03*
G04 #@! TO.P,J3,3*
G04 #@! TO.N,Net-(D5-Pad1)*
X121094000Y-93527900D03*
G04 #@! TO.P,J3,4*
G04 #@! TO.N,Net-(J3-Pad4)*
X121094000Y-94177900D03*
G04 #@! TO.P,J3,5*
G04 #@! TO.N,GND*
X121094000Y-94827900D03*
G04 #@! TD*
D15*
G04 #@! TO.N,Net-(D1-Pad1)*
G04 #@! TO.C,D1*
G36*
X119337142Y-99128274D02*
X119360803Y-99131784D01*
X119384007Y-99137596D01*
X119406529Y-99145654D01*
X119428153Y-99155882D01*
X119448670Y-99168179D01*
X119467883Y-99182429D01*
X119485607Y-99198493D01*
X119501671Y-99216217D01*
X119515921Y-99235430D01*
X119528218Y-99255947D01*
X119538446Y-99277571D01*
X119546504Y-99300093D01*
X119552316Y-99323297D01*
X119555826Y-99346958D01*
X119557000Y-99370850D01*
X119557000Y-100283350D01*
X119555826Y-100307242D01*
X119552316Y-100330903D01*
X119546504Y-100354107D01*
X119538446Y-100376629D01*
X119528218Y-100398253D01*
X119515921Y-100418770D01*
X119501671Y-100437983D01*
X119485607Y-100455707D01*
X119467883Y-100471771D01*
X119448670Y-100486021D01*
X119428153Y-100498318D01*
X119406529Y-100508546D01*
X119384007Y-100516604D01*
X119360803Y-100522416D01*
X119337142Y-100525926D01*
X119313250Y-100527100D01*
X118825750Y-100527100D01*
X118801858Y-100525926D01*
X118778197Y-100522416D01*
X118754993Y-100516604D01*
X118732471Y-100508546D01*
X118710847Y-100498318D01*
X118690330Y-100486021D01*
X118671117Y-100471771D01*
X118653393Y-100455707D01*
X118637329Y-100437983D01*
X118623079Y-100418770D01*
X118610782Y-100398253D01*
X118600554Y-100376629D01*
X118592496Y-100354107D01*
X118586684Y-100330903D01*
X118583174Y-100307242D01*
X118582000Y-100283350D01*
X118582000Y-99370850D01*
X118583174Y-99346958D01*
X118586684Y-99323297D01*
X118592496Y-99300093D01*
X118600554Y-99277571D01*
X118610782Y-99255947D01*
X118623079Y-99235430D01*
X118637329Y-99216217D01*
X118653393Y-99198493D01*
X118671117Y-99182429D01*
X118690330Y-99168179D01*
X118710847Y-99155882D01*
X118732471Y-99145654D01*
X118754993Y-99137596D01*
X118778197Y-99131784D01*
X118801858Y-99128274D01*
X118825750Y-99127100D01*
X119313250Y-99127100D01*
X119337142Y-99128274D01*
X119337142Y-99128274D01*
G37*
D16*
G04 #@! TD*
G04 #@! TO.P,D1,1*
G04 #@! TO.N,Net-(D1-Pad1)*
X119069500Y-99827100D03*
D15*
G04 #@! TO.N,+5V*
G04 #@! TO.C,D1*
G36*
X121212142Y-99128274D02*
X121235803Y-99131784D01*
X121259007Y-99137596D01*
X121281529Y-99145654D01*
X121303153Y-99155882D01*
X121323670Y-99168179D01*
X121342883Y-99182429D01*
X121360607Y-99198493D01*
X121376671Y-99216217D01*
X121390921Y-99235430D01*
X121403218Y-99255947D01*
X121413446Y-99277571D01*
X121421504Y-99300093D01*
X121427316Y-99323297D01*
X121430826Y-99346958D01*
X121432000Y-99370850D01*
X121432000Y-100283350D01*
X121430826Y-100307242D01*
X121427316Y-100330903D01*
X121421504Y-100354107D01*
X121413446Y-100376629D01*
X121403218Y-100398253D01*
X121390921Y-100418770D01*
X121376671Y-100437983D01*
X121360607Y-100455707D01*
X121342883Y-100471771D01*
X121323670Y-100486021D01*
X121303153Y-100498318D01*
X121281529Y-100508546D01*
X121259007Y-100516604D01*
X121235803Y-100522416D01*
X121212142Y-100525926D01*
X121188250Y-100527100D01*
X120700750Y-100527100D01*
X120676858Y-100525926D01*
X120653197Y-100522416D01*
X120629993Y-100516604D01*
X120607471Y-100508546D01*
X120585847Y-100498318D01*
X120565330Y-100486021D01*
X120546117Y-100471771D01*
X120528393Y-100455707D01*
X120512329Y-100437983D01*
X120498079Y-100418770D01*
X120485782Y-100398253D01*
X120475554Y-100376629D01*
X120467496Y-100354107D01*
X120461684Y-100330903D01*
X120458174Y-100307242D01*
X120457000Y-100283350D01*
X120457000Y-99370850D01*
X120458174Y-99346958D01*
X120461684Y-99323297D01*
X120467496Y-99300093D01*
X120475554Y-99277571D01*
X120485782Y-99255947D01*
X120498079Y-99235430D01*
X120512329Y-99216217D01*
X120528393Y-99198493D01*
X120546117Y-99182429D01*
X120565330Y-99168179D01*
X120585847Y-99155882D01*
X120607471Y-99145654D01*
X120629993Y-99137596D01*
X120653197Y-99131784D01*
X120676858Y-99128274D01*
X120700750Y-99127100D01*
X121188250Y-99127100D01*
X121212142Y-99128274D01*
X121212142Y-99128274D01*
G37*
D16*
G04 #@! TD*
G04 #@! TO.P,D1,2*
G04 #@! TO.N,+5V*
X120944500Y-99827100D03*
D13*
G04 #@! TO.P,D5,2*
G04 #@! TO.N,GND*
X126919000Y-96194900D03*
G04 #@! TO.P,D5,1*
G04 #@! TO.N,Net-(D5-Pad1)*
X123419000Y-96194900D03*
G04 #@! TD*
D20*
G04 #@! TO.P,U2,1*
G04 #@! TO.N,/PG5*
X129324000Y-91583500D03*
G04 #@! TO.P,U2,2*
G04 #@! TO.N,Net-(J2-Pad4)*
X129324000Y-92853500D03*
G04 #@! TO.P,U2,3*
G04 #@! TO.N,Net-(J2-Pad3)*
X129324000Y-94123500D03*
G04 #@! TO.P,U2,4*
G04 #@! TO.N,GND*
X129324000Y-95393500D03*
G04 #@! TO.P,U2,5*
G04 #@! TO.N,/PG4*
X136624000Y-95393500D03*
G04 #@! TO.P,U2,6*
G04 #@! TO.N,/PG1*
X136624000Y-94123500D03*
G04 #@! TO.P,U2,7*
G04 #@! TO.N,/PG3*
X136624000Y-92853500D03*
G04 #@! TO.P,U2,8*
G04 #@! TO.N,+5V*
X136624000Y-91583500D03*
G04 #@! TD*
D21*
G04 #@! TO.N,+5V*
X133817800Y-95346300D03*
X128087500Y-90479600D03*
G04 #@! TO.N,GND*
X125022500Y-91829900D03*
X131121500Y-95313100D03*
G04 #@! TO.N,Net-(D1-Pad1)*
X121872000Y-97851100D03*
G04 #@! TO.N,Net-(D3-Pad1)*
X120522700Y-88541700D03*
G04 #@! TO.N,VCC*
X138019500Y-90216100D03*
G04 #@! TO.N,Net-(D5-Pad1)*
X122171700Y-95565200D03*
G04 #@! TO.N,/PG3*
X133086200Y-96788100D03*
G04 #@! TO.N,/PG5*
X133070100Y-91223900D03*
G04 #@! TO.N,VBUS*
X120423200Y-96564100D03*
G04 #@! TO.N,Net-(D4-Pad1)*
X124923800Y-94584300D03*
G04 #@! TO.N,Net-(J2-Pad4)*
X130963400Y-92890100D03*
G04 #@! TO.N,Net-(J2-Pad3)*
X127820000Y-91601800D03*
G04 #@! TD*
D22*
G04 #@! TO.N,+5V*
X134943500Y-92009700D02*
X133817800Y-93135400D01*
X133817800Y-93135400D02*
X133817800Y-95346300D01*
X135369700Y-91583500D02*
X134943500Y-92009700D01*
X128087500Y-90479600D02*
X128123300Y-90443800D01*
X128123300Y-90443800D02*
X133377600Y-90443800D01*
X133377600Y-90443800D02*
X134943500Y-92009700D01*
X133817800Y-95346300D02*
X132785400Y-95346300D01*
X132785400Y-95346300D02*
X130494000Y-97637700D01*
X130494000Y-97637700D02*
X126370500Y-97637700D01*
X126370500Y-97637700D02*
X125260600Y-98747600D01*
X125260600Y-98747600D02*
X125260600Y-99777600D01*
X125260600Y-99777600D02*
X124337600Y-100700600D01*
X124337600Y-100700600D02*
X121818000Y-100700600D01*
X121818000Y-100700600D02*
X120944500Y-99827100D01*
X128087500Y-90479600D02*
X127451900Y-90479600D01*
X127451900Y-90479600D02*
X126923300Y-91008200D01*
X126269000Y-91008200D02*
X126923300Y-91008200D01*
X136624000Y-91583500D02*
X135369700Y-91583500D01*
G04 #@! TO.N,GND*
X125864700Y-96194900D02*
X124599400Y-97460200D01*
X124599400Y-97460200D02*
X122537800Y-97460200D01*
X122537800Y-97460200D02*
X121707500Y-96629900D01*
X121707500Y-96629900D02*
X121423900Y-96629900D01*
X129055000Y-87233800D02*
X130309300Y-87233800D01*
X130309300Y-87233800D02*
X130309300Y-87782600D01*
X130309300Y-87782600D02*
X131014800Y-88488100D01*
X131014800Y-88488100D02*
X137362600Y-88488100D01*
X137362600Y-88488100D02*
X138815000Y-89940500D01*
X138815000Y-89940500D02*
X138815000Y-91413500D01*
X125495500Y-91356900D02*
X124463100Y-90324500D01*
X124463100Y-90324500D02*
X120369900Y-90324500D01*
X120369900Y-90324500D02*
X119573300Y-89527900D01*
X126919000Y-92272200D02*
X126410800Y-92272200D01*
X126410800Y-92272200D02*
X125495500Y-91356900D01*
X125495500Y-91356900D02*
X125022500Y-91829900D01*
X127582400Y-95444100D02*
X126919000Y-96107500D01*
X126919000Y-96107500D02*
X126919000Y-96194900D01*
X128357800Y-95393500D02*
X127633000Y-95393500D01*
X127633000Y-95393500D02*
X127582400Y-95444100D01*
X127582400Y-95444100D02*
X126919000Y-94780800D01*
X126919000Y-93526500D02*
X126919000Y-94780800D01*
X118219000Y-89527900D02*
X119573300Y-89527900D01*
X126919000Y-93526500D02*
X126919000Y-92272200D01*
X119573300Y-97527900D02*
X120525900Y-97527900D01*
X120525900Y-97527900D02*
X121423900Y-96629900D01*
X138815000Y-95563500D02*
X138815000Y-91413500D01*
X121423900Y-96629900D02*
X121423900Y-95157800D01*
X121423900Y-95157800D02*
X121094000Y-94827900D01*
X118219000Y-97527900D02*
X119573300Y-97527900D01*
X126919000Y-96194900D02*
X125864700Y-96194900D01*
X129324000Y-95393500D02*
X128357800Y-95393500D01*
X129324000Y-95393500D02*
X130578300Y-95393500D01*
X131121500Y-95313100D02*
X130658700Y-95313100D01*
X130658700Y-95313100D02*
X130578300Y-95393500D01*
D23*
G04 #@! TO.N,Net-(D1-Pad1)*
X121872000Y-97851100D02*
X121045500Y-97851100D01*
X121045500Y-97851100D02*
X119069500Y-99827100D01*
G04 #@! TO.N,/PG1*
X120939500Y-87228700D02*
X123284600Y-89573800D01*
X123284600Y-89573800D02*
X136353200Y-89573800D01*
X136353200Y-89573800D02*
X137855300Y-91075900D01*
X137855300Y-91075900D02*
X137855300Y-94123500D01*
X131595000Y-99778800D02*
X132826300Y-99778800D01*
X136624000Y-94123500D02*
X137855300Y-94123500D01*
X137855300Y-94123500D02*
X137855300Y-95949100D01*
X137855300Y-95949100D02*
X136660600Y-97143800D01*
X136660600Y-97143800D02*
X134951100Y-97143800D01*
X134951100Y-97143800D02*
X132826300Y-99268600D01*
X132826300Y-99268600D02*
X132826300Y-99778800D01*
G04 #@! TO.N,Net-(D3-Pad1)*
X120522700Y-88541700D02*
X119209700Y-87228700D01*
X119209700Y-87228700D02*
X119064500Y-87228700D01*
D22*
G04 #@! TO.N,VCC*
X127769300Y-87233800D02*
X127769300Y-87782600D01*
X127769300Y-87782600D02*
X129029100Y-89042400D01*
X129029100Y-89042400D02*
X136845800Y-89042400D01*
X136845800Y-89042400D02*
X138019500Y-90216100D01*
X126515000Y-87233800D02*
X127769300Y-87233800D01*
D23*
G04 #@! TO.N,Net-(D5-Pad1)*
X122171700Y-95565200D02*
X122171700Y-93549300D01*
X122171700Y-93549300D02*
X122150300Y-93527900D01*
X122387700Y-96194900D02*
X122387700Y-95781200D01*
X122387700Y-95781200D02*
X122171700Y-95565200D01*
X121094000Y-93527900D02*
X122150300Y-93527900D01*
X123419000Y-96194900D02*
X122387700Y-96194900D01*
G04 #@! TO.N,/PG3*
X133086200Y-96788100D02*
X133400200Y-96788100D01*
X133400200Y-96788100D02*
X134542000Y-95646300D01*
X134542000Y-95646300D02*
X134542000Y-93704200D01*
X134542000Y-93704200D02*
X135392700Y-92853500D01*
X136624000Y-92853500D02*
X135392700Y-92853500D01*
G04 #@! TO.N,/PG4*
X129055000Y-99778800D02*
X130286300Y-99778800D01*
X136624000Y-95393500D02*
X135392700Y-95393500D01*
X135392700Y-95393500D02*
X135392700Y-95549900D01*
X135392700Y-95549900D02*
X132907300Y-98035300D01*
X132907300Y-98035300D02*
X131519600Y-98035300D01*
X131519600Y-98035300D02*
X130286300Y-99268600D01*
X130286300Y-99268600D02*
X130286300Y-99778800D01*
G04 #@! TO.N,/PG5*
X130555300Y-91583500D02*
X130914900Y-91223900D01*
X130914900Y-91223900D02*
X133070100Y-91223900D01*
X136675000Y-87233800D02*
X137906300Y-87233800D01*
X140965000Y-91413500D02*
X140965000Y-90507200D01*
X140965000Y-90507200D02*
X140536600Y-90507200D01*
X140536600Y-90507200D02*
X137906300Y-87876900D01*
X137906300Y-87876900D02*
X137906300Y-87233800D01*
X140965000Y-95563500D02*
X140965000Y-91413500D01*
X129324000Y-91583500D02*
X130555300Y-91583500D01*
D22*
G04 #@! TO.N,VBUS*
X121094000Y-92227900D02*
X120014700Y-92227900D01*
X120014700Y-92227900D02*
X119914600Y-92328000D01*
X119914600Y-92328000D02*
X119914600Y-96055500D01*
X119914600Y-96055500D02*
X120423200Y-96564100D01*
X123414700Y-91008200D02*
X122195000Y-92227900D01*
X122195000Y-92227900D02*
X121094000Y-92227900D01*
X124069000Y-91008200D02*
X123414700Y-91008200D01*
D23*
G04 #@! TO.N,Net-(D4-Pad1)*
X123419000Y-93526500D02*
X124450300Y-93526500D01*
X124923800Y-94584300D02*
X124450300Y-94110800D01*
X124450300Y-94110800D02*
X124450300Y-93526500D01*
X121094000Y-92877900D02*
X122770400Y-92877900D01*
X122770400Y-92877900D02*
X123419000Y-93526500D01*
G04 #@! TO.N,Net-(J2-Pad4)*
X129324000Y-92853500D02*
X130555300Y-92853500D01*
X130555300Y-92853500D02*
X130591900Y-92890100D01*
X130591900Y-92890100D02*
X130963400Y-92890100D01*
G04 #@! TO.N,Net-(J2-Pad3)*
X128092700Y-94123500D02*
X128092700Y-91874500D01*
X128092700Y-91874500D02*
X127820000Y-91601800D01*
X129324000Y-94123500D02*
X128092700Y-94123500D01*
G04 #@! TD*
G04 #@! TO.N,GND*
G36*
X141481000Y-86678380D02*
X141480999Y-87737214D01*
X141480192Y-87739225D01*
X141480999Y-87812510D01*
X141480999Y-87847875D01*
X141481411Y-87849948D01*
X141481854Y-87890149D01*
X141495991Y-87923244D01*
X141503013Y-87958546D01*
X141525352Y-87991979D01*
X141526180Y-87993918D01*
X141546108Y-88023044D01*
X141586867Y-88084045D01*
X141588670Y-88085250D01*
X142781000Y-89827888D01*
X142780999Y-99065063D01*
X141631383Y-100042237D01*
X141586868Y-100071981D01*
X141553471Y-100121964D01*
X141516146Y-100169081D01*
X141511811Y-100184313D01*
X141503014Y-100197479D01*
X141491289Y-100256424D01*
X141474832Y-100314251D01*
X141481000Y-100367437D01*
X141480999Y-100765627D01*
X137421642Y-100760420D01*
X137562501Y-100666301D01*
X137834576Y-100259112D01*
X137930116Y-99778800D01*
X137834576Y-99298488D01*
X137568323Y-98900011D01*
X138460000Y-98900011D01*
X138460000Y-99489189D01*
X138685468Y-100033519D01*
X139102081Y-100450132D01*
X139646411Y-100675600D01*
X140235589Y-100675600D01*
X140779919Y-100450132D01*
X141196532Y-100033519D01*
X141422000Y-99489189D01*
X141422000Y-98900011D01*
X141196532Y-98355681D01*
X140779919Y-97939068D01*
X140235589Y-97713600D01*
X139646411Y-97713600D01*
X139102081Y-97939068D01*
X138685468Y-98355681D01*
X138460000Y-98900011D01*
X137568323Y-98900011D01*
X137562501Y-98891299D01*
X137155312Y-98619224D01*
X136796239Y-98547800D01*
X136553761Y-98547800D01*
X136194688Y-98619224D01*
X135787499Y-98891299D01*
X135515424Y-99298488D01*
X135419884Y-99778800D01*
X135515424Y-100259112D01*
X135787499Y-100666301D01*
X135925485Y-100758501D01*
X134886509Y-100757168D01*
X135022501Y-100666301D01*
X135294576Y-100259112D01*
X135390116Y-99778800D01*
X135294576Y-99298488D01*
X135022501Y-98891299D01*
X134615312Y-98619224D01*
X134263981Y-98549340D01*
X135161521Y-97651800D01*
X136610572Y-97651800D01*
X136660600Y-97661751D01*
X136710628Y-97651800D01*
X136710632Y-97651800D01*
X136858812Y-97622325D01*
X137026847Y-97510047D01*
X137055188Y-97467632D01*
X138013148Y-96509673D01*
X138130301Y-96626827D01*
X138363690Y-96723500D01*
X138529250Y-96723500D01*
X138688000Y-96564750D01*
X138688000Y-95690500D01*
X138942000Y-95690500D01*
X138942000Y-96564750D01*
X139100750Y-96723500D01*
X139266310Y-96723500D01*
X139499699Y-96626827D01*
X139678327Y-96448198D01*
X139775000Y-96214809D01*
X139775000Y-95849250D01*
X139616250Y-95690500D01*
X138942000Y-95690500D01*
X138688000Y-95690500D01*
X138668000Y-95690500D01*
X138668000Y-95436500D01*
X138688000Y-95436500D01*
X138688000Y-94562250D01*
X138942000Y-94562250D01*
X138942000Y-95436500D01*
X139616250Y-95436500D01*
X139775000Y-95277750D01*
X139775000Y-94912191D01*
X139678327Y-94678802D01*
X139499699Y-94500173D01*
X139266310Y-94403500D01*
X139100750Y-94403500D01*
X138942000Y-94562250D01*
X138688000Y-94562250D01*
X138529250Y-94403500D01*
X138363690Y-94403500D01*
X138363300Y-94403662D01*
X138363300Y-94173531D01*
X138373252Y-94123500D01*
X138363300Y-94073468D01*
X138363300Y-92573338D01*
X138363690Y-92573500D01*
X138529250Y-92573500D01*
X138688000Y-92414750D01*
X138688000Y-91540500D01*
X138942000Y-91540500D01*
X138942000Y-92414750D01*
X139100750Y-92573500D01*
X139266310Y-92573500D01*
X139499699Y-92476827D01*
X139678327Y-92298198D01*
X139775000Y-92064809D01*
X139775000Y-91699250D01*
X139616250Y-91540500D01*
X138942000Y-91540500D01*
X138688000Y-91540500D01*
X138668000Y-91540500D01*
X138668000Y-91286500D01*
X138688000Y-91286500D01*
X138688000Y-90493840D01*
X138721795Y-90412250D01*
X138942000Y-90412250D01*
X138942000Y-91286500D01*
X139616250Y-91286500D01*
X139775000Y-91127750D01*
X139775000Y-90762191D01*
X139678327Y-90528802D01*
X139499699Y-90350173D01*
X139266310Y-90253500D01*
X139100750Y-90253500D01*
X138942000Y-90412250D01*
X138721795Y-90412250D01*
X138743400Y-90360093D01*
X138743400Y-90072107D01*
X138633193Y-89806044D01*
X138429556Y-89602407D01*
X138163493Y-89492200D01*
X138046547Y-89492200D01*
X137258252Y-88703905D01*
X137228629Y-88659571D01*
X137052986Y-88542210D01*
X136898094Y-88511400D01*
X136898090Y-88511400D01*
X136845800Y-88500999D01*
X136793510Y-88511400D01*
X129807546Y-88511400D01*
X129821924Y-88505445D01*
X130250183Y-88115158D01*
X130437245Y-87716837D01*
X130707499Y-88121301D01*
X131114688Y-88393376D01*
X131473761Y-88464800D01*
X131716239Y-88464800D01*
X132075312Y-88393376D01*
X132482501Y-88121301D01*
X132754576Y-87714112D01*
X132850116Y-87233800D01*
X132754576Y-86753488D01*
X132482501Y-86346299D01*
X132407957Y-86296490D01*
X133323854Y-86295280D01*
X133247499Y-86346299D01*
X132975424Y-86753488D01*
X132879884Y-87233800D01*
X132975424Y-87714112D01*
X133247499Y-88121301D01*
X133654688Y-88393376D01*
X134013761Y-88464800D01*
X134256239Y-88464800D01*
X134615312Y-88393376D01*
X135022501Y-88121301D01*
X135294576Y-87714112D01*
X135390116Y-87233800D01*
X135294576Y-86753488D01*
X135022501Y-86346299D01*
X134942944Y-86293141D01*
X135868887Y-86291917D01*
X135787499Y-86346299D01*
X135515424Y-86753488D01*
X135419884Y-87233800D01*
X135515424Y-87714112D01*
X135787499Y-88121301D01*
X136194688Y-88393376D01*
X136553761Y-88464800D01*
X136796239Y-88464800D01*
X137155312Y-88393376D01*
X137490696Y-88169279D01*
X137540053Y-88243147D01*
X137582468Y-88271488D01*
X140142014Y-90831035D01*
X140170353Y-90873447D01*
X140212765Y-90901786D01*
X140212767Y-90901788D01*
X140251536Y-90927693D01*
X140251536Y-91938500D01*
X140281106Y-92087159D01*
X140365314Y-92213186D01*
X140457001Y-92274449D01*
X140457000Y-94702552D01*
X140365314Y-94763814D01*
X140281106Y-94889841D01*
X140251536Y-95038500D01*
X140251536Y-96088500D01*
X140281106Y-96237159D01*
X140365314Y-96363186D01*
X140491341Y-96447394D01*
X140640000Y-96476964D01*
X141290000Y-96476964D01*
X141438659Y-96447394D01*
X141564686Y-96363186D01*
X141648894Y-96237159D01*
X141678464Y-96088500D01*
X141678464Y-95038500D01*
X141648894Y-94889841D01*
X141564686Y-94763814D01*
X141473000Y-94702552D01*
X141473000Y-92274448D01*
X141564686Y-92213186D01*
X141648894Y-92087159D01*
X141678464Y-91938500D01*
X141678464Y-90888500D01*
X141648894Y-90739841D01*
X141564686Y-90613814D01*
X141473822Y-90553101D01*
X141482952Y-90507200D01*
X141443525Y-90308988D01*
X141331247Y-90140953D01*
X141163212Y-90028675D01*
X141015032Y-89999200D01*
X140965000Y-89989248D01*
X140914968Y-89999200D01*
X140747021Y-89999200D01*
X140041721Y-89293900D01*
X140235589Y-89293900D01*
X140779919Y-89068432D01*
X141196532Y-88651819D01*
X141422000Y-88107489D01*
X141422000Y-87518311D01*
X141196532Y-86973981D01*
X140779919Y-86557368D01*
X140235589Y-86331900D01*
X139646411Y-86331900D01*
X139102081Y-86557368D01*
X138685468Y-86973981D01*
X138460000Y-87518311D01*
X138460000Y-87712180D01*
X138414300Y-87666480D01*
X138414300Y-87283832D01*
X138424252Y-87233800D01*
X138405969Y-87141883D01*
X138384825Y-87035588D01*
X138272547Y-86867553D01*
X138104512Y-86755275D01*
X137906300Y-86715848D01*
X137856268Y-86725800D01*
X137816075Y-86725800D01*
X137562501Y-86346299D01*
X137477932Y-86289792D01*
X141028729Y-86285100D01*
X141481000Y-86678380D01*
X141481000Y-86678380D01*
G37*
X141481000Y-86678380D02*
X141480999Y-87737214D01*
X141480192Y-87739225D01*
X141480999Y-87812510D01*
X141480999Y-87847875D01*
X141481411Y-87849948D01*
X141481854Y-87890149D01*
X141495991Y-87923244D01*
X141503013Y-87958546D01*
X141525352Y-87991979D01*
X141526180Y-87993918D01*
X141546108Y-88023044D01*
X141586867Y-88084045D01*
X141588670Y-88085250D01*
X142781000Y-89827888D01*
X142780999Y-99065063D01*
X141631383Y-100042237D01*
X141586868Y-100071981D01*
X141553471Y-100121964D01*
X141516146Y-100169081D01*
X141511811Y-100184313D01*
X141503014Y-100197479D01*
X141491289Y-100256424D01*
X141474832Y-100314251D01*
X141481000Y-100367437D01*
X141480999Y-100765627D01*
X137421642Y-100760420D01*
X137562501Y-100666301D01*
X137834576Y-100259112D01*
X137930116Y-99778800D01*
X137834576Y-99298488D01*
X137568323Y-98900011D01*
X138460000Y-98900011D01*
X138460000Y-99489189D01*
X138685468Y-100033519D01*
X139102081Y-100450132D01*
X139646411Y-100675600D01*
X140235589Y-100675600D01*
X140779919Y-100450132D01*
X141196532Y-100033519D01*
X141422000Y-99489189D01*
X141422000Y-98900011D01*
X141196532Y-98355681D01*
X140779919Y-97939068D01*
X140235589Y-97713600D01*
X139646411Y-97713600D01*
X139102081Y-97939068D01*
X138685468Y-98355681D01*
X138460000Y-98900011D01*
X137568323Y-98900011D01*
X137562501Y-98891299D01*
X137155312Y-98619224D01*
X136796239Y-98547800D01*
X136553761Y-98547800D01*
X136194688Y-98619224D01*
X135787499Y-98891299D01*
X135515424Y-99298488D01*
X135419884Y-99778800D01*
X135515424Y-100259112D01*
X135787499Y-100666301D01*
X135925485Y-100758501D01*
X134886509Y-100757168D01*
X135022501Y-100666301D01*
X135294576Y-100259112D01*
X135390116Y-99778800D01*
X135294576Y-99298488D01*
X135022501Y-98891299D01*
X134615312Y-98619224D01*
X134263981Y-98549340D01*
X135161521Y-97651800D01*
X136610572Y-97651800D01*
X136660600Y-97661751D01*
X136710628Y-97651800D01*
X136710632Y-97651800D01*
X136858812Y-97622325D01*
X137026847Y-97510047D01*
X137055188Y-97467632D01*
X138013148Y-96509673D01*
X138130301Y-96626827D01*
X138363690Y-96723500D01*
X138529250Y-96723500D01*
X138688000Y-96564750D01*
X138688000Y-95690500D01*
X138942000Y-95690500D01*
X138942000Y-96564750D01*
X139100750Y-96723500D01*
X139266310Y-96723500D01*
X139499699Y-96626827D01*
X139678327Y-96448198D01*
X139775000Y-96214809D01*
X139775000Y-95849250D01*
X139616250Y-95690500D01*
X138942000Y-95690500D01*
X138688000Y-95690500D01*
X138668000Y-95690500D01*
X138668000Y-95436500D01*
X138688000Y-95436500D01*
X138688000Y-94562250D01*
X138942000Y-94562250D01*
X138942000Y-95436500D01*
X139616250Y-95436500D01*
X139775000Y-95277750D01*
X139775000Y-94912191D01*
X139678327Y-94678802D01*
X139499699Y-94500173D01*
X139266310Y-94403500D01*
X139100750Y-94403500D01*
X138942000Y-94562250D01*
X138688000Y-94562250D01*
X138529250Y-94403500D01*
X138363690Y-94403500D01*
X138363300Y-94403662D01*
X138363300Y-94173531D01*
X138373252Y-94123500D01*
X138363300Y-94073468D01*
X138363300Y-92573338D01*
X138363690Y-92573500D01*
X138529250Y-92573500D01*
X138688000Y-92414750D01*
X138688000Y-91540500D01*
X138942000Y-91540500D01*
X138942000Y-92414750D01*
X139100750Y-92573500D01*
X139266310Y-92573500D01*
X139499699Y-92476827D01*
X139678327Y-92298198D01*
X139775000Y-92064809D01*
X139775000Y-91699250D01*
X139616250Y-91540500D01*
X138942000Y-91540500D01*
X138688000Y-91540500D01*
X138668000Y-91540500D01*
X138668000Y-91286500D01*
X138688000Y-91286500D01*
X138688000Y-90493840D01*
X138721795Y-90412250D01*
X138942000Y-90412250D01*
X138942000Y-91286500D01*
X139616250Y-91286500D01*
X139775000Y-91127750D01*
X139775000Y-90762191D01*
X139678327Y-90528802D01*
X139499699Y-90350173D01*
X139266310Y-90253500D01*
X139100750Y-90253500D01*
X138942000Y-90412250D01*
X138721795Y-90412250D01*
X138743400Y-90360093D01*
X138743400Y-90072107D01*
X138633193Y-89806044D01*
X138429556Y-89602407D01*
X138163493Y-89492200D01*
X138046547Y-89492200D01*
X137258252Y-88703905D01*
X137228629Y-88659571D01*
X137052986Y-88542210D01*
X136898094Y-88511400D01*
X136898090Y-88511400D01*
X136845800Y-88500999D01*
X136793510Y-88511400D01*
X129807546Y-88511400D01*
X129821924Y-88505445D01*
X130250183Y-88115158D01*
X130437245Y-87716837D01*
X130707499Y-88121301D01*
X131114688Y-88393376D01*
X131473761Y-88464800D01*
X131716239Y-88464800D01*
X132075312Y-88393376D01*
X132482501Y-88121301D01*
X132754576Y-87714112D01*
X132850116Y-87233800D01*
X132754576Y-86753488D01*
X132482501Y-86346299D01*
X132407957Y-86296490D01*
X133323854Y-86295280D01*
X133247499Y-86346299D01*
X132975424Y-86753488D01*
X132879884Y-87233800D01*
X132975424Y-87714112D01*
X133247499Y-88121301D01*
X133654688Y-88393376D01*
X134013761Y-88464800D01*
X134256239Y-88464800D01*
X134615312Y-88393376D01*
X135022501Y-88121301D01*
X135294576Y-87714112D01*
X135390116Y-87233800D01*
X135294576Y-86753488D01*
X135022501Y-86346299D01*
X134942944Y-86293141D01*
X135868887Y-86291917D01*
X135787499Y-86346299D01*
X135515424Y-86753488D01*
X135419884Y-87233800D01*
X135515424Y-87714112D01*
X135787499Y-88121301D01*
X136194688Y-88393376D01*
X136553761Y-88464800D01*
X136796239Y-88464800D01*
X137155312Y-88393376D01*
X137490696Y-88169279D01*
X137540053Y-88243147D01*
X137582468Y-88271488D01*
X140142014Y-90831035D01*
X140170353Y-90873447D01*
X140212765Y-90901786D01*
X140212767Y-90901788D01*
X140251536Y-90927693D01*
X140251536Y-91938500D01*
X140281106Y-92087159D01*
X140365314Y-92213186D01*
X140457001Y-92274449D01*
X140457000Y-94702552D01*
X140365314Y-94763814D01*
X140281106Y-94889841D01*
X140251536Y-95038500D01*
X140251536Y-96088500D01*
X140281106Y-96237159D01*
X140365314Y-96363186D01*
X140491341Y-96447394D01*
X140640000Y-96476964D01*
X141290000Y-96476964D01*
X141438659Y-96447394D01*
X141564686Y-96363186D01*
X141648894Y-96237159D01*
X141678464Y-96088500D01*
X141678464Y-95038500D01*
X141648894Y-94889841D01*
X141564686Y-94763814D01*
X141473000Y-94702552D01*
X141473000Y-92274448D01*
X141564686Y-92213186D01*
X141648894Y-92087159D01*
X141678464Y-91938500D01*
X141678464Y-90888500D01*
X141648894Y-90739841D01*
X141564686Y-90613814D01*
X141473822Y-90553101D01*
X141482952Y-90507200D01*
X141443525Y-90308988D01*
X141331247Y-90140953D01*
X141163212Y-90028675D01*
X141015032Y-89999200D01*
X140965000Y-89989248D01*
X140914968Y-89999200D01*
X140747021Y-89999200D01*
X140041721Y-89293900D01*
X140235589Y-89293900D01*
X140779919Y-89068432D01*
X141196532Y-88651819D01*
X141422000Y-88107489D01*
X141422000Y-87518311D01*
X141196532Y-86973981D01*
X140779919Y-86557368D01*
X140235589Y-86331900D01*
X139646411Y-86331900D01*
X139102081Y-86557368D01*
X138685468Y-86973981D01*
X138460000Y-87518311D01*
X138460000Y-87712180D01*
X138414300Y-87666480D01*
X138414300Y-87283832D01*
X138424252Y-87233800D01*
X138405969Y-87141883D01*
X138384825Y-87035588D01*
X138272547Y-86867553D01*
X138104512Y-86755275D01*
X137906300Y-86715848D01*
X137856268Y-86725800D01*
X137816075Y-86725800D01*
X137562501Y-86346299D01*
X137477932Y-86289792D01*
X141028729Y-86285100D01*
X141481000Y-86678380D01*
G36*
X118373707Y-86325407D02*
X118236660Y-86530512D01*
X118188536Y-86772450D01*
X118188536Y-87684950D01*
X118236660Y-87926888D01*
X118370483Y-88127167D01*
X118346000Y-88151650D01*
X118346000Y-89400900D01*
X119645250Y-89400900D01*
X119804000Y-89242150D01*
X119804000Y-88698247D01*
X119909007Y-88951756D01*
X120112644Y-89155393D01*
X120378707Y-89265600D01*
X120666693Y-89265600D01*
X120932756Y-89155393D01*
X121136393Y-88951756D01*
X121246600Y-88685693D01*
X121246600Y-88397707D01*
X121210955Y-88311653D01*
X121288590Y-88296211D01*
X122890014Y-89897635D01*
X122918353Y-89940047D01*
X122960765Y-89968386D01*
X122960767Y-89968388D01*
X123006881Y-89999200D01*
X123086388Y-90052325D01*
X123234568Y-90081800D01*
X123234571Y-90081800D01*
X123284599Y-90091751D01*
X123334627Y-90081800D01*
X127091477Y-90081800D01*
X127069071Y-90096771D01*
X127039449Y-90141104D01*
X126735750Y-90444803D01*
X126667659Y-90399306D01*
X126519000Y-90369736D01*
X126019000Y-90369736D01*
X125870341Y-90399306D01*
X125744314Y-90483514D01*
X125660106Y-90609541D01*
X125630536Y-90758200D01*
X125630536Y-91258200D01*
X125660106Y-91406859D01*
X125744314Y-91532886D01*
X125870341Y-91617094D01*
X126019000Y-91646664D01*
X126519000Y-91646664D01*
X126667659Y-91617094D01*
X126784236Y-91539200D01*
X126871010Y-91539200D01*
X126923300Y-91549601D01*
X126975590Y-91539200D01*
X126975594Y-91539200D01*
X127096100Y-91515230D01*
X127096100Y-91745793D01*
X127206307Y-92011856D01*
X127235951Y-92041500D01*
X127204750Y-92041500D01*
X127046000Y-92200250D01*
X127046000Y-93399500D01*
X127066000Y-93399500D01*
X127066000Y-93653500D01*
X127046000Y-93653500D01*
X127046000Y-94852750D01*
X127053950Y-94860700D01*
X127046000Y-94868650D01*
X127046000Y-96067900D01*
X127066000Y-96067900D01*
X127066000Y-96321900D01*
X127046000Y-96321900D01*
X127046000Y-96341900D01*
X126792000Y-96341900D01*
X126792000Y-96321900D01*
X125792750Y-96321900D01*
X125634000Y-96480650D01*
X125634000Y-97171210D01*
X125730673Y-97404599D01*
X125791664Y-97465589D01*
X124922105Y-98335148D01*
X124898063Y-98351212D01*
X124485919Y-97939068D01*
X123941589Y-97713600D01*
X123352411Y-97713600D01*
X122808081Y-97939068D01*
X122391468Y-98355681D01*
X122166000Y-98900011D01*
X122166000Y-99489189D01*
X122391468Y-100033519D01*
X122527549Y-100169600D01*
X122037947Y-100169600D01*
X121820464Y-99952117D01*
X121820464Y-99370850D01*
X121772340Y-99128912D01*
X121635293Y-98923807D01*
X121430188Y-98786760D01*
X121188250Y-98738636D01*
X120876385Y-98738636D01*
X121255921Y-98359100D01*
X121356251Y-98359100D01*
X121461944Y-98464793D01*
X121728007Y-98575000D01*
X122015993Y-98575000D01*
X122282056Y-98464793D01*
X122485693Y-98261156D01*
X122595900Y-97995093D01*
X122595900Y-97707107D01*
X122485693Y-97441044D01*
X122282056Y-97237407D01*
X122015993Y-97127200D01*
X121728007Y-97127200D01*
X121461944Y-97237407D01*
X121356251Y-97343100D01*
X121095528Y-97343100D01*
X121045500Y-97333149D01*
X120995472Y-97343100D01*
X120995468Y-97343100D01*
X120847288Y-97372575D01*
X120721667Y-97456512D01*
X120721665Y-97456514D01*
X120679253Y-97484853D01*
X120650914Y-97527265D01*
X119804000Y-98374179D01*
X119804000Y-97813650D01*
X119645250Y-97654900D01*
X118346000Y-97654900D01*
X118346000Y-98904150D01*
X118373480Y-98931630D01*
X118241660Y-99128912D01*
X118193536Y-99370850D01*
X118193536Y-100283350D01*
X118241660Y-100525288D01*
X118378707Y-100730393D01*
X118387104Y-100736004D01*
X118214894Y-100735783D01*
X118101054Y-100710545D01*
X117966240Y-100668038D01*
X117835657Y-100613949D01*
X117710284Y-100548685D01*
X117591072Y-100472738D01*
X117478920Y-100386681D01*
X117374722Y-100291202D01*
X117279226Y-100186985D01*
X117193174Y-100074840D01*
X117117232Y-99955635D01*
X117051963Y-99830256D01*
X116997874Y-99699670D01*
X116955367Y-99564860D01*
X116924776Y-99426872D01*
X116906326Y-99286727D01*
X116899799Y-99137238D01*
X116899799Y-98956725D01*
X116909301Y-98966227D01*
X117142690Y-99062900D01*
X117933250Y-99062900D01*
X118092000Y-98904150D01*
X118092000Y-97654900D01*
X118072000Y-97654900D01*
X118072000Y-97400900D01*
X118092000Y-97400900D01*
X118092000Y-97380900D01*
X118346000Y-97380900D01*
X118346000Y-97400900D01*
X119645250Y-97400900D01*
X119804000Y-97242150D01*
X119804000Y-96960861D01*
X119809507Y-96974156D01*
X120013144Y-97177793D01*
X120279207Y-97288000D01*
X120567193Y-97288000D01*
X120833256Y-97177793D01*
X121036893Y-96974156D01*
X121147100Y-96708093D01*
X121147100Y-96420107D01*
X121067899Y-96228899D01*
X121083078Y-96222612D01*
X121288712Y-96016978D01*
X121400000Y-95748305D01*
X121400000Y-95662900D01*
X121447800Y-95662900D01*
X121447800Y-95709193D01*
X121558007Y-95975256D01*
X121761644Y-96178893D01*
X121875985Y-96226255D01*
X121909175Y-96393112D01*
X121981659Y-96501591D01*
X122021453Y-96561147D01*
X122189488Y-96673425D01*
X122380536Y-96711427D01*
X122380536Y-97044900D01*
X122410106Y-97193559D01*
X122494314Y-97319586D01*
X122620341Y-97403794D01*
X122769000Y-97433364D01*
X124069000Y-97433364D01*
X124217659Y-97403794D01*
X124343686Y-97319586D01*
X124427894Y-97193559D01*
X124457464Y-97044900D01*
X124457464Y-95344900D01*
X124427894Y-95196241D01*
X124343686Y-95070214D01*
X124217659Y-94986006D01*
X124069000Y-94956436D01*
X122769000Y-94956436D01*
X122679700Y-94974199D01*
X122679700Y-94747201D01*
X122769000Y-94764964D01*
X124069000Y-94764964D01*
X124203969Y-94738117D01*
X124310107Y-94994356D01*
X124513744Y-95197993D01*
X124779807Y-95308200D01*
X125067793Y-95308200D01*
X125333856Y-95197993D01*
X125537493Y-94994356D01*
X125647700Y-94728293D01*
X125647700Y-94535885D01*
X125730673Y-94736199D01*
X125855175Y-94860700D01*
X125730673Y-94985201D01*
X125634000Y-95218590D01*
X125634000Y-95909150D01*
X125792750Y-96067900D01*
X126792000Y-96067900D01*
X126792000Y-94868650D01*
X126784050Y-94860700D01*
X126792000Y-94852750D01*
X126792000Y-93653500D01*
X125792750Y-93653500D01*
X125634000Y-93812250D01*
X125634000Y-94407232D01*
X125537493Y-94174244D01*
X125333856Y-93970607D01*
X125067793Y-93860400D01*
X124958300Y-93860400D01*
X124958300Y-93576532D01*
X124968252Y-93526500D01*
X124928825Y-93328288D01*
X124816547Y-93160253D01*
X124648512Y-93047975D01*
X124500332Y-93018500D01*
X124457464Y-93009973D01*
X124457464Y-92676500D01*
X124432340Y-92550190D01*
X125634000Y-92550190D01*
X125634000Y-93240750D01*
X125792750Y-93399500D01*
X126792000Y-93399500D01*
X126792000Y-92200250D01*
X126633250Y-92041500D01*
X126142691Y-92041500D01*
X125909302Y-92138173D01*
X125730673Y-92316801D01*
X125634000Y-92550190D01*
X124432340Y-92550190D01*
X124427894Y-92527841D01*
X124343686Y-92401814D01*
X124217659Y-92317606D01*
X124069000Y-92288036D01*
X122885811Y-92288036D01*
X123602250Y-91571597D01*
X123670341Y-91617094D01*
X123819000Y-91646664D01*
X124319000Y-91646664D01*
X124467659Y-91617094D01*
X124593686Y-91532886D01*
X124677894Y-91406859D01*
X124707464Y-91258200D01*
X124707464Y-90758200D01*
X124677894Y-90609541D01*
X124593686Y-90483514D01*
X124467659Y-90399306D01*
X124319000Y-90369736D01*
X123819000Y-90369736D01*
X123670341Y-90399306D01*
X123553764Y-90477200D01*
X123466989Y-90477200D01*
X123414699Y-90466799D01*
X123362409Y-90477200D01*
X123362406Y-90477200D01*
X123207514Y-90508010D01*
X123031871Y-90625371D01*
X123002249Y-90669704D01*
X121975053Y-91696900D01*
X121959406Y-91696900D01*
X121917659Y-91669006D01*
X121769000Y-91639436D01*
X121382963Y-91639436D01*
X121400000Y-91598305D01*
X121400000Y-91307495D01*
X121288712Y-91038822D01*
X121083078Y-90833188D01*
X120814405Y-90721900D01*
X120523595Y-90721900D01*
X120254922Y-90833188D01*
X120049288Y-91038822D01*
X119938000Y-91307495D01*
X119938000Y-91598305D01*
X119977588Y-91693880D01*
X119962406Y-91696900D01*
X119807514Y-91727710D01*
X119631871Y-91845071D01*
X119602249Y-91889404D01*
X119576105Y-91915548D01*
X119557464Y-91928003D01*
X119557464Y-91377900D01*
X119527894Y-91229241D01*
X119443686Y-91103214D01*
X119349659Y-91040388D01*
X119528699Y-90966227D01*
X119707327Y-90787598D01*
X119804000Y-90554209D01*
X119804000Y-89813650D01*
X119645250Y-89654900D01*
X118346000Y-89654900D01*
X118346000Y-89674900D01*
X118092000Y-89674900D01*
X118092000Y-89654900D01*
X118072000Y-89654900D01*
X118072000Y-89400900D01*
X118092000Y-89400900D01*
X118092000Y-88151650D01*
X117933250Y-87992900D01*
X117142690Y-87992900D01*
X116909301Y-88089573D01*
X116899799Y-88099075D01*
X116899799Y-87913788D01*
X116906326Y-87764299D01*
X116924776Y-87624154D01*
X116955367Y-87486166D01*
X116997874Y-87351356D01*
X117051963Y-87220770D01*
X117117232Y-87095391D01*
X117193174Y-86976186D01*
X117279226Y-86864041D01*
X117374722Y-86759824D01*
X117478920Y-86664345D01*
X117591072Y-86578288D01*
X117710284Y-86502341D01*
X117835657Y-86437077D01*
X117966240Y-86382988D01*
X118101054Y-86340481D01*
X118214898Y-86315242D01*
X118389265Y-86315012D01*
X118373707Y-86325407D01*
X118373707Y-86325407D01*
G37*
X118373707Y-86325407D02*
X118236660Y-86530512D01*
X118188536Y-86772450D01*
X118188536Y-87684950D01*
X118236660Y-87926888D01*
X118370483Y-88127167D01*
X118346000Y-88151650D01*
X118346000Y-89400900D01*
X119645250Y-89400900D01*
X119804000Y-89242150D01*
X119804000Y-88698247D01*
X119909007Y-88951756D01*
X120112644Y-89155393D01*
X120378707Y-89265600D01*
X120666693Y-89265600D01*
X120932756Y-89155393D01*
X121136393Y-88951756D01*
X121246600Y-88685693D01*
X121246600Y-88397707D01*
X121210955Y-88311653D01*
X121288590Y-88296211D01*
X122890014Y-89897635D01*
X122918353Y-89940047D01*
X122960765Y-89968386D01*
X122960767Y-89968388D01*
X123006881Y-89999200D01*
X123086388Y-90052325D01*
X123234568Y-90081800D01*
X123234571Y-90081800D01*
X123284599Y-90091751D01*
X123334627Y-90081800D01*
X127091477Y-90081800D01*
X127069071Y-90096771D01*
X127039449Y-90141104D01*
X126735750Y-90444803D01*
X126667659Y-90399306D01*
X126519000Y-90369736D01*
X126019000Y-90369736D01*
X125870341Y-90399306D01*
X125744314Y-90483514D01*
X125660106Y-90609541D01*
X125630536Y-90758200D01*
X125630536Y-91258200D01*
X125660106Y-91406859D01*
X125744314Y-91532886D01*
X125870341Y-91617094D01*
X126019000Y-91646664D01*
X126519000Y-91646664D01*
X126667659Y-91617094D01*
X126784236Y-91539200D01*
X126871010Y-91539200D01*
X126923300Y-91549601D01*
X126975590Y-91539200D01*
X126975594Y-91539200D01*
X127096100Y-91515230D01*
X127096100Y-91745793D01*
X127206307Y-92011856D01*
X127235951Y-92041500D01*
X127204750Y-92041500D01*
X127046000Y-92200250D01*
X127046000Y-93399500D01*
X127066000Y-93399500D01*
X127066000Y-93653500D01*
X127046000Y-93653500D01*
X127046000Y-94852750D01*
X127053950Y-94860700D01*
X127046000Y-94868650D01*
X127046000Y-96067900D01*
X127066000Y-96067900D01*
X127066000Y-96321900D01*
X127046000Y-96321900D01*
X127046000Y-96341900D01*
X126792000Y-96341900D01*
X126792000Y-96321900D01*
X125792750Y-96321900D01*
X125634000Y-96480650D01*
X125634000Y-97171210D01*
X125730673Y-97404599D01*
X125791664Y-97465589D01*
X124922105Y-98335148D01*
X124898063Y-98351212D01*
X124485919Y-97939068D01*
X123941589Y-97713600D01*
X123352411Y-97713600D01*
X122808081Y-97939068D01*
X122391468Y-98355681D01*
X122166000Y-98900011D01*
X122166000Y-99489189D01*
X122391468Y-100033519D01*
X122527549Y-100169600D01*
X122037947Y-100169600D01*
X121820464Y-99952117D01*
X121820464Y-99370850D01*
X121772340Y-99128912D01*
X121635293Y-98923807D01*
X121430188Y-98786760D01*
X121188250Y-98738636D01*
X120876385Y-98738636D01*
X121255921Y-98359100D01*
X121356251Y-98359100D01*
X121461944Y-98464793D01*
X121728007Y-98575000D01*
X122015993Y-98575000D01*
X122282056Y-98464793D01*
X122485693Y-98261156D01*
X122595900Y-97995093D01*
X122595900Y-97707107D01*
X122485693Y-97441044D01*
X122282056Y-97237407D01*
X122015993Y-97127200D01*
X121728007Y-97127200D01*
X121461944Y-97237407D01*
X121356251Y-97343100D01*
X121095528Y-97343100D01*
X121045500Y-97333149D01*
X120995472Y-97343100D01*
X120995468Y-97343100D01*
X120847288Y-97372575D01*
X120721667Y-97456512D01*
X120721665Y-97456514D01*
X120679253Y-97484853D01*
X120650914Y-97527265D01*
X119804000Y-98374179D01*
X119804000Y-97813650D01*
X119645250Y-97654900D01*
X118346000Y-97654900D01*
X118346000Y-98904150D01*
X118373480Y-98931630D01*
X118241660Y-99128912D01*
X118193536Y-99370850D01*
X118193536Y-100283350D01*
X118241660Y-100525288D01*
X118378707Y-100730393D01*
X118387104Y-100736004D01*
X118214894Y-100735783D01*
X118101054Y-100710545D01*
X117966240Y-100668038D01*
X117835657Y-100613949D01*
X117710284Y-100548685D01*
X117591072Y-100472738D01*
X117478920Y-100386681D01*
X117374722Y-100291202D01*
X117279226Y-100186985D01*
X117193174Y-100074840D01*
X117117232Y-99955635D01*
X117051963Y-99830256D01*
X116997874Y-99699670D01*
X116955367Y-99564860D01*
X116924776Y-99426872D01*
X116906326Y-99286727D01*
X116899799Y-99137238D01*
X116899799Y-98956725D01*
X116909301Y-98966227D01*
X117142690Y-99062900D01*
X117933250Y-99062900D01*
X118092000Y-98904150D01*
X118092000Y-97654900D01*
X118072000Y-97654900D01*
X118072000Y-97400900D01*
X118092000Y-97400900D01*
X118092000Y-97380900D01*
X118346000Y-97380900D01*
X118346000Y-97400900D01*
X119645250Y-97400900D01*
X119804000Y-97242150D01*
X119804000Y-96960861D01*
X119809507Y-96974156D01*
X120013144Y-97177793D01*
X120279207Y-97288000D01*
X120567193Y-97288000D01*
X120833256Y-97177793D01*
X121036893Y-96974156D01*
X121147100Y-96708093D01*
X121147100Y-96420107D01*
X121067899Y-96228899D01*
X121083078Y-96222612D01*
X121288712Y-96016978D01*
X121400000Y-95748305D01*
X121400000Y-95662900D01*
X121447800Y-95662900D01*
X121447800Y-95709193D01*
X121558007Y-95975256D01*
X121761644Y-96178893D01*
X121875985Y-96226255D01*
X121909175Y-96393112D01*
X121981659Y-96501591D01*
X122021453Y-96561147D01*
X122189488Y-96673425D01*
X122380536Y-96711427D01*
X122380536Y-97044900D01*
X122410106Y-97193559D01*
X122494314Y-97319586D01*
X122620341Y-97403794D01*
X122769000Y-97433364D01*
X124069000Y-97433364D01*
X124217659Y-97403794D01*
X124343686Y-97319586D01*
X124427894Y-97193559D01*
X124457464Y-97044900D01*
X124457464Y-95344900D01*
X124427894Y-95196241D01*
X124343686Y-95070214D01*
X124217659Y-94986006D01*
X124069000Y-94956436D01*
X122769000Y-94956436D01*
X122679700Y-94974199D01*
X122679700Y-94747201D01*
X122769000Y-94764964D01*
X124069000Y-94764964D01*
X124203969Y-94738117D01*
X124310107Y-94994356D01*
X124513744Y-95197993D01*
X124779807Y-95308200D01*
X125067793Y-95308200D01*
X125333856Y-95197993D01*
X125537493Y-94994356D01*
X125647700Y-94728293D01*
X125647700Y-94535885D01*
X125730673Y-94736199D01*
X125855175Y-94860700D01*
X125730673Y-94985201D01*
X125634000Y-95218590D01*
X125634000Y-95909150D01*
X125792750Y-96067900D01*
X126792000Y-96067900D01*
X126792000Y-94868650D01*
X126784050Y-94860700D01*
X126792000Y-94852750D01*
X126792000Y-93653500D01*
X125792750Y-93653500D01*
X125634000Y-93812250D01*
X125634000Y-94407232D01*
X125537493Y-94174244D01*
X125333856Y-93970607D01*
X125067793Y-93860400D01*
X124958300Y-93860400D01*
X124958300Y-93576532D01*
X124968252Y-93526500D01*
X124928825Y-93328288D01*
X124816547Y-93160253D01*
X124648512Y-93047975D01*
X124500332Y-93018500D01*
X124457464Y-93009973D01*
X124457464Y-92676500D01*
X124432340Y-92550190D01*
X125634000Y-92550190D01*
X125634000Y-93240750D01*
X125792750Y-93399500D01*
X126792000Y-93399500D01*
X126792000Y-92200250D01*
X126633250Y-92041500D01*
X126142691Y-92041500D01*
X125909302Y-92138173D01*
X125730673Y-92316801D01*
X125634000Y-92550190D01*
X124432340Y-92550190D01*
X124427894Y-92527841D01*
X124343686Y-92401814D01*
X124217659Y-92317606D01*
X124069000Y-92288036D01*
X122885811Y-92288036D01*
X123602250Y-91571597D01*
X123670341Y-91617094D01*
X123819000Y-91646664D01*
X124319000Y-91646664D01*
X124467659Y-91617094D01*
X124593686Y-91532886D01*
X124677894Y-91406859D01*
X124707464Y-91258200D01*
X124707464Y-90758200D01*
X124677894Y-90609541D01*
X124593686Y-90483514D01*
X124467659Y-90399306D01*
X124319000Y-90369736D01*
X123819000Y-90369736D01*
X123670341Y-90399306D01*
X123553764Y-90477200D01*
X123466989Y-90477200D01*
X123414699Y-90466799D01*
X123362409Y-90477200D01*
X123362406Y-90477200D01*
X123207514Y-90508010D01*
X123031871Y-90625371D01*
X123002249Y-90669704D01*
X121975053Y-91696900D01*
X121959406Y-91696900D01*
X121917659Y-91669006D01*
X121769000Y-91639436D01*
X121382963Y-91639436D01*
X121400000Y-91598305D01*
X121400000Y-91307495D01*
X121288712Y-91038822D01*
X121083078Y-90833188D01*
X120814405Y-90721900D01*
X120523595Y-90721900D01*
X120254922Y-90833188D01*
X120049288Y-91038822D01*
X119938000Y-91307495D01*
X119938000Y-91598305D01*
X119977588Y-91693880D01*
X119962406Y-91696900D01*
X119807514Y-91727710D01*
X119631871Y-91845071D01*
X119602249Y-91889404D01*
X119576105Y-91915548D01*
X119557464Y-91928003D01*
X119557464Y-91377900D01*
X119527894Y-91229241D01*
X119443686Y-91103214D01*
X119349659Y-91040388D01*
X119528699Y-90966227D01*
X119707327Y-90787598D01*
X119804000Y-90554209D01*
X119804000Y-89813650D01*
X119645250Y-89654900D01*
X118346000Y-89654900D01*
X118346000Y-89674900D01*
X118092000Y-89674900D01*
X118092000Y-89654900D01*
X118072000Y-89654900D01*
X118072000Y-89400900D01*
X118092000Y-89400900D01*
X118092000Y-88151650D01*
X117933250Y-87992900D01*
X117142690Y-87992900D01*
X116909301Y-88089573D01*
X116899799Y-88099075D01*
X116899799Y-87913788D01*
X116906326Y-87764299D01*
X116924776Y-87624154D01*
X116955367Y-87486166D01*
X116997874Y-87351356D01*
X117051963Y-87220770D01*
X117117232Y-87095391D01*
X117193174Y-86976186D01*
X117279226Y-86864041D01*
X117374722Y-86759824D01*
X117478920Y-86664345D01*
X117591072Y-86578288D01*
X117710284Y-86502341D01*
X117835657Y-86437077D01*
X117966240Y-86382988D01*
X118101054Y-86340481D01*
X118214898Y-86315242D01*
X118389265Y-86315012D01*
X118373707Y-86325407D01*
G36*
X134192553Y-92009700D02*
X133479305Y-92722948D01*
X133434971Y-92752571D01*
X133317610Y-92928215D01*
X133286800Y-93083107D01*
X133286800Y-93083110D01*
X133276399Y-93135400D01*
X133286800Y-93187690D01*
X133286801Y-94815300D01*
X132837690Y-94815300D01*
X132785400Y-94804899D01*
X132733110Y-94815300D01*
X132733106Y-94815300D01*
X132578214Y-94846110D01*
X132455807Y-94927900D01*
X132402571Y-94963471D01*
X132372950Y-95007802D01*
X130274053Y-97106700D01*
X128204000Y-97106700D01*
X128204000Y-96480650D01*
X128045252Y-96321902D01*
X128204000Y-96321902D01*
X128204000Y-96293981D01*
X128347691Y-96353500D01*
X129038250Y-96353500D01*
X129197000Y-96194750D01*
X129197000Y-95520500D01*
X129451000Y-95520500D01*
X129451000Y-96194750D01*
X129609750Y-96353500D01*
X130300309Y-96353500D01*
X130533698Y-96256827D01*
X130712327Y-96078199D01*
X130809000Y-95844810D01*
X130809000Y-95679250D01*
X130650250Y-95520500D01*
X129451000Y-95520500D01*
X129197000Y-95520500D01*
X129177000Y-95520500D01*
X129177000Y-95266500D01*
X129197000Y-95266500D01*
X129197000Y-95246500D01*
X129451000Y-95246500D01*
X129451000Y-95266500D01*
X130650250Y-95266500D01*
X130809000Y-95107750D01*
X130809000Y-94942190D01*
X130712327Y-94708801D01*
X130544141Y-94540616D01*
X130562464Y-94448500D01*
X130562464Y-93798500D01*
X130532894Y-93649841D01*
X130448686Y-93523814D01*
X130395835Y-93488500D01*
X130448686Y-93453186D01*
X130470336Y-93420785D01*
X130553344Y-93503793D01*
X130819407Y-93614000D01*
X131107393Y-93614000D01*
X131373456Y-93503793D01*
X131577093Y-93300156D01*
X131687300Y-93034093D01*
X131687300Y-92746107D01*
X131577093Y-92480044D01*
X131373456Y-92276407D01*
X131107393Y-92166200D01*
X130819407Y-92166200D01*
X130553344Y-92276407D01*
X130499655Y-92330096D01*
X130448686Y-92253814D01*
X130395835Y-92218500D01*
X130448686Y-92183186D01*
X130509400Y-92092321D01*
X130555300Y-92101451D01*
X130605328Y-92091500D01*
X130605332Y-92091500D01*
X130753512Y-92062025D01*
X130921547Y-91949747D01*
X130949888Y-91907333D01*
X131125321Y-91731900D01*
X132554351Y-91731900D01*
X132660044Y-91837593D01*
X132926107Y-91947800D01*
X133214093Y-91947800D01*
X133480156Y-91837593D01*
X133683793Y-91633956D01*
X133722752Y-91539900D01*
X134192553Y-92009700D01*
X134192553Y-92009700D01*
G37*
X134192553Y-92009700D02*
X133479305Y-92722948D01*
X133434971Y-92752571D01*
X133317610Y-92928215D01*
X133286800Y-93083107D01*
X133286800Y-93083110D01*
X133276399Y-93135400D01*
X133286800Y-93187690D01*
X133286801Y-94815300D01*
X132837690Y-94815300D01*
X132785400Y-94804899D01*
X132733110Y-94815300D01*
X132733106Y-94815300D01*
X132578214Y-94846110D01*
X132455807Y-94927900D01*
X132402571Y-94963471D01*
X132372950Y-95007802D01*
X130274053Y-97106700D01*
X128204000Y-97106700D01*
X128204000Y-96480650D01*
X128045252Y-96321902D01*
X128204000Y-96321902D01*
X128204000Y-96293981D01*
X128347691Y-96353500D01*
X129038250Y-96353500D01*
X129197000Y-96194750D01*
X129197000Y-95520500D01*
X129451000Y-95520500D01*
X129451000Y-96194750D01*
X129609750Y-96353500D01*
X130300309Y-96353500D01*
X130533698Y-96256827D01*
X130712327Y-96078199D01*
X130809000Y-95844810D01*
X130809000Y-95679250D01*
X130650250Y-95520500D01*
X129451000Y-95520500D01*
X129197000Y-95520500D01*
X129177000Y-95520500D01*
X129177000Y-95266500D01*
X129197000Y-95266500D01*
X129197000Y-95246500D01*
X129451000Y-95246500D01*
X129451000Y-95266500D01*
X130650250Y-95266500D01*
X130809000Y-95107750D01*
X130809000Y-94942190D01*
X130712327Y-94708801D01*
X130544141Y-94540616D01*
X130562464Y-94448500D01*
X130562464Y-93798500D01*
X130532894Y-93649841D01*
X130448686Y-93523814D01*
X130395835Y-93488500D01*
X130448686Y-93453186D01*
X130470336Y-93420785D01*
X130553344Y-93503793D01*
X130819407Y-93614000D01*
X131107393Y-93614000D01*
X131373456Y-93503793D01*
X131577093Y-93300156D01*
X131687300Y-93034093D01*
X131687300Y-92746107D01*
X131577093Y-92480044D01*
X131373456Y-92276407D01*
X131107393Y-92166200D01*
X130819407Y-92166200D01*
X130553344Y-92276407D01*
X130499655Y-92330096D01*
X130448686Y-92253814D01*
X130395835Y-92218500D01*
X130448686Y-92183186D01*
X130509400Y-92092321D01*
X130555300Y-92101451D01*
X130605328Y-92091500D01*
X130605332Y-92091500D01*
X130753512Y-92062025D01*
X130921547Y-91949747D01*
X130949888Y-91907333D01*
X131125321Y-91731900D01*
X132554351Y-91731900D01*
X132660044Y-91837593D01*
X132926107Y-91947800D01*
X133214093Y-91947800D01*
X133480156Y-91837593D01*
X133683793Y-91633956D01*
X133722752Y-91539900D01*
X134192553Y-92009700D01*
G36*
X121241000Y-94927900D02*
X121221000Y-94927900D01*
X121221000Y-94974900D01*
X121063069Y-94974900D01*
X120967000Y-94935107D01*
X120967000Y-94927900D01*
X120949601Y-94927900D01*
X120947000Y-94926823D01*
X120947000Y-94766364D01*
X121241000Y-94766364D01*
X121241000Y-94927900D01*
X121241000Y-94927900D01*
G37*
X121241000Y-94927900D02*
X121221000Y-94927900D01*
X121221000Y-94974900D01*
X121063069Y-94974900D01*
X120967000Y-94935107D01*
X120967000Y-94927900D01*
X120949601Y-94927900D01*
X120947000Y-94926823D01*
X120947000Y-94766364D01*
X121241000Y-94766364D01*
X121241000Y-94927900D01*
G36*
X129182000Y-87106800D02*
X129202000Y-87106800D01*
X129202000Y-87360800D01*
X129182000Y-87360800D01*
X129182000Y-87380800D01*
X128928000Y-87380800D01*
X128928000Y-87360800D01*
X128908000Y-87360800D01*
X128908000Y-87106800D01*
X128928000Y-87106800D01*
X128928000Y-87086800D01*
X129182000Y-87086800D01*
X129182000Y-87106800D01*
X129182000Y-87106800D01*
G37*
X129182000Y-87106800D02*
X129202000Y-87106800D01*
X129202000Y-87360800D01*
X129182000Y-87360800D01*
X129182000Y-87380800D01*
X128928000Y-87380800D01*
X128928000Y-87360800D01*
X128908000Y-87360800D01*
X128908000Y-87106800D01*
X128928000Y-87106800D01*
X128928000Y-87086800D01*
X129182000Y-87086800D01*
X129182000Y-87106800D01*
G04 #@! TD*
M02*
