G04 #@! TF.GenerationSoftware,KiCad,Pcbnew,(5.0.0)*
G04 #@! TF.CreationDate,2018-09-08T13:32:02-05:00*
G04 #@! TF.ProjectId,mini-attinyuino,6D696E692D617474696E7975696E6F2E,1.0*
G04 #@! TF.SameCoordinates,Original*
G04 #@! TF.FileFunction,Soldermask,Bot*
G04 #@! TF.FilePolarity,Negative*
%FSLAX46Y46*%
G04 Gerber Fmt 4.6, Leading zero omitted, Abs format (unit mm)*
G04 Created by KiCad (PCBNEW (5.0.0)) date 09/08/18 13:32:02*
%MOMM*%
%LPD*%
G01*
G04 APERTURE LIST*
%ADD10C,2.300000*%
%ADD11O,1.800000X1.800000*%
%ADD12R,1.800000X1.800000*%
%ADD13C,0.800000*%
%ADD14C,0.127000*%
%ADD15C,1.450000*%
%ADD16C,1.075000*%
%ADD17C,0.950000*%
%ADD18R,1.600000X1.100000*%
%ADD19R,1.900000X1.100000*%
%ADD20R,1.940000X2.300000*%
%ADD21C,1.100000*%
G04 APERTURE END LIST*
D10*
G04 #@! TO.C,MH1*
X139941000Y-99194600D03*
G04 #@! TD*
G04 #@! TO.C,MH3*
X139941000Y-87812900D03*
G04 #@! TD*
D11*
G04 #@! TO.C,J1*
X136675000Y-99778800D03*
X134135000Y-99778800D03*
X131595000Y-99778800D03*
X129055000Y-99778800D03*
D12*
X126515000Y-99778800D03*
G04 #@! TD*
G04 #@! TO.C,J2*
X126515000Y-87233800D03*
D11*
X129055000Y-87233800D03*
X131595000Y-87233800D03*
X134135000Y-87233800D03*
X136675000Y-87233800D03*
G04 #@! TD*
D10*
G04 #@! TO.C,MH4*
X123647000Y-99194600D03*
G04 #@! TD*
D13*
G04 #@! TO.C,J3*
X120669000Y-91452900D03*
X120669000Y-95602900D03*
G04 #@! TD*
D10*
G04 #@! TO.C,MH2*
X123647000Y-87812900D03*
G04 #@! TD*
D14*
G04 #@! TO.C,C1*
G36*
X137778801Y-96432293D02*
X137804867Y-96436159D01*
X137830429Y-96442562D01*
X137855239Y-96451440D01*
X137879061Y-96462706D01*
X137901663Y-96476253D01*
X137922828Y-96491951D01*
X137942353Y-96509647D01*
X137960049Y-96529172D01*
X137975747Y-96550337D01*
X137989294Y-96572939D01*
X138000560Y-96596761D01*
X138009438Y-96621571D01*
X138015841Y-96647133D01*
X138019707Y-96673199D01*
X138021000Y-96699518D01*
X138021000Y-97612482D01*
X138019707Y-97638801D01*
X138015841Y-97664867D01*
X138009438Y-97690429D01*
X138000560Y-97715239D01*
X137989294Y-97739061D01*
X137975747Y-97761663D01*
X137960049Y-97782828D01*
X137942353Y-97802353D01*
X137922828Y-97820049D01*
X137901663Y-97835747D01*
X137879061Y-97849294D01*
X137855239Y-97860560D01*
X137830429Y-97869438D01*
X137804867Y-97875841D01*
X137778801Y-97879707D01*
X137752482Y-97881000D01*
X136789518Y-97881000D01*
X136763199Y-97879707D01*
X136737133Y-97875841D01*
X136711571Y-97869438D01*
X136686761Y-97860560D01*
X136662939Y-97849294D01*
X136640337Y-97835747D01*
X136619172Y-97820049D01*
X136599647Y-97802353D01*
X136581951Y-97782828D01*
X136566253Y-97761663D01*
X136552706Y-97739061D01*
X136541440Y-97715239D01*
X136532562Y-97690429D01*
X136526159Y-97664867D01*
X136522293Y-97638801D01*
X136521000Y-97612482D01*
X136521000Y-96699518D01*
X136522293Y-96673199D01*
X136526159Y-96647133D01*
X136532562Y-96621571D01*
X136541440Y-96596761D01*
X136552706Y-96572939D01*
X136566253Y-96550337D01*
X136581951Y-96529172D01*
X136599647Y-96509647D01*
X136619172Y-96491951D01*
X136640337Y-96476253D01*
X136662939Y-96462706D01*
X136686761Y-96451440D01*
X136711571Y-96442562D01*
X136737133Y-96436159D01*
X136763199Y-96432293D01*
X136789518Y-96431000D01*
X137752482Y-96431000D01*
X137778801Y-96432293D01*
X137778801Y-96432293D01*
G37*
D15*
X137271000Y-97156000D03*
D14*
G36*
X135078801Y-96432293D02*
X135104867Y-96436159D01*
X135130429Y-96442562D01*
X135155239Y-96451440D01*
X135179061Y-96462706D01*
X135201663Y-96476253D01*
X135222828Y-96491951D01*
X135242353Y-96509647D01*
X135260049Y-96529172D01*
X135275747Y-96550337D01*
X135289294Y-96572939D01*
X135300560Y-96596761D01*
X135309438Y-96621571D01*
X135315841Y-96647133D01*
X135319707Y-96673199D01*
X135321000Y-96699518D01*
X135321000Y-97612482D01*
X135319707Y-97638801D01*
X135315841Y-97664867D01*
X135309438Y-97690429D01*
X135300560Y-97715239D01*
X135289294Y-97739061D01*
X135275747Y-97761663D01*
X135260049Y-97782828D01*
X135242353Y-97802353D01*
X135222828Y-97820049D01*
X135201663Y-97835747D01*
X135179061Y-97849294D01*
X135155239Y-97860560D01*
X135130429Y-97869438D01*
X135104867Y-97875841D01*
X135078801Y-97879707D01*
X135052482Y-97881000D01*
X134089518Y-97881000D01*
X134063199Y-97879707D01*
X134037133Y-97875841D01*
X134011571Y-97869438D01*
X133986761Y-97860560D01*
X133962939Y-97849294D01*
X133940337Y-97835747D01*
X133919172Y-97820049D01*
X133899647Y-97802353D01*
X133881951Y-97782828D01*
X133866253Y-97761663D01*
X133852706Y-97739061D01*
X133841440Y-97715239D01*
X133832562Y-97690429D01*
X133826159Y-97664867D01*
X133822293Y-97638801D01*
X133821000Y-97612482D01*
X133821000Y-96699518D01*
X133822293Y-96673199D01*
X133826159Y-96647133D01*
X133832562Y-96621571D01*
X133841440Y-96596761D01*
X133852706Y-96572939D01*
X133866253Y-96550337D01*
X133881951Y-96529172D01*
X133899647Y-96509647D01*
X133919172Y-96491951D01*
X133940337Y-96476253D01*
X133962939Y-96462706D01*
X133986761Y-96451440D01*
X134011571Y-96442562D01*
X134037133Y-96436159D01*
X134063199Y-96432293D01*
X134089518Y-96431000D01*
X135052482Y-96431000D01*
X135078801Y-96432293D01*
X135078801Y-96432293D01*
G37*
D15*
X134571000Y-97156000D03*
G04 #@! TD*
D14*
G04 #@! TO.C,C2*
G36*
X137175592Y-89042794D02*
X137201681Y-89046664D01*
X137227264Y-89053072D01*
X137252096Y-89061957D01*
X137275938Y-89073234D01*
X137298560Y-89086793D01*
X137319743Y-89102503D01*
X137339285Y-89120215D01*
X137356997Y-89139757D01*
X137372707Y-89160940D01*
X137386266Y-89183562D01*
X137397543Y-89207404D01*
X137406428Y-89232236D01*
X137412836Y-89257819D01*
X137416706Y-89283908D01*
X137418000Y-89310250D01*
X137418000Y-90272750D01*
X137416706Y-90299092D01*
X137412836Y-90325181D01*
X137406428Y-90350764D01*
X137397543Y-90375596D01*
X137386266Y-90399438D01*
X137372707Y-90422060D01*
X137356997Y-90443243D01*
X137339285Y-90462785D01*
X137319743Y-90480497D01*
X137298560Y-90496207D01*
X137275938Y-90509766D01*
X137252096Y-90521043D01*
X137227264Y-90529928D01*
X137201681Y-90536336D01*
X137175592Y-90540206D01*
X137149250Y-90541500D01*
X136611750Y-90541500D01*
X136585408Y-90540206D01*
X136559319Y-90536336D01*
X136533736Y-90529928D01*
X136508904Y-90521043D01*
X136485062Y-90509766D01*
X136462440Y-90496207D01*
X136441257Y-90480497D01*
X136421715Y-90462785D01*
X136404003Y-90443243D01*
X136388293Y-90422060D01*
X136374734Y-90399438D01*
X136363457Y-90375596D01*
X136354572Y-90350764D01*
X136348164Y-90325181D01*
X136344294Y-90299092D01*
X136343000Y-90272750D01*
X136343000Y-89310250D01*
X136344294Y-89283908D01*
X136348164Y-89257819D01*
X136354572Y-89232236D01*
X136363457Y-89207404D01*
X136374734Y-89183562D01*
X136388293Y-89160940D01*
X136404003Y-89139757D01*
X136421715Y-89120215D01*
X136441257Y-89102503D01*
X136462440Y-89086793D01*
X136485062Y-89073234D01*
X136508904Y-89061957D01*
X136533736Y-89053072D01*
X136559319Y-89046664D01*
X136585408Y-89042794D01*
X136611750Y-89041500D01*
X137149250Y-89041500D01*
X137175592Y-89042794D01*
X137175592Y-89042794D01*
G37*
D16*
X136880500Y-89791500D03*
D14*
G36*
X135300592Y-89042794D02*
X135326681Y-89046664D01*
X135352264Y-89053072D01*
X135377096Y-89061957D01*
X135400938Y-89073234D01*
X135423560Y-89086793D01*
X135444743Y-89102503D01*
X135464285Y-89120215D01*
X135481997Y-89139757D01*
X135497707Y-89160940D01*
X135511266Y-89183562D01*
X135522543Y-89207404D01*
X135531428Y-89232236D01*
X135537836Y-89257819D01*
X135541706Y-89283908D01*
X135543000Y-89310250D01*
X135543000Y-90272750D01*
X135541706Y-90299092D01*
X135537836Y-90325181D01*
X135531428Y-90350764D01*
X135522543Y-90375596D01*
X135511266Y-90399438D01*
X135497707Y-90422060D01*
X135481997Y-90443243D01*
X135464285Y-90462785D01*
X135444743Y-90480497D01*
X135423560Y-90496207D01*
X135400938Y-90509766D01*
X135377096Y-90521043D01*
X135352264Y-90529928D01*
X135326681Y-90536336D01*
X135300592Y-90540206D01*
X135274250Y-90541500D01*
X134736750Y-90541500D01*
X134710408Y-90540206D01*
X134684319Y-90536336D01*
X134658736Y-90529928D01*
X134633904Y-90521043D01*
X134610062Y-90509766D01*
X134587440Y-90496207D01*
X134566257Y-90480497D01*
X134546715Y-90462785D01*
X134529003Y-90443243D01*
X134513293Y-90422060D01*
X134499734Y-90399438D01*
X134488457Y-90375596D01*
X134479572Y-90350764D01*
X134473164Y-90325181D01*
X134469294Y-90299092D01*
X134468000Y-90272750D01*
X134468000Y-89310250D01*
X134469294Y-89283908D01*
X134473164Y-89257819D01*
X134479572Y-89232236D01*
X134488457Y-89207404D01*
X134499734Y-89183562D01*
X134513293Y-89160940D01*
X134529003Y-89139757D01*
X134546715Y-89120215D01*
X134566257Y-89102503D01*
X134587440Y-89086793D01*
X134610062Y-89073234D01*
X134633904Y-89061957D01*
X134658736Y-89053072D01*
X134684319Y-89046664D01*
X134710408Y-89042794D01*
X134736750Y-89041500D01*
X135274250Y-89041500D01*
X135300592Y-89042794D01*
X135300592Y-89042794D01*
G37*
D16*
X135005500Y-89791500D03*
G04 #@! TD*
D14*
G04 #@! TO.C,R1*
G36*
X126210592Y-95468894D02*
X126236681Y-95472764D01*
X126262264Y-95479172D01*
X126287096Y-95488057D01*
X126310938Y-95499334D01*
X126333560Y-95512893D01*
X126354743Y-95528603D01*
X126374285Y-95546315D01*
X126391997Y-95565857D01*
X126407707Y-95587040D01*
X126421266Y-95609662D01*
X126432543Y-95633504D01*
X126441428Y-95658336D01*
X126447836Y-95683919D01*
X126451706Y-95710008D01*
X126453000Y-95736350D01*
X126453000Y-96698850D01*
X126451706Y-96725192D01*
X126447836Y-96751281D01*
X126441428Y-96776864D01*
X126432543Y-96801696D01*
X126421266Y-96825538D01*
X126407707Y-96848160D01*
X126391997Y-96869343D01*
X126374285Y-96888885D01*
X126354743Y-96906597D01*
X126333560Y-96922307D01*
X126310938Y-96935866D01*
X126287096Y-96947143D01*
X126262264Y-96956028D01*
X126236681Y-96962436D01*
X126210592Y-96966306D01*
X126184250Y-96967600D01*
X125646750Y-96967600D01*
X125620408Y-96966306D01*
X125594319Y-96962436D01*
X125568736Y-96956028D01*
X125543904Y-96947143D01*
X125520062Y-96935866D01*
X125497440Y-96922307D01*
X125476257Y-96906597D01*
X125456715Y-96888885D01*
X125439003Y-96869343D01*
X125423293Y-96848160D01*
X125409734Y-96825538D01*
X125398457Y-96801696D01*
X125389572Y-96776864D01*
X125383164Y-96751281D01*
X125379294Y-96725192D01*
X125378000Y-96698850D01*
X125378000Y-95736350D01*
X125379294Y-95710008D01*
X125383164Y-95683919D01*
X125389572Y-95658336D01*
X125398457Y-95633504D01*
X125409734Y-95609662D01*
X125423293Y-95587040D01*
X125439003Y-95565857D01*
X125456715Y-95546315D01*
X125476257Y-95528603D01*
X125497440Y-95512893D01*
X125520062Y-95499334D01*
X125543904Y-95488057D01*
X125568736Y-95479172D01*
X125594319Y-95472764D01*
X125620408Y-95468894D01*
X125646750Y-95467600D01*
X126184250Y-95467600D01*
X126210592Y-95468894D01*
X126210592Y-95468894D01*
G37*
D16*
X125915500Y-96217600D03*
D14*
G36*
X124335592Y-95468894D02*
X124361681Y-95472764D01*
X124387264Y-95479172D01*
X124412096Y-95488057D01*
X124435938Y-95499334D01*
X124458560Y-95512893D01*
X124479743Y-95528603D01*
X124499285Y-95546315D01*
X124516997Y-95565857D01*
X124532707Y-95587040D01*
X124546266Y-95609662D01*
X124557543Y-95633504D01*
X124566428Y-95658336D01*
X124572836Y-95683919D01*
X124576706Y-95710008D01*
X124578000Y-95736350D01*
X124578000Y-96698850D01*
X124576706Y-96725192D01*
X124572836Y-96751281D01*
X124566428Y-96776864D01*
X124557543Y-96801696D01*
X124546266Y-96825538D01*
X124532707Y-96848160D01*
X124516997Y-96869343D01*
X124499285Y-96888885D01*
X124479743Y-96906597D01*
X124458560Y-96922307D01*
X124435938Y-96935866D01*
X124412096Y-96947143D01*
X124387264Y-96956028D01*
X124361681Y-96962436D01*
X124335592Y-96966306D01*
X124309250Y-96967600D01*
X123771750Y-96967600D01*
X123745408Y-96966306D01*
X123719319Y-96962436D01*
X123693736Y-96956028D01*
X123668904Y-96947143D01*
X123645062Y-96935866D01*
X123622440Y-96922307D01*
X123601257Y-96906597D01*
X123581715Y-96888885D01*
X123564003Y-96869343D01*
X123548293Y-96848160D01*
X123534734Y-96825538D01*
X123523457Y-96801696D01*
X123514572Y-96776864D01*
X123508164Y-96751281D01*
X123504294Y-96725192D01*
X123503000Y-96698850D01*
X123503000Y-95736350D01*
X123504294Y-95710008D01*
X123508164Y-95683919D01*
X123514572Y-95658336D01*
X123523457Y-95633504D01*
X123534734Y-95609662D01*
X123548293Y-95587040D01*
X123564003Y-95565857D01*
X123581715Y-95546315D01*
X123601257Y-95528603D01*
X123622440Y-95512893D01*
X123645062Y-95499334D01*
X123668904Y-95488057D01*
X123693736Y-95479172D01*
X123719319Y-95472764D01*
X123745408Y-95468894D01*
X123771750Y-95467600D01*
X124309250Y-95467600D01*
X124335592Y-95468894D01*
X124335592Y-95468894D01*
G37*
D16*
X124040500Y-96217600D03*
G04 #@! TD*
D14*
G04 #@! TO.C,R2*
G36*
X124335592Y-90046394D02*
X124361681Y-90050264D01*
X124387264Y-90056672D01*
X124412096Y-90065557D01*
X124435938Y-90076834D01*
X124458560Y-90090393D01*
X124479743Y-90106103D01*
X124499285Y-90123815D01*
X124516997Y-90143357D01*
X124532707Y-90164540D01*
X124546266Y-90187162D01*
X124557543Y-90211004D01*
X124566428Y-90235836D01*
X124572836Y-90261419D01*
X124576706Y-90287508D01*
X124578000Y-90313850D01*
X124578000Y-91276350D01*
X124576706Y-91302692D01*
X124572836Y-91328781D01*
X124566428Y-91354364D01*
X124557543Y-91379196D01*
X124546266Y-91403038D01*
X124532707Y-91425660D01*
X124516997Y-91446843D01*
X124499285Y-91466385D01*
X124479743Y-91484097D01*
X124458560Y-91499807D01*
X124435938Y-91513366D01*
X124412096Y-91524643D01*
X124387264Y-91533528D01*
X124361681Y-91539936D01*
X124335592Y-91543806D01*
X124309250Y-91545100D01*
X123771750Y-91545100D01*
X123745408Y-91543806D01*
X123719319Y-91539936D01*
X123693736Y-91533528D01*
X123668904Y-91524643D01*
X123645062Y-91513366D01*
X123622440Y-91499807D01*
X123601257Y-91484097D01*
X123581715Y-91466385D01*
X123564003Y-91446843D01*
X123548293Y-91425660D01*
X123534734Y-91403038D01*
X123523457Y-91379196D01*
X123514572Y-91354364D01*
X123508164Y-91328781D01*
X123504294Y-91302692D01*
X123503000Y-91276350D01*
X123503000Y-90313850D01*
X123504294Y-90287508D01*
X123508164Y-90261419D01*
X123514572Y-90235836D01*
X123523457Y-90211004D01*
X123534734Y-90187162D01*
X123548293Y-90164540D01*
X123564003Y-90143357D01*
X123581715Y-90123815D01*
X123601257Y-90106103D01*
X123622440Y-90090393D01*
X123645062Y-90076834D01*
X123668904Y-90065557D01*
X123693736Y-90056672D01*
X123719319Y-90050264D01*
X123745408Y-90046394D01*
X123771750Y-90045100D01*
X124309250Y-90045100D01*
X124335592Y-90046394D01*
X124335592Y-90046394D01*
G37*
D16*
X124040500Y-90795100D03*
D14*
G36*
X126210592Y-90046394D02*
X126236681Y-90050264D01*
X126262264Y-90056672D01*
X126287096Y-90065557D01*
X126310938Y-90076834D01*
X126333560Y-90090393D01*
X126354743Y-90106103D01*
X126374285Y-90123815D01*
X126391997Y-90143357D01*
X126407707Y-90164540D01*
X126421266Y-90187162D01*
X126432543Y-90211004D01*
X126441428Y-90235836D01*
X126447836Y-90261419D01*
X126451706Y-90287508D01*
X126453000Y-90313850D01*
X126453000Y-91276350D01*
X126451706Y-91302692D01*
X126447836Y-91328781D01*
X126441428Y-91354364D01*
X126432543Y-91379196D01*
X126421266Y-91403038D01*
X126407707Y-91425660D01*
X126391997Y-91446843D01*
X126374285Y-91466385D01*
X126354743Y-91484097D01*
X126333560Y-91499807D01*
X126310938Y-91513366D01*
X126287096Y-91524643D01*
X126262264Y-91533528D01*
X126236681Y-91539936D01*
X126210592Y-91543806D01*
X126184250Y-91545100D01*
X125646750Y-91545100D01*
X125620408Y-91543806D01*
X125594319Y-91539936D01*
X125568736Y-91533528D01*
X125543904Y-91524643D01*
X125520062Y-91513366D01*
X125497440Y-91499807D01*
X125476257Y-91484097D01*
X125456715Y-91466385D01*
X125439003Y-91446843D01*
X125423293Y-91425660D01*
X125409734Y-91403038D01*
X125398457Y-91379196D01*
X125389572Y-91354364D01*
X125383164Y-91328781D01*
X125379294Y-91302692D01*
X125378000Y-91276350D01*
X125378000Y-90313850D01*
X125379294Y-90287508D01*
X125383164Y-90261419D01*
X125389572Y-90235836D01*
X125398457Y-90211004D01*
X125409734Y-90187162D01*
X125423293Y-90164540D01*
X125439003Y-90143357D01*
X125456715Y-90123815D01*
X125476257Y-90106103D01*
X125497440Y-90090393D01*
X125520062Y-90076834D01*
X125543904Y-90065557D01*
X125568736Y-90056672D01*
X125594319Y-90050264D01*
X125620408Y-90046394D01*
X125646750Y-90045100D01*
X126184250Y-90045100D01*
X126210592Y-90046394D01*
X126210592Y-90046394D01*
G37*
D16*
X125915500Y-90795100D03*
G04 #@! TD*
D14*
G04 #@! TO.C,R3*
G36*
X124335592Y-92757594D02*
X124361681Y-92761464D01*
X124387264Y-92767872D01*
X124412096Y-92776757D01*
X124435938Y-92788034D01*
X124458560Y-92801593D01*
X124479743Y-92817303D01*
X124499285Y-92835015D01*
X124516997Y-92854557D01*
X124532707Y-92875740D01*
X124546266Y-92898362D01*
X124557543Y-92922204D01*
X124566428Y-92947036D01*
X124572836Y-92972619D01*
X124576706Y-92998708D01*
X124578000Y-93025050D01*
X124578000Y-93987550D01*
X124576706Y-94013892D01*
X124572836Y-94039981D01*
X124566428Y-94065564D01*
X124557543Y-94090396D01*
X124546266Y-94114238D01*
X124532707Y-94136860D01*
X124516997Y-94158043D01*
X124499285Y-94177585D01*
X124479743Y-94195297D01*
X124458560Y-94211007D01*
X124435938Y-94224566D01*
X124412096Y-94235843D01*
X124387264Y-94244728D01*
X124361681Y-94251136D01*
X124335592Y-94255006D01*
X124309250Y-94256300D01*
X123771750Y-94256300D01*
X123745408Y-94255006D01*
X123719319Y-94251136D01*
X123693736Y-94244728D01*
X123668904Y-94235843D01*
X123645062Y-94224566D01*
X123622440Y-94211007D01*
X123601257Y-94195297D01*
X123581715Y-94177585D01*
X123564003Y-94158043D01*
X123548293Y-94136860D01*
X123534734Y-94114238D01*
X123523457Y-94090396D01*
X123514572Y-94065564D01*
X123508164Y-94039981D01*
X123504294Y-94013892D01*
X123503000Y-93987550D01*
X123503000Y-93025050D01*
X123504294Y-92998708D01*
X123508164Y-92972619D01*
X123514572Y-92947036D01*
X123523457Y-92922204D01*
X123534734Y-92898362D01*
X123548293Y-92875740D01*
X123564003Y-92854557D01*
X123581715Y-92835015D01*
X123601257Y-92817303D01*
X123622440Y-92801593D01*
X123645062Y-92788034D01*
X123668904Y-92776757D01*
X123693736Y-92767872D01*
X123719319Y-92761464D01*
X123745408Y-92757594D01*
X123771750Y-92756300D01*
X124309250Y-92756300D01*
X124335592Y-92757594D01*
X124335592Y-92757594D01*
G37*
D16*
X124040500Y-93506300D03*
D14*
G36*
X126210592Y-92757594D02*
X126236681Y-92761464D01*
X126262264Y-92767872D01*
X126287096Y-92776757D01*
X126310938Y-92788034D01*
X126333560Y-92801593D01*
X126354743Y-92817303D01*
X126374285Y-92835015D01*
X126391997Y-92854557D01*
X126407707Y-92875740D01*
X126421266Y-92898362D01*
X126432543Y-92922204D01*
X126441428Y-92947036D01*
X126447836Y-92972619D01*
X126451706Y-92998708D01*
X126453000Y-93025050D01*
X126453000Y-93987550D01*
X126451706Y-94013892D01*
X126447836Y-94039981D01*
X126441428Y-94065564D01*
X126432543Y-94090396D01*
X126421266Y-94114238D01*
X126407707Y-94136860D01*
X126391997Y-94158043D01*
X126374285Y-94177585D01*
X126354743Y-94195297D01*
X126333560Y-94211007D01*
X126310938Y-94224566D01*
X126287096Y-94235843D01*
X126262264Y-94244728D01*
X126236681Y-94251136D01*
X126210592Y-94255006D01*
X126184250Y-94256300D01*
X125646750Y-94256300D01*
X125620408Y-94255006D01*
X125594319Y-94251136D01*
X125568736Y-94244728D01*
X125543904Y-94235843D01*
X125520062Y-94224566D01*
X125497440Y-94211007D01*
X125476257Y-94195297D01*
X125456715Y-94177585D01*
X125439003Y-94158043D01*
X125423293Y-94136860D01*
X125409734Y-94114238D01*
X125398457Y-94090396D01*
X125389572Y-94065564D01*
X125383164Y-94039981D01*
X125379294Y-94013892D01*
X125378000Y-93987550D01*
X125378000Y-93025050D01*
X125379294Y-92998708D01*
X125383164Y-92972619D01*
X125389572Y-92947036D01*
X125398457Y-92922204D01*
X125409734Y-92898362D01*
X125423293Y-92875740D01*
X125439003Y-92854557D01*
X125456715Y-92835015D01*
X125476257Y-92817303D01*
X125497440Y-92801593D01*
X125520062Y-92788034D01*
X125543904Y-92776757D01*
X125568736Y-92767872D01*
X125594319Y-92761464D01*
X125620408Y-92757594D01*
X125646750Y-92756300D01*
X126184250Y-92756300D01*
X126210592Y-92757594D01*
X126210592Y-92757594D01*
G37*
D16*
X125915500Y-93506300D03*
G04 #@! TD*
D14*
G04 #@! TO.C,R4*
G36*
X130161592Y-89981694D02*
X130187681Y-89985564D01*
X130213264Y-89991972D01*
X130238096Y-90000857D01*
X130261938Y-90012134D01*
X130284560Y-90025693D01*
X130305743Y-90041403D01*
X130325285Y-90059115D01*
X130342997Y-90078657D01*
X130358707Y-90099840D01*
X130372266Y-90122462D01*
X130383543Y-90146304D01*
X130392428Y-90171136D01*
X130398836Y-90196719D01*
X130402706Y-90222808D01*
X130404000Y-90249150D01*
X130404000Y-90786650D01*
X130402706Y-90812992D01*
X130398836Y-90839081D01*
X130392428Y-90864664D01*
X130383543Y-90889496D01*
X130372266Y-90913338D01*
X130358707Y-90935960D01*
X130342997Y-90957143D01*
X130325285Y-90976685D01*
X130305743Y-90994397D01*
X130284560Y-91010107D01*
X130261938Y-91023666D01*
X130238096Y-91034943D01*
X130213264Y-91043828D01*
X130187681Y-91050236D01*
X130161592Y-91054106D01*
X130135250Y-91055400D01*
X129172750Y-91055400D01*
X129146408Y-91054106D01*
X129120319Y-91050236D01*
X129094736Y-91043828D01*
X129069904Y-91034943D01*
X129046062Y-91023666D01*
X129023440Y-91010107D01*
X129002257Y-90994397D01*
X128982715Y-90976685D01*
X128965003Y-90957143D01*
X128949293Y-90935960D01*
X128935734Y-90913338D01*
X128924457Y-90889496D01*
X128915572Y-90864664D01*
X128909164Y-90839081D01*
X128905294Y-90812992D01*
X128904000Y-90786650D01*
X128904000Y-90249150D01*
X128905294Y-90222808D01*
X128909164Y-90196719D01*
X128915572Y-90171136D01*
X128924457Y-90146304D01*
X128935734Y-90122462D01*
X128949293Y-90099840D01*
X128965003Y-90078657D01*
X128982715Y-90059115D01*
X129002257Y-90041403D01*
X129023440Y-90025693D01*
X129046062Y-90012134D01*
X129069904Y-90000857D01*
X129094736Y-89991972D01*
X129120319Y-89985564D01*
X129146408Y-89981694D01*
X129172750Y-89980400D01*
X130135250Y-89980400D01*
X130161592Y-89981694D01*
X130161592Y-89981694D01*
G37*
D16*
X129654000Y-90517900D03*
D14*
G36*
X130161592Y-91856694D02*
X130187681Y-91860564D01*
X130213264Y-91866972D01*
X130238096Y-91875857D01*
X130261938Y-91887134D01*
X130284560Y-91900693D01*
X130305743Y-91916403D01*
X130325285Y-91934115D01*
X130342997Y-91953657D01*
X130358707Y-91974840D01*
X130372266Y-91997462D01*
X130383543Y-92021304D01*
X130392428Y-92046136D01*
X130398836Y-92071719D01*
X130402706Y-92097808D01*
X130404000Y-92124150D01*
X130404000Y-92661650D01*
X130402706Y-92687992D01*
X130398836Y-92714081D01*
X130392428Y-92739664D01*
X130383543Y-92764496D01*
X130372266Y-92788338D01*
X130358707Y-92810960D01*
X130342997Y-92832143D01*
X130325285Y-92851685D01*
X130305743Y-92869397D01*
X130284560Y-92885107D01*
X130261938Y-92898666D01*
X130238096Y-92909943D01*
X130213264Y-92918828D01*
X130187681Y-92925236D01*
X130161592Y-92929106D01*
X130135250Y-92930400D01*
X129172750Y-92930400D01*
X129146408Y-92929106D01*
X129120319Y-92925236D01*
X129094736Y-92918828D01*
X129069904Y-92909943D01*
X129046062Y-92898666D01*
X129023440Y-92885107D01*
X129002257Y-92869397D01*
X128982715Y-92851685D01*
X128965003Y-92832143D01*
X128949293Y-92810960D01*
X128935734Y-92788338D01*
X128924457Y-92764496D01*
X128915572Y-92739664D01*
X128909164Y-92714081D01*
X128905294Y-92687992D01*
X128904000Y-92661650D01*
X128904000Y-92124150D01*
X128905294Y-92097808D01*
X128909164Y-92071719D01*
X128915572Y-92046136D01*
X128924457Y-92021304D01*
X128935734Y-91997462D01*
X128949293Y-91974840D01*
X128965003Y-91953657D01*
X128982715Y-91934115D01*
X129002257Y-91916403D01*
X129023440Y-91900693D01*
X129046062Y-91887134D01*
X129069904Y-91875857D01*
X129094736Y-91866972D01*
X129120319Y-91860564D01*
X129146408Y-91856694D01*
X129172750Y-91855400D01*
X130135250Y-91855400D01*
X130161592Y-91856694D01*
X130161592Y-91856694D01*
G37*
D16*
X129654000Y-92392900D03*
G04 #@! TD*
D14*
G04 #@! TO.C,R5*
G36*
X130161592Y-94083394D02*
X130187681Y-94087264D01*
X130213264Y-94093672D01*
X130238096Y-94102557D01*
X130261938Y-94113834D01*
X130284560Y-94127393D01*
X130305743Y-94143103D01*
X130325285Y-94160815D01*
X130342997Y-94180357D01*
X130358707Y-94201540D01*
X130372266Y-94224162D01*
X130383543Y-94248004D01*
X130392428Y-94272836D01*
X130398836Y-94298419D01*
X130402706Y-94324508D01*
X130404000Y-94350850D01*
X130404000Y-94888350D01*
X130402706Y-94914692D01*
X130398836Y-94940781D01*
X130392428Y-94966364D01*
X130383543Y-94991196D01*
X130372266Y-95015038D01*
X130358707Y-95037660D01*
X130342997Y-95058843D01*
X130325285Y-95078385D01*
X130305743Y-95096097D01*
X130284560Y-95111807D01*
X130261938Y-95125366D01*
X130238096Y-95136643D01*
X130213264Y-95145528D01*
X130187681Y-95151936D01*
X130161592Y-95155806D01*
X130135250Y-95157100D01*
X129172750Y-95157100D01*
X129146408Y-95155806D01*
X129120319Y-95151936D01*
X129094736Y-95145528D01*
X129069904Y-95136643D01*
X129046062Y-95125366D01*
X129023440Y-95111807D01*
X129002257Y-95096097D01*
X128982715Y-95078385D01*
X128965003Y-95058843D01*
X128949293Y-95037660D01*
X128935734Y-95015038D01*
X128924457Y-94991196D01*
X128915572Y-94966364D01*
X128909164Y-94940781D01*
X128905294Y-94914692D01*
X128904000Y-94888350D01*
X128904000Y-94350850D01*
X128905294Y-94324508D01*
X128909164Y-94298419D01*
X128915572Y-94272836D01*
X128924457Y-94248004D01*
X128935734Y-94224162D01*
X128949293Y-94201540D01*
X128965003Y-94180357D01*
X128982715Y-94160815D01*
X129002257Y-94143103D01*
X129023440Y-94127393D01*
X129046062Y-94113834D01*
X129069904Y-94102557D01*
X129094736Y-94093672D01*
X129120319Y-94087264D01*
X129146408Y-94083394D01*
X129172750Y-94082100D01*
X130135250Y-94082100D01*
X130161592Y-94083394D01*
X130161592Y-94083394D01*
G37*
D16*
X129654000Y-94619600D03*
D14*
G36*
X130161592Y-95958394D02*
X130187681Y-95962264D01*
X130213264Y-95968672D01*
X130238096Y-95977557D01*
X130261938Y-95988834D01*
X130284560Y-96002393D01*
X130305743Y-96018103D01*
X130325285Y-96035815D01*
X130342997Y-96055357D01*
X130358707Y-96076540D01*
X130372266Y-96099162D01*
X130383543Y-96123004D01*
X130392428Y-96147836D01*
X130398836Y-96173419D01*
X130402706Y-96199508D01*
X130404000Y-96225850D01*
X130404000Y-96763350D01*
X130402706Y-96789692D01*
X130398836Y-96815781D01*
X130392428Y-96841364D01*
X130383543Y-96866196D01*
X130372266Y-96890038D01*
X130358707Y-96912660D01*
X130342997Y-96933843D01*
X130325285Y-96953385D01*
X130305743Y-96971097D01*
X130284560Y-96986807D01*
X130261938Y-97000366D01*
X130238096Y-97011643D01*
X130213264Y-97020528D01*
X130187681Y-97026936D01*
X130161592Y-97030806D01*
X130135250Y-97032100D01*
X129172750Y-97032100D01*
X129146408Y-97030806D01*
X129120319Y-97026936D01*
X129094736Y-97020528D01*
X129069904Y-97011643D01*
X129046062Y-97000366D01*
X129023440Y-96986807D01*
X129002257Y-96971097D01*
X128982715Y-96953385D01*
X128965003Y-96933843D01*
X128949293Y-96912660D01*
X128935734Y-96890038D01*
X128924457Y-96866196D01*
X128915572Y-96841364D01*
X128909164Y-96815781D01*
X128905294Y-96789692D01*
X128904000Y-96763350D01*
X128904000Y-96225850D01*
X128905294Y-96199508D01*
X128909164Y-96173419D01*
X128915572Y-96147836D01*
X128924457Y-96123004D01*
X128935734Y-96099162D01*
X128949293Y-96076540D01*
X128965003Y-96055357D01*
X128982715Y-96035815D01*
X129002257Y-96018103D01*
X129023440Y-96002393D01*
X129046062Y-95988834D01*
X129069904Y-95977557D01*
X129094736Y-95968672D01*
X129120319Y-95962264D01*
X129146408Y-95958394D01*
X129172750Y-95957100D01*
X130135250Y-95957100D01*
X130161592Y-95958394D01*
X130161592Y-95958394D01*
G37*
D16*
X129654000Y-96494600D03*
G04 #@! TD*
D17*
G04 #@! TO.C,U1*
X133651000Y-93423800D03*
D14*
G36*
X133176000Y-92897892D02*
X134126000Y-92227304D01*
X134126000Y-94620296D01*
X133176000Y-93949708D01*
X133176000Y-92897892D01*
X133176000Y-92897892D01*
G37*
D18*
X137798000Y-91923800D03*
D19*
X137651500Y-93423800D03*
D18*
X137798000Y-94923800D03*
D20*
X134984500Y-93423800D03*
D21*
X136394200Y-93423800D03*
D14*
G36*
X136944200Y-93849833D02*
X135844200Y-94619833D01*
X135844200Y-92227767D01*
X136944200Y-92997767D01*
X136944200Y-93849833D01*
X136944200Y-93849833D01*
G37*
G04 #@! TD*
M02*
