G04 #@! TF.GenerationSoftware,KiCad,Pcbnew,(5.0.0)*
G04 #@! TF.CreationDate,2018-09-08T13:32:02-05:00*
G04 #@! TF.ProjectId,mini-attinyuino,6D696E692D617474696E7975696E6F2E,1.0*
G04 #@! TF.SameCoordinates,Original*
G04 #@! TF.FileFunction,Profile,NP*
%FSLAX46Y46*%
G04 Gerber Fmt 4.6, Leading zero omitted, Abs format (unit mm)*
G04 Created by KiCad (PCBNEW (5.0.0)) date 09/08/18 13:32:02*
%MOMM*%
%LPD*%
G01*
G04 APERTURE LIST*
%ADD10C,0.200000*%
G04 APERTURE END LIST*
D10*
X141860399Y-101145513D02*
X141860399Y-100345513D01*
X116882095Y-86758360D02*
X116988310Y-86619938D01*
X117373246Y-86267209D02*
X117520399Y-86173462D01*
X141860399Y-87810513D02*
X141860399Y-86505513D01*
X117675162Y-86092897D02*
X117836359Y-86026128D01*
X116550783Y-99492809D02*
X116588547Y-99663151D01*
X116588547Y-99663151D02*
X116641014Y-99829553D01*
X117675162Y-100958129D02*
X117836359Y-101024898D01*
X117234824Y-100677602D02*
X117373246Y-100783817D01*
X141860399Y-101145513D02*
X118173103Y-101115129D01*
X116528010Y-87731202D02*
X116550783Y-87558217D01*
X117106185Y-100559727D02*
X117234824Y-100677602D01*
X116641014Y-99829553D02*
X116707783Y-99990750D01*
X116550783Y-87558217D02*
X116588547Y-87387875D01*
X116520399Y-87905513D02*
X116528010Y-87731202D01*
X141860399Y-100345513D02*
X143160399Y-99240513D01*
X116707783Y-99990750D02*
X116788348Y-100145513D01*
X118002761Y-101077365D02*
X118173103Y-101115129D01*
X141860399Y-86505513D02*
X141170399Y-85905513D01*
X116707783Y-87060276D02*
X116788348Y-86905513D01*
X117836359Y-86026128D02*
X118002761Y-85973661D01*
X141170399Y-85905513D02*
X118173103Y-85935897D01*
X116988310Y-86619938D02*
X117106185Y-86491299D01*
X117234824Y-86373424D02*
X117373246Y-86267209D01*
X117520399Y-86173462D02*
X117675162Y-86092897D01*
X143160399Y-99240513D02*
X143160399Y-89710513D01*
X118002761Y-85973661D02*
X118173103Y-85935897D01*
X116641014Y-87221473D02*
X116707783Y-87060276D01*
X117106185Y-86491299D02*
X117234824Y-86373424D01*
X116788348Y-86905513D02*
X116882095Y-86758360D01*
X143160399Y-89710513D02*
X141860399Y-87810513D01*
X116788348Y-100145513D02*
X116882095Y-100292666D01*
X117520399Y-100877564D02*
X117675162Y-100958129D01*
X116520399Y-87905513D02*
X116520399Y-99145513D01*
X116882095Y-100292666D02*
X116988310Y-100431088D01*
X116528010Y-99319824D02*
X116550783Y-99492809D01*
X117373246Y-100783817D02*
X117520399Y-100877564D01*
X116988310Y-100431088D02*
X117106185Y-100559727D01*
X116520399Y-99145513D02*
X116528010Y-99319824D01*
X116588547Y-87387875D02*
X116641014Y-87221473D01*
X117836359Y-101024898D02*
X118002761Y-101077365D01*
M02*
