M48
;DRILL file {KiCad (5.0.0)} date 09/10/18 18:50:34
;FORMAT={3:3/ absolute / metric / suppress leading zeros}
FMAT,2
METRIC,TZ
T1C0.330
T2C0.750
T3C0.800
T4C0.900
T5C0.920
T6C1.000
T7C1.100
T8C2.330
T9C0.991
T10C2.200
%
G90
G05
M71
T1
X137033Y-109187
T2
X114428Y-110124
X115698Y-108854
X115698Y-111394
T3
X114003Y-105256
X121623Y-105256
X130847Y-98687
X130847Y-106307
X133387Y-98687
X133387Y-106307
X135927Y-98687
X135927Y-106307
X138467Y-98687
X138467Y-106307
X112733Y-90954
X122893Y-90954
X100752Y-108735
X110912Y-108735
X114003Y-94592
X121623Y-94592
X112733Y-101618
X122893Y-101618
X126591Y-97581
X126591Y-107741
X114003Y-97980
X121623Y-97980
X133215Y-91254
X133215Y-93754
X100752Y-89179
X110912Y-89179
X126591Y-90049
X126591Y-95049
T4
X96632Y-109913
X96632Y-112453
X96632Y-85411
X96632Y-87951
T5
X106204Y-97682
X106204Y-100182
X108204Y-97682
X108204Y-100182
T6
X120514Y-86766
X123054Y-86766
X125594Y-86766
X128134Y-86766
X130674Y-86766
X120514Y-111023
X123054Y-111023
X125594Y-111023
X128134Y-111023
X130674Y-111023
T7
X142744Y-99237
X142744Y-105737
X147244Y-99237
X147244Y-105737
T8
X103494Y-92912
X103494Y-104952
T9
X135537Y-109807
X135537Y-111839
X140617Y-110823
T10
X144798Y-113068
X144798Y-84745
X106380Y-113068
X106380Y-84745
T0
M30
