G04 #@! TF.GenerationSoftware,KiCad,Pcbnew,(5.0.0)*
G04 #@! TF.CreationDate,2018-09-08T13:32:02-05:00*
G04 #@! TF.ProjectId,mini-attinyuino,6D696E692D617474696E7975696E6F2E,1.0*
G04 #@! TF.SameCoordinates,Original*
G04 #@! TF.FileFunction,Paste,Bot*
G04 #@! TF.FilePolarity,Positive*
%FSLAX46Y46*%
G04 Gerber Fmt 4.6, Leading zero omitted, Abs format (unit mm)*
G04 Created by KiCad (PCBNEW (5.0.0)) date 09/08/18 13:32:02*
%MOMM*%
%LPD*%
G01*
G04 APERTURE LIST*
%ADD10C,0.127000*%
%ADD11C,1.270000*%
%ADD12C,0.895000*%
%ADD13C,0.770000*%
%ADD14R,1.420000X0.920000*%
%ADD15R,1.720000X0.920000*%
%ADD16R,1.760000X2.120000*%
%ADD17C,0.920000*%
G04 APERTURE END LIST*
D10*
G04 #@! TO.C,C1*
G36*
X137718868Y-96522132D02*
X137741698Y-96525519D01*
X137764086Y-96531127D01*
X137785817Y-96538902D01*
X137806681Y-96548770D01*
X137826477Y-96560636D01*
X137845015Y-96574384D01*
X137862116Y-96589884D01*
X137877616Y-96606985D01*
X137891364Y-96625523D01*
X137903230Y-96645319D01*
X137913098Y-96666183D01*
X137920873Y-96687914D01*
X137926481Y-96710302D01*
X137929868Y-96733132D01*
X137931000Y-96756184D01*
X137931000Y-97555816D01*
X137929868Y-97578868D01*
X137926481Y-97601698D01*
X137920873Y-97624086D01*
X137913098Y-97645817D01*
X137903230Y-97666681D01*
X137891364Y-97686477D01*
X137877616Y-97705015D01*
X137862116Y-97722116D01*
X137845015Y-97737616D01*
X137826477Y-97751364D01*
X137806681Y-97763230D01*
X137785817Y-97773098D01*
X137764086Y-97780873D01*
X137741698Y-97786481D01*
X137718868Y-97789868D01*
X137695816Y-97791000D01*
X136846184Y-97791000D01*
X136823132Y-97789868D01*
X136800302Y-97786481D01*
X136777914Y-97780873D01*
X136756183Y-97773098D01*
X136735319Y-97763230D01*
X136715523Y-97751364D01*
X136696985Y-97737616D01*
X136679884Y-97722116D01*
X136664384Y-97705015D01*
X136650636Y-97686477D01*
X136638770Y-97666681D01*
X136628902Y-97645817D01*
X136621127Y-97624086D01*
X136615519Y-97601698D01*
X136612132Y-97578868D01*
X136611000Y-97555816D01*
X136611000Y-96756184D01*
X136612132Y-96733132D01*
X136615519Y-96710302D01*
X136621127Y-96687914D01*
X136628902Y-96666183D01*
X136638770Y-96645319D01*
X136650636Y-96625523D01*
X136664384Y-96606985D01*
X136679884Y-96589884D01*
X136696985Y-96574384D01*
X136715523Y-96560636D01*
X136735319Y-96548770D01*
X136756183Y-96538902D01*
X136777914Y-96531127D01*
X136800302Y-96525519D01*
X136823132Y-96522132D01*
X136846184Y-96521000D01*
X137695816Y-96521000D01*
X137718868Y-96522132D01*
X137718868Y-96522132D01*
G37*
D11*
X137271000Y-97156000D03*
D10*
G36*
X135018868Y-96522132D02*
X135041698Y-96525519D01*
X135064086Y-96531127D01*
X135085817Y-96538902D01*
X135106681Y-96548770D01*
X135126477Y-96560636D01*
X135145015Y-96574384D01*
X135162116Y-96589884D01*
X135177616Y-96606985D01*
X135191364Y-96625523D01*
X135203230Y-96645319D01*
X135213098Y-96666183D01*
X135220873Y-96687914D01*
X135226481Y-96710302D01*
X135229868Y-96733132D01*
X135231000Y-96756184D01*
X135231000Y-97555816D01*
X135229868Y-97578868D01*
X135226481Y-97601698D01*
X135220873Y-97624086D01*
X135213098Y-97645817D01*
X135203230Y-97666681D01*
X135191364Y-97686477D01*
X135177616Y-97705015D01*
X135162116Y-97722116D01*
X135145015Y-97737616D01*
X135126477Y-97751364D01*
X135106681Y-97763230D01*
X135085817Y-97773098D01*
X135064086Y-97780873D01*
X135041698Y-97786481D01*
X135018868Y-97789868D01*
X134995816Y-97791000D01*
X134146184Y-97791000D01*
X134123132Y-97789868D01*
X134100302Y-97786481D01*
X134077914Y-97780873D01*
X134056183Y-97773098D01*
X134035319Y-97763230D01*
X134015523Y-97751364D01*
X133996985Y-97737616D01*
X133979884Y-97722116D01*
X133964384Y-97705015D01*
X133950636Y-97686477D01*
X133938770Y-97666681D01*
X133928902Y-97645817D01*
X133921127Y-97624086D01*
X133915519Y-97601698D01*
X133912132Y-97578868D01*
X133911000Y-97555816D01*
X133911000Y-96756184D01*
X133912132Y-96733132D01*
X133915519Y-96710302D01*
X133921127Y-96687914D01*
X133928902Y-96666183D01*
X133938770Y-96645319D01*
X133950636Y-96625523D01*
X133964384Y-96606985D01*
X133979884Y-96589884D01*
X133996985Y-96574384D01*
X134015523Y-96560636D01*
X134035319Y-96548770D01*
X134056183Y-96538902D01*
X134077914Y-96531127D01*
X134100302Y-96525519D01*
X134123132Y-96522132D01*
X134146184Y-96521000D01*
X134995816Y-96521000D01*
X135018868Y-96522132D01*
X135018868Y-96522132D01*
G37*
D11*
X134571000Y-97156000D03*
G04 #@! TD*
D10*
G04 #@! TO.C,C2*
G36*
X137126181Y-89132577D02*
X137147901Y-89135799D01*
X137169201Y-89141135D01*
X137189875Y-89148532D01*
X137209725Y-89157920D01*
X137228559Y-89169209D01*
X137246195Y-89182289D01*
X137262465Y-89197035D01*
X137277211Y-89213305D01*
X137290291Y-89230941D01*
X137301580Y-89249775D01*
X137310968Y-89269625D01*
X137318365Y-89290299D01*
X137323701Y-89311599D01*
X137326923Y-89333319D01*
X137328000Y-89355250D01*
X137328000Y-90227750D01*
X137326923Y-90249681D01*
X137323701Y-90271401D01*
X137318365Y-90292701D01*
X137310968Y-90313375D01*
X137301580Y-90333225D01*
X137290291Y-90352059D01*
X137277211Y-90369695D01*
X137262465Y-90385965D01*
X137246195Y-90400711D01*
X137228559Y-90413791D01*
X137209725Y-90425080D01*
X137189875Y-90434468D01*
X137169201Y-90441865D01*
X137147901Y-90447201D01*
X137126181Y-90450423D01*
X137104250Y-90451500D01*
X136656750Y-90451500D01*
X136634819Y-90450423D01*
X136613099Y-90447201D01*
X136591799Y-90441865D01*
X136571125Y-90434468D01*
X136551275Y-90425080D01*
X136532441Y-90413791D01*
X136514805Y-90400711D01*
X136498535Y-90385965D01*
X136483789Y-90369695D01*
X136470709Y-90352059D01*
X136459420Y-90333225D01*
X136450032Y-90313375D01*
X136442635Y-90292701D01*
X136437299Y-90271401D01*
X136434077Y-90249681D01*
X136433000Y-90227750D01*
X136433000Y-89355250D01*
X136434077Y-89333319D01*
X136437299Y-89311599D01*
X136442635Y-89290299D01*
X136450032Y-89269625D01*
X136459420Y-89249775D01*
X136470709Y-89230941D01*
X136483789Y-89213305D01*
X136498535Y-89197035D01*
X136514805Y-89182289D01*
X136532441Y-89169209D01*
X136551275Y-89157920D01*
X136571125Y-89148532D01*
X136591799Y-89141135D01*
X136613099Y-89135799D01*
X136634819Y-89132577D01*
X136656750Y-89131500D01*
X137104250Y-89131500D01*
X137126181Y-89132577D01*
X137126181Y-89132577D01*
G37*
D12*
X136880500Y-89791500D03*
D10*
G36*
X135251181Y-89132577D02*
X135272901Y-89135799D01*
X135294201Y-89141135D01*
X135314875Y-89148532D01*
X135334725Y-89157920D01*
X135353559Y-89169209D01*
X135371195Y-89182289D01*
X135387465Y-89197035D01*
X135402211Y-89213305D01*
X135415291Y-89230941D01*
X135426580Y-89249775D01*
X135435968Y-89269625D01*
X135443365Y-89290299D01*
X135448701Y-89311599D01*
X135451923Y-89333319D01*
X135453000Y-89355250D01*
X135453000Y-90227750D01*
X135451923Y-90249681D01*
X135448701Y-90271401D01*
X135443365Y-90292701D01*
X135435968Y-90313375D01*
X135426580Y-90333225D01*
X135415291Y-90352059D01*
X135402211Y-90369695D01*
X135387465Y-90385965D01*
X135371195Y-90400711D01*
X135353559Y-90413791D01*
X135334725Y-90425080D01*
X135314875Y-90434468D01*
X135294201Y-90441865D01*
X135272901Y-90447201D01*
X135251181Y-90450423D01*
X135229250Y-90451500D01*
X134781750Y-90451500D01*
X134759819Y-90450423D01*
X134738099Y-90447201D01*
X134716799Y-90441865D01*
X134696125Y-90434468D01*
X134676275Y-90425080D01*
X134657441Y-90413791D01*
X134639805Y-90400711D01*
X134623535Y-90385965D01*
X134608789Y-90369695D01*
X134595709Y-90352059D01*
X134584420Y-90333225D01*
X134575032Y-90313375D01*
X134567635Y-90292701D01*
X134562299Y-90271401D01*
X134559077Y-90249681D01*
X134558000Y-90227750D01*
X134558000Y-89355250D01*
X134559077Y-89333319D01*
X134562299Y-89311599D01*
X134567635Y-89290299D01*
X134575032Y-89269625D01*
X134584420Y-89249775D01*
X134595709Y-89230941D01*
X134608789Y-89213305D01*
X134623535Y-89197035D01*
X134639805Y-89182289D01*
X134657441Y-89169209D01*
X134676275Y-89157920D01*
X134696125Y-89148532D01*
X134716799Y-89141135D01*
X134738099Y-89135799D01*
X134759819Y-89132577D01*
X134781750Y-89131500D01*
X135229250Y-89131500D01*
X135251181Y-89132577D01*
X135251181Y-89132577D01*
G37*
D12*
X135005500Y-89791500D03*
G04 #@! TD*
D10*
G04 #@! TO.C,R1*
G36*
X126161181Y-95558677D02*
X126182901Y-95561899D01*
X126204201Y-95567235D01*
X126224875Y-95574632D01*
X126244725Y-95584020D01*
X126263559Y-95595309D01*
X126281195Y-95608389D01*
X126297465Y-95623135D01*
X126312211Y-95639405D01*
X126325291Y-95657041D01*
X126336580Y-95675875D01*
X126345968Y-95695725D01*
X126353365Y-95716399D01*
X126358701Y-95737699D01*
X126361923Y-95759419D01*
X126363000Y-95781350D01*
X126363000Y-96653850D01*
X126361923Y-96675781D01*
X126358701Y-96697501D01*
X126353365Y-96718801D01*
X126345968Y-96739475D01*
X126336580Y-96759325D01*
X126325291Y-96778159D01*
X126312211Y-96795795D01*
X126297465Y-96812065D01*
X126281195Y-96826811D01*
X126263559Y-96839891D01*
X126244725Y-96851180D01*
X126224875Y-96860568D01*
X126204201Y-96867965D01*
X126182901Y-96873301D01*
X126161181Y-96876523D01*
X126139250Y-96877600D01*
X125691750Y-96877600D01*
X125669819Y-96876523D01*
X125648099Y-96873301D01*
X125626799Y-96867965D01*
X125606125Y-96860568D01*
X125586275Y-96851180D01*
X125567441Y-96839891D01*
X125549805Y-96826811D01*
X125533535Y-96812065D01*
X125518789Y-96795795D01*
X125505709Y-96778159D01*
X125494420Y-96759325D01*
X125485032Y-96739475D01*
X125477635Y-96718801D01*
X125472299Y-96697501D01*
X125469077Y-96675781D01*
X125468000Y-96653850D01*
X125468000Y-95781350D01*
X125469077Y-95759419D01*
X125472299Y-95737699D01*
X125477635Y-95716399D01*
X125485032Y-95695725D01*
X125494420Y-95675875D01*
X125505709Y-95657041D01*
X125518789Y-95639405D01*
X125533535Y-95623135D01*
X125549805Y-95608389D01*
X125567441Y-95595309D01*
X125586275Y-95584020D01*
X125606125Y-95574632D01*
X125626799Y-95567235D01*
X125648099Y-95561899D01*
X125669819Y-95558677D01*
X125691750Y-95557600D01*
X126139250Y-95557600D01*
X126161181Y-95558677D01*
X126161181Y-95558677D01*
G37*
D12*
X125915500Y-96217600D03*
D10*
G36*
X124286181Y-95558677D02*
X124307901Y-95561899D01*
X124329201Y-95567235D01*
X124349875Y-95574632D01*
X124369725Y-95584020D01*
X124388559Y-95595309D01*
X124406195Y-95608389D01*
X124422465Y-95623135D01*
X124437211Y-95639405D01*
X124450291Y-95657041D01*
X124461580Y-95675875D01*
X124470968Y-95695725D01*
X124478365Y-95716399D01*
X124483701Y-95737699D01*
X124486923Y-95759419D01*
X124488000Y-95781350D01*
X124488000Y-96653850D01*
X124486923Y-96675781D01*
X124483701Y-96697501D01*
X124478365Y-96718801D01*
X124470968Y-96739475D01*
X124461580Y-96759325D01*
X124450291Y-96778159D01*
X124437211Y-96795795D01*
X124422465Y-96812065D01*
X124406195Y-96826811D01*
X124388559Y-96839891D01*
X124369725Y-96851180D01*
X124349875Y-96860568D01*
X124329201Y-96867965D01*
X124307901Y-96873301D01*
X124286181Y-96876523D01*
X124264250Y-96877600D01*
X123816750Y-96877600D01*
X123794819Y-96876523D01*
X123773099Y-96873301D01*
X123751799Y-96867965D01*
X123731125Y-96860568D01*
X123711275Y-96851180D01*
X123692441Y-96839891D01*
X123674805Y-96826811D01*
X123658535Y-96812065D01*
X123643789Y-96795795D01*
X123630709Y-96778159D01*
X123619420Y-96759325D01*
X123610032Y-96739475D01*
X123602635Y-96718801D01*
X123597299Y-96697501D01*
X123594077Y-96675781D01*
X123593000Y-96653850D01*
X123593000Y-95781350D01*
X123594077Y-95759419D01*
X123597299Y-95737699D01*
X123602635Y-95716399D01*
X123610032Y-95695725D01*
X123619420Y-95675875D01*
X123630709Y-95657041D01*
X123643789Y-95639405D01*
X123658535Y-95623135D01*
X123674805Y-95608389D01*
X123692441Y-95595309D01*
X123711275Y-95584020D01*
X123731125Y-95574632D01*
X123751799Y-95567235D01*
X123773099Y-95561899D01*
X123794819Y-95558677D01*
X123816750Y-95557600D01*
X124264250Y-95557600D01*
X124286181Y-95558677D01*
X124286181Y-95558677D01*
G37*
D12*
X124040500Y-96217600D03*
G04 #@! TD*
D10*
G04 #@! TO.C,R2*
G36*
X124286181Y-90136177D02*
X124307901Y-90139399D01*
X124329201Y-90144735D01*
X124349875Y-90152132D01*
X124369725Y-90161520D01*
X124388559Y-90172809D01*
X124406195Y-90185889D01*
X124422465Y-90200635D01*
X124437211Y-90216905D01*
X124450291Y-90234541D01*
X124461580Y-90253375D01*
X124470968Y-90273225D01*
X124478365Y-90293899D01*
X124483701Y-90315199D01*
X124486923Y-90336919D01*
X124488000Y-90358850D01*
X124488000Y-91231350D01*
X124486923Y-91253281D01*
X124483701Y-91275001D01*
X124478365Y-91296301D01*
X124470968Y-91316975D01*
X124461580Y-91336825D01*
X124450291Y-91355659D01*
X124437211Y-91373295D01*
X124422465Y-91389565D01*
X124406195Y-91404311D01*
X124388559Y-91417391D01*
X124369725Y-91428680D01*
X124349875Y-91438068D01*
X124329201Y-91445465D01*
X124307901Y-91450801D01*
X124286181Y-91454023D01*
X124264250Y-91455100D01*
X123816750Y-91455100D01*
X123794819Y-91454023D01*
X123773099Y-91450801D01*
X123751799Y-91445465D01*
X123731125Y-91438068D01*
X123711275Y-91428680D01*
X123692441Y-91417391D01*
X123674805Y-91404311D01*
X123658535Y-91389565D01*
X123643789Y-91373295D01*
X123630709Y-91355659D01*
X123619420Y-91336825D01*
X123610032Y-91316975D01*
X123602635Y-91296301D01*
X123597299Y-91275001D01*
X123594077Y-91253281D01*
X123593000Y-91231350D01*
X123593000Y-90358850D01*
X123594077Y-90336919D01*
X123597299Y-90315199D01*
X123602635Y-90293899D01*
X123610032Y-90273225D01*
X123619420Y-90253375D01*
X123630709Y-90234541D01*
X123643789Y-90216905D01*
X123658535Y-90200635D01*
X123674805Y-90185889D01*
X123692441Y-90172809D01*
X123711275Y-90161520D01*
X123731125Y-90152132D01*
X123751799Y-90144735D01*
X123773099Y-90139399D01*
X123794819Y-90136177D01*
X123816750Y-90135100D01*
X124264250Y-90135100D01*
X124286181Y-90136177D01*
X124286181Y-90136177D01*
G37*
D12*
X124040500Y-90795100D03*
D10*
G36*
X126161181Y-90136177D02*
X126182901Y-90139399D01*
X126204201Y-90144735D01*
X126224875Y-90152132D01*
X126244725Y-90161520D01*
X126263559Y-90172809D01*
X126281195Y-90185889D01*
X126297465Y-90200635D01*
X126312211Y-90216905D01*
X126325291Y-90234541D01*
X126336580Y-90253375D01*
X126345968Y-90273225D01*
X126353365Y-90293899D01*
X126358701Y-90315199D01*
X126361923Y-90336919D01*
X126363000Y-90358850D01*
X126363000Y-91231350D01*
X126361923Y-91253281D01*
X126358701Y-91275001D01*
X126353365Y-91296301D01*
X126345968Y-91316975D01*
X126336580Y-91336825D01*
X126325291Y-91355659D01*
X126312211Y-91373295D01*
X126297465Y-91389565D01*
X126281195Y-91404311D01*
X126263559Y-91417391D01*
X126244725Y-91428680D01*
X126224875Y-91438068D01*
X126204201Y-91445465D01*
X126182901Y-91450801D01*
X126161181Y-91454023D01*
X126139250Y-91455100D01*
X125691750Y-91455100D01*
X125669819Y-91454023D01*
X125648099Y-91450801D01*
X125626799Y-91445465D01*
X125606125Y-91438068D01*
X125586275Y-91428680D01*
X125567441Y-91417391D01*
X125549805Y-91404311D01*
X125533535Y-91389565D01*
X125518789Y-91373295D01*
X125505709Y-91355659D01*
X125494420Y-91336825D01*
X125485032Y-91316975D01*
X125477635Y-91296301D01*
X125472299Y-91275001D01*
X125469077Y-91253281D01*
X125468000Y-91231350D01*
X125468000Y-90358850D01*
X125469077Y-90336919D01*
X125472299Y-90315199D01*
X125477635Y-90293899D01*
X125485032Y-90273225D01*
X125494420Y-90253375D01*
X125505709Y-90234541D01*
X125518789Y-90216905D01*
X125533535Y-90200635D01*
X125549805Y-90185889D01*
X125567441Y-90172809D01*
X125586275Y-90161520D01*
X125606125Y-90152132D01*
X125626799Y-90144735D01*
X125648099Y-90139399D01*
X125669819Y-90136177D01*
X125691750Y-90135100D01*
X126139250Y-90135100D01*
X126161181Y-90136177D01*
X126161181Y-90136177D01*
G37*
D12*
X125915500Y-90795100D03*
G04 #@! TD*
D10*
G04 #@! TO.C,R3*
G36*
X124286181Y-92847377D02*
X124307901Y-92850599D01*
X124329201Y-92855935D01*
X124349875Y-92863332D01*
X124369725Y-92872720D01*
X124388559Y-92884009D01*
X124406195Y-92897089D01*
X124422465Y-92911835D01*
X124437211Y-92928105D01*
X124450291Y-92945741D01*
X124461580Y-92964575D01*
X124470968Y-92984425D01*
X124478365Y-93005099D01*
X124483701Y-93026399D01*
X124486923Y-93048119D01*
X124488000Y-93070050D01*
X124488000Y-93942550D01*
X124486923Y-93964481D01*
X124483701Y-93986201D01*
X124478365Y-94007501D01*
X124470968Y-94028175D01*
X124461580Y-94048025D01*
X124450291Y-94066859D01*
X124437211Y-94084495D01*
X124422465Y-94100765D01*
X124406195Y-94115511D01*
X124388559Y-94128591D01*
X124369725Y-94139880D01*
X124349875Y-94149268D01*
X124329201Y-94156665D01*
X124307901Y-94162001D01*
X124286181Y-94165223D01*
X124264250Y-94166300D01*
X123816750Y-94166300D01*
X123794819Y-94165223D01*
X123773099Y-94162001D01*
X123751799Y-94156665D01*
X123731125Y-94149268D01*
X123711275Y-94139880D01*
X123692441Y-94128591D01*
X123674805Y-94115511D01*
X123658535Y-94100765D01*
X123643789Y-94084495D01*
X123630709Y-94066859D01*
X123619420Y-94048025D01*
X123610032Y-94028175D01*
X123602635Y-94007501D01*
X123597299Y-93986201D01*
X123594077Y-93964481D01*
X123593000Y-93942550D01*
X123593000Y-93070050D01*
X123594077Y-93048119D01*
X123597299Y-93026399D01*
X123602635Y-93005099D01*
X123610032Y-92984425D01*
X123619420Y-92964575D01*
X123630709Y-92945741D01*
X123643789Y-92928105D01*
X123658535Y-92911835D01*
X123674805Y-92897089D01*
X123692441Y-92884009D01*
X123711275Y-92872720D01*
X123731125Y-92863332D01*
X123751799Y-92855935D01*
X123773099Y-92850599D01*
X123794819Y-92847377D01*
X123816750Y-92846300D01*
X124264250Y-92846300D01*
X124286181Y-92847377D01*
X124286181Y-92847377D01*
G37*
D12*
X124040500Y-93506300D03*
D10*
G36*
X126161181Y-92847377D02*
X126182901Y-92850599D01*
X126204201Y-92855935D01*
X126224875Y-92863332D01*
X126244725Y-92872720D01*
X126263559Y-92884009D01*
X126281195Y-92897089D01*
X126297465Y-92911835D01*
X126312211Y-92928105D01*
X126325291Y-92945741D01*
X126336580Y-92964575D01*
X126345968Y-92984425D01*
X126353365Y-93005099D01*
X126358701Y-93026399D01*
X126361923Y-93048119D01*
X126363000Y-93070050D01*
X126363000Y-93942550D01*
X126361923Y-93964481D01*
X126358701Y-93986201D01*
X126353365Y-94007501D01*
X126345968Y-94028175D01*
X126336580Y-94048025D01*
X126325291Y-94066859D01*
X126312211Y-94084495D01*
X126297465Y-94100765D01*
X126281195Y-94115511D01*
X126263559Y-94128591D01*
X126244725Y-94139880D01*
X126224875Y-94149268D01*
X126204201Y-94156665D01*
X126182901Y-94162001D01*
X126161181Y-94165223D01*
X126139250Y-94166300D01*
X125691750Y-94166300D01*
X125669819Y-94165223D01*
X125648099Y-94162001D01*
X125626799Y-94156665D01*
X125606125Y-94149268D01*
X125586275Y-94139880D01*
X125567441Y-94128591D01*
X125549805Y-94115511D01*
X125533535Y-94100765D01*
X125518789Y-94084495D01*
X125505709Y-94066859D01*
X125494420Y-94048025D01*
X125485032Y-94028175D01*
X125477635Y-94007501D01*
X125472299Y-93986201D01*
X125469077Y-93964481D01*
X125468000Y-93942550D01*
X125468000Y-93070050D01*
X125469077Y-93048119D01*
X125472299Y-93026399D01*
X125477635Y-93005099D01*
X125485032Y-92984425D01*
X125494420Y-92964575D01*
X125505709Y-92945741D01*
X125518789Y-92928105D01*
X125533535Y-92911835D01*
X125549805Y-92897089D01*
X125567441Y-92884009D01*
X125586275Y-92872720D01*
X125606125Y-92863332D01*
X125626799Y-92855935D01*
X125648099Y-92850599D01*
X125669819Y-92847377D01*
X125691750Y-92846300D01*
X126139250Y-92846300D01*
X126161181Y-92847377D01*
X126161181Y-92847377D01*
G37*
D12*
X125915500Y-93506300D03*
G04 #@! TD*
D10*
G04 #@! TO.C,R4*
G36*
X130112181Y-90071477D02*
X130133901Y-90074699D01*
X130155201Y-90080035D01*
X130175875Y-90087432D01*
X130195725Y-90096820D01*
X130214559Y-90108109D01*
X130232195Y-90121189D01*
X130248465Y-90135935D01*
X130263211Y-90152205D01*
X130276291Y-90169841D01*
X130287580Y-90188675D01*
X130296968Y-90208525D01*
X130304365Y-90229199D01*
X130309701Y-90250499D01*
X130312923Y-90272219D01*
X130314000Y-90294150D01*
X130314000Y-90741650D01*
X130312923Y-90763581D01*
X130309701Y-90785301D01*
X130304365Y-90806601D01*
X130296968Y-90827275D01*
X130287580Y-90847125D01*
X130276291Y-90865959D01*
X130263211Y-90883595D01*
X130248465Y-90899865D01*
X130232195Y-90914611D01*
X130214559Y-90927691D01*
X130195725Y-90938980D01*
X130175875Y-90948368D01*
X130155201Y-90955765D01*
X130133901Y-90961101D01*
X130112181Y-90964323D01*
X130090250Y-90965400D01*
X129217750Y-90965400D01*
X129195819Y-90964323D01*
X129174099Y-90961101D01*
X129152799Y-90955765D01*
X129132125Y-90948368D01*
X129112275Y-90938980D01*
X129093441Y-90927691D01*
X129075805Y-90914611D01*
X129059535Y-90899865D01*
X129044789Y-90883595D01*
X129031709Y-90865959D01*
X129020420Y-90847125D01*
X129011032Y-90827275D01*
X129003635Y-90806601D01*
X128998299Y-90785301D01*
X128995077Y-90763581D01*
X128994000Y-90741650D01*
X128994000Y-90294150D01*
X128995077Y-90272219D01*
X128998299Y-90250499D01*
X129003635Y-90229199D01*
X129011032Y-90208525D01*
X129020420Y-90188675D01*
X129031709Y-90169841D01*
X129044789Y-90152205D01*
X129059535Y-90135935D01*
X129075805Y-90121189D01*
X129093441Y-90108109D01*
X129112275Y-90096820D01*
X129132125Y-90087432D01*
X129152799Y-90080035D01*
X129174099Y-90074699D01*
X129195819Y-90071477D01*
X129217750Y-90070400D01*
X130090250Y-90070400D01*
X130112181Y-90071477D01*
X130112181Y-90071477D01*
G37*
D12*
X129654000Y-90517900D03*
D10*
G36*
X130112181Y-91946477D02*
X130133901Y-91949699D01*
X130155201Y-91955035D01*
X130175875Y-91962432D01*
X130195725Y-91971820D01*
X130214559Y-91983109D01*
X130232195Y-91996189D01*
X130248465Y-92010935D01*
X130263211Y-92027205D01*
X130276291Y-92044841D01*
X130287580Y-92063675D01*
X130296968Y-92083525D01*
X130304365Y-92104199D01*
X130309701Y-92125499D01*
X130312923Y-92147219D01*
X130314000Y-92169150D01*
X130314000Y-92616650D01*
X130312923Y-92638581D01*
X130309701Y-92660301D01*
X130304365Y-92681601D01*
X130296968Y-92702275D01*
X130287580Y-92722125D01*
X130276291Y-92740959D01*
X130263211Y-92758595D01*
X130248465Y-92774865D01*
X130232195Y-92789611D01*
X130214559Y-92802691D01*
X130195725Y-92813980D01*
X130175875Y-92823368D01*
X130155201Y-92830765D01*
X130133901Y-92836101D01*
X130112181Y-92839323D01*
X130090250Y-92840400D01*
X129217750Y-92840400D01*
X129195819Y-92839323D01*
X129174099Y-92836101D01*
X129152799Y-92830765D01*
X129132125Y-92823368D01*
X129112275Y-92813980D01*
X129093441Y-92802691D01*
X129075805Y-92789611D01*
X129059535Y-92774865D01*
X129044789Y-92758595D01*
X129031709Y-92740959D01*
X129020420Y-92722125D01*
X129011032Y-92702275D01*
X129003635Y-92681601D01*
X128998299Y-92660301D01*
X128995077Y-92638581D01*
X128994000Y-92616650D01*
X128994000Y-92169150D01*
X128995077Y-92147219D01*
X128998299Y-92125499D01*
X129003635Y-92104199D01*
X129011032Y-92083525D01*
X129020420Y-92063675D01*
X129031709Y-92044841D01*
X129044789Y-92027205D01*
X129059535Y-92010935D01*
X129075805Y-91996189D01*
X129093441Y-91983109D01*
X129112275Y-91971820D01*
X129132125Y-91962432D01*
X129152799Y-91955035D01*
X129174099Y-91949699D01*
X129195819Y-91946477D01*
X129217750Y-91945400D01*
X130090250Y-91945400D01*
X130112181Y-91946477D01*
X130112181Y-91946477D01*
G37*
D12*
X129654000Y-92392900D03*
G04 #@! TD*
D10*
G04 #@! TO.C,R5*
G36*
X130112181Y-94173177D02*
X130133901Y-94176399D01*
X130155201Y-94181735D01*
X130175875Y-94189132D01*
X130195725Y-94198520D01*
X130214559Y-94209809D01*
X130232195Y-94222889D01*
X130248465Y-94237635D01*
X130263211Y-94253905D01*
X130276291Y-94271541D01*
X130287580Y-94290375D01*
X130296968Y-94310225D01*
X130304365Y-94330899D01*
X130309701Y-94352199D01*
X130312923Y-94373919D01*
X130314000Y-94395850D01*
X130314000Y-94843350D01*
X130312923Y-94865281D01*
X130309701Y-94887001D01*
X130304365Y-94908301D01*
X130296968Y-94928975D01*
X130287580Y-94948825D01*
X130276291Y-94967659D01*
X130263211Y-94985295D01*
X130248465Y-95001565D01*
X130232195Y-95016311D01*
X130214559Y-95029391D01*
X130195725Y-95040680D01*
X130175875Y-95050068D01*
X130155201Y-95057465D01*
X130133901Y-95062801D01*
X130112181Y-95066023D01*
X130090250Y-95067100D01*
X129217750Y-95067100D01*
X129195819Y-95066023D01*
X129174099Y-95062801D01*
X129152799Y-95057465D01*
X129132125Y-95050068D01*
X129112275Y-95040680D01*
X129093441Y-95029391D01*
X129075805Y-95016311D01*
X129059535Y-95001565D01*
X129044789Y-94985295D01*
X129031709Y-94967659D01*
X129020420Y-94948825D01*
X129011032Y-94928975D01*
X129003635Y-94908301D01*
X128998299Y-94887001D01*
X128995077Y-94865281D01*
X128994000Y-94843350D01*
X128994000Y-94395850D01*
X128995077Y-94373919D01*
X128998299Y-94352199D01*
X129003635Y-94330899D01*
X129011032Y-94310225D01*
X129020420Y-94290375D01*
X129031709Y-94271541D01*
X129044789Y-94253905D01*
X129059535Y-94237635D01*
X129075805Y-94222889D01*
X129093441Y-94209809D01*
X129112275Y-94198520D01*
X129132125Y-94189132D01*
X129152799Y-94181735D01*
X129174099Y-94176399D01*
X129195819Y-94173177D01*
X129217750Y-94172100D01*
X130090250Y-94172100D01*
X130112181Y-94173177D01*
X130112181Y-94173177D01*
G37*
D12*
X129654000Y-94619600D03*
D10*
G36*
X130112181Y-96048177D02*
X130133901Y-96051399D01*
X130155201Y-96056735D01*
X130175875Y-96064132D01*
X130195725Y-96073520D01*
X130214559Y-96084809D01*
X130232195Y-96097889D01*
X130248465Y-96112635D01*
X130263211Y-96128905D01*
X130276291Y-96146541D01*
X130287580Y-96165375D01*
X130296968Y-96185225D01*
X130304365Y-96205899D01*
X130309701Y-96227199D01*
X130312923Y-96248919D01*
X130314000Y-96270850D01*
X130314000Y-96718350D01*
X130312923Y-96740281D01*
X130309701Y-96762001D01*
X130304365Y-96783301D01*
X130296968Y-96803975D01*
X130287580Y-96823825D01*
X130276291Y-96842659D01*
X130263211Y-96860295D01*
X130248465Y-96876565D01*
X130232195Y-96891311D01*
X130214559Y-96904391D01*
X130195725Y-96915680D01*
X130175875Y-96925068D01*
X130155201Y-96932465D01*
X130133901Y-96937801D01*
X130112181Y-96941023D01*
X130090250Y-96942100D01*
X129217750Y-96942100D01*
X129195819Y-96941023D01*
X129174099Y-96937801D01*
X129152799Y-96932465D01*
X129132125Y-96925068D01*
X129112275Y-96915680D01*
X129093441Y-96904391D01*
X129075805Y-96891311D01*
X129059535Y-96876565D01*
X129044789Y-96860295D01*
X129031709Y-96842659D01*
X129020420Y-96823825D01*
X129011032Y-96803975D01*
X129003635Y-96783301D01*
X128998299Y-96762001D01*
X128995077Y-96740281D01*
X128994000Y-96718350D01*
X128994000Y-96270850D01*
X128995077Y-96248919D01*
X128998299Y-96227199D01*
X129003635Y-96205899D01*
X129011032Y-96185225D01*
X129020420Y-96165375D01*
X129031709Y-96146541D01*
X129044789Y-96128905D01*
X129059535Y-96112635D01*
X129075805Y-96097889D01*
X129093441Y-96084809D01*
X129112275Y-96073520D01*
X129132125Y-96064132D01*
X129152799Y-96056735D01*
X129174099Y-96051399D01*
X129195819Y-96048177D01*
X129217750Y-96047100D01*
X130090250Y-96047100D01*
X130112181Y-96048177D01*
X130112181Y-96048177D01*
G37*
D12*
X129654000Y-96494600D03*
G04 #@! TD*
D13*
G04 #@! TO.C,U1*
X133651000Y-93423800D03*
D10*
G36*
X133266000Y-92944527D02*
X134036000Y-92400997D01*
X134036000Y-94446603D01*
X133266000Y-93903073D01*
X133266000Y-92944527D01*
X133266000Y-92944527D01*
G37*
D14*
X137798000Y-91923800D03*
D15*
X137651500Y-93423800D03*
D14*
X137798000Y-94923800D03*
D16*
X134984500Y-93423800D03*
D17*
X136394200Y-93423800D03*
D10*
G36*
X136854200Y-93802974D02*
X135934200Y-94446974D01*
X135934200Y-92400626D01*
X136854200Y-93044626D01*
X136854200Y-93802974D01*
X136854200Y-93802974D01*
G37*
G04 #@! TD*
M02*
