G04 #@! TF.GenerationSoftware,KiCad,Pcbnew,(5.0.0)*
G04 #@! TF.CreationDate,2018-09-08T13:32:02-05:00*
G04 #@! TF.ProjectId,mini-attinyuino,6D696E692D617474696E7975696E6F2E,1.0*
G04 #@! TF.SameCoordinates,Original*
G04 #@! TF.FileFunction,Paste,Top*
G04 #@! TF.FilePolarity,Positive*
%FSLAX46Y46*%
G04 Gerber Fmt 4.6, Leading zero omitted, Abs format (unit mm)*
G04 Created by KiCad (PCBNEW (5.0.0)) date 09/08/18 13:32:02*
%MOMM*%
%LPD*%
G01*
G04 APERTURE LIST*
%ADD10R,0.570000X0.970000*%
%ADD11R,1.220000X1.620000*%
%ADD12R,0.420000X0.420000*%
%ADD13C,0.127000*%
%ADD14C,0.895000*%
%ADD15R,1.820000X1.720000*%
%ADD16R,1.820000X1.820000*%
%ADD17R,1.270000X0.320000*%
%ADD18R,1.620000X0.570000*%
G04 APERTURE END LIST*
D10*
G04 #@! TO.C,SW1*
X138815000Y-95563500D03*
X138815000Y-91413500D03*
X140965000Y-95563500D03*
X140965000Y-91413500D03*
G04 #@! TD*
D11*
G04 #@! TO.C,D4*
X123419000Y-93526500D03*
X126919000Y-93526500D03*
G04 #@! TD*
D12*
G04 #@! TO.C,D2*
X126269000Y-91008200D03*
X124069000Y-91008200D03*
G04 #@! TD*
D13*
G04 #@! TO.C,D3*
G36*
X119310181Y-86569777D02*
X119331901Y-86572999D01*
X119353201Y-86578335D01*
X119373875Y-86585732D01*
X119393725Y-86595120D01*
X119412559Y-86606409D01*
X119430195Y-86619489D01*
X119446465Y-86634235D01*
X119461211Y-86650505D01*
X119474291Y-86668141D01*
X119485580Y-86686975D01*
X119494968Y-86706825D01*
X119502365Y-86727499D01*
X119507701Y-86748799D01*
X119510923Y-86770519D01*
X119512000Y-86792450D01*
X119512000Y-87664950D01*
X119510923Y-87686881D01*
X119507701Y-87708601D01*
X119502365Y-87729901D01*
X119494968Y-87750575D01*
X119485580Y-87770425D01*
X119474291Y-87789259D01*
X119461211Y-87806895D01*
X119446465Y-87823165D01*
X119430195Y-87837911D01*
X119412559Y-87850991D01*
X119393725Y-87862280D01*
X119373875Y-87871668D01*
X119353201Y-87879065D01*
X119331901Y-87884401D01*
X119310181Y-87887623D01*
X119288250Y-87888700D01*
X118840750Y-87888700D01*
X118818819Y-87887623D01*
X118797099Y-87884401D01*
X118775799Y-87879065D01*
X118755125Y-87871668D01*
X118735275Y-87862280D01*
X118716441Y-87850991D01*
X118698805Y-87837911D01*
X118682535Y-87823165D01*
X118667789Y-87806895D01*
X118654709Y-87789259D01*
X118643420Y-87770425D01*
X118634032Y-87750575D01*
X118626635Y-87729901D01*
X118621299Y-87708601D01*
X118618077Y-87686881D01*
X118617000Y-87664950D01*
X118617000Y-86792450D01*
X118618077Y-86770519D01*
X118621299Y-86748799D01*
X118626635Y-86727499D01*
X118634032Y-86706825D01*
X118643420Y-86686975D01*
X118654709Y-86668141D01*
X118667789Y-86650505D01*
X118682535Y-86634235D01*
X118698805Y-86619489D01*
X118716441Y-86606409D01*
X118735275Y-86595120D01*
X118755125Y-86585732D01*
X118775799Y-86578335D01*
X118797099Y-86572999D01*
X118818819Y-86569777D01*
X118840750Y-86568700D01*
X119288250Y-86568700D01*
X119310181Y-86569777D01*
X119310181Y-86569777D01*
G37*
D14*
X119064500Y-87228700D03*
D13*
G36*
X121185181Y-86569777D02*
X121206901Y-86572999D01*
X121228201Y-86578335D01*
X121248875Y-86585732D01*
X121268725Y-86595120D01*
X121287559Y-86606409D01*
X121305195Y-86619489D01*
X121321465Y-86634235D01*
X121336211Y-86650505D01*
X121349291Y-86668141D01*
X121360580Y-86686975D01*
X121369968Y-86706825D01*
X121377365Y-86727499D01*
X121382701Y-86748799D01*
X121385923Y-86770519D01*
X121387000Y-86792450D01*
X121387000Y-87664950D01*
X121385923Y-87686881D01*
X121382701Y-87708601D01*
X121377365Y-87729901D01*
X121369968Y-87750575D01*
X121360580Y-87770425D01*
X121349291Y-87789259D01*
X121336211Y-87806895D01*
X121321465Y-87823165D01*
X121305195Y-87837911D01*
X121287559Y-87850991D01*
X121268725Y-87862280D01*
X121248875Y-87871668D01*
X121228201Y-87879065D01*
X121206901Y-87884401D01*
X121185181Y-87887623D01*
X121163250Y-87888700D01*
X120715750Y-87888700D01*
X120693819Y-87887623D01*
X120672099Y-87884401D01*
X120650799Y-87879065D01*
X120630125Y-87871668D01*
X120610275Y-87862280D01*
X120591441Y-87850991D01*
X120573805Y-87837911D01*
X120557535Y-87823165D01*
X120542789Y-87806895D01*
X120529709Y-87789259D01*
X120518420Y-87770425D01*
X120509032Y-87750575D01*
X120501635Y-87729901D01*
X120496299Y-87708601D01*
X120493077Y-87686881D01*
X120492000Y-87664950D01*
X120492000Y-86792450D01*
X120493077Y-86770519D01*
X120496299Y-86748799D01*
X120501635Y-86727499D01*
X120509032Y-86706825D01*
X120518420Y-86686975D01*
X120529709Y-86668141D01*
X120542789Y-86650505D01*
X120557535Y-86634235D01*
X120573805Y-86619489D01*
X120591441Y-86606409D01*
X120610275Y-86595120D01*
X120630125Y-86585732D01*
X120650799Y-86578335D01*
X120672099Y-86572999D01*
X120693819Y-86569777D01*
X120715750Y-86568700D01*
X121163250Y-86568700D01*
X121185181Y-86569777D01*
X121185181Y-86569777D01*
G37*
D14*
X120939500Y-87228700D03*
G04 #@! TD*
D15*
G04 #@! TO.C,J3*
X118219000Y-89527900D03*
X118219000Y-97527900D03*
D16*
X118219000Y-92327900D03*
X118219000Y-94727900D03*
D17*
X121094000Y-92227900D03*
X121094000Y-92877900D03*
X121094000Y-93527900D03*
X121094000Y-94177900D03*
X121094000Y-94827900D03*
G04 #@! TD*
D13*
G04 #@! TO.C,D1*
G36*
X119315181Y-99168177D02*
X119336901Y-99171399D01*
X119358201Y-99176735D01*
X119378875Y-99184132D01*
X119398725Y-99193520D01*
X119417559Y-99204809D01*
X119435195Y-99217889D01*
X119451465Y-99232635D01*
X119466211Y-99248905D01*
X119479291Y-99266541D01*
X119490580Y-99285375D01*
X119499968Y-99305225D01*
X119507365Y-99325899D01*
X119512701Y-99347199D01*
X119515923Y-99368919D01*
X119517000Y-99390850D01*
X119517000Y-100263350D01*
X119515923Y-100285281D01*
X119512701Y-100307001D01*
X119507365Y-100328301D01*
X119499968Y-100348975D01*
X119490580Y-100368825D01*
X119479291Y-100387659D01*
X119466211Y-100405295D01*
X119451465Y-100421565D01*
X119435195Y-100436311D01*
X119417559Y-100449391D01*
X119398725Y-100460680D01*
X119378875Y-100470068D01*
X119358201Y-100477465D01*
X119336901Y-100482801D01*
X119315181Y-100486023D01*
X119293250Y-100487100D01*
X118845750Y-100487100D01*
X118823819Y-100486023D01*
X118802099Y-100482801D01*
X118780799Y-100477465D01*
X118760125Y-100470068D01*
X118740275Y-100460680D01*
X118721441Y-100449391D01*
X118703805Y-100436311D01*
X118687535Y-100421565D01*
X118672789Y-100405295D01*
X118659709Y-100387659D01*
X118648420Y-100368825D01*
X118639032Y-100348975D01*
X118631635Y-100328301D01*
X118626299Y-100307001D01*
X118623077Y-100285281D01*
X118622000Y-100263350D01*
X118622000Y-99390850D01*
X118623077Y-99368919D01*
X118626299Y-99347199D01*
X118631635Y-99325899D01*
X118639032Y-99305225D01*
X118648420Y-99285375D01*
X118659709Y-99266541D01*
X118672789Y-99248905D01*
X118687535Y-99232635D01*
X118703805Y-99217889D01*
X118721441Y-99204809D01*
X118740275Y-99193520D01*
X118760125Y-99184132D01*
X118780799Y-99176735D01*
X118802099Y-99171399D01*
X118823819Y-99168177D01*
X118845750Y-99167100D01*
X119293250Y-99167100D01*
X119315181Y-99168177D01*
X119315181Y-99168177D01*
G37*
D14*
X119069500Y-99827100D03*
D13*
G36*
X121190181Y-99168177D02*
X121211901Y-99171399D01*
X121233201Y-99176735D01*
X121253875Y-99184132D01*
X121273725Y-99193520D01*
X121292559Y-99204809D01*
X121310195Y-99217889D01*
X121326465Y-99232635D01*
X121341211Y-99248905D01*
X121354291Y-99266541D01*
X121365580Y-99285375D01*
X121374968Y-99305225D01*
X121382365Y-99325899D01*
X121387701Y-99347199D01*
X121390923Y-99368919D01*
X121392000Y-99390850D01*
X121392000Y-100263350D01*
X121390923Y-100285281D01*
X121387701Y-100307001D01*
X121382365Y-100328301D01*
X121374968Y-100348975D01*
X121365580Y-100368825D01*
X121354291Y-100387659D01*
X121341211Y-100405295D01*
X121326465Y-100421565D01*
X121310195Y-100436311D01*
X121292559Y-100449391D01*
X121273725Y-100460680D01*
X121253875Y-100470068D01*
X121233201Y-100477465D01*
X121211901Y-100482801D01*
X121190181Y-100486023D01*
X121168250Y-100487100D01*
X120720750Y-100487100D01*
X120698819Y-100486023D01*
X120677099Y-100482801D01*
X120655799Y-100477465D01*
X120635125Y-100470068D01*
X120615275Y-100460680D01*
X120596441Y-100449391D01*
X120578805Y-100436311D01*
X120562535Y-100421565D01*
X120547789Y-100405295D01*
X120534709Y-100387659D01*
X120523420Y-100368825D01*
X120514032Y-100348975D01*
X120506635Y-100328301D01*
X120501299Y-100307001D01*
X120498077Y-100285281D01*
X120497000Y-100263350D01*
X120497000Y-99390850D01*
X120498077Y-99368919D01*
X120501299Y-99347199D01*
X120506635Y-99325899D01*
X120514032Y-99305225D01*
X120523420Y-99285375D01*
X120534709Y-99266541D01*
X120547789Y-99248905D01*
X120562535Y-99232635D01*
X120578805Y-99217889D01*
X120596441Y-99204809D01*
X120615275Y-99193520D01*
X120635125Y-99184132D01*
X120655799Y-99176735D01*
X120677099Y-99171399D01*
X120698819Y-99168177D01*
X120720750Y-99167100D01*
X121168250Y-99167100D01*
X121190181Y-99168177D01*
X121190181Y-99168177D01*
G37*
D14*
X120944500Y-99827100D03*
G04 #@! TD*
D11*
G04 #@! TO.C,D5*
X126919000Y-96194900D03*
X123419000Y-96194900D03*
G04 #@! TD*
D18*
G04 #@! TO.C,U2*
X129324000Y-91583500D03*
X129324000Y-92853500D03*
X129324000Y-94123500D03*
X129324000Y-95393500D03*
X136624000Y-95393500D03*
X136624000Y-94123500D03*
X136624000Y-92853500D03*
X136624000Y-91583500D03*
G04 #@! TD*
M02*
