G04 #@! TF.GenerationSoftware,KiCad,Pcbnew,(5.0.0)*
G04 #@! TF.CreationDate,2018-09-08T13:32:02-05:00*
G04 #@! TF.ProjectId,mini-attinyuino,6D696E692D617474696E7975696E6F2E,1.0*
G04 #@! TF.SameCoordinates,Original*
G04 #@! TF.FileFunction,Legend,Bot*
G04 #@! TF.FilePolarity,Positive*
%FSLAX46Y46*%
G04 Gerber Fmt 4.6, Leading zero omitted, Abs format (unit mm)*
G04 Created by KiCad (PCBNEW (5.0.0)) date 09/08/18 13:32:02*
%MOMM*%
%LPD*%
G01*
G04 APERTURE LIST*
%ADD10C,0.127000*%
%ADD11C,0.120000*%
%ADD12C,0.010000*%
%ADD13C,0.150000*%
%ADD14C,0.100000*%
G04 APERTURE END LIST*
D10*
X127934368Y-90052002D02*
X127534368Y-90052002D01*
X127591511Y-90052002D02*
X127562940Y-90080574D01*
X127534368Y-90137717D01*
X127534368Y-90223431D01*
X127562940Y-90280574D01*
X127620082Y-90309145D01*
X127934368Y-90309145D01*
X127620082Y-90309145D02*
X127562940Y-90337717D01*
X127534368Y-90394860D01*
X127534368Y-90480574D01*
X127562940Y-90537717D01*
X127620082Y-90566288D01*
X127934368Y-90566288D01*
X127934368Y-90852002D02*
X127534368Y-90852002D01*
X127334368Y-90852002D02*
X127362940Y-90823431D01*
X127391511Y-90852002D01*
X127362940Y-90880574D01*
X127334368Y-90852002D01*
X127391511Y-90852002D01*
X127534368Y-91137717D02*
X127934368Y-91137717D01*
X127591511Y-91137717D02*
X127562940Y-91166288D01*
X127534368Y-91223431D01*
X127534368Y-91309145D01*
X127562940Y-91366288D01*
X127620082Y-91394860D01*
X127934368Y-91394860D01*
X127934368Y-91680574D02*
X127534368Y-91680574D01*
X127334368Y-91680574D02*
X127362940Y-91652002D01*
X127391511Y-91680574D01*
X127362940Y-91709145D01*
X127334368Y-91680574D01*
X127391511Y-91680574D01*
X127705797Y-91966288D02*
X127705797Y-92423431D01*
X127934368Y-92709145D02*
X127534368Y-92709145D01*
X127591511Y-92709145D02*
X127562940Y-92737717D01*
X127534368Y-92794860D01*
X127534368Y-92880574D01*
X127562940Y-92937717D01*
X127620082Y-92966288D01*
X127934368Y-92966288D01*
X127620082Y-92966288D02*
X127562940Y-92994860D01*
X127534368Y-93052002D01*
X127534368Y-93137717D01*
X127562940Y-93194860D01*
X127620082Y-93223431D01*
X127934368Y-93223431D01*
X127934368Y-93594860D02*
X127905797Y-93537717D01*
X127877225Y-93509145D01*
X127820082Y-93480574D01*
X127648654Y-93480574D01*
X127591511Y-93509145D01*
X127562940Y-93537717D01*
X127534368Y-93594860D01*
X127534368Y-93680574D01*
X127562940Y-93737717D01*
X127591511Y-93766288D01*
X127648654Y-93794860D01*
X127820082Y-93794860D01*
X127877225Y-93766288D01*
X127905797Y-93737717D01*
X127934368Y-93680574D01*
X127934368Y-93594860D01*
X127934368Y-94309145D02*
X127334368Y-94309145D01*
X127905797Y-94309145D02*
X127934368Y-94252002D01*
X127934368Y-94137717D01*
X127905797Y-94080574D01*
X127877225Y-94052002D01*
X127820082Y-94023431D01*
X127648654Y-94023431D01*
X127591511Y-94052002D01*
X127562940Y-94080574D01*
X127534368Y-94137717D01*
X127534368Y-94252002D01*
X127562940Y-94309145D01*
X127905797Y-94566288D02*
X127934368Y-94623431D01*
X127934368Y-94737717D01*
X127905797Y-94794860D01*
X127848654Y-94823431D01*
X127820082Y-94823431D01*
X127762940Y-94794860D01*
X127734368Y-94737717D01*
X127734368Y-94652002D01*
X127705797Y-94594860D01*
X127648654Y-94566288D01*
X127620082Y-94566288D01*
X127562940Y-94594860D01*
X127534368Y-94652002D01*
X127534368Y-94737717D01*
X127562940Y-94794860D01*
X127877225Y-95080574D02*
X127905797Y-95109145D01*
X127934368Y-95080574D01*
X127905797Y-95052002D01*
X127877225Y-95080574D01*
X127934368Y-95080574D01*
X127905797Y-95623431D02*
X127934368Y-95566288D01*
X127934368Y-95452002D01*
X127905797Y-95394860D01*
X127877225Y-95366288D01*
X127820082Y-95337717D01*
X127648654Y-95337717D01*
X127591511Y-95366288D01*
X127562940Y-95394860D01*
X127534368Y-95452002D01*
X127534368Y-95566288D01*
X127562940Y-95623431D01*
X127934368Y-95966288D02*
X127905797Y-95909145D01*
X127877225Y-95880574D01*
X127820082Y-95852002D01*
X127648654Y-95852002D01*
X127591511Y-95880574D01*
X127562940Y-95909145D01*
X127534368Y-95966288D01*
X127534368Y-96052002D01*
X127562940Y-96109145D01*
X127591511Y-96137717D01*
X127648654Y-96166288D01*
X127820082Y-96166288D01*
X127877225Y-96137717D01*
X127905797Y-96109145D01*
X127934368Y-96052002D01*
X127934368Y-95966288D01*
X127934368Y-96423431D02*
X127534368Y-96423431D01*
X127591511Y-96423431D02*
X127562940Y-96452002D01*
X127534368Y-96509145D01*
X127534368Y-96594860D01*
X127562940Y-96652002D01*
X127620082Y-96680574D01*
X127934368Y-96680574D01*
X127620082Y-96680574D02*
X127562940Y-96709145D01*
X127534368Y-96766288D01*
X127534368Y-96852002D01*
X127562940Y-96909145D01*
X127620082Y-96937717D01*
X127934368Y-96937717D01*
X140411300Y-91175178D02*
X140411300Y-91460892D01*
X140582728Y-91118035D02*
X139982728Y-91318035D01*
X140582728Y-91518035D01*
X139982728Y-91632321D02*
X139982728Y-91975178D01*
X140582728Y-91803750D02*
X139982728Y-91803750D01*
X139982728Y-92089464D02*
X139982728Y-92432321D01*
X140582728Y-92260892D02*
X139982728Y-92260892D01*
X140582728Y-92632321D02*
X140182728Y-92632321D01*
X139982728Y-92632321D02*
X140011300Y-92603750D01*
X140039871Y-92632321D01*
X140011300Y-92660892D01*
X139982728Y-92632321D01*
X140039871Y-92632321D01*
X140182728Y-92918035D02*
X140582728Y-92918035D01*
X140239871Y-92918035D02*
X140211300Y-92946607D01*
X140182728Y-93003750D01*
X140182728Y-93089464D01*
X140211300Y-93146607D01*
X140268442Y-93175178D01*
X140582728Y-93175178D01*
X140182728Y-93403750D02*
X140582728Y-93546607D01*
X140182728Y-93689464D02*
X140582728Y-93546607D01*
X140725585Y-93489464D01*
X140754157Y-93460892D01*
X140782728Y-93403750D01*
X139982728Y-93918035D02*
X140468442Y-93918035D01*
X140525585Y-93946607D01*
X140554157Y-93975178D01*
X140582728Y-94032321D01*
X140582728Y-94146607D01*
X140554157Y-94203750D01*
X140525585Y-94232321D01*
X140468442Y-94260892D01*
X139982728Y-94260892D01*
X140582728Y-94546607D02*
X139982728Y-94546607D01*
X140582728Y-94832321D02*
X139982728Y-94832321D01*
X140582728Y-95175178D01*
X139982728Y-95175178D01*
X139982728Y-95575178D02*
X139982728Y-95689464D01*
X140011300Y-95746607D01*
X140068442Y-95803750D01*
X140182728Y-95832321D01*
X140382728Y-95832321D01*
X140497014Y-95803750D01*
X140554157Y-95746607D01*
X140582728Y-95689464D01*
X140582728Y-95575178D01*
X140554157Y-95518035D01*
X140497014Y-95460892D01*
X140382728Y-95432321D01*
X140182728Y-95432321D01*
X140068442Y-95460892D01*
X140011300Y-95518035D01*
X139982728Y-95575178D01*
X142322442Y-91460892D02*
X142351014Y-91546607D01*
X142379585Y-91575178D01*
X142436728Y-91603750D01*
X142522442Y-91603750D01*
X142579585Y-91575178D01*
X142608157Y-91546607D01*
X142636728Y-91489464D01*
X142636728Y-91260892D01*
X142036728Y-91260892D01*
X142036728Y-91460892D01*
X142065300Y-91518035D01*
X142093871Y-91546607D01*
X142151014Y-91575178D01*
X142208157Y-91575178D01*
X142265300Y-91546607D01*
X142293871Y-91518035D01*
X142322442Y-91460892D01*
X142322442Y-91260892D01*
X142465300Y-91832321D02*
X142465300Y-92118035D01*
X142636728Y-91775178D02*
X142036728Y-91975178D01*
X142636728Y-92175178D01*
X142579585Y-92718035D02*
X142608157Y-92689464D01*
X142636728Y-92603750D01*
X142636728Y-92546607D01*
X142608157Y-92460892D01*
X142551014Y-92403750D01*
X142493871Y-92375178D01*
X142379585Y-92346607D01*
X142293871Y-92346607D01*
X142179585Y-92375178D01*
X142122442Y-92403750D01*
X142065300Y-92460892D01*
X142036728Y-92546607D01*
X142036728Y-92603750D01*
X142065300Y-92689464D01*
X142093871Y-92718035D01*
X142636728Y-92975178D02*
X142036728Y-92975178D01*
X142636728Y-93318035D02*
X142293871Y-93060892D01*
X142036728Y-93318035D02*
X142379585Y-92975178D01*
X142608157Y-94003750D02*
X142636728Y-94089464D01*
X142636728Y-94232321D01*
X142608157Y-94289464D01*
X142579585Y-94318035D01*
X142522442Y-94346607D01*
X142465300Y-94346607D01*
X142408157Y-94318035D01*
X142379585Y-94289464D01*
X142351014Y-94232321D01*
X142322442Y-94118035D01*
X142293871Y-94060892D01*
X142265300Y-94032321D01*
X142208157Y-94003750D01*
X142151014Y-94003750D01*
X142093871Y-94032321D01*
X142065300Y-94060892D01*
X142036728Y-94118035D01*
X142036728Y-94260892D01*
X142065300Y-94346607D01*
X142636728Y-94603750D02*
X142036728Y-94603750D01*
X142636728Y-94889464D02*
X142036728Y-94889464D01*
X142036728Y-95032321D01*
X142065300Y-95118035D01*
X142122442Y-95175178D01*
X142179585Y-95203750D01*
X142293871Y-95232321D01*
X142379585Y-95232321D01*
X142493871Y-95203750D01*
X142551014Y-95175178D01*
X142608157Y-95118035D01*
X142636728Y-95032321D01*
X142636728Y-94889464D01*
X142322442Y-95489464D02*
X142322442Y-95689464D01*
X142636728Y-95775178D02*
X142636728Y-95489464D01*
X142036728Y-95489464D01*
X142036728Y-95775178D01*
X121385828Y-92920585D02*
X120785828Y-92920585D01*
X121014400Y-92920585D02*
X120985828Y-92977728D01*
X120985828Y-93092014D01*
X121014400Y-93149157D01*
X121042971Y-93177728D01*
X121100114Y-93206300D01*
X121271542Y-93206300D01*
X121328685Y-93177728D01*
X121357257Y-93149157D01*
X121385828Y-93092014D01*
X121385828Y-92977728D01*
X121357257Y-92920585D01*
X120985828Y-93406300D02*
X121385828Y-93549157D01*
X120985828Y-93692014D02*
X121385828Y-93549157D01*
X121528685Y-93492014D01*
X121557257Y-93463442D01*
X121585828Y-93406300D01*
X122098542Y-90149157D02*
X122098542Y-90349157D01*
X122412828Y-90434871D02*
X122412828Y-90149157D01*
X121812828Y-90149157D01*
X121812828Y-90434871D01*
X122412828Y-90777728D02*
X122384257Y-90720585D01*
X122327114Y-90692014D01*
X121812828Y-90692014D01*
X122412828Y-91263442D02*
X122098542Y-91263442D01*
X122041400Y-91234871D01*
X122012828Y-91177728D01*
X122012828Y-91063442D01*
X122041400Y-91006300D01*
X122384257Y-91263442D02*
X122412828Y-91206300D01*
X122412828Y-91063442D01*
X122384257Y-91006300D01*
X122327114Y-90977728D01*
X122269971Y-90977728D01*
X122212828Y-91006300D01*
X122184257Y-91063442D01*
X122184257Y-91206300D01*
X122155685Y-91263442D01*
X122412828Y-91806300D02*
X121812828Y-91806300D01*
X122384257Y-91806300D02*
X122412828Y-91749157D01*
X122412828Y-91634871D01*
X122384257Y-91577728D01*
X122355685Y-91549157D01*
X122298542Y-91520585D01*
X122127114Y-91520585D01*
X122069971Y-91549157D01*
X122041400Y-91577728D01*
X122012828Y-91634871D01*
X122012828Y-91749157D01*
X122041400Y-91806300D01*
X122412828Y-92092014D02*
X122012828Y-92092014D01*
X121812828Y-92092014D02*
X121841400Y-92063442D01*
X121869971Y-92092014D01*
X121841400Y-92120585D01*
X121812828Y-92092014D01*
X121869971Y-92092014D01*
X122412828Y-92463442D02*
X122384257Y-92406300D01*
X122355685Y-92377728D01*
X122298542Y-92349157D01*
X122127114Y-92349157D01*
X122069971Y-92377728D01*
X122041400Y-92406300D01*
X122012828Y-92463442D01*
X122012828Y-92549157D01*
X122041400Y-92606300D01*
X122069971Y-92634871D01*
X122127114Y-92663442D01*
X122298542Y-92663442D01*
X122355685Y-92634871D01*
X122384257Y-92606300D01*
X122412828Y-92549157D01*
X122412828Y-92463442D01*
X122412828Y-93377728D02*
X121812828Y-93377728D01*
X122241400Y-93577728D01*
X121812828Y-93777728D01*
X122412828Y-93777728D01*
X122412828Y-94320585D02*
X122098542Y-94320585D01*
X122041400Y-94292014D01*
X122012828Y-94234871D01*
X122012828Y-94120585D01*
X122041400Y-94063442D01*
X122384257Y-94320585D02*
X122412828Y-94263442D01*
X122412828Y-94120585D01*
X122384257Y-94063442D01*
X122327114Y-94034871D01*
X122269971Y-94034871D01*
X122212828Y-94063442D01*
X122184257Y-94120585D01*
X122184257Y-94263442D01*
X122155685Y-94320585D01*
X122412828Y-94606300D02*
X122012828Y-94606300D01*
X122127114Y-94606300D02*
X122069971Y-94634871D01*
X122041400Y-94663442D01*
X122012828Y-94720585D01*
X122012828Y-94777728D01*
X122012828Y-94892014D02*
X122012828Y-95120585D01*
X121812828Y-94977728D02*
X122327114Y-94977728D01*
X122384257Y-95006300D01*
X122412828Y-95063442D01*
X122412828Y-95120585D01*
X122412828Y-95320585D02*
X122012828Y-95320585D01*
X121812828Y-95320585D02*
X121841400Y-95292014D01*
X121869971Y-95320585D01*
X121841400Y-95349157D01*
X121812828Y-95320585D01*
X121869971Y-95320585D01*
X122012828Y-95606300D02*
X122412828Y-95606300D01*
X122069971Y-95606300D02*
X122041400Y-95634871D01*
X122012828Y-95692014D01*
X122012828Y-95777728D01*
X122041400Y-95834871D01*
X122098542Y-95863442D01*
X122412828Y-95863442D01*
X122384257Y-96377728D02*
X122412828Y-96320585D01*
X122412828Y-96206300D01*
X122384257Y-96149157D01*
X122327114Y-96120585D01*
X122098542Y-96120585D01*
X122041400Y-96149157D01*
X122012828Y-96206300D01*
X122012828Y-96320585D01*
X122041400Y-96377728D01*
X122098542Y-96406300D01*
X122155685Y-96406300D01*
X122212828Y-96120585D01*
X122012828Y-96606300D02*
X122012828Y-96920585D01*
X122412828Y-96606300D01*
X122412828Y-96920585D01*
X132176168Y-91166288D02*
X131890454Y-90966288D01*
X132176168Y-90823431D02*
X131576168Y-90823431D01*
X131576168Y-91052002D01*
X131604740Y-91109145D01*
X131633311Y-91137717D01*
X131690454Y-91166288D01*
X131776168Y-91166288D01*
X131833311Y-91137717D01*
X131861882Y-91109145D01*
X131890454Y-91052002D01*
X131890454Y-90823431D01*
X132233311Y-91280574D02*
X132233311Y-91737717D01*
X131633311Y-91852002D02*
X131604740Y-91880574D01*
X131576168Y-91937717D01*
X131576168Y-92080574D01*
X131604740Y-92137717D01*
X131633311Y-92166288D01*
X131690454Y-92194860D01*
X131747597Y-92194860D01*
X131833311Y-92166288D01*
X132176168Y-91823431D01*
X132176168Y-92194860D01*
X131576168Y-92566288D02*
X131576168Y-92623431D01*
X131604740Y-92680574D01*
X131633311Y-92709145D01*
X131690454Y-92737717D01*
X131804740Y-92766288D01*
X131947597Y-92766288D01*
X132061882Y-92737717D01*
X132119025Y-92709145D01*
X132147597Y-92680574D01*
X132176168Y-92623431D01*
X132176168Y-92566288D01*
X132147597Y-92509145D01*
X132119025Y-92480574D01*
X132061882Y-92452002D01*
X131947597Y-92423431D01*
X131804740Y-92423431D01*
X131690454Y-92452002D01*
X131633311Y-92480574D01*
X131604740Y-92509145D01*
X131576168Y-92566288D01*
X132176168Y-93337717D02*
X132176168Y-92994860D01*
X132176168Y-93166288D02*
X131576168Y-93166288D01*
X131661882Y-93109145D01*
X131719025Y-93052002D01*
X131747597Y-92994860D01*
X131833311Y-93680574D02*
X131804740Y-93623431D01*
X131776168Y-93594860D01*
X131719025Y-93566288D01*
X131690454Y-93566288D01*
X131633311Y-93594860D01*
X131604740Y-93623431D01*
X131576168Y-93680574D01*
X131576168Y-93794860D01*
X131604740Y-93852002D01*
X131633311Y-93880574D01*
X131690454Y-93909145D01*
X131719025Y-93909145D01*
X131776168Y-93880574D01*
X131804740Y-93852002D01*
X131833311Y-93794860D01*
X131833311Y-93680574D01*
X131861882Y-93623431D01*
X131890454Y-93594860D01*
X131947597Y-93566288D01*
X132061882Y-93566288D01*
X132119025Y-93594860D01*
X132147597Y-93623431D01*
X132176168Y-93680574D01*
X132176168Y-93794860D01*
X132147597Y-93852002D01*
X132119025Y-93880574D01*
X132061882Y-93909145D01*
X131947597Y-93909145D01*
X131890454Y-93880574D01*
X131861882Y-93852002D01*
X131833311Y-93794860D01*
X131576168Y-94280574D02*
X131576168Y-94337717D01*
X131604740Y-94394860D01*
X131633311Y-94423431D01*
X131690454Y-94452002D01*
X131804740Y-94480574D01*
X131947597Y-94480574D01*
X132061882Y-94452002D01*
X132119025Y-94423431D01*
X132147597Y-94394860D01*
X132176168Y-94337717D01*
X132176168Y-94280574D01*
X132147597Y-94223431D01*
X132119025Y-94194860D01*
X132061882Y-94166288D01*
X131947597Y-94137717D01*
X131804740Y-94137717D01*
X131690454Y-94166288D01*
X131633311Y-94194860D01*
X131604740Y-94223431D01*
X131576168Y-94280574D01*
X132176168Y-94766288D02*
X132176168Y-94880574D01*
X132147597Y-94937717D01*
X132119025Y-94966288D01*
X132033311Y-95023431D01*
X131919025Y-95052002D01*
X131690454Y-95052002D01*
X131633311Y-95023431D01*
X131604740Y-94994860D01*
X131576168Y-94937717D01*
X131576168Y-94823431D01*
X131604740Y-94766288D01*
X131633311Y-94737717D01*
X131690454Y-94709145D01*
X131833311Y-94709145D01*
X131890454Y-94737717D01*
X131919025Y-94766288D01*
X131947597Y-94823431D01*
X131947597Y-94937717D01*
X131919025Y-94994860D01*
X131890454Y-95023431D01*
X131833311Y-95052002D01*
X131576168Y-95423431D02*
X131576168Y-95480574D01*
X131604740Y-95537717D01*
X131633311Y-95566288D01*
X131690454Y-95594860D01*
X131804740Y-95623431D01*
X131947597Y-95623431D01*
X132061882Y-95594860D01*
X132119025Y-95566288D01*
X132147597Y-95537717D01*
X132176168Y-95480574D01*
X132176168Y-95423431D01*
X132147597Y-95366288D01*
X132119025Y-95337717D01*
X132061882Y-95309145D01*
X131947597Y-95280574D01*
X131804740Y-95280574D01*
X131690454Y-95309145D01*
X131633311Y-95337717D01*
X131604740Y-95366288D01*
X131576168Y-95423431D01*
X131576168Y-96166288D02*
X131576168Y-95880574D01*
X131861882Y-95852002D01*
X131833311Y-95880574D01*
X131804740Y-95937717D01*
X131804740Y-96080574D01*
X131833311Y-96137717D01*
X131861882Y-96166288D01*
X131919025Y-96194860D01*
X132061882Y-96194860D01*
X132119025Y-96166288D01*
X132147597Y-96137717D01*
X132176168Y-96080574D01*
X132176168Y-95937717D01*
X132147597Y-95880574D01*
X132119025Y-95852002D01*
D11*
G04 #@! TO.C,J1*
X125185000Y-98448800D02*
X125185000Y-99778800D01*
X126515000Y-98448800D02*
X125185000Y-98448800D01*
X127785000Y-98448800D02*
X127785000Y-101108800D01*
X127785000Y-101108800D02*
X138005000Y-101108800D01*
X127785000Y-98448800D02*
X138005000Y-98448800D01*
X138005000Y-98448800D02*
X138005000Y-101108800D01*
G04 #@! TO.C,J2*
X138005000Y-85903800D02*
X138005000Y-88563800D01*
X127785000Y-85903800D02*
X138005000Y-85903800D01*
X127785000Y-88563800D02*
X138005000Y-88563800D01*
X127785000Y-85903800D02*
X127785000Y-88563800D01*
X126515000Y-85903800D02*
X125185000Y-85903800D01*
X125185000Y-85903800D02*
X125185000Y-87233800D01*
G04 #@! TO.C,C1*
X134321000Y-96221000D02*
X138231000Y-96221000D01*
X138231000Y-96221000D02*
X138231000Y-98091000D01*
X138231000Y-98091000D02*
X134321000Y-98091000D01*
G04 #@! TO.C,C2*
X136201578Y-89081500D02*
X135684422Y-89081500D01*
X136201578Y-90501500D02*
X135684422Y-90501500D01*
G04 #@! TO.C,R1*
X124719422Y-95507600D02*
X125236578Y-95507600D01*
X124719422Y-96927600D02*
X125236578Y-96927600D01*
G04 #@! TO.C,R2*
X124719422Y-91505100D02*
X125236578Y-91505100D01*
X124719422Y-90085100D02*
X125236578Y-90085100D01*
G04 #@! TO.C,R3*
X124719422Y-94216300D02*
X125236578Y-94216300D01*
X124719422Y-92796300D02*
X125236578Y-92796300D01*
G04 #@! TO.C,R4*
X128944000Y-91196822D02*
X128944000Y-91713978D01*
X130364000Y-91196822D02*
X130364000Y-91713978D01*
G04 #@! TO.C,R5*
X128944000Y-95815678D02*
X128944000Y-95298522D01*
X130364000Y-95815678D02*
X130364000Y-95298522D01*
G04 #@! TO.C,U1*
X134538000Y-94623800D02*
X134538000Y-95823800D01*
X134538000Y-95823800D02*
X137238000Y-95823800D01*
X138538000Y-91023800D02*
X134538000Y-91023800D01*
X134538000Y-91023800D02*
X134538000Y-92223800D01*
D12*
G04 #@! TO.C,G001*
G36*
X119131695Y-92321370D02*
X119141531Y-92295782D01*
X119143197Y-92289489D01*
X119166444Y-92247637D01*
X119182256Y-92240100D01*
X119207143Y-92218140D01*
X119208409Y-92208423D01*
X119194760Y-92193509D01*
X119166076Y-92211878D01*
X119131715Y-92263353D01*
X119127016Y-92292945D01*
X119131695Y-92321370D01*
X119131695Y-92321370D01*
G37*
X119131695Y-92321370D02*
X119141531Y-92295782D01*
X119143197Y-92289489D01*
X119166444Y-92247637D01*
X119182256Y-92240100D01*
X119207143Y-92218140D01*
X119208409Y-92208423D01*
X119194760Y-92193509D01*
X119166076Y-92211878D01*
X119131715Y-92263353D01*
X119127016Y-92292945D01*
X119131695Y-92321370D01*
G36*
X119246039Y-92117804D02*
X119262817Y-92113930D01*
X119264854Y-92098989D01*
X119254527Y-92075759D01*
X119246039Y-92080174D01*
X119242661Y-92113668D01*
X119246039Y-92117804D01*
X119246039Y-92117804D01*
G37*
X119246039Y-92117804D02*
X119262817Y-92113930D01*
X119264854Y-92098989D01*
X119254527Y-92075759D01*
X119246039Y-92080174D01*
X119242661Y-92113668D01*
X119246039Y-92117804D01*
G36*
X119335895Y-91017462D02*
X119364123Y-91055311D01*
X119396796Y-91126852D01*
X119391733Y-91168034D01*
X119393308Y-91234166D01*
X119436442Y-91297057D01*
X119492408Y-91350157D01*
X119527835Y-91358742D01*
X119556611Y-91323028D01*
X119568132Y-91299113D01*
X119582536Y-91223043D01*
X119570514Y-91193279D01*
X119541629Y-91172359D01*
X119530357Y-91181767D01*
X119487358Y-91250159D01*
X119446511Y-91272972D01*
X119419094Y-91251459D01*
X119416387Y-91186873D01*
X119419678Y-91169466D01*
X119417814Y-91089587D01*
X119393701Y-91056301D01*
X119365940Y-91013401D01*
X119380304Y-90965315D01*
X119410524Y-90928214D01*
X119446004Y-90940109D01*
X119451148Y-90944244D01*
X119490389Y-90961735D01*
X119526671Y-90931534D01*
X119529766Y-90927369D01*
X119580223Y-90891746D01*
X119613379Y-90894008D01*
X119643260Y-90915891D01*
X119637946Y-90957514D01*
X119627093Y-90983145D01*
X119609520Y-91045176D01*
X119631131Y-91094273D01*
X119642056Y-91107015D01*
X119669875Y-91162413D01*
X119667890Y-91217532D01*
X119638664Y-91250209D01*
X119625267Y-91252323D01*
X119615920Y-91269103D01*
X119631742Y-91294656D01*
X119670492Y-91330546D01*
X119703187Y-91324172D01*
X119742913Y-91271242D01*
X119752657Y-91255024D01*
X119790776Y-91182100D01*
X119796215Y-91134575D01*
X119769359Y-91092097D01*
X119755987Y-91078218D01*
X119726428Y-91029166D01*
X119741804Y-90975382D01*
X119755251Y-90932870D01*
X119736410Y-90894371D01*
X119681060Y-90845665D01*
X119589409Y-90773695D01*
X119544058Y-90833404D01*
X119502494Y-90871278D01*
X119478893Y-90861051D01*
X119442323Y-90830926D01*
X119401305Y-90854731D01*
X119362304Y-90916222D01*
X119334399Y-90978414D01*
X119335895Y-91017462D01*
X119335895Y-91017462D01*
G37*
X119335895Y-91017462D02*
X119364123Y-91055311D01*
X119396796Y-91126852D01*
X119391733Y-91168034D01*
X119393308Y-91234166D01*
X119436442Y-91297057D01*
X119492408Y-91350157D01*
X119527835Y-91358742D01*
X119556611Y-91323028D01*
X119568132Y-91299113D01*
X119582536Y-91223043D01*
X119570514Y-91193279D01*
X119541629Y-91172359D01*
X119530357Y-91181767D01*
X119487358Y-91250159D01*
X119446511Y-91272972D01*
X119419094Y-91251459D01*
X119416387Y-91186873D01*
X119419678Y-91169466D01*
X119417814Y-91089587D01*
X119393701Y-91056301D01*
X119365940Y-91013401D01*
X119380304Y-90965315D01*
X119410524Y-90928214D01*
X119446004Y-90940109D01*
X119451148Y-90944244D01*
X119490389Y-90961735D01*
X119526671Y-90931534D01*
X119529766Y-90927369D01*
X119580223Y-90891746D01*
X119613379Y-90894008D01*
X119643260Y-90915891D01*
X119637946Y-90957514D01*
X119627093Y-90983145D01*
X119609520Y-91045176D01*
X119631131Y-91094273D01*
X119642056Y-91107015D01*
X119669875Y-91162413D01*
X119667890Y-91217532D01*
X119638664Y-91250209D01*
X119625267Y-91252323D01*
X119615920Y-91269103D01*
X119631742Y-91294656D01*
X119670492Y-91330546D01*
X119703187Y-91324172D01*
X119742913Y-91271242D01*
X119752657Y-91255024D01*
X119790776Y-91182100D01*
X119796215Y-91134575D01*
X119769359Y-91092097D01*
X119755987Y-91078218D01*
X119726428Y-91029166D01*
X119741804Y-90975382D01*
X119755251Y-90932870D01*
X119736410Y-90894371D01*
X119681060Y-90845665D01*
X119589409Y-90773695D01*
X119544058Y-90833404D01*
X119502494Y-90871278D01*
X119478893Y-90861051D01*
X119442323Y-90830926D01*
X119401305Y-90854731D01*
X119362304Y-90916222D01*
X119334399Y-90978414D01*
X119335895Y-91017462D01*
G36*
X118361742Y-93905212D02*
X118361742Y-93594767D01*
X117232854Y-93594767D01*
X117232854Y-93905212D01*
X118361742Y-93905212D01*
X118361742Y-93905212D01*
G37*
X118361742Y-93905212D02*
X118361742Y-93594767D01*
X117232854Y-93594767D01*
X117232854Y-93905212D01*
X118361742Y-93905212D01*
G36*
X117698520Y-93185545D02*
X117232854Y-93201939D01*
X117232854Y-93510100D01*
X118361742Y-93510100D01*
X118361742Y-93201173D01*
X117896076Y-92931545D01*
X118361742Y-92915151D01*
X118361742Y-92606989D01*
X117383372Y-92606989D01*
X117383372Y-92757508D01*
X117400150Y-92761382D01*
X117402187Y-92776323D01*
X117391861Y-92799553D01*
X117383372Y-92795137D01*
X117379994Y-92761644D01*
X117383372Y-92757508D01*
X117383372Y-92606989D01*
X117232854Y-92606989D01*
X117232854Y-92912069D01*
X117698520Y-93185545D01*
X117698520Y-93185545D01*
G37*
X117698520Y-93185545D02*
X117232854Y-93201939D01*
X117232854Y-93510100D01*
X118361742Y-93510100D01*
X118361742Y-93201173D01*
X117896076Y-92931545D01*
X118361742Y-92915151D01*
X118361742Y-92606989D01*
X117383372Y-92606989D01*
X117383372Y-92757508D01*
X117400150Y-92761382D01*
X117402187Y-92776323D01*
X117391861Y-92799553D01*
X117383372Y-92795137D01*
X117379994Y-92761644D01*
X117383372Y-92757508D01*
X117383372Y-92606989D01*
X117232854Y-92606989D01*
X117232854Y-92912069D01*
X117698520Y-93185545D01*
G36*
X118361742Y-92522323D02*
X118361742Y-92211878D01*
X117797298Y-92211878D01*
X117797298Y-92364348D01*
X117927961Y-92364877D01*
X118017838Y-92366342D01*
X118062833Y-92368564D01*
X118058848Y-92371363D01*
X118016020Y-92373967D01*
X117868076Y-92377578D01*
X117703254Y-92377298D01*
X117578576Y-92373967D01*
X117531270Y-92370830D01*
X117536311Y-92368121D01*
X117589601Y-92366021D01*
X117687045Y-92364709D01*
X117797298Y-92364348D01*
X117797298Y-92211878D01*
X117232854Y-92211878D01*
X117232854Y-92522323D01*
X118361742Y-92522323D01*
X118361742Y-92522323D01*
G37*
X118361742Y-92522323D02*
X118361742Y-92211878D01*
X117797298Y-92211878D01*
X117797298Y-92364348D01*
X117927961Y-92364877D01*
X118017838Y-92366342D01*
X118062833Y-92368564D01*
X118058848Y-92371363D01*
X118016020Y-92373967D01*
X117868076Y-92377578D01*
X117703254Y-92377298D01*
X117578576Y-92373967D01*
X117531270Y-92370830D01*
X117536311Y-92368121D01*
X117589601Y-92366021D01*
X117687045Y-92364709D01*
X117797298Y-92364348D01*
X117797298Y-92211878D01*
X117232854Y-92211878D01*
X117232854Y-92522323D01*
X118361742Y-92522323D01*
G36*
X117529187Y-91350437D02*
X117645951Y-91405522D01*
X117741043Y-91453561D01*
X117804265Y-91489183D01*
X117825520Y-91506516D01*
X117801473Y-91525774D01*
X117736104Y-91562754D01*
X117639568Y-91612030D01*
X117529198Y-91664844D01*
X117232876Y-91802656D01*
X117232854Y-92127212D01*
X117666359Y-92127212D01*
X117829077Y-92126033D01*
X117982694Y-92122792D01*
X118113280Y-92117933D01*
X118206904Y-92111898D01*
X118230803Y-92109264D01*
X118361742Y-92091317D01*
X118361742Y-91823271D01*
X118199465Y-91802929D01*
X118037187Y-91782586D01*
X118199465Y-91700446D01*
X118287523Y-91653680D01*
X118336113Y-91617451D01*
X118356852Y-91578302D01*
X118361362Y-91522773D01*
X118361360Y-91512926D01*
X118357487Y-91453840D01*
X118338768Y-91411980D01*
X118293761Y-91373601D01*
X118220631Y-91330612D01*
X118220631Y-91478100D01*
X118248033Y-91499577D01*
X118248854Y-91506323D01*
X118227377Y-91533725D01*
X118220631Y-91534545D01*
X118193229Y-91513068D01*
X118192409Y-91506323D01*
X118213885Y-91478920D01*
X118220631Y-91478100D01*
X118220631Y-91330612D01*
X118211022Y-91324963D01*
X118199619Y-91318668D01*
X118038261Y-91229791D01*
X118200002Y-91209583D01*
X118361742Y-91189374D01*
X118361742Y-90913656D01*
X117232854Y-90913656D01*
X117232854Y-91214874D01*
X117529187Y-91350437D01*
X117529187Y-91350437D01*
G37*
X117529187Y-91350437D02*
X117645951Y-91405522D01*
X117741043Y-91453561D01*
X117804265Y-91489183D01*
X117825520Y-91506516D01*
X117801473Y-91525774D01*
X117736104Y-91562754D01*
X117639568Y-91612030D01*
X117529198Y-91664844D01*
X117232876Y-91802656D01*
X117232854Y-92127212D01*
X117666359Y-92127212D01*
X117829077Y-92126033D01*
X117982694Y-92122792D01*
X118113280Y-92117933D01*
X118206904Y-92111898D01*
X118230803Y-92109264D01*
X118361742Y-92091317D01*
X118361742Y-91823271D01*
X118199465Y-91802929D01*
X118037187Y-91782586D01*
X118199465Y-91700446D01*
X118287523Y-91653680D01*
X118336113Y-91617451D01*
X118356852Y-91578302D01*
X118361362Y-91522773D01*
X118361360Y-91512926D01*
X118357487Y-91453840D01*
X118338768Y-91411980D01*
X118293761Y-91373601D01*
X118220631Y-91330612D01*
X118220631Y-91478100D01*
X118248033Y-91499577D01*
X118248854Y-91506323D01*
X118227377Y-91533725D01*
X118220631Y-91534545D01*
X118193229Y-91513068D01*
X118192409Y-91506323D01*
X118213885Y-91478920D01*
X118220631Y-91478100D01*
X118220631Y-91330612D01*
X118211022Y-91324963D01*
X118199619Y-91318668D01*
X118038261Y-91229791D01*
X118200002Y-91209583D01*
X118361742Y-91189374D01*
X118361742Y-90913656D01*
X117232854Y-90913656D01*
X117232854Y-91214874D01*
X117529187Y-91350437D01*
G36*
X118252711Y-90727847D02*
X118294821Y-90697522D01*
X118357958Y-90616502D01*
X118369471Y-90599069D01*
X118472205Y-90454511D01*
X118562959Y-90359117D01*
X118647166Y-90308362D01*
X118730255Y-90297718D01*
X118730933Y-90297782D01*
X118808124Y-90324520D01*
X118873315Y-90391786D01*
X118929859Y-90504706D01*
X118981108Y-90668407D01*
X118986099Y-90687878D01*
X119018508Y-90794017D01*
X119050260Y-90856943D01*
X119070997Y-90871323D01*
X119098976Y-90846302D01*
X119113457Y-90781036D01*
X119113893Y-90690215D01*
X119099736Y-90588533D01*
X119083779Y-90527694D01*
X119010868Y-90356504D01*
X118920615Y-90237321D01*
X118817408Y-90170060D01*
X118705638Y-90154635D01*
X118589695Y-90190961D01*
X118473967Y-90278951D01*
X118362846Y-90418520D01*
X118292006Y-90543142D01*
X118247357Y-90647808D01*
X118235574Y-90710326D01*
X118252711Y-90727847D01*
X118252711Y-90727847D01*
G37*
X118252711Y-90727847D02*
X118294821Y-90697522D01*
X118357958Y-90616502D01*
X118369471Y-90599069D01*
X118472205Y-90454511D01*
X118562959Y-90359117D01*
X118647166Y-90308362D01*
X118730255Y-90297718D01*
X118730933Y-90297782D01*
X118808124Y-90324520D01*
X118873315Y-90391786D01*
X118929859Y-90504706D01*
X118981108Y-90668407D01*
X118986099Y-90687878D01*
X119018508Y-90794017D01*
X119050260Y-90856943D01*
X119070997Y-90871323D01*
X119098976Y-90846302D01*
X119113457Y-90781036D01*
X119113893Y-90690215D01*
X119099736Y-90588533D01*
X119083779Y-90527694D01*
X119010868Y-90356504D01*
X118920615Y-90237321D01*
X118817408Y-90170060D01*
X118705638Y-90154635D01*
X118589695Y-90190961D01*
X118473967Y-90278951D01*
X118362846Y-90418520D01*
X118292006Y-90543142D01*
X118247357Y-90647808D01*
X118235574Y-90710326D01*
X118252711Y-90727847D01*
G36*
X119349520Y-96896767D02*
X119349520Y-96614545D01*
X119351179Y-96480775D01*
X119356942Y-96394861D01*
X119367991Y-96348291D01*
X119385506Y-96332551D01*
X119388669Y-96332323D01*
X119411714Y-96349876D01*
X119427510Y-96407569D01*
X119437953Y-96512950D01*
X119439160Y-96533057D01*
X119447206Y-96640611D01*
X119461241Y-96710517D01*
X119488597Y-96761557D01*
X119536602Y-96812510D01*
X119554819Y-96829390D01*
X119631142Y-96890366D01*
X119701893Y-96918307D01*
X119793606Y-96924803D01*
X119937026Y-96902171D01*
X120054711Y-96838800D01*
X120129784Y-96750301D01*
X120148587Y-96683437D01*
X120160997Y-96564226D01*
X120166660Y-96396441D01*
X120166965Y-96353489D01*
X120167965Y-96021878D01*
X119857520Y-96021878D01*
X119857520Y-96320281D01*
X119856679Y-96453222D01*
X119853081Y-96539175D01*
X119845112Y-96587582D01*
X119831157Y-96607887D01*
X119809603Y-96609535D01*
X119808131Y-96609266D01*
X119780734Y-96593247D01*
X119762328Y-96550263D01*
X119758742Y-96527629D01*
X119758742Y-96755656D01*
X119772854Y-96769767D01*
X119758742Y-96783878D01*
X119744631Y-96769767D01*
X119758742Y-96755656D01*
X119758742Y-96527629D01*
X119749456Y-96469016D01*
X119742849Y-96395907D01*
X119729571Y-96276376D01*
X119708931Y-96196356D01*
X119675840Y-96138961D01*
X119659873Y-96120558D01*
X119589735Y-96069635D01*
X119589735Y-96376626D01*
X119594179Y-96407129D01*
X119595448Y-96459323D01*
X119593655Y-96526252D01*
X119588625Y-96550717D01*
X119583654Y-96537322D01*
X119578572Y-96459896D01*
X119583268Y-96396211D01*
X119589735Y-96376626D01*
X119589735Y-96069635D01*
X119551326Y-96041748D01*
X119426629Y-96008682D01*
X119299687Y-96020371D01*
X119192513Y-96071927D01*
X119192513Y-96437182D01*
X119196270Y-96458428D01*
X119198428Y-96525608D01*
X119198734Y-96572212D01*
X119197662Y-96661509D01*
X119194635Y-96709472D01*
X119190208Y-96709939D01*
X119187895Y-96692902D01*
X119183326Y-96592710D01*
X119186432Y-96483134D01*
X119187708Y-96467124D01*
X119192513Y-96437182D01*
X119192513Y-96071927D01*
X119184405Y-96075828D01*
X119103607Y-96160107D01*
X119075114Y-96207986D01*
X119056433Y-96259038D01*
X119045547Y-96326283D01*
X119040436Y-96422743D01*
X119039082Y-96561436D01*
X119039076Y-96576385D01*
X119039076Y-96896767D01*
X119349520Y-96896767D01*
X119349520Y-96896767D01*
G37*
X119349520Y-96896767D02*
X119349520Y-96614545D01*
X119351179Y-96480775D01*
X119356942Y-96394861D01*
X119367991Y-96348291D01*
X119385506Y-96332551D01*
X119388669Y-96332323D01*
X119411714Y-96349876D01*
X119427510Y-96407569D01*
X119437953Y-96512950D01*
X119439160Y-96533057D01*
X119447206Y-96640611D01*
X119461241Y-96710517D01*
X119488597Y-96761557D01*
X119536602Y-96812510D01*
X119554819Y-96829390D01*
X119631142Y-96890366D01*
X119701893Y-96918307D01*
X119793606Y-96924803D01*
X119937026Y-96902171D01*
X120054711Y-96838800D01*
X120129784Y-96750301D01*
X120148587Y-96683437D01*
X120160997Y-96564226D01*
X120166660Y-96396441D01*
X120166965Y-96353489D01*
X120167965Y-96021878D01*
X119857520Y-96021878D01*
X119857520Y-96320281D01*
X119856679Y-96453222D01*
X119853081Y-96539175D01*
X119845112Y-96587582D01*
X119831157Y-96607887D01*
X119809603Y-96609535D01*
X119808131Y-96609266D01*
X119780734Y-96593247D01*
X119762328Y-96550263D01*
X119758742Y-96527629D01*
X119758742Y-96755656D01*
X119772854Y-96769767D01*
X119758742Y-96783878D01*
X119744631Y-96769767D01*
X119758742Y-96755656D01*
X119758742Y-96527629D01*
X119749456Y-96469016D01*
X119742849Y-96395907D01*
X119729571Y-96276376D01*
X119708931Y-96196356D01*
X119675840Y-96138961D01*
X119659873Y-96120558D01*
X119589735Y-96069635D01*
X119589735Y-96376626D01*
X119594179Y-96407129D01*
X119595448Y-96459323D01*
X119593655Y-96526252D01*
X119588625Y-96550717D01*
X119583654Y-96537322D01*
X119578572Y-96459896D01*
X119583268Y-96396211D01*
X119589735Y-96376626D01*
X119589735Y-96069635D01*
X119551326Y-96041748D01*
X119426629Y-96008682D01*
X119299687Y-96020371D01*
X119192513Y-96071927D01*
X119192513Y-96437182D01*
X119196270Y-96458428D01*
X119198428Y-96525608D01*
X119198734Y-96572212D01*
X119197662Y-96661509D01*
X119194635Y-96709472D01*
X119190208Y-96709939D01*
X119187895Y-96692902D01*
X119183326Y-96592710D01*
X119186432Y-96483134D01*
X119187708Y-96467124D01*
X119192513Y-96437182D01*
X119192513Y-96071927D01*
X119184405Y-96075828D01*
X119103607Y-96160107D01*
X119075114Y-96207986D01*
X119056433Y-96259038D01*
X119045547Y-96326283D01*
X119040436Y-96422743D01*
X119039082Y-96561436D01*
X119039076Y-96576385D01*
X119039076Y-96896767D01*
X119349520Y-96896767D01*
G36*
X119039181Y-95379823D02*
X119044412Y-95562068D01*
X119062295Y-95697625D01*
X119096322Y-95795500D01*
X119149985Y-95864703D01*
X119226775Y-95914240D01*
X119250454Y-95924799D01*
X119339820Y-95947368D01*
X119465771Y-95960902D01*
X119609472Y-95965352D01*
X119752084Y-95960674D01*
X119874772Y-95946821D01*
X119952466Y-95926520D01*
X120036543Y-95884089D01*
X120095936Y-95831865D01*
X120134694Y-95759901D01*
X120156867Y-95658252D01*
X120166504Y-95516969D01*
X120167965Y-95397183D01*
X120167965Y-95062323D01*
X120012742Y-95062323D01*
X120012742Y-95654989D01*
X120026854Y-95669100D01*
X120012742Y-95683212D01*
X119998631Y-95669100D01*
X120012742Y-95654989D01*
X120012742Y-95062323D01*
X119349520Y-95062323D01*
X119349520Y-95400989D01*
X119860766Y-95400989D01*
X119852087Y-95520934D01*
X119843409Y-95640878D01*
X119636187Y-95649223D01*
X119504766Y-95649697D01*
X119419693Y-95635157D01*
X119371789Y-95600706D01*
X119351872Y-95541446D01*
X119349520Y-95496311D01*
X119349520Y-95400989D01*
X119349520Y-95062323D01*
X119192898Y-95062323D01*
X119192898Y-95298556D01*
X119196740Y-95324285D01*
X119198758Y-95394677D01*
X119198921Y-95429212D01*
X119197695Y-95514010D01*
X119194428Y-95556232D01*
X119189737Y-95549988D01*
X119187850Y-95535045D01*
X119183283Y-95429072D01*
X119187850Y-95323378D01*
X119192898Y-95298556D01*
X119192898Y-95062323D01*
X119039076Y-95062323D01*
X119039181Y-95379823D01*
X119039181Y-95379823D01*
G37*
X119039181Y-95379823D02*
X119044412Y-95562068D01*
X119062295Y-95697625D01*
X119096322Y-95795500D01*
X119149985Y-95864703D01*
X119226775Y-95914240D01*
X119250454Y-95924799D01*
X119339820Y-95947368D01*
X119465771Y-95960902D01*
X119609472Y-95965352D01*
X119752084Y-95960674D01*
X119874772Y-95946821D01*
X119952466Y-95926520D01*
X120036543Y-95884089D01*
X120095936Y-95831865D01*
X120134694Y-95759901D01*
X120156867Y-95658252D01*
X120166504Y-95516969D01*
X120167965Y-95397183D01*
X120167965Y-95062323D01*
X120012742Y-95062323D01*
X120012742Y-95654989D01*
X120026854Y-95669100D01*
X120012742Y-95683212D01*
X119998631Y-95669100D01*
X120012742Y-95654989D01*
X120012742Y-95062323D01*
X119349520Y-95062323D01*
X119349520Y-95400989D01*
X119860766Y-95400989D01*
X119852087Y-95520934D01*
X119843409Y-95640878D01*
X119636187Y-95649223D01*
X119504766Y-95649697D01*
X119419693Y-95635157D01*
X119371789Y-95600706D01*
X119351872Y-95541446D01*
X119349520Y-95496311D01*
X119349520Y-95400989D01*
X119349520Y-95062323D01*
X119192898Y-95062323D01*
X119192898Y-95298556D01*
X119196740Y-95324285D01*
X119198758Y-95394677D01*
X119198921Y-95429212D01*
X119197695Y-95514010D01*
X119194428Y-95556232D01*
X119189737Y-95549988D01*
X119187850Y-95535045D01*
X119183283Y-95429072D01*
X119187850Y-95323378D01*
X119192898Y-95298556D01*
X119192898Y-95062323D01*
X119039076Y-95062323D01*
X119039181Y-95379823D01*
G36*
X119047195Y-94667025D02*
X119074570Y-94786374D01*
X119126042Y-94877555D01*
X119197540Y-94946942D01*
X119236780Y-94972939D01*
X119283643Y-94990029D01*
X119350272Y-95000014D01*
X119448806Y-95004696D01*
X119591388Y-95005878D01*
X119594617Y-95005878D01*
X119789373Y-95000603D01*
X119935149Y-94980796D01*
X120038755Y-94940484D01*
X120107002Y-94873694D01*
X120146700Y-94774454D01*
X120164661Y-94636791D01*
X120167965Y-94503086D01*
X120165923Y-94375177D01*
X120158039Y-94288992D01*
X120141671Y-94229898D01*
X120114178Y-94183266D01*
X120109028Y-94176565D01*
X120042727Y-94106812D01*
X120012742Y-94088671D01*
X120012742Y-94300323D01*
X120026854Y-94314434D01*
X120012742Y-94328545D01*
X119998631Y-94314434D01*
X120012742Y-94300323D01*
X120012742Y-94088671D01*
X119965564Y-94060128D01*
X119871631Y-94034298D01*
X119871631Y-94836545D01*
X119885742Y-94850656D01*
X119871631Y-94864767D01*
X119857520Y-94850656D01*
X119871631Y-94836545D01*
X119871631Y-94034298D01*
X119865190Y-94032526D01*
X119729260Y-94020021D01*
X119679804Y-94019167D01*
X119679804Y-94332047D01*
X119767152Y-94333995D01*
X119817297Y-94339685D01*
X119819601Y-94340445D01*
X119843979Y-94375730D01*
X119855944Y-94460472D01*
X119857520Y-94526313D01*
X119857520Y-94697631D01*
X119610576Y-94689477D01*
X119363631Y-94681323D01*
X119363631Y-94342656D01*
X119572657Y-94334275D01*
X119679804Y-94332047D01*
X119679804Y-94019167D01*
X119618126Y-94018100D01*
X119419999Y-94026567D01*
X119335409Y-94042784D01*
X119335409Y-94836545D01*
X119349520Y-94850656D01*
X119335409Y-94864767D01*
X119321298Y-94850656D01*
X119335409Y-94836545D01*
X119335409Y-94042784D01*
X119270354Y-94055256D01*
X119194623Y-94093362D01*
X119194623Y-94429292D01*
X119199068Y-94459795D01*
X119200337Y-94511989D01*
X119198544Y-94578919D01*
X119193513Y-94603384D01*
X119188543Y-94589988D01*
X119183461Y-94512563D01*
X119188157Y-94448877D01*
X119194623Y-94429292D01*
X119194623Y-94093362D01*
X119163338Y-94109104D01*
X119093098Y-94193046D01*
X119053782Y-94312019D01*
X119039537Y-94470957D01*
X119039181Y-94506335D01*
X119047195Y-94667025D01*
X119047195Y-94667025D01*
G37*
X119047195Y-94667025D02*
X119074570Y-94786374D01*
X119126042Y-94877555D01*
X119197540Y-94946942D01*
X119236780Y-94972939D01*
X119283643Y-94990029D01*
X119350272Y-95000014D01*
X119448806Y-95004696D01*
X119591388Y-95005878D01*
X119594617Y-95005878D01*
X119789373Y-95000603D01*
X119935149Y-94980796D01*
X120038755Y-94940484D01*
X120107002Y-94873694D01*
X120146700Y-94774454D01*
X120164661Y-94636791D01*
X120167965Y-94503086D01*
X120165923Y-94375177D01*
X120158039Y-94288992D01*
X120141671Y-94229898D01*
X120114178Y-94183266D01*
X120109028Y-94176565D01*
X120042727Y-94106812D01*
X120012742Y-94088671D01*
X120012742Y-94300323D01*
X120026854Y-94314434D01*
X120012742Y-94328545D01*
X119998631Y-94314434D01*
X120012742Y-94300323D01*
X120012742Y-94088671D01*
X119965564Y-94060128D01*
X119871631Y-94034298D01*
X119871631Y-94836545D01*
X119885742Y-94850656D01*
X119871631Y-94864767D01*
X119857520Y-94850656D01*
X119871631Y-94836545D01*
X119871631Y-94034298D01*
X119865190Y-94032526D01*
X119729260Y-94020021D01*
X119679804Y-94019167D01*
X119679804Y-94332047D01*
X119767152Y-94333995D01*
X119817297Y-94339685D01*
X119819601Y-94340445D01*
X119843979Y-94375730D01*
X119855944Y-94460472D01*
X119857520Y-94526313D01*
X119857520Y-94697631D01*
X119610576Y-94689477D01*
X119363631Y-94681323D01*
X119363631Y-94342656D01*
X119572657Y-94334275D01*
X119679804Y-94332047D01*
X119679804Y-94019167D01*
X119618126Y-94018100D01*
X119419999Y-94026567D01*
X119335409Y-94042784D01*
X119335409Y-94836545D01*
X119349520Y-94850656D01*
X119335409Y-94864767D01*
X119321298Y-94850656D01*
X119335409Y-94836545D01*
X119335409Y-94042784D01*
X119270354Y-94055256D01*
X119194623Y-94093362D01*
X119194623Y-94429292D01*
X119199068Y-94459795D01*
X119200337Y-94511989D01*
X119198544Y-94578919D01*
X119193513Y-94603384D01*
X119188543Y-94589988D01*
X119183461Y-94512563D01*
X119188157Y-94448877D01*
X119194623Y-94429292D01*
X119194623Y-94093362D01*
X119163338Y-94109104D01*
X119093098Y-94193046D01*
X119053782Y-94312019D01*
X119039537Y-94470957D01*
X119039181Y-94506335D01*
X119047195Y-94667025D01*
G36*
X119042846Y-93006742D02*
X119052645Y-93068100D01*
X119063975Y-93086767D01*
X119098007Y-93098330D01*
X119171558Y-93129723D01*
X119273428Y-93176004D01*
X119379816Y-93226179D01*
X119670757Y-93365590D01*
X119354917Y-93512602D01*
X119039076Y-93659613D01*
X119039076Y-93961656D01*
X120167965Y-93961656D01*
X120167965Y-93651212D01*
X120005687Y-93649854D01*
X119843409Y-93648497D01*
X120005687Y-93564735D01*
X120093174Y-93517832D01*
X120141722Y-93481766D01*
X120162795Y-93441968D01*
X120167855Y-93383865D01*
X120167965Y-93358459D01*
X120167965Y-93235945D01*
X119977465Y-93149549D01*
X119786965Y-93063154D01*
X119977465Y-93060849D01*
X120167965Y-93058545D01*
X120167965Y-92748100D01*
X119039076Y-92748100D01*
X119039076Y-92917434D01*
X119042846Y-93006742D01*
X119042846Y-93006742D01*
G37*
X119042846Y-93006742D02*
X119052645Y-93068100D01*
X119063975Y-93086767D01*
X119098007Y-93098330D01*
X119171558Y-93129723D01*
X119273428Y-93176004D01*
X119379816Y-93226179D01*
X119670757Y-93365590D01*
X119354917Y-93512602D01*
X119039076Y-93659613D01*
X119039076Y-93961656D01*
X120167965Y-93961656D01*
X120167965Y-93651212D01*
X120005687Y-93649854D01*
X119843409Y-93648497D01*
X120005687Y-93564735D01*
X120093174Y-93517832D01*
X120141722Y-93481766D01*
X120162795Y-93441968D01*
X120167855Y-93383865D01*
X120167965Y-93358459D01*
X120167965Y-93235945D01*
X119977465Y-93149549D01*
X119786965Y-93063154D01*
X119977465Y-93060849D01*
X120167965Y-93058545D01*
X120167965Y-92748100D01*
X119039076Y-92748100D01*
X119039076Y-92917434D01*
X119042846Y-93006742D01*
G36*
X118689036Y-92083140D02*
X118734962Y-92144945D01*
X118803036Y-92232124D01*
X118886329Y-92335629D01*
X118890009Y-92340139D01*
X119005445Y-92475404D01*
X119092093Y-92562999D01*
X119150515Y-92603467D01*
X119165175Y-92606604D01*
X119243012Y-92599306D01*
X119307396Y-92572941D01*
X119368943Y-92519028D01*
X119438272Y-92429086D01*
X119495397Y-92342833D01*
X119553169Y-92253015D01*
X119635225Y-92125808D01*
X119735127Y-91971175D01*
X119846435Y-91799077D01*
X119962713Y-91619476D01*
X120031109Y-91513920D01*
X120419487Y-90914740D01*
X120244337Y-90792138D01*
X120057308Y-90661270D01*
X119910281Y-90559093D01*
X119796925Y-90482058D01*
X119710911Y-90426619D01*
X119645906Y-90389228D01*
X119595582Y-90366336D01*
X119553607Y-90354398D01*
X119515726Y-90350102D01*
X119515726Y-90438456D01*
X119563073Y-90446706D01*
X119640431Y-90482594D01*
X119752106Y-90548499D01*
X119902401Y-90646801D01*
X119946115Y-90676446D01*
X120070438Y-90761897D01*
X120176416Y-90836016D01*
X120256100Y-90893140D01*
X120301542Y-90927607D01*
X120309076Y-90934973D01*
X120294394Y-90960516D01*
X120252775Y-91027757D01*
X120187857Y-91130946D01*
X120103281Y-91264337D01*
X120002684Y-91422181D01*
X119889707Y-91598730D01*
X119825441Y-91698872D01*
X119705663Y-91884824D01*
X119594471Y-92056468D01*
X119495830Y-92207762D01*
X119413706Y-92332658D01*
X119352063Y-92425114D01*
X119314867Y-92479083D01*
X119306666Y-92489757D01*
X119256027Y-92517606D01*
X119229740Y-92517979D01*
X119227215Y-92498261D01*
X119249510Y-92444278D01*
X119297990Y-92353631D01*
X119374018Y-92223921D01*
X119478958Y-92052749D01*
X119614174Y-91837717D01*
X119636437Y-91802656D01*
X119752114Y-91620311D01*
X119859561Y-91450255D01*
X119954564Y-91299210D01*
X120032909Y-91173899D01*
X120090383Y-91081044D01*
X120122773Y-91027370D01*
X120126463Y-91020849D01*
X120168008Y-90944597D01*
X119808153Y-90696293D01*
X119671316Y-90600738D01*
X119577095Y-90531710D01*
X119520748Y-90485028D01*
X119497533Y-90456511D01*
X119502706Y-90441976D01*
X119515726Y-90438456D01*
X119515726Y-90350102D01*
X119513650Y-90349866D01*
X119469381Y-90349192D01*
X119453908Y-90349212D01*
X119393775Y-90351543D01*
X119393775Y-90579158D01*
X119419470Y-90589116D01*
X119479739Y-90625190D01*
X119563803Y-90679893D01*
X119660884Y-90745739D01*
X119760203Y-90815240D01*
X119850983Y-90880909D01*
X119922446Y-90935259D01*
X119963812Y-90970803D01*
X119969850Y-90979329D01*
X119956400Y-91011684D01*
X119919532Y-91081380D01*
X119865184Y-91177552D01*
X119811253Y-91269373D01*
X119745303Y-91378201D01*
X119689104Y-91467804D01*
X119649313Y-91527766D01*
X119633532Y-91547550D01*
X119609883Y-91534983D01*
X119609883Y-91647434D01*
X119624826Y-91649921D01*
X119626694Y-91663422D01*
X119611271Y-91697000D01*
X119574342Y-91759716D01*
X119511691Y-91860633D01*
X119507787Y-91866878D01*
X119451147Y-91952212D01*
X119403440Y-92014670D01*
X119374000Y-92042168D01*
X119372065Y-92042545D01*
X119358797Y-92041950D01*
X119355153Y-92033994D01*
X119365539Y-92009419D01*
X119394360Y-91958966D01*
X119446023Y-91873378D01*
X119476141Y-91823823D01*
X119531676Y-91737989D01*
X119578717Y-91675239D01*
X119608012Y-91647778D01*
X119609883Y-91647434D01*
X119609883Y-91534983D01*
X119607278Y-91533598D01*
X119549966Y-91487048D01*
X119470295Y-91415375D01*
X119438150Y-91384689D01*
X119438150Y-91494661D01*
X119449067Y-91520692D01*
X119430144Y-91537640D01*
X119407958Y-91558464D01*
X119413671Y-91562335D01*
X119415756Y-91582609D01*
X119390748Y-91631031D01*
X119389258Y-91633323D01*
X119364749Y-91683682D01*
X119373179Y-91703872D01*
X119373611Y-91703878D01*
X119391010Y-91724790D01*
X119385788Y-91751840D01*
X119366493Y-91778773D01*
X119356100Y-91765951D01*
X119327406Y-91734161D01*
X119317281Y-91732100D01*
X119301419Y-91748907D01*
X119304617Y-91756165D01*
X119301161Y-91794598D01*
X119278965Y-91833763D01*
X119278965Y-91901434D01*
X119293076Y-91915545D01*
X119278965Y-91929656D01*
X119264854Y-91915545D01*
X119278965Y-91901434D01*
X119278965Y-91833763D01*
X119278958Y-91833776D01*
X119246997Y-91867450D01*
X119237965Y-91856755D01*
X119250365Y-91808206D01*
X119282697Y-91728320D01*
X119322248Y-91645551D01*
X119372337Y-91557142D01*
X119413799Y-91504417D01*
X119438150Y-91494661D01*
X119438150Y-91384689D01*
X119385398Y-91334329D01*
X119202549Y-91155364D01*
X119202549Y-91257955D01*
X119207545Y-91266434D01*
X119193493Y-91312813D01*
X119180187Y-91336989D01*
X119157824Y-91359579D01*
X119152829Y-91351100D01*
X119166881Y-91304721D01*
X119180187Y-91280545D01*
X119202549Y-91257955D01*
X119202549Y-91155364D01*
X119155828Y-91109635D01*
X119270524Y-90849368D01*
X119319515Y-90739079D01*
X119359879Y-90649864D01*
X119386380Y-90593200D01*
X119393775Y-90579158D01*
X119393775Y-90351543D01*
X119347221Y-90353348D01*
X119291441Y-90367767D01*
X119281499Y-90395480D01*
X119308686Y-90435535D01*
X119325313Y-90460004D01*
X119329760Y-90491613D01*
X119319420Y-90540088D01*
X119291681Y-90615148D01*
X119243933Y-90726519D01*
X119210258Y-90802169D01*
X119145744Y-90952013D01*
X119137854Y-90973305D01*
X119137854Y-91393434D01*
X119151965Y-91407545D01*
X119137854Y-91421656D01*
X119136500Y-91420303D01*
X119136500Y-91968887D01*
X119185655Y-91990920D01*
X119241834Y-92033666D01*
X119283679Y-92079058D01*
X119293076Y-92101341D01*
X119279575Y-92134794D01*
X119244062Y-92202210D01*
X119194026Y-92289429D01*
X119190475Y-92295403D01*
X119138518Y-92377705D01*
X119097135Y-92434215D01*
X119074521Y-92453861D01*
X119073564Y-92453330D01*
X119076622Y-92423098D01*
X119091985Y-92399582D01*
X119111290Y-92342086D01*
X119106695Y-92313182D01*
X119109526Y-92265759D01*
X119137623Y-92213061D01*
X119176485Y-92175026D01*
X119210310Y-92170720D01*
X119224168Y-92159935D01*
X119225171Y-92116222D01*
X119215003Y-92061192D01*
X119198682Y-92021417D01*
X119158763Y-92000869D01*
X119136950Y-92004464D01*
X119101199Y-92003918D01*
X119095520Y-91991617D01*
X119095520Y-92042545D01*
X119142688Y-92062501D01*
X119151965Y-92098989D01*
X119135586Y-92144762D01*
X119112651Y-92155434D01*
X119069597Y-92132576D01*
X119056206Y-92110792D01*
X119041339Y-92060741D01*
X119059669Y-92044102D01*
X119095520Y-92042545D01*
X119095520Y-91991617D01*
X119117639Y-91969365D01*
X119136500Y-91968887D01*
X119136500Y-91420303D01*
X119123742Y-91407545D01*
X119137854Y-91393434D01*
X119137854Y-90973305D01*
X119109631Y-91049469D01*
X119109631Y-91449878D01*
X119123742Y-91463989D01*
X119109631Y-91478100D01*
X119095520Y-91463989D01*
X119109631Y-91449878D01*
X119109631Y-91049469D01*
X119106642Y-91057536D01*
X119091284Y-91123938D01*
X119096930Y-91155244D01*
X119099381Y-91195931D01*
X119081409Y-91260888D01*
X119081409Y-91506323D01*
X119095520Y-91520434D01*
X119081409Y-91534545D01*
X119067298Y-91520434D01*
X119081409Y-91506323D01*
X119081409Y-91260888D01*
X119079313Y-91268464D01*
X119053187Y-91334003D01*
X119053187Y-91562767D01*
X119067298Y-91576878D01*
X119053187Y-91590989D01*
X119039076Y-91576878D01*
X119053187Y-91562767D01*
X119053187Y-91334003D01*
X119044046Y-91356935D01*
X119024965Y-91396076D01*
X119024965Y-91619212D01*
X119039076Y-91633323D01*
X119024965Y-91647434D01*
X119010854Y-91633323D01*
X119024965Y-91619212D01*
X119024965Y-91396076D01*
X119000903Y-91445436D01*
X118957205Y-91518058D01*
X118924381Y-91554351D01*
X118924381Y-91675656D01*
X118954002Y-91695983D01*
X118997608Y-91746292D01*
X119044094Y-91810574D01*
X119082356Y-91872822D01*
X119101290Y-91917028D01*
X119099357Y-91927907D01*
X119074220Y-91960047D01*
X119034371Y-92027063D01*
X119010854Y-92071486D01*
X119010854Y-92155434D01*
X119034084Y-92165760D01*
X119029668Y-92174249D01*
X119000735Y-92177166D01*
X119000735Y-92215607D01*
X119023747Y-92221617D01*
X119059867Y-92254509D01*
X119063972Y-92296692D01*
X119035983Y-92323407D01*
X119024079Y-92324767D01*
X118982352Y-92304520D01*
X118956936Y-92261410D01*
X118963233Y-92221886D01*
X118963816Y-92221286D01*
X119000735Y-92215607D01*
X119000735Y-92177166D01*
X118996175Y-92177626D01*
X118992039Y-92174249D01*
X118995913Y-92157470D01*
X119010854Y-92155434D01*
X119010854Y-92071486D01*
X118998598Y-92094638D01*
X118955571Y-92177362D01*
X118927160Y-92217312D01*
X118902888Y-92222272D01*
X118872281Y-92200030D01*
X118865283Y-92193731D01*
X118803614Y-92129543D01*
X118775465Y-92069292D01*
X118779134Y-91996979D01*
X118812917Y-91896602D01*
X118829433Y-91856827D01*
X118869955Y-91767069D01*
X118903737Y-91702266D01*
X118923798Y-91675740D01*
X118924381Y-91675656D01*
X118924381Y-91554351D01*
X118920275Y-91558892D01*
X118909367Y-91562767D01*
X118888032Y-91586512D01*
X118851508Y-91648591D01*
X118806402Y-91735274D01*
X118759321Y-91832828D01*
X118716870Y-91927521D01*
X118685658Y-92005621D01*
X118672289Y-92053397D01*
X118672187Y-92055756D01*
X118689036Y-92083140D01*
X118689036Y-92083140D01*
G37*
X118689036Y-92083140D02*
X118734962Y-92144945D01*
X118803036Y-92232124D01*
X118886329Y-92335629D01*
X118890009Y-92340139D01*
X119005445Y-92475404D01*
X119092093Y-92562999D01*
X119150515Y-92603467D01*
X119165175Y-92606604D01*
X119243012Y-92599306D01*
X119307396Y-92572941D01*
X119368943Y-92519028D01*
X119438272Y-92429086D01*
X119495397Y-92342833D01*
X119553169Y-92253015D01*
X119635225Y-92125808D01*
X119735127Y-91971175D01*
X119846435Y-91799077D01*
X119962713Y-91619476D01*
X120031109Y-91513920D01*
X120419487Y-90914740D01*
X120244337Y-90792138D01*
X120057308Y-90661270D01*
X119910281Y-90559093D01*
X119796925Y-90482058D01*
X119710911Y-90426619D01*
X119645906Y-90389228D01*
X119595582Y-90366336D01*
X119553607Y-90354398D01*
X119515726Y-90350102D01*
X119515726Y-90438456D01*
X119563073Y-90446706D01*
X119640431Y-90482594D01*
X119752106Y-90548499D01*
X119902401Y-90646801D01*
X119946115Y-90676446D01*
X120070438Y-90761897D01*
X120176416Y-90836016D01*
X120256100Y-90893140D01*
X120301542Y-90927607D01*
X120309076Y-90934973D01*
X120294394Y-90960516D01*
X120252775Y-91027757D01*
X120187857Y-91130946D01*
X120103281Y-91264337D01*
X120002684Y-91422181D01*
X119889707Y-91598730D01*
X119825441Y-91698872D01*
X119705663Y-91884824D01*
X119594471Y-92056468D01*
X119495830Y-92207762D01*
X119413706Y-92332658D01*
X119352063Y-92425114D01*
X119314867Y-92479083D01*
X119306666Y-92489757D01*
X119256027Y-92517606D01*
X119229740Y-92517979D01*
X119227215Y-92498261D01*
X119249510Y-92444278D01*
X119297990Y-92353631D01*
X119374018Y-92223921D01*
X119478958Y-92052749D01*
X119614174Y-91837717D01*
X119636437Y-91802656D01*
X119752114Y-91620311D01*
X119859561Y-91450255D01*
X119954564Y-91299210D01*
X120032909Y-91173899D01*
X120090383Y-91081044D01*
X120122773Y-91027370D01*
X120126463Y-91020849D01*
X120168008Y-90944597D01*
X119808153Y-90696293D01*
X119671316Y-90600738D01*
X119577095Y-90531710D01*
X119520748Y-90485028D01*
X119497533Y-90456511D01*
X119502706Y-90441976D01*
X119515726Y-90438456D01*
X119515726Y-90350102D01*
X119513650Y-90349866D01*
X119469381Y-90349192D01*
X119453908Y-90349212D01*
X119393775Y-90351543D01*
X119393775Y-90579158D01*
X119419470Y-90589116D01*
X119479739Y-90625190D01*
X119563803Y-90679893D01*
X119660884Y-90745739D01*
X119760203Y-90815240D01*
X119850983Y-90880909D01*
X119922446Y-90935259D01*
X119963812Y-90970803D01*
X119969850Y-90979329D01*
X119956400Y-91011684D01*
X119919532Y-91081380D01*
X119865184Y-91177552D01*
X119811253Y-91269373D01*
X119745303Y-91378201D01*
X119689104Y-91467804D01*
X119649313Y-91527766D01*
X119633532Y-91547550D01*
X119609883Y-91534983D01*
X119609883Y-91647434D01*
X119624826Y-91649921D01*
X119626694Y-91663422D01*
X119611271Y-91697000D01*
X119574342Y-91759716D01*
X119511691Y-91860633D01*
X119507787Y-91866878D01*
X119451147Y-91952212D01*
X119403440Y-92014670D01*
X119374000Y-92042168D01*
X119372065Y-92042545D01*
X119358797Y-92041950D01*
X119355153Y-92033994D01*
X119365539Y-92009419D01*
X119394360Y-91958966D01*
X119446023Y-91873378D01*
X119476141Y-91823823D01*
X119531676Y-91737989D01*
X119578717Y-91675239D01*
X119608012Y-91647778D01*
X119609883Y-91647434D01*
X119609883Y-91534983D01*
X119607278Y-91533598D01*
X119549966Y-91487048D01*
X119470295Y-91415375D01*
X119438150Y-91384689D01*
X119438150Y-91494661D01*
X119449067Y-91520692D01*
X119430144Y-91537640D01*
X119407958Y-91558464D01*
X119413671Y-91562335D01*
X119415756Y-91582609D01*
X119390748Y-91631031D01*
X119389258Y-91633323D01*
X119364749Y-91683682D01*
X119373179Y-91703872D01*
X119373611Y-91703878D01*
X119391010Y-91724790D01*
X119385788Y-91751840D01*
X119366493Y-91778773D01*
X119356100Y-91765951D01*
X119327406Y-91734161D01*
X119317281Y-91732100D01*
X119301419Y-91748907D01*
X119304617Y-91756165D01*
X119301161Y-91794598D01*
X119278965Y-91833763D01*
X119278965Y-91901434D01*
X119293076Y-91915545D01*
X119278965Y-91929656D01*
X119264854Y-91915545D01*
X119278965Y-91901434D01*
X119278965Y-91833763D01*
X119278958Y-91833776D01*
X119246997Y-91867450D01*
X119237965Y-91856755D01*
X119250365Y-91808206D01*
X119282697Y-91728320D01*
X119322248Y-91645551D01*
X119372337Y-91557142D01*
X119413799Y-91504417D01*
X119438150Y-91494661D01*
X119438150Y-91384689D01*
X119385398Y-91334329D01*
X119202549Y-91155364D01*
X119202549Y-91257955D01*
X119207545Y-91266434D01*
X119193493Y-91312813D01*
X119180187Y-91336989D01*
X119157824Y-91359579D01*
X119152829Y-91351100D01*
X119166881Y-91304721D01*
X119180187Y-91280545D01*
X119202549Y-91257955D01*
X119202549Y-91155364D01*
X119155828Y-91109635D01*
X119270524Y-90849368D01*
X119319515Y-90739079D01*
X119359879Y-90649864D01*
X119386380Y-90593200D01*
X119393775Y-90579158D01*
X119393775Y-90351543D01*
X119347221Y-90353348D01*
X119291441Y-90367767D01*
X119281499Y-90395480D01*
X119308686Y-90435535D01*
X119325313Y-90460004D01*
X119329760Y-90491613D01*
X119319420Y-90540088D01*
X119291681Y-90615148D01*
X119243933Y-90726519D01*
X119210258Y-90802169D01*
X119145744Y-90952013D01*
X119137854Y-90973305D01*
X119137854Y-91393434D01*
X119151965Y-91407545D01*
X119137854Y-91421656D01*
X119136500Y-91420303D01*
X119136500Y-91968887D01*
X119185655Y-91990920D01*
X119241834Y-92033666D01*
X119283679Y-92079058D01*
X119293076Y-92101341D01*
X119279575Y-92134794D01*
X119244062Y-92202210D01*
X119194026Y-92289429D01*
X119190475Y-92295403D01*
X119138518Y-92377705D01*
X119097135Y-92434215D01*
X119074521Y-92453861D01*
X119073564Y-92453330D01*
X119076622Y-92423098D01*
X119091985Y-92399582D01*
X119111290Y-92342086D01*
X119106695Y-92313182D01*
X119109526Y-92265759D01*
X119137623Y-92213061D01*
X119176485Y-92175026D01*
X119210310Y-92170720D01*
X119224168Y-92159935D01*
X119225171Y-92116222D01*
X119215003Y-92061192D01*
X119198682Y-92021417D01*
X119158763Y-92000869D01*
X119136950Y-92004464D01*
X119101199Y-92003918D01*
X119095520Y-91991617D01*
X119095520Y-92042545D01*
X119142688Y-92062501D01*
X119151965Y-92098989D01*
X119135586Y-92144762D01*
X119112651Y-92155434D01*
X119069597Y-92132576D01*
X119056206Y-92110792D01*
X119041339Y-92060741D01*
X119059669Y-92044102D01*
X119095520Y-92042545D01*
X119095520Y-91991617D01*
X119117639Y-91969365D01*
X119136500Y-91968887D01*
X119136500Y-91420303D01*
X119123742Y-91407545D01*
X119137854Y-91393434D01*
X119137854Y-90973305D01*
X119109631Y-91049469D01*
X119109631Y-91449878D01*
X119123742Y-91463989D01*
X119109631Y-91478100D01*
X119095520Y-91463989D01*
X119109631Y-91449878D01*
X119109631Y-91049469D01*
X119106642Y-91057536D01*
X119091284Y-91123938D01*
X119096930Y-91155244D01*
X119099381Y-91195931D01*
X119081409Y-91260888D01*
X119081409Y-91506323D01*
X119095520Y-91520434D01*
X119081409Y-91534545D01*
X119067298Y-91520434D01*
X119081409Y-91506323D01*
X119081409Y-91260888D01*
X119079313Y-91268464D01*
X119053187Y-91334003D01*
X119053187Y-91562767D01*
X119067298Y-91576878D01*
X119053187Y-91590989D01*
X119039076Y-91576878D01*
X119053187Y-91562767D01*
X119053187Y-91334003D01*
X119044046Y-91356935D01*
X119024965Y-91396076D01*
X119024965Y-91619212D01*
X119039076Y-91633323D01*
X119024965Y-91647434D01*
X119010854Y-91633323D01*
X119024965Y-91619212D01*
X119024965Y-91396076D01*
X119000903Y-91445436D01*
X118957205Y-91518058D01*
X118924381Y-91554351D01*
X118924381Y-91675656D01*
X118954002Y-91695983D01*
X118997608Y-91746292D01*
X119044094Y-91810574D01*
X119082356Y-91872822D01*
X119101290Y-91917028D01*
X119099357Y-91927907D01*
X119074220Y-91960047D01*
X119034371Y-92027063D01*
X119010854Y-92071486D01*
X119010854Y-92155434D01*
X119034084Y-92165760D01*
X119029668Y-92174249D01*
X119000735Y-92177166D01*
X119000735Y-92215607D01*
X119023747Y-92221617D01*
X119059867Y-92254509D01*
X119063972Y-92296692D01*
X119035983Y-92323407D01*
X119024079Y-92324767D01*
X118982352Y-92304520D01*
X118956936Y-92261410D01*
X118963233Y-92221886D01*
X118963816Y-92221286D01*
X119000735Y-92215607D01*
X119000735Y-92177166D01*
X118996175Y-92177626D01*
X118992039Y-92174249D01*
X118995913Y-92157470D01*
X119010854Y-92155434D01*
X119010854Y-92071486D01*
X118998598Y-92094638D01*
X118955571Y-92177362D01*
X118927160Y-92217312D01*
X118902888Y-92222272D01*
X118872281Y-92200030D01*
X118865283Y-92193731D01*
X118803614Y-92129543D01*
X118775465Y-92069292D01*
X118779134Y-91996979D01*
X118812917Y-91896602D01*
X118829433Y-91856827D01*
X118869955Y-91767069D01*
X118903737Y-91702266D01*
X118923798Y-91675740D01*
X118924381Y-91675656D01*
X118924381Y-91554351D01*
X118920275Y-91558892D01*
X118909367Y-91562767D01*
X118888032Y-91586512D01*
X118851508Y-91648591D01*
X118806402Y-91735274D01*
X118759321Y-91832828D01*
X118716870Y-91927521D01*
X118685658Y-92005621D01*
X118672289Y-92053397D01*
X118672187Y-92055756D01*
X118689036Y-92083140D01*
G04 #@! TO.C,C1*
D13*
X136075913Y-97368054D02*
X136114008Y-97406149D01*
X136228294Y-97444244D01*
X136304484Y-97444244D01*
X136418770Y-97406149D01*
X136494960Y-97329959D01*
X136533056Y-97253768D01*
X136571151Y-97101387D01*
X136571151Y-96987101D01*
X136533056Y-96834720D01*
X136494960Y-96758530D01*
X136418770Y-96682340D01*
X136304484Y-96644244D01*
X136228294Y-96644244D01*
X136114008Y-96682340D01*
X136075913Y-96720435D01*
X135314008Y-97444244D02*
X135771151Y-97444244D01*
X135542580Y-97444244D02*
X135542580Y-96644244D01*
X135618770Y-96758530D01*
X135694960Y-96834720D01*
X135771151Y-96872816D01*
G04 #@! TO.C,C2*
D14*
X136046653Y-89985311D02*
X136070462Y-90009120D01*
X136141891Y-90032930D01*
X136189510Y-90032930D01*
X136260939Y-90009120D01*
X136308558Y-89961501D01*
X136332367Y-89913882D01*
X136356177Y-89818644D01*
X136356177Y-89747216D01*
X136332367Y-89651978D01*
X136308558Y-89604359D01*
X136260939Y-89556740D01*
X136189510Y-89532930D01*
X136141891Y-89532930D01*
X136070462Y-89556740D01*
X136046653Y-89580549D01*
X135856177Y-89580549D02*
X135832367Y-89556740D01*
X135784748Y-89532930D01*
X135665700Y-89532930D01*
X135618081Y-89556740D01*
X135594272Y-89580549D01*
X135570462Y-89628168D01*
X135570462Y-89675787D01*
X135594272Y-89747216D01*
X135879986Y-90032930D01*
X135570462Y-90032930D01*
G04 #@! TO.C,R1*
X125121552Y-96458051D02*
X125288219Y-96219956D01*
X125407266Y-96458051D02*
X125407266Y-95958051D01*
X125216790Y-95958051D01*
X125169171Y-95981861D01*
X125145361Y-96005670D01*
X125121552Y-96053289D01*
X125121552Y-96124718D01*
X125145361Y-96172337D01*
X125169171Y-96196146D01*
X125216790Y-96219956D01*
X125407266Y-96219956D01*
X124645361Y-96458051D02*
X124931076Y-96458051D01*
X124788219Y-96458051D02*
X124788219Y-95958051D01*
X124835838Y-96029480D01*
X124883457Y-96077099D01*
X124931076Y-96100908D01*
G04 #@! TO.C,R2*
X125066653Y-91016210D02*
X125233320Y-90778115D01*
X125352367Y-91016210D02*
X125352367Y-90516210D01*
X125161891Y-90516210D01*
X125114272Y-90540020D01*
X125090462Y-90563829D01*
X125066653Y-90611448D01*
X125066653Y-90682877D01*
X125090462Y-90730496D01*
X125114272Y-90754305D01*
X125161891Y-90778115D01*
X125352367Y-90778115D01*
X124876177Y-90563829D02*
X124852367Y-90540020D01*
X124804748Y-90516210D01*
X124685700Y-90516210D01*
X124638081Y-90540020D01*
X124614272Y-90563829D01*
X124590462Y-90611448D01*
X124590462Y-90659067D01*
X124614272Y-90730496D01*
X124899986Y-91016210D01*
X124590462Y-91016210D01*
G04 #@! TO.C,R3*
X125053713Y-93836630D02*
X125220380Y-93598535D01*
X125339427Y-93836630D02*
X125339427Y-93336630D01*
X125148951Y-93336630D01*
X125101332Y-93360440D01*
X125077522Y-93384249D01*
X125053713Y-93431868D01*
X125053713Y-93503297D01*
X125077522Y-93550916D01*
X125101332Y-93574725D01*
X125148951Y-93598535D01*
X125339427Y-93598535D01*
X124887046Y-93336630D02*
X124577522Y-93336630D01*
X124744189Y-93527106D01*
X124672760Y-93527106D01*
X124625141Y-93550916D01*
X124601332Y-93574725D01*
X124577522Y-93622344D01*
X124577522Y-93741392D01*
X124601332Y-93789011D01*
X124625141Y-93812820D01*
X124672760Y-93836630D01*
X124815618Y-93836630D01*
X124863237Y-93812820D01*
X124887046Y-93789011D01*
G04 #@! TO.C,R4*
X129867490Y-91369526D02*
X129629395Y-91202860D01*
X129867490Y-91083812D02*
X129367490Y-91083812D01*
X129367490Y-91274288D01*
X129391300Y-91321907D01*
X129415109Y-91345717D01*
X129462728Y-91369526D01*
X129534157Y-91369526D01*
X129581776Y-91345717D01*
X129605585Y-91321907D01*
X129629395Y-91274288D01*
X129629395Y-91083812D01*
X129534157Y-91798098D02*
X129867490Y-91798098D01*
X129343680Y-91679050D02*
X129700823Y-91560002D01*
X129700823Y-91869526D01*
G04 #@! TO.C,R5*
X129894451Y-95425027D02*
X129656356Y-95258361D01*
X129894451Y-95139313D02*
X129394451Y-95139313D01*
X129394451Y-95329789D01*
X129418261Y-95377408D01*
X129442070Y-95401218D01*
X129489689Y-95425027D01*
X129561118Y-95425027D01*
X129608737Y-95401218D01*
X129632546Y-95377408D01*
X129656356Y-95329789D01*
X129656356Y-95139313D01*
X129394451Y-95877408D02*
X129394451Y-95639313D01*
X129632546Y-95615503D01*
X129608737Y-95639313D01*
X129584927Y-95686932D01*
X129584927Y-95805980D01*
X129608737Y-95853599D01*
X129632546Y-95877408D01*
X129680165Y-95901218D01*
X129799213Y-95901218D01*
X129846832Y-95877408D01*
X129870641Y-95853599D01*
X129894451Y-95805980D01*
X129894451Y-95686932D01*
X129870641Y-95639313D01*
X129846832Y-95615503D01*
G04 #@! TO.C,U1*
D13*
X136132503Y-91169604D02*
X136132503Y-91817223D01*
X136094408Y-91893414D01*
X136056313Y-91931509D01*
X135980122Y-91969604D01*
X135827741Y-91969604D01*
X135751551Y-91931509D01*
X135713456Y-91893414D01*
X135675360Y-91817223D01*
X135675360Y-91169604D01*
X134875360Y-91969604D02*
X135332503Y-91969604D01*
X135103932Y-91969604D02*
X135103932Y-91169604D01*
X135180122Y-91283890D01*
X135256313Y-91360080D01*
X135332503Y-91398176D01*
G04 #@! TD*
M02*
