G04 #@! TF.GenerationSoftware,KiCad,Pcbnew,(5.0.0)*
G04 #@! TF.CreationDate,2018-09-10T18:50:31-05:00*
G04 #@! TF.ProjectId,mini-attinyuino,6D696E692D617474696E7975696E6F2E,1.0*
G04 #@! TF.SameCoordinates,Original*
G04 #@! TF.FileFunction,Copper,L1,Top,Signal*
G04 #@! TF.FilePolarity,Positive*
%FSLAX46Y46*%
G04 Gerber Fmt 4.6, Leading zero omitted, Abs format (unit mm)*
G04 Created by KiCad (PCBNEW (5.0.0)) date 09/10/18 18:50:31*
%MOMM*%
%LPD*%
G01*
G04 APERTURE LIST*
G04 #@! TA.AperFunction,ComponentPad*
%ADD10R,1.700000X1.700000*%
G04 #@! TD*
G04 #@! TA.AperFunction,ComponentPad*
%ADD11O,1.700000X1.700000*%
G04 #@! TD*
G04 #@! TA.AperFunction,ComponentPad*
%ADD12R,1.600000X1.600000*%
G04 #@! TD*
G04 #@! TA.AperFunction,ComponentPad*
%ADD13C,1.600000*%
G04 #@! TD*
G04 #@! TA.AperFunction,ComponentPad*
%ADD14R,1.800000X1.800000*%
G04 #@! TD*
G04 #@! TA.AperFunction,ComponentPad*
%ADD15C,1.800000*%
G04 #@! TD*
G04 #@! TA.AperFunction,ComponentPad*
%ADD16O,1.600000X1.600000*%
G04 #@! TD*
G04 #@! TA.AperFunction,ComponentPad*
%ADD17C,1.700000*%
G04 #@! TD*
G04 #@! TA.AperFunction,ComponentPad*
%ADD18C,3.500000*%
G04 #@! TD*
G04 #@! TA.AperFunction,ConnectorPad*
%ADD19C,0.787400*%
G04 #@! TD*
G04 #@! TA.AperFunction,ComponentPad*
%ADD20C,2.000000*%
G04 #@! TD*
G04 #@! TA.AperFunction,ComponentPad*
%ADD21C,1.300000*%
G04 #@! TD*
G04 #@! TA.AperFunction,ComponentPad*
%ADD22R,1.300000X1.300000*%
G04 #@! TD*
G04 #@! TA.AperFunction,ViaPad*
%ADD23C,0.685800*%
G04 #@! TD*
G04 #@! TA.AperFunction,Conductor*
%ADD24C,0.300000*%
G04 #@! TD*
G04 #@! TA.AperFunction,Conductor*
%ADD25C,0.254000*%
G04 #@! TD*
G04 APERTURE END LIST*
D10*
G04 #@! TO.P,J1,1*
G04 #@! TO.N,VBUS*
X120514000Y-111023000D03*
D11*
G04 #@! TO.P,J1,2*
G04 #@! TO.N,/PG4*
X123054000Y-111023000D03*
G04 #@! TO.P,J1,3*
G04 #@! TO.N,/PG1*
X125594000Y-111023000D03*
G04 #@! TO.P,J1,4*
G04 #@! TO.N,/PG3*
X128134000Y-111023000D03*
G04 #@! TO.P,J1,5*
G04 #@! TO.N,+5V*
X130674000Y-111023000D03*
G04 #@! TD*
D12*
G04 #@! TO.P,C1,1*
G04 #@! TO.N,+5V*
X133215000Y-93753800D03*
D13*
G04 #@! TO.P,C1,2*
G04 #@! TO.N,GND*
X133215000Y-91253800D03*
G04 #@! TD*
G04 #@! TO.P,C2,1*
G04 #@! TO.N,+5V*
X126591000Y-95048700D03*
G04 #@! TO.P,C2,2*
G04 #@! TO.N,GND*
X126591000Y-90048700D03*
G04 #@! TD*
D14*
G04 #@! TO.P,D1,1*
G04 #@! TO.N,Net-(D1-Pad1)*
X96631800Y-109913000D03*
D15*
G04 #@! TO.P,D1,2*
G04 #@! TO.N,+5V*
X96631800Y-112453000D03*
G04 #@! TD*
D12*
G04 #@! TO.P,D2,1*
G04 #@! TO.N,+5V*
X121623000Y-105256000D03*
D16*
G04 #@! TO.P,D2,2*
G04 #@! TO.N,VBUS*
X114003000Y-105256000D03*
G04 #@! TD*
D15*
G04 #@! TO.P,D3,2*
G04 #@! TO.N,/PG1*
X96631800Y-85410500D03*
D14*
G04 #@! TO.P,D3,1*
G04 #@! TO.N,Net-(D3-Pad1)*
X96631800Y-87950500D03*
G04 #@! TD*
D12*
G04 #@! TO.P,D4,1*
G04 #@! TO.N,Net-(D4-Pad1)*
X114003000Y-94592300D03*
D16*
G04 #@! TO.P,D4,2*
G04 #@! TO.N,GND*
X121623000Y-94592300D03*
G04 #@! TD*
G04 #@! TO.P,D5,2*
G04 #@! TO.N,GND*
X121623000Y-97980300D03*
D12*
G04 #@! TO.P,D5,1*
G04 #@! TO.N,Net-(D5-Pad1)*
X114003000Y-97980300D03*
G04 #@! TD*
D11*
G04 #@! TO.P,J2,5*
G04 #@! TO.N,/PG5*
X130674000Y-86766400D03*
G04 #@! TO.P,J2,4*
G04 #@! TO.N,Net-(J2-Pad4)*
X128134000Y-86766400D03*
G04 #@! TO.P,J2,3*
G04 #@! TO.N,Net-(J2-Pad3)*
X125594000Y-86766400D03*
G04 #@! TO.P,J2,2*
G04 #@! TO.N,GND*
X123054000Y-86766400D03*
D10*
G04 #@! TO.P,J2,1*
G04 #@! TO.N,VCC*
X120514000Y-86766400D03*
G04 #@! TD*
G04 #@! TO.P,J3,1*
G04 #@! TO.N,VBUS*
X108204000Y-100182000D03*
D17*
G04 #@! TO.P,J3,2*
G04 #@! TO.N,Net-(D4-Pad1)*
X108204000Y-97682000D03*
G04 #@! TO.P,J3,3*
G04 #@! TO.N,Net-(D5-Pad1)*
X106204000Y-97682000D03*
G04 #@! TO.P,J3,4*
G04 #@! TO.N,GND*
X106204000Y-100182000D03*
D18*
G04 #@! TO.P,J3,5*
X103494000Y-104952000D03*
X103494000Y-92912000D03*
G04 #@! TD*
D19*
G04 #@! TO.P,P1,1*
G04 #@! TO.N,/PG1*
X139347000Y-110188000D03*
G04 #@! TO.P,P1,2*
G04 #@! TO.N,+5V*
X139347000Y-111458000D03*
G04 #@! TO.P,P1,3*
G04 #@! TO.N,/PG3*
X138077000Y-110188000D03*
G04 #@! TO.P,P1,4*
G04 #@! TO.N,/PG4*
X138077000Y-111458000D03*
G04 #@! TO.P,P1,5*
G04 #@! TO.N,/PG5*
X136807000Y-110188000D03*
G04 #@! TO.P,P1,6*
G04 #@! TO.N,GND*
X136807000Y-111458000D03*
G04 #@! TD*
D13*
G04 #@! TO.P,R1,1*
G04 #@! TO.N,Net-(D1-Pad1)*
X100752000Y-108735000D03*
D16*
G04 #@! TO.P,R1,2*
G04 #@! TO.N,GND*
X110912000Y-108735000D03*
G04 #@! TD*
D13*
G04 #@! TO.P,R2,1*
G04 #@! TO.N,Net-(D3-Pad1)*
X100752000Y-89179400D03*
D16*
G04 #@! TO.P,R2,2*
G04 #@! TO.N,GND*
X110912000Y-89179400D03*
G04 #@! TD*
D13*
G04 #@! TO.P,R3,1*
G04 #@! TO.N,Net-(D5-Pad1)*
X112733000Y-101618000D03*
D16*
G04 #@! TO.P,R3,2*
G04 #@! TO.N,Net-(J2-Pad3)*
X122893000Y-101618000D03*
G04 #@! TD*
G04 #@! TO.P,R4,2*
G04 #@! TO.N,Net-(J2-Pad4)*
X126591000Y-97581000D03*
D13*
G04 #@! TO.P,R4,1*
G04 #@! TO.N,+5V*
X126591000Y-107741000D03*
G04 #@! TD*
D16*
G04 #@! TO.P,R5,2*
G04 #@! TO.N,Net-(J2-Pad4)*
X122893000Y-90954400D03*
D13*
G04 #@! TO.P,R5,1*
G04 #@! TO.N,Net-(D4-Pad1)*
X112733000Y-90954400D03*
G04 #@! TD*
D20*
G04 #@! TO.P,SW1,2*
G04 #@! TO.N,/PG5*
X142744000Y-99236600D03*
G04 #@! TO.P,SW1,1*
G04 #@! TO.N,GND*
X147244000Y-99236600D03*
G04 #@! TO.P,SW1,2*
G04 #@! TO.N,/PG5*
X142744000Y-105736600D03*
G04 #@! TO.P,SW1,1*
G04 #@! TO.N,GND*
X147244000Y-105736600D03*
G04 #@! TD*
D21*
G04 #@! TO.P,U1,2*
G04 #@! TO.N,GND*
X114428000Y-110124000D03*
G04 #@! TO.P,U1,3*
G04 #@! TO.N,VCC*
X115698000Y-108854000D03*
D22*
G04 #@! TO.P,U1,1*
G04 #@! TO.N,+5V*
X115698000Y-111394000D03*
G04 #@! TD*
D12*
G04 #@! TO.P,U2,1*
G04 #@! TO.N,/PG5*
X138467000Y-98686600D03*
D16*
G04 #@! TO.P,U2,5*
G04 #@! TO.N,/PG4*
X130847000Y-106306600D03*
G04 #@! TO.P,U2,2*
G04 #@! TO.N,Net-(J2-Pad4)*
X135927000Y-98686600D03*
G04 #@! TO.P,U2,6*
G04 #@! TO.N,/PG1*
X133387000Y-106306600D03*
G04 #@! TO.P,U2,3*
G04 #@! TO.N,Net-(J2-Pad3)*
X133387000Y-98686600D03*
G04 #@! TO.P,U2,7*
G04 #@! TO.N,/PG3*
X135927000Y-106306600D03*
G04 #@! TO.P,U2,4*
G04 #@! TO.N,GND*
X130847000Y-98686600D03*
G04 #@! TO.P,U2,8*
G04 #@! TO.N,+5V*
X138467000Y-106306600D03*
G04 #@! TD*
D23*
G04 #@! TO.N,/PG5*
X137032500Y-109187300D03*
G04 #@! TD*
D24*
G04 #@! TO.N,+5V*
X115698000Y-111394000D02*
X97690800Y-111394000D01*
X97690800Y-111394000D02*
X96631800Y-112453000D01*
X133215000Y-93753800D02*
X132010700Y-93753800D01*
X126591000Y-95048700D02*
X130715800Y-95048700D01*
X130715800Y-95048700D02*
X132010700Y-93753800D01*
X130674000Y-111023000D02*
X129419700Y-111023000D01*
X126591000Y-107741000D02*
X126657500Y-107741000D01*
X126657500Y-107741000D02*
X129419700Y-110503200D01*
X129419700Y-110503200D02*
X129419700Y-111023000D01*
X138467000Y-106306600D02*
X138467000Y-107510900D01*
X139347000Y-111458000D02*
X139659800Y-111770800D01*
X139659800Y-111770800D02*
X140943100Y-111770800D01*
X140943100Y-111770800D02*
X141541600Y-111172300D01*
X141541600Y-111172300D02*
X141541600Y-110460700D01*
X141541600Y-110460700D02*
X138591800Y-107510900D01*
X138591800Y-107510900D02*
X138467000Y-107510900D01*
G04 #@! TO.N,GND*
X145747400Y-104240000D02*
X147244000Y-105736600D01*
X132116900Y-104240000D02*
X145747400Y-104240000D01*
X145747400Y-104240000D02*
X145747400Y-100733200D01*
X145747400Y-100733200D02*
X147244000Y-99236600D01*
X121623000Y-97980300D02*
X121623000Y-102102600D01*
X121623000Y-102102600D02*
X123760400Y-104240000D01*
X123760400Y-104240000D02*
X132116900Y-104240000D01*
X132116900Y-104240000D02*
X132116900Y-107662300D01*
X132116900Y-107662300D02*
X135277600Y-110823000D01*
X135277600Y-110823000D02*
X136172000Y-110823000D01*
X136172000Y-110823000D02*
X136807000Y-111458000D01*
X126054200Y-89511900D02*
X124308300Y-87766000D01*
X124308300Y-87766000D02*
X124308300Y-86766400D01*
X126591000Y-90048700D02*
X126054200Y-89511900D01*
X126054200Y-89511900D02*
X122178100Y-93388000D01*
X122178100Y-93388000D02*
X121623000Y-93388000D01*
X121623000Y-94592300D02*
X121623000Y-93388000D01*
X121623000Y-94592300D02*
X120418700Y-94592300D01*
X110912000Y-89179400D02*
X115005800Y-89179400D01*
X115005800Y-89179400D02*
X120418700Y-94592300D01*
X123054000Y-86766400D02*
X124308300Y-86766400D01*
X110912000Y-108735000D02*
X112116300Y-108735000D01*
X114428000Y-110124000D02*
X113505300Y-110124000D01*
X113505300Y-110124000D02*
X112116300Y-108735000D01*
D25*
G04 #@! TO.N,Net-(D1-Pad1)*
X96631800Y-109913000D02*
X97913100Y-109913000D01*
X100752000Y-108735000D02*
X99091100Y-108735000D01*
X99091100Y-108735000D02*
X97913100Y-109913000D01*
G04 #@! TO.N,/PG1*
X133387000Y-106306600D02*
X134568300Y-106306600D01*
X134568300Y-106306600D02*
X134568300Y-105937400D01*
X134568300Y-105937400D02*
X135391200Y-105114500D01*
X135391200Y-105114500D02*
X136406100Y-105114500D01*
X136406100Y-105114500D02*
X137197000Y-105905400D01*
X137197000Y-105905400D02*
X137197000Y-107035400D01*
X137197000Y-107035400D02*
X139347000Y-109185400D01*
X139347000Y-109185400D02*
X139347000Y-110188000D01*
X125594000Y-111023000D02*
X125594000Y-109791700D01*
X125594000Y-109791700D02*
X124362700Y-108560400D01*
X124362700Y-108560400D02*
X124362700Y-105854800D01*
X124362700Y-105854800D02*
X115306800Y-96798900D01*
X115306800Y-96798900D02*
X114064300Y-96798900D01*
X114064300Y-96798900D02*
X102675900Y-85410500D01*
X102675900Y-85410500D02*
X96631800Y-85410500D01*
G04 #@! TO.N,Net-(D3-Pad1)*
X96631800Y-87950500D02*
X97913100Y-87950500D01*
X100752000Y-89179400D02*
X99142000Y-89179400D01*
X99142000Y-89179400D02*
X97913100Y-87950500D01*
G04 #@! TO.N,Net-(D5-Pad1)*
X111851400Y-98950600D02*
X112821700Y-97980300D01*
X106204000Y-97682000D02*
X107472600Y-98950600D01*
X107472600Y-98950600D02*
X111851400Y-98950600D01*
X112733000Y-101618000D02*
X111851400Y-100736400D01*
X111851400Y-100736400D02*
X111851400Y-98950600D01*
X114003000Y-97980300D02*
X112821700Y-97980300D01*
G04 #@! TO.N,/PG3*
X138077000Y-110188000D02*
X138077000Y-109195300D01*
X138077000Y-109195300D02*
X136369600Y-107487900D01*
X136369600Y-107487900D02*
X135927000Y-107487900D01*
X135927000Y-106306600D02*
X135927000Y-107487900D01*
G04 #@! TO.N,/PG4*
X130847000Y-106306600D02*
X130847000Y-108437800D01*
X130847000Y-108437800D02*
X135127100Y-112717900D01*
X135127100Y-112717900D02*
X136817100Y-112717900D01*
X136817100Y-112717900D02*
X138077000Y-111458000D01*
G04 #@! TO.N,/PG5*
X136807000Y-110188000D02*
X136807000Y-109412800D01*
X136807000Y-109412800D02*
X137032500Y-109187300D01*
X138467000Y-98686600D02*
X139648300Y-98686600D01*
X142744000Y-99236600D02*
X140198300Y-99236600D01*
X140198300Y-99236600D02*
X139648300Y-98686600D01*
D24*
G04 #@! TO.N,VBUS*
X120514000Y-111023000D02*
X120514000Y-109768700D01*
X114003000Y-105256000D02*
X115207300Y-105256000D01*
X115207300Y-105256000D02*
X119720000Y-109768700D01*
X119720000Y-109768700D02*
X120514000Y-109768700D01*
D25*
G04 #@! TO.N,Net-(J2-Pad4)*
X126591000Y-97581000D02*
X127772300Y-97581000D01*
X135927000Y-98686600D02*
X134745700Y-98686600D01*
X134745700Y-98686600D02*
X134745700Y-98317400D01*
X134745700Y-98317400D02*
X133924900Y-97496600D01*
X133924900Y-97496600D02*
X127856700Y-97496600D01*
X127856700Y-97496600D02*
X127772300Y-97581000D01*
G04 #@! TO.N,Net-(J2-Pad3)*
X122893000Y-101618000D02*
X124074300Y-101618000D01*
X125375200Y-99881500D02*
X124074300Y-101182400D01*
X124074300Y-101182400D02*
X124074300Y-101618000D01*
X132205700Y-98686600D02*
X132205700Y-99055800D01*
X132205700Y-99055800D02*
X131380000Y-99881500D01*
X131380000Y-99881500D02*
X125375200Y-99881500D01*
X125375200Y-99881500D02*
X125375200Y-93950800D01*
X125375200Y-93950800D02*
X127788000Y-91538000D01*
X127788000Y-91538000D02*
X127788000Y-89501200D01*
X127788000Y-89501200D02*
X126284500Y-87997700D01*
X126284500Y-87997700D02*
X125594000Y-87997700D01*
X125594000Y-86766400D02*
X125594000Y-87997700D01*
X133387000Y-98686600D02*
X132205700Y-98686600D01*
G04 #@! TD*
G04 #@! TO.N,GND*
G36*
X146870791Y-84011668D02*
X146870790Y-86571252D01*
X146869983Y-86573263D01*
X146870790Y-86646547D01*
X146870790Y-86681913D01*
X146871202Y-86683986D01*
X146871645Y-86724187D01*
X146885782Y-86757282D01*
X146892804Y-86792584D01*
X146915143Y-86826017D01*
X146915971Y-86827956D01*
X146935899Y-86857081D01*
X146976658Y-86918083D01*
X146978461Y-86919288D01*
X149665791Y-90846926D01*
X149665790Y-111043602D01*
X147021174Y-113291525D01*
X146976659Y-113321269D01*
X146943262Y-113371252D01*
X146905937Y-113418369D01*
X146901602Y-113433601D01*
X146892805Y-113446767D01*
X146881080Y-113505712D01*
X146864623Y-113563539D01*
X146870791Y-113616726D01*
X146870790Y-114934915D01*
X96364293Y-114870128D01*
X96054554Y-114801461D01*
X95728389Y-114698620D01*
X95412419Y-114567741D01*
X95109063Y-114409823D01*
X94820628Y-114226070D01*
X94549302Y-114017873D01*
X94297168Y-113786834D01*
X94066117Y-113534687D01*
X93857924Y-113263367D01*
X93674170Y-112974931D01*
X93516252Y-112671575D01*
X93385372Y-112355604D01*
X93282531Y-112029438D01*
X93208508Y-111695544D01*
X93163869Y-111356470D01*
X93148590Y-111006527D01*
X93148590Y-109013000D01*
X95343336Y-109013000D01*
X95343336Y-110813000D01*
X95372906Y-110961659D01*
X95457114Y-111087686D01*
X95583141Y-111171894D01*
X95731800Y-111201464D01*
X96305861Y-111201464D01*
X95906172Y-111367021D01*
X95545821Y-111727372D01*
X95350800Y-112198193D01*
X95350800Y-112707807D01*
X95545821Y-113178628D01*
X95906172Y-113538979D01*
X96376993Y-113734000D01*
X96886607Y-113734000D01*
X97357428Y-113538979D01*
X97717779Y-113178628D01*
X97912800Y-112707807D01*
X97912800Y-112198193D01*
X97832182Y-112003565D01*
X97910748Y-111925000D01*
X105428549Y-111925000D01*
X105124468Y-112229081D01*
X104899000Y-112773411D01*
X104899000Y-113362589D01*
X105124468Y-113906919D01*
X105541081Y-114323532D01*
X106085411Y-114549000D01*
X106674589Y-114549000D01*
X107218919Y-114323532D01*
X107635532Y-113906919D01*
X107861000Y-113362589D01*
X107861000Y-112773411D01*
X107635532Y-112229081D01*
X107331451Y-111925000D01*
X114659536Y-111925000D01*
X114659536Y-112044000D01*
X114689106Y-112192659D01*
X114773314Y-112318686D01*
X114899341Y-112402894D01*
X115048000Y-112432464D01*
X116348000Y-112432464D01*
X116496659Y-112402894D01*
X116622686Y-112318686D01*
X116706894Y-112192659D01*
X116736464Y-112044000D01*
X116736464Y-110744000D01*
X116706894Y-110595341D01*
X116622686Y-110469314D01*
X116496659Y-110385106D01*
X116348000Y-110355536D01*
X115708009Y-110355536D01*
X115725622Y-110304922D01*
X115701317Y-109885000D01*
X115903079Y-109885000D01*
X116282014Y-109728039D01*
X116572039Y-109438014D01*
X116729000Y-109059079D01*
X116729000Y-108648921D01*
X116572039Y-108269986D01*
X116282014Y-107979961D01*
X115903079Y-107823000D01*
X115492921Y-107823000D01*
X115113986Y-107979961D01*
X114823961Y-108269986D01*
X114667000Y-108648921D01*
X114667000Y-108846588D01*
X114608922Y-108826378D01*
X114098572Y-108855917D01*
X113764271Y-108994389D01*
X113708590Y-109224984D01*
X114428000Y-109944395D01*
X114442143Y-109930253D01*
X114621748Y-110109858D01*
X114607605Y-110124000D01*
X114621748Y-110138142D01*
X114442142Y-110317748D01*
X114428000Y-110303605D01*
X114413858Y-110317748D01*
X114234252Y-110138142D01*
X114248395Y-110124000D01*
X113528984Y-109404590D01*
X113298389Y-109460271D01*
X113130378Y-109943078D01*
X113159917Y-110453428D01*
X113298389Y-110787729D01*
X113528982Y-110843410D01*
X113509392Y-110863000D01*
X97910318Y-110863000D01*
X97920264Y-110813000D01*
X97920264Y-110429526D01*
X97963128Y-110421000D01*
X97963132Y-110421000D01*
X98111312Y-110391525D01*
X98228028Y-110313537D01*
X98236932Y-110307588D01*
X98279347Y-110279247D01*
X98307688Y-110236832D01*
X99301520Y-109243000D01*
X99684116Y-109243000D01*
X99750797Y-109403983D01*
X100083017Y-109736203D01*
X100517085Y-109916000D01*
X100986915Y-109916000D01*
X101420983Y-109736203D01*
X101753203Y-109403983D01*
X101885728Y-109084039D01*
X109520096Y-109084039D01*
X109680959Y-109472423D01*
X110056866Y-109887389D01*
X110562959Y-110126914D01*
X110785000Y-110005629D01*
X110785000Y-108862000D01*
X111039000Y-108862000D01*
X111039000Y-110005629D01*
X111261041Y-110126914D01*
X111767134Y-109887389D01*
X112143041Y-109472423D01*
X112303904Y-109084039D01*
X112181915Y-108862000D01*
X111039000Y-108862000D01*
X110785000Y-108862000D01*
X109642085Y-108862000D01*
X109520096Y-109084039D01*
X101885728Y-109084039D01*
X101933000Y-108969915D01*
X101933000Y-108500085D01*
X101885729Y-108385961D01*
X109520096Y-108385961D01*
X109642085Y-108608000D01*
X110785000Y-108608000D01*
X110785000Y-107464371D01*
X111039000Y-107464371D01*
X111039000Y-108608000D01*
X112181915Y-108608000D01*
X112303904Y-108385961D01*
X112143041Y-107997577D01*
X111767134Y-107582611D01*
X111261041Y-107343086D01*
X111039000Y-107464371D01*
X110785000Y-107464371D01*
X110562959Y-107343086D01*
X110056866Y-107582611D01*
X109680959Y-107997577D01*
X109520096Y-108385961D01*
X101885729Y-108385961D01*
X101753203Y-108066017D01*
X101420983Y-107733797D01*
X100986915Y-107554000D01*
X100517085Y-107554000D01*
X100083017Y-107733797D01*
X99750797Y-108066017D01*
X99684116Y-108227000D01*
X99141128Y-108227000D01*
X99091100Y-108217049D01*
X99041072Y-108227000D01*
X99041068Y-108227000D01*
X98892888Y-108256475D01*
X98724853Y-108368753D01*
X98696512Y-108411168D01*
X97920264Y-109187416D01*
X97920264Y-109013000D01*
X97890694Y-108864341D01*
X97806486Y-108738314D01*
X97680459Y-108654106D01*
X97531800Y-108624536D01*
X95731800Y-108624536D01*
X95583141Y-108654106D01*
X95457114Y-108738314D01*
X95372906Y-108864341D01*
X95343336Y-109013000D01*
X93148590Y-109013000D01*
X93148590Y-106646528D01*
X101979077Y-106646528D01*
X102169364Y-106991271D01*
X103050591Y-107342956D01*
X103999323Y-107330641D01*
X104818636Y-106991271D01*
X105008923Y-106646528D01*
X103494000Y-105131605D01*
X101979077Y-106646528D01*
X93148590Y-106646528D01*
X93148590Y-104508591D01*
X101103044Y-104508591D01*
X101115359Y-105457323D01*
X101454729Y-106276636D01*
X101799472Y-106466923D01*
X103314395Y-104952000D01*
X103673605Y-104952000D01*
X105188528Y-106466923D01*
X105533271Y-106276636D01*
X105884956Y-105395409D01*
X105883147Y-105256000D01*
X112798863Y-105256000D01*
X112890522Y-105716803D01*
X113151547Y-106107453D01*
X113542197Y-106368478D01*
X113886682Y-106437000D01*
X114119318Y-106437000D01*
X114463803Y-106368478D01*
X114854453Y-106107453D01*
X115036041Y-105835688D01*
X119291765Y-110091412D01*
X119275536Y-110173000D01*
X119275536Y-111873000D01*
X119305106Y-112021659D01*
X119389314Y-112147686D01*
X119515341Y-112231894D01*
X119664000Y-112261464D01*
X121364000Y-112261464D01*
X121512659Y-112231894D01*
X121638686Y-112147686D01*
X121722894Y-112021659D01*
X121752464Y-111873000D01*
X121752464Y-111023000D01*
X121798884Y-111023000D01*
X121894424Y-111503312D01*
X122166499Y-111910501D01*
X122573688Y-112182576D01*
X122932761Y-112254000D01*
X123175239Y-112254000D01*
X123534312Y-112182576D01*
X123941501Y-111910501D01*
X124213576Y-111503312D01*
X124309116Y-111023000D01*
X124213576Y-110542688D01*
X123941501Y-110135499D01*
X123534312Y-109863424D01*
X123175239Y-109792000D01*
X122932761Y-109792000D01*
X122573688Y-109863424D01*
X122166499Y-110135499D01*
X121894424Y-110542688D01*
X121798884Y-111023000D01*
X121752464Y-111023000D01*
X121752464Y-110173000D01*
X121722894Y-110024341D01*
X121638686Y-109898314D01*
X121512659Y-109814106D01*
X121364000Y-109784536D01*
X121052252Y-109784536D01*
X121055402Y-109768700D01*
X121014190Y-109561514D01*
X120896829Y-109385871D01*
X120721186Y-109268510D01*
X120566294Y-109237700D01*
X120514000Y-109227298D01*
X120461706Y-109237700D01*
X119939947Y-109237700D01*
X115619752Y-104917505D01*
X115590129Y-104873171D01*
X115414486Y-104755810D01*
X115259594Y-104725000D01*
X115259590Y-104725000D01*
X115207300Y-104714599D01*
X115155010Y-104725000D01*
X115068574Y-104725000D01*
X114854453Y-104404547D01*
X114463803Y-104143522D01*
X114119318Y-104075000D01*
X113886682Y-104075000D01*
X113542197Y-104143522D01*
X113151547Y-104404547D01*
X112890522Y-104795197D01*
X112798863Y-105256000D01*
X105883147Y-105256000D01*
X105872641Y-104446677D01*
X105533271Y-103627364D01*
X105188528Y-103437077D01*
X103673605Y-104952000D01*
X103314395Y-104952000D01*
X101799472Y-103437077D01*
X101454729Y-103627364D01*
X101103044Y-104508591D01*
X93148590Y-104508591D01*
X93148590Y-103257472D01*
X101979077Y-103257472D01*
X103494000Y-104772395D01*
X105008923Y-103257472D01*
X104818636Y-102912729D01*
X103937409Y-102561044D01*
X102988677Y-102573359D01*
X102169364Y-102912729D01*
X101979077Y-103257472D01*
X93148590Y-103257472D01*
X93148590Y-99953279D01*
X104707282Y-99953279D01*
X104733685Y-100543458D01*
X104908741Y-100966080D01*
X105160042Y-101046353D01*
X106024395Y-100182000D01*
X105160042Y-99317647D01*
X104908741Y-99397920D01*
X104707282Y-99953279D01*
X93148590Y-99953279D01*
X93148590Y-94606528D01*
X101979077Y-94606528D01*
X102169364Y-94951271D01*
X103050591Y-95302956D01*
X103999323Y-95290641D01*
X104818636Y-94951271D01*
X105008923Y-94606528D01*
X103494000Y-93091605D01*
X101979077Y-94606528D01*
X93148590Y-94606528D01*
X93148590Y-92468591D01*
X101103044Y-92468591D01*
X101115359Y-93417323D01*
X101454729Y-94236636D01*
X101799472Y-94426923D01*
X103314395Y-92912000D01*
X103673605Y-92912000D01*
X105188528Y-94426923D01*
X105533271Y-94236636D01*
X105884956Y-93355409D01*
X105872641Y-92406677D01*
X105533271Y-91587364D01*
X105188528Y-91397077D01*
X103673605Y-92912000D01*
X103314395Y-92912000D01*
X101799472Y-91397077D01*
X101454729Y-91587364D01*
X101103044Y-92468591D01*
X93148590Y-92468591D01*
X93148590Y-91217472D01*
X101979077Y-91217472D01*
X103494000Y-92732395D01*
X105008923Y-91217472D01*
X104818636Y-90872729D01*
X103937409Y-90521044D01*
X102988677Y-90533359D01*
X102169364Y-90872729D01*
X101979077Y-91217472D01*
X93148590Y-91217472D01*
X93148590Y-87050500D01*
X95343336Y-87050500D01*
X95343336Y-88850500D01*
X95372906Y-88999159D01*
X95457114Y-89125186D01*
X95583141Y-89209394D01*
X95731800Y-89238964D01*
X97531800Y-89238964D01*
X97680459Y-89209394D01*
X97806486Y-89125186D01*
X97890694Y-88999159D01*
X97920264Y-88850500D01*
X97920264Y-88676084D01*
X98747414Y-89503235D01*
X98775753Y-89545647D01*
X98818165Y-89573986D01*
X98818167Y-89573988D01*
X98943788Y-89657925D01*
X99091968Y-89687400D01*
X99091971Y-89687400D01*
X99141999Y-89697351D01*
X99192027Y-89687400D01*
X99684116Y-89687400D01*
X99750797Y-89848383D01*
X100083017Y-90180603D01*
X100517085Y-90360400D01*
X100986915Y-90360400D01*
X101420983Y-90180603D01*
X101753203Y-89848383D01*
X101933000Y-89414315D01*
X101933000Y-88944485D01*
X101753203Y-88510417D01*
X101420983Y-88178197D01*
X100986915Y-87998400D01*
X100517085Y-87998400D01*
X100083017Y-88178197D01*
X99750797Y-88510417D01*
X99684116Y-88671400D01*
X99352421Y-88671400D01*
X98307688Y-87626668D01*
X98279347Y-87584253D01*
X98111312Y-87471975D01*
X97963132Y-87442500D01*
X97963128Y-87442500D01*
X97920264Y-87433974D01*
X97920264Y-87050500D01*
X97890694Y-86901841D01*
X97806486Y-86775814D01*
X97680459Y-86691606D01*
X97531800Y-86662036D01*
X96957739Y-86662036D01*
X97357428Y-86496479D01*
X97717779Y-86136128D01*
X97807924Y-85918500D01*
X102465480Y-85918500D01*
X113338815Y-96791836D01*
X113203000Y-96791836D01*
X113054341Y-96821406D01*
X112928314Y-96905614D01*
X112844106Y-97031641D01*
X112814536Y-97180300D01*
X112814536Y-97463774D01*
X112771671Y-97472300D01*
X112771668Y-97472300D01*
X112623488Y-97501775D01*
X112455453Y-97614053D01*
X112427112Y-97656468D01*
X111640980Y-98442600D01*
X109184298Y-98442600D01*
X109247592Y-98379306D01*
X109435000Y-97926861D01*
X109435000Y-97437139D01*
X109247592Y-96984694D01*
X108901306Y-96638408D01*
X108448861Y-96451000D01*
X107959139Y-96451000D01*
X107506694Y-96638408D01*
X107204000Y-96941102D01*
X106901306Y-96638408D01*
X106448861Y-96451000D01*
X105959139Y-96451000D01*
X105506694Y-96638408D01*
X105160408Y-96984694D01*
X104973000Y-97437139D01*
X104973000Y-97926861D01*
X105160408Y-98379306D01*
X105506694Y-98725592D01*
X105657831Y-98788195D01*
X105419920Y-98886741D01*
X105339647Y-99138042D01*
X106204000Y-100002395D01*
X106218143Y-99988253D01*
X106397748Y-100167858D01*
X106383605Y-100182000D01*
X106397748Y-100196143D01*
X106218143Y-100375748D01*
X106204000Y-100361605D01*
X105339647Y-101225958D01*
X105419920Y-101477259D01*
X105975279Y-101678718D01*
X106565458Y-101652315D01*
X106988080Y-101477259D01*
X107054452Y-101269477D01*
X107079314Y-101306686D01*
X107205341Y-101390894D01*
X107354000Y-101420464D01*
X109054000Y-101420464D01*
X109202659Y-101390894D01*
X109328686Y-101306686D01*
X109412894Y-101180659D01*
X109442464Y-101032000D01*
X109442464Y-99458600D01*
X111343401Y-99458600D01*
X111343400Y-100686372D01*
X111333449Y-100736400D01*
X111343400Y-100786428D01*
X111343400Y-100786431D01*
X111357727Y-100858456D01*
X111372875Y-100934611D01*
X111447539Y-101046353D01*
X111485153Y-101102647D01*
X111527568Y-101130988D01*
X111618682Y-101222102D01*
X111552000Y-101383085D01*
X111552000Y-101852915D01*
X111731797Y-102286983D01*
X112064017Y-102619203D01*
X112498085Y-102799000D01*
X112967915Y-102799000D01*
X113401983Y-102619203D01*
X113734203Y-102286983D01*
X113914000Y-101852915D01*
X113914000Y-101383085D01*
X113734203Y-100949017D01*
X113401983Y-100616797D01*
X112967915Y-100437000D01*
X112498085Y-100437000D01*
X112359400Y-100494445D01*
X112359400Y-99161020D01*
X112814536Y-98705884D01*
X112814536Y-98780300D01*
X112844106Y-98928959D01*
X112928314Y-99054986D01*
X113054341Y-99139194D01*
X113203000Y-99168764D01*
X114803000Y-99168764D01*
X114951659Y-99139194D01*
X115077686Y-99054986D01*
X115161894Y-98928959D01*
X115191464Y-98780300D01*
X115191464Y-97401984D01*
X121857016Y-104067536D01*
X120823000Y-104067536D01*
X120674341Y-104097106D01*
X120548314Y-104181314D01*
X120464106Y-104307341D01*
X120434536Y-104456000D01*
X120434536Y-106056000D01*
X120464106Y-106204659D01*
X120548314Y-106330686D01*
X120674341Y-106414894D01*
X120823000Y-106444464D01*
X122423000Y-106444464D01*
X122571659Y-106414894D01*
X122697686Y-106330686D01*
X122781894Y-106204659D01*
X122811464Y-106056000D01*
X122811464Y-105021984D01*
X123854701Y-106065221D01*
X123854700Y-108510372D01*
X123844749Y-108560400D01*
X123854700Y-108610428D01*
X123854700Y-108610431D01*
X123880138Y-108738314D01*
X123884175Y-108758611D01*
X123906961Y-108792712D01*
X123996453Y-108926647D01*
X124038868Y-108954988D01*
X125013948Y-109930068D01*
X124706499Y-110135499D01*
X124434424Y-110542688D01*
X124338884Y-111023000D01*
X124434424Y-111503312D01*
X124706499Y-111910501D01*
X125113688Y-112182576D01*
X125472761Y-112254000D01*
X125715239Y-112254000D01*
X126074312Y-112182576D01*
X126481501Y-111910501D01*
X126753576Y-111503312D01*
X126849116Y-111023000D01*
X126753576Y-110542688D01*
X126481501Y-110135499D01*
X126102000Y-109881925D01*
X126102000Y-109841727D01*
X126111951Y-109791699D01*
X126102000Y-109741671D01*
X126102000Y-109741668D01*
X126072525Y-109593488D01*
X126030933Y-109531241D01*
X125988588Y-109467867D01*
X125988586Y-109467865D01*
X125960247Y-109425453D01*
X125917835Y-109397114D01*
X124870700Y-108349980D01*
X124870700Y-107506085D01*
X125410000Y-107506085D01*
X125410000Y-107975915D01*
X125589797Y-108409983D01*
X125922017Y-108742203D01*
X126356085Y-108922000D01*
X126825915Y-108922000D01*
X127010921Y-108845368D01*
X127966712Y-109801160D01*
X127653688Y-109863424D01*
X127246499Y-110135499D01*
X126974424Y-110542688D01*
X126878884Y-111023000D01*
X126974424Y-111503312D01*
X127246499Y-111910501D01*
X127653688Y-112182576D01*
X128012761Y-112254000D01*
X128255239Y-112254000D01*
X128614312Y-112182576D01*
X129021501Y-111910501D01*
X129272342Y-111535091D01*
X129367406Y-111554000D01*
X129419700Y-111564402D01*
X129471994Y-111554000D01*
X129548293Y-111554000D01*
X129786499Y-111910501D01*
X130193688Y-112182576D01*
X130552761Y-112254000D01*
X130795239Y-112254000D01*
X131154312Y-112182576D01*
X131561501Y-111910501D01*
X131833576Y-111503312D01*
X131929116Y-111023000D01*
X131833576Y-110542688D01*
X131561501Y-110135499D01*
X131154312Y-109863424D01*
X130795239Y-109792000D01*
X130552761Y-109792000D01*
X130193688Y-109863424D01*
X129804569Y-110123425D01*
X129802529Y-110120371D01*
X129758198Y-110090750D01*
X127734323Y-108066876D01*
X127772000Y-107975915D01*
X127772000Y-107506085D01*
X127592203Y-107072017D01*
X127259983Y-106739797D01*
X126825915Y-106560000D01*
X126356085Y-106560000D01*
X125922017Y-106739797D01*
X125589797Y-107072017D01*
X125410000Y-107506085D01*
X124870700Y-107506085D01*
X124870700Y-106306600D01*
X129642863Y-106306600D01*
X129734522Y-106767403D01*
X129995547Y-107158053D01*
X130339001Y-107387542D01*
X130339001Y-108387767D01*
X130329049Y-108437800D01*
X130368475Y-108636011D01*
X130452412Y-108761632D01*
X130452415Y-108761635D01*
X130480754Y-108804047D01*
X130523166Y-108832386D01*
X134732512Y-113041732D01*
X134760853Y-113084147D01*
X134928888Y-113196425D01*
X135077068Y-113225900D01*
X135077072Y-113225900D01*
X135127099Y-113235851D01*
X135177126Y-113225900D01*
X136767072Y-113225900D01*
X136817100Y-113235851D01*
X136867128Y-113225900D01*
X136867132Y-113225900D01*
X137015312Y-113196425D01*
X137183347Y-113084147D01*
X137211688Y-113041732D01*
X137480009Y-112773411D01*
X143317000Y-112773411D01*
X143317000Y-113362589D01*
X143542468Y-113906919D01*
X143959081Y-114323532D01*
X144503411Y-114549000D01*
X145092589Y-114549000D01*
X145636919Y-114323532D01*
X146053532Y-113906919D01*
X146279000Y-113362589D01*
X146279000Y-112773411D01*
X146053532Y-112229081D01*
X145636919Y-111812468D01*
X145092589Y-111587000D01*
X144503411Y-111587000D01*
X143959081Y-111812468D01*
X143542468Y-112229081D01*
X143317000Y-112773411D01*
X137480009Y-112773411D01*
X138020721Y-112232700D01*
X138231097Y-112232700D01*
X138515832Y-112114759D01*
X138712000Y-111918591D01*
X138908168Y-112114759D01*
X139192903Y-112232700D01*
X139395309Y-112232700D01*
X139452614Y-112270990D01*
X139607506Y-112301800D01*
X139607509Y-112301800D01*
X139659799Y-112312201D01*
X139712089Y-112301800D01*
X140890810Y-112301800D01*
X140943100Y-112312201D01*
X140995390Y-112301800D01*
X140995394Y-112301800D01*
X141150286Y-112270990D01*
X141325929Y-112153629D01*
X141355552Y-112109295D01*
X141880098Y-111584750D01*
X141924429Y-111555129D01*
X142041790Y-111379486D01*
X142072600Y-111224594D01*
X142072600Y-111224593D01*
X142083002Y-111172300D01*
X142072600Y-111120006D01*
X142072600Y-110512989D01*
X142083001Y-110460699D01*
X142072600Y-110408409D01*
X142072600Y-110408406D01*
X142041790Y-110253514D01*
X141987992Y-110173000D01*
X141954051Y-110122203D01*
X141954050Y-110122202D01*
X141924429Y-110077871D01*
X141880098Y-110048250D01*
X139121500Y-107289653D01*
X139318453Y-107158053D01*
X139579478Y-106767403D01*
X139671137Y-106306600D01*
X139579478Y-105845797D01*
X139322967Y-105461902D01*
X141363000Y-105461902D01*
X141363000Y-106011298D01*
X141573245Y-106518873D01*
X141961727Y-106907355D01*
X142469302Y-107117600D01*
X143018698Y-107117600D01*
X143526273Y-106907355D01*
X143544496Y-106889132D01*
X146271073Y-106889132D01*
X146369736Y-107155987D01*
X146979461Y-107382508D01*
X147629460Y-107358456D01*
X148118264Y-107155987D01*
X148216927Y-106889132D01*
X147244000Y-105916205D01*
X146271073Y-106889132D01*
X143544496Y-106889132D01*
X143914755Y-106518873D01*
X144125000Y-106011298D01*
X144125000Y-105472061D01*
X145598092Y-105472061D01*
X145622144Y-106122060D01*
X145824613Y-106610864D01*
X146091468Y-106709527D01*
X147064395Y-105736600D01*
X147423605Y-105736600D01*
X148396532Y-106709527D01*
X148663387Y-106610864D01*
X148889908Y-106001139D01*
X148865856Y-105351140D01*
X148663387Y-104862336D01*
X148396532Y-104763673D01*
X147423605Y-105736600D01*
X147064395Y-105736600D01*
X146091468Y-104763673D01*
X145824613Y-104862336D01*
X145598092Y-105472061D01*
X144125000Y-105472061D01*
X144125000Y-105461902D01*
X143914755Y-104954327D01*
X143544496Y-104584068D01*
X146271073Y-104584068D01*
X147244000Y-105556995D01*
X148216927Y-104584068D01*
X148118264Y-104317213D01*
X147508539Y-104090692D01*
X146858540Y-104114744D01*
X146369736Y-104317213D01*
X146271073Y-104584068D01*
X143544496Y-104584068D01*
X143526273Y-104565845D01*
X143018698Y-104355600D01*
X142469302Y-104355600D01*
X141961727Y-104565845D01*
X141573245Y-104954327D01*
X141363000Y-105461902D01*
X139322967Y-105461902D01*
X139318453Y-105455147D01*
X138927803Y-105194122D01*
X138583318Y-105125600D01*
X138350682Y-105125600D01*
X138006197Y-105194122D01*
X137615547Y-105455147D01*
X137560598Y-105537383D01*
X137520833Y-105510813D01*
X136800688Y-104790668D01*
X136772347Y-104748253D01*
X136721981Y-104714599D01*
X136721028Y-104713963D01*
X136604312Y-104635975D01*
X136456132Y-104606500D01*
X136456128Y-104606500D01*
X136406100Y-104596549D01*
X136356072Y-104606500D01*
X135441227Y-104606500D01*
X135391199Y-104596549D01*
X135341171Y-104606500D01*
X135341168Y-104606500D01*
X135192988Y-104635975D01*
X135024953Y-104748253D01*
X134996612Y-104790668D01*
X134275976Y-105511304D01*
X134238453Y-105455147D01*
X133847803Y-105194122D01*
X133503318Y-105125600D01*
X133270682Y-105125600D01*
X132926197Y-105194122D01*
X132535547Y-105455147D01*
X132274522Y-105845797D01*
X132182863Y-106306600D01*
X132274522Y-106767403D01*
X132535547Y-107158053D01*
X132926197Y-107419078D01*
X133270682Y-107487600D01*
X133503318Y-107487600D01*
X133847803Y-107419078D01*
X134238453Y-107158053D01*
X134467942Y-106814600D01*
X134518268Y-106814600D01*
X134568300Y-106824552D01*
X134618332Y-106814600D01*
X134766512Y-106785125D01*
X134812001Y-106754730D01*
X134814522Y-106767403D01*
X135075547Y-107158053D01*
X135419001Y-107387542D01*
X135419001Y-107437864D01*
X135409048Y-107487900D01*
X135448475Y-107686112D01*
X135560753Y-107854147D01*
X135728788Y-107966425D01*
X135876968Y-107995900D01*
X135927000Y-108005852D01*
X135977032Y-107995900D01*
X136159180Y-107995900D01*
X136703367Y-108540088D01*
X136622444Y-108573607D01*
X136418807Y-108777244D01*
X136308600Y-109043307D01*
X136308600Y-109314509D01*
X136299809Y-109358703D01*
X136279891Y-109310616D01*
X136033384Y-109064109D01*
X135711307Y-108930700D01*
X135362693Y-108930700D01*
X135040616Y-109064109D01*
X134794109Y-109310616D01*
X134660700Y-109632693D01*
X134660700Y-109981307D01*
X134794109Y-110303384D01*
X135040616Y-110549891D01*
X135362693Y-110683300D01*
X135711307Y-110683300D01*
X136033384Y-110549891D01*
X136093479Y-110489796D01*
X136150241Y-110626832D01*
X136368168Y-110844759D01*
X136377038Y-110848433D01*
X136807000Y-111278395D01*
X136821143Y-111264253D01*
X137000748Y-111443858D01*
X136986605Y-111458000D01*
X137000748Y-111472143D01*
X136821143Y-111651748D01*
X136807000Y-111637605D01*
X136792858Y-111651748D01*
X136613253Y-111472143D01*
X136627395Y-111458000D01*
X136094239Y-110924844D01*
X135890054Y-110948781D01*
X135865135Y-111026418D01*
X135711307Y-110962700D01*
X135362693Y-110962700D01*
X135040616Y-111096109D01*
X134794109Y-111342616D01*
X134699249Y-111571629D01*
X131355000Y-108227380D01*
X131355000Y-107387542D01*
X131698453Y-107158053D01*
X131959478Y-106767403D01*
X132051137Y-106306600D01*
X131959478Y-105845797D01*
X131698453Y-105455147D01*
X131307803Y-105194122D01*
X130963318Y-105125600D01*
X130730682Y-105125600D01*
X130386197Y-105194122D01*
X129995547Y-105455147D01*
X129734522Y-105845797D01*
X129642863Y-106306600D01*
X124870700Y-106306600D01*
X124870700Y-105904828D01*
X124880651Y-105854800D01*
X124870700Y-105804772D01*
X124870700Y-105804768D01*
X124841225Y-105656588D01*
X124728947Y-105488553D01*
X124686532Y-105460212D01*
X120844320Y-101618000D01*
X121688863Y-101618000D01*
X121780522Y-102078803D01*
X122041547Y-102469453D01*
X122432197Y-102730478D01*
X122776682Y-102799000D01*
X123009318Y-102799000D01*
X123353803Y-102730478D01*
X123744453Y-102469453D01*
X123973942Y-102126000D01*
X124024268Y-102126000D01*
X124074300Y-102135952D01*
X124272512Y-102096525D01*
X124440547Y-101984247D01*
X124552825Y-101816212D01*
X124582300Y-101668031D01*
X124592252Y-101618000D01*
X124582300Y-101567968D01*
X124582300Y-101392820D01*
X125585620Y-100389500D01*
X131329972Y-100389500D01*
X131380000Y-100399451D01*
X131430028Y-100389500D01*
X131430032Y-100389500D01*
X131578212Y-100360025D01*
X131746247Y-100247747D01*
X131774588Y-100205332D01*
X132498024Y-99481897D01*
X132535547Y-99538053D01*
X132926197Y-99799078D01*
X133270682Y-99867600D01*
X133503318Y-99867600D01*
X133847803Y-99799078D01*
X134238453Y-99538053D01*
X134499478Y-99147403D01*
X134501999Y-99134730D01*
X134547488Y-99165125D01*
X134745700Y-99204552D01*
X134795732Y-99194600D01*
X134846058Y-99194600D01*
X135075547Y-99538053D01*
X135466197Y-99799078D01*
X135810682Y-99867600D01*
X136043318Y-99867600D01*
X136387803Y-99799078D01*
X136778453Y-99538053D01*
X137039478Y-99147403D01*
X137131137Y-98686600D01*
X137039478Y-98225797D01*
X136812833Y-97886600D01*
X137278536Y-97886600D01*
X137278536Y-99486600D01*
X137308106Y-99635259D01*
X137392314Y-99761286D01*
X137518341Y-99845494D01*
X137667000Y-99875064D01*
X139267000Y-99875064D01*
X139415659Y-99845494D01*
X139541686Y-99761286D01*
X139625894Y-99635259D01*
X139655464Y-99486600D01*
X139655464Y-99412184D01*
X139803712Y-99560432D01*
X139832053Y-99602847D01*
X140000088Y-99715125D01*
X140148268Y-99744600D01*
X140148272Y-99744600D01*
X140198299Y-99754551D01*
X140248326Y-99744600D01*
X141459637Y-99744600D01*
X141573245Y-100018873D01*
X141961727Y-100407355D01*
X142469302Y-100617600D01*
X143018698Y-100617600D01*
X143526273Y-100407355D01*
X143544496Y-100389132D01*
X146271073Y-100389132D01*
X146369736Y-100655987D01*
X146979461Y-100882508D01*
X147629460Y-100858456D01*
X148118264Y-100655987D01*
X148216927Y-100389132D01*
X147244000Y-99416205D01*
X146271073Y-100389132D01*
X143544496Y-100389132D01*
X143914755Y-100018873D01*
X144125000Y-99511298D01*
X144125000Y-98972061D01*
X145598092Y-98972061D01*
X145622144Y-99622060D01*
X145824613Y-100110864D01*
X146091468Y-100209527D01*
X147064395Y-99236600D01*
X147423605Y-99236600D01*
X148396532Y-100209527D01*
X148663387Y-100110864D01*
X148889908Y-99501139D01*
X148865856Y-98851140D01*
X148663387Y-98362336D01*
X148396532Y-98263673D01*
X147423605Y-99236600D01*
X147064395Y-99236600D01*
X146091468Y-98263673D01*
X145824613Y-98362336D01*
X145598092Y-98972061D01*
X144125000Y-98972061D01*
X144125000Y-98961902D01*
X143914755Y-98454327D01*
X143544496Y-98084068D01*
X146271073Y-98084068D01*
X147244000Y-99056995D01*
X148216927Y-98084068D01*
X148118264Y-97817213D01*
X147508539Y-97590692D01*
X146858540Y-97614744D01*
X146369736Y-97817213D01*
X146271073Y-98084068D01*
X143544496Y-98084068D01*
X143526273Y-98065845D01*
X143018698Y-97855600D01*
X142469302Y-97855600D01*
X141961727Y-98065845D01*
X141573245Y-98454327D01*
X141459637Y-98728600D01*
X140408720Y-98728600D01*
X140042888Y-98362768D01*
X140014547Y-98320353D01*
X139846512Y-98208075D01*
X139698332Y-98178600D01*
X139698328Y-98178600D01*
X139655464Y-98170074D01*
X139655464Y-97886600D01*
X139625894Y-97737941D01*
X139541686Y-97611914D01*
X139415659Y-97527706D01*
X139267000Y-97498136D01*
X137667000Y-97498136D01*
X137518341Y-97527706D01*
X137392314Y-97611914D01*
X137308106Y-97737941D01*
X137278536Y-97886600D01*
X136812833Y-97886600D01*
X136778453Y-97835147D01*
X136387803Y-97574122D01*
X136043318Y-97505600D01*
X135810682Y-97505600D01*
X135466197Y-97574122D01*
X135075547Y-97835147D01*
X135038024Y-97891304D01*
X134319488Y-97172768D01*
X134291147Y-97130353D01*
X134123112Y-97018075D01*
X133974932Y-96988600D01*
X133974928Y-96988600D01*
X133924900Y-96978649D01*
X133874872Y-96988600D01*
X127906728Y-96988600D01*
X127856700Y-96978649D01*
X127806672Y-96988600D01*
X127806668Y-96988600D01*
X127658488Y-97018075D01*
X127642417Y-97028813D01*
X127442453Y-96729547D01*
X127051803Y-96468522D01*
X126707318Y-96400000D01*
X126474682Y-96400000D01*
X126130197Y-96468522D01*
X125883200Y-96633561D01*
X125883200Y-96011086D01*
X125922017Y-96049903D01*
X126356085Y-96229700D01*
X126825915Y-96229700D01*
X127259983Y-96049903D01*
X127592203Y-95717683D01*
X127649357Y-95579700D01*
X130663510Y-95579700D01*
X130715800Y-95590101D01*
X130768090Y-95579700D01*
X130768094Y-95579700D01*
X130922986Y-95548890D01*
X131098629Y-95431529D01*
X131128252Y-95387195D01*
X132026536Y-94488912D01*
X132026536Y-94553800D01*
X132056106Y-94702459D01*
X132140314Y-94828486D01*
X132266341Y-94912694D01*
X132415000Y-94942264D01*
X134015000Y-94942264D01*
X134163659Y-94912694D01*
X134289686Y-94828486D01*
X134373894Y-94702459D01*
X134403464Y-94553800D01*
X134403464Y-92953800D01*
X134373894Y-92805141D01*
X134289686Y-92679114D01*
X134163659Y-92594906D01*
X134015000Y-92565336D01*
X133829773Y-92565336D01*
X133969005Y-92507664D01*
X134043139Y-92261545D01*
X133215000Y-91433405D01*
X132386861Y-92261545D01*
X132460995Y-92507664D01*
X132621445Y-92565336D01*
X132415000Y-92565336D01*
X132266341Y-92594906D01*
X132140314Y-92679114D01*
X132056106Y-92805141D01*
X132026536Y-92953800D01*
X132026536Y-93215549D01*
X132010699Y-93212399D01*
X131958409Y-93222800D01*
X131958406Y-93222800D01*
X131803514Y-93253610D01*
X131701654Y-93321671D01*
X131627871Y-93370971D01*
X131598250Y-93415302D01*
X130495853Y-94517700D01*
X127649357Y-94517700D01*
X127592203Y-94379717D01*
X127259983Y-94047497D01*
X126825915Y-93867700D01*
X126356085Y-93867700D01*
X126049890Y-93994530D01*
X128111833Y-91932587D01*
X128154247Y-91904247D01*
X128266525Y-91736212D01*
X128296000Y-91588032D01*
X128296000Y-91588028D01*
X128305951Y-91538001D01*
X128296000Y-91487974D01*
X128296000Y-91037023D01*
X131768035Y-91037023D01*
X131795222Y-91607254D01*
X131961136Y-92007805D01*
X132207255Y-92081939D01*
X133035395Y-91253800D01*
X133394605Y-91253800D01*
X134222745Y-92081939D01*
X134468864Y-92007805D01*
X134661965Y-91470577D01*
X134634778Y-90900346D01*
X134468864Y-90499795D01*
X134222745Y-90425661D01*
X133394605Y-91253800D01*
X133035395Y-91253800D01*
X132207255Y-90425661D01*
X131961136Y-90499795D01*
X131768035Y-91037023D01*
X128296000Y-91037023D01*
X128296000Y-90246055D01*
X132386861Y-90246055D01*
X133215000Y-91074195D01*
X134043139Y-90246055D01*
X133969005Y-89999936D01*
X133431777Y-89806835D01*
X132861546Y-89834022D01*
X132460995Y-89999936D01*
X132386861Y-90246055D01*
X128296000Y-90246055D01*
X128296000Y-89551227D01*
X128305951Y-89501199D01*
X128296000Y-89451171D01*
X128296000Y-89451168D01*
X128266525Y-89302988D01*
X128260984Y-89294695D01*
X128182588Y-89177367D01*
X128182586Y-89177365D01*
X128154247Y-89134953D01*
X128111835Y-89106614D01*
X126679088Y-87673868D01*
X126650747Y-87631453D01*
X126544110Y-87560200D01*
X126753576Y-87246712D01*
X126849116Y-86766400D01*
X126878884Y-86766400D01*
X126974424Y-87246712D01*
X127246499Y-87653901D01*
X127653688Y-87925976D01*
X128012761Y-87997400D01*
X128255239Y-87997400D01*
X128614312Y-87925976D01*
X129021501Y-87653901D01*
X129293576Y-87246712D01*
X129389116Y-86766400D01*
X129418884Y-86766400D01*
X129514424Y-87246712D01*
X129786499Y-87653901D01*
X130193688Y-87925976D01*
X130552761Y-87997400D01*
X130795239Y-87997400D01*
X131154312Y-87925976D01*
X131561501Y-87653901D01*
X131833576Y-87246712D01*
X131929116Y-86766400D01*
X131833576Y-86286088D01*
X131561501Y-85878899D01*
X131154312Y-85606824D01*
X130795239Y-85535400D01*
X130552761Y-85535400D01*
X130193688Y-85606824D01*
X129786499Y-85878899D01*
X129514424Y-86286088D01*
X129418884Y-86766400D01*
X129389116Y-86766400D01*
X129293576Y-86286088D01*
X129021501Y-85878899D01*
X128614312Y-85606824D01*
X128255239Y-85535400D01*
X128012761Y-85535400D01*
X127653688Y-85606824D01*
X127246499Y-85878899D01*
X126974424Y-86286088D01*
X126878884Y-86766400D01*
X126849116Y-86766400D01*
X126753576Y-86286088D01*
X126481501Y-85878899D01*
X126074312Y-85606824D01*
X125715239Y-85535400D01*
X125472761Y-85535400D01*
X125113688Y-85606824D01*
X124706499Y-85878899D01*
X124436245Y-86283363D01*
X124249183Y-85885042D01*
X123820924Y-85494755D01*
X123410890Y-85324924D01*
X123181000Y-85446245D01*
X123181000Y-86639400D01*
X123201000Y-86639400D01*
X123201000Y-86893400D01*
X123181000Y-86893400D01*
X123181000Y-88086555D01*
X123410890Y-88207876D01*
X123820924Y-88038045D01*
X124249183Y-87647758D01*
X124436245Y-87249437D01*
X124706499Y-87653901D01*
X125086001Y-87907476D01*
X125086001Y-87947663D01*
X125076048Y-87997700D01*
X125115475Y-88195912D01*
X125227753Y-88363947D01*
X125395788Y-88476225D01*
X125543968Y-88505700D01*
X125594000Y-88515652D01*
X125644032Y-88505700D01*
X126074080Y-88505700D01*
X126209089Y-88640709D01*
X125836995Y-88794836D01*
X125762861Y-89040955D01*
X126591000Y-89869095D01*
X126605143Y-89854953D01*
X126784748Y-90034558D01*
X126770605Y-90048700D01*
X126784748Y-90062843D01*
X126605142Y-90242448D01*
X126591000Y-90228305D01*
X125762861Y-91056445D01*
X125836995Y-91302564D01*
X126374223Y-91495665D01*
X126944454Y-91468478D01*
X127276739Y-91330841D01*
X125051366Y-93556214D01*
X125008954Y-93584553D01*
X124980615Y-93626965D01*
X124980612Y-93626968D01*
X124896675Y-93752589D01*
X124857249Y-93950800D01*
X124867201Y-94000833D01*
X124867200Y-99671080D01*
X123755380Y-100782900D01*
X123744453Y-100766547D01*
X123353803Y-100505522D01*
X123009318Y-100437000D01*
X122776682Y-100437000D01*
X122432197Y-100505522D01*
X122041547Y-100766547D01*
X121780522Y-101157197D01*
X121688863Y-101618000D01*
X120844320Y-101618000D01*
X117555659Y-98329339D01*
X120231096Y-98329339D01*
X120391959Y-98717723D01*
X120767866Y-99132689D01*
X121273959Y-99372214D01*
X121496000Y-99250929D01*
X121496000Y-98107300D01*
X121750000Y-98107300D01*
X121750000Y-99250929D01*
X121972041Y-99372214D01*
X122478134Y-99132689D01*
X122854041Y-98717723D01*
X123014904Y-98329339D01*
X122892915Y-98107300D01*
X121750000Y-98107300D01*
X121496000Y-98107300D01*
X120353085Y-98107300D01*
X120231096Y-98329339D01*
X117555659Y-98329339D01*
X116857581Y-97631261D01*
X120231096Y-97631261D01*
X120353085Y-97853300D01*
X121496000Y-97853300D01*
X121496000Y-96709671D01*
X121750000Y-96709671D01*
X121750000Y-97853300D01*
X122892915Y-97853300D01*
X123014904Y-97631261D01*
X122854041Y-97242877D01*
X122478134Y-96827911D01*
X121972041Y-96588386D01*
X121750000Y-96709671D01*
X121496000Y-96709671D01*
X121273959Y-96588386D01*
X120767866Y-96827911D01*
X120391959Y-97242877D01*
X120231096Y-97631261D01*
X116857581Y-97631261D01*
X115701387Y-96475067D01*
X115673047Y-96432653D01*
X115505012Y-96320375D01*
X115356832Y-96290900D01*
X115356828Y-96290900D01*
X115306800Y-96280949D01*
X115256772Y-96290900D01*
X114274721Y-96290900D01*
X113764585Y-95780764D01*
X114803000Y-95780764D01*
X114951659Y-95751194D01*
X115077686Y-95666986D01*
X115161894Y-95540959D01*
X115191464Y-95392300D01*
X115191464Y-94941339D01*
X120231096Y-94941339D01*
X120391959Y-95329723D01*
X120767866Y-95744689D01*
X121273959Y-95984214D01*
X121496000Y-95862929D01*
X121496000Y-94719300D01*
X121750000Y-94719300D01*
X121750000Y-95862929D01*
X121972041Y-95984214D01*
X122478134Y-95744689D01*
X122854041Y-95329723D01*
X123014904Y-94941339D01*
X122892915Y-94719300D01*
X121750000Y-94719300D01*
X121496000Y-94719300D01*
X120353085Y-94719300D01*
X120231096Y-94941339D01*
X115191464Y-94941339D01*
X115191464Y-94243261D01*
X120231096Y-94243261D01*
X120353085Y-94465300D01*
X121496000Y-94465300D01*
X121496000Y-93321671D01*
X121750000Y-93321671D01*
X121750000Y-94465300D01*
X122892915Y-94465300D01*
X123014904Y-94243261D01*
X122854041Y-93854877D01*
X122478134Y-93439911D01*
X121972041Y-93200386D01*
X121750000Y-93321671D01*
X121496000Y-93321671D01*
X121273959Y-93200386D01*
X120767866Y-93439911D01*
X120391959Y-93854877D01*
X120231096Y-94243261D01*
X115191464Y-94243261D01*
X115191464Y-93792300D01*
X115161894Y-93643641D01*
X115077686Y-93517614D01*
X114951659Y-93433406D01*
X114803000Y-93403836D01*
X113203000Y-93403836D01*
X113054341Y-93433406D01*
X112928314Y-93517614D01*
X112844106Y-93643641D01*
X112814536Y-93792300D01*
X112814536Y-94830715D01*
X107512260Y-89528439D01*
X109520096Y-89528439D01*
X109680959Y-89916823D01*
X110056866Y-90331789D01*
X110562959Y-90571314D01*
X110785000Y-90450029D01*
X110785000Y-89306400D01*
X111039000Y-89306400D01*
X111039000Y-90450029D01*
X111261041Y-90571314D01*
X111699289Y-90363899D01*
X111552000Y-90719485D01*
X111552000Y-91189315D01*
X111731797Y-91623383D01*
X112064017Y-91955603D01*
X112498085Y-92135400D01*
X112967915Y-92135400D01*
X113401983Y-91955603D01*
X113734203Y-91623383D01*
X113914000Y-91189315D01*
X113914000Y-90954400D01*
X121688863Y-90954400D01*
X121780522Y-91415203D01*
X122041547Y-91805853D01*
X122432197Y-92066878D01*
X122776682Y-92135400D01*
X123009318Y-92135400D01*
X123353803Y-92066878D01*
X123744453Y-91805853D01*
X124005478Y-91415203D01*
X124097137Y-90954400D01*
X124005478Y-90493597D01*
X123744453Y-90102947D01*
X123353803Y-89841922D01*
X123303535Y-89831923D01*
X125144035Y-89831923D01*
X125171222Y-90402154D01*
X125337136Y-90802705D01*
X125583255Y-90876839D01*
X126411395Y-90048700D01*
X125583255Y-89220561D01*
X125337136Y-89294695D01*
X125144035Y-89831923D01*
X123303535Y-89831923D01*
X123009318Y-89773400D01*
X122776682Y-89773400D01*
X122432197Y-89841922D01*
X122041547Y-90102947D01*
X121780522Y-90493597D01*
X121688863Y-90954400D01*
X113914000Y-90954400D01*
X113914000Y-90719485D01*
X113734203Y-90285417D01*
X113401983Y-89953197D01*
X112967915Y-89773400D01*
X112498085Y-89773400D01*
X112137762Y-89922651D01*
X112143041Y-89916823D01*
X112303904Y-89528439D01*
X112181915Y-89306400D01*
X111039000Y-89306400D01*
X110785000Y-89306400D01*
X109642085Y-89306400D01*
X109520096Y-89528439D01*
X107512260Y-89528439D01*
X106814182Y-88830361D01*
X109520096Y-88830361D01*
X109642085Y-89052400D01*
X110785000Y-89052400D01*
X110785000Y-87908771D01*
X111039000Y-87908771D01*
X111039000Y-89052400D01*
X112181915Y-89052400D01*
X112303904Y-88830361D01*
X112143041Y-88441977D01*
X111767134Y-88027011D01*
X111261041Y-87787486D01*
X111039000Y-87908771D01*
X110785000Y-87908771D01*
X110562959Y-87787486D01*
X110056866Y-88027011D01*
X109680959Y-88441977D01*
X109520096Y-88830361D01*
X106814182Y-88830361D01*
X103070488Y-85086668D01*
X103042147Y-85044253D01*
X102874112Y-84931975D01*
X102725932Y-84902500D01*
X102725928Y-84902500D01*
X102675900Y-84892549D01*
X102625872Y-84902500D01*
X97807924Y-84902500D01*
X97717779Y-84684872D01*
X97482918Y-84450011D01*
X104899000Y-84450011D01*
X104899000Y-85039189D01*
X105124468Y-85583519D01*
X105541081Y-86000132D01*
X106085411Y-86225600D01*
X106674589Y-86225600D01*
X107218919Y-86000132D01*
X107302651Y-85916400D01*
X119275536Y-85916400D01*
X119275536Y-87616400D01*
X119305106Y-87765059D01*
X119389314Y-87891086D01*
X119515341Y-87975294D01*
X119664000Y-88004864D01*
X121364000Y-88004864D01*
X121512659Y-87975294D01*
X121638686Y-87891086D01*
X121722894Y-87765059D01*
X121752464Y-87616400D01*
X121752464Y-87421295D01*
X121858817Y-87647758D01*
X122287076Y-88038045D01*
X122697110Y-88207876D01*
X122927000Y-88086555D01*
X122927000Y-86893400D01*
X122907000Y-86893400D01*
X122907000Y-86639400D01*
X122927000Y-86639400D01*
X122927000Y-85446245D01*
X122697110Y-85324924D01*
X122287076Y-85494755D01*
X121858817Y-85885042D01*
X121752464Y-86111505D01*
X121752464Y-85916400D01*
X121722894Y-85767741D01*
X121638686Y-85641714D01*
X121512659Y-85557506D01*
X121364000Y-85527936D01*
X119664000Y-85527936D01*
X119515341Y-85557506D01*
X119389314Y-85641714D01*
X119305106Y-85767741D01*
X119275536Y-85916400D01*
X107302651Y-85916400D01*
X107635532Y-85583519D01*
X107861000Y-85039189D01*
X107861000Y-84450011D01*
X143317000Y-84450011D01*
X143317000Y-85039189D01*
X143542468Y-85583519D01*
X143959081Y-86000132D01*
X144503411Y-86225600D01*
X145092589Y-86225600D01*
X145636919Y-86000132D01*
X146053532Y-85583519D01*
X146279000Y-85039189D01*
X146279000Y-84450011D01*
X146053532Y-83905681D01*
X145636919Y-83489068D01*
X145092589Y-83263600D01*
X144503411Y-83263600D01*
X143959081Y-83489068D01*
X143542468Y-83905681D01*
X143317000Y-84450011D01*
X107861000Y-84450011D01*
X107635532Y-83905681D01*
X107218919Y-83489068D01*
X106674589Y-83263600D01*
X106085411Y-83263600D01*
X105541081Y-83489068D01*
X105124468Y-83905681D01*
X104899000Y-84450011D01*
X97482918Y-84450011D01*
X97357428Y-84324521D01*
X96886607Y-84129500D01*
X96376993Y-84129500D01*
X95906172Y-84324521D01*
X95545821Y-84684872D01*
X95350800Y-85155693D01*
X95350800Y-85665307D01*
X95545821Y-86136128D01*
X95906172Y-86496479D01*
X96305861Y-86662036D01*
X95731800Y-86662036D01*
X95583141Y-86691606D01*
X95457114Y-86775814D01*
X95372906Y-86901841D01*
X95343336Y-87050500D01*
X93148590Y-87050500D01*
X93148590Y-86857075D01*
X93163869Y-86507132D01*
X93208508Y-86168058D01*
X93282531Y-85834164D01*
X93385372Y-85507998D01*
X93516252Y-85192027D01*
X93674170Y-84888671D01*
X93857924Y-84600235D01*
X94066117Y-84328915D01*
X94297168Y-84076768D01*
X94549302Y-83845729D01*
X94820628Y-83637532D01*
X95109063Y-83453779D01*
X95412419Y-83295861D01*
X95728389Y-83164982D01*
X96054554Y-83062141D01*
X96364297Y-82993473D01*
X145625020Y-82928388D01*
X146870791Y-84011668D01*
X146870791Y-84011668D01*
G37*
X146870791Y-84011668D02*
X146870790Y-86571252D01*
X146869983Y-86573263D01*
X146870790Y-86646547D01*
X146870790Y-86681913D01*
X146871202Y-86683986D01*
X146871645Y-86724187D01*
X146885782Y-86757282D01*
X146892804Y-86792584D01*
X146915143Y-86826017D01*
X146915971Y-86827956D01*
X146935899Y-86857081D01*
X146976658Y-86918083D01*
X146978461Y-86919288D01*
X149665791Y-90846926D01*
X149665790Y-111043602D01*
X147021174Y-113291525D01*
X146976659Y-113321269D01*
X146943262Y-113371252D01*
X146905937Y-113418369D01*
X146901602Y-113433601D01*
X146892805Y-113446767D01*
X146881080Y-113505712D01*
X146864623Y-113563539D01*
X146870791Y-113616726D01*
X146870790Y-114934915D01*
X96364293Y-114870128D01*
X96054554Y-114801461D01*
X95728389Y-114698620D01*
X95412419Y-114567741D01*
X95109063Y-114409823D01*
X94820628Y-114226070D01*
X94549302Y-114017873D01*
X94297168Y-113786834D01*
X94066117Y-113534687D01*
X93857924Y-113263367D01*
X93674170Y-112974931D01*
X93516252Y-112671575D01*
X93385372Y-112355604D01*
X93282531Y-112029438D01*
X93208508Y-111695544D01*
X93163869Y-111356470D01*
X93148590Y-111006527D01*
X93148590Y-109013000D01*
X95343336Y-109013000D01*
X95343336Y-110813000D01*
X95372906Y-110961659D01*
X95457114Y-111087686D01*
X95583141Y-111171894D01*
X95731800Y-111201464D01*
X96305861Y-111201464D01*
X95906172Y-111367021D01*
X95545821Y-111727372D01*
X95350800Y-112198193D01*
X95350800Y-112707807D01*
X95545821Y-113178628D01*
X95906172Y-113538979D01*
X96376993Y-113734000D01*
X96886607Y-113734000D01*
X97357428Y-113538979D01*
X97717779Y-113178628D01*
X97912800Y-112707807D01*
X97912800Y-112198193D01*
X97832182Y-112003565D01*
X97910748Y-111925000D01*
X105428549Y-111925000D01*
X105124468Y-112229081D01*
X104899000Y-112773411D01*
X104899000Y-113362589D01*
X105124468Y-113906919D01*
X105541081Y-114323532D01*
X106085411Y-114549000D01*
X106674589Y-114549000D01*
X107218919Y-114323532D01*
X107635532Y-113906919D01*
X107861000Y-113362589D01*
X107861000Y-112773411D01*
X107635532Y-112229081D01*
X107331451Y-111925000D01*
X114659536Y-111925000D01*
X114659536Y-112044000D01*
X114689106Y-112192659D01*
X114773314Y-112318686D01*
X114899341Y-112402894D01*
X115048000Y-112432464D01*
X116348000Y-112432464D01*
X116496659Y-112402894D01*
X116622686Y-112318686D01*
X116706894Y-112192659D01*
X116736464Y-112044000D01*
X116736464Y-110744000D01*
X116706894Y-110595341D01*
X116622686Y-110469314D01*
X116496659Y-110385106D01*
X116348000Y-110355536D01*
X115708009Y-110355536D01*
X115725622Y-110304922D01*
X115701317Y-109885000D01*
X115903079Y-109885000D01*
X116282014Y-109728039D01*
X116572039Y-109438014D01*
X116729000Y-109059079D01*
X116729000Y-108648921D01*
X116572039Y-108269986D01*
X116282014Y-107979961D01*
X115903079Y-107823000D01*
X115492921Y-107823000D01*
X115113986Y-107979961D01*
X114823961Y-108269986D01*
X114667000Y-108648921D01*
X114667000Y-108846588D01*
X114608922Y-108826378D01*
X114098572Y-108855917D01*
X113764271Y-108994389D01*
X113708590Y-109224984D01*
X114428000Y-109944395D01*
X114442143Y-109930253D01*
X114621748Y-110109858D01*
X114607605Y-110124000D01*
X114621748Y-110138142D01*
X114442142Y-110317748D01*
X114428000Y-110303605D01*
X114413858Y-110317748D01*
X114234252Y-110138142D01*
X114248395Y-110124000D01*
X113528984Y-109404590D01*
X113298389Y-109460271D01*
X113130378Y-109943078D01*
X113159917Y-110453428D01*
X113298389Y-110787729D01*
X113528982Y-110843410D01*
X113509392Y-110863000D01*
X97910318Y-110863000D01*
X97920264Y-110813000D01*
X97920264Y-110429526D01*
X97963128Y-110421000D01*
X97963132Y-110421000D01*
X98111312Y-110391525D01*
X98228028Y-110313537D01*
X98236932Y-110307588D01*
X98279347Y-110279247D01*
X98307688Y-110236832D01*
X99301520Y-109243000D01*
X99684116Y-109243000D01*
X99750797Y-109403983D01*
X100083017Y-109736203D01*
X100517085Y-109916000D01*
X100986915Y-109916000D01*
X101420983Y-109736203D01*
X101753203Y-109403983D01*
X101885728Y-109084039D01*
X109520096Y-109084039D01*
X109680959Y-109472423D01*
X110056866Y-109887389D01*
X110562959Y-110126914D01*
X110785000Y-110005629D01*
X110785000Y-108862000D01*
X111039000Y-108862000D01*
X111039000Y-110005629D01*
X111261041Y-110126914D01*
X111767134Y-109887389D01*
X112143041Y-109472423D01*
X112303904Y-109084039D01*
X112181915Y-108862000D01*
X111039000Y-108862000D01*
X110785000Y-108862000D01*
X109642085Y-108862000D01*
X109520096Y-109084039D01*
X101885728Y-109084039D01*
X101933000Y-108969915D01*
X101933000Y-108500085D01*
X101885729Y-108385961D01*
X109520096Y-108385961D01*
X109642085Y-108608000D01*
X110785000Y-108608000D01*
X110785000Y-107464371D01*
X111039000Y-107464371D01*
X111039000Y-108608000D01*
X112181915Y-108608000D01*
X112303904Y-108385961D01*
X112143041Y-107997577D01*
X111767134Y-107582611D01*
X111261041Y-107343086D01*
X111039000Y-107464371D01*
X110785000Y-107464371D01*
X110562959Y-107343086D01*
X110056866Y-107582611D01*
X109680959Y-107997577D01*
X109520096Y-108385961D01*
X101885729Y-108385961D01*
X101753203Y-108066017D01*
X101420983Y-107733797D01*
X100986915Y-107554000D01*
X100517085Y-107554000D01*
X100083017Y-107733797D01*
X99750797Y-108066017D01*
X99684116Y-108227000D01*
X99141128Y-108227000D01*
X99091100Y-108217049D01*
X99041072Y-108227000D01*
X99041068Y-108227000D01*
X98892888Y-108256475D01*
X98724853Y-108368753D01*
X98696512Y-108411168D01*
X97920264Y-109187416D01*
X97920264Y-109013000D01*
X97890694Y-108864341D01*
X97806486Y-108738314D01*
X97680459Y-108654106D01*
X97531800Y-108624536D01*
X95731800Y-108624536D01*
X95583141Y-108654106D01*
X95457114Y-108738314D01*
X95372906Y-108864341D01*
X95343336Y-109013000D01*
X93148590Y-109013000D01*
X93148590Y-106646528D01*
X101979077Y-106646528D01*
X102169364Y-106991271D01*
X103050591Y-107342956D01*
X103999323Y-107330641D01*
X104818636Y-106991271D01*
X105008923Y-106646528D01*
X103494000Y-105131605D01*
X101979077Y-106646528D01*
X93148590Y-106646528D01*
X93148590Y-104508591D01*
X101103044Y-104508591D01*
X101115359Y-105457323D01*
X101454729Y-106276636D01*
X101799472Y-106466923D01*
X103314395Y-104952000D01*
X103673605Y-104952000D01*
X105188528Y-106466923D01*
X105533271Y-106276636D01*
X105884956Y-105395409D01*
X105883147Y-105256000D01*
X112798863Y-105256000D01*
X112890522Y-105716803D01*
X113151547Y-106107453D01*
X113542197Y-106368478D01*
X113886682Y-106437000D01*
X114119318Y-106437000D01*
X114463803Y-106368478D01*
X114854453Y-106107453D01*
X115036041Y-105835688D01*
X119291765Y-110091412D01*
X119275536Y-110173000D01*
X119275536Y-111873000D01*
X119305106Y-112021659D01*
X119389314Y-112147686D01*
X119515341Y-112231894D01*
X119664000Y-112261464D01*
X121364000Y-112261464D01*
X121512659Y-112231894D01*
X121638686Y-112147686D01*
X121722894Y-112021659D01*
X121752464Y-111873000D01*
X121752464Y-111023000D01*
X121798884Y-111023000D01*
X121894424Y-111503312D01*
X122166499Y-111910501D01*
X122573688Y-112182576D01*
X122932761Y-112254000D01*
X123175239Y-112254000D01*
X123534312Y-112182576D01*
X123941501Y-111910501D01*
X124213576Y-111503312D01*
X124309116Y-111023000D01*
X124213576Y-110542688D01*
X123941501Y-110135499D01*
X123534312Y-109863424D01*
X123175239Y-109792000D01*
X122932761Y-109792000D01*
X122573688Y-109863424D01*
X122166499Y-110135499D01*
X121894424Y-110542688D01*
X121798884Y-111023000D01*
X121752464Y-111023000D01*
X121752464Y-110173000D01*
X121722894Y-110024341D01*
X121638686Y-109898314D01*
X121512659Y-109814106D01*
X121364000Y-109784536D01*
X121052252Y-109784536D01*
X121055402Y-109768700D01*
X121014190Y-109561514D01*
X120896829Y-109385871D01*
X120721186Y-109268510D01*
X120566294Y-109237700D01*
X120514000Y-109227298D01*
X120461706Y-109237700D01*
X119939947Y-109237700D01*
X115619752Y-104917505D01*
X115590129Y-104873171D01*
X115414486Y-104755810D01*
X115259594Y-104725000D01*
X115259590Y-104725000D01*
X115207300Y-104714599D01*
X115155010Y-104725000D01*
X115068574Y-104725000D01*
X114854453Y-104404547D01*
X114463803Y-104143522D01*
X114119318Y-104075000D01*
X113886682Y-104075000D01*
X113542197Y-104143522D01*
X113151547Y-104404547D01*
X112890522Y-104795197D01*
X112798863Y-105256000D01*
X105883147Y-105256000D01*
X105872641Y-104446677D01*
X105533271Y-103627364D01*
X105188528Y-103437077D01*
X103673605Y-104952000D01*
X103314395Y-104952000D01*
X101799472Y-103437077D01*
X101454729Y-103627364D01*
X101103044Y-104508591D01*
X93148590Y-104508591D01*
X93148590Y-103257472D01*
X101979077Y-103257472D01*
X103494000Y-104772395D01*
X105008923Y-103257472D01*
X104818636Y-102912729D01*
X103937409Y-102561044D01*
X102988677Y-102573359D01*
X102169364Y-102912729D01*
X101979077Y-103257472D01*
X93148590Y-103257472D01*
X93148590Y-99953279D01*
X104707282Y-99953279D01*
X104733685Y-100543458D01*
X104908741Y-100966080D01*
X105160042Y-101046353D01*
X106024395Y-100182000D01*
X105160042Y-99317647D01*
X104908741Y-99397920D01*
X104707282Y-99953279D01*
X93148590Y-99953279D01*
X93148590Y-94606528D01*
X101979077Y-94606528D01*
X102169364Y-94951271D01*
X103050591Y-95302956D01*
X103999323Y-95290641D01*
X104818636Y-94951271D01*
X105008923Y-94606528D01*
X103494000Y-93091605D01*
X101979077Y-94606528D01*
X93148590Y-94606528D01*
X93148590Y-92468591D01*
X101103044Y-92468591D01*
X101115359Y-93417323D01*
X101454729Y-94236636D01*
X101799472Y-94426923D01*
X103314395Y-92912000D01*
X103673605Y-92912000D01*
X105188528Y-94426923D01*
X105533271Y-94236636D01*
X105884956Y-93355409D01*
X105872641Y-92406677D01*
X105533271Y-91587364D01*
X105188528Y-91397077D01*
X103673605Y-92912000D01*
X103314395Y-92912000D01*
X101799472Y-91397077D01*
X101454729Y-91587364D01*
X101103044Y-92468591D01*
X93148590Y-92468591D01*
X93148590Y-91217472D01*
X101979077Y-91217472D01*
X103494000Y-92732395D01*
X105008923Y-91217472D01*
X104818636Y-90872729D01*
X103937409Y-90521044D01*
X102988677Y-90533359D01*
X102169364Y-90872729D01*
X101979077Y-91217472D01*
X93148590Y-91217472D01*
X93148590Y-87050500D01*
X95343336Y-87050500D01*
X95343336Y-88850500D01*
X95372906Y-88999159D01*
X95457114Y-89125186D01*
X95583141Y-89209394D01*
X95731800Y-89238964D01*
X97531800Y-89238964D01*
X97680459Y-89209394D01*
X97806486Y-89125186D01*
X97890694Y-88999159D01*
X97920264Y-88850500D01*
X97920264Y-88676084D01*
X98747414Y-89503235D01*
X98775753Y-89545647D01*
X98818165Y-89573986D01*
X98818167Y-89573988D01*
X98943788Y-89657925D01*
X99091968Y-89687400D01*
X99091971Y-89687400D01*
X99141999Y-89697351D01*
X99192027Y-89687400D01*
X99684116Y-89687400D01*
X99750797Y-89848383D01*
X100083017Y-90180603D01*
X100517085Y-90360400D01*
X100986915Y-90360400D01*
X101420983Y-90180603D01*
X101753203Y-89848383D01*
X101933000Y-89414315D01*
X101933000Y-88944485D01*
X101753203Y-88510417D01*
X101420983Y-88178197D01*
X100986915Y-87998400D01*
X100517085Y-87998400D01*
X100083017Y-88178197D01*
X99750797Y-88510417D01*
X99684116Y-88671400D01*
X99352421Y-88671400D01*
X98307688Y-87626668D01*
X98279347Y-87584253D01*
X98111312Y-87471975D01*
X97963132Y-87442500D01*
X97963128Y-87442500D01*
X97920264Y-87433974D01*
X97920264Y-87050500D01*
X97890694Y-86901841D01*
X97806486Y-86775814D01*
X97680459Y-86691606D01*
X97531800Y-86662036D01*
X96957739Y-86662036D01*
X97357428Y-86496479D01*
X97717779Y-86136128D01*
X97807924Y-85918500D01*
X102465480Y-85918500D01*
X113338815Y-96791836D01*
X113203000Y-96791836D01*
X113054341Y-96821406D01*
X112928314Y-96905614D01*
X112844106Y-97031641D01*
X112814536Y-97180300D01*
X112814536Y-97463774D01*
X112771671Y-97472300D01*
X112771668Y-97472300D01*
X112623488Y-97501775D01*
X112455453Y-97614053D01*
X112427112Y-97656468D01*
X111640980Y-98442600D01*
X109184298Y-98442600D01*
X109247592Y-98379306D01*
X109435000Y-97926861D01*
X109435000Y-97437139D01*
X109247592Y-96984694D01*
X108901306Y-96638408D01*
X108448861Y-96451000D01*
X107959139Y-96451000D01*
X107506694Y-96638408D01*
X107204000Y-96941102D01*
X106901306Y-96638408D01*
X106448861Y-96451000D01*
X105959139Y-96451000D01*
X105506694Y-96638408D01*
X105160408Y-96984694D01*
X104973000Y-97437139D01*
X104973000Y-97926861D01*
X105160408Y-98379306D01*
X105506694Y-98725592D01*
X105657831Y-98788195D01*
X105419920Y-98886741D01*
X105339647Y-99138042D01*
X106204000Y-100002395D01*
X106218143Y-99988253D01*
X106397748Y-100167858D01*
X106383605Y-100182000D01*
X106397748Y-100196143D01*
X106218143Y-100375748D01*
X106204000Y-100361605D01*
X105339647Y-101225958D01*
X105419920Y-101477259D01*
X105975279Y-101678718D01*
X106565458Y-101652315D01*
X106988080Y-101477259D01*
X107054452Y-101269477D01*
X107079314Y-101306686D01*
X107205341Y-101390894D01*
X107354000Y-101420464D01*
X109054000Y-101420464D01*
X109202659Y-101390894D01*
X109328686Y-101306686D01*
X109412894Y-101180659D01*
X109442464Y-101032000D01*
X109442464Y-99458600D01*
X111343401Y-99458600D01*
X111343400Y-100686372D01*
X111333449Y-100736400D01*
X111343400Y-100786428D01*
X111343400Y-100786431D01*
X111357727Y-100858456D01*
X111372875Y-100934611D01*
X111447539Y-101046353D01*
X111485153Y-101102647D01*
X111527568Y-101130988D01*
X111618682Y-101222102D01*
X111552000Y-101383085D01*
X111552000Y-101852915D01*
X111731797Y-102286983D01*
X112064017Y-102619203D01*
X112498085Y-102799000D01*
X112967915Y-102799000D01*
X113401983Y-102619203D01*
X113734203Y-102286983D01*
X113914000Y-101852915D01*
X113914000Y-101383085D01*
X113734203Y-100949017D01*
X113401983Y-100616797D01*
X112967915Y-100437000D01*
X112498085Y-100437000D01*
X112359400Y-100494445D01*
X112359400Y-99161020D01*
X112814536Y-98705884D01*
X112814536Y-98780300D01*
X112844106Y-98928959D01*
X112928314Y-99054986D01*
X113054341Y-99139194D01*
X113203000Y-99168764D01*
X114803000Y-99168764D01*
X114951659Y-99139194D01*
X115077686Y-99054986D01*
X115161894Y-98928959D01*
X115191464Y-98780300D01*
X115191464Y-97401984D01*
X121857016Y-104067536D01*
X120823000Y-104067536D01*
X120674341Y-104097106D01*
X120548314Y-104181314D01*
X120464106Y-104307341D01*
X120434536Y-104456000D01*
X120434536Y-106056000D01*
X120464106Y-106204659D01*
X120548314Y-106330686D01*
X120674341Y-106414894D01*
X120823000Y-106444464D01*
X122423000Y-106444464D01*
X122571659Y-106414894D01*
X122697686Y-106330686D01*
X122781894Y-106204659D01*
X122811464Y-106056000D01*
X122811464Y-105021984D01*
X123854701Y-106065221D01*
X123854700Y-108510372D01*
X123844749Y-108560400D01*
X123854700Y-108610428D01*
X123854700Y-108610431D01*
X123880138Y-108738314D01*
X123884175Y-108758611D01*
X123906961Y-108792712D01*
X123996453Y-108926647D01*
X124038868Y-108954988D01*
X125013948Y-109930068D01*
X124706499Y-110135499D01*
X124434424Y-110542688D01*
X124338884Y-111023000D01*
X124434424Y-111503312D01*
X124706499Y-111910501D01*
X125113688Y-112182576D01*
X125472761Y-112254000D01*
X125715239Y-112254000D01*
X126074312Y-112182576D01*
X126481501Y-111910501D01*
X126753576Y-111503312D01*
X126849116Y-111023000D01*
X126753576Y-110542688D01*
X126481501Y-110135499D01*
X126102000Y-109881925D01*
X126102000Y-109841727D01*
X126111951Y-109791699D01*
X126102000Y-109741671D01*
X126102000Y-109741668D01*
X126072525Y-109593488D01*
X126030933Y-109531241D01*
X125988588Y-109467867D01*
X125988586Y-109467865D01*
X125960247Y-109425453D01*
X125917835Y-109397114D01*
X124870700Y-108349980D01*
X124870700Y-107506085D01*
X125410000Y-107506085D01*
X125410000Y-107975915D01*
X125589797Y-108409983D01*
X125922017Y-108742203D01*
X126356085Y-108922000D01*
X126825915Y-108922000D01*
X127010921Y-108845368D01*
X127966712Y-109801160D01*
X127653688Y-109863424D01*
X127246499Y-110135499D01*
X126974424Y-110542688D01*
X126878884Y-111023000D01*
X126974424Y-111503312D01*
X127246499Y-111910501D01*
X127653688Y-112182576D01*
X128012761Y-112254000D01*
X128255239Y-112254000D01*
X128614312Y-112182576D01*
X129021501Y-111910501D01*
X129272342Y-111535091D01*
X129367406Y-111554000D01*
X129419700Y-111564402D01*
X129471994Y-111554000D01*
X129548293Y-111554000D01*
X129786499Y-111910501D01*
X130193688Y-112182576D01*
X130552761Y-112254000D01*
X130795239Y-112254000D01*
X131154312Y-112182576D01*
X131561501Y-111910501D01*
X131833576Y-111503312D01*
X131929116Y-111023000D01*
X131833576Y-110542688D01*
X131561501Y-110135499D01*
X131154312Y-109863424D01*
X130795239Y-109792000D01*
X130552761Y-109792000D01*
X130193688Y-109863424D01*
X129804569Y-110123425D01*
X129802529Y-110120371D01*
X129758198Y-110090750D01*
X127734323Y-108066876D01*
X127772000Y-107975915D01*
X127772000Y-107506085D01*
X127592203Y-107072017D01*
X127259983Y-106739797D01*
X126825915Y-106560000D01*
X126356085Y-106560000D01*
X125922017Y-106739797D01*
X125589797Y-107072017D01*
X125410000Y-107506085D01*
X124870700Y-107506085D01*
X124870700Y-106306600D01*
X129642863Y-106306600D01*
X129734522Y-106767403D01*
X129995547Y-107158053D01*
X130339001Y-107387542D01*
X130339001Y-108387767D01*
X130329049Y-108437800D01*
X130368475Y-108636011D01*
X130452412Y-108761632D01*
X130452415Y-108761635D01*
X130480754Y-108804047D01*
X130523166Y-108832386D01*
X134732512Y-113041732D01*
X134760853Y-113084147D01*
X134928888Y-113196425D01*
X135077068Y-113225900D01*
X135077072Y-113225900D01*
X135127099Y-113235851D01*
X135177126Y-113225900D01*
X136767072Y-113225900D01*
X136817100Y-113235851D01*
X136867128Y-113225900D01*
X136867132Y-113225900D01*
X137015312Y-113196425D01*
X137183347Y-113084147D01*
X137211688Y-113041732D01*
X137480009Y-112773411D01*
X143317000Y-112773411D01*
X143317000Y-113362589D01*
X143542468Y-113906919D01*
X143959081Y-114323532D01*
X144503411Y-114549000D01*
X145092589Y-114549000D01*
X145636919Y-114323532D01*
X146053532Y-113906919D01*
X146279000Y-113362589D01*
X146279000Y-112773411D01*
X146053532Y-112229081D01*
X145636919Y-111812468D01*
X145092589Y-111587000D01*
X144503411Y-111587000D01*
X143959081Y-111812468D01*
X143542468Y-112229081D01*
X143317000Y-112773411D01*
X137480009Y-112773411D01*
X138020721Y-112232700D01*
X138231097Y-112232700D01*
X138515832Y-112114759D01*
X138712000Y-111918591D01*
X138908168Y-112114759D01*
X139192903Y-112232700D01*
X139395309Y-112232700D01*
X139452614Y-112270990D01*
X139607506Y-112301800D01*
X139607509Y-112301800D01*
X139659799Y-112312201D01*
X139712089Y-112301800D01*
X140890810Y-112301800D01*
X140943100Y-112312201D01*
X140995390Y-112301800D01*
X140995394Y-112301800D01*
X141150286Y-112270990D01*
X141325929Y-112153629D01*
X141355552Y-112109295D01*
X141880098Y-111584750D01*
X141924429Y-111555129D01*
X142041790Y-111379486D01*
X142072600Y-111224594D01*
X142072600Y-111224593D01*
X142083002Y-111172300D01*
X142072600Y-111120006D01*
X142072600Y-110512989D01*
X142083001Y-110460699D01*
X142072600Y-110408409D01*
X142072600Y-110408406D01*
X142041790Y-110253514D01*
X141987992Y-110173000D01*
X141954051Y-110122203D01*
X141954050Y-110122202D01*
X141924429Y-110077871D01*
X141880098Y-110048250D01*
X139121500Y-107289653D01*
X139318453Y-107158053D01*
X139579478Y-106767403D01*
X139671137Y-106306600D01*
X139579478Y-105845797D01*
X139322967Y-105461902D01*
X141363000Y-105461902D01*
X141363000Y-106011298D01*
X141573245Y-106518873D01*
X141961727Y-106907355D01*
X142469302Y-107117600D01*
X143018698Y-107117600D01*
X143526273Y-106907355D01*
X143544496Y-106889132D01*
X146271073Y-106889132D01*
X146369736Y-107155987D01*
X146979461Y-107382508D01*
X147629460Y-107358456D01*
X148118264Y-107155987D01*
X148216927Y-106889132D01*
X147244000Y-105916205D01*
X146271073Y-106889132D01*
X143544496Y-106889132D01*
X143914755Y-106518873D01*
X144125000Y-106011298D01*
X144125000Y-105472061D01*
X145598092Y-105472061D01*
X145622144Y-106122060D01*
X145824613Y-106610864D01*
X146091468Y-106709527D01*
X147064395Y-105736600D01*
X147423605Y-105736600D01*
X148396532Y-106709527D01*
X148663387Y-106610864D01*
X148889908Y-106001139D01*
X148865856Y-105351140D01*
X148663387Y-104862336D01*
X148396532Y-104763673D01*
X147423605Y-105736600D01*
X147064395Y-105736600D01*
X146091468Y-104763673D01*
X145824613Y-104862336D01*
X145598092Y-105472061D01*
X144125000Y-105472061D01*
X144125000Y-105461902D01*
X143914755Y-104954327D01*
X143544496Y-104584068D01*
X146271073Y-104584068D01*
X147244000Y-105556995D01*
X148216927Y-104584068D01*
X148118264Y-104317213D01*
X147508539Y-104090692D01*
X146858540Y-104114744D01*
X146369736Y-104317213D01*
X146271073Y-104584068D01*
X143544496Y-104584068D01*
X143526273Y-104565845D01*
X143018698Y-104355600D01*
X142469302Y-104355600D01*
X141961727Y-104565845D01*
X141573245Y-104954327D01*
X141363000Y-105461902D01*
X139322967Y-105461902D01*
X139318453Y-105455147D01*
X138927803Y-105194122D01*
X138583318Y-105125600D01*
X138350682Y-105125600D01*
X138006197Y-105194122D01*
X137615547Y-105455147D01*
X137560598Y-105537383D01*
X137520833Y-105510813D01*
X136800688Y-104790668D01*
X136772347Y-104748253D01*
X136721981Y-104714599D01*
X136721028Y-104713963D01*
X136604312Y-104635975D01*
X136456132Y-104606500D01*
X136456128Y-104606500D01*
X136406100Y-104596549D01*
X136356072Y-104606500D01*
X135441227Y-104606500D01*
X135391199Y-104596549D01*
X135341171Y-104606500D01*
X135341168Y-104606500D01*
X135192988Y-104635975D01*
X135024953Y-104748253D01*
X134996612Y-104790668D01*
X134275976Y-105511304D01*
X134238453Y-105455147D01*
X133847803Y-105194122D01*
X133503318Y-105125600D01*
X133270682Y-105125600D01*
X132926197Y-105194122D01*
X132535547Y-105455147D01*
X132274522Y-105845797D01*
X132182863Y-106306600D01*
X132274522Y-106767403D01*
X132535547Y-107158053D01*
X132926197Y-107419078D01*
X133270682Y-107487600D01*
X133503318Y-107487600D01*
X133847803Y-107419078D01*
X134238453Y-107158053D01*
X134467942Y-106814600D01*
X134518268Y-106814600D01*
X134568300Y-106824552D01*
X134618332Y-106814600D01*
X134766512Y-106785125D01*
X134812001Y-106754730D01*
X134814522Y-106767403D01*
X135075547Y-107158053D01*
X135419001Y-107387542D01*
X135419001Y-107437864D01*
X135409048Y-107487900D01*
X135448475Y-107686112D01*
X135560753Y-107854147D01*
X135728788Y-107966425D01*
X135876968Y-107995900D01*
X135927000Y-108005852D01*
X135977032Y-107995900D01*
X136159180Y-107995900D01*
X136703367Y-108540088D01*
X136622444Y-108573607D01*
X136418807Y-108777244D01*
X136308600Y-109043307D01*
X136308600Y-109314509D01*
X136299809Y-109358703D01*
X136279891Y-109310616D01*
X136033384Y-109064109D01*
X135711307Y-108930700D01*
X135362693Y-108930700D01*
X135040616Y-109064109D01*
X134794109Y-109310616D01*
X134660700Y-109632693D01*
X134660700Y-109981307D01*
X134794109Y-110303384D01*
X135040616Y-110549891D01*
X135362693Y-110683300D01*
X135711307Y-110683300D01*
X136033384Y-110549891D01*
X136093479Y-110489796D01*
X136150241Y-110626832D01*
X136368168Y-110844759D01*
X136377038Y-110848433D01*
X136807000Y-111278395D01*
X136821143Y-111264253D01*
X137000748Y-111443858D01*
X136986605Y-111458000D01*
X137000748Y-111472143D01*
X136821143Y-111651748D01*
X136807000Y-111637605D01*
X136792858Y-111651748D01*
X136613253Y-111472143D01*
X136627395Y-111458000D01*
X136094239Y-110924844D01*
X135890054Y-110948781D01*
X135865135Y-111026418D01*
X135711307Y-110962700D01*
X135362693Y-110962700D01*
X135040616Y-111096109D01*
X134794109Y-111342616D01*
X134699249Y-111571629D01*
X131355000Y-108227380D01*
X131355000Y-107387542D01*
X131698453Y-107158053D01*
X131959478Y-106767403D01*
X132051137Y-106306600D01*
X131959478Y-105845797D01*
X131698453Y-105455147D01*
X131307803Y-105194122D01*
X130963318Y-105125600D01*
X130730682Y-105125600D01*
X130386197Y-105194122D01*
X129995547Y-105455147D01*
X129734522Y-105845797D01*
X129642863Y-106306600D01*
X124870700Y-106306600D01*
X124870700Y-105904828D01*
X124880651Y-105854800D01*
X124870700Y-105804772D01*
X124870700Y-105804768D01*
X124841225Y-105656588D01*
X124728947Y-105488553D01*
X124686532Y-105460212D01*
X120844320Y-101618000D01*
X121688863Y-101618000D01*
X121780522Y-102078803D01*
X122041547Y-102469453D01*
X122432197Y-102730478D01*
X122776682Y-102799000D01*
X123009318Y-102799000D01*
X123353803Y-102730478D01*
X123744453Y-102469453D01*
X123973942Y-102126000D01*
X124024268Y-102126000D01*
X124074300Y-102135952D01*
X124272512Y-102096525D01*
X124440547Y-101984247D01*
X124552825Y-101816212D01*
X124582300Y-101668031D01*
X124592252Y-101618000D01*
X124582300Y-101567968D01*
X124582300Y-101392820D01*
X125585620Y-100389500D01*
X131329972Y-100389500D01*
X131380000Y-100399451D01*
X131430028Y-100389500D01*
X131430032Y-100389500D01*
X131578212Y-100360025D01*
X131746247Y-100247747D01*
X131774588Y-100205332D01*
X132498024Y-99481897D01*
X132535547Y-99538053D01*
X132926197Y-99799078D01*
X133270682Y-99867600D01*
X133503318Y-99867600D01*
X133847803Y-99799078D01*
X134238453Y-99538053D01*
X134499478Y-99147403D01*
X134501999Y-99134730D01*
X134547488Y-99165125D01*
X134745700Y-99204552D01*
X134795732Y-99194600D01*
X134846058Y-99194600D01*
X135075547Y-99538053D01*
X135466197Y-99799078D01*
X135810682Y-99867600D01*
X136043318Y-99867600D01*
X136387803Y-99799078D01*
X136778453Y-99538053D01*
X137039478Y-99147403D01*
X137131137Y-98686600D01*
X137039478Y-98225797D01*
X136812833Y-97886600D01*
X137278536Y-97886600D01*
X137278536Y-99486600D01*
X137308106Y-99635259D01*
X137392314Y-99761286D01*
X137518341Y-99845494D01*
X137667000Y-99875064D01*
X139267000Y-99875064D01*
X139415659Y-99845494D01*
X139541686Y-99761286D01*
X139625894Y-99635259D01*
X139655464Y-99486600D01*
X139655464Y-99412184D01*
X139803712Y-99560432D01*
X139832053Y-99602847D01*
X140000088Y-99715125D01*
X140148268Y-99744600D01*
X140148272Y-99744600D01*
X140198299Y-99754551D01*
X140248326Y-99744600D01*
X141459637Y-99744600D01*
X141573245Y-100018873D01*
X141961727Y-100407355D01*
X142469302Y-100617600D01*
X143018698Y-100617600D01*
X143526273Y-100407355D01*
X143544496Y-100389132D01*
X146271073Y-100389132D01*
X146369736Y-100655987D01*
X146979461Y-100882508D01*
X147629460Y-100858456D01*
X148118264Y-100655987D01*
X148216927Y-100389132D01*
X147244000Y-99416205D01*
X146271073Y-100389132D01*
X143544496Y-100389132D01*
X143914755Y-100018873D01*
X144125000Y-99511298D01*
X144125000Y-98972061D01*
X145598092Y-98972061D01*
X145622144Y-99622060D01*
X145824613Y-100110864D01*
X146091468Y-100209527D01*
X147064395Y-99236600D01*
X147423605Y-99236600D01*
X148396532Y-100209527D01*
X148663387Y-100110864D01*
X148889908Y-99501139D01*
X148865856Y-98851140D01*
X148663387Y-98362336D01*
X148396532Y-98263673D01*
X147423605Y-99236600D01*
X147064395Y-99236600D01*
X146091468Y-98263673D01*
X145824613Y-98362336D01*
X145598092Y-98972061D01*
X144125000Y-98972061D01*
X144125000Y-98961902D01*
X143914755Y-98454327D01*
X143544496Y-98084068D01*
X146271073Y-98084068D01*
X147244000Y-99056995D01*
X148216927Y-98084068D01*
X148118264Y-97817213D01*
X147508539Y-97590692D01*
X146858540Y-97614744D01*
X146369736Y-97817213D01*
X146271073Y-98084068D01*
X143544496Y-98084068D01*
X143526273Y-98065845D01*
X143018698Y-97855600D01*
X142469302Y-97855600D01*
X141961727Y-98065845D01*
X141573245Y-98454327D01*
X141459637Y-98728600D01*
X140408720Y-98728600D01*
X140042888Y-98362768D01*
X140014547Y-98320353D01*
X139846512Y-98208075D01*
X139698332Y-98178600D01*
X139698328Y-98178600D01*
X139655464Y-98170074D01*
X139655464Y-97886600D01*
X139625894Y-97737941D01*
X139541686Y-97611914D01*
X139415659Y-97527706D01*
X139267000Y-97498136D01*
X137667000Y-97498136D01*
X137518341Y-97527706D01*
X137392314Y-97611914D01*
X137308106Y-97737941D01*
X137278536Y-97886600D01*
X136812833Y-97886600D01*
X136778453Y-97835147D01*
X136387803Y-97574122D01*
X136043318Y-97505600D01*
X135810682Y-97505600D01*
X135466197Y-97574122D01*
X135075547Y-97835147D01*
X135038024Y-97891304D01*
X134319488Y-97172768D01*
X134291147Y-97130353D01*
X134123112Y-97018075D01*
X133974932Y-96988600D01*
X133974928Y-96988600D01*
X133924900Y-96978649D01*
X133874872Y-96988600D01*
X127906728Y-96988600D01*
X127856700Y-96978649D01*
X127806672Y-96988600D01*
X127806668Y-96988600D01*
X127658488Y-97018075D01*
X127642417Y-97028813D01*
X127442453Y-96729547D01*
X127051803Y-96468522D01*
X126707318Y-96400000D01*
X126474682Y-96400000D01*
X126130197Y-96468522D01*
X125883200Y-96633561D01*
X125883200Y-96011086D01*
X125922017Y-96049903D01*
X126356085Y-96229700D01*
X126825915Y-96229700D01*
X127259983Y-96049903D01*
X127592203Y-95717683D01*
X127649357Y-95579700D01*
X130663510Y-95579700D01*
X130715800Y-95590101D01*
X130768090Y-95579700D01*
X130768094Y-95579700D01*
X130922986Y-95548890D01*
X131098629Y-95431529D01*
X131128252Y-95387195D01*
X132026536Y-94488912D01*
X132026536Y-94553800D01*
X132056106Y-94702459D01*
X132140314Y-94828486D01*
X132266341Y-94912694D01*
X132415000Y-94942264D01*
X134015000Y-94942264D01*
X134163659Y-94912694D01*
X134289686Y-94828486D01*
X134373894Y-94702459D01*
X134403464Y-94553800D01*
X134403464Y-92953800D01*
X134373894Y-92805141D01*
X134289686Y-92679114D01*
X134163659Y-92594906D01*
X134015000Y-92565336D01*
X133829773Y-92565336D01*
X133969005Y-92507664D01*
X134043139Y-92261545D01*
X133215000Y-91433405D01*
X132386861Y-92261545D01*
X132460995Y-92507664D01*
X132621445Y-92565336D01*
X132415000Y-92565336D01*
X132266341Y-92594906D01*
X132140314Y-92679114D01*
X132056106Y-92805141D01*
X132026536Y-92953800D01*
X132026536Y-93215549D01*
X132010699Y-93212399D01*
X131958409Y-93222800D01*
X131958406Y-93222800D01*
X131803514Y-93253610D01*
X131701654Y-93321671D01*
X131627871Y-93370971D01*
X131598250Y-93415302D01*
X130495853Y-94517700D01*
X127649357Y-94517700D01*
X127592203Y-94379717D01*
X127259983Y-94047497D01*
X126825915Y-93867700D01*
X126356085Y-93867700D01*
X126049890Y-93994530D01*
X128111833Y-91932587D01*
X128154247Y-91904247D01*
X128266525Y-91736212D01*
X128296000Y-91588032D01*
X128296000Y-91588028D01*
X128305951Y-91538001D01*
X128296000Y-91487974D01*
X128296000Y-91037023D01*
X131768035Y-91037023D01*
X131795222Y-91607254D01*
X131961136Y-92007805D01*
X132207255Y-92081939D01*
X133035395Y-91253800D01*
X133394605Y-91253800D01*
X134222745Y-92081939D01*
X134468864Y-92007805D01*
X134661965Y-91470577D01*
X134634778Y-90900346D01*
X134468864Y-90499795D01*
X134222745Y-90425661D01*
X133394605Y-91253800D01*
X133035395Y-91253800D01*
X132207255Y-90425661D01*
X131961136Y-90499795D01*
X131768035Y-91037023D01*
X128296000Y-91037023D01*
X128296000Y-90246055D01*
X132386861Y-90246055D01*
X133215000Y-91074195D01*
X134043139Y-90246055D01*
X133969005Y-89999936D01*
X133431777Y-89806835D01*
X132861546Y-89834022D01*
X132460995Y-89999936D01*
X132386861Y-90246055D01*
X128296000Y-90246055D01*
X128296000Y-89551227D01*
X128305951Y-89501199D01*
X128296000Y-89451171D01*
X128296000Y-89451168D01*
X128266525Y-89302988D01*
X128260984Y-89294695D01*
X128182588Y-89177367D01*
X128182586Y-89177365D01*
X128154247Y-89134953D01*
X128111835Y-89106614D01*
X126679088Y-87673868D01*
X126650747Y-87631453D01*
X126544110Y-87560200D01*
X126753576Y-87246712D01*
X126849116Y-86766400D01*
X126878884Y-86766400D01*
X126974424Y-87246712D01*
X127246499Y-87653901D01*
X127653688Y-87925976D01*
X128012761Y-87997400D01*
X128255239Y-87997400D01*
X128614312Y-87925976D01*
X129021501Y-87653901D01*
X129293576Y-87246712D01*
X129389116Y-86766400D01*
X129418884Y-86766400D01*
X129514424Y-87246712D01*
X129786499Y-87653901D01*
X130193688Y-87925976D01*
X130552761Y-87997400D01*
X130795239Y-87997400D01*
X131154312Y-87925976D01*
X131561501Y-87653901D01*
X131833576Y-87246712D01*
X131929116Y-86766400D01*
X131833576Y-86286088D01*
X131561501Y-85878899D01*
X131154312Y-85606824D01*
X130795239Y-85535400D01*
X130552761Y-85535400D01*
X130193688Y-85606824D01*
X129786499Y-85878899D01*
X129514424Y-86286088D01*
X129418884Y-86766400D01*
X129389116Y-86766400D01*
X129293576Y-86286088D01*
X129021501Y-85878899D01*
X128614312Y-85606824D01*
X128255239Y-85535400D01*
X128012761Y-85535400D01*
X127653688Y-85606824D01*
X127246499Y-85878899D01*
X126974424Y-86286088D01*
X126878884Y-86766400D01*
X126849116Y-86766400D01*
X126753576Y-86286088D01*
X126481501Y-85878899D01*
X126074312Y-85606824D01*
X125715239Y-85535400D01*
X125472761Y-85535400D01*
X125113688Y-85606824D01*
X124706499Y-85878899D01*
X124436245Y-86283363D01*
X124249183Y-85885042D01*
X123820924Y-85494755D01*
X123410890Y-85324924D01*
X123181000Y-85446245D01*
X123181000Y-86639400D01*
X123201000Y-86639400D01*
X123201000Y-86893400D01*
X123181000Y-86893400D01*
X123181000Y-88086555D01*
X123410890Y-88207876D01*
X123820924Y-88038045D01*
X124249183Y-87647758D01*
X124436245Y-87249437D01*
X124706499Y-87653901D01*
X125086001Y-87907476D01*
X125086001Y-87947663D01*
X125076048Y-87997700D01*
X125115475Y-88195912D01*
X125227753Y-88363947D01*
X125395788Y-88476225D01*
X125543968Y-88505700D01*
X125594000Y-88515652D01*
X125644032Y-88505700D01*
X126074080Y-88505700D01*
X126209089Y-88640709D01*
X125836995Y-88794836D01*
X125762861Y-89040955D01*
X126591000Y-89869095D01*
X126605143Y-89854953D01*
X126784748Y-90034558D01*
X126770605Y-90048700D01*
X126784748Y-90062843D01*
X126605142Y-90242448D01*
X126591000Y-90228305D01*
X125762861Y-91056445D01*
X125836995Y-91302564D01*
X126374223Y-91495665D01*
X126944454Y-91468478D01*
X127276739Y-91330841D01*
X125051366Y-93556214D01*
X125008954Y-93584553D01*
X124980615Y-93626965D01*
X124980612Y-93626968D01*
X124896675Y-93752589D01*
X124857249Y-93950800D01*
X124867201Y-94000833D01*
X124867200Y-99671080D01*
X123755380Y-100782900D01*
X123744453Y-100766547D01*
X123353803Y-100505522D01*
X123009318Y-100437000D01*
X122776682Y-100437000D01*
X122432197Y-100505522D01*
X122041547Y-100766547D01*
X121780522Y-101157197D01*
X121688863Y-101618000D01*
X120844320Y-101618000D01*
X117555659Y-98329339D01*
X120231096Y-98329339D01*
X120391959Y-98717723D01*
X120767866Y-99132689D01*
X121273959Y-99372214D01*
X121496000Y-99250929D01*
X121496000Y-98107300D01*
X121750000Y-98107300D01*
X121750000Y-99250929D01*
X121972041Y-99372214D01*
X122478134Y-99132689D01*
X122854041Y-98717723D01*
X123014904Y-98329339D01*
X122892915Y-98107300D01*
X121750000Y-98107300D01*
X121496000Y-98107300D01*
X120353085Y-98107300D01*
X120231096Y-98329339D01*
X117555659Y-98329339D01*
X116857581Y-97631261D01*
X120231096Y-97631261D01*
X120353085Y-97853300D01*
X121496000Y-97853300D01*
X121496000Y-96709671D01*
X121750000Y-96709671D01*
X121750000Y-97853300D01*
X122892915Y-97853300D01*
X123014904Y-97631261D01*
X122854041Y-97242877D01*
X122478134Y-96827911D01*
X121972041Y-96588386D01*
X121750000Y-96709671D01*
X121496000Y-96709671D01*
X121273959Y-96588386D01*
X120767866Y-96827911D01*
X120391959Y-97242877D01*
X120231096Y-97631261D01*
X116857581Y-97631261D01*
X115701387Y-96475067D01*
X115673047Y-96432653D01*
X115505012Y-96320375D01*
X115356832Y-96290900D01*
X115356828Y-96290900D01*
X115306800Y-96280949D01*
X115256772Y-96290900D01*
X114274721Y-96290900D01*
X113764585Y-95780764D01*
X114803000Y-95780764D01*
X114951659Y-95751194D01*
X115077686Y-95666986D01*
X115161894Y-95540959D01*
X115191464Y-95392300D01*
X115191464Y-94941339D01*
X120231096Y-94941339D01*
X120391959Y-95329723D01*
X120767866Y-95744689D01*
X121273959Y-95984214D01*
X121496000Y-95862929D01*
X121496000Y-94719300D01*
X121750000Y-94719300D01*
X121750000Y-95862929D01*
X121972041Y-95984214D01*
X122478134Y-95744689D01*
X122854041Y-95329723D01*
X123014904Y-94941339D01*
X122892915Y-94719300D01*
X121750000Y-94719300D01*
X121496000Y-94719300D01*
X120353085Y-94719300D01*
X120231096Y-94941339D01*
X115191464Y-94941339D01*
X115191464Y-94243261D01*
X120231096Y-94243261D01*
X120353085Y-94465300D01*
X121496000Y-94465300D01*
X121496000Y-93321671D01*
X121750000Y-93321671D01*
X121750000Y-94465300D01*
X122892915Y-94465300D01*
X123014904Y-94243261D01*
X122854041Y-93854877D01*
X122478134Y-93439911D01*
X121972041Y-93200386D01*
X121750000Y-93321671D01*
X121496000Y-93321671D01*
X121273959Y-93200386D01*
X120767866Y-93439911D01*
X120391959Y-93854877D01*
X120231096Y-94243261D01*
X115191464Y-94243261D01*
X115191464Y-93792300D01*
X115161894Y-93643641D01*
X115077686Y-93517614D01*
X114951659Y-93433406D01*
X114803000Y-93403836D01*
X113203000Y-93403836D01*
X113054341Y-93433406D01*
X112928314Y-93517614D01*
X112844106Y-93643641D01*
X112814536Y-93792300D01*
X112814536Y-94830715D01*
X107512260Y-89528439D01*
X109520096Y-89528439D01*
X109680959Y-89916823D01*
X110056866Y-90331789D01*
X110562959Y-90571314D01*
X110785000Y-90450029D01*
X110785000Y-89306400D01*
X111039000Y-89306400D01*
X111039000Y-90450029D01*
X111261041Y-90571314D01*
X111699289Y-90363899D01*
X111552000Y-90719485D01*
X111552000Y-91189315D01*
X111731797Y-91623383D01*
X112064017Y-91955603D01*
X112498085Y-92135400D01*
X112967915Y-92135400D01*
X113401983Y-91955603D01*
X113734203Y-91623383D01*
X113914000Y-91189315D01*
X113914000Y-90954400D01*
X121688863Y-90954400D01*
X121780522Y-91415203D01*
X122041547Y-91805853D01*
X122432197Y-92066878D01*
X122776682Y-92135400D01*
X123009318Y-92135400D01*
X123353803Y-92066878D01*
X123744453Y-91805853D01*
X124005478Y-91415203D01*
X124097137Y-90954400D01*
X124005478Y-90493597D01*
X123744453Y-90102947D01*
X123353803Y-89841922D01*
X123303535Y-89831923D01*
X125144035Y-89831923D01*
X125171222Y-90402154D01*
X125337136Y-90802705D01*
X125583255Y-90876839D01*
X126411395Y-90048700D01*
X125583255Y-89220561D01*
X125337136Y-89294695D01*
X125144035Y-89831923D01*
X123303535Y-89831923D01*
X123009318Y-89773400D01*
X122776682Y-89773400D01*
X122432197Y-89841922D01*
X122041547Y-90102947D01*
X121780522Y-90493597D01*
X121688863Y-90954400D01*
X113914000Y-90954400D01*
X113914000Y-90719485D01*
X113734203Y-90285417D01*
X113401983Y-89953197D01*
X112967915Y-89773400D01*
X112498085Y-89773400D01*
X112137762Y-89922651D01*
X112143041Y-89916823D01*
X112303904Y-89528439D01*
X112181915Y-89306400D01*
X111039000Y-89306400D01*
X110785000Y-89306400D01*
X109642085Y-89306400D01*
X109520096Y-89528439D01*
X107512260Y-89528439D01*
X106814182Y-88830361D01*
X109520096Y-88830361D01*
X109642085Y-89052400D01*
X110785000Y-89052400D01*
X110785000Y-87908771D01*
X111039000Y-87908771D01*
X111039000Y-89052400D01*
X112181915Y-89052400D01*
X112303904Y-88830361D01*
X112143041Y-88441977D01*
X111767134Y-88027011D01*
X111261041Y-87787486D01*
X111039000Y-87908771D01*
X110785000Y-87908771D01*
X110562959Y-87787486D01*
X110056866Y-88027011D01*
X109680959Y-88441977D01*
X109520096Y-88830361D01*
X106814182Y-88830361D01*
X103070488Y-85086668D01*
X103042147Y-85044253D01*
X102874112Y-84931975D01*
X102725932Y-84902500D01*
X102725928Y-84902500D01*
X102675900Y-84892549D01*
X102625872Y-84902500D01*
X97807924Y-84902500D01*
X97717779Y-84684872D01*
X97482918Y-84450011D01*
X104899000Y-84450011D01*
X104899000Y-85039189D01*
X105124468Y-85583519D01*
X105541081Y-86000132D01*
X106085411Y-86225600D01*
X106674589Y-86225600D01*
X107218919Y-86000132D01*
X107302651Y-85916400D01*
X119275536Y-85916400D01*
X119275536Y-87616400D01*
X119305106Y-87765059D01*
X119389314Y-87891086D01*
X119515341Y-87975294D01*
X119664000Y-88004864D01*
X121364000Y-88004864D01*
X121512659Y-87975294D01*
X121638686Y-87891086D01*
X121722894Y-87765059D01*
X121752464Y-87616400D01*
X121752464Y-87421295D01*
X121858817Y-87647758D01*
X122287076Y-88038045D01*
X122697110Y-88207876D01*
X122927000Y-88086555D01*
X122927000Y-86893400D01*
X122907000Y-86893400D01*
X122907000Y-86639400D01*
X122927000Y-86639400D01*
X122927000Y-85446245D01*
X122697110Y-85324924D01*
X122287076Y-85494755D01*
X121858817Y-85885042D01*
X121752464Y-86111505D01*
X121752464Y-85916400D01*
X121722894Y-85767741D01*
X121638686Y-85641714D01*
X121512659Y-85557506D01*
X121364000Y-85527936D01*
X119664000Y-85527936D01*
X119515341Y-85557506D01*
X119389314Y-85641714D01*
X119305106Y-85767741D01*
X119275536Y-85916400D01*
X107302651Y-85916400D01*
X107635532Y-85583519D01*
X107861000Y-85039189D01*
X107861000Y-84450011D01*
X143317000Y-84450011D01*
X143317000Y-85039189D01*
X143542468Y-85583519D01*
X143959081Y-86000132D01*
X144503411Y-86225600D01*
X145092589Y-86225600D01*
X145636919Y-86000132D01*
X146053532Y-85583519D01*
X146279000Y-85039189D01*
X146279000Y-84450011D01*
X146053532Y-83905681D01*
X145636919Y-83489068D01*
X145092589Y-83263600D01*
X144503411Y-83263600D01*
X143959081Y-83489068D01*
X143542468Y-83905681D01*
X143317000Y-84450011D01*
X107861000Y-84450011D01*
X107635532Y-83905681D01*
X107218919Y-83489068D01*
X106674589Y-83263600D01*
X106085411Y-83263600D01*
X105541081Y-83489068D01*
X105124468Y-83905681D01*
X104899000Y-84450011D01*
X97482918Y-84450011D01*
X97357428Y-84324521D01*
X96886607Y-84129500D01*
X96376993Y-84129500D01*
X95906172Y-84324521D01*
X95545821Y-84684872D01*
X95350800Y-85155693D01*
X95350800Y-85665307D01*
X95545821Y-86136128D01*
X95906172Y-86496479D01*
X96305861Y-86662036D01*
X95731800Y-86662036D01*
X95583141Y-86691606D01*
X95457114Y-86775814D01*
X95372906Y-86901841D01*
X95343336Y-87050500D01*
X93148590Y-87050500D01*
X93148590Y-86857075D01*
X93163869Y-86507132D01*
X93208508Y-86168058D01*
X93282531Y-85834164D01*
X93385372Y-85507998D01*
X93516252Y-85192027D01*
X93674170Y-84888671D01*
X93857924Y-84600235D01*
X94066117Y-84328915D01*
X94297168Y-84076768D01*
X94549302Y-83845729D01*
X94820628Y-83637532D01*
X95109063Y-83453779D01*
X95412419Y-83295861D01*
X95728389Y-83164982D01*
X96054554Y-83062141D01*
X96364297Y-82993473D01*
X145625020Y-82928388D01*
X146870791Y-84011668D01*
G36*
X129455086Y-98337559D02*
X129576371Y-98559600D01*
X130720000Y-98559600D01*
X130720000Y-98539600D01*
X130974000Y-98539600D01*
X130974000Y-98559600D01*
X130994000Y-98559600D01*
X130994000Y-98813600D01*
X130974000Y-98813600D01*
X130974000Y-98833600D01*
X130720000Y-98833600D01*
X130720000Y-98813600D01*
X129576371Y-98813600D01*
X129455086Y-99035641D01*
X129614989Y-99373500D01*
X125883200Y-99373500D01*
X125883200Y-98528439D01*
X126130197Y-98693478D01*
X126474682Y-98762000D01*
X126707318Y-98762000D01*
X127051803Y-98693478D01*
X127442453Y-98432453D01*
X127671942Y-98089000D01*
X127722272Y-98089000D01*
X127772300Y-98098951D01*
X127822328Y-98089000D01*
X127822332Y-98089000D01*
X127970512Y-98059525D01*
X128052713Y-98004600D01*
X129612670Y-98004600D01*
X129455086Y-98337559D01*
X129455086Y-98337559D01*
G37*
X129455086Y-98337559D02*
X129576371Y-98559600D01*
X130720000Y-98559600D01*
X130720000Y-98539600D01*
X130974000Y-98539600D01*
X130974000Y-98559600D01*
X130994000Y-98559600D01*
X130994000Y-98813600D01*
X130974000Y-98813600D01*
X130974000Y-98833600D01*
X130720000Y-98833600D01*
X130720000Y-98813600D01*
X129576371Y-98813600D01*
X129455086Y-99035641D01*
X129614989Y-99373500D01*
X125883200Y-99373500D01*
X125883200Y-98528439D01*
X126130197Y-98693478D01*
X126474682Y-98762000D01*
X126707318Y-98762000D01*
X127051803Y-98693478D01*
X127442453Y-98432453D01*
X127671942Y-98089000D01*
X127722272Y-98089000D01*
X127772300Y-98098951D01*
X127822328Y-98089000D01*
X127822332Y-98089000D01*
X127970512Y-98059525D01*
X128052713Y-98004600D01*
X129612670Y-98004600D01*
X129455086Y-98337559D01*
G04 #@! TD*
M02*
