M48
;DRILL file {KiCad (5.0.0)} date 09/08/18 13:32:06
;FORMAT={3:3/ absolute / metric / suppress leading zeros}
FMAT,2
METRIC,TZ
T1C0.330
T2C1.000
T3C0.700
T4C2.200
%
G90
G05
M71
T1
X120423Y-96564
X120523Y-88542
X121872Y-97851
X122172Y-95565
X124924Y-94584
X125023Y-91830
X127820Y-91602
X128088Y-90480
X130963Y-92890
X131122Y-95313
X133070Y-91224
X133086Y-96788
X133818Y-95346
X138020Y-90216
T2
X126515Y-87234
X129055Y-87234
X131595Y-87234
X134135Y-87234
X136675Y-87234
X126515Y-99779
X129055Y-99779
X131595Y-99779
X134135Y-99779
X136675Y-99779
T3
X120669Y-91453
X120669Y-95603
T4
X139941Y-99195
X139941Y-87813
X123647Y-87813
X123647Y-99195
T0
M30
