G04 #@! TF.GenerationSoftware,KiCad,Pcbnew,(5.0.0)*
G04 #@! TF.CreationDate,2018-09-08T13:32:02-05:00*
G04 #@! TF.ProjectId,mini-attinyuino,6D696E692D617474696E7975696E6F2E,1.0*
G04 #@! TF.SameCoordinates,Original*
G04 #@! TF.FileFunction,Legend,Top*
G04 #@! TF.FilePolarity,Positive*
%FSLAX46Y46*%
G04 Gerber Fmt 4.6, Leading zero omitted, Abs format (unit mm)*
G04 Created by KiCad (PCBNEW (5.0.0)) date 09/08/18 13:32:02*
%MOMM*%
%LPD*%
G01*
G04 APERTURE LIST*
%ADD10C,0.127000*%
%ADD11C,0.120000*%
%ADD12C,0.150000*%
%ADD13C,0.100000*%
G04 APERTURE END LIST*
D10*
X142444140Y-95832321D02*
X142444140Y-95546607D01*
X142615568Y-95889464D02*
X142015568Y-95689464D01*
X142615568Y-95489464D01*
X142015568Y-95375178D02*
X142015568Y-95032321D01*
X142615568Y-95203750D02*
X142015568Y-95203750D01*
X142015568Y-94918035D02*
X142015568Y-94575178D01*
X142615568Y-94746607D02*
X142015568Y-94746607D01*
X142615568Y-94375178D02*
X142215568Y-94375178D01*
X142015568Y-94375178D02*
X142044140Y-94403750D01*
X142072711Y-94375178D01*
X142044140Y-94346607D01*
X142015568Y-94375178D01*
X142072711Y-94375178D01*
X142215568Y-94089464D02*
X142615568Y-94089464D01*
X142272711Y-94089464D02*
X142244140Y-94060892D01*
X142215568Y-94003750D01*
X142215568Y-93918035D01*
X142244140Y-93860892D01*
X142301282Y-93832321D01*
X142615568Y-93832321D01*
X142215568Y-93603750D02*
X142615568Y-93460892D01*
X142215568Y-93318035D02*
X142615568Y-93460892D01*
X142758425Y-93518035D01*
X142786997Y-93546607D01*
X142815568Y-93603750D01*
X142015568Y-93089464D02*
X142501282Y-93089464D01*
X142558425Y-93060892D01*
X142586997Y-93032321D01*
X142615568Y-92975178D01*
X142615568Y-92860892D01*
X142586997Y-92803750D01*
X142558425Y-92775178D01*
X142501282Y-92746607D01*
X142015568Y-92746607D01*
X142615568Y-92460892D02*
X142015568Y-92460892D01*
X142615568Y-92175178D02*
X142015568Y-92175178D01*
X142615568Y-91832321D01*
X142015568Y-91832321D01*
X142015568Y-91432321D02*
X142015568Y-91318035D01*
X142044140Y-91260892D01*
X142101282Y-91203750D01*
X142215568Y-91175178D01*
X142415568Y-91175178D01*
X142529854Y-91203750D01*
X142586997Y-91260892D01*
X142615568Y-91318035D01*
X142615568Y-91432321D01*
X142586997Y-91489464D01*
X142529854Y-91546607D01*
X142415568Y-91575178D01*
X142215568Y-91575178D01*
X142101282Y-91546607D01*
X142044140Y-91489464D01*
X142015568Y-91432321D01*
X118079168Y-100627080D02*
X117479168Y-100627080D01*
X117479168Y-100398508D01*
X117507740Y-100341365D01*
X117536311Y-100312794D01*
X117593454Y-100284222D01*
X117679168Y-100284222D01*
X117736311Y-100312794D01*
X117764882Y-100341365D01*
X117793454Y-100398508D01*
X117793454Y-100627080D01*
X117479168Y-100084222D02*
X118079168Y-99941365D01*
X117650597Y-99827080D01*
X118079168Y-99712794D01*
X117479168Y-99569937D01*
X118079168Y-98998508D02*
X117793454Y-99198508D01*
X118079168Y-99341365D02*
X117479168Y-99341365D01*
X117479168Y-99112794D01*
X117507740Y-99055651D01*
X117536311Y-99027080D01*
X117593454Y-98998508D01*
X117679168Y-98998508D01*
X117736311Y-99027080D01*
X117764882Y-99055651D01*
X117793454Y-99112794D01*
X117793454Y-99341365D01*
X117854400Y-87930588D02*
X117854400Y-87644874D01*
X118025828Y-87987731D02*
X117425828Y-87787731D01*
X118025828Y-87587731D01*
X117968685Y-87044874D02*
X117997257Y-87073445D01*
X118025828Y-87159160D01*
X118025828Y-87216302D01*
X117997257Y-87302017D01*
X117940114Y-87359160D01*
X117882971Y-87387731D01*
X117768685Y-87416302D01*
X117682971Y-87416302D01*
X117568685Y-87387731D01*
X117511542Y-87359160D01*
X117454400Y-87302017D01*
X117425828Y-87216302D01*
X117425828Y-87159160D01*
X117454400Y-87073445D01*
X117482971Y-87044874D01*
X117425828Y-86873445D02*
X117425828Y-86530588D01*
X118025828Y-86702017D02*
X117425828Y-86702017D01*
X136702814Y-97626528D02*
X136417100Y-97626528D01*
X136388528Y-97912242D01*
X136417100Y-97883671D01*
X136474242Y-97855100D01*
X136617100Y-97855100D01*
X136674242Y-97883671D01*
X136702814Y-97912242D01*
X136731385Y-97969385D01*
X136731385Y-98112242D01*
X136702814Y-98169385D01*
X136674242Y-98197957D01*
X136617100Y-98226528D01*
X136474242Y-98226528D01*
X136417100Y-98197957D01*
X136388528Y-98169385D01*
X136902814Y-97626528D02*
X137102814Y-98226528D01*
X137302814Y-97626528D01*
X133803131Y-97826528D02*
X134231702Y-97826528D01*
X133974560Y-97569385D02*
X133803131Y-98340814D01*
X134174560Y-98083671D02*
X133745988Y-98083671D01*
X134003131Y-98340814D02*
X134174560Y-97569385D01*
X134403131Y-97683671D02*
X134431702Y-97655100D01*
X134488845Y-97626528D01*
X134631702Y-97626528D01*
X134688845Y-97655100D01*
X134717417Y-97683671D01*
X134745988Y-97740814D01*
X134745988Y-97797957D01*
X134717417Y-97883671D01*
X134374560Y-98226528D01*
X134745988Y-98226528D01*
X131385051Y-97826528D02*
X131813622Y-97826528D01*
X131556480Y-97569385D02*
X131385051Y-98340814D01*
X131756480Y-98083671D02*
X131327908Y-98083671D01*
X131585051Y-98340814D02*
X131756480Y-97569385D01*
X132327908Y-98226528D02*
X131985051Y-98226528D01*
X132156480Y-98226528D02*
X132156480Y-97626528D01*
X132099337Y-97712242D01*
X132042194Y-97769385D01*
X131985051Y-97797957D01*
X128723131Y-97826528D02*
X129151702Y-97826528D01*
X128894560Y-97569385D02*
X128723131Y-98340814D01*
X129094560Y-98083671D02*
X128665988Y-98083671D01*
X128923131Y-98340814D02*
X129094560Y-97569385D01*
X129465988Y-97626528D02*
X129523131Y-97626528D01*
X129580274Y-97655100D01*
X129608845Y-97683671D01*
X129637417Y-97740814D01*
X129665988Y-97855100D01*
X129665988Y-97997957D01*
X129637417Y-98112242D01*
X129608845Y-98169385D01*
X129580274Y-98197957D01*
X129523131Y-98226528D01*
X129465988Y-98226528D01*
X129408845Y-98197957D01*
X129380274Y-98169385D01*
X129351702Y-98112242D01*
X129323131Y-97997957D01*
X129323131Y-97855100D01*
X129351702Y-97740814D01*
X129380274Y-97683671D01*
X129408845Y-97655100D01*
X129465988Y-97626528D01*
X125487888Y-97626528D02*
X125487888Y-98112242D01*
X125516460Y-98169385D01*
X125545031Y-98197957D01*
X125602174Y-98226528D01*
X125716460Y-98226528D01*
X125773602Y-98197957D01*
X125802174Y-98169385D01*
X125830745Y-98112242D01*
X125830745Y-97626528D01*
X126087888Y-98197957D02*
X126173602Y-98226528D01*
X126316460Y-98226528D01*
X126373602Y-98197957D01*
X126402174Y-98169385D01*
X126430745Y-98112242D01*
X126430745Y-98055100D01*
X126402174Y-97997957D01*
X126373602Y-97969385D01*
X126316460Y-97940814D01*
X126202174Y-97912242D01*
X126145031Y-97883671D01*
X126116460Y-97855100D01*
X126087888Y-97797957D01*
X126087888Y-97740814D01*
X126116460Y-97683671D01*
X126145031Y-97655100D01*
X126202174Y-97626528D01*
X126345031Y-97626528D01*
X126430745Y-97655100D01*
X126887888Y-97912242D02*
X126973602Y-97940814D01*
X127002174Y-97969385D01*
X127030745Y-98026528D01*
X127030745Y-98112242D01*
X127002174Y-98169385D01*
X126973602Y-98197957D01*
X126916460Y-98226528D01*
X126687888Y-98226528D01*
X126687888Y-97626528D01*
X126887888Y-97626528D01*
X126945031Y-97655100D01*
X126973602Y-97683671D01*
X127002174Y-97740814D01*
X127002174Y-97797957D01*
X126973602Y-97855100D01*
X126945031Y-97883671D01*
X126887888Y-97912242D01*
X126687888Y-97912242D01*
X127287888Y-97997957D02*
X127745031Y-97997957D01*
X127516460Y-98226528D02*
X127516460Y-97769385D01*
X136485988Y-89316208D02*
X136285988Y-89030494D01*
X136143131Y-89316208D02*
X136143131Y-88716208D01*
X136371702Y-88716208D01*
X136428845Y-88744780D01*
X136457417Y-88773351D01*
X136485988Y-88830494D01*
X136485988Y-88916208D01*
X136457417Y-88973351D01*
X136428845Y-89001922D01*
X136371702Y-89030494D01*
X136143131Y-89030494D01*
X136714560Y-89287637D02*
X136800274Y-89316208D01*
X136943131Y-89316208D01*
X137000274Y-89287637D01*
X137028845Y-89259065D01*
X137057417Y-89201922D01*
X137057417Y-89144780D01*
X137028845Y-89087637D01*
X137000274Y-89059065D01*
X136943131Y-89030494D01*
X136828845Y-89001922D01*
X136771702Y-88973351D01*
X136743131Y-88944780D01*
X136714560Y-88887637D01*
X136714560Y-88830494D01*
X136743131Y-88773351D01*
X136771702Y-88744780D01*
X136828845Y-88716208D01*
X136971702Y-88716208D01*
X137057417Y-88744780D01*
X137228845Y-88716208D02*
X137571702Y-88716208D01*
X137400274Y-89316208D02*
X137400274Y-88716208D01*
X133785351Y-88926368D02*
X134213922Y-88926368D01*
X133956780Y-88669225D02*
X133785351Y-89440654D01*
X134156780Y-89183511D02*
X133728208Y-89183511D01*
X133985351Y-89440654D02*
X134156780Y-88669225D01*
X134356780Y-88726368D02*
X134728208Y-88726368D01*
X134528208Y-88954940D01*
X134613922Y-88954940D01*
X134671065Y-88983511D01*
X134699637Y-89012082D01*
X134728208Y-89069225D01*
X134728208Y-89212082D01*
X134699637Y-89269225D01*
X134671065Y-89297797D01*
X134613922Y-89326368D01*
X134442494Y-89326368D01*
X134385351Y-89297797D01*
X134356780Y-89269225D01*
X131245351Y-88926368D02*
X131673922Y-88926368D01*
X131416780Y-88669225D02*
X131245351Y-89440654D01*
X131616780Y-89183511D02*
X131188208Y-89183511D01*
X131445351Y-89440654D02*
X131616780Y-88669225D01*
X132131065Y-88926368D02*
X132131065Y-89326368D01*
X131988208Y-88697797D02*
X131845351Y-89126368D01*
X132216780Y-89126368D01*
X128737417Y-88754940D02*
X128680274Y-88726368D01*
X128594560Y-88726368D01*
X128508845Y-88754940D01*
X128451702Y-88812082D01*
X128423131Y-88869225D01*
X128394560Y-88983511D01*
X128394560Y-89069225D01*
X128423131Y-89183511D01*
X128451702Y-89240654D01*
X128508845Y-89297797D01*
X128594560Y-89326368D01*
X128651702Y-89326368D01*
X128737417Y-89297797D01*
X128765988Y-89269225D01*
X128765988Y-89069225D01*
X128651702Y-89069225D01*
X129023131Y-89326368D02*
X129023131Y-88726368D01*
X129365988Y-89326368D01*
X129365988Y-88726368D01*
X129651702Y-89326368D02*
X129651702Y-88726368D01*
X129794560Y-88726368D01*
X129880274Y-88754940D01*
X129937417Y-88812082D01*
X129965988Y-88869225D01*
X129994560Y-88983511D01*
X129994560Y-89069225D01*
X129965988Y-89183511D01*
X129937417Y-89240654D01*
X129880274Y-89297797D01*
X129794560Y-89326368D01*
X129651702Y-89326368D01*
X125840274Y-89012082D02*
X125925988Y-89040654D01*
X125954560Y-89069225D01*
X125983131Y-89126368D01*
X125983131Y-89212082D01*
X125954560Y-89269225D01*
X125925988Y-89297797D01*
X125868845Y-89326368D01*
X125640274Y-89326368D01*
X125640274Y-88726368D01*
X125840274Y-88726368D01*
X125897417Y-88754940D01*
X125925988Y-88783511D01*
X125954560Y-88840654D01*
X125954560Y-88897797D01*
X125925988Y-88954940D01*
X125897417Y-88983511D01*
X125840274Y-89012082D01*
X125640274Y-89012082D01*
X126211702Y-89154940D02*
X126497417Y-89154940D01*
X126154560Y-89326368D02*
X126354560Y-88726368D01*
X126554560Y-89326368D01*
X126668845Y-88726368D02*
X127011702Y-88726368D01*
X126840274Y-89326368D02*
X126840274Y-88726368D01*
X127211702Y-89097797D02*
X127668845Y-89097797D01*
X127440274Y-89326368D02*
X127440274Y-88869225D01*
D11*
G04 #@! TO.C,SW1*
X138310000Y-91288500D02*
X138190000Y-91288500D01*
X140460000Y-91288500D02*
X139320000Y-91288500D01*
X141590000Y-91288500D02*
X141470000Y-91288500D01*
X141590000Y-95688500D02*
X141590000Y-91288500D01*
X141470000Y-95688500D02*
X141590000Y-95688500D01*
X139320000Y-95688500D02*
X140460000Y-95688500D01*
X138190000Y-95688500D02*
X138310000Y-95688500D01*
X138190000Y-91288500D02*
X138190000Y-95688500D01*
G04 #@! TO.C,D4*
X126919000Y-92526500D02*
X122619000Y-92526500D01*
X122619000Y-92526500D02*
X122619000Y-94526500D01*
X122619000Y-94526500D02*
X126919000Y-94526500D01*
G04 #@! TO.C,D2*
X126669000Y-91858200D02*
X126669000Y-90158200D01*
X126669000Y-90158200D02*
X124119000Y-90158200D01*
X126669000Y-91858200D02*
X124119000Y-91858200D01*
G04 #@! TO.C,D3*
X121002000Y-86268700D02*
X118317000Y-86268700D01*
X118317000Y-86268700D02*
X118317000Y-88188700D01*
X118317000Y-88188700D02*
X121002000Y-88188700D01*
G04 #@! TO.C,D1*
X121007000Y-98867100D02*
X118322000Y-98867100D01*
X118322000Y-98867100D02*
X118322000Y-100787100D01*
X118322000Y-100787100D02*
X121007000Y-100787100D01*
G04 #@! TO.C,D5*
X122619000Y-97194900D02*
X126919000Y-97194900D01*
X122619000Y-95194900D02*
X122619000Y-97194900D01*
X126919000Y-95194900D02*
X122619000Y-95194900D01*
D12*
G04 #@! TO.C,U2*
X130224000Y-90733500D02*
X130224000Y-90938500D01*
X135724000Y-90733500D02*
X135724000Y-91033500D01*
X135724000Y-96243500D02*
X135724000Y-95943500D01*
X130224000Y-96243500D02*
X130224000Y-95943500D01*
X130224000Y-90733500D02*
X135724000Y-90733500D01*
X130224000Y-96243500D02*
X135724000Y-96243500D01*
X130224000Y-90938500D02*
X128474000Y-90938500D01*
G04 #@! TO.C,SW1*
X140241421Y-94773573D02*
X140289040Y-94630716D01*
X140289040Y-94392620D01*
X140241421Y-94297382D01*
X140193802Y-94249763D01*
X140098564Y-94202144D01*
X140003326Y-94202144D01*
X139908088Y-94249763D01*
X139860469Y-94297382D01*
X139812850Y-94392620D01*
X139765231Y-94583097D01*
X139717612Y-94678335D01*
X139669993Y-94725954D01*
X139574755Y-94773573D01*
X139479517Y-94773573D01*
X139384279Y-94725954D01*
X139336660Y-94678335D01*
X139289040Y-94583097D01*
X139289040Y-94345001D01*
X139336660Y-94202144D01*
X139289040Y-93868811D02*
X140289040Y-93630716D01*
X139574755Y-93440240D01*
X140289040Y-93249763D01*
X139289040Y-93011668D01*
X140289040Y-92106906D02*
X140289040Y-92678335D01*
X140289040Y-92392620D02*
X139289040Y-92392620D01*
X139431898Y-92487859D01*
X139527136Y-92583097D01*
X139574755Y-92678335D01*
G04 #@! TO.C,D4*
X124542963Y-93873164D02*
X124542963Y-93073164D01*
X124733440Y-93073164D01*
X124847725Y-93111260D01*
X124923916Y-93187450D01*
X124962011Y-93263640D01*
X125000106Y-93416021D01*
X125000106Y-93530307D01*
X124962011Y-93682688D01*
X124923916Y-93758879D01*
X124847725Y-93835069D01*
X124733440Y-93873164D01*
X124542963Y-93873164D01*
X125685820Y-93339831D02*
X125685820Y-93873164D01*
X125495344Y-93035069D02*
X125304868Y-93606498D01*
X125800106Y-93606498D01*
G04 #@! TO.C,D2*
X124560743Y-91326924D02*
X124560743Y-90526924D01*
X124751220Y-90526924D01*
X124865505Y-90565020D01*
X124941696Y-90641210D01*
X124979791Y-90717400D01*
X125017886Y-90869781D01*
X125017886Y-90984067D01*
X124979791Y-91136448D01*
X124941696Y-91212639D01*
X124865505Y-91288829D01*
X124751220Y-91326924D01*
X124560743Y-91326924D01*
X125322648Y-90603115D02*
X125360743Y-90565020D01*
X125436934Y-90526924D01*
X125627410Y-90526924D01*
X125703600Y-90565020D01*
X125741696Y-90603115D01*
X125779791Y-90679305D01*
X125779791Y-90755496D01*
X125741696Y-90869781D01*
X125284553Y-91326924D01*
X125779791Y-91326924D01*
G04 #@! TO.C,D3*
D13*
X119605012Y-87454890D02*
X119605012Y-86954890D01*
X119724060Y-86954890D01*
X119795488Y-86978700D01*
X119843107Y-87026319D01*
X119866917Y-87073938D01*
X119890726Y-87169176D01*
X119890726Y-87240604D01*
X119866917Y-87335842D01*
X119843107Y-87383461D01*
X119795488Y-87431080D01*
X119724060Y-87454890D01*
X119605012Y-87454890D01*
X120057393Y-86954890D02*
X120366917Y-86954890D01*
X120200250Y-87145366D01*
X120271679Y-87145366D01*
X120319298Y-87169176D01*
X120343107Y-87192985D01*
X120366917Y-87240604D01*
X120366917Y-87359652D01*
X120343107Y-87407271D01*
X120319298Y-87431080D01*
X120271679Y-87454890D01*
X120128821Y-87454890D01*
X120081202Y-87431080D01*
X120057393Y-87407271D01*
G04 #@! TO.C,D1*
X119688512Y-100035510D02*
X119688512Y-99535510D01*
X119807560Y-99535510D01*
X119878988Y-99559320D01*
X119926607Y-99606939D01*
X119950417Y-99654558D01*
X119974226Y-99749796D01*
X119974226Y-99821224D01*
X119950417Y-99916462D01*
X119926607Y-99964081D01*
X119878988Y-100011700D01*
X119807560Y-100035510D01*
X119688512Y-100035510D01*
X120450417Y-100035510D02*
X120164702Y-100035510D01*
X120307560Y-100035510D02*
X120307560Y-99535510D01*
X120259940Y-99606939D01*
X120212321Y-99654558D01*
X120164702Y-99678367D01*
G04 #@! TO.C,D5*
D12*
X124657263Y-96663484D02*
X124657263Y-95863484D01*
X124847740Y-95863484D01*
X124962025Y-95901580D01*
X125038216Y-95977770D01*
X125076311Y-96053960D01*
X125114406Y-96206341D01*
X125114406Y-96320627D01*
X125076311Y-96473008D01*
X125038216Y-96549199D01*
X124962025Y-96625389D01*
X124847740Y-96663484D01*
X124657263Y-96663484D01*
X125838216Y-95863484D02*
X125457263Y-95863484D01*
X125419168Y-96244437D01*
X125457263Y-96206341D01*
X125533454Y-96168246D01*
X125723930Y-96168246D01*
X125800120Y-96206341D01*
X125838216Y-96244437D01*
X125876311Y-96320627D01*
X125876311Y-96511103D01*
X125838216Y-96587294D01*
X125800120Y-96625389D01*
X125723930Y-96663484D01*
X125533454Y-96663484D01*
X125457263Y-96625389D01*
X125419168Y-96587294D01*
G04 #@! TO.C,U2*
X132212095Y-92940880D02*
X132212095Y-93750404D01*
X132259714Y-93845642D01*
X132307333Y-93893261D01*
X132402571Y-93940880D01*
X132593047Y-93940880D01*
X132688285Y-93893261D01*
X132735904Y-93845642D01*
X132783523Y-93750404D01*
X132783523Y-92940880D01*
X133212095Y-93036119D02*
X133259714Y-92988500D01*
X133354952Y-92940880D01*
X133593047Y-92940880D01*
X133688285Y-92988500D01*
X133735904Y-93036119D01*
X133783523Y-93131357D01*
X133783523Y-93226595D01*
X133735904Y-93369452D01*
X133164476Y-93940880D01*
X133783523Y-93940880D01*
G04 #@! TD*
M02*
