G04 #@! TF.GenerationSoftware,KiCad,Pcbnew,(5.0.0)*
G04 #@! TF.CreationDate,2018-09-11T18:45:28-05:00*
G04 #@! TF.ProjectId,mini-attinyuino,6D696E692D617474696E7975696E6F2E,1.0*
G04 #@! TF.SameCoordinates,Original*
G04 #@! TF.FileFunction,Legend,Top*
G04 #@! TF.FilePolarity,Positive*
%FSLAX46Y46*%
G04 Gerber Fmt 4.6, Leading zero omitted, Abs format (unit mm)*
G04 Created by KiCad (PCBNEW (5.0.0)) date 09/11/18 18:45:28*
%MOMM*%
%LPD*%
G01*
G04 APERTURE LIST*
%ADD10C,0.127000*%
%ADD11C,0.200000*%
%ADD12C,0.120000*%
%ADD13C,0.010000*%
%ADD14C,0.150000*%
G04 APERTURE END LIST*
D10*
X136555831Y-108375457D02*
X136841545Y-108175457D01*
X136555831Y-108032600D02*
X137155831Y-108032600D01*
X137155831Y-108261171D01*
X137127260Y-108318314D01*
X137098688Y-108346886D01*
X137041545Y-108375457D01*
X136955831Y-108375457D01*
X136898688Y-108346886D01*
X136870117Y-108318314D01*
X136841545Y-108261171D01*
X136841545Y-108032600D01*
X136584402Y-108604029D02*
X136555831Y-108689743D01*
X136555831Y-108832600D01*
X136584402Y-108889743D01*
X136612974Y-108918314D01*
X136670117Y-108946886D01*
X136727260Y-108946886D01*
X136784402Y-108918314D01*
X136812974Y-108889743D01*
X136841545Y-108832600D01*
X136870117Y-108718314D01*
X136898688Y-108661171D01*
X136927260Y-108632600D01*
X136984402Y-108604029D01*
X137041545Y-108604029D01*
X137098688Y-108632600D01*
X137127260Y-108661171D01*
X137155831Y-108718314D01*
X137155831Y-108861171D01*
X137127260Y-108946886D01*
X137155831Y-109118314D02*
X137155831Y-109461171D01*
X136555831Y-109289743D02*
X137155831Y-109289743D01*
X137856942Y-107861171D02*
X137828371Y-107946885D01*
X137828371Y-108089742D01*
X137856942Y-108146885D01*
X137885514Y-108175457D01*
X137942657Y-108204028D01*
X137999800Y-108204028D01*
X138056942Y-108175457D01*
X138085514Y-108146885D01*
X138114085Y-108089742D01*
X138142657Y-107975457D01*
X138171228Y-107918314D01*
X138199800Y-107889742D01*
X138256942Y-107861171D01*
X138314085Y-107861171D01*
X138371228Y-107889742D01*
X138399800Y-107918314D01*
X138428371Y-107975457D01*
X138428371Y-108118314D01*
X138399800Y-108204028D01*
X137885514Y-108804028D02*
X137856942Y-108775457D01*
X137828371Y-108689742D01*
X137828371Y-108632600D01*
X137856942Y-108546885D01*
X137914085Y-108489742D01*
X137971228Y-108461171D01*
X138085514Y-108432600D01*
X138171228Y-108432600D01*
X138285514Y-108461171D01*
X138342657Y-108489742D01*
X138399800Y-108546885D01*
X138428371Y-108632600D01*
X138428371Y-108689742D01*
X138399800Y-108775457D01*
X138371228Y-108804028D01*
X137828371Y-109061171D02*
X138428371Y-109061171D01*
X137828371Y-109404028D02*
X138171228Y-109146885D01*
X138428371Y-109404028D02*
X138085514Y-109061171D01*
X139090751Y-107489742D02*
X139690751Y-107489742D01*
X139262180Y-107689742D01*
X139690751Y-107889742D01*
X139090751Y-107889742D01*
X139090751Y-108175457D02*
X139690751Y-108175457D01*
X139119322Y-108432600D02*
X139090751Y-108518314D01*
X139090751Y-108661171D01*
X139119322Y-108718314D01*
X139147894Y-108746885D01*
X139205037Y-108775457D01*
X139262180Y-108775457D01*
X139319322Y-108746885D01*
X139347894Y-108718314D01*
X139376465Y-108661171D01*
X139405037Y-108546885D01*
X139433608Y-108489742D01*
X139462180Y-108461171D01*
X139519322Y-108432600D01*
X139576465Y-108432600D01*
X139633608Y-108461171D01*
X139662180Y-108489742D01*
X139690751Y-108546885D01*
X139690751Y-108689742D01*
X139662180Y-108775457D01*
X139690751Y-109146885D02*
X139690751Y-109261171D01*
X139662180Y-109318314D01*
X139605037Y-109375457D01*
X139490751Y-109404028D01*
X139290751Y-109404028D01*
X139176465Y-109375457D01*
X139119322Y-109318314D01*
X139090751Y-109261171D01*
X139090751Y-109146885D01*
X139119322Y-109089742D01*
X139176465Y-109032600D01*
X139290751Y-109004028D01*
X139490751Y-109004028D01*
X139605037Y-109032600D01*
X139662180Y-109089742D01*
X139690751Y-109146885D01*
X137835991Y-112148102D02*
X138435991Y-112148102D01*
X138007420Y-112348102D01*
X138435991Y-112548102D01*
X137835991Y-112548102D01*
X138435991Y-112948102D02*
X138435991Y-113062388D01*
X138407420Y-113119531D01*
X138350277Y-113176674D01*
X138235991Y-113205245D01*
X138035991Y-113205245D01*
X137921705Y-113176674D01*
X137864562Y-113119531D01*
X137835991Y-113062388D01*
X137835991Y-112948102D01*
X137864562Y-112890960D01*
X137921705Y-112833817D01*
X138035991Y-112805245D01*
X138235991Y-112805245D01*
X138350277Y-112833817D01*
X138407420Y-112890960D01*
X138435991Y-112948102D01*
X137864562Y-113433817D02*
X137835991Y-113519531D01*
X137835991Y-113662388D01*
X137864562Y-113719531D01*
X137893134Y-113748102D01*
X137950277Y-113776674D01*
X138007420Y-113776674D01*
X138064562Y-113748102D01*
X138093134Y-113719531D01*
X138121705Y-113662388D01*
X138150277Y-113548102D01*
X138178848Y-113490960D01*
X138207420Y-113462388D01*
X138264562Y-113433817D01*
X138321705Y-113433817D01*
X138378848Y-113462388D01*
X138407420Y-113490960D01*
X138435991Y-113548102D01*
X138435991Y-113690960D01*
X138407420Y-113776674D01*
X137835991Y-114033817D02*
X138435991Y-114033817D01*
X137084080Y-112462388D02*
X137112651Y-112405245D01*
X137112651Y-112319531D01*
X137084080Y-112233816D01*
X137026937Y-112176673D01*
X136969794Y-112148102D01*
X136855508Y-112119531D01*
X136769794Y-112119531D01*
X136655508Y-112148102D01*
X136598365Y-112176673D01*
X136541222Y-112233816D01*
X136512651Y-112319531D01*
X136512651Y-112376673D01*
X136541222Y-112462388D01*
X136569794Y-112490959D01*
X136769794Y-112490959D01*
X136769794Y-112376673D01*
X136512651Y-112748102D02*
X137112651Y-112748102D01*
X136512651Y-113090959D01*
X137112651Y-113090959D01*
X136512651Y-113376673D02*
X137112651Y-113376673D01*
X137112651Y-113519531D01*
X137084080Y-113605245D01*
X137026937Y-113662388D01*
X136969794Y-113690959D01*
X136855508Y-113719531D01*
X136769794Y-113719531D01*
X136655508Y-113690959D01*
X136598365Y-113662388D01*
X136541222Y-113605245D01*
X136512651Y-113519531D01*
X136512651Y-113376673D01*
X139749171Y-112433817D02*
X139749171Y-112148103D01*
X139463457Y-112119531D01*
X139492028Y-112148103D01*
X139520600Y-112205245D01*
X139520600Y-112348103D01*
X139492028Y-112405245D01*
X139463457Y-112433817D01*
X139406314Y-112462388D01*
X139263457Y-112462388D01*
X139206314Y-112433817D01*
X139177742Y-112405245D01*
X139149171Y-112348103D01*
X139149171Y-112205245D01*
X139177742Y-112148103D01*
X139206314Y-112119531D01*
X139749171Y-112633817D02*
X139149171Y-112833817D01*
X139749171Y-113033817D01*
X130270304Y-84561284D02*
X130003638Y-84180332D01*
X129813161Y-84561284D02*
X129813161Y-83761284D01*
X130117923Y-83761284D01*
X130194114Y-83799380D01*
X130232209Y-83837475D01*
X130270304Y-83913665D01*
X130270304Y-84027951D01*
X130232209Y-84104141D01*
X130194114Y-84142237D01*
X130117923Y-84180332D01*
X129813161Y-84180332D01*
X130575066Y-84523189D02*
X130689352Y-84561284D01*
X130879828Y-84561284D01*
X130956019Y-84523189D01*
X130994114Y-84485094D01*
X131032209Y-84408903D01*
X131032209Y-84332713D01*
X130994114Y-84256522D01*
X130956019Y-84218427D01*
X130879828Y-84180332D01*
X130727447Y-84142237D01*
X130651257Y-84104141D01*
X130613161Y-84066046D01*
X130575066Y-83989856D01*
X130575066Y-83913665D01*
X130613161Y-83837475D01*
X130651257Y-83799380D01*
X130727447Y-83761284D01*
X130917923Y-83761284D01*
X131032209Y-83799380D01*
X131260780Y-83761284D02*
X131717923Y-83761284D01*
X131489352Y-84561284D02*
X131489352Y-83761284D01*
X127362365Y-83979094D02*
X128076651Y-83979094D01*
X127648080Y-83550522D02*
X127362365Y-84836237D01*
X127981413Y-84407665D02*
X127267127Y-84407665D01*
X127695699Y-84836237D02*
X127981413Y-83550522D01*
X128314746Y-83645760D02*
X128933794Y-83645760D01*
X128600460Y-84026713D01*
X128743318Y-84026713D01*
X128838556Y-84074332D01*
X128886175Y-84121951D01*
X128933794Y-84217189D01*
X128933794Y-84455284D01*
X128886175Y-84550522D01*
X128838556Y-84598141D01*
X128743318Y-84645760D01*
X128457603Y-84645760D01*
X128362365Y-84598141D01*
X128314746Y-84550522D01*
X124845225Y-83979094D02*
X125559511Y-83979094D01*
X125130940Y-83550522D02*
X124845225Y-84836237D01*
X125464273Y-84407665D02*
X124749987Y-84407665D01*
X125178559Y-84836237D02*
X125464273Y-83550522D01*
X126321416Y-83979094D02*
X126321416Y-84645760D01*
X126083320Y-83598141D02*
X125845225Y-84312427D01*
X126464273Y-84312427D01*
X122476336Y-83799380D02*
X122400145Y-83761284D01*
X122285860Y-83761284D01*
X122171574Y-83799380D01*
X122095383Y-83875570D01*
X122057288Y-83951760D01*
X122019193Y-84104141D01*
X122019193Y-84218427D01*
X122057288Y-84370808D01*
X122095383Y-84446999D01*
X122171574Y-84523189D01*
X122285860Y-84561284D01*
X122362050Y-84561284D01*
X122476336Y-84523189D01*
X122514431Y-84485094D01*
X122514431Y-84218427D01*
X122362050Y-84218427D01*
X122857288Y-84561284D02*
X122857288Y-83761284D01*
X123314431Y-84561284D01*
X123314431Y-83761284D01*
X123695383Y-84561284D02*
X123695383Y-83761284D01*
X123885860Y-83761284D01*
X124000145Y-83799380D01*
X124076336Y-83875570D01*
X124114431Y-83951760D01*
X124152526Y-84104141D01*
X124152526Y-84218427D01*
X124114431Y-84370808D01*
X124076336Y-84446999D01*
X124000145Y-84523189D01*
X123885860Y-84561284D01*
X123695383Y-84561284D01*
X119056285Y-84142237D02*
X119170571Y-84180332D01*
X119208666Y-84218427D01*
X119246761Y-84294618D01*
X119246761Y-84408903D01*
X119208666Y-84485094D01*
X119170571Y-84523189D01*
X119094380Y-84561284D01*
X118789619Y-84561284D01*
X118789619Y-83761284D01*
X119056285Y-83761284D01*
X119132476Y-83799380D01*
X119170571Y-83837475D01*
X119208666Y-83913665D01*
X119208666Y-83989856D01*
X119170571Y-84066046D01*
X119132476Y-84104141D01*
X119056285Y-84142237D01*
X118789619Y-84142237D01*
X119551523Y-84332713D02*
X119932476Y-84332713D01*
X119475333Y-84561284D02*
X119742000Y-83761284D01*
X120008666Y-84561284D01*
X120161047Y-83761284D02*
X120618190Y-83761284D01*
X120389619Y-84561284D02*
X120389619Y-83761284D01*
X120884857Y-84256522D02*
X121494380Y-84256522D01*
X121189619Y-84561284D02*
X121189619Y-83951760D01*
X130528083Y-112916720D02*
X130051893Y-112916720D01*
X130004274Y-113392911D01*
X130051893Y-113345292D01*
X130147131Y-113297673D01*
X130385226Y-113297673D01*
X130480464Y-113345292D01*
X130528083Y-113392911D01*
X130575702Y-113488149D01*
X130575702Y-113726244D01*
X130528083Y-113821482D01*
X130480464Y-113869101D01*
X130385226Y-113916720D01*
X130147131Y-113916720D01*
X130051893Y-113869101D01*
X130004274Y-113821482D01*
X130861417Y-112916720D02*
X131194750Y-113916720D01*
X131528083Y-112916720D01*
X127364905Y-113250054D02*
X128079191Y-113250054D01*
X127650620Y-112821482D02*
X127364905Y-114107197D01*
X127983953Y-113678625D02*
X127269667Y-113678625D01*
X127698239Y-114107197D02*
X127983953Y-112821482D01*
X128364905Y-113011959D02*
X128412524Y-112964340D01*
X128507762Y-112916720D01*
X128745858Y-112916720D01*
X128841096Y-112964340D01*
X128888715Y-113011959D01*
X128936334Y-113107197D01*
X128936334Y-113202435D01*
X128888715Y-113345292D01*
X128317286Y-113916720D01*
X128936334Y-113916720D01*
X124827445Y-113250054D02*
X125541731Y-113250054D01*
X125113160Y-112821482D02*
X124827445Y-114107197D01*
X125446493Y-113678625D02*
X124732207Y-113678625D01*
X125160779Y-114107197D02*
X125446493Y-112821482D01*
X126398874Y-113916720D02*
X125827445Y-113916720D01*
X126113160Y-113916720D02*
X126113160Y-112916720D01*
X126017921Y-113059578D01*
X125922683Y-113154816D01*
X125827445Y-113202435D01*
X122320465Y-113250054D02*
X123034751Y-113250054D01*
X122606180Y-112821482D02*
X122320465Y-114107197D01*
X122939513Y-113678625D02*
X122225227Y-113678625D01*
X122653799Y-114107197D02*
X122939513Y-112821482D01*
X123558560Y-112916720D02*
X123653799Y-112916720D01*
X123749037Y-112964340D01*
X123796656Y-113011959D01*
X123844275Y-113107197D01*
X123891894Y-113297673D01*
X123891894Y-113535768D01*
X123844275Y-113726244D01*
X123796656Y-113821482D01*
X123749037Y-113869101D01*
X123653799Y-113916720D01*
X123558560Y-113916720D01*
X123463322Y-113869101D01*
X123415703Y-113821482D01*
X123368084Y-113726244D01*
X123320465Y-113535768D01*
X123320465Y-113297673D01*
X123368084Y-113107197D01*
X123415703Y-113011959D01*
X123463322Y-112964340D01*
X123558560Y-112916720D01*
X118743918Y-113032244D02*
X118743918Y-113679863D01*
X118782013Y-113756054D01*
X118820108Y-113794149D01*
X118896299Y-113832244D01*
X119048680Y-113832244D01*
X119124870Y-113794149D01*
X119162965Y-113756054D01*
X119201060Y-113679863D01*
X119201060Y-113032244D01*
X119543918Y-113794149D02*
X119658203Y-113832244D01*
X119848680Y-113832244D01*
X119924870Y-113794149D01*
X119962965Y-113756054D01*
X120001060Y-113679863D01*
X120001060Y-113603673D01*
X119962965Y-113527482D01*
X119924870Y-113489387D01*
X119848680Y-113451292D01*
X119696299Y-113413197D01*
X119620108Y-113375101D01*
X119582013Y-113337006D01*
X119543918Y-113260816D01*
X119543918Y-113184625D01*
X119582013Y-113108435D01*
X119620108Y-113070340D01*
X119696299Y-113032244D01*
X119886775Y-113032244D01*
X120001060Y-113070340D01*
X120610584Y-113413197D02*
X120724870Y-113451292D01*
X120762965Y-113489387D01*
X120801060Y-113565578D01*
X120801060Y-113679863D01*
X120762965Y-113756054D01*
X120724870Y-113794149D01*
X120648680Y-113832244D01*
X120343918Y-113832244D01*
X120343918Y-113032244D01*
X120610584Y-113032244D01*
X120686775Y-113070340D01*
X120724870Y-113108435D01*
X120762965Y-113184625D01*
X120762965Y-113260816D01*
X120724870Y-113337006D01*
X120686775Y-113375101D01*
X120610584Y-113413197D01*
X120343918Y-113413197D01*
X121143918Y-113527482D02*
X121753441Y-113527482D01*
X121448680Y-113832244D02*
X121448680Y-113222720D01*
X96304147Y-114229188D02*
X97066052Y-114229188D01*
X96685100Y-114610140D02*
X96685100Y-113848236D01*
X95316206Y-108326180D02*
X95316206Y-107326180D01*
X95697159Y-107326180D01*
X95792397Y-107373800D01*
X95840016Y-107421419D01*
X95887635Y-107516657D01*
X95887635Y-107659514D01*
X95840016Y-107754752D01*
X95792397Y-107802371D01*
X95697159Y-107849990D01*
X95316206Y-107849990D01*
X96220968Y-107326180D02*
X96459063Y-108326180D01*
X96649540Y-107611895D01*
X96840016Y-108326180D01*
X97078111Y-107326180D01*
X98030492Y-108326180D02*
X97697159Y-107849990D01*
X97459063Y-108326180D02*
X97459063Y-107326180D01*
X97840016Y-107326180D01*
X97935254Y-107373800D01*
X97982873Y-107421419D01*
X98030492Y-107516657D01*
X98030492Y-107659514D01*
X97982873Y-107754752D01*
X97935254Y-107802371D01*
X97840016Y-107849990D01*
X97459063Y-107849990D01*
X96291447Y-83586628D02*
X97053352Y-83586628D01*
X96672400Y-83967580D02*
X96672400Y-83205676D01*
X95535572Y-90329046D02*
X96011762Y-90329046D01*
X95440334Y-90614760D02*
X95773667Y-89614760D01*
X96107000Y-90614760D01*
X97011762Y-90519522D02*
X96964143Y-90567141D01*
X96821286Y-90614760D01*
X96726048Y-90614760D01*
X96583191Y-90567141D01*
X96487953Y-90471903D01*
X96440334Y-90376665D01*
X96392715Y-90186189D01*
X96392715Y-90043332D01*
X96440334Y-89852856D01*
X96487953Y-89757618D01*
X96583191Y-89662380D01*
X96726048Y-89614760D01*
X96821286Y-89614760D01*
X96964143Y-89662380D01*
X97011762Y-89709999D01*
X97297477Y-89614760D02*
X97868905Y-89614760D01*
X97583191Y-90614760D02*
X97583191Y-89614760D01*
X109102243Y-87094320D02*
X108768910Y-86618130D01*
X108530815Y-87094320D02*
X108530815Y-86094320D01*
X108911767Y-86094320D01*
X109007005Y-86141940D01*
X109054624Y-86189559D01*
X109102243Y-86284797D01*
X109102243Y-86427654D01*
X109054624Y-86522892D01*
X109007005Y-86570511D01*
X108911767Y-86618130D01*
X108530815Y-86618130D01*
X109292719Y-87189559D02*
X110054624Y-87189559D01*
X110245100Y-86189559D02*
X110292719Y-86141940D01*
X110387957Y-86094320D01*
X110626053Y-86094320D01*
X110721291Y-86141940D01*
X110768910Y-86189559D01*
X110816529Y-86284797D01*
X110816529Y-86380035D01*
X110768910Y-86522892D01*
X110197481Y-87094320D01*
X110816529Y-87094320D01*
X111435576Y-86094320D02*
X111530815Y-86094320D01*
X111626053Y-86141940D01*
X111673672Y-86189559D01*
X111721291Y-86284797D01*
X111768910Y-86475273D01*
X111768910Y-86713368D01*
X111721291Y-86903844D01*
X111673672Y-86999082D01*
X111626053Y-87046701D01*
X111530815Y-87094320D01*
X111435576Y-87094320D01*
X111340338Y-87046701D01*
X111292719Y-86999082D01*
X111245100Y-86903844D01*
X111197481Y-86713368D01*
X111197481Y-86475273D01*
X111245100Y-86284797D01*
X111292719Y-86189559D01*
X111340338Y-86141940D01*
X111435576Y-86094320D01*
X112721291Y-87094320D02*
X112149862Y-87094320D01*
X112435576Y-87094320D02*
X112435576Y-86094320D01*
X112340338Y-86237178D01*
X112245100Y-86332416D01*
X112149862Y-86380035D01*
X113292719Y-86522892D02*
X113197481Y-86475273D01*
X113149862Y-86427654D01*
X113102243Y-86332416D01*
X113102243Y-86284797D01*
X113149862Y-86189559D01*
X113197481Y-86141940D01*
X113292719Y-86094320D01*
X113483196Y-86094320D01*
X113578434Y-86141940D01*
X113626053Y-86189559D01*
X113673672Y-86284797D01*
X113673672Y-86332416D01*
X113626053Y-86427654D01*
X113578434Y-86475273D01*
X113483196Y-86522892D01*
X113292719Y-86522892D01*
X113197481Y-86570511D01*
X113149862Y-86618130D01*
X113102243Y-86713368D01*
X113102243Y-86903844D01*
X113149862Y-86999082D01*
X113197481Y-87046701D01*
X113292719Y-87094320D01*
X113483196Y-87094320D01*
X113578434Y-87046701D01*
X113626053Y-86999082D01*
X113673672Y-86903844D01*
X113673672Y-86713368D01*
X113626053Y-86618130D01*
X113578434Y-86570511D01*
X113483196Y-86522892D01*
X114292719Y-86094320D02*
X114387957Y-86094320D01*
X114483196Y-86141940D01*
X114530815Y-86189559D01*
X114578434Y-86284797D01*
X114626053Y-86475273D01*
X114626053Y-86713368D01*
X114578434Y-86903844D01*
X114530815Y-86999082D01*
X114483196Y-87046701D01*
X114387957Y-87094320D01*
X114292719Y-87094320D01*
X114197481Y-87046701D01*
X114149862Y-86999082D01*
X114102243Y-86903844D01*
X114054624Y-86713368D01*
X114054624Y-86475273D01*
X114102243Y-86284797D01*
X114149862Y-86189559D01*
X114197481Y-86141940D01*
X114292719Y-86094320D01*
X115102243Y-87094320D02*
X115292719Y-87094320D01*
X115387957Y-87046701D01*
X115435576Y-86999082D01*
X115530815Y-86856225D01*
X115578434Y-86665749D01*
X115578434Y-86284797D01*
X115530815Y-86189559D01*
X115483196Y-86141940D01*
X115387957Y-86094320D01*
X115197481Y-86094320D01*
X115102243Y-86141940D01*
X115054624Y-86189559D01*
X115007005Y-86284797D01*
X115007005Y-86522892D01*
X115054624Y-86618130D01*
X115102243Y-86665749D01*
X115197481Y-86713368D01*
X115387957Y-86713368D01*
X115483196Y-86665749D01*
X115530815Y-86618130D01*
X115578434Y-86522892D01*
X116197481Y-86094320D02*
X116292719Y-86094320D01*
X116387957Y-86141940D01*
X116435576Y-86189559D01*
X116483196Y-86284797D01*
X116530815Y-86475273D01*
X116530815Y-86713368D01*
X116483196Y-86903844D01*
X116435576Y-86999082D01*
X116387957Y-87046701D01*
X116292719Y-87094320D01*
X116197481Y-87094320D01*
X116102243Y-87046701D01*
X116054624Y-86999082D01*
X116007005Y-86903844D01*
X115959386Y-86713368D01*
X115959386Y-86475273D01*
X116007005Y-86284797D01*
X116054624Y-86189559D01*
X116102243Y-86141940D01*
X116197481Y-86094320D01*
X117007005Y-87094320D02*
X117197481Y-87094320D01*
X117292719Y-87046701D01*
X117340338Y-86999082D01*
X117435576Y-86856225D01*
X117483196Y-86665749D01*
X117483196Y-86284797D01*
X117435576Y-86189559D01*
X117387957Y-86141940D01*
X117292719Y-86094320D01*
X117102243Y-86094320D01*
X117007005Y-86141940D01*
X116959386Y-86189559D01*
X116911767Y-86284797D01*
X116911767Y-86522892D01*
X116959386Y-86618130D01*
X117007005Y-86665749D01*
X117102243Y-86713368D01*
X117292719Y-86713368D01*
X117387957Y-86665749D01*
X117435576Y-86618130D01*
X117483196Y-86522892D01*
D11*
X132973760Y-86798760D02*
X133545188Y-86798760D01*
X132859474Y-87141617D02*
X133259474Y-85941617D01*
X133659474Y-87141617D01*
X133888045Y-85941617D02*
X134573760Y-85941617D01*
X134230903Y-87141617D02*
X134230903Y-85941617D01*
X134802331Y-85941617D02*
X135488045Y-85941617D01*
X135145188Y-87141617D02*
X135145188Y-85941617D01*
X135888045Y-87141617D02*
X135888045Y-86341617D01*
X135888045Y-85941617D02*
X135830903Y-85998760D01*
X135888045Y-86055902D01*
X135945188Y-85998760D01*
X135888045Y-85941617D01*
X135888045Y-86055902D01*
X136459474Y-86341617D02*
X136459474Y-87141617D01*
X136459474Y-86455902D02*
X136516617Y-86398760D01*
X136630903Y-86341617D01*
X136802331Y-86341617D01*
X136916617Y-86398760D01*
X136973760Y-86513045D01*
X136973760Y-87141617D01*
X137430903Y-86341617D02*
X137716617Y-87141617D01*
X138002331Y-86341617D02*
X137716617Y-87141617D01*
X137602331Y-87427331D01*
X137545188Y-87484474D01*
X137430903Y-87541617D01*
X138459474Y-85941617D02*
X138459474Y-86913045D01*
X138516617Y-87027331D01*
X138573760Y-87084474D01*
X138688045Y-87141617D01*
X138916617Y-87141617D01*
X139030903Y-87084474D01*
X139088045Y-87027331D01*
X139145188Y-86913045D01*
X139145188Y-85941617D01*
X139716617Y-87141617D02*
X139716617Y-85941617D01*
X140288045Y-87141617D02*
X140288045Y-85941617D01*
X140973760Y-87141617D01*
X140973760Y-85941617D01*
X141773760Y-85941617D02*
X142002331Y-85941617D01*
X142116617Y-85998760D01*
X142230903Y-86113045D01*
X142288045Y-86341617D01*
X142288045Y-86741617D01*
X142230903Y-86970188D01*
X142116617Y-87084474D01*
X142002331Y-87141617D01*
X141773760Y-87141617D01*
X141659474Y-87084474D01*
X141545188Y-86970188D01*
X141488045Y-86741617D01*
X141488045Y-86341617D01*
X141545188Y-86113045D01*
X141659474Y-85998760D01*
X141773760Y-85941617D01*
D10*
X139808409Y-95507020D02*
X139770314Y-95545115D01*
X139656028Y-95583210D01*
X139579838Y-95583210D01*
X139465552Y-95545115D01*
X139389361Y-95468925D01*
X139351266Y-95392734D01*
X139313171Y-95240353D01*
X139313171Y-95126067D01*
X139351266Y-94973686D01*
X139389361Y-94897496D01*
X139465552Y-94821306D01*
X139579838Y-94783210D01*
X139656028Y-94783210D01*
X139770314Y-94821306D01*
X139808409Y-94859401D01*
X140608409Y-95507020D02*
X140570314Y-95545115D01*
X140456028Y-95583210D01*
X140379838Y-95583210D01*
X140265552Y-95545115D01*
X140189361Y-95468925D01*
X140151266Y-95392734D01*
X140113171Y-95240353D01*
X140113171Y-95126067D01*
X140151266Y-94973686D01*
X140189361Y-94897496D01*
X140265552Y-94821306D01*
X140379838Y-94783210D01*
X140456028Y-94783210D01*
X140570314Y-94821306D01*
X140608409Y-94859401D01*
X141827457Y-95164163D02*
X141941742Y-95202258D01*
X141979838Y-95240353D01*
X142017933Y-95316544D01*
X142017933Y-95430829D01*
X141979838Y-95507020D01*
X141941742Y-95545115D01*
X141865552Y-95583210D01*
X141560790Y-95583210D01*
X141560790Y-94783210D01*
X141827457Y-94783210D01*
X141903647Y-94821306D01*
X141941742Y-94859401D01*
X141979838Y-94935591D01*
X141979838Y-95011782D01*
X141941742Y-95087972D01*
X141903647Y-95126067D01*
X141827457Y-95164163D01*
X141560790Y-95164163D01*
X142513171Y-95202258D02*
X142513171Y-95583210D01*
X142246504Y-94783210D02*
X142513171Y-95202258D01*
X142779838Y-94783210D01*
X143046504Y-95278448D02*
X143656028Y-95278448D01*
X143998885Y-95545115D02*
X144113171Y-95583210D01*
X144303647Y-95583210D01*
X144379838Y-95545115D01*
X144417933Y-95507020D01*
X144456028Y-95430829D01*
X144456028Y-95354639D01*
X144417933Y-95278448D01*
X144379838Y-95240353D01*
X144303647Y-95202258D01*
X144151266Y-95164163D01*
X144075076Y-95126067D01*
X144036980Y-95087972D01*
X143998885Y-95011782D01*
X143998885Y-94935591D01*
X144036980Y-94859401D01*
X144075076Y-94821306D01*
X144151266Y-94783210D01*
X144341742Y-94783210D01*
X144456028Y-94821306D01*
X144760790Y-95354639D02*
X145141742Y-95354639D01*
X144684600Y-95583210D02*
X144951266Y-94783210D01*
X145217933Y-95583210D01*
X146436980Y-95049877D02*
X146436980Y-95583210D01*
X146246504Y-94745115D02*
X146056028Y-95316544D01*
X146551266Y-95316544D01*
X146856028Y-95507020D02*
X146894123Y-95545115D01*
X146856028Y-95583210D01*
X146817933Y-95545115D01*
X146856028Y-95507020D01*
X146856028Y-95583210D01*
X147389361Y-94783210D02*
X147465552Y-94783210D01*
X147541742Y-94821306D01*
X147579838Y-94859401D01*
X147617933Y-94935591D01*
X147656028Y-95087972D01*
X147656028Y-95278448D01*
X147617933Y-95430829D01*
X147579838Y-95507020D01*
X147541742Y-95545115D01*
X147465552Y-95583210D01*
X147389361Y-95583210D01*
X147313171Y-95545115D01*
X147275076Y-95507020D01*
X147236980Y-95430829D01*
X147198885Y-95278448D01*
X147198885Y-95087972D01*
X147236980Y-94935591D01*
X147275076Y-94859401D01*
X147313171Y-94821306D01*
X147389361Y-94783210D01*
X138265552Y-96491163D02*
X138379838Y-96529258D01*
X138417933Y-96567353D01*
X138456028Y-96643544D01*
X138456028Y-96757829D01*
X138417933Y-96834020D01*
X138379838Y-96872115D01*
X138303647Y-96910210D01*
X137998885Y-96910210D01*
X137998885Y-96110210D01*
X138265552Y-96110210D01*
X138341742Y-96148306D01*
X138379838Y-96186401D01*
X138417933Y-96262591D01*
X138417933Y-96338782D01*
X138379838Y-96414972D01*
X138341742Y-96453067D01*
X138265552Y-96491163D01*
X137998885Y-96491163D01*
X138722695Y-96376877D02*
X138913171Y-96910210D01*
X139103647Y-96376877D02*
X138913171Y-96910210D01*
X138836980Y-97100686D01*
X138798885Y-97138782D01*
X138722695Y-97176877D01*
X140017933Y-96491163D02*
X140284600Y-96491163D01*
X140398885Y-96910210D02*
X140017933Y-96910210D01*
X140017933Y-96110210D01*
X140398885Y-96110210D01*
X140856028Y-96910210D02*
X140779838Y-96872115D01*
X140741742Y-96795925D01*
X140741742Y-96110210D01*
X141503647Y-96910210D02*
X141503647Y-96491163D01*
X141465552Y-96414972D01*
X141389361Y-96376877D01*
X141236980Y-96376877D01*
X141160790Y-96414972D01*
X141503647Y-96872115D02*
X141427457Y-96910210D01*
X141236980Y-96910210D01*
X141160790Y-96872115D01*
X141122695Y-96795925D01*
X141122695Y-96719734D01*
X141160790Y-96643544D01*
X141236980Y-96605448D01*
X141427457Y-96605448D01*
X141503647Y-96567353D01*
X142227457Y-96910210D02*
X142227457Y-96110210D01*
X142227457Y-96872115D02*
X142151266Y-96910210D01*
X141998885Y-96910210D01*
X141922695Y-96872115D01*
X141884600Y-96834020D01*
X141846504Y-96757829D01*
X141846504Y-96529258D01*
X141884600Y-96453067D01*
X141922695Y-96414972D01*
X141998885Y-96376877D01*
X142151266Y-96376877D01*
X142227457Y-96414972D01*
X142608409Y-96910210D02*
X142608409Y-96376877D01*
X142608409Y-96110210D02*
X142570314Y-96148306D01*
X142608409Y-96186401D01*
X142646504Y-96148306D01*
X142608409Y-96110210D01*
X142608409Y-96186401D01*
X143103647Y-96910210D02*
X143027457Y-96872115D01*
X142989361Y-96834020D01*
X142951266Y-96757829D01*
X142951266Y-96529258D01*
X142989361Y-96453067D01*
X143027457Y-96414972D01*
X143103647Y-96376877D01*
X143217933Y-96376877D01*
X143294123Y-96414972D01*
X143332219Y-96453067D01*
X143370314Y-96529258D01*
X143370314Y-96757829D01*
X143332219Y-96834020D01*
X143294123Y-96872115D01*
X143217933Y-96910210D01*
X143103647Y-96910210D01*
X144322695Y-96910210D02*
X144322695Y-96110210D01*
X144589361Y-96681639D01*
X144856028Y-96110210D01*
X144856028Y-96910210D01*
X145579838Y-96910210D02*
X145579838Y-96491163D01*
X145541742Y-96414972D01*
X145465552Y-96376877D01*
X145313171Y-96376877D01*
X145236980Y-96414972D01*
X145579838Y-96872115D02*
X145503647Y-96910210D01*
X145313171Y-96910210D01*
X145236980Y-96872115D01*
X145198885Y-96795925D01*
X145198885Y-96719734D01*
X145236980Y-96643544D01*
X145313171Y-96605448D01*
X145503647Y-96605448D01*
X145579838Y-96567353D01*
X145960790Y-96910210D02*
X145960790Y-96376877D01*
X145960790Y-96529258D02*
X145998885Y-96453067D01*
X146036980Y-96414972D01*
X146113171Y-96376877D01*
X146189361Y-96376877D01*
X146341742Y-96376877D02*
X146646504Y-96376877D01*
X146456028Y-96110210D02*
X146456028Y-96795925D01*
X146494123Y-96872115D01*
X146570314Y-96910210D01*
X146646504Y-96910210D01*
X146913171Y-96910210D02*
X146913171Y-96376877D01*
X146913171Y-96110210D02*
X146875076Y-96148306D01*
X146913171Y-96186401D01*
X146951266Y-96148306D01*
X146913171Y-96110210D01*
X146913171Y-96186401D01*
X147294123Y-96376877D02*
X147294123Y-96910210D01*
X147294123Y-96453067D02*
X147332219Y-96414972D01*
X147408409Y-96376877D01*
X147522695Y-96376877D01*
X147598885Y-96414972D01*
X147636980Y-96491163D01*
X147636980Y-96910210D01*
X148322695Y-96872115D02*
X148246504Y-96910210D01*
X148094123Y-96910210D01*
X148017933Y-96872115D01*
X147979838Y-96795925D01*
X147979838Y-96491163D01*
X148017933Y-96414972D01*
X148094123Y-96376877D01*
X148246504Y-96376877D01*
X148322695Y-96414972D01*
X148360790Y-96491163D01*
X148360790Y-96567353D01*
X147979838Y-96643544D01*
X148627457Y-96376877D02*
X149046504Y-96376877D01*
X148627457Y-96910210D01*
X149046504Y-96910210D01*
X143657819Y-108900220D02*
X143324485Y-108424030D01*
X143086390Y-108900220D02*
X143086390Y-107900220D01*
X143467342Y-107900220D01*
X143562580Y-107947840D01*
X143610200Y-107995459D01*
X143657819Y-108090697D01*
X143657819Y-108233554D01*
X143610200Y-108328792D01*
X143562580Y-108376411D01*
X143467342Y-108424030D01*
X143086390Y-108424030D01*
X144086390Y-108376411D02*
X144419723Y-108376411D01*
X144562580Y-108900220D02*
X144086390Y-108900220D01*
X144086390Y-107900220D01*
X144562580Y-107900220D01*
X144943533Y-108852601D02*
X145086390Y-108900220D01*
X145324485Y-108900220D01*
X145419723Y-108852601D01*
X145467342Y-108804982D01*
X145514961Y-108709744D01*
X145514961Y-108614506D01*
X145467342Y-108519268D01*
X145419723Y-108471649D01*
X145324485Y-108424030D01*
X145134009Y-108376411D01*
X145038771Y-108328792D01*
X144991152Y-108281173D01*
X144943533Y-108185935D01*
X144943533Y-108090697D01*
X144991152Y-107995459D01*
X145038771Y-107947840D01*
X145134009Y-107900220D01*
X145372104Y-107900220D01*
X145514961Y-107947840D01*
X145943533Y-108376411D02*
X146276866Y-108376411D01*
X146419723Y-108900220D02*
X145943533Y-108900220D01*
X145943533Y-107900220D01*
X146419723Y-107900220D01*
X146705438Y-107900220D02*
X147276866Y-107900220D01*
X146991152Y-108900220D02*
X146991152Y-107900220D01*
X133527539Y-109399889D02*
X134527539Y-109399889D01*
X133622777Y-110447508D02*
X133575158Y-110399889D01*
X133527539Y-110257032D01*
X133527539Y-110161794D01*
X133575158Y-110018937D01*
X133670396Y-109923699D01*
X133765634Y-109876080D01*
X133956110Y-109828460D01*
X134098967Y-109828460D01*
X134289443Y-109876080D01*
X134384681Y-109923699D01*
X134479920Y-110018937D01*
X134527539Y-110161794D01*
X134527539Y-110257032D01*
X134479920Y-110399889D01*
X134432300Y-110447508D01*
X133575158Y-110828460D02*
X133527539Y-110971318D01*
X133527539Y-111209413D01*
X133575158Y-111304651D01*
X133622777Y-111352270D01*
X133718015Y-111399889D01*
X133813253Y-111399889D01*
X133908491Y-111352270D01*
X133956110Y-111304651D01*
X134003729Y-111209413D01*
X134051348Y-111018937D01*
X134098967Y-110923699D01*
X134146586Y-110876080D01*
X134241824Y-110828460D01*
X134337062Y-110828460D01*
X134432300Y-110876080D01*
X134479920Y-110923699D01*
X134527539Y-111018937D01*
X134527539Y-111257032D01*
X134479920Y-111399889D01*
X133527539Y-111828460D02*
X134527539Y-111828460D01*
X134527539Y-112209413D01*
X134479920Y-112304651D01*
X134432300Y-112352270D01*
X134337062Y-112399889D01*
X134194205Y-112399889D01*
X134098967Y-112352270D01*
X134051348Y-112304651D01*
X134003729Y-112209413D01*
X134003729Y-111828460D01*
D12*
G04 #@! TO.C,J1*
X132004000Y-112353000D02*
X132004000Y-109693000D01*
X121784000Y-112353000D02*
X132004000Y-112353000D01*
X121784000Y-109693000D02*
X132004000Y-109693000D01*
X121784000Y-112353000D02*
X121784000Y-109693000D01*
X120514000Y-112353000D02*
X119184000Y-112353000D01*
X119184000Y-112353000D02*
X119184000Y-111023000D01*
G04 #@! TO.C,C1*
X135835000Y-92503800D02*
G75*
G03X135835000Y-92503800I-2620000J0D01*
G01*
X130635000Y-92503800D02*
X135795000Y-92503800D01*
X130635000Y-92463800D02*
X135795000Y-92463800D01*
X130636000Y-92423800D02*
X135794000Y-92423800D01*
X130637000Y-92383800D02*
X135793000Y-92383800D01*
X130639000Y-92343800D02*
X135791000Y-92343800D01*
X130642000Y-92303800D02*
X135788000Y-92303800D01*
X130646000Y-92263800D02*
X132175000Y-92263800D01*
X134255000Y-92263800D02*
X135784000Y-92263800D01*
X130650000Y-92223800D02*
X132175000Y-92223800D01*
X134255000Y-92223800D02*
X135780000Y-92223800D01*
X130654000Y-92183800D02*
X132175000Y-92183800D01*
X134255000Y-92183800D02*
X135776000Y-92183800D01*
X130659000Y-92143800D02*
X132175000Y-92143800D01*
X134255000Y-92143800D02*
X135771000Y-92143800D01*
X130665000Y-92103800D02*
X132175000Y-92103800D01*
X134255000Y-92103800D02*
X135765000Y-92103800D01*
X130672000Y-92063800D02*
X132175000Y-92063800D01*
X134255000Y-92063800D02*
X135758000Y-92063800D01*
X130679000Y-92023800D02*
X132175000Y-92023800D01*
X134255000Y-92023800D02*
X135751000Y-92023800D01*
X130687000Y-91983800D02*
X132175000Y-91983800D01*
X134255000Y-91983800D02*
X135743000Y-91983800D01*
X130695000Y-91943800D02*
X132175000Y-91943800D01*
X134255000Y-91943800D02*
X135735000Y-91943800D01*
X130704000Y-91903800D02*
X132175000Y-91903800D01*
X134255000Y-91903800D02*
X135726000Y-91903800D01*
X130714000Y-91863800D02*
X132175000Y-91863800D01*
X134255000Y-91863800D02*
X135716000Y-91863800D01*
X130724000Y-91823800D02*
X132175000Y-91823800D01*
X134255000Y-91823800D02*
X135706000Y-91823800D01*
X130735000Y-91782800D02*
X132175000Y-91782800D01*
X134255000Y-91782800D02*
X135695000Y-91782800D01*
X130747000Y-91742800D02*
X132175000Y-91742800D01*
X134255000Y-91742800D02*
X135683000Y-91742800D01*
X130760000Y-91702800D02*
X132175000Y-91702800D01*
X134255000Y-91702800D02*
X135670000Y-91702800D01*
X130773000Y-91662800D02*
X132175000Y-91662800D01*
X134255000Y-91662800D02*
X135657000Y-91662800D01*
X130787000Y-91622800D02*
X132175000Y-91622800D01*
X134255000Y-91622800D02*
X135643000Y-91622800D01*
X130801000Y-91582800D02*
X132175000Y-91582800D01*
X134255000Y-91582800D02*
X135629000Y-91582800D01*
X130817000Y-91542800D02*
X132175000Y-91542800D01*
X134255000Y-91542800D02*
X135613000Y-91542800D01*
X130833000Y-91502800D02*
X132175000Y-91502800D01*
X134255000Y-91502800D02*
X135597000Y-91502800D01*
X130850000Y-91462800D02*
X132175000Y-91462800D01*
X134255000Y-91462800D02*
X135580000Y-91462800D01*
X130867000Y-91422800D02*
X132175000Y-91422800D01*
X134255000Y-91422800D02*
X135563000Y-91422800D01*
X130886000Y-91382800D02*
X132175000Y-91382800D01*
X134255000Y-91382800D02*
X135544000Y-91382800D01*
X130905000Y-91342800D02*
X132175000Y-91342800D01*
X134255000Y-91342800D02*
X135525000Y-91342800D01*
X130925000Y-91302800D02*
X132175000Y-91302800D01*
X134255000Y-91302800D02*
X135505000Y-91302800D01*
X130947000Y-91262800D02*
X132175000Y-91262800D01*
X134255000Y-91262800D02*
X135483000Y-91262800D01*
X130968000Y-91222800D02*
X132175000Y-91222800D01*
X134255000Y-91222800D02*
X135462000Y-91222800D01*
X130991000Y-91182800D02*
X132175000Y-91182800D01*
X134255000Y-91182800D02*
X135439000Y-91182800D01*
X131015000Y-91142800D02*
X132175000Y-91142800D01*
X134255000Y-91142800D02*
X135415000Y-91142800D01*
X131040000Y-91102800D02*
X132175000Y-91102800D01*
X134255000Y-91102800D02*
X135390000Y-91102800D01*
X131066000Y-91062800D02*
X132175000Y-91062800D01*
X134255000Y-91062800D02*
X135364000Y-91062800D01*
X131093000Y-91022800D02*
X132175000Y-91022800D01*
X134255000Y-91022800D02*
X135337000Y-91022800D01*
X131120000Y-90982800D02*
X132175000Y-90982800D01*
X134255000Y-90982800D02*
X135310000Y-90982800D01*
X131150000Y-90942800D02*
X132175000Y-90942800D01*
X134255000Y-90942800D02*
X135280000Y-90942800D01*
X131180000Y-90902800D02*
X132175000Y-90902800D01*
X134255000Y-90902800D02*
X135250000Y-90902800D01*
X131211000Y-90862800D02*
X132175000Y-90862800D01*
X134255000Y-90862800D02*
X135219000Y-90862800D01*
X131244000Y-90822800D02*
X132175000Y-90822800D01*
X134255000Y-90822800D02*
X135186000Y-90822800D01*
X131278000Y-90782800D02*
X132175000Y-90782800D01*
X134255000Y-90782800D02*
X135152000Y-90782800D01*
X131314000Y-90742800D02*
X132175000Y-90742800D01*
X134255000Y-90742800D02*
X135116000Y-90742800D01*
X131351000Y-90702800D02*
X132175000Y-90702800D01*
X134255000Y-90702800D02*
X135079000Y-90702800D01*
X131389000Y-90662800D02*
X132175000Y-90662800D01*
X134255000Y-90662800D02*
X135041000Y-90662800D01*
X131430000Y-90622800D02*
X132175000Y-90622800D01*
X134255000Y-90622800D02*
X135000000Y-90622800D01*
X131472000Y-90582800D02*
X132175000Y-90582800D01*
X134255000Y-90582800D02*
X134958000Y-90582800D01*
X131516000Y-90542800D02*
X132175000Y-90542800D01*
X134255000Y-90542800D02*
X134914000Y-90542800D01*
X131562000Y-90502800D02*
X132175000Y-90502800D01*
X134255000Y-90502800D02*
X134868000Y-90502800D01*
X131610000Y-90462800D02*
X132175000Y-90462800D01*
X134255000Y-90462800D02*
X134820000Y-90462800D01*
X131661000Y-90422800D02*
X132175000Y-90422800D01*
X134255000Y-90422800D02*
X134769000Y-90422800D01*
X131715000Y-90382800D02*
X132175000Y-90382800D01*
X134255000Y-90382800D02*
X134715000Y-90382800D01*
X131772000Y-90342800D02*
X132175000Y-90342800D01*
X134255000Y-90342800D02*
X134658000Y-90342800D01*
X131832000Y-90302800D02*
X132175000Y-90302800D01*
X134255000Y-90302800D02*
X134598000Y-90302800D01*
X131896000Y-90262800D02*
X132175000Y-90262800D01*
X134255000Y-90262800D02*
X134534000Y-90262800D01*
X131964000Y-90222800D02*
X132175000Y-90222800D01*
X134255000Y-90222800D02*
X134466000Y-90222800D01*
X132037000Y-90182800D02*
X134393000Y-90182800D01*
X132117000Y-90142800D02*
X134313000Y-90142800D01*
X132204000Y-90102800D02*
X134226000Y-90102800D01*
X132300000Y-90062800D02*
X134130000Y-90062800D01*
X132410000Y-90022800D02*
X134020000Y-90022800D01*
X132538000Y-89982800D02*
X133892000Y-89982800D01*
X132697000Y-89942800D02*
X133733000Y-89942800D01*
X132931000Y-89902800D02*
X133499000Y-89902800D01*
X131740000Y-95308575D02*
X131740000Y-94808575D01*
X131490000Y-95058575D02*
X131990000Y-95058575D01*
G04 #@! TO.C,C2*
X124870000Y-95218700D02*
X124870000Y-89878700D01*
X128312000Y-95218700D02*
X128312000Y-89878700D01*
X124870000Y-95218700D02*
X125536000Y-95218700D01*
X127646000Y-95218700D02*
X128312000Y-95218700D01*
X124870000Y-89878700D02*
X125536000Y-89878700D01*
X127646000Y-89878700D02*
X128312000Y-89878700D01*
G04 #@! TO.C,D1*
X97710408Y-112855335D02*
G75*
G03X97867316Y-109623000I-1078608J1672335D01*
G01*
X95553192Y-112855335D02*
G75*
G02X95396284Y-109623000I1078608J1672335D01*
G01*
X97711637Y-112224130D02*
G75*
G03X97711800Y-110142039I-1079837J1041130D01*
G01*
X95551963Y-112224130D02*
G75*
G02X95551800Y-110142039I1079837J1041130D01*
G01*
X97867800Y-109623000D02*
X97711800Y-109623000D01*
X95551800Y-109623000D02*
X95395800Y-109623000D01*
G04 #@! TO.C,D2*
X119933000Y-106376000D02*
X119933000Y-104136000D01*
X119933000Y-104136000D02*
X115693000Y-104136000D01*
X115693000Y-104136000D02*
X115693000Y-106376000D01*
X115693000Y-106376000D02*
X119933000Y-106376000D01*
X120583000Y-105256000D02*
X119933000Y-105256000D01*
X115043000Y-105256000D02*
X115693000Y-105256000D01*
X119213000Y-106376000D02*
X119213000Y-104136000D01*
X119093000Y-106376000D02*
X119093000Y-104136000D01*
X119333000Y-106376000D02*
X119333000Y-104136000D01*
G04 #@! TO.C,D3*
X97711800Y-88240500D02*
X97867800Y-88240500D01*
X95395800Y-88240500D02*
X95551800Y-88240500D01*
X97711637Y-85639370D02*
G75*
G02X97711800Y-87721461I-1079837J-1041130D01*
G01*
X95551963Y-85639370D02*
G75*
G03X95551800Y-87721461I1079837J-1041130D01*
G01*
X97710408Y-85008165D02*
G75*
G02X97867316Y-88240500I-1078608J-1672335D01*
G01*
X95553192Y-85008165D02*
G75*
G03X95396284Y-88240500I1078608J-1672335D01*
G01*
G04 #@! TO.C,D4*
X115693000Y-93472300D02*
X115693000Y-95712300D01*
X115693000Y-95712300D02*
X119933000Y-95712300D01*
X119933000Y-95712300D02*
X119933000Y-93472300D01*
X119933000Y-93472300D02*
X115693000Y-93472300D01*
X115043000Y-94592300D02*
X115693000Y-94592300D01*
X120583000Y-94592300D02*
X119933000Y-94592300D01*
X116413000Y-93472300D02*
X116413000Y-95712300D01*
X116533000Y-93472300D02*
X116533000Y-95712300D01*
X116293000Y-93472300D02*
X116293000Y-95712300D01*
G04 #@! TO.C,D5*
X116293000Y-96860300D02*
X116293000Y-99100300D01*
X116533000Y-96860300D02*
X116533000Y-99100300D01*
X116413000Y-96860300D02*
X116413000Y-99100300D01*
X120583000Y-97980300D02*
X119933000Y-97980300D01*
X115043000Y-97980300D02*
X115693000Y-97980300D01*
X119933000Y-96860300D02*
X115693000Y-96860300D01*
X119933000Y-99100300D02*
X119933000Y-96860300D01*
X115693000Y-99100300D02*
X119933000Y-99100300D01*
X115693000Y-96860300D02*
X115693000Y-99100300D01*
G04 #@! TO.C,J2*
X119184000Y-88096400D02*
X119184000Y-86766400D01*
X120514000Y-88096400D02*
X119184000Y-88096400D01*
X121784000Y-88096400D02*
X121784000Y-85436400D01*
X121784000Y-85436400D02*
X132004000Y-85436400D01*
X121784000Y-88096400D02*
X132004000Y-88096400D01*
X132004000Y-88096400D02*
X132004000Y-85436400D01*
G04 #@! TO.C,J3*
X105544000Y-105092000D02*
X109804000Y-105092000D01*
X109804000Y-105092000D02*
X109804000Y-92772000D01*
X109804000Y-92772000D02*
X105544000Y-92772000D01*
X101444000Y-105092000D02*
X93084000Y-105092000D01*
X93084000Y-105092000D02*
X93084000Y-92772000D01*
X93084000Y-92772000D02*
X101444000Y-92772000D01*
X110024000Y-100182000D02*
X110524000Y-100682000D01*
X110524000Y-100682000D02*
X110524000Y-99682000D01*
X110524000Y-99682000D02*
X110024000Y-100182000D01*
G04 #@! TO.C,P1*
X139982000Y-109553000D02*
X139982000Y-110188000D01*
X139347000Y-109553000D02*
X139982000Y-109553000D01*
G04 #@! TO.C,R1*
X102562000Y-107365000D02*
X102562000Y-110105000D01*
X102562000Y-110105000D02*
X109102000Y-110105000D01*
X109102000Y-110105000D02*
X109102000Y-107365000D01*
X109102000Y-107365000D02*
X102562000Y-107365000D01*
X101792000Y-108735000D02*
X102562000Y-108735000D01*
X109872000Y-108735000D02*
X109102000Y-108735000D01*
G04 #@! TO.C,R2*
X102562000Y-87809400D02*
X102562000Y-90549400D01*
X102562000Y-90549400D02*
X109102000Y-90549400D01*
X109102000Y-90549400D02*
X109102000Y-87809400D01*
X109102000Y-87809400D02*
X102562000Y-87809400D01*
X101792000Y-89179400D02*
X102562000Y-89179400D01*
X109872000Y-89179400D02*
X109102000Y-89179400D01*
G04 #@! TO.C,R3*
X114543000Y-100248000D02*
X114543000Y-102988000D01*
X114543000Y-102988000D02*
X121083000Y-102988000D01*
X121083000Y-102988000D02*
X121083000Y-100248000D01*
X121083000Y-100248000D02*
X114543000Y-100248000D01*
X113773000Y-101618000D02*
X114543000Y-101618000D01*
X121853000Y-101618000D02*
X121083000Y-101618000D01*
G04 #@! TO.C,R4*
X126591000Y-98621000D02*
X126591000Y-99391000D01*
X126591000Y-106701000D02*
X126591000Y-105931000D01*
X125221000Y-99391000D02*
X125221000Y-105931000D01*
X127961000Y-99391000D02*
X125221000Y-99391000D01*
X127961000Y-105931000D02*
X127961000Y-99391000D01*
X125221000Y-105931000D02*
X127961000Y-105931000D01*
G04 #@! TO.C,R5*
X121853000Y-90954400D02*
X121083000Y-90954400D01*
X113773000Y-90954400D02*
X114543000Y-90954400D01*
X121083000Y-89584400D02*
X114543000Y-89584400D01*
X121083000Y-92324400D02*
X121083000Y-89584400D01*
X114543000Y-92324400D02*
X121083000Y-92324400D01*
X114543000Y-89584400D02*
X114543000Y-92324400D01*
G04 #@! TO.C,SW1*
X141744000Y-100236600D02*
X141744000Y-104736600D01*
X145744000Y-98986600D02*
X144244000Y-98986600D01*
X148244000Y-104736600D02*
X148244000Y-100236600D01*
X144244000Y-105986600D02*
X145744000Y-105986600D01*
G04 #@! TO.C,U1*
X117548000Y-111924000D02*
X117548000Y-108324000D01*
X117536478Y-111962478D02*
G75*
G02X113098000Y-110124000I-1838478J1838478D01*
G01*
X117536478Y-108285522D02*
G75*
G03X113098000Y-110124000I-1838478J-1838478D01*
G01*
G04 #@! TO.C,U2*
X139797000Y-103496600D02*
G75*
G02X139797000Y-101496600I0J1000000D01*
G01*
X139797000Y-101496600D02*
X139797000Y-99846600D01*
X139797000Y-99846600D02*
X129517000Y-99846600D01*
X129517000Y-99846600D02*
X129517000Y-105146600D01*
X129517000Y-105146600D02*
X139797000Y-105146600D01*
X139797000Y-105146600D02*
X139797000Y-103496600D01*
D13*
G04 #@! TO.C,REF01*
G36*
X143869877Y-88435375D02*
X143926725Y-88736927D01*
X144346251Y-88909869D01*
X144597897Y-88738752D01*
X144668371Y-88691107D01*
X144732076Y-88648567D01*
X144786039Y-88613072D01*
X144827286Y-88586567D01*
X144852847Y-88570993D01*
X144859808Y-88567635D01*
X144872348Y-88576271D01*
X144899144Y-88600149D01*
X144937193Y-88636216D01*
X144983492Y-88681424D01*
X145035036Y-88732721D01*
X145088822Y-88787058D01*
X145141848Y-88841385D01*
X145191108Y-88892652D01*
X145233600Y-88937808D01*
X145266320Y-88973803D01*
X145286264Y-88997587D01*
X145291032Y-89005547D01*
X145284170Y-89020222D01*
X145264933Y-89052371D01*
X145235343Y-89098849D01*
X145197423Y-89156513D01*
X145153195Y-89222217D01*
X145127567Y-89259693D01*
X145080854Y-89328125D01*
X145039345Y-89389877D01*
X145005053Y-89441876D01*
X144979993Y-89481049D01*
X144966177Y-89504322D01*
X144964101Y-89509212D01*
X144968808Y-89523112D01*
X144981636Y-89555507D01*
X145000651Y-89601842D01*
X145023916Y-89657563D01*
X145049497Y-89718115D01*
X145075458Y-89778943D01*
X145099863Y-89835493D01*
X145120776Y-89883209D01*
X145136262Y-89917538D01*
X145144385Y-89933925D01*
X145144865Y-89934569D01*
X145157620Y-89937698D01*
X145191590Y-89944678D01*
X145243253Y-89954824D01*
X145309089Y-89967449D01*
X145385577Y-89981866D01*
X145430203Y-89990180D01*
X145511934Y-90005741D01*
X145585756Y-90020549D01*
X145647934Y-90033793D01*
X145694735Y-90044662D01*
X145722422Y-90052346D01*
X145727987Y-90054784D01*
X145733439Y-90071287D01*
X145737837Y-90108557D01*
X145741185Y-90162237D01*
X145743487Y-90227969D01*
X145744745Y-90301394D01*
X145744961Y-90378153D01*
X145744140Y-90453889D01*
X145742284Y-90524243D01*
X145739395Y-90584857D01*
X145735478Y-90631373D01*
X145730535Y-90659432D01*
X145727570Y-90665273D01*
X145709847Y-90672274D01*
X145672294Y-90682284D01*
X145619877Y-90694126D01*
X145557565Y-90706624D01*
X145535813Y-90710667D01*
X145430937Y-90729877D01*
X145348093Y-90745348D01*
X145284543Y-90757694D01*
X145237550Y-90767530D01*
X145204376Y-90775471D01*
X145182284Y-90782133D01*
X145168537Y-90788130D01*
X145160397Y-90794076D01*
X145159258Y-90795251D01*
X145147890Y-90814183D01*
X145130548Y-90851026D01*
X145108963Y-90901270D01*
X145084867Y-90960403D01*
X145059992Y-91023913D01*
X145036070Y-91087289D01*
X145014832Y-91146019D01*
X144998010Y-91195592D01*
X144987335Y-91231496D01*
X144984540Y-91249219D01*
X144984773Y-91249840D01*
X144994244Y-91264327D01*
X145015731Y-91296201D01*
X145046976Y-91342146D01*
X145085720Y-91398842D01*
X145129706Y-91462974D01*
X145142232Y-91481199D01*
X145186897Y-91547271D01*
X145226201Y-91607557D01*
X145258001Y-91658592D01*
X145280158Y-91696917D01*
X145290530Y-91719068D01*
X145291032Y-91721789D01*
X145282318Y-91736093D01*
X145258238Y-91764429D01*
X145221889Y-91803753D01*
X145176366Y-91851018D01*
X145124765Y-91903180D01*
X145070180Y-91957192D01*
X145015707Y-92010010D01*
X144964442Y-92058588D01*
X144919480Y-92099880D01*
X144883917Y-92130842D01*
X144860848Y-92148427D01*
X144854467Y-92151298D01*
X144839612Y-92144535D01*
X144809199Y-92126296D01*
X144768181Y-92099654D01*
X144736622Y-92078209D01*
X144679438Y-92038860D01*
X144611719Y-91992528D01*
X144543793Y-91946270D01*
X144507274Y-91921512D01*
X144383665Y-91837904D01*
X144279904Y-91894007D01*
X144232633Y-91918585D01*
X144192436Y-91937688D01*
X144165239Y-91948584D01*
X144158315Y-91950100D01*
X144149990Y-91938906D01*
X144133567Y-91907274D01*
X144110270Y-91858122D01*
X144081327Y-91794367D01*
X144047963Y-91718928D01*
X144011404Y-91634721D01*
X143972877Y-91544665D01*
X143933607Y-91451678D01*
X143894821Y-91358677D01*
X143857743Y-91268580D01*
X143823602Y-91184305D01*
X143793621Y-91108770D01*
X143769029Y-91044891D01*
X143751049Y-90995588D01*
X143740910Y-90963778D01*
X143739279Y-90952853D01*
X143752204Y-90938918D01*
X143780502Y-90916297D01*
X143818259Y-90889690D01*
X143821428Y-90887585D01*
X143919013Y-90809471D01*
X143997699Y-90718339D01*
X144056804Y-90617102D01*
X144095645Y-90508675D01*
X144113541Y-90395971D01*
X144109810Y-90281905D01*
X144083770Y-90169391D01*
X144034738Y-90061342D01*
X144020313Y-90037702D01*
X143945282Y-89942244D01*
X143856643Y-89865589D01*
X143757462Y-89808137D01*
X143650808Y-89770286D01*
X143539749Y-89752435D01*
X143427352Y-89754982D01*
X143316686Y-89778327D01*
X143210819Y-89822867D01*
X143112818Y-89889002D01*
X143082503Y-89915844D01*
X143005351Y-89999869D01*
X142949131Y-90088323D01*
X142910566Y-90187472D01*
X142889087Y-90285660D01*
X142883785Y-90396054D01*
X142901465Y-90506997D01*
X142940332Y-90614738D01*
X142998590Y-90715526D01*
X143074444Y-90805613D01*
X143166096Y-90881249D01*
X143178141Y-90889221D01*
X143216302Y-90915331D01*
X143245312Y-90937952D01*
X143259181Y-90952396D01*
X143259382Y-90952853D01*
X143256405Y-90968478D01*
X143244602Y-91003939D01*
X143225199Y-91056319D01*
X143199425Y-91122702D01*
X143168504Y-91200171D01*
X143133664Y-91285807D01*
X143096130Y-91376694D01*
X143057130Y-91469916D01*
X143017890Y-91562554D01*
X142979637Y-91651692D01*
X142943596Y-91734412D01*
X142910996Y-91807798D01*
X142883061Y-91868932D01*
X142861018Y-91914898D01*
X142846095Y-91942778D01*
X142840085Y-91950100D01*
X142821722Y-91944398D01*
X142787361Y-91929106D01*
X142742929Y-91906956D01*
X142718496Y-91894007D01*
X142614735Y-91837904D01*
X142491126Y-91921512D01*
X142428027Y-91964344D01*
X142358943Y-92011479D01*
X142294206Y-92055860D01*
X142261779Y-92078209D01*
X142216172Y-92108834D01*
X142177553Y-92133104D01*
X142150961Y-92147944D01*
X142142323Y-92151081D01*
X142129752Y-92142618D01*
X142101929Y-92118993D01*
X142061552Y-92082659D01*
X142011318Y-92036068D01*
X141953925Y-91981674D01*
X141917627Y-91946749D01*
X141854123Y-91884353D01*
X141799240Y-91828545D01*
X141755199Y-91781711D01*
X141724218Y-91746239D01*
X141708515Y-91724518D01*
X141707008Y-91720109D01*
X141713999Y-91703342D01*
X141733319Y-91669439D01*
X141762822Y-91621833D01*
X141800368Y-91563956D01*
X141843813Y-91499241D01*
X141856168Y-91481199D01*
X141901186Y-91415624D01*
X141941573Y-91356585D01*
X141975073Y-91307399D01*
X141999427Y-91271385D01*
X142012377Y-91251859D01*
X142013628Y-91249840D01*
X142011757Y-91234279D01*
X142001826Y-91200066D01*
X141985566Y-91151712D01*
X141964708Y-91093728D01*
X141940986Y-91030627D01*
X141916129Y-90966920D01*
X141891871Y-90907118D01*
X141869942Y-90855733D01*
X141852075Y-90817276D01*
X141840000Y-90796259D01*
X141839142Y-90795251D01*
X141831759Y-90789245D01*
X141819288Y-90783305D01*
X141798993Y-90776817D01*
X141768135Y-90769166D01*
X141723979Y-90759737D01*
X141663787Y-90747916D01*
X141584820Y-90733086D01*
X141484343Y-90714634D01*
X141462588Y-90710667D01*
X141398111Y-90698210D01*
X141341902Y-90686023D01*
X141298926Y-90675283D01*
X141274153Y-90667166D01*
X141270831Y-90665273D01*
X141265357Y-90648495D01*
X141260907Y-90611002D01*
X141257485Y-90557151D01*
X141255094Y-90491301D01*
X141253736Y-90417810D01*
X141253414Y-90341037D01*
X141254132Y-90265340D01*
X141255892Y-90195077D01*
X141258697Y-90134607D01*
X141262551Y-90088287D01*
X141267456Y-90060476D01*
X141270413Y-90054784D01*
X141286876Y-90049043D01*
X141324362Y-90039702D01*
X141379138Y-90027572D01*
X141447468Y-90013464D01*
X141525619Y-89998187D01*
X141568197Y-89990180D01*
X141648984Y-89975078D01*
X141721026Y-89961397D01*
X141780802Y-89949824D01*
X141824792Y-89941044D01*
X141849474Y-89935744D01*
X141853536Y-89934569D01*
X141860402Y-89921322D01*
X141874915Y-89889414D01*
X141895142Y-89843404D01*
X141919147Y-89787849D01*
X141944995Y-89727310D01*
X141970753Y-89666343D01*
X141994486Y-89609508D01*
X142014259Y-89561363D01*
X142028137Y-89526467D01*
X142034187Y-89509378D01*
X142034299Y-89508631D01*
X142027441Y-89495150D01*
X142008215Y-89464127D01*
X141978641Y-89418646D01*
X141940740Y-89361789D01*
X141896533Y-89296640D01*
X141870834Y-89259219D01*
X141824006Y-89190604D01*
X141782414Y-89128309D01*
X141748088Y-89075486D01*
X141723056Y-89035284D01*
X141709348Y-89010857D01*
X141707369Y-89005381D01*
X141715879Y-88992635D01*
X141739406Y-88965420D01*
X141774945Y-88926785D01*
X141819490Y-88879780D01*
X141870036Y-88827452D01*
X141923577Y-88772852D01*
X141977108Y-88719027D01*
X142027624Y-88669027D01*
X142072119Y-88625900D01*
X142107588Y-88592696D01*
X142131026Y-88572463D01*
X142138867Y-88567635D01*
X142151633Y-88574424D01*
X142182169Y-88593499D01*
X142227503Y-88622918D01*
X142284669Y-88660738D01*
X142350697Y-88705018D01*
X142400503Y-88738752D01*
X142652149Y-88909869D01*
X142861912Y-88823398D01*
X143071676Y-88736927D01*
X143128524Y-88435375D01*
X143185373Y-88133823D01*
X143813028Y-88133823D01*
X143869877Y-88435375D01*
X143869877Y-88435375D01*
G37*
X143869877Y-88435375D02*
X143926725Y-88736927D01*
X144346251Y-88909869D01*
X144597897Y-88738752D01*
X144668371Y-88691107D01*
X144732076Y-88648567D01*
X144786039Y-88613072D01*
X144827286Y-88586567D01*
X144852847Y-88570993D01*
X144859808Y-88567635D01*
X144872348Y-88576271D01*
X144899144Y-88600149D01*
X144937193Y-88636216D01*
X144983492Y-88681424D01*
X145035036Y-88732721D01*
X145088822Y-88787058D01*
X145141848Y-88841385D01*
X145191108Y-88892652D01*
X145233600Y-88937808D01*
X145266320Y-88973803D01*
X145286264Y-88997587D01*
X145291032Y-89005547D01*
X145284170Y-89020222D01*
X145264933Y-89052371D01*
X145235343Y-89098849D01*
X145197423Y-89156513D01*
X145153195Y-89222217D01*
X145127567Y-89259693D01*
X145080854Y-89328125D01*
X145039345Y-89389877D01*
X145005053Y-89441876D01*
X144979993Y-89481049D01*
X144966177Y-89504322D01*
X144964101Y-89509212D01*
X144968808Y-89523112D01*
X144981636Y-89555507D01*
X145000651Y-89601842D01*
X145023916Y-89657563D01*
X145049497Y-89718115D01*
X145075458Y-89778943D01*
X145099863Y-89835493D01*
X145120776Y-89883209D01*
X145136262Y-89917538D01*
X145144385Y-89933925D01*
X145144865Y-89934569D01*
X145157620Y-89937698D01*
X145191590Y-89944678D01*
X145243253Y-89954824D01*
X145309089Y-89967449D01*
X145385577Y-89981866D01*
X145430203Y-89990180D01*
X145511934Y-90005741D01*
X145585756Y-90020549D01*
X145647934Y-90033793D01*
X145694735Y-90044662D01*
X145722422Y-90052346D01*
X145727987Y-90054784D01*
X145733439Y-90071287D01*
X145737837Y-90108557D01*
X145741185Y-90162237D01*
X145743487Y-90227969D01*
X145744745Y-90301394D01*
X145744961Y-90378153D01*
X145744140Y-90453889D01*
X145742284Y-90524243D01*
X145739395Y-90584857D01*
X145735478Y-90631373D01*
X145730535Y-90659432D01*
X145727570Y-90665273D01*
X145709847Y-90672274D01*
X145672294Y-90682284D01*
X145619877Y-90694126D01*
X145557565Y-90706624D01*
X145535813Y-90710667D01*
X145430937Y-90729877D01*
X145348093Y-90745348D01*
X145284543Y-90757694D01*
X145237550Y-90767530D01*
X145204376Y-90775471D01*
X145182284Y-90782133D01*
X145168537Y-90788130D01*
X145160397Y-90794076D01*
X145159258Y-90795251D01*
X145147890Y-90814183D01*
X145130548Y-90851026D01*
X145108963Y-90901270D01*
X145084867Y-90960403D01*
X145059992Y-91023913D01*
X145036070Y-91087289D01*
X145014832Y-91146019D01*
X144998010Y-91195592D01*
X144987335Y-91231496D01*
X144984540Y-91249219D01*
X144984773Y-91249840D01*
X144994244Y-91264327D01*
X145015731Y-91296201D01*
X145046976Y-91342146D01*
X145085720Y-91398842D01*
X145129706Y-91462974D01*
X145142232Y-91481199D01*
X145186897Y-91547271D01*
X145226201Y-91607557D01*
X145258001Y-91658592D01*
X145280158Y-91696917D01*
X145290530Y-91719068D01*
X145291032Y-91721789D01*
X145282318Y-91736093D01*
X145258238Y-91764429D01*
X145221889Y-91803753D01*
X145176366Y-91851018D01*
X145124765Y-91903180D01*
X145070180Y-91957192D01*
X145015707Y-92010010D01*
X144964442Y-92058588D01*
X144919480Y-92099880D01*
X144883917Y-92130842D01*
X144860848Y-92148427D01*
X144854467Y-92151298D01*
X144839612Y-92144535D01*
X144809199Y-92126296D01*
X144768181Y-92099654D01*
X144736622Y-92078209D01*
X144679438Y-92038860D01*
X144611719Y-91992528D01*
X144543793Y-91946270D01*
X144507274Y-91921512D01*
X144383665Y-91837904D01*
X144279904Y-91894007D01*
X144232633Y-91918585D01*
X144192436Y-91937688D01*
X144165239Y-91948584D01*
X144158315Y-91950100D01*
X144149990Y-91938906D01*
X144133567Y-91907274D01*
X144110270Y-91858122D01*
X144081327Y-91794367D01*
X144047963Y-91718928D01*
X144011404Y-91634721D01*
X143972877Y-91544665D01*
X143933607Y-91451678D01*
X143894821Y-91358677D01*
X143857743Y-91268580D01*
X143823602Y-91184305D01*
X143793621Y-91108770D01*
X143769029Y-91044891D01*
X143751049Y-90995588D01*
X143740910Y-90963778D01*
X143739279Y-90952853D01*
X143752204Y-90938918D01*
X143780502Y-90916297D01*
X143818259Y-90889690D01*
X143821428Y-90887585D01*
X143919013Y-90809471D01*
X143997699Y-90718339D01*
X144056804Y-90617102D01*
X144095645Y-90508675D01*
X144113541Y-90395971D01*
X144109810Y-90281905D01*
X144083770Y-90169391D01*
X144034738Y-90061342D01*
X144020313Y-90037702D01*
X143945282Y-89942244D01*
X143856643Y-89865589D01*
X143757462Y-89808137D01*
X143650808Y-89770286D01*
X143539749Y-89752435D01*
X143427352Y-89754982D01*
X143316686Y-89778327D01*
X143210819Y-89822867D01*
X143112818Y-89889002D01*
X143082503Y-89915844D01*
X143005351Y-89999869D01*
X142949131Y-90088323D01*
X142910566Y-90187472D01*
X142889087Y-90285660D01*
X142883785Y-90396054D01*
X142901465Y-90506997D01*
X142940332Y-90614738D01*
X142998590Y-90715526D01*
X143074444Y-90805613D01*
X143166096Y-90881249D01*
X143178141Y-90889221D01*
X143216302Y-90915331D01*
X143245312Y-90937952D01*
X143259181Y-90952396D01*
X143259382Y-90952853D01*
X143256405Y-90968478D01*
X143244602Y-91003939D01*
X143225199Y-91056319D01*
X143199425Y-91122702D01*
X143168504Y-91200171D01*
X143133664Y-91285807D01*
X143096130Y-91376694D01*
X143057130Y-91469916D01*
X143017890Y-91562554D01*
X142979637Y-91651692D01*
X142943596Y-91734412D01*
X142910996Y-91807798D01*
X142883061Y-91868932D01*
X142861018Y-91914898D01*
X142846095Y-91942778D01*
X142840085Y-91950100D01*
X142821722Y-91944398D01*
X142787361Y-91929106D01*
X142742929Y-91906956D01*
X142718496Y-91894007D01*
X142614735Y-91837904D01*
X142491126Y-91921512D01*
X142428027Y-91964344D01*
X142358943Y-92011479D01*
X142294206Y-92055860D01*
X142261779Y-92078209D01*
X142216172Y-92108834D01*
X142177553Y-92133104D01*
X142150961Y-92147944D01*
X142142323Y-92151081D01*
X142129752Y-92142618D01*
X142101929Y-92118993D01*
X142061552Y-92082659D01*
X142011318Y-92036068D01*
X141953925Y-91981674D01*
X141917627Y-91946749D01*
X141854123Y-91884353D01*
X141799240Y-91828545D01*
X141755199Y-91781711D01*
X141724218Y-91746239D01*
X141708515Y-91724518D01*
X141707008Y-91720109D01*
X141713999Y-91703342D01*
X141733319Y-91669439D01*
X141762822Y-91621833D01*
X141800368Y-91563956D01*
X141843813Y-91499241D01*
X141856168Y-91481199D01*
X141901186Y-91415624D01*
X141941573Y-91356585D01*
X141975073Y-91307399D01*
X141999427Y-91271385D01*
X142012377Y-91251859D01*
X142013628Y-91249840D01*
X142011757Y-91234279D01*
X142001826Y-91200066D01*
X141985566Y-91151712D01*
X141964708Y-91093728D01*
X141940986Y-91030627D01*
X141916129Y-90966920D01*
X141891871Y-90907118D01*
X141869942Y-90855733D01*
X141852075Y-90817276D01*
X141840000Y-90796259D01*
X141839142Y-90795251D01*
X141831759Y-90789245D01*
X141819288Y-90783305D01*
X141798993Y-90776817D01*
X141768135Y-90769166D01*
X141723979Y-90759737D01*
X141663787Y-90747916D01*
X141584820Y-90733086D01*
X141484343Y-90714634D01*
X141462588Y-90710667D01*
X141398111Y-90698210D01*
X141341902Y-90686023D01*
X141298926Y-90675283D01*
X141274153Y-90667166D01*
X141270831Y-90665273D01*
X141265357Y-90648495D01*
X141260907Y-90611002D01*
X141257485Y-90557151D01*
X141255094Y-90491301D01*
X141253736Y-90417810D01*
X141253414Y-90341037D01*
X141254132Y-90265340D01*
X141255892Y-90195077D01*
X141258697Y-90134607D01*
X141262551Y-90088287D01*
X141267456Y-90060476D01*
X141270413Y-90054784D01*
X141286876Y-90049043D01*
X141324362Y-90039702D01*
X141379138Y-90027572D01*
X141447468Y-90013464D01*
X141525619Y-89998187D01*
X141568197Y-89990180D01*
X141648984Y-89975078D01*
X141721026Y-89961397D01*
X141780802Y-89949824D01*
X141824792Y-89941044D01*
X141849474Y-89935744D01*
X141853536Y-89934569D01*
X141860402Y-89921322D01*
X141874915Y-89889414D01*
X141895142Y-89843404D01*
X141919147Y-89787849D01*
X141944995Y-89727310D01*
X141970753Y-89666343D01*
X141994486Y-89609508D01*
X142014259Y-89561363D01*
X142028137Y-89526467D01*
X142034187Y-89509378D01*
X142034299Y-89508631D01*
X142027441Y-89495150D01*
X142008215Y-89464127D01*
X141978641Y-89418646D01*
X141940740Y-89361789D01*
X141896533Y-89296640D01*
X141870834Y-89259219D01*
X141824006Y-89190604D01*
X141782414Y-89128309D01*
X141748088Y-89075486D01*
X141723056Y-89035284D01*
X141709348Y-89010857D01*
X141707369Y-89005381D01*
X141715879Y-88992635D01*
X141739406Y-88965420D01*
X141774945Y-88926785D01*
X141819490Y-88879780D01*
X141870036Y-88827452D01*
X141923577Y-88772852D01*
X141977108Y-88719027D01*
X142027624Y-88669027D01*
X142072119Y-88625900D01*
X142107588Y-88592696D01*
X142131026Y-88572463D01*
X142138867Y-88567635D01*
X142151633Y-88574424D01*
X142182169Y-88593499D01*
X142227503Y-88622918D01*
X142284669Y-88660738D01*
X142350697Y-88705018D01*
X142400503Y-88738752D01*
X142652149Y-88909869D01*
X142861912Y-88823398D01*
X143071676Y-88736927D01*
X143128524Y-88435375D01*
X143185373Y-88133823D01*
X143813028Y-88133823D01*
X143869877Y-88435375D01*
G36*
X145292373Y-92603387D02*
X145335624Y-92616602D01*
X145363471Y-92633298D01*
X145372542Y-92646502D01*
X145370045Y-92662154D01*
X145353844Y-92686742D01*
X145340145Y-92704157D01*
X145311905Y-92735640D01*
X145290688Y-92748886D01*
X145272601Y-92748021D01*
X145218948Y-92734367D01*
X145179543Y-92734987D01*
X145147545Y-92750461D01*
X145136803Y-92759518D01*
X145102418Y-92791384D01*
X145102418Y-93207536D01*
X144964101Y-93207536D01*
X144964101Y-92603971D01*
X145033260Y-92603971D01*
X145074782Y-92605613D01*
X145096204Y-92611444D01*
X145102415Y-92622818D01*
X145102418Y-92623155D01*
X145105352Y-92635070D01*
X145118617Y-92633516D01*
X145136997Y-92624920D01*
X145174959Y-92608925D01*
X145205785Y-92599302D01*
X145245449Y-92596835D01*
X145292373Y-92603387D01*
X145292373Y-92603387D01*
G37*
X145292373Y-92603387D02*
X145335624Y-92616602D01*
X145363471Y-92633298D01*
X145372542Y-92646502D01*
X145370045Y-92662154D01*
X145353844Y-92686742D01*
X145340145Y-92704157D01*
X145311905Y-92735640D01*
X145290688Y-92748886D01*
X145272601Y-92748021D01*
X145218948Y-92734367D01*
X145179543Y-92734987D01*
X145147545Y-92750461D01*
X145136803Y-92759518D01*
X145102418Y-92791384D01*
X145102418Y-93207536D01*
X144964101Y-93207536D01*
X144964101Y-92603971D01*
X145033260Y-92603971D01*
X145074782Y-92605613D01*
X145096204Y-92611444D01*
X145102415Y-92622818D01*
X145102418Y-92623155D01*
X145105352Y-92635070D01*
X145118617Y-92633516D01*
X145136997Y-92624920D01*
X145174959Y-92608925D01*
X145205785Y-92599302D01*
X145245449Y-92596835D01*
X145292373Y-92603387D01*
G36*
X142738901Y-92614359D02*
X142770196Y-92629307D01*
X142800504Y-92650898D01*
X142823595Y-92675748D01*
X142840413Y-92707444D01*
X142851907Y-92749571D01*
X142859022Y-92805715D01*
X142862706Y-92879463D01*
X142863905Y-92974401D01*
X142863924Y-92984342D01*
X142864200Y-93207536D01*
X142725883Y-93207536D01*
X142725883Y-93001775D01*
X142725785Y-92925546D01*
X142725104Y-92870296D01*
X142723262Y-92831858D01*
X142719680Y-92806063D01*
X142713781Y-92788741D01*
X142704986Y-92775725D01*
X142692733Y-92762864D01*
X142649866Y-92735230D01*
X142603070Y-92730102D01*
X142558489Y-92747574D01*
X142542985Y-92760578D01*
X142531603Y-92772804D01*
X142523432Y-92785897D01*
X142517939Y-92803972D01*
X142514593Y-92831144D01*
X142512862Y-92871527D01*
X142512216Y-92929236D01*
X142512121Y-92999489D01*
X142512121Y-93207536D01*
X142373804Y-93207536D01*
X142373804Y-92603971D01*
X142442963Y-92603971D01*
X142484485Y-92605613D01*
X142505907Y-92611444D01*
X142512118Y-92622818D01*
X142512121Y-92623155D01*
X142515003Y-92634295D01*
X142527714Y-92633031D01*
X142552987Y-92620791D01*
X142610308Y-92602781D01*
X142675876Y-92600778D01*
X142738901Y-92614359D01*
X142738901Y-92614359D01*
G37*
X142738901Y-92614359D02*
X142770196Y-92629307D01*
X142800504Y-92650898D01*
X142823595Y-92675748D01*
X142840413Y-92707444D01*
X142851907Y-92749571D01*
X142859022Y-92805715D01*
X142862706Y-92879463D01*
X142863905Y-92974401D01*
X142863924Y-92984342D01*
X142864200Y-93207536D01*
X142725883Y-93207536D01*
X142725883Y-93001775D01*
X142725785Y-92925546D01*
X142725104Y-92870296D01*
X142723262Y-92831858D01*
X142719680Y-92806063D01*
X142713781Y-92788741D01*
X142704986Y-92775725D01*
X142692733Y-92762864D01*
X142649866Y-92735230D01*
X142603070Y-92730102D01*
X142558489Y-92747574D01*
X142542985Y-92760578D01*
X142531603Y-92772804D01*
X142523432Y-92785897D01*
X142517939Y-92803972D01*
X142514593Y-92831144D01*
X142512862Y-92871527D01*
X142512216Y-92929236D01*
X142512121Y-92999489D01*
X142512121Y-93207536D01*
X142373804Y-93207536D01*
X142373804Y-92603971D01*
X142442963Y-92603971D01*
X142484485Y-92605613D01*
X142505907Y-92611444D01*
X142512118Y-92622818D01*
X142512121Y-92623155D01*
X142515003Y-92634295D01*
X142527714Y-92633031D01*
X142552987Y-92620791D01*
X142610308Y-92602781D01*
X142675876Y-92600778D01*
X142738901Y-92614359D01*
G36*
X146170811Y-92601814D02*
X146203009Y-92609636D01*
X146264738Y-92638278D01*
X146317523Y-92682024D01*
X146354054Y-92734474D01*
X146359073Y-92746250D01*
X146365958Y-92777097D01*
X146370777Y-92822728D01*
X146372418Y-92868849D01*
X146372418Y-92956050D01*
X146190091Y-92956050D01*
X146114892Y-92956335D01*
X146061916Y-92958061D01*
X146028238Y-92962538D01*
X146010933Y-92971077D01*
X146007076Y-92984987D01*
X146013742Y-93005579D01*
X146025683Y-93029672D01*
X146058993Y-93069882D01*
X146105281Y-93089915D01*
X146161857Y-93089262D01*
X146225944Y-93067458D01*
X146281330Y-93040550D01*
X146327288Y-93076889D01*
X146373246Y-93113229D01*
X146330009Y-93153176D01*
X146272287Y-93190920D01*
X146201299Y-93213677D01*
X146124942Y-93220045D01*
X146051112Y-93208625D01*
X146039200Y-93204750D01*
X145974312Y-93170863D01*
X145926043Y-93120343D01*
X145893378Y-93051682D01*
X145875298Y-92963371D01*
X145875088Y-92961478D01*
X145873469Y-92865235D01*
X145880013Y-92830899D01*
X146007765Y-92830899D01*
X146019497Y-92836179D01*
X146051351Y-92840224D01*
X146098310Y-92842533D01*
X146128067Y-92842882D01*
X146183561Y-92842663D01*
X146218259Y-92841273D01*
X146236514Y-92837608D01*
X146242679Y-92830567D01*
X146241108Y-92819047D01*
X146239791Y-92814590D01*
X146217295Y-92772712D01*
X146181916Y-92738961D01*
X146150693Y-92724130D01*
X146109214Y-92725025D01*
X146067182Y-92743521D01*
X146031925Y-92774143D01*
X146010767Y-92811419D01*
X146007765Y-92830899D01*
X145880013Y-92830899D01*
X145889603Y-92780586D01*
X145921611Y-92709548D01*
X145967614Y-92654136D01*
X146025734Y-92616366D01*
X146094093Y-92598253D01*
X146170811Y-92601814D01*
X146170811Y-92601814D01*
G37*
X146170811Y-92601814D02*
X146203009Y-92609636D01*
X146264738Y-92638278D01*
X146317523Y-92682024D01*
X146354054Y-92734474D01*
X146359073Y-92746250D01*
X146365958Y-92777097D01*
X146370777Y-92822728D01*
X146372418Y-92868849D01*
X146372418Y-92956050D01*
X146190091Y-92956050D01*
X146114892Y-92956335D01*
X146061916Y-92958061D01*
X146028238Y-92962538D01*
X146010933Y-92971077D01*
X146007076Y-92984987D01*
X146013742Y-93005579D01*
X146025683Y-93029672D01*
X146058993Y-93069882D01*
X146105281Y-93089915D01*
X146161857Y-93089262D01*
X146225944Y-93067458D01*
X146281330Y-93040550D01*
X146327288Y-93076889D01*
X146373246Y-93113229D01*
X146330009Y-93153176D01*
X146272287Y-93190920D01*
X146201299Y-93213677D01*
X146124942Y-93220045D01*
X146051112Y-93208625D01*
X146039200Y-93204750D01*
X145974312Y-93170863D01*
X145926043Y-93120343D01*
X145893378Y-93051682D01*
X145875298Y-92963371D01*
X145875088Y-92961478D01*
X145873469Y-92865235D01*
X145880013Y-92830899D01*
X146007765Y-92830899D01*
X146019497Y-92836179D01*
X146051351Y-92840224D01*
X146098310Y-92842533D01*
X146128067Y-92842882D01*
X146183561Y-92842663D01*
X146218259Y-92841273D01*
X146236514Y-92837608D01*
X146242679Y-92830567D01*
X146241108Y-92819047D01*
X146239791Y-92814590D01*
X146217295Y-92772712D01*
X146181916Y-92738961D01*
X146150693Y-92724130D01*
X146109214Y-92725025D01*
X146067182Y-92743521D01*
X146031925Y-92774143D01*
X146010767Y-92811419D01*
X146007765Y-92830899D01*
X145880013Y-92830899D01*
X145889603Y-92780586D01*
X145921611Y-92709548D01*
X145967614Y-92654136D01*
X146025734Y-92616366D01*
X146094093Y-92598253D01*
X146170811Y-92601814D01*
G36*
X145710139Y-92609237D02*
X145782993Y-92640187D01*
X145805940Y-92655252D01*
X145835267Y-92678405D01*
X145853677Y-92696610D01*
X145856874Y-92702540D01*
X145847848Y-92715697D01*
X145824750Y-92738024D01*
X145806257Y-92753607D01*
X145755641Y-92794283D01*
X145715673Y-92760652D01*
X145684787Y-92738941D01*
X145654672Y-92731447D01*
X145620205Y-92733277D01*
X145565474Y-92746885D01*
X145527799Y-92775129D01*
X145504904Y-92820790D01*
X145494510Y-92886646D01*
X145494508Y-92886688D01*
X145495407Y-92960296D01*
X145509376Y-93014303D01*
X145537241Y-93051073D01*
X145556238Y-93063525D01*
X145606689Y-93079030D01*
X145660576Y-93079040D01*
X145707459Y-93063995D01*
X145718557Y-93056644D01*
X145746389Y-93037868D01*
X145768149Y-93034791D01*
X145791617Y-93048766D01*
X145817562Y-93073867D01*
X145858629Y-93116237D01*
X145813034Y-93153821D01*
X145742587Y-93196239D01*
X145663146Y-93217142D01*
X145580128Y-93215629D01*
X145525607Y-93201768D01*
X145461883Y-93167492D01*
X145410918Y-93113569D01*
X145387764Y-93075506D01*
X145369012Y-93020893D01*
X145359628Y-92951726D01*
X145359556Y-92876764D01*
X145368737Y-92804766D01*
X145387112Y-92744494D01*
X145390006Y-92738315D01*
X145432865Y-92677708D01*
X145490892Y-92633581D01*
X145559504Y-92606850D01*
X145634114Y-92598430D01*
X145710139Y-92609237D01*
X145710139Y-92609237D01*
G37*
X145710139Y-92609237D02*
X145782993Y-92640187D01*
X145805940Y-92655252D01*
X145835267Y-92678405D01*
X145853677Y-92696610D01*
X145856874Y-92702540D01*
X145847848Y-92715697D01*
X145824750Y-92738024D01*
X145806257Y-92753607D01*
X145755641Y-92794283D01*
X145715673Y-92760652D01*
X145684787Y-92738941D01*
X145654672Y-92731447D01*
X145620205Y-92733277D01*
X145565474Y-92746885D01*
X145527799Y-92775129D01*
X145504904Y-92820790D01*
X145494510Y-92886646D01*
X145494508Y-92886688D01*
X145495407Y-92960296D01*
X145509376Y-93014303D01*
X145537241Y-93051073D01*
X145556238Y-93063525D01*
X145606689Y-93079030D01*
X145660576Y-93079040D01*
X145707459Y-93063995D01*
X145718557Y-93056644D01*
X145746389Y-93037868D01*
X145768149Y-93034791D01*
X145791617Y-93048766D01*
X145817562Y-93073867D01*
X145858629Y-93116237D01*
X145813034Y-93153821D01*
X145742587Y-93196239D01*
X145663146Y-93217142D01*
X145580128Y-93215629D01*
X145525607Y-93201768D01*
X145461883Y-93167492D01*
X145410918Y-93113569D01*
X145387764Y-93075506D01*
X145369012Y-93020893D01*
X145359628Y-92951726D01*
X145359556Y-92876764D01*
X145368737Y-92804766D01*
X145387112Y-92744494D01*
X145390006Y-92738315D01*
X145432865Y-92677708D01*
X145490892Y-92633581D01*
X145559504Y-92606850D01*
X145634114Y-92598430D01*
X145710139Y-92609237D01*
G36*
X144486280Y-92799699D02*
X144487468Y-92891920D01*
X144491810Y-92961967D01*
X144500471Y-93012738D01*
X144514617Y-93047129D01*
X144535413Y-93068036D01*
X144564023Y-93078357D01*
X144599448Y-93080993D01*
X144636549Y-93078039D01*
X144664731Y-93067246D01*
X144685156Y-93045717D01*
X144698992Y-93010556D01*
X144707404Y-92958867D01*
X144711556Y-92887751D01*
X144712616Y-92799699D01*
X144712616Y-92603971D01*
X144850933Y-92603971D01*
X144850933Y-93207536D01*
X144781775Y-93207536D01*
X144740083Y-93205846D01*
X144718614Y-93199913D01*
X144712616Y-93188650D01*
X144709004Y-93178618D01*
X144694627Y-93180740D01*
X144665649Y-93194937D01*
X144599232Y-93216837D01*
X144528788Y-93215285D01*
X144461290Y-93191504D01*
X144429146Y-93172719D01*
X144404628Y-93152379D01*
X144386717Y-93126930D01*
X144374392Y-93092815D01*
X144366636Y-93046478D01*
X144362429Y-92984364D01*
X144360753Y-92902918D01*
X144360537Y-92839935D01*
X144360537Y-92603971D01*
X144486280Y-92603971D01*
X144486280Y-92799699D01*
X144486280Y-92799699D01*
G37*
X144486280Y-92799699D02*
X144487468Y-92891920D01*
X144491810Y-92961967D01*
X144500471Y-93012738D01*
X144514617Y-93047129D01*
X144535413Y-93068036D01*
X144564023Y-93078357D01*
X144599448Y-93080993D01*
X144636549Y-93078039D01*
X144664731Y-93067246D01*
X144685156Y-93045717D01*
X144698992Y-93010556D01*
X144707404Y-92958867D01*
X144711556Y-92887751D01*
X144712616Y-92799699D01*
X144712616Y-92603971D01*
X144850933Y-92603971D01*
X144850933Y-93207536D01*
X144781775Y-93207536D01*
X144740083Y-93205846D01*
X144718614Y-93199913D01*
X144712616Y-93188650D01*
X144709004Y-93178618D01*
X144694627Y-93180740D01*
X144665649Y-93194937D01*
X144599232Y-93216837D01*
X144528788Y-93215285D01*
X144461290Y-93191504D01*
X144429146Y-93172719D01*
X144404628Y-93152379D01*
X144386717Y-93126930D01*
X144374392Y-93092815D01*
X144366636Y-93046478D01*
X144362429Y-92984364D01*
X144360753Y-92902918D01*
X144360537Y-92839935D01*
X144360537Y-92603971D01*
X144486280Y-92603971D01*
X144486280Y-92799699D01*
G36*
X144103675Y-92611412D02*
X144167276Y-92646049D01*
X144217036Y-92700729D01*
X144240481Y-92745199D01*
X144250547Y-92784478D01*
X144257069Y-92840473D01*
X144259864Y-92904978D01*
X144258749Y-92969786D01*
X144253539Y-93026691D01*
X144247454Y-93057084D01*
X144226927Y-93098663D01*
X144191376Y-93142825D01*
X144148532Y-93181444D01*
X144106124Y-93206391D01*
X144105090Y-93206787D01*
X144052466Y-93217688D01*
X143990101Y-93217958D01*
X143930837Y-93208033D01*
X143907953Y-93200079D01*
X143849015Y-93166657D01*
X143806803Y-93122868D01*
X143779069Y-93064895D01*
X143763564Y-92988922D01*
X143760056Y-92949128D01*
X143760503Y-92899123D01*
X143895289Y-92899123D01*
X143899830Y-92972089D01*
X143912899Y-93027691D01*
X143933669Y-93063218D01*
X143948465Y-93073377D01*
X143986377Y-93080461D01*
X144031440Y-93078364D01*
X144070400Y-93068169D01*
X144080617Y-93062561D01*
X144107572Y-93029895D01*
X144125364Y-92979902D01*
X144132937Y-92919062D01*
X144129238Y-92853854D01*
X144120970Y-92814610D01*
X144097233Y-92769162D01*
X144059762Y-92740753D01*
X144014633Y-92730930D01*
X143967924Y-92741244D01*
X143932045Y-92766469D01*
X143913190Y-92787282D01*
X143902185Y-92807796D01*
X143896939Y-92835560D01*
X143895362Y-92878119D01*
X143895289Y-92899123D01*
X143760503Y-92899123D01*
X143761007Y-92842937D01*
X143778301Y-92755858D01*
X143811942Y-92687887D01*
X143861931Y-92639021D01*
X143928269Y-92609256D01*
X143942514Y-92605805D01*
X144028123Y-92597702D01*
X144103675Y-92611412D01*
X144103675Y-92611412D01*
G37*
X144103675Y-92611412D02*
X144167276Y-92646049D01*
X144217036Y-92700729D01*
X144240481Y-92745199D01*
X144250547Y-92784478D01*
X144257069Y-92840473D01*
X144259864Y-92904978D01*
X144258749Y-92969786D01*
X144253539Y-93026691D01*
X144247454Y-93057084D01*
X144226927Y-93098663D01*
X144191376Y-93142825D01*
X144148532Y-93181444D01*
X144106124Y-93206391D01*
X144105090Y-93206787D01*
X144052466Y-93217688D01*
X143990101Y-93217958D01*
X143930837Y-93208033D01*
X143907953Y-93200079D01*
X143849015Y-93166657D01*
X143806803Y-93122868D01*
X143779069Y-93064895D01*
X143763564Y-92988922D01*
X143760056Y-92949128D01*
X143760503Y-92899123D01*
X143895289Y-92899123D01*
X143899830Y-92972089D01*
X143912899Y-93027691D01*
X143933669Y-93063218D01*
X143948465Y-93073377D01*
X143986377Y-93080461D01*
X144031440Y-93078364D01*
X144070400Y-93068169D01*
X144080617Y-93062561D01*
X144107572Y-93029895D01*
X144125364Y-92979902D01*
X144132937Y-92919062D01*
X144129238Y-92853854D01*
X144120970Y-92814610D01*
X144097233Y-92769162D01*
X144059762Y-92740753D01*
X144014633Y-92730930D01*
X143967924Y-92741244D01*
X143932045Y-92766469D01*
X143913190Y-92787282D01*
X143902185Y-92807796D01*
X143896939Y-92835560D01*
X143895362Y-92878119D01*
X143895289Y-92899123D01*
X143760503Y-92899123D01*
X143761007Y-92842937D01*
X143778301Y-92755858D01*
X143811942Y-92687887D01*
X143861931Y-92639021D01*
X143928269Y-92609256D01*
X143942514Y-92605805D01*
X144028123Y-92597702D01*
X144103675Y-92611412D01*
G36*
X143506930Y-92601809D02*
X143554547Y-92610839D01*
X143603947Y-92629727D01*
X143609225Y-92632134D01*
X143646687Y-92651833D01*
X143672630Y-92670138D01*
X143681016Y-92681865D01*
X143673030Y-92700989D01*
X143653633Y-92729207D01*
X143645023Y-92739741D01*
X143609541Y-92781204D01*
X143563798Y-92754215D01*
X143520263Y-92736235D01*
X143469963Y-92726624D01*
X143421725Y-92726017D01*
X143384380Y-92735048D01*
X143375418Y-92740684D01*
X143358350Y-92766528D01*
X143356276Y-92796298D01*
X143369047Y-92819554D01*
X143376601Y-92824065D01*
X143399238Y-92829666D01*
X143439028Y-92836249D01*
X143488079Y-92842540D01*
X143497128Y-92843527D01*
X143575909Y-92857155D01*
X143633049Y-92880303D01*
X143670943Y-92915109D01*
X143691992Y-92963711D01*
X143698548Y-93023075D01*
X143689490Y-93090555D01*
X143660077Y-93143545D01*
X143610191Y-93182140D01*
X143539713Y-93206438D01*
X143461478Y-93216024D01*
X143397679Y-93215909D01*
X143345929Y-93207202D01*
X143310586Y-93195182D01*
X143265930Y-93174237D01*
X143224660Y-93149931D01*
X143209992Y-93139233D01*
X143172270Y-93108441D01*
X143217765Y-93062406D01*
X143263260Y-93016370D01*
X143314985Y-93050600D01*
X143366865Y-93076309D01*
X143422264Y-93089756D01*
X143475518Y-93091175D01*
X143520962Y-93080800D01*
X143552929Y-93058864D01*
X143563251Y-93040355D01*
X143561702Y-93010671D01*
X143536053Y-92987972D01*
X143486373Y-92972297D01*
X143431944Y-92965052D01*
X143348177Y-92951230D01*
X143285946Y-92925153D01*
X143244420Y-92886056D01*
X143222766Y-92833177D01*
X143219766Y-92770483D01*
X143234584Y-92704999D01*
X143268367Y-92655501D01*
X143321418Y-92621765D01*
X143394039Y-92603564D01*
X143447841Y-92599996D01*
X143506930Y-92601809D01*
X143506930Y-92601809D01*
G37*
X143506930Y-92601809D02*
X143554547Y-92610839D01*
X143603947Y-92629727D01*
X143609225Y-92632134D01*
X143646687Y-92651833D01*
X143672630Y-92670138D01*
X143681016Y-92681865D01*
X143673030Y-92700989D01*
X143653633Y-92729207D01*
X143645023Y-92739741D01*
X143609541Y-92781204D01*
X143563798Y-92754215D01*
X143520263Y-92736235D01*
X143469963Y-92726624D01*
X143421725Y-92726017D01*
X143384380Y-92735048D01*
X143375418Y-92740684D01*
X143358350Y-92766528D01*
X143356276Y-92796298D01*
X143369047Y-92819554D01*
X143376601Y-92824065D01*
X143399238Y-92829666D01*
X143439028Y-92836249D01*
X143488079Y-92842540D01*
X143497128Y-92843527D01*
X143575909Y-92857155D01*
X143633049Y-92880303D01*
X143670943Y-92915109D01*
X143691992Y-92963711D01*
X143698548Y-93023075D01*
X143689490Y-93090555D01*
X143660077Y-93143545D01*
X143610191Y-93182140D01*
X143539713Y-93206438D01*
X143461478Y-93216024D01*
X143397679Y-93215909D01*
X143345929Y-93207202D01*
X143310586Y-93195182D01*
X143265930Y-93174237D01*
X143224660Y-93149931D01*
X143209992Y-93139233D01*
X143172270Y-93108441D01*
X143217765Y-93062406D01*
X143263260Y-93016370D01*
X143314985Y-93050600D01*
X143366865Y-93076309D01*
X143422264Y-93089756D01*
X143475518Y-93091175D01*
X143520962Y-93080800D01*
X143552929Y-93058864D01*
X143563251Y-93040355D01*
X143561702Y-93010671D01*
X143536053Y-92987972D01*
X143486373Y-92972297D01*
X143431944Y-92965052D01*
X143348177Y-92951230D01*
X143285946Y-92925153D01*
X143244420Y-92886056D01*
X143222766Y-92833177D01*
X143219766Y-92770483D01*
X143234584Y-92704999D01*
X143268367Y-92655501D01*
X143321418Y-92621765D01*
X143394039Y-92603564D01*
X143447841Y-92599996D01*
X143506930Y-92601809D01*
G36*
X142136214Y-92617971D02*
X142148745Y-92623871D01*
X142192114Y-92655640D01*
X142233123Y-92702003D01*
X142263745Y-92753053D01*
X142272454Y-92776523D01*
X142280401Y-92818448D01*
X142285139Y-92869114D01*
X142285714Y-92890036D01*
X142285784Y-92956050D01*
X141905830Y-92956050D01*
X141913930Y-92990630D01*
X141933809Y-93031527D01*
X141968566Y-93066871D01*
X142009915Y-93089639D01*
X142036264Y-93094367D01*
X142071997Y-93088630D01*
X142114631Y-93074239D01*
X142129114Y-93067619D01*
X142182673Y-93040870D01*
X142228380Y-93075733D01*
X142254755Y-93099312D01*
X142268789Y-93118774D01*
X142269499Y-93124486D01*
X142256962Y-93138330D01*
X142229485Y-93159369D01*
X142204547Y-93175782D01*
X142137249Y-93205287D01*
X142061803Y-93218641D01*
X141987025Y-93215169D01*
X141927418Y-93197020D01*
X141865972Y-93158141D01*
X141822305Y-93106952D01*
X141794987Y-93040724D01*
X141782591Y-92956728D01*
X141781492Y-92918293D01*
X141785891Y-92830218D01*
X141786431Y-92827656D01*
X141912331Y-92827656D01*
X141915798Y-92835915D01*
X141930050Y-92840470D01*
X141959443Y-92842422D01*
X142008338Y-92842874D01*
X142027165Y-92842882D01*
X142084446Y-92842200D01*
X142120772Y-92839721D01*
X142140309Y-92834800D01*
X142147223Y-92826791D01*
X142147468Y-92824219D01*
X142139577Y-92803780D01*
X142119828Y-92775146D01*
X142111338Y-92765120D01*
X142079819Y-92736765D01*
X142046964Y-92725616D01*
X142029262Y-92724684D01*
X141981374Y-92736338D01*
X141941214Y-92767642D01*
X141915740Y-92813109D01*
X141915288Y-92814590D01*
X141912331Y-92827656D01*
X141786431Y-92827656D01*
X141800521Y-92760867D01*
X141826875Y-92705382D01*
X141859106Y-92665996D01*
X141918696Y-92623288D01*
X141988745Y-92600466D01*
X142063252Y-92598403D01*
X142136214Y-92617971D01*
X142136214Y-92617971D01*
G37*
X142136214Y-92617971D02*
X142148745Y-92623871D01*
X142192114Y-92655640D01*
X142233123Y-92702003D01*
X142263745Y-92753053D01*
X142272454Y-92776523D01*
X142280401Y-92818448D01*
X142285139Y-92869114D01*
X142285714Y-92890036D01*
X142285784Y-92956050D01*
X141905830Y-92956050D01*
X141913930Y-92990630D01*
X141933809Y-93031527D01*
X141968566Y-93066871D01*
X142009915Y-93089639D01*
X142036264Y-93094367D01*
X142071997Y-93088630D01*
X142114631Y-93074239D01*
X142129114Y-93067619D01*
X142182673Y-93040870D01*
X142228380Y-93075733D01*
X142254755Y-93099312D01*
X142268789Y-93118774D01*
X142269499Y-93124486D01*
X142256962Y-93138330D01*
X142229485Y-93159369D01*
X142204547Y-93175782D01*
X142137249Y-93205287D01*
X142061803Y-93218641D01*
X141987025Y-93215169D01*
X141927418Y-93197020D01*
X141865972Y-93158141D01*
X141822305Y-93106952D01*
X141794987Y-93040724D01*
X141782591Y-92956728D01*
X141781492Y-92918293D01*
X141785891Y-92830218D01*
X141786431Y-92827656D01*
X141912331Y-92827656D01*
X141915798Y-92835915D01*
X141930050Y-92840470D01*
X141959443Y-92842422D01*
X142008338Y-92842874D01*
X142027165Y-92842882D01*
X142084446Y-92842200D01*
X142120772Y-92839721D01*
X142140309Y-92834800D01*
X142147223Y-92826791D01*
X142147468Y-92824219D01*
X142139577Y-92803780D01*
X142119828Y-92775146D01*
X142111338Y-92765120D01*
X142079819Y-92736765D01*
X142046964Y-92725616D01*
X142029262Y-92724684D01*
X141981374Y-92736338D01*
X141941214Y-92767642D01*
X141915740Y-92813109D01*
X141915288Y-92814590D01*
X141912331Y-92827656D01*
X141786431Y-92827656D01*
X141800521Y-92760867D01*
X141826875Y-92705382D01*
X141859106Y-92665996D01*
X141918696Y-92623288D01*
X141988745Y-92600466D01*
X142063252Y-92598403D01*
X142136214Y-92617971D01*
G36*
X140954652Y-92610505D02*
X141020434Y-92639588D01*
X141070373Y-92688150D01*
X141104539Y-92756265D01*
X141123006Y-92844008D01*
X141124330Y-92857708D01*
X141125367Y-92954296D01*
X141111920Y-93038959D01*
X141084805Y-93107578D01*
X141070286Y-93129651D01*
X141019712Y-93176368D01*
X140955304Y-93206625D01*
X140883247Y-93219181D01*
X140809728Y-93212796D01*
X140753841Y-93193129D01*
X140705781Y-93159986D01*
X140666501Y-93116532D01*
X140665821Y-93115515D01*
X140649869Y-93088695D01*
X140639503Y-93061725D01*
X140633225Y-93027689D01*
X140629540Y-92979667D01*
X140627916Y-92940288D01*
X140627241Y-92904576D01*
X140752958Y-92904576D01*
X140754187Y-92940127D01*
X140758647Y-92987451D01*
X140766516Y-93017822D01*
X140780706Y-93039429D01*
X140793996Y-93052051D01*
X140841111Y-93078479D01*
X140890408Y-93082010D01*
X140936320Y-93062996D01*
X140959275Y-93041688D01*
X140975817Y-93020216D01*
X140985492Y-92999670D01*
X140989739Y-92972931D01*
X140989993Y-92932880D01*
X140988685Y-92895995D01*
X140985870Y-92843304D01*
X140981408Y-92809129D01*
X140973365Y-92786837D01*
X140959810Y-92769799D01*
X140949068Y-92760060D01*
X140904136Y-92734480D01*
X140855664Y-92733204D01*
X140815019Y-92748356D01*
X140780346Y-92779999D01*
X140759689Y-92831977D01*
X140752958Y-92904576D01*
X140627241Y-92904576D01*
X140626434Y-92861978D01*
X140628965Y-92803413D01*
X140636551Y-92759364D01*
X140650232Y-92724605D01*
X140671048Y-92693908D01*
X140678766Y-92684793D01*
X140727024Y-92639378D01*
X140778785Y-92612850D01*
X140842085Y-92601736D01*
X140872952Y-92600828D01*
X140954652Y-92610505D01*
X140954652Y-92610505D01*
G37*
X140954652Y-92610505D02*
X141020434Y-92639588D01*
X141070373Y-92688150D01*
X141104539Y-92756265D01*
X141123006Y-92844008D01*
X141124330Y-92857708D01*
X141125367Y-92954296D01*
X141111920Y-93038959D01*
X141084805Y-93107578D01*
X141070286Y-93129651D01*
X141019712Y-93176368D01*
X140955304Y-93206625D01*
X140883247Y-93219181D01*
X140809728Y-93212796D01*
X140753841Y-93193129D01*
X140705781Y-93159986D01*
X140666501Y-93116532D01*
X140665821Y-93115515D01*
X140649869Y-93088695D01*
X140639503Y-93061725D01*
X140633225Y-93027689D01*
X140629540Y-92979667D01*
X140627916Y-92940288D01*
X140627241Y-92904576D01*
X140752958Y-92904576D01*
X140754187Y-92940127D01*
X140758647Y-92987451D01*
X140766516Y-93017822D01*
X140780706Y-93039429D01*
X140793996Y-93052051D01*
X140841111Y-93078479D01*
X140890408Y-93082010D01*
X140936320Y-93062996D01*
X140959275Y-93041688D01*
X140975817Y-93020216D01*
X140985492Y-92999670D01*
X140989739Y-92972931D01*
X140989993Y-92932880D01*
X140988685Y-92895995D01*
X140985870Y-92843304D01*
X140981408Y-92809129D01*
X140973365Y-92786837D01*
X140959810Y-92769799D01*
X140949068Y-92760060D01*
X140904136Y-92734480D01*
X140855664Y-92733204D01*
X140815019Y-92748356D01*
X140780346Y-92779999D01*
X140759689Y-92831977D01*
X140752958Y-92904576D01*
X140627241Y-92904576D01*
X140626434Y-92861978D01*
X140628965Y-92803413D01*
X140636551Y-92759364D01*
X140650232Y-92724605D01*
X140671048Y-92693908D01*
X140678766Y-92684793D01*
X140727024Y-92639378D01*
X140778785Y-92612850D01*
X140842085Y-92601736D01*
X140872952Y-92600828D01*
X140954652Y-92610505D01*
G36*
X145525494Y-93550327D02*
X145585598Y-93565954D01*
X145635934Y-93598205D01*
X145660306Y-93622297D01*
X145700258Y-93679252D01*
X145723155Y-93745322D01*
X145731021Y-93826539D01*
X145731061Y-93833105D01*
X145731131Y-93899120D01*
X145351177Y-93899120D01*
X145359276Y-93933699D01*
X145373900Y-93965016D01*
X145399494Y-93997648D01*
X145404848Y-94002857D01*
X145450856Y-94031051D01*
X145503323Y-94035832D01*
X145563716Y-94017283D01*
X145573953Y-94012288D01*
X145605352Y-93997102D01*
X145626383Y-93988451D01*
X145630052Y-93987650D01*
X145642861Y-93995420D01*
X145667291Y-94014429D01*
X145679692Y-94024817D01*
X145705389Y-94048678D01*
X145713828Y-94064434D01*
X145707971Y-94078928D01*
X145704841Y-94082891D01*
X145683638Y-94100236D01*
X145648651Y-94121316D01*
X145624250Y-94133622D01*
X145554985Y-94155303D01*
X145478301Y-94162328D01*
X145405678Y-94154004D01*
X145385339Y-94148043D01*
X145322389Y-94114309D01*
X145275728Y-94062402D01*
X145245086Y-93991816D01*
X145230195Y-93902049D01*
X145228560Y-93855110D01*
X145233334Y-93786770D01*
X145353903Y-93786770D01*
X145365565Y-93791822D01*
X145396911Y-93795786D01*
X145442484Y-93798125D01*
X145473359Y-93798526D01*
X145528894Y-93798140D01*
X145563946Y-93796332D01*
X145583175Y-93792130D01*
X145591243Y-93784560D01*
X145592814Y-93773575D01*
X145582034Y-93739738D01*
X145554893Y-93706297D01*
X145519190Y-93680629D01*
X145483473Y-93670129D01*
X145434961Y-93679443D01*
X145392966Y-93706370D01*
X145363849Y-93745184D01*
X145353903Y-93786770D01*
X145233334Y-93786770D01*
X145235512Y-93755593D01*
X145256968Y-93676306D01*
X145293383Y-93616620D01*
X145345210Y-93575906D01*
X145412903Y-93553536D01*
X145449575Y-93549228D01*
X145525494Y-93550327D01*
X145525494Y-93550327D01*
G37*
X145525494Y-93550327D02*
X145585598Y-93565954D01*
X145635934Y-93598205D01*
X145660306Y-93622297D01*
X145700258Y-93679252D01*
X145723155Y-93745322D01*
X145731021Y-93826539D01*
X145731061Y-93833105D01*
X145731131Y-93899120D01*
X145351177Y-93899120D01*
X145359276Y-93933699D01*
X145373900Y-93965016D01*
X145399494Y-93997648D01*
X145404848Y-94002857D01*
X145450856Y-94031051D01*
X145503323Y-94035832D01*
X145563716Y-94017283D01*
X145573953Y-94012288D01*
X145605352Y-93997102D01*
X145626383Y-93988451D01*
X145630052Y-93987650D01*
X145642861Y-93995420D01*
X145667291Y-94014429D01*
X145679692Y-94024817D01*
X145705389Y-94048678D01*
X145713828Y-94064434D01*
X145707971Y-94078928D01*
X145704841Y-94082891D01*
X145683638Y-94100236D01*
X145648651Y-94121316D01*
X145624250Y-94133622D01*
X145554985Y-94155303D01*
X145478301Y-94162328D01*
X145405678Y-94154004D01*
X145385339Y-94148043D01*
X145322389Y-94114309D01*
X145275728Y-94062402D01*
X145245086Y-93991816D01*
X145230195Y-93902049D01*
X145228560Y-93855110D01*
X145233334Y-93786770D01*
X145353903Y-93786770D01*
X145365565Y-93791822D01*
X145396911Y-93795786D01*
X145442484Y-93798125D01*
X145473359Y-93798526D01*
X145528894Y-93798140D01*
X145563946Y-93796332D01*
X145583175Y-93792130D01*
X145591243Y-93784560D01*
X145592814Y-93773575D01*
X145582034Y-93739738D01*
X145554893Y-93706297D01*
X145519190Y-93680629D01*
X145483473Y-93670129D01*
X145434961Y-93679443D01*
X145392966Y-93706370D01*
X145363849Y-93745184D01*
X145353903Y-93786770D01*
X145233334Y-93786770D01*
X145235512Y-93755593D01*
X145256968Y-93676306D01*
X145293383Y-93616620D01*
X145345210Y-93575906D01*
X145412903Y-93553536D01*
X145449575Y-93549228D01*
X145525494Y-93550327D01*
G36*
X145128168Y-93546843D02*
X145176508Y-93556372D01*
X145204027Y-93570482D01*
X145232977Y-93593925D01*
X145191789Y-93645928D01*
X145166395Y-93677421D01*
X145149151Y-93692785D01*
X145132015Y-93695133D01*
X145106940Y-93687574D01*
X145095170Y-93683298D01*
X145047183Y-93676988D01*
X145003237Y-93690513D01*
X144970973Y-93721067D01*
X144965732Y-93730809D01*
X144960025Y-93756615D01*
X144955619Y-93804174D01*
X144952724Y-93870115D01*
X144951544Y-93951067D01*
X144951527Y-93962583D01*
X144951527Y-94163179D01*
X144813210Y-94163179D01*
X144813210Y-93547040D01*
X144882369Y-93547040D01*
X144922246Y-93548082D01*
X144943020Y-93552715D01*
X144950702Y-93563206D01*
X144951527Y-93573102D01*
X144951527Y-93599163D01*
X144984658Y-93573102D01*
X145022648Y-93555322D01*
X145073683Y-93546531D01*
X145128168Y-93546843D01*
X145128168Y-93546843D01*
G37*
X145128168Y-93546843D02*
X145176508Y-93556372D01*
X145204027Y-93570482D01*
X145232977Y-93593925D01*
X145191789Y-93645928D01*
X145166395Y-93677421D01*
X145149151Y-93692785D01*
X145132015Y-93695133D01*
X145106940Y-93687574D01*
X145095170Y-93683298D01*
X145047183Y-93676988D01*
X145003237Y-93690513D01*
X144970973Y-93721067D01*
X144965732Y-93730809D01*
X144960025Y-93756615D01*
X144955619Y-93804174D01*
X144952724Y-93870115D01*
X144951544Y-93951067D01*
X144951527Y-93962583D01*
X144951527Y-94163179D01*
X144813210Y-94163179D01*
X144813210Y-93547040D01*
X144882369Y-93547040D01*
X144922246Y-93548082D01*
X144943020Y-93552715D01*
X144950702Y-93563206D01*
X144951527Y-93573102D01*
X144951527Y-93599163D01*
X144984658Y-93573102D01*
X145022648Y-93555322D01*
X145073683Y-93546531D01*
X145128168Y-93546843D01*
G36*
X144531324Y-93550774D02*
X144584324Y-93563647D01*
X144599644Y-93570467D01*
X144629341Y-93588331D01*
X144652133Y-93608450D01*
X144668996Y-93634319D01*
X144680911Y-93669430D01*
X144688855Y-93717277D01*
X144693807Y-93781353D01*
X144696744Y-93865151D01*
X144697860Y-93921125D01*
X144701965Y-94163179D01*
X144631845Y-94163179D01*
X144589306Y-94161395D01*
X144567389Y-94155299D01*
X144561725Y-94145063D01*
X144558734Y-94133994D01*
X144545364Y-94136111D01*
X144527146Y-94144986D01*
X144481537Y-94158590D01*
X144422920Y-94162256D01*
X144361267Y-94156260D01*
X144306551Y-94140878D01*
X144301643Y-94138743D01*
X144251636Y-94103612D01*
X144218669Y-94054776D01*
X144203500Y-93997690D01*
X144204659Y-93977181D01*
X144328421Y-93977181D01*
X144339326Y-94004782D01*
X144371658Y-94024561D01*
X144423823Y-94035176D01*
X144451700Y-94036585D01*
X144498160Y-94032977D01*
X144529042Y-94018954D01*
X144536577Y-94012288D01*
X144556989Y-93976023D01*
X144561725Y-93943130D01*
X144561725Y-93899120D01*
X144500426Y-93899120D01*
X144429169Y-93902752D01*
X144379189Y-93914175D01*
X144347609Y-93934181D01*
X144340539Y-93943100D01*
X144328421Y-93977181D01*
X144204659Y-93977181D01*
X144206884Y-93937813D01*
X144229576Y-93880601D01*
X144260537Y-93841937D01*
X144279289Y-93825221D01*
X144297646Y-93814235D01*
X144321532Y-93807537D01*
X144356870Y-93803683D01*
X144409582Y-93801230D01*
X144430490Y-93800525D01*
X144561725Y-93796236D01*
X144561533Y-93756515D01*
X144556450Y-93714762D01*
X144538075Y-93689515D01*
X144500952Y-93673387D01*
X144499956Y-93673099D01*
X144447323Y-93666757D01*
X144395819Y-93675041D01*
X144357543Y-93695184D01*
X144342185Y-93705130D01*
X144325643Y-93703754D01*
X144300188Y-93689344D01*
X144285241Y-93679174D01*
X144256004Y-93657445D01*
X144237893Y-93641157D01*
X144234987Y-93636494D01*
X144246953Y-93612362D01*
X144282309Y-93583542D01*
X144297666Y-93573818D01*
X144341814Y-93557071D01*
X144401311Y-93547584D01*
X144467400Y-93545452D01*
X144531324Y-93550774D01*
X144531324Y-93550774D01*
G37*
X144531324Y-93550774D02*
X144584324Y-93563647D01*
X144599644Y-93570467D01*
X144629341Y-93588331D01*
X144652133Y-93608450D01*
X144668996Y-93634319D01*
X144680911Y-93669430D01*
X144688855Y-93717277D01*
X144693807Y-93781353D01*
X144696744Y-93865151D01*
X144697860Y-93921125D01*
X144701965Y-94163179D01*
X144631845Y-94163179D01*
X144589306Y-94161395D01*
X144567389Y-94155299D01*
X144561725Y-94145063D01*
X144558734Y-94133994D01*
X144545364Y-94136111D01*
X144527146Y-94144986D01*
X144481537Y-94158590D01*
X144422920Y-94162256D01*
X144361267Y-94156260D01*
X144306551Y-94140878D01*
X144301643Y-94138743D01*
X144251636Y-94103612D01*
X144218669Y-94054776D01*
X144203500Y-93997690D01*
X144204659Y-93977181D01*
X144328421Y-93977181D01*
X144339326Y-94004782D01*
X144371658Y-94024561D01*
X144423823Y-94035176D01*
X144451700Y-94036585D01*
X144498160Y-94032977D01*
X144529042Y-94018954D01*
X144536577Y-94012288D01*
X144556989Y-93976023D01*
X144561725Y-93943130D01*
X144561725Y-93899120D01*
X144500426Y-93899120D01*
X144429169Y-93902752D01*
X144379189Y-93914175D01*
X144347609Y-93934181D01*
X144340539Y-93943100D01*
X144328421Y-93977181D01*
X144204659Y-93977181D01*
X144206884Y-93937813D01*
X144229576Y-93880601D01*
X144260537Y-93841937D01*
X144279289Y-93825221D01*
X144297646Y-93814235D01*
X144321532Y-93807537D01*
X144356870Y-93803683D01*
X144409582Y-93801230D01*
X144430490Y-93800525D01*
X144561725Y-93796236D01*
X144561533Y-93756515D01*
X144556450Y-93714762D01*
X144538075Y-93689515D01*
X144500952Y-93673387D01*
X144499956Y-93673099D01*
X144447323Y-93666757D01*
X144395819Y-93675041D01*
X144357543Y-93695184D01*
X144342185Y-93705130D01*
X144325643Y-93703754D01*
X144300188Y-93689344D01*
X144285241Y-93679174D01*
X144256004Y-93657445D01*
X144237893Y-93641157D01*
X144234987Y-93636494D01*
X144246953Y-93612362D01*
X144282309Y-93583542D01*
X144297666Y-93573818D01*
X144341814Y-93557071D01*
X144401311Y-93547584D01*
X144467400Y-93545452D01*
X144531324Y-93550774D01*
G36*
X143774437Y-93549594D02*
X143824168Y-93553328D01*
X143954204Y-93943130D01*
X143974591Y-93873971D01*
X143986859Y-93831231D01*
X144002998Y-93773472D01*
X144020425Y-93709982D01*
X144029639Y-93675927D01*
X144064301Y-93547040D01*
X144207304Y-93547040D01*
X144164559Y-93682214D01*
X144143509Y-93748699D01*
X144118080Y-93828896D01*
X144091523Y-93912550D01*
X144067815Y-93987139D01*
X144013815Y-94156892D01*
X143955511Y-94160685D01*
X143897208Y-94164479D01*
X143865592Y-94060091D01*
X143846095Y-93995246D01*
X143824817Y-93923757D01*
X143806221Y-93860620D01*
X143805487Y-93858107D01*
X143791597Y-93815326D01*
X143779342Y-93786136D01*
X143770759Y-93775098D01*
X143768995Y-93776375D01*
X143762804Y-93793487D01*
X143751041Y-93830144D01*
X143735138Y-93881735D01*
X143716527Y-93943651D01*
X143706456Y-93977709D01*
X143651920Y-94163179D01*
X143536177Y-94163179D01*
X143443650Y-93870828D01*
X143417657Y-93788819D01*
X143393979Y-93714344D01*
X143373733Y-93650901D01*
X143358039Y-93601989D01*
X143348015Y-93571106D01*
X143344968Y-93562083D01*
X143347380Y-93552844D01*
X143366321Y-93548798D01*
X143405736Y-93549203D01*
X143411906Y-93549509D01*
X143484999Y-93553328D01*
X143532870Y-93729367D01*
X143550466Y-93793568D01*
X143566190Y-93850006D01*
X143578659Y-93893779D01*
X143586487Y-93919987D01*
X143587933Y-93924260D01*
X143593927Y-93919347D01*
X143606014Y-93893889D01*
X143622806Y-93851354D01*
X143642916Y-93795207D01*
X143659916Y-93744487D01*
X143724707Y-93545861D01*
X143774437Y-93549594D01*
X143774437Y-93549594D01*
G37*
X143774437Y-93549594D02*
X143824168Y-93553328D01*
X143954204Y-93943130D01*
X143974591Y-93873971D01*
X143986859Y-93831231D01*
X144002998Y-93773472D01*
X144020425Y-93709982D01*
X144029639Y-93675927D01*
X144064301Y-93547040D01*
X144207304Y-93547040D01*
X144164559Y-93682214D01*
X144143509Y-93748699D01*
X144118080Y-93828896D01*
X144091523Y-93912550D01*
X144067815Y-93987139D01*
X144013815Y-94156892D01*
X143955511Y-94160685D01*
X143897208Y-94164479D01*
X143865592Y-94060091D01*
X143846095Y-93995246D01*
X143824817Y-93923757D01*
X143806221Y-93860620D01*
X143805487Y-93858107D01*
X143791597Y-93815326D01*
X143779342Y-93786136D01*
X143770759Y-93775098D01*
X143768995Y-93776375D01*
X143762804Y-93793487D01*
X143751041Y-93830144D01*
X143735138Y-93881735D01*
X143716527Y-93943651D01*
X143706456Y-93977709D01*
X143651920Y-94163179D01*
X143536177Y-94163179D01*
X143443650Y-93870828D01*
X143417657Y-93788819D01*
X143393979Y-93714344D01*
X143373733Y-93650901D01*
X143358039Y-93601989D01*
X143348015Y-93571106D01*
X143344968Y-93562083D01*
X143347380Y-93552844D01*
X143366321Y-93548798D01*
X143405736Y-93549203D01*
X143411906Y-93549509D01*
X143484999Y-93553328D01*
X143532870Y-93729367D01*
X143550466Y-93793568D01*
X143566190Y-93850006D01*
X143578659Y-93893779D01*
X143586487Y-93919987D01*
X143587933Y-93924260D01*
X143593927Y-93919347D01*
X143606014Y-93893889D01*
X143622806Y-93851354D01*
X143642916Y-93795207D01*
X143659916Y-93744487D01*
X143724707Y-93545861D01*
X143774437Y-93549594D01*
G36*
X143291725Y-94163179D02*
X143222567Y-94163179D01*
X143182425Y-94162002D01*
X143161519Y-94157129D01*
X143153991Y-94146543D01*
X143153408Y-94139386D01*
X143152139Y-94125033D01*
X143144134Y-94122280D01*
X143123098Y-94131128D01*
X143106740Y-94139386D01*
X143043936Y-94158954D01*
X142975665Y-94160086D01*
X142920161Y-94145492D01*
X142868475Y-94110234D01*
X142829075Y-94058192D01*
X142807500Y-93996807D01*
X142806951Y-93993375D01*
X142803746Y-93955928D01*
X142802152Y-93902170D01*
X142802280Y-93861512D01*
X142939634Y-93861512D01*
X142942816Y-93915551D01*
X142950054Y-93960092D01*
X142959853Y-93985245D01*
X142996924Y-94019617D01*
X143040939Y-94031939D01*
X143086329Y-94021975D01*
X143125116Y-93992252D01*
X143139805Y-93972262D01*
X143148394Y-93948407D01*
X143152417Y-93913587D01*
X143153408Y-93861287D01*
X143151635Y-93809496D01*
X143146950Y-93763991D01*
X143140310Y-93733538D01*
X143139203Y-93730809D01*
X143112422Y-93698357D01*
X143073334Y-93680540D01*
X143029598Y-93677663D01*
X142988875Y-93690031D01*
X142958826Y-93717950D01*
X142955709Y-93723505D01*
X142945952Y-93757379D01*
X142940636Y-93806085D01*
X142939634Y-93861512D01*
X142802280Y-93861512D01*
X142802345Y-93840897D01*
X142803249Y-93807920D01*
X142809399Y-93726338D01*
X142822180Y-93665087D01*
X142843442Y-93619806D01*
X142875035Y-93586136D01*
X142905706Y-93566371D01*
X142948559Y-93552477D01*
X143001857Y-93547711D01*
X143056433Y-93551593D01*
X143103121Y-93563639D01*
X143127789Y-93578050D01*
X143153408Y-93601235D01*
X143153408Y-93308130D01*
X143291725Y-93308130D01*
X143291725Y-94163179D01*
X143291725Y-94163179D01*
G37*
X143291725Y-94163179D02*
X143222567Y-94163179D01*
X143182425Y-94162002D01*
X143161519Y-94157129D01*
X143153991Y-94146543D01*
X143153408Y-94139386D01*
X143152139Y-94125033D01*
X143144134Y-94122280D01*
X143123098Y-94131128D01*
X143106740Y-94139386D01*
X143043936Y-94158954D01*
X142975665Y-94160086D01*
X142920161Y-94145492D01*
X142868475Y-94110234D01*
X142829075Y-94058192D01*
X142807500Y-93996807D01*
X142806951Y-93993375D01*
X142803746Y-93955928D01*
X142802152Y-93902170D01*
X142802280Y-93861512D01*
X142939634Y-93861512D01*
X142942816Y-93915551D01*
X142950054Y-93960092D01*
X142959853Y-93985245D01*
X142996924Y-94019617D01*
X143040939Y-94031939D01*
X143086329Y-94021975D01*
X143125116Y-93992252D01*
X143139805Y-93972262D01*
X143148394Y-93948407D01*
X143152417Y-93913587D01*
X143153408Y-93861287D01*
X143151635Y-93809496D01*
X143146950Y-93763991D01*
X143140310Y-93733538D01*
X143139203Y-93730809D01*
X143112422Y-93698357D01*
X143073334Y-93680540D01*
X143029598Y-93677663D01*
X142988875Y-93690031D01*
X142958826Y-93717950D01*
X142955709Y-93723505D01*
X142945952Y-93757379D01*
X142940636Y-93806085D01*
X142939634Y-93861512D01*
X142802280Y-93861512D01*
X142802345Y-93840897D01*
X142803249Y-93807920D01*
X142809399Y-93726338D01*
X142822180Y-93665087D01*
X142843442Y-93619806D01*
X142875035Y-93586136D01*
X142905706Y-93566371D01*
X142948559Y-93552477D01*
X143001857Y-93547711D01*
X143056433Y-93551593D01*
X143103121Y-93563639D01*
X143127789Y-93578050D01*
X143153408Y-93601235D01*
X143153408Y-93308130D01*
X143291725Y-93308130D01*
X143291725Y-94163179D01*
G36*
X142499557Y-93548377D02*
X142518374Y-93554017D01*
X142524440Y-93566410D01*
X142524695Y-93572004D01*
X142525784Y-93587587D01*
X142533281Y-93590033D01*
X142553532Y-93579350D01*
X142565562Y-93572051D01*
X142603513Y-93556420D01*
X142648841Y-93548691D01*
X142696369Y-93548097D01*
X142740918Y-93553870D01*
X142777311Y-93565241D01*
X142800370Y-93581445D01*
X142804917Y-93601712D01*
X142802622Y-93607200D01*
X142785893Y-93629983D01*
X142759950Y-93658004D01*
X142755258Y-93662534D01*
X142730530Y-93683362D01*
X142709195Y-93690092D01*
X142679358Y-93685395D01*
X142667405Y-93682274D01*
X142630208Y-93674778D01*
X142604054Y-93678149D01*
X142581967Y-93690038D01*
X142561735Y-93705992D01*
X142546834Y-93726057D01*
X142536479Y-93754059D01*
X142529884Y-93793824D01*
X142526264Y-93849180D01*
X142524835Y-93923951D01*
X142524695Y-93969097D01*
X142524695Y-94163179D01*
X142398953Y-94163179D01*
X142398953Y-93547040D01*
X142461824Y-93547040D01*
X142499557Y-93548377D01*
X142499557Y-93548377D01*
G37*
X142499557Y-93548377D02*
X142518374Y-93554017D01*
X142524440Y-93566410D01*
X142524695Y-93572004D01*
X142525784Y-93587587D01*
X142533281Y-93590033D01*
X142553532Y-93579350D01*
X142565562Y-93572051D01*
X142603513Y-93556420D01*
X142648841Y-93548691D01*
X142696369Y-93548097D01*
X142740918Y-93553870D01*
X142777311Y-93565241D01*
X142800370Y-93581445D01*
X142804917Y-93601712D01*
X142802622Y-93607200D01*
X142785893Y-93629983D01*
X142759950Y-93658004D01*
X142755258Y-93662534D01*
X142730530Y-93683362D01*
X142709195Y-93690092D01*
X142679358Y-93685395D01*
X142667405Y-93682274D01*
X142630208Y-93674778D01*
X142604054Y-93678149D01*
X142581967Y-93690038D01*
X142561735Y-93705992D01*
X142546834Y-93726057D01*
X142536479Y-93754059D01*
X142529884Y-93793824D01*
X142526264Y-93849180D01*
X142524835Y-93923951D01*
X142524695Y-93969097D01*
X142524695Y-94163179D01*
X142398953Y-94163179D01*
X142398953Y-93547040D01*
X142461824Y-93547040D01*
X142499557Y-93548377D01*
G36*
X142108703Y-93551912D02*
X142167858Y-93567696D01*
X142212890Y-93596305D01*
X142244667Y-93633776D01*
X142254547Y-93649768D01*
X142261840Y-93666520D01*
X142266939Y-93687949D01*
X142270234Y-93717973D01*
X142272116Y-93760511D01*
X142272976Y-93819479D01*
X142273206Y-93898797D01*
X142273210Y-93919841D01*
X142273210Y-94163179D01*
X142212854Y-94163179D01*
X142174356Y-94160483D01*
X142145890Y-94153652D01*
X142138758Y-94149440D01*
X142119261Y-94142170D01*
X142099347Y-94149440D01*
X142066560Y-94158517D01*
X142018935Y-94162170D01*
X141966149Y-94160585D01*
X141917877Y-94153946D01*
X141889695Y-94145429D01*
X141835160Y-94110420D01*
X141801078Y-94061836D01*
X141785756Y-93997239D01*
X141785614Y-93995580D01*
X141786958Y-93966923D01*
X141908557Y-93966923D01*
X141919187Y-93999518D01*
X141936503Y-94017862D01*
X141971261Y-94031736D01*
X142017140Y-94037274D01*
X142063925Y-94034548D01*
X142101399Y-94023631D01*
X142111898Y-94016626D01*
X142130245Y-93984261D01*
X142134893Y-93947468D01*
X142134893Y-93899120D01*
X142065331Y-93899120D01*
X141999246Y-93904207D01*
X141949149Y-93918620D01*
X141917984Y-93941086D01*
X141908557Y-93966923D01*
X141786958Y-93966923D01*
X141788926Y-93925004D01*
X141812203Y-93869202D01*
X141855965Y-93827004D01*
X141862014Y-93823165D01*
X141888006Y-93810666D01*
X141920178Y-93803097D01*
X141965153Y-93799418D01*
X142018582Y-93798573D01*
X142134893Y-93798526D01*
X142134893Y-93749768D01*
X142129960Y-93711938D01*
X142117370Y-93686593D01*
X142115896Y-93685244D01*
X142087879Y-93674157D01*
X142045587Y-93669860D01*
X141998849Y-93671972D01*
X141957495Y-93680113D01*
X141932956Y-93692322D01*
X141919660Y-93702103D01*
X141905619Y-93703970D01*
X141886242Y-93695957D01*
X141856937Y-93676096D01*
X141813110Y-93642420D01*
X141809088Y-93639266D01*
X141811149Y-93627593D01*
X141828345Y-93608179D01*
X141854480Y-93586605D01*
X141883361Y-93568453D01*
X141892435Y-93564166D01*
X141925533Y-93555613D01*
X141974033Y-93549512D01*
X142028218Y-93547065D01*
X142030752Y-93547060D01*
X142108703Y-93551912D01*
X142108703Y-93551912D01*
G37*
X142108703Y-93551912D02*
X142167858Y-93567696D01*
X142212890Y-93596305D01*
X142244667Y-93633776D01*
X142254547Y-93649768D01*
X142261840Y-93666520D01*
X142266939Y-93687949D01*
X142270234Y-93717973D01*
X142272116Y-93760511D01*
X142272976Y-93819479D01*
X142273206Y-93898797D01*
X142273210Y-93919841D01*
X142273210Y-94163179D01*
X142212854Y-94163179D01*
X142174356Y-94160483D01*
X142145890Y-94153652D01*
X142138758Y-94149440D01*
X142119261Y-94142170D01*
X142099347Y-94149440D01*
X142066560Y-94158517D01*
X142018935Y-94162170D01*
X141966149Y-94160585D01*
X141917877Y-94153946D01*
X141889695Y-94145429D01*
X141835160Y-94110420D01*
X141801078Y-94061836D01*
X141785756Y-93997239D01*
X141785614Y-93995580D01*
X141786958Y-93966923D01*
X141908557Y-93966923D01*
X141919187Y-93999518D01*
X141936503Y-94017862D01*
X141971261Y-94031736D01*
X142017140Y-94037274D01*
X142063925Y-94034548D01*
X142101399Y-94023631D01*
X142111898Y-94016626D01*
X142130245Y-93984261D01*
X142134893Y-93947468D01*
X142134893Y-93899120D01*
X142065331Y-93899120D01*
X141999246Y-93904207D01*
X141949149Y-93918620D01*
X141917984Y-93941086D01*
X141908557Y-93966923D01*
X141786958Y-93966923D01*
X141788926Y-93925004D01*
X141812203Y-93869202D01*
X141855965Y-93827004D01*
X141862014Y-93823165D01*
X141888006Y-93810666D01*
X141920178Y-93803097D01*
X141965153Y-93799418D01*
X142018582Y-93798573D01*
X142134893Y-93798526D01*
X142134893Y-93749768D01*
X142129960Y-93711938D01*
X142117370Y-93686593D01*
X142115896Y-93685244D01*
X142087879Y-93674157D01*
X142045587Y-93669860D01*
X141998849Y-93671972D01*
X141957495Y-93680113D01*
X141932956Y-93692322D01*
X141919660Y-93702103D01*
X141905619Y-93703970D01*
X141886242Y-93695957D01*
X141856937Y-93676096D01*
X141813110Y-93642420D01*
X141809088Y-93639266D01*
X141811149Y-93627593D01*
X141828345Y-93608179D01*
X141854480Y-93586605D01*
X141883361Y-93568453D01*
X141892435Y-93564166D01*
X141925533Y-93555613D01*
X141974033Y-93549512D01*
X142028218Y-93547065D01*
X142030752Y-93547060D01*
X142108703Y-93551912D01*
G36*
X141584154Y-92614541D02*
X141610666Y-92627639D01*
X141643360Y-92650463D01*
X141667188Y-92675353D01*
X141683507Y-92706606D01*
X141693673Y-92748523D01*
X141699041Y-92805401D01*
X141700969Y-92881541D01*
X141701082Y-92914274D01*
X141700752Y-92986013D01*
X141699386Y-93037284D01*
X141696413Y-93072761D01*
X141691264Y-93097120D01*
X141683370Y-93115037D01*
X141675156Y-93127259D01*
X141622726Y-93179262D01*
X141560983Y-93210541D01*
X141494377Y-93219949D01*
X141427355Y-93206337D01*
X141406121Y-93196711D01*
X141355289Y-93170216D01*
X141355289Y-93585409D01*
X141392388Y-93566225D01*
X141441270Y-93551382D01*
X141501352Y-93547579D01*
X141561349Y-93554600D01*
X141606657Y-93570370D01*
X141644238Y-93600404D01*
X141676349Y-93643381D01*
X141678763Y-93647793D01*
X141688946Y-93668578D01*
X141696383Y-93689527D01*
X141701502Y-93714905D01*
X141704732Y-93748975D01*
X141706500Y-93795998D01*
X141707236Y-93860239D01*
X141707369Y-93932533D01*
X141707369Y-94163179D01*
X141569052Y-94163179D01*
X141569052Y-93737890D01*
X141530364Y-93705336D01*
X141490175Y-93679297D01*
X141452116Y-93674562D01*
X141413847Y-93686746D01*
X141393451Y-93698677D01*
X141378271Y-93715670D01*
X141367475Y-93741352D01*
X141360230Y-93779348D01*
X141355705Y-93833283D01*
X141353069Y-93906782D01*
X141352141Y-93955704D01*
X141349002Y-94156892D01*
X141282987Y-94160693D01*
X141216973Y-94164493D01*
X141216973Y-92916007D01*
X141355289Y-92916007D01*
X141358816Y-92985611D01*
X141370698Y-93033926D01*
X141392893Y-93063988D01*
X141427354Y-93078828D01*
X141462171Y-93081793D01*
X141501584Y-93078385D01*
X141527742Y-93064974D01*
X141544099Y-93047253D01*
X141556976Y-93028192D01*
X141564641Y-93006958D01*
X141568052Y-92977206D01*
X141568164Y-92932593D01*
X141567016Y-92895237D01*
X141564381Y-92838961D01*
X141560457Y-92802015D01*
X141553850Y-92778580D01*
X141543164Y-92762837D01*
X141533080Y-92753737D01*
X141490943Y-92733894D01*
X141441073Y-92730689D01*
X141412437Y-92737525D01*
X141384085Y-92761821D01*
X141365304Y-92809085D01*
X141356201Y-92878981D01*
X141355289Y-92916007D01*
X141216973Y-92916007D01*
X141216973Y-92603971D01*
X141286131Y-92603971D01*
X141327653Y-92605613D01*
X141349075Y-92611444D01*
X141355287Y-92622818D01*
X141355289Y-92623155D01*
X141358171Y-92634295D01*
X141370883Y-92633030D01*
X141396156Y-92620790D01*
X141455044Y-92602064D01*
X141521298Y-92600096D01*
X141584154Y-92614541D01*
X141584154Y-92614541D01*
G37*
X141584154Y-92614541D02*
X141610666Y-92627639D01*
X141643360Y-92650463D01*
X141667188Y-92675353D01*
X141683507Y-92706606D01*
X141693673Y-92748523D01*
X141699041Y-92805401D01*
X141700969Y-92881541D01*
X141701082Y-92914274D01*
X141700752Y-92986013D01*
X141699386Y-93037284D01*
X141696413Y-93072761D01*
X141691264Y-93097120D01*
X141683370Y-93115037D01*
X141675156Y-93127259D01*
X141622726Y-93179262D01*
X141560983Y-93210541D01*
X141494377Y-93219949D01*
X141427355Y-93206337D01*
X141406121Y-93196711D01*
X141355289Y-93170216D01*
X141355289Y-93585409D01*
X141392388Y-93566225D01*
X141441270Y-93551382D01*
X141501352Y-93547579D01*
X141561349Y-93554600D01*
X141606657Y-93570370D01*
X141644238Y-93600404D01*
X141676349Y-93643381D01*
X141678763Y-93647793D01*
X141688946Y-93668578D01*
X141696383Y-93689527D01*
X141701502Y-93714905D01*
X141704732Y-93748975D01*
X141706500Y-93795998D01*
X141707236Y-93860239D01*
X141707369Y-93932533D01*
X141707369Y-94163179D01*
X141569052Y-94163179D01*
X141569052Y-93737890D01*
X141530364Y-93705336D01*
X141490175Y-93679297D01*
X141452116Y-93674562D01*
X141413847Y-93686746D01*
X141393451Y-93698677D01*
X141378271Y-93715670D01*
X141367475Y-93741352D01*
X141360230Y-93779348D01*
X141355705Y-93833283D01*
X141353069Y-93906782D01*
X141352141Y-93955704D01*
X141349002Y-94156892D01*
X141282987Y-94160693D01*
X141216973Y-94164493D01*
X141216973Y-92916007D01*
X141355289Y-92916007D01*
X141358816Y-92985611D01*
X141370698Y-93033926D01*
X141392893Y-93063988D01*
X141427354Y-93078828D01*
X141462171Y-93081793D01*
X141501584Y-93078385D01*
X141527742Y-93064974D01*
X141544099Y-93047253D01*
X141556976Y-93028192D01*
X141564641Y-93006958D01*
X141568052Y-92977206D01*
X141568164Y-92932593D01*
X141567016Y-92895237D01*
X141564381Y-92838961D01*
X141560457Y-92802015D01*
X141553850Y-92778580D01*
X141543164Y-92762837D01*
X141533080Y-92753737D01*
X141490943Y-92733894D01*
X141441073Y-92730689D01*
X141412437Y-92737525D01*
X141384085Y-92761821D01*
X141365304Y-92809085D01*
X141356201Y-92878981D01*
X141355289Y-92916007D01*
X141216973Y-92916007D01*
X141216973Y-92603971D01*
X141286131Y-92603971D01*
X141327653Y-92605613D01*
X141349075Y-92611444D01*
X141355287Y-92622818D01*
X141355289Y-92623155D01*
X141358171Y-92634295D01*
X141370883Y-92633030D01*
X141396156Y-92620790D01*
X141455044Y-92602064D01*
X141521298Y-92600096D01*
X141584154Y-92614541D01*
G04 #@! TO.C,C1*
D14*
X131892894Y-93442633D02*
X131930989Y-93480728D01*
X131969084Y-93595014D01*
X131969084Y-93671204D01*
X131930989Y-93785490D01*
X131854799Y-93861680D01*
X131778608Y-93899776D01*
X131626227Y-93937871D01*
X131511941Y-93937871D01*
X131359560Y-93899776D01*
X131283370Y-93861680D01*
X131207180Y-93785490D01*
X131169084Y-93671204D01*
X131169084Y-93595014D01*
X131207180Y-93480728D01*
X131245275Y-93442633D01*
X131969084Y-92680728D02*
X131969084Y-93137871D01*
X131969084Y-92909300D02*
X131169084Y-92909300D01*
X131283370Y-92985490D01*
X131359560Y-93061680D01*
X131397656Y-93137871D01*
G04 #@! TO.C,C2*
X126950682Y-92713466D02*
X126998301Y-92761085D01*
X127045920Y-92903942D01*
X127045920Y-92999180D01*
X126998301Y-93142038D01*
X126903063Y-93237276D01*
X126807825Y-93284895D01*
X126617349Y-93332514D01*
X126474492Y-93332514D01*
X126284016Y-93284895D01*
X126188778Y-93237276D01*
X126093540Y-93142038D01*
X126045920Y-92999180D01*
X126045920Y-92903942D01*
X126093540Y-92761085D01*
X126141159Y-92713466D01*
X126141159Y-92332514D02*
X126093540Y-92284895D01*
X126045920Y-92189657D01*
X126045920Y-91951561D01*
X126093540Y-91856323D01*
X126141159Y-91808704D01*
X126236397Y-91761085D01*
X126331635Y-91761085D01*
X126474492Y-91808704D01*
X127045920Y-92380133D01*
X127045920Y-91761085D01*
G04 #@! TO.C,D1*
X100089000Y-111979799D02*
X99089000Y-111979799D01*
X99089000Y-111741704D01*
X99136620Y-111598846D01*
X99231858Y-111503608D01*
X99327096Y-111455989D01*
X99517572Y-111408370D01*
X99660429Y-111408370D01*
X99850905Y-111455989D01*
X99946143Y-111503608D01*
X100041381Y-111598846D01*
X100089000Y-111741704D01*
X100089000Y-111979799D01*
X100089000Y-110455989D02*
X100089000Y-111027418D01*
X100089000Y-110741704D02*
X99089000Y-110741704D01*
X99231858Y-110836942D01*
X99327096Y-110932180D01*
X99374715Y-111027418D01*
G04 #@! TO.C,D2*
X116876784Y-105743940D02*
X116876784Y-104743940D01*
X117114880Y-104743940D01*
X117257737Y-104791560D01*
X117352975Y-104886798D01*
X117400594Y-104982036D01*
X117448213Y-105172512D01*
X117448213Y-105315369D01*
X117400594Y-105505845D01*
X117352975Y-105601083D01*
X117257737Y-105696321D01*
X117114880Y-105743940D01*
X116876784Y-105743940D01*
X117829165Y-104839179D02*
X117876784Y-104791560D01*
X117972022Y-104743940D01*
X118210118Y-104743940D01*
X118305356Y-104791560D01*
X118352975Y-104839179D01*
X118400594Y-104934417D01*
X118400594Y-105029655D01*
X118352975Y-105172512D01*
X117781546Y-105743940D01*
X118400594Y-105743940D01*
X121361095Y-107508380D02*
X121361095Y-106508380D01*
X121932523Y-107508380D02*
X121503952Y-106936952D01*
X121932523Y-106508380D02*
X121361095Y-107079809D01*
G04 #@! TO.C,D3*
X99974700Y-87545171D02*
X98974700Y-87545171D01*
X98974700Y-87307076D01*
X99022320Y-87164218D01*
X99117558Y-87068980D01*
X99212796Y-87021361D01*
X99403272Y-86973742D01*
X99546129Y-86973742D01*
X99736605Y-87021361D01*
X99831843Y-87068980D01*
X99927081Y-87164218D01*
X99974700Y-87307076D01*
X99974700Y-87545171D01*
X98974700Y-86640409D02*
X98974700Y-86021361D01*
X99355653Y-86354695D01*
X99355653Y-86211837D01*
X99403272Y-86116599D01*
X99450891Y-86068980D01*
X99546129Y-86021361D01*
X99784224Y-86021361D01*
X99879462Y-86068980D01*
X99927081Y-86116599D01*
X99974700Y-86211837D01*
X99974700Y-86497552D01*
X99927081Y-86592790D01*
X99879462Y-86640409D01*
G04 #@! TO.C,D4*
X117374043Y-95096000D02*
X117374043Y-94096000D01*
X117612139Y-94096000D01*
X117754996Y-94143620D01*
X117850234Y-94238858D01*
X117897853Y-94334096D01*
X117945472Y-94524572D01*
X117945472Y-94667429D01*
X117897853Y-94857905D01*
X117850234Y-94953143D01*
X117754996Y-95048381D01*
X117612139Y-95096000D01*
X117374043Y-95096000D01*
X118802615Y-94429334D02*
X118802615Y-95096000D01*
X118564519Y-94048381D02*
X118326424Y-94762667D01*
X118945472Y-94762667D01*
X113741095Y-93244680D02*
X113741095Y-92244680D01*
X114312523Y-93244680D02*
X113883952Y-92673252D01*
X114312523Y-92244680D02*
X113741095Y-92816109D01*
G04 #@! TO.C,D5*
X117374043Y-98480800D02*
X117374043Y-97480800D01*
X117612139Y-97480800D01*
X117754996Y-97528420D01*
X117850234Y-97623658D01*
X117897853Y-97718896D01*
X117945472Y-97909372D01*
X117945472Y-98052229D01*
X117897853Y-98242705D01*
X117850234Y-98337943D01*
X117754996Y-98433181D01*
X117612139Y-98480800D01*
X117374043Y-98480800D01*
X118850234Y-97480800D02*
X118374043Y-97480800D01*
X118326424Y-97956991D01*
X118374043Y-97909372D01*
X118469281Y-97861753D01*
X118707377Y-97861753D01*
X118802615Y-97909372D01*
X118850234Y-97956991D01*
X118897853Y-98052229D01*
X118897853Y-98290324D01*
X118850234Y-98385562D01*
X118802615Y-98433181D01*
X118707377Y-98480800D01*
X118469281Y-98480800D01*
X118374043Y-98433181D01*
X118326424Y-98385562D01*
X113741095Y-96632680D02*
X113741095Y-95632680D01*
X114312523Y-96632680D02*
X113883952Y-96061252D01*
X114312523Y-95632680D02*
X113741095Y-96204109D01*
G04 #@! TO.C,J3*
X101056946Y-98265000D02*
X101056946Y-98979286D01*
X101009327Y-99122143D01*
X100914089Y-99217381D01*
X100771232Y-99265000D01*
X100675994Y-99265000D01*
X101437899Y-98265000D02*
X102056946Y-98265000D01*
X101723613Y-98645953D01*
X101866470Y-98645953D01*
X101961708Y-98693572D01*
X102009327Y-98741191D01*
X102056946Y-98836429D01*
X102056946Y-99074524D01*
X102009327Y-99169762D01*
X101961708Y-99217381D01*
X101866470Y-99265000D01*
X101580756Y-99265000D01*
X101485518Y-99217381D01*
X101437899Y-99169762D01*
G04 #@! TO.C,R1*
X105670413Y-109179680D02*
X105337080Y-108703490D01*
X105098984Y-109179680D02*
X105098984Y-108179680D01*
X105479937Y-108179680D01*
X105575175Y-108227300D01*
X105622794Y-108274919D01*
X105670413Y-108370157D01*
X105670413Y-108513014D01*
X105622794Y-108608252D01*
X105575175Y-108655871D01*
X105479937Y-108703490D01*
X105098984Y-108703490D01*
X106622794Y-109179680D02*
X106051365Y-109179680D01*
X106337080Y-109179680D02*
X106337080Y-108179680D01*
X106241841Y-108322538D01*
X106146603Y-108417776D01*
X106051365Y-108465395D01*
G04 #@! TO.C,R2*
X105705973Y-89565820D02*
X105372640Y-89089630D01*
X105134544Y-89565820D02*
X105134544Y-88565820D01*
X105515497Y-88565820D01*
X105610735Y-88613440D01*
X105658354Y-88661059D01*
X105705973Y-88756297D01*
X105705973Y-88899154D01*
X105658354Y-88994392D01*
X105610735Y-89042011D01*
X105515497Y-89089630D01*
X105134544Y-89089630D01*
X106086925Y-88661059D02*
X106134544Y-88613440D01*
X106229782Y-88565820D01*
X106467878Y-88565820D01*
X106563116Y-88613440D01*
X106610735Y-88661059D01*
X106658354Y-88756297D01*
X106658354Y-88851535D01*
X106610735Y-88994392D01*
X106039306Y-89565820D01*
X106658354Y-89565820D01*
G04 #@! TO.C,R3*
X117529493Y-102070380D02*
X117196160Y-101594190D01*
X116958064Y-102070380D02*
X116958064Y-101070380D01*
X117339017Y-101070380D01*
X117434255Y-101118000D01*
X117481874Y-101165619D01*
X117529493Y-101260857D01*
X117529493Y-101403714D01*
X117481874Y-101498952D01*
X117434255Y-101546571D01*
X117339017Y-101594190D01*
X116958064Y-101594190D01*
X117862826Y-101070380D02*
X118481874Y-101070380D01*
X118148540Y-101451333D01*
X118291398Y-101451333D01*
X118386636Y-101498952D01*
X118434255Y-101546571D01*
X118481874Y-101641809D01*
X118481874Y-101879904D01*
X118434255Y-101975142D01*
X118386636Y-102022761D01*
X118291398Y-102070380D01*
X118005683Y-102070380D01*
X117910445Y-102022761D01*
X117862826Y-101975142D01*
G04 #@! TO.C,R4*
X127071320Y-102807346D02*
X126595130Y-103140680D01*
X127071320Y-103378775D02*
X126071320Y-103378775D01*
X126071320Y-102997822D01*
X126118940Y-102902584D01*
X126166559Y-102854965D01*
X126261797Y-102807346D01*
X126404654Y-102807346D01*
X126499892Y-102854965D01*
X126547511Y-102902584D01*
X126595130Y-102997822D01*
X126595130Y-103378775D01*
X126404654Y-101950203D02*
X127071320Y-101950203D01*
X126023701Y-102188299D02*
X126737987Y-102426394D01*
X126737987Y-101807346D01*
G04 #@! TO.C,R5*
X117650832Y-91497916D02*
X117317499Y-91021726D01*
X117079403Y-91497916D02*
X117079403Y-90497916D01*
X117460356Y-90497916D01*
X117555594Y-90545536D01*
X117603213Y-90593155D01*
X117650832Y-90688393D01*
X117650832Y-90831250D01*
X117603213Y-90926488D01*
X117555594Y-90974107D01*
X117460356Y-91021726D01*
X117079403Y-91021726D01*
X118555594Y-90497916D02*
X118079403Y-90497916D01*
X118031784Y-90974107D01*
X118079403Y-90926488D01*
X118174641Y-90878869D01*
X118412737Y-90878869D01*
X118507975Y-90926488D01*
X118555594Y-90974107D01*
X118603213Y-91069345D01*
X118603213Y-91307440D01*
X118555594Y-91402678D01*
X118507975Y-91450297D01*
X118412737Y-91497916D01*
X118174641Y-91497916D01*
X118079403Y-91450297D01*
X118031784Y-91402678D01*
G04 #@! TO.C,SW1*
X145471981Y-103861773D02*
X145519600Y-103718916D01*
X145519600Y-103480820D01*
X145471981Y-103385582D01*
X145424362Y-103337963D01*
X145329124Y-103290344D01*
X145233886Y-103290344D01*
X145138648Y-103337963D01*
X145091029Y-103385582D01*
X145043410Y-103480820D01*
X144995791Y-103671297D01*
X144948172Y-103766535D01*
X144900553Y-103814154D01*
X144805315Y-103861773D01*
X144710077Y-103861773D01*
X144614839Y-103814154D01*
X144567220Y-103766535D01*
X144519600Y-103671297D01*
X144519600Y-103433201D01*
X144567220Y-103290344D01*
X144519600Y-102957011D02*
X145519600Y-102718916D01*
X144805315Y-102528440D01*
X145519600Y-102337963D01*
X144519600Y-102099868D01*
X145519600Y-101195106D02*
X145519600Y-101766535D01*
X145519600Y-101480820D02*
X144519600Y-101480820D01*
X144662458Y-101576059D01*
X144757696Y-101671297D01*
X144805315Y-101766535D01*
G04 #@! TO.C,U1*
X116565484Y-110609063D02*
X117213103Y-110609063D01*
X117289294Y-110570968D01*
X117327389Y-110532873D01*
X117365484Y-110456682D01*
X117365484Y-110304301D01*
X117327389Y-110228111D01*
X117289294Y-110190016D01*
X117213103Y-110151920D01*
X116565484Y-110151920D01*
X117365484Y-109351920D02*
X117365484Y-109809063D01*
X117365484Y-109580492D02*
X116565484Y-109580492D01*
X116679770Y-109656682D01*
X116755960Y-109732873D01*
X116794056Y-109809063D01*
G04 #@! TO.C,U2*
X134053500Y-103296604D02*
X134863024Y-103296604D01*
X134958262Y-103248985D01*
X135005881Y-103201366D01*
X135053500Y-103106128D01*
X135053500Y-102915652D01*
X135005881Y-102820414D01*
X134958262Y-102772795D01*
X134863024Y-102725176D01*
X134053500Y-102725176D01*
X134148739Y-102296604D02*
X134101120Y-102248985D01*
X134053500Y-102153747D01*
X134053500Y-101915652D01*
X134101120Y-101820414D01*
X134148739Y-101772795D01*
X134243977Y-101725176D01*
X134339215Y-101725176D01*
X134482072Y-101772795D01*
X135053500Y-102344223D01*
X135053500Y-101725176D01*
G04 #@! TD*
M02*
