G04 #@! TF.GenerationSoftware,KiCad,Pcbnew,(5.0.0)*
G04 #@! TF.CreationDate,2018-09-11T18:45:28-05:00*
G04 #@! TF.ProjectId,mini-attinyuino,6D696E692D617474696E7975696E6F2E,1.0*
G04 #@! TF.SameCoordinates,Original*
G04 #@! TF.FileFunction,Legend,Bot*
G04 #@! TF.FilePolarity,Positive*
%FSLAX46Y46*%
G04 Gerber Fmt 4.6, Leading zero omitted, Abs format (unit mm)*
G04 Created by KiCad (PCBNEW (5.0.0)) date 09/11/18 18:45:28*
%MOMM*%
%LPD*%
G01*
G04 APERTURE LIST*
%ADD10C,0.127000*%
%ADD11C,0.250000*%
%ADD12C,0.010000*%
G04 APERTURE END LIST*
D10*
X141533781Y-104511100D02*
X141533781Y-103511100D01*
X141105210Y-104511100D02*
X141105210Y-103987291D01*
X141152829Y-103892053D01*
X141248067Y-103844434D01*
X141390924Y-103844434D01*
X141486162Y-103892053D01*
X141533781Y-103939672D01*
X140771877Y-103844434D02*
X140390924Y-103844434D01*
X140629020Y-103511100D02*
X140629020Y-104368243D01*
X140581400Y-104463481D01*
X140486162Y-104511100D01*
X140390924Y-104511100D01*
X140200448Y-103844434D02*
X139819496Y-103844434D01*
X140057591Y-103511100D02*
X140057591Y-104368243D01*
X140009972Y-104463481D01*
X139914734Y-104511100D01*
X139819496Y-104511100D01*
X139486162Y-103844434D02*
X139486162Y-104844434D01*
X139486162Y-103892053D02*
X139390924Y-103844434D01*
X139200448Y-103844434D01*
X139105210Y-103892053D01*
X139057591Y-103939672D01*
X139009972Y-104034910D01*
X139009972Y-104320624D01*
X139057591Y-104415862D01*
X139105210Y-104463481D01*
X139200448Y-104511100D01*
X139390924Y-104511100D01*
X139486162Y-104463481D01*
X138629020Y-104463481D02*
X138533781Y-104511100D01*
X138343305Y-104511100D01*
X138248067Y-104463481D01*
X138200448Y-104368243D01*
X138200448Y-104320624D01*
X138248067Y-104225386D01*
X138343305Y-104177767D01*
X138486162Y-104177767D01*
X138581400Y-104130148D01*
X138629020Y-104034910D01*
X138629020Y-103987291D01*
X138581400Y-103892053D01*
X138486162Y-103844434D01*
X138343305Y-103844434D01*
X138248067Y-103892053D01*
X137771877Y-104415862D02*
X137724258Y-104463481D01*
X137771877Y-104511100D01*
X137819496Y-104463481D01*
X137771877Y-104415862D01*
X137771877Y-104511100D01*
X137771877Y-103892053D02*
X137724258Y-103939672D01*
X137771877Y-103987291D01*
X137819496Y-103939672D01*
X137771877Y-103892053D01*
X137771877Y-103987291D01*
X136581400Y-103463481D02*
X137438543Y-104749196D01*
X135533781Y-103463481D02*
X136390924Y-104749196D01*
X134771877Y-104511100D02*
X134771877Y-103987291D01*
X134819496Y-103892053D01*
X134914734Y-103844434D01*
X135105210Y-103844434D01*
X135200448Y-103892053D01*
X134771877Y-104463481D02*
X134867115Y-104511100D01*
X135105210Y-104511100D01*
X135200448Y-104463481D01*
X135248067Y-104368243D01*
X135248067Y-104273005D01*
X135200448Y-104177767D01*
X135105210Y-104130148D01*
X134867115Y-104130148D01*
X134771877Y-104082529D01*
X134438543Y-103844434D02*
X134057591Y-103844434D01*
X134295686Y-103511100D02*
X134295686Y-104368243D01*
X134248067Y-104463481D01*
X134152829Y-104511100D01*
X134057591Y-104511100D01*
X133867115Y-103844434D02*
X133486162Y-103844434D01*
X133724258Y-103511100D02*
X133724258Y-104368243D01*
X133676639Y-104463481D01*
X133581400Y-104511100D01*
X133486162Y-104511100D01*
X133152829Y-104511100D02*
X133152829Y-103844434D01*
X133152829Y-103511100D02*
X133200448Y-103558720D01*
X133152829Y-103606339D01*
X133105210Y-103558720D01*
X133152829Y-103511100D01*
X133152829Y-103606339D01*
X132676639Y-103844434D02*
X132676639Y-104511100D01*
X132676639Y-103939672D02*
X132629020Y-103892053D01*
X132533781Y-103844434D01*
X132390924Y-103844434D01*
X132295686Y-103892053D01*
X132248067Y-103987291D01*
X132248067Y-104511100D01*
X131867115Y-103844434D02*
X131629020Y-104511100D01*
X131390924Y-103844434D02*
X131629020Y-104511100D01*
X131724258Y-104749196D01*
X131771877Y-104796815D01*
X131867115Y-104844434D01*
X130581400Y-103844434D02*
X130581400Y-104511100D01*
X131009972Y-103844434D02*
X131009972Y-104368243D01*
X130962353Y-104463481D01*
X130867115Y-104511100D01*
X130724258Y-104511100D01*
X130629020Y-104463481D01*
X130581400Y-104415862D01*
X130105210Y-104511100D02*
X130105210Y-103844434D01*
X130105210Y-103511100D02*
X130152829Y-103558720D01*
X130105210Y-103606339D01*
X130057591Y-103558720D01*
X130105210Y-103511100D01*
X130105210Y-103606339D01*
X129629020Y-103844434D02*
X129629020Y-104511100D01*
X129629020Y-103939672D02*
X129581400Y-103892053D01*
X129486162Y-103844434D01*
X129343305Y-103844434D01*
X129248067Y-103892053D01*
X129200448Y-103987291D01*
X129200448Y-104511100D01*
X128581400Y-104511100D02*
X128676639Y-104463481D01*
X128724258Y-104415862D01*
X128771877Y-104320624D01*
X128771877Y-104034910D01*
X128724258Y-103939672D01*
X128676639Y-103892053D01*
X128581400Y-103844434D01*
X128438543Y-103844434D01*
X128343305Y-103892053D01*
X128295686Y-103939672D01*
X128248067Y-104034910D01*
X128248067Y-104320624D01*
X128295686Y-104415862D01*
X128343305Y-104463481D01*
X128438543Y-104511100D01*
X128581400Y-104511100D01*
X127819496Y-104415862D02*
X127771877Y-104463481D01*
X127819496Y-104511100D01*
X127867115Y-104463481D01*
X127819496Y-104415862D01*
X127819496Y-104511100D01*
X126914734Y-104463481D02*
X127009972Y-104511100D01*
X127200448Y-104511100D01*
X127295686Y-104463481D01*
X127343305Y-104415862D01*
X127390924Y-104320624D01*
X127390924Y-104034910D01*
X127343305Y-103939672D01*
X127295686Y-103892053D01*
X127200448Y-103844434D01*
X127009972Y-103844434D01*
X126914734Y-103892053D01*
X126343305Y-104511100D02*
X126438543Y-104463481D01*
X126486162Y-104415862D01*
X126533781Y-104320624D01*
X126533781Y-104034910D01*
X126486162Y-103939672D01*
X126438543Y-103892053D01*
X126343305Y-103844434D01*
X126200448Y-103844434D01*
X126105210Y-103892053D01*
X126057591Y-103939672D01*
X126009972Y-104034910D01*
X126009972Y-104320624D01*
X126057591Y-104415862D01*
X126105210Y-104463481D01*
X126200448Y-104511100D01*
X126343305Y-104511100D01*
X125581400Y-104511100D02*
X125581400Y-103844434D01*
X125581400Y-103939672D02*
X125533781Y-103892053D01*
X125438543Y-103844434D01*
X125295686Y-103844434D01*
X125200448Y-103892053D01*
X125152829Y-103987291D01*
X125152829Y-104511100D01*
X125152829Y-103987291D02*
X125105210Y-103892053D01*
X125009972Y-103844434D01*
X124867115Y-103844434D01*
X124771877Y-103892053D01*
X124724258Y-103987291D01*
X124724258Y-104511100D01*
X121735661Y-113005004D02*
X121735661Y-113652623D01*
X121697566Y-113728814D01*
X121659471Y-113766909D01*
X121583280Y-113805004D01*
X121430900Y-113805004D01*
X121354709Y-113766909D01*
X121316614Y-113728814D01*
X121278519Y-113652623D01*
X121278519Y-113005004D01*
X120935661Y-113766909D02*
X120821376Y-113805004D01*
X120630900Y-113805004D01*
X120554709Y-113766909D01*
X120516614Y-113728814D01*
X120478519Y-113652623D01*
X120478519Y-113576433D01*
X120516614Y-113500242D01*
X120554709Y-113462147D01*
X120630900Y-113424052D01*
X120783280Y-113385957D01*
X120859471Y-113347861D01*
X120897566Y-113309766D01*
X120935661Y-113233576D01*
X120935661Y-113157385D01*
X120897566Y-113081195D01*
X120859471Y-113043100D01*
X120783280Y-113005004D01*
X120592804Y-113005004D01*
X120478519Y-113043100D01*
X119868995Y-113385957D02*
X119754709Y-113424052D01*
X119716614Y-113462147D01*
X119678519Y-113538338D01*
X119678519Y-113652623D01*
X119716614Y-113728814D01*
X119754709Y-113766909D01*
X119830900Y-113805004D01*
X120135661Y-113805004D01*
X120135661Y-113005004D01*
X119868995Y-113005004D01*
X119792804Y-113043100D01*
X119754709Y-113081195D01*
X119716614Y-113157385D01*
X119716614Y-113233576D01*
X119754709Y-113309766D01*
X119792804Y-113347861D01*
X119868995Y-113385957D01*
X120135661Y-113385957D01*
X119335661Y-113500242D02*
X118726138Y-113500242D01*
X119030900Y-113805004D02*
X119030900Y-113195480D01*
X128918554Y-113234814D02*
X128204268Y-113234814D01*
X128632840Y-112806242D02*
X128918554Y-114091957D01*
X128299506Y-113663385D02*
X129013792Y-113663385D01*
X128585220Y-114091957D02*
X128299506Y-112806242D01*
X127918554Y-112996719D02*
X127870935Y-112949100D01*
X127775697Y-112901480D01*
X127537601Y-112901480D01*
X127442363Y-112949100D01*
X127394744Y-112996719D01*
X127347125Y-113091957D01*
X127347125Y-113187195D01*
X127394744Y-113330052D01*
X127966173Y-113901480D01*
X127347125Y-113901480D01*
X130891256Y-112901480D02*
X131367446Y-112901480D01*
X131415065Y-113377671D01*
X131367446Y-113330052D01*
X131272208Y-113282433D01*
X131034113Y-113282433D01*
X130938875Y-113330052D01*
X130891256Y-113377671D01*
X130843637Y-113472909D01*
X130843637Y-113711004D01*
X130891256Y-113806242D01*
X130938875Y-113853861D01*
X131034113Y-113901480D01*
X131272208Y-113901480D01*
X131367446Y-113853861D01*
X131415065Y-113806242D01*
X130557922Y-112901480D02*
X130224589Y-113901480D01*
X129891256Y-112901480D01*
X126381094Y-113234814D02*
X125666808Y-113234814D01*
X126095380Y-112806242D02*
X126381094Y-114091957D01*
X125762046Y-113663385D02*
X126476332Y-113663385D01*
X126047760Y-114091957D02*
X125762046Y-112806242D01*
X124809665Y-113901480D02*
X125381094Y-113901480D01*
X125095380Y-113901480D02*
X125095380Y-112901480D01*
X125190618Y-113044338D01*
X125285856Y-113139576D01*
X125381094Y-113187195D01*
X123874114Y-113234814D02*
X123159828Y-113234814D01*
X123588400Y-112806242D02*
X123874114Y-114091957D01*
X123255066Y-113663385D02*
X123969352Y-113663385D01*
X123540780Y-114091957D02*
X123255066Y-112806242D01*
X122636019Y-112901480D02*
X122540780Y-112901480D01*
X122445542Y-112949100D01*
X122397923Y-112996719D01*
X122350304Y-113091957D01*
X122302685Y-113282433D01*
X122302685Y-113520528D01*
X122350304Y-113711004D01*
X122397923Y-113806242D01*
X122445542Y-113853861D01*
X122540780Y-113901480D01*
X122636019Y-113901480D01*
X122731257Y-113853861D01*
X122778876Y-113806242D01*
X122826495Y-113711004D01*
X122874114Y-113520528D01*
X122874114Y-113282433D01*
X122826495Y-113091957D01*
X122778876Y-112996719D01*
X122731257Y-112949100D01*
X122636019Y-112901480D01*
X121283594Y-84145477D02*
X121169308Y-84183572D01*
X121131213Y-84221667D01*
X121093118Y-84297858D01*
X121093118Y-84412143D01*
X121131213Y-84488334D01*
X121169308Y-84526429D01*
X121245499Y-84564524D01*
X121550260Y-84564524D01*
X121550260Y-83764524D01*
X121283594Y-83764524D01*
X121207403Y-83802620D01*
X121169308Y-83840715D01*
X121131213Y-83916905D01*
X121131213Y-83993096D01*
X121169308Y-84069286D01*
X121207403Y-84107381D01*
X121283594Y-84145477D01*
X121550260Y-84145477D01*
X120788356Y-84335953D02*
X120407403Y-84335953D01*
X120864546Y-84564524D02*
X120597880Y-83764524D01*
X120331213Y-84564524D01*
X120178832Y-83764524D02*
X119721689Y-83764524D01*
X119950260Y-84564524D02*
X119950260Y-83764524D01*
X119455022Y-84259762D02*
X118845499Y-84259762D01*
X119150260Y-84564524D02*
X119150260Y-83955000D01*
X131202375Y-84564524D02*
X131469041Y-84183572D01*
X131659518Y-84564524D02*
X131659518Y-83764524D01*
X131354756Y-83764524D01*
X131278565Y-83802620D01*
X131240470Y-83840715D01*
X131202375Y-83916905D01*
X131202375Y-84031191D01*
X131240470Y-84107381D01*
X131278565Y-84145477D01*
X131354756Y-84183572D01*
X131659518Y-84183572D01*
X130897613Y-84526429D02*
X130783327Y-84564524D01*
X130592851Y-84564524D01*
X130516660Y-84526429D01*
X130478565Y-84488334D01*
X130440470Y-84412143D01*
X130440470Y-84335953D01*
X130478565Y-84259762D01*
X130516660Y-84221667D01*
X130592851Y-84183572D01*
X130745232Y-84145477D01*
X130821422Y-84107381D01*
X130859518Y-84069286D01*
X130897613Y-83993096D01*
X130897613Y-83916905D01*
X130859518Y-83840715D01*
X130821422Y-83802620D01*
X130745232Y-83764524D01*
X130554756Y-83764524D01*
X130440470Y-83802620D01*
X130211899Y-83764524D02*
X129754756Y-83764524D01*
X129983327Y-84564524D02*
X129983327Y-83764524D01*
X123751263Y-83802620D02*
X123827454Y-83764524D01*
X123941740Y-83764524D01*
X124056025Y-83802620D01*
X124132216Y-83878810D01*
X124170311Y-83955000D01*
X124208406Y-84107381D01*
X124208406Y-84221667D01*
X124170311Y-84374048D01*
X124132216Y-84450239D01*
X124056025Y-84526429D01*
X123941740Y-84564524D01*
X123865549Y-84564524D01*
X123751263Y-84526429D01*
X123713168Y-84488334D01*
X123713168Y-84221667D01*
X123865549Y-84221667D01*
X123370311Y-84564524D02*
X123370311Y-83764524D01*
X122913168Y-84564524D01*
X122913168Y-83764524D01*
X122532216Y-84564524D02*
X122532216Y-83764524D01*
X122341740Y-83764524D01*
X122227454Y-83802620D01*
X122151263Y-83878810D01*
X122113168Y-83955000D01*
X122075073Y-84107381D01*
X122075073Y-84221667D01*
X122113168Y-84374048D01*
X122151263Y-84450239D01*
X122227454Y-84526429D01*
X122341740Y-84564524D01*
X122532216Y-84564524D01*
X126472534Y-83994334D02*
X125758248Y-83994334D01*
X126186820Y-83565762D02*
X126472534Y-84851477D01*
X125853486Y-84422905D02*
X126567772Y-84422905D01*
X126139200Y-84851477D02*
X125853486Y-83565762D01*
X124996343Y-83994334D02*
X124996343Y-84661000D01*
X125234439Y-83613381D02*
X125472534Y-84327667D01*
X124853486Y-84327667D01*
X128989674Y-83994334D02*
X128275388Y-83994334D01*
X128703960Y-83565762D02*
X128989674Y-84851477D01*
X128370626Y-84422905D02*
X129084912Y-84422905D01*
X128656340Y-84851477D02*
X128370626Y-83565762D01*
X128037293Y-83661000D02*
X127418245Y-83661000D01*
X127751579Y-84041953D01*
X127608721Y-84041953D01*
X127513483Y-84089572D01*
X127465864Y-84137191D01*
X127418245Y-84232429D01*
X127418245Y-84470524D01*
X127465864Y-84565762D01*
X127513483Y-84613381D01*
X127608721Y-84661000D01*
X127894436Y-84661000D01*
X127989674Y-84613381D01*
X128037293Y-84565762D01*
X117980151Y-94016938D02*
X118027770Y-94159795D01*
X118075389Y-94207414D01*
X118170627Y-94255033D01*
X118313484Y-94255033D01*
X118408722Y-94207414D01*
X118456341Y-94159795D01*
X118503960Y-94064557D01*
X118503960Y-93683604D01*
X117503960Y-93683604D01*
X117503960Y-94016938D01*
X117551580Y-94112176D01*
X117599199Y-94159795D01*
X117694437Y-94207414D01*
X117789675Y-94207414D01*
X117884913Y-94159795D01*
X117932532Y-94112176D01*
X117980151Y-94016938D01*
X117980151Y-93683604D01*
X118218246Y-94635985D02*
X118218246Y-95112176D01*
X118503960Y-94540747D02*
X117503960Y-94874080D01*
X118503960Y-95207414D01*
X118408722Y-96112176D02*
X118456341Y-96064557D01*
X118503960Y-95921700D01*
X118503960Y-95826461D01*
X118456341Y-95683604D01*
X118361103Y-95588366D01*
X118265865Y-95540747D01*
X118075389Y-95493128D01*
X117932532Y-95493128D01*
X117742056Y-95540747D01*
X117646818Y-95588366D01*
X117551580Y-95683604D01*
X117503960Y-95826461D01*
X117503960Y-95921700D01*
X117551580Y-96064557D01*
X117599199Y-96112176D01*
X118503960Y-96540747D02*
X117503960Y-96540747D01*
X118503960Y-97112176D02*
X117932532Y-96683604D01*
X117503960Y-97112176D02*
X118075389Y-96540747D01*
X118456341Y-98255033D02*
X118503960Y-98397890D01*
X118503960Y-98635985D01*
X118456341Y-98731223D01*
X118408722Y-98778842D01*
X118313484Y-98826461D01*
X118218246Y-98826461D01*
X118123008Y-98778842D01*
X118075389Y-98731223D01*
X118027770Y-98635985D01*
X117980151Y-98445509D01*
X117932532Y-98350271D01*
X117884913Y-98302652D01*
X117789675Y-98255033D01*
X117694437Y-98255033D01*
X117599199Y-98302652D01*
X117551580Y-98350271D01*
X117503960Y-98445509D01*
X117503960Y-98683604D01*
X117551580Y-98826461D01*
X118503960Y-99255033D02*
X117503960Y-99255033D01*
X118503960Y-99731223D02*
X117503960Y-99731223D01*
X117503960Y-99969319D01*
X117551580Y-100112176D01*
X117646818Y-100207414D01*
X117742056Y-100255033D01*
X117932532Y-100302652D01*
X118075389Y-100302652D01*
X118265865Y-100255033D01*
X118361103Y-100207414D01*
X118456341Y-100112176D01*
X118503960Y-99969319D01*
X118503960Y-99731223D01*
X117980151Y-100731223D02*
X117980151Y-101064557D01*
X118503960Y-101207414D02*
X118503960Y-100731223D01*
X117503960Y-100731223D01*
X117503960Y-101207414D01*
X116860152Y-87061300D02*
X117193485Y-86585110D01*
X117431580Y-87061300D02*
X117431580Y-86061300D01*
X117050628Y-86061300D01*
X116955390Y-86108920D01*
X116907771Y-86156539D01*
X116860152Y-86251777D01*
X116860152Y-86394634D01*
X116907771Y-86489872D01*
X116955390Y-86537491D01*
X117050628Y-86585110D01*
X117431580Y-86585110D01*
X116669676Y-87156539D02*
X115907771Y-87156539D01*
X115717295Y-86156539D02*
X115669676Y-86108920D01*
X115574438Y-86061300D01*
X115336342Y-86061300D01*
X115241104Y-86108920D01*
X115193485Y-86156539D01*
X115145866Y-86251777D01*
X115145866Y-86347015D01*
X115193485Y-86489872D01*
X115764914Y-87061300D01*
X115145866Y-87061300D01*
X114526819Y-86061300D02*
X114431580Y-86061300D01*
X114336342Y-86108920D01*
X114288723Y-86156539D01*
X114241104Y-86251777D01*
X114193485Y-86442253D01*
X114193485Y-86680348D01*
X114241104Y-86870824D01*
X114288723Y-86966062D01*
X114336342Y-87013681D01*
X114431580Y-87061300D01*
X114526819Y-87061300D01*
X114622057Y-87013681D01*
X114669676Y-86966062D01*
X114717295Y-86870824D01*
X114764914Y-86680348D01*
X114764914Y-86442253D01*
X114717295Y-86251777D01*
X114669676Y-86156539D01*
X114622057Y-86108920D01*
X114526819Y-86061300D01*
X113241104Y-87061300D02*
X113812533Y-87061300D01*
X113526819Y-87061300D02*
X113526819Y-86061300D01*
X113622057Y-86204158D01*
X113717295Y-86299396D01*
X113812533Y-86347015D01*
X112669676Y-86489872D02*
X112764914Y-86442253D01*
X112812533Y-86394634D01*
X112860152Y-86299396D01*
X112860152Y-86251777D01*
X112812533Y-86156539D01*
X112764914Y-86108920D01*
X112669676Y-86061300D01*
X112479200Y-86061300D01*
X112383961Y-86108920D01*
X112336342Y-86156539D01*
X112288723Y-86251777D01*
X112288723Y-86299396D01*
X112336342Y-86394634D01*
X112383961Y-86442253D01*
X112479200Y-86489872D01*
X112669676Y-86489872D01*
X112764914Y-86537491D01*
X112812533Y-86585110D01*
X112860152Y-86680348D01*
X112860152Y-86870824D01*
X112812533Y-86966062D01*
X112764914Y-87013681D01*
X112669676Y-87061300D01*
X112479200Y-87061300D01*
X112383961Y-87013681D01*
X112336342Y-86966062D01*
X112288723Y-86870824D01*
X112288723Y-86680348D01*
X112336342Y-86585110D01*
X112383961Y-86537491D01*
X112479200Y-86489872D01*
X111669676Y-86061300D02*
X111574438Y-86061300D01*
X111479200Y-86108920D01*
X111431580Y-86156539D01*
X111383961Y-86251777D01*
X111336342Y-86442253D01*
X111336342Y-86680348D01*
X111383961Y-86870824D01*
X111431580Y-86966062D01*
X111479200Y-87013681D01*
X111574438Y-87061300D01*
X111669676Y-87061300D01*
X111764914Y-87013681D01*
X111812533Y-86966062D01*
X111860152Y-86870824D01*
X111907771Y-86680348D01*
X111907771Y-86442253D01*
X111860152Y-86251777D01*
X111812533Y-86156539D01*
X111764914Y-86108920D01*
X111669676Y-86061300D01*
X110860152Y-87061300D02*
X110669676Y-87061300D01*
X110574438Y-87013681D01*
X110526819Y-86966062D01*
X110431580Y-86823205D01*
X110383961Y-86632729D01*
X110383961Y-86251777D01*
X110431580Y-86156539D01*
X110479200Y-86108920D01*
X110574438Y-86061300D01*
X110764914Y-86061300D01*
X110860152Y-86108920D01*
X110907771Y-86156539D01*
X110955390Y-86251777D01*
X110955390Y-86489872D01*
X110907771Y-86585110D01*
X110860152Y-86632729D01*
X110764914Y-86680348D01*
X110574438Y-86680348D01*
X110479200Y-86632729D01*
X110431580Y-86585110D01*
X110383961Y-86489872D01*
X109764914Y-86061300D02*
X109669676Y-86061300D01*
X109574438Y-86108920D01*
X109526819Y-86156539D01*
X109479200Y-86251777D01*
X109431580Y-86442253D01*
X109431580Y-86680348D01*
X109479200Y-86870824D01*
X109526819Y-86966062D01*
X109574438Y-87013681D01*
X109669676Y-87061300D01*
X109764914Y-87061300D01*
X109860152Y-87013681D01*
X109907771Y-86966062D01*
X109955390Y-86870824D01*
X110003009Y-86680348D01*
X110003009Y-86442253D01*
X109955390Y-86251777D01*
X109907771Y-86156539D01*
X109860152Y-86108920D01*
X109764914Y-86061300D01*
X108955390Y-87061300D02*
X108764914Y-87061300D01*
X108669676Y-87013681D01*
X108622057Y-86966062D01*
X108526819Y-86823205D01*
X108479200Y-86632729D01*
X108479200Y-86251777D01*
X108526819Y-86156539D01*
X108574438Y-86108920D01*
X108669676Y-86061300D01*
X108860152Y-86061300D01*
X108955390Y-86108920D01*
X109003009Y-86156539D01*
X109050628Y-86251777D01*
X109050628Y-86489872D01*
X109003009Y-86585110D01*
X108955390Y-86632729D01*
X108860152Y-86680348D01*
X108669676Y-86680348D01*
X108574438Y-86632729D01*
X108526819Y-86585110D01*
X108479200Y-86489872D01*
X146378993Y-96069422D02*
X146426612Y-96117041D01*
X146569469Y-96164660D01*
X146664707Y-96164660D01*
X146807564Y-96117041D01*
X146902802Y-96021803D01*
X146950421Y-95926565D01*
X146998040Y-95736089D01*
X146998040Y-95593232D01*
X146950421Y-95402756D01*
X146902802Y-95307518D01*
X146807564Y-95212280D01*
X146664707Y-95164660D01*
X146569469Y-95164660D01*
X146426612Y-95212280D01*
X146378993Y-95259899D01*
X145378993Y-96069422D02*
X145426612Y-96117041D01*
X145569469Y-96164660D01*
X145664707Y-96164660D01*
X145807564Y-96117041D01*
X145902802Y-96021803D01*
X145950421Y-95926565D01*
X145998040Y-95736089D01*
X145998040Y-95593232D01*
X145950421Y-95402756D01*
X145902802Y-95307518D01*
X145807564Y-95212280D01*
X145664707Y-95164660D01*
X145569469Y-95164660D01*
X145426612Y-95212280D01*
X145378993Y-95259899D01*
X143855183Y-95640851D02*
X143712326Y-95688470D01*
X143664707Y-95736089D01*
X143617088Y-95831327D01*
X143617088Y-95974184D01*
X143664707Y-96069422D01*
X143712326Y-96117041D01*
X143807564Y-96164660D01*
X144188516Y-96164660D01*
X144188516Y-95164660D01*
X143855183Y-95164660D01*
X143759945Y-95212280D01*
X143712326Y-95259899D01*
X143664707Y-95355137D01*
X143664707Y-95450375D01*
X143712326Y-95545613D01*
X143759945Y-95593232D01*
X143855183Y-95640851D01*
X144188516Y-95640851D01*
X142998040Y-95688470D02*
X142998040Y-96164660D01*
X143331374Y-95164660D02*
X142998040Y-95688470D01*
X142664707Y-95164660D01*
X142331374Y-95783708D02*
X141569469Y-95783708D01*
X141140897Y-96117041D02*
X140998040Y-96164660D01*
X140759945Y-96164660D01*
X140664707Y-96117041D01*
X140617088Y-96069422D01*
X140569469Y-95974184D01*
X140569469Y-95878946D01*
X140617088Y-95783708D01*
X140664707Y-95736089D01*
X140759945Y-95688470D01*
X140950421Y-95640851D01*
X141045659Y-95593232D01*
X141093278Y-95545613D01*
X141140897Y-95450375D01*
X141140897Y-95355137D01*
X141093278Y-95259899D01*
X141045659Y-95212280D01*
X140950421Y-95164660D01*
X140712326Y-95164660D01*
X140569469Y-95212280D01*
X140188516Y-95878946D02*
X139712326Y-95878946D01*
X140283755Y-96164660D02*
X139950421Y-95164660D01*
X139617088Y-96164660D01*
X138093278Y-95497994D02*
X138093278Y-96164660D01*
X138331374Y-95117041D02*
X138569469Y-95831327D01*
X137950421Y-95831327D01*
X137569469Y-96069422D02*
X137521850Y-96117041D01*
X137569469Y-96164660D01*
X137617088Y-96117041D01*
X137569469Y-96069422D01*
X137569469Y-96164660D01*
X136902802Y-95164660D02*
X136807564Y-95164660D01*
X136712326Y-95212280D01*
X136664707Y-95259899D01*
X136617088Y-95355137D01*
X136569469Y-95545613D01*
X136569469Y-95783708D01*
X136617088Y-95974184D01*
X136664707Y-96069422D01*
X136712326Y-96117041D01*
X136807564Y-96164660D01*
X136902802Y-96164660D01*
X136998040Y-96117041D01*
X137045659Y-96069422D01*
X137093278Y-95974184D01*
X137140897Y-95783708D01*
X137140897Y-95545613D01*
X137093278Y-95355137D01*
X137045659Y-95259899D01*
X136998040Y-95212280D01*
X136902802Y-95164660D01*
X99590325Y-96479337D02*
X99376040Y-96550765D01*
X99304611Y-96622194D01*
X99233182Y-96765051D01*
X99233182Y-96979337D01*
X99304611Y-97122194D01*
X99376040Y-97193622D01*
X99518897Y-97265051D01*
X100090325Y-97265051D01*
X100090325Y-95765051D01*
X99590325Y-95765051D01*
X99447468Y-95836480D01*
X99376040Y-95907908D01*
X99304611Y-96050765D01*
X99304611Y-96193622D01*
X99376040Y-96336480D01*
X99447468Y-96407908D01*
X99590325Y-96479337D01*
X100090325Y-96479337D01*
X98733182Y-96265051D02*
X98376040Y-97265051D01*
X98018897Y-96265051D02*
X98376040Y-97265051D01*
X98518897Y-97622194D01*
X98590325Y-97693622D01*
X98733182Y-97765051D01*
X102233182Y-98856337D02*
X101733182Y-98856337D01*
X101518897Y-99642051D02*
X102233182Y-99642051D01*
X102233182Y-98142051D01*
X101518897Y-98142051D01*
X100661754Y-99642051D02*
X100804611Y-99570622D01*
X100876040Y-99427765D01*
X100876040Y-98142051D01*
X99447468Y-99642051D02*
X99447468Y-98856337D01*
X99518897Y-98713480D01*
X99661754Y-98642051D01*
X99947468Y-98642051D01*
X100090325Y-98713480D01*
X99447468Y-99570622D02*
X99590325Y-99642051D01*
X99947468Y-99642051D01*
X100090325Y-99570622D01*
X100161754Y-99427765D01*
X100161754Y-99284908D01*
X100090325Y-99142051D01*
X99947468Y-99070622D01*
X99590325Y-99070622D01*
X99447468Y-98999194D01*
X98090325Y-99642051D02*
X98090325Y-98142051D01*
X98090325Y-99570622D02*
X98233182Y-99642051D01*
X98518897Y-99642051D01*
X98661754Y-99570622D01*
X98733182Y-99499194D01*
X98804611Y-99356337D01*
X98804611Y-98927765D01*
X98733182Y-98784908D01*
X98661754Y-98713480D01*
X98518897Y-98642051D01*
X98233182Y-98642051D01*
X98090325Y-98713480D01*
X97376040Y-99642051D02*
X97376040Y-98642051D01*
X97376040Y-98142051D02*
X97447468Y-98213480D01*
X97376040Y-98284908D01*
X97304611Y-98213480D01*
X97376040Y-98142051D01*
X97376040Y-98284908D01*
X96447468Y-99642051D02*
X96590325Y-99570622D01*
X96661754Y-99499194D01*
X96733182Y-99356337D01*
X96733182Y-98927765D01*
X96661754Y-98784908D01*
X96590325Y-98713480D01*
X96447468Y-98642051D01*
X96233182Y-98642051D01*
X96090325Y-98713480D01*
X96018897Y-98784908D01*
X95947468Y-98927765D01*
X95947468Y-99356337D01*
X96018897Y-99499194D01*
X96090325Y-99570622D01*
X96233182Y-99642051D01*
X96447468Y-99642051D01*
X103483182Y-102019051D02*
X103483182Y-100519051D01*
X102983182Y-101590480D01*
X102483182Y-100519051D01*
X102483182Y-102019051D01*
X101126040Y-102019051D02*
X101126040Y-101233337D01*
X101197468Y-101090480D01*
X101340325Y-101019051D01*
X101626040Y-101019051D01*
X101768897Y-101090480D01*
X101126040Y-101947622D02*
X101268897Y-102019051D01*
X101626040Y-102019051D01*
X101768897Y-101947622D01*
X101840325Y-101804765D01*
X101840325Y-101661908D01*
X101768897Y-101519051D01*
X101626040Y-101447622D01*
X101268897Y-101447622D01*
X101126040Y-101376194D01*
X100411754Y-102019051D02*
X100411754Y-101019051D01*
X100411754Y-101304765D02*
X100340325Y-101161908D01*
X100268897Y-101090480D01*
X100126040Y-101019051D01*
X99983182Y-101019051D01*
X99697468Y-101019051D02*
X99126040Y-101019051D01*
X99483182Y-100519051D02*
X99483182Y-101804765D01*
X99411754Y-101947622D01*
X99268897Y-102019051D01*
X99126040Y-102019051D01*
X98626040Y-102019051D02*
X98626040Y-101019051D01*
X98626040Y-100519051D02*
X98697468Y-100590480D01*
X98626040Y-100661908D01*
X98554611Y-100590480D01*
X98626040Y-100519051D01*
X98626040Y-100661908D01*
X97911754Y-101019051D02*
X97911754Y-102019051D01*
X97911754Y-101161908D02*
X97840325Y-101090480D01*
X97697468Y-101019051D01*
X97483182Y-101019051D01*
X97340325Y-101090480D01*
X97268897Y-101233337D01*
X97268897Y-102019051D01*
X95983182Y-101947622D02*
X96126040Y-102019051D01*
X96411754Y-102019051D01*
X96554611Y-101947622D01*
X96626040Y-101804765D01*
X96626040Y-101233337D01*
X96554611Y-101090480D01*
X96411754Y-101019051D01*
X96126040Y-101019051D01*
X95983182Y-101090480D01*
X95911754Y-101233337D01*
X95911754Y-101376194D01*
X96626040Y-101519051D01*
X95411754Y-101019051D02*
X94626040Y-101019051D01*
X95411754Y-102019051D01*
X94626040Y-102019051D01*
D11*
X140890924Y-101661553D02*
X139938543Y-101661553D01*
X141081400Y-102232981D02*
X140414734Y-100232981D01*
X139748067Y-102232981D01*
X139367115Y-100232981D02*
X138224258Y-100232981D01*
X138795686Y-102232981D02*
X138795686Y-100232981D01*
X137843305Y-100232981D02*
X136700448Y-100232981D01*
X137271877Y-102232981D02*
X137271877Y-100232981D01*
X136033781Y-102232981D02*
X136033781Y-100899648D01*
X136033781Y-100232981D02*
X136129020Y-100328220D01*
X136033781Y-100423458D01*
X135938543Y-100328220D01*
X136033781Y-100232981D01*
X136033781Y-100423458D01*
X135081400Y-100899648D02*
X135081400Y-102232981D01*
X135081400Y-101090124D02*
X134986162Y-100994886D01*
X134795686Y-100899648D01*
X134509972Y-100899648D01*
X134319496Y-100994886D01*
X134224258Y-101185362D01*
X134224258Y-102232981D01*
X133462353Y-100899648D02*
X132986162Y-102232981D01*
X132509972Y-100899648D02*
X132986162Y-102232981D01*
X133176639Y-102709172D01*
X133271877Y-102804410D01*
X133462353Y-102899648D01*
X131748067Y-100232981D02*
X131748067Y-101852029D01*
X131652829Y-102042505D01*
X131557591Y-102137743D01*
X131367115Y-102232981D01*
X130986162Y-102232981D01*
X130795686Y-102137743D01*
X130700448Y-102042505D01*
X130605210Y-101852029D01*
X130605210Y-100232981D01*
X129652829Y-102232981D02*
X129652829Y-100232981D01*
X128700448Y-102232981D02*
X128700448Y-100232981D01*
X127557591Y-102232981D01*
X127557591Y-100232981D01*
X126224258Y-100232981D02*
X125843305Y-100232981D01*
X125652829Y-100328220D01*
X125462353Y-100518696D01*
X125367115Y-100899648D01*
X125367115Y-101566315D01*
X125462353Y-101947267D01*
X125652829Y-102137743D01*
X125843305Y-102232981D01*
X126224258Y-102232981D01*
X126414734Y-102137743D01*
X126605210Y-101947267D01*
X126700448Y-101566315D01*
X126700448Y-100899648D01*
X126605210Y-100518696D01*
X126414734Y-100328220D01*
X126224258Y-100232981D01*
D12*
G04 #@! TO.C,REF02*
G36*
X141291996Y-87104516D02*
X141216447Y-87505262D01*
X140658919Y-87735094D01*
X140324495Y-87507688D01*
X140230838Y-87444371D01*
X140146178Y-87387836D01*
X140074465Y-87340667D01*
X140019649Y-87305442D01*
X139985680Y-87284745D01*
X139976430Y-87280282D01*
X139959765Y-87291760D01*
X139924154Y-87323491D01*
X139873589Y-87371423D01*
X139812060Y-87431502D01*
X139743561Y-87499673D01*
X139672081Y-87571885D01*
X139601613Y-87644082D01*
X139536149Y-87712213D01*
X139479680Y-87772223D01*
X139436197Y-87820059D01*
X139409692Y-87851667D01*
X139403355Y-87862245D01*
X139412474Y-87881746D01*
X139438040Y-87924471D01*
X139477363Y-87986238D01*
X139527757Y-88062871D01*
X139586533Y-88150188D01*
X139620592Y-88199992D01*
X139682671Y-88290933D01*
X139737834Y-88372999D01*
X139783406Y-88442103D01*
X139816710Y-88494162D01*
X139835070Y-88525090D01*
X139837829Y-88531590D01*
X139831575Y-88550061D01*
X139814526Y-88593112D01*
X139789257Y-88654689D01*
X139758338Y-88728739D01*
X139724342Y-88809210D01*
X139689842Y-88890047D01*
X139657409Y-88965198D01*
X139629617Y-89028611D01*
X139609037Y-89074233D01*
X139598241Y-89096009D01*
X139597604Y-89096866D01*
X139580653Y-89101024D01*
X139535509Y-89110301D01*
X139466850Y-89123784D01*
X139379358Y-89140561D01*
X139277710Y-89159721D01*
X139218404Y-89170770D01*
X139109788Y-89191450D01*
X139011683Y-89211129D01*
X138929051Y-89228729D01*
X138866856Y-89243173D01*
X138830061Y-89253386D01*
X138822664Y-89256626D01*
X138815420Y-89278557D01*
X138809575Y-89328087D01*
X138805125Y-89399425D01*
X138802067Y-89486779D01*
X138800395Y-89584357D01*
X138800107Y-89686366D01*
X138801199Y-89787015D01*
X138803666Y-89880512D01*
X138807504Y-89961065D01*
X138812710Y-90022882D01*
X138819279Y-90060170D01*
X138823219Y-90067933D01*
X138846772Y-90077238D01*
X138896678Y-90090540D01*
X138966337Y-90106277D01*
X139049147Y-90122886D01*
X139078055Y-90128259D01*
X139217429Y-90153788D01*
X139327524Y-90174348D01*
X139411978Y-90190755D01*
X139474430Y-90203827D01*
X139518516Y-90214381D01*
X139547875Y-90223234D01*
X139566145Y-90231203D01*
X139576962Y-90239105D01*
X139578475Y-90240667D01*
X139593583Y-90265826D01*
X139616631Y-90314790D01*
X139645316Y-90381561D01*
X139677338Y-90460145D01*
X139710395Y-90544547D01*
X139742187Y-90628770D01*
X139770411Y-90706819D01*
X139792767Y-90772699D01*
X139806953Y-90820413D01*
X139810667Y-90843967D01*
X139810358Y-90844792D01*
X139797771Y-90864044D01*
X139769216Y-90906403D01*
X139727693Y-90967461D01*
X139676204Y-91042808D01*
X139617749Y-91128036D01*
X139601102Y-91152255D01*
X139541745Y-91240063D01*
X139489513Y-91320178D01*
X139447252Y-91388002D01*
X139417807Y-91438933D01*
X139404023Y-91468371D01*
X139403355Y-91471988D01*
X139414936Y-91490997D01*
X139446936Y-91528654D01*
X139495242Y-91580913D01*
X139555740Y-91643726D01*
X139624316Y-91713046D01*
X139696856Y-91784825D01*
X139769248Y-91855017D01*
X139837376Y-91919575D01*
X139897128Y-91974450D01*
X139944389Y-92015596D01*
X139975047Y-92038966D01*
X139983528Y-92042782D01*
X140003269Y-92033795D01*
X140043686Y-92009556D01*
X140098197Y-91974149D01*
X140140137Y-91945651D01*
X140216131Y-91893358D01*
X140306126Y-91831785D01*
X140396396Y-91770310D01*
X140444928Y-91737409D01*
X140609198Y-91626299D01*
X140747091Y-91700856D01*
X140809911Y-91733518D01*
X140863331Y-91758906D01*
X140899476Y-91773386D01*
X140908676Y-91775400D01*
X140919739Y-91760524D01*
X140941566Y-91718487D01*
X140972526Y-91653167D01*
X141010990Y-91568440D01*
X141055328Y-91468185D01*
X141103913Y-91356279D01*
X141155114Y-91236599D01*
X141207301Y-91113024D01*
X141258847Y-90989431D01*
X141308120Y-90869697D01*
X141353493Y-90757699D01*
X141393335Y-90657317D01*
X141426018Y-90572426D01*
X141449911Y-90506905D01*
X141463386Y-90464630D01*
X141465554Y-90450112D01*
X141448377Y-90431593D01*
X141410770Y-90401530D01*
X141360594Y-90366172D01*
X141356382Y-90363374D01*
X141226696Y-90259565D01*
X141122126Y-90138455D01*
X141043579Y-90003916D01*
X140991961Y-89859822D01*
X140968178Y-89710045D01*
X140973137Y-89558457D01*
X141007743Y-89408932D01*
X141072903Y-89265340D01*
X141092074Y-89233924D01*
X141191786Y-89107065D01*
X141309583Y-89005195D01*
X141441389Y-88928844D01*
X141583127Y-88878542D01*
X141730718Y-88854819D01*
X141880087Y-88858205D01*
X142027157Y-88889228D01*
X142167849Y-88948420D01*
X142298087Y-89036309D01*
X142338374Y-89071982D01*
X142440905Y-89183646D01*
X142515619Y-89301197D01*
X142566870Y-89432960D01*
X142595414Y-89563447D01*
X142602460Y-89710156D01*
X142578964Y-89857593D01*
X142527311Y-90000774D01*
X142449889Y-90134717D01*
X142349085Y-90254438D01*
X142227284Y-90354954D01*
X142211276Y-90365549D01*
X142160562Y-90400246D01*
X142122010Y-90430310D01*
X142103579Y-90449505D01*
X142103311Y-90450112D01*
X142107268Y-90470876D01*
X142122953Y-90518002D01*
X142148738Y-90587613D01*
X142182991Y-90675833D01*
X142224083Y-90778784D01*
X142270384Y-90892590D01*
X142320264Y-91013375D01*
X142372093Y-91137261D01*
X142424241Y-91260372D01*
X142475078Y-91378831D01*
X142522973Y-91488763D01*
X142566298Y-91586289D01*
X142603422Y-91667533D01*
X142632716Y-91728619D01*
X142652548Y-91765670D01*
X142660534Y-91775400D01*
X142684939Y-91767823D01*
X142730602Y-91747500D01*
X142789650Y-91718065D01*
X142822120Y-91700856D01*
X142960013Y-91626299D01*
X143124283Y-91737409D01*
X143208139Y-91794330D01*
X143299947Y-91856970D01*
X143385980Y-91915951D01*
X143429073Y-91945651D01*
X143489683Y-91986350D01*
X143541005Y-92018603D01*
X143576345Y-92038324D01*
X143587823Y-92042494D01*
X143604530Y-92031247D01*
X143641506Y-91999851D01*
X143695165Y-91951564D01*
X143761922Y-91889648D01*
X143838194Y-91817361D01*
X143886433Y-91770948D01*
X143970827Y-91688027D01*
X144043763Y-91613860D01*
X144102291Y-91551620D01*
X144143463Y-91504481D01*
X144164332Y-91475613D01*
X144166334Y-91469755D01*
X144157043Y-91447472D01*
X144131369Y-91402417D01*
X144092160Y-91339151D01*
X144042263Y-91262235D01*
X143984527Y-91176232D01*
X143968109Y-91152255D01*
X143908283Y-91065110D01*
X143854610Y-90986650D01*
X143810090Y-90921285D01*
X143777725Y-90873424D01*
X143760515Y-90847475D01*
X143758853Y-90844792D01*
X143761339Y-90824112D01*
X143774537Y-90778644D01*
X143796146Y-90714384D01*
X143823864Y-90637327D01*
X143855390Y-90553469D01*
X143888423Y-90468806D01*
X143920661Y-90389332D01*
X143949803Y-90321044D01*
X143973548Y-90269937D01*
X143989595Y-90242007D01*
X143990735Y-90240667D01*
X144000548Y-90232685D01*
X144017121Y-90224791D01*
X144044092Y-90216169D01*
X144085099Y-90206002D01*
X144143780Y-90193471D01*
X144223773Y-90177761D01*
X144328715Y-90158053D01*
X144462245Y-90133532D01*
X144491156Y-90128259D01*
X144576842Y-90111704D01*
X144651542Y-90095509D01*
X144708654Y-90081236D01*
X144741577Y-90070448D01*
X144745991Y-90067933D01*
X144753266Y-90045636D01*
X144759179Y-89995809D01*
X144763726Y-89924244D01*
X144766905Y-89836733D01*
X144768709Y-89739068D01*
X144769137Y-89637041D01*
X144768183Y-89536443D01*
X144765844Y-89443067D01*
X144762116Y-89362705D01*
X144756994Y-89301149D01*
X144750476Y-89264190D01*
X144746546Y-89256626D01*
X144724668Y-89248996D01*
X144674851Y-89236582D01*
X144602057Y-89220462D01*
X144511249Y-89201713D01*
X144407391Y-89181411D01*
X144350806Y-89170770D01*
X144243446Y-89150700D01*
X144147706Y-89132520D01*
X144068266Y-89117139D01*
X144009806Y-89105471D01*
X143977005Y-89098428D01*
X143971606Y-89096866D01*
X143962482Y-89079262D01*
X143943195Y-89036858D01*
X143916315Y-88975712D01*
X143884414Y-88901883D01*
X143850062Y-88821429D01*
X143815831Y-88740408D01*
X143784291Y-88664877D01*
X143758014Y-88600895D01*
X143739571Y-88554520D01*
X143731531Y-88531809D01*
X143731382Y-88530816D01*
X143740495Y-88512901D01*
X143766046Y-88471673D01*
X143805348Y-88411231D01*
X143855717Y-88335671D01*
X143914466Y-88249092D01*
X143948618Y-88199361D01*
X144010850Y-88108176D01*
X144066124Y-88025389D01*
X144111742Y-87955189D01*
X144145008Y-87901764D01*
X144163224Y-87869301D01*
X144165855Y-87862023D01*
X144154546Y-87845085D01*
X144123279Y-87808918D01*
X144076050Y-87757575D01*
X144016852Y-87695107D01*
X143949679Y-87625566D01*
X143878526Y-87553005D01*
X143807386Y-87481475D01*
X143740253Y-87415027D01*
X143681121Y-87357714D01*
X143633985Y-87313587D01*
X143602837Y-87286699D01*
X143592417Y-87280282D01*
X143575451Y-87289305D01*
X143534871Y-87314655D01*
X143474623Y-87353750D01*
X143398653Y-87404011D01*
X143310906Y-87462857D01*
X143244716Y-87507688D01*
X142910292Y-87735094D01*
X142631527Y-87620178D01*
X142352763Y-87505262D01*
X142277214Y-87104516D01*
X142201666Y-86703769D01*
X141367545Y-86703769D01*
X141291996Y-87104516D01*
X141291996Y-87104516D01*
G37*
X141291996Y-87104516D02*
X141216447Y-87505262D01*
X140658919Y-87735094D01*
X140324495Y-87507688D01*
X140230838Y-87444371D01*
X140146178Y-87387836D01*
X140074465Y-87340667D01*
X140019649Y-87305442D01*
X139985680Y-87284745D01*
X139976430Y-87280282D01*
X139959765Y-87291760D01*
X139924154Y-87323491D01*
X139873589Y-87371423D01*
X139812060Y-87431502D01*
X139743561Y-87499673D01*
X139672081Y-87571885D01*
X139601613Y-87644082D01*
X139536149Y-87712213D01*
X139479680Y-87772223D01*
X139436197Y-87820059D01*
X139409692Y-87851667D01*
X139403355Y-87862245D01*
X139412474Y-87881746D01*
X139438040Y-87924471D01*
X139477363Y-87986238D01*
X139527757Y-88062871D01*
X139586533Y-88150188D01*
X139620592Y-88199992D01*
X139682671Y-88290933D01*
X139737834Y-88372999D01*
X139783406Y-88442103D01*
X139816710Y-88494162D01*
X139835070Y-88525090D01*
X139837829Y-88531590D01*
X139831575Y-88550061D01*
X139814526Y-88593112D01*
X139789257Y-88654689D01*
X139758338Y-88728739D01*
X139724342Y-88809210D01*
X139689842Y-88890047D01*
X139657409Y-88965198D01*
X139629617Y-89028611D01*
X139609037Y-89074233D01*
X139598241Y-89096009D01*
X139597604Y-89096866D01*
X139580653Y-89101024D01*
X139535509Y-89110301D01*
X139466850Y-89123784D01*
X139379358Y-89140561D01*
X139277710Y-89159721D01*
X139218404Y-89170770D01*
X139109788Y-89191450D01*
X139011683Y-89211129D01*
X138929051Y-89228729D01*
X138866856Y-89243173D01*
X138830061Y-89253386D01*
X138822664Y-89256626D01*
X138815420Y-89278557D01*
X138809575Y-89328087D01*
X138805125Y-89399425D01*
X138802067Y-89486779D01*
X138800395Y-89584357D01*
X138800107Y-89686366D01*
X138801199Y-89787015D01*
X138803666Y-89880512D01*
X138807504Y-89961065D01*
X138812710Y-90022882D01*
X138819279Y-90060170D01*
X138823219Y-90067933D01*
X138846772Y-90077238D01*
X138896678Y-90090540D01*
X138966337Y-90106277D01*
X139049147Y-90122886D01*
X139078055Y-90128259D01*
X139217429Y-90153788D01*
X139327524Y-90174348D01*
X139411978Y-90190755D01*
X139474430Y-90203827D01*
X139518516Y-90214381D01*
X139547875Y-90223234D01*
X139566145Y-90231203D01*
X139576962Y-90239105D01*
X139578475Y-90240667D01*
X139593583Y-90265826D01*
X139616631Y-90314790D01*
X139645316Y-90381561D01*
X139677338Y-90460145D01*
X139710395Y-90544547D01*
X139742187Y-90628770D01*
X139770411Y-90706819D01*
X139792767Y-90772699D01*
X139806953Y-90820413D01*
X139810667Y-90843967D01*
X139810358Y-90844792D01*
X139797771Y-90864044D01*
X139769216Y-90906403D01*
X139727693Y-90967461D01*
X139676204Y-91042808D01*
X139617749Y-91128036D01*
X139601102Y-91152255D01*
X139541745Y-91240063D01*
X139489513Y-91320178D01*
X139447252Y-91388002D01*
X139417807Y-91438933D01*
X139404023Y-91468371D01*
X139403355Y-91471988D01*
X139414936Y-91490997D01*
X139446936Y-91528654D01*
X139495242Y-91580913D01*
X139555740Y-91643726D01*
X139624316Y-91713046D01*
X139696856Y-91784825D01*
X139769248Y-91855017D01*
X139837376Y-91919575D01*
X139897128Y-91974450D01*
X139944389Y-92015596D01*
X139975047Y-92038966D01*
X139983528Y-92042782D01*
X140003269Y-92033795D01*
X140043686Y-92009556D01*
X140098197Y-91974149D01*
X140140137Y-91945651D01*
X140216131Y-91893358D01*
X140306126Y-91831785D01*
X140396396Y-91770310D01*
X140444928Y-91737409D01*
X140609198Y-91626299D01*
X140747091Y-91700856D01*
X140809911Y-91733518D01*
X140863331Y-91758906D01*
X140899476Y-91773386D01*
X140908676Y-91775400D01*
X140919739Y-91760524D01*
X140941566Y-91718487D01*
X140972526Y-91653167D01*
X141010990Y-91568440D01*
X141055328Y-91468185D01*
X141103913Y-91356279D01*
X141155114Y-91236599D01*
X141207301Y-91113024D01*
X141258847Y-90989431D01*
X141308120Y-90869697D01*
X141353493Y-90757699D01*
X141393335Y-90657317D01*
X141426018Y-90572426D01*
X141449911Y-90506905D01*
X141463386Y-90464630D01*
X141465554Y-90450112D01*
X141448377Y-90431593D01*
X141410770Y-90401530D01*
X141360594Y-90366172D01*
X141356382Y-90363374D01*
X141226696Y-90259565D01*
X141122126Y-90138455D01*
X141043579Y-90003916D01*
X140991961Y-89859822D01*
X140968178Y-89710045D01*
X140973137Y-89558457D01*
X141007743Y-89408932D01*
X141072903Y-89265340D01*
X141092074Y-89233924D01*
X141191786Y-89107065D01*
X141309583Y-89005195D01*
X141441389Y-88928844D01*
X141583127Y-88878542D01*
X141730718Y-88854819D01*
X141880087Y-88858205D01*
X142027157Y-88889228D01*
X142167849Y-88948420D01*
X142298087Y-89036309D01*
X142338374Y-89071982D01*
X142440905Y-89183646D01*
X142515619Y-89301197D01*
X142566870Y-89432960D01*
X142595414Y-89563447D01*
X142602460Y-89710156D01*
X142578964Y-89857593D01*
X142527311Y-90000774D01*
X142449889Y-90134717D01*
X142349085Y-90254438D01*
X142227284Y-90354954D01*
X142211276Y-90365549D01*
X142160562Y-90400246D01*
X142122010Y-90430310D01*
X142103579Y-90449505D01*
X142103311Y-90450112D01*
X142107268Y-90470876D01*
X142122953Y-90518002D01*
X142148738Y-90587613D01*
X142182991Y-90675833D01*
X142224083Y-90778784D01*
X142270384Y-90892590D01*
X142320264Y-91013375D01*
X142372093Y-91137261D01*
X142424241Y-91260372D01*
X142475078Y-91378831D01*
X142522973Y-91488763D01*
X142566298Y-91586289D01*
X142603422Y-91667533D01*
X142632716Y-91728619D01*
X142652548Y-91765670D01*
X142660534Y-91775400D01*
X142684939Y-91767823D01*
X142730602Y-91747500D01*
X142789650Y-91718065D01*
X142822120Y-91700856D01*
X142960013Y-91626299D01*
X143124283Y-91737409D01*
X143208139Y-91794330D01*
X143299947Y-91856970D01*
X143385980Y-91915951D01*
X143429073Y-91945651D01*
X143489683Y-91986350D01*
X143541005Y-92018603D01*
X143576345Y-92038324D01*
X143587823Y-92042494D01*
X143604530Y-92031247D01*
X143641506Y-91999851D01*
X143695165Y-91951564D01*
X143761922Y-91889648D01*
X143838194Y-91817361D01*
X143886433Y-91770948D01*
X143970827Y-91688027D01*
X144043763Y-91613860D01*
X144102291Y-91551620D01*
X144143463Y-91504481D01*
X144164332Y-91475613D01*
X144166334Y-91469755D01*
X144157043Y-91447472D01*
X144131369Y-91402417D01*
X144092160Y-91339151D01*
X144042263Y-91262235D01*
X143984527Y-91176232D01*
X143968109Y-91152255D01*
X143908283Y-91065110D01*
X143854610Y-90986650D01*
X143810090Y-90921285D01*
X143777725Y-90873424D01*
X143760515Y-90847475D01*
X143758853Y-90844792D01*
X143761339Y-90824112D01*
X143774537Y-90778644D01*
X143796146Y-90714384D01*
X143823864Y-90637327D01*
X143855390Y-90553469D01*
X143888423Y-90468806D01*
X143920661Y-90389332D01*
X143949803Y-90321044D01*
X143973548Y-90269937D01*
X143989595Y-90242007D01*
X143990735Y-90240667D01*
X144000548Y-90232685D01*
X144017121Y-90224791D01*
X144044092Y-90216169D01*
X144085099Y-90206002D01*
X144143780Y-90193471D01*
X144223773Y-90177761D01*
X144328715Y-90158053D01*
X144462245Y-90133532D01*
X144491156Y-90128259D01*
X144576842Y-90111704D01*
X144651542Y-90095509D01*
X144708654Y-90081236D01*
X144741577Y-90070448D01*
X144745991Y-90067933D01*
X144753266Y-90045636D01*
X144759179Y-89995809D01*
X144763726Y-89924244D01*
X144766905Y-89836733D01*
X144768709Y-89739068D01*
X144769137Y-89637041D01*
X144768183Y-89536443D01*
X144765844Y-89443067D01*
X144762116Y-89362705D01*
X144756994Y-89301149D01*
X144750476Y-89264190D01*
X144746546Y-89256626D01*
X144724668Y-89248996D01*
X144674851Y-89236582D01*
X144602057Y-89220462D01*
X144511249Y-89201713D01*
X144407391Y-89181411D01*
X144350806Y-89170770D01*
X144243446Y-89150700D01*
X144147706Y-89132520D01*
X144068266Y-89117139D01*
X144009806Y-89105471D01*
X143977005Y-89098428D01*
X143971606Y-89096866D01*
X143962482Y-89079262D01*
X143943195Y-89036858D01*
X143916315Y-88975712D01*
X143884414Y-88901883D01*
X143850062Y-88821429D01*
X143815831Y-88740408D01*
X143784291Y-88664877D01*
X143758014Y-88600895D01*
X143739571Y-88554520D01*
X143731531Y-88531809D01*
X143731382Y-88530816D01*
X143740495Y-88512901D01*
X143766046Y-88471673D01*
X143805348Y-88411231D01*
X143855717Y-88335671D01*
X143914466Y-88249092D01*
X143948618Y-88199361D01*
X144010850Y-88108176D01*
X144066124Y-88025389D01*
X144111742Y-87955189D01*
X144145008Y-87901764D01*
X144163224Y-87869301D01*
X144165855Y-87862023D01*
X144154546Y-87845085D01*
X144123279Y-87808918D01*
X144076050Y-87757575D01*
X144016852Y-87695107D01*
X143949679Y-87625566D01*
X143878526Y-87553005D01*
X143807386Y-87481475D01*
X143740253Y-87415027D01*
X143681121Y-87357714D01*
X143633985Y-87313587D01*
X143602837Y-87286699D01*
X143592417Y-87280282D01*
X143575451Y-87289305D01*
X143534871Y-87314655D01*
X143474623Y-87353750D01*
X143398653Y-87404011D01*
X143310906Y-87462857D01*
X143244716Y-87507688D01*
X142910292Y-87735094D01*
X142631527Y-87620178D01*
X142352763Y-87505262D01*
X142277214Y-87104516D01*
X142201666Y-86703769D01*
X141367545Y-86703769D01*
X141291996Y-87104516D01*
G36*
X139401572Y-92643585D02*
X139344095Y-92661146D01*
X139307088Y-92683335D01*
X139295033Y-92700882D01*
X139298351Y-92721682D01*
X139319881Y-92754359D01*
X139338086Y-92777502D01*
X139375616Y-92819342D01*
X139403812Y-92836945D01*
X139427849Y-92835796D01*
X139499152Y-92817650D01*
X139551518Y-92818474D01*
X139594042Y-92839038D01*
X139608318Y-92851074D01*
X139654013Y-92893423D01*
X139654013Y-93446466D01*
X139837829Y-93446466D01*
X139837829Y-92644361D01*
X139745921Y-92644361D01*
X139690741Y-92646543D01*
X139662272Y-92654291D01*
X139654017Y-92669408D01*
X139654013Y-92669856D01*
X139650115Y-92685689D01*
X139632486Y-92683624D01*
X139608059Y-92672201D01*
X139557610Y-92650945D01*
X139516644Y-92638156D01*
X139463932Y-92634878D01*
X139401572Y-92643585D01*
X139401572Y-92643585D01*
G37*
X139401572Y-92643585D02*
X139344095Y-92661146D01*
X139307088Y-92683335D01*
X139295033Y-92700882D01*
X139298351Y-92721682D01*
X139319881Y-92754359D01*
X139338086Y-92777502D01*
X139375616Y-92819342D01*
X139403812Y-92836945D01*
X139427849Y-92835796D01*
X139499152Y-92817650D01*
X139551518Y-92818474D01*
X139594042Y-92839038D01*
X139608318Y-92851074D01*
X139654013Y-92893423D01*
X139654013Y-93446466D01*
X139837829Y-93446466D01*
X139837829Y-92644361D01*
X139745921Y-92644361D01*
X139690741Y-92646543D01*
X139662272Y-92654291D01*
X139654017Y-92669408D01*
X139654013Y-92669856D01*
X139650115Y-92685689D01*
X139632486Y-92683624D01*
X139608059Y-92672201D01*
X139557610Y-92650945D01*
X139516644Y-92638156D01*
X139463932Y-92634878D01*
X139401572Y-92643585D01*
G36*
X142795003Y-92658166D02*
X142753414Y-92678030D01*
X142713135Y-92706724D01*
X142682450Y-92739749D01*
X142660099Y-92781871D01*
X142644824Y-92837855D01*
X142635368Y-92912468D01*
X142630473Y-93010475D01*
X142628879Y-93136642D01*
X142628854Y-93149854D01*
X142628487Y-93446466D01*
X142812303Y-93446466D01*
X142812303Y-93173021D01*
X142812433Y-93071717D01*
X142813339Y-92998293D01*
X142815787Y-92947211D01*
X142820546Y-92912930D01*
X142828386Y-92889911D01*
X142840075Y-92872613D01*
X142856358Y-92855521D01*
X142913326Y-92818797D01*
X142975515Y-92811982D01*
X143034761Y-92835201D01*
X143055365Y-92852483D01*
X143070490Y-92868731D01*
X143081350Y-92886131D01*
X143088650Y-92910152D01*
X143093097Y-92946262D01*
X143095396Y-92999928D01*
X143096256Y-93076620D01*
X143096382Y-93169983D01*
X143096382Y-93446466D01*
X143280197Y-93446466D01*
X143280197Y-92644361D01*
X143188289Y-92644361D01*
X143133109Y-92646543D01*
X143104640Y-92654291D01*
X143096385Y-92669408D01*
X143096382Y-92669856D01*
X143092552Y-92684660D01*
X143075659Y-92682980D01*
X143042072Y-92666713D01*
X142965897Y-92642780D01*
X142878760Y-92640118D01*
X142795003Y-92658166D01*
X142795003Y-92658166D01*
G37*
X142795003Y-92658166D02*
X142753414Y-92678030D01*
X142713135Y-92706724D01*
X142682450Y-92739749D01*
X142660099Y-92781871D01*
X142644824Y-92837855D01*
X142635368Y-92912468D01*
X142630473Y-93010475D01*
X142628879Y-93136642D01*
X142628854Y-93149854D01*
X142628487Y-93446466D01*
X142812303Y-93446466D01*
X142812303Y-93173021D01*
X142812433Y-93071717D01*
X142813339Y-92998293D01*
X142815787Y-92947211D01*
X142820546Y-92912930D01*
X142828386Y-92889911D01*
X142840075Y-92872613D01*
X142856358Y-92855521D01*
X142913326Y-92818797D01*
X142975515Y-92811982D01*
X143034761Y-92835201D01*
X143055365Y-92852483D01*
X143070490Y-92868731D01*
X143081350Y-92886131D01*
X143088650Y-92910152D01*
X143093097Y-92946262D01*
X143095396Y-92999928D01*
X143096256Y-93076620D01*
X143096382Y-93169983D01*
X143096382Y-93446466D01*
X143280197Y-93446466D01*
X143280197Y-92644361D01*
X143188289Y-92644361D01*
X143133109Y-92646543D01*
X143104640Y-92654291D01*
X143096385Y-92669408D01*
X143096382Y-92669856D01*
X143092552Y-92684660D01*
X143075659Y-92682980D01*
X143042072Y-92666713D01*
X142965897Y-92642780D01*
X142878760Y-92640118D01*
X142795003Y-92658166D01*
G36*
X138234176Y-92641494D02*
X138191386Y-92651889D01*
X138109351Y-92689953D01*
X138039203Y-92748089D01*
X137990655Y-92817792D01*
X137983985Y-92833442D01*
X137974836Y-92874436D01*
X137968431Y-92935078D01*
X137966250Y-92996370D01*
X137966250Y-93112256D01*
X138208553Y-93112256D01*
X138308489Y-93112633D01*
X138378891Y-93114927D01*
X138423647Y-93120878D01*
X138446645Y-93132225D01*
X138451771Y-93150711D01*
X138442912Y-93178076D01*
X138427043Y-93210095D01*
X138382776Y-93263532D01*
X138321261Y-93290155D01*
X138246075Y-93289287D01*
X138160907Y-93260311D01*
X138087301Y-93224551D01*
X138026226Y-93272844D01*
X137965150Y-93321137D01*
X138022609Y-93374225D01*
X138099319Y-93424385D01*
X138193658Y-93454628D01*
X138295133Y-93463091D01*
X138393249Y-93447914D01*
X138409079Y-93442764D01*
X138495313Y-93397731D01*
X138559459Y-93330592D01*
X138602869Y-93239345D01*
X138626896Y-93121984D01*
X138627176Y-93119469D01*
X138629327Y-92991567D01*
X138620631Y-92945937D01*
X138450855Y-92945937D01*
X138435263Y-92952953D01*
X138392931Y-92958328D01*
X138330526Y-92961397D01*
X138290979Y-92961861D01*
X138217232Y-92961570D01*
X138171120Y-92959723D01*
X138146860Y-92954852D01*
X138138666Y-92945495D01*
X138140754Y-92930185D01*
X138142505Y-92924262D01*
X138172400Y-92868608D01*
X138219418Y-92823755D01*
X138260911Y-92804045D01*
X138316034Y-92805235D01*
X138371892Y-92829815D01*
X138418748Y-92870510D01*
X138446866Y-92920048D01*
X138450855Y-92945937D01*
X138620631Y-92945937D01*
X138607886Y-92879073D01*
X138565349Y-92784667D01*
X138504213Y-92711028D01*
X138426975Y-92660833D01*
X138336130Y-92636762D01*
X138234176Y-92641494D01*
X138234176Y-92641494D01*
G37*
X138234176Y-92641494D02*
X138191386Y-92651889D01*
X138109351Y-92689953D01*
X138039203Y-92748089D01*
X137990655Y-92817792D01*
X137983985Y-92833442D01*
X137974836Y-92874436D01*
X137968431Y-92935078D01*
X137966250Y-92996370D01*
X137966250Y-93112256D01*
X138208553Y-93112256D01*
X138308489Y-93112633D01*
X138378891Y-93114927D01*
X138423647Y-93120878D01*
X138446645Y-93132225D01*
X138451771Y-93150711D01*
X138442912Y-93178076D01*
X138427043Y-93210095D01*
X138382776Y-93263532D01*
X138321261Y-93290155D01*
X138246075Y-93289287D01*
X138160907Y-93260311D01*
X138087301Y-93224551D01*
X138026226Y-93272844D01*
X137965150Y-93321137D01*
X138022609Y-93374225D01*
X138099319Y-93424385D01*
X138193658Y-93454628D01*
X138295133Y-93463091D01*
X138393249Y-93447914D01*
X138409079Y-93442764D01*
X138495313Y-93397731D01*
X138559459Y-93330592D01*
X138602869Y-93239345D01*
X138626896Y-93121984D01*
X138627176Y-93119469D01*
X138629327Y-92991567D01*
X138620631Y-92945937D01*
X138450855Y-92945937D01*
X138435263Y-92952953D01*
X138392931Y-92958328D01*
X138330526Y-92961397D01*
X138290979Y-92961861D01*
X138217232Y-92961570D01*
X138171120Y-92959723D01*
X138146860Y-92954852D01*
X138138666Y-92945495D01*
X138140754Y-92930185D01*
X138142505Y-92924262D01*
X138172400Y-92868608D01*
X138219418Y-92823755D01*
X138260911Y-92804045D01*
X138316034Y-92805235D01*
X138371892Y-92829815D01*
X138418748Y-92870510D01*
X138446866Y-92920048D01*
X138450855Y-92945937D01*
X138620631Y-92945937D01*
X138607886Y-92879073D01*
X138565349Y-92784667D01*
X138504213Y-92711028D01*
X138426975Y-92660833D01*
X138336130Y-92636762D01*
X138234176Y-92641494D01*
G36*
X138846384Y-92651359D02*
X138749565Y-92692489D01*
X138719070Y-92712511D01*
X138680095Y-92743280D01*
X138655629Y-92767473D01*
X138651382Y-92775353D01*
X138663376Y-92792839D01*
X138694073Y-92822510D01*
X138718648Y-92843219D01*
X138785914Y-92897276D01*
X138839030Y-92852582D01*
X138880076Y-92823729D01*
X138920097Y-92813769D01*
X138965901Y-92816201D01*
X139038636Y-92834285D01*
X139088704Y-92871821D01*
X139119131Y-92932502D01*
X139132943Y-93020021D01*
X139132947Y-93020076D01*
X139131752Y-93117898D01*
X139113188Y-93189670D01*
X139076156Y-93238535D01*
X139050910Y-93255083D01*
X138983863Y-93275689D01*
X138912251Y-93275702D01*
X138849945Y-93255708D01*
X138835197Y-93245940D01*
X138798210Y-93220987D01*
X138769292Y-93216898D01*
X138738104Y-93235470D01*
X138703624Y-93268827D01*
X138649048Y-93325136D01*
X138709642Y-93375082D01*
X138803262Y-93431453D01*
X138908835Y-93459233D01*
X139019162Y-93457222D01*
X139091617Y-93438802D01*
X139176304Y-93393250D01*
X139244033Y-93321590D01*
X139274803Y-93271006D01*
X139299724Y-93198428D01*
X139312194Y-93106509D01*
X139312290Y-93006888D01*
X139300090Y-92911207D01*
X139275670Y-92831109D01*
X139271824Y-92822896D01*
X139214867Y-92742353D01*
X139137751Y-92683711D01*
X139046570Y-92648187D01*
X138947417Y-92636997D01*
X138846384Y-92651359D01*
X138846384Y-92651359D01*
G37*
X138846384Y-92651359D02*
X138749565Y-92692489D01*
X138719070Y-92712511D01*
X138680095Y-92743280D01*
X138655629Y-92767473D01*
X138651382Y-92775353D01*
X138663376Y-92792839D01*
X138694073Y-92822510D01*
X138718648Y-92843219D01*
X138785914Y-92897276D01*
X138839030Y-92852582D01*
X138880076Y-92823729D01*
X138920097Y-92813769D01*
X138965901Y-92816201D01*
X139038636Y-92834285D01*
X139088704Y-92871821D01*
X139119131Y-92932502D01*
X139132943Y-93020021D01*
X139132947Y-93020076D01*
X139131752Y-93117898D01*
X139113188Y-93189670D01*
X139076156Y-93238535D01*
X139050910Y-93255083D01*
X138983863Y-93275689D01*
X138912251Y-93275702D01*
X138849945Y-93255708D01*
X138835197Y-93245940D01*
X138798210Y-93220987D01*
X138769292Y-93216898D01*
X138738104Y-93235470D01*
X138703624Y-93268827D01*
X138649048Y-93325136D01*
X138709642Y-93375082D01*
X138803262Y-93431453D01*
X138908835Y-93459233D01*
X139019162Y-93457222D01*
X139091617Y-93438802D01*
X139176304Y-93393250D01*
X139244033Y-93321590D01*
X139274803Y-93271006D01*
X139299724Y-93198428D01*
X139312194Y-93106509D01*
X139312290Y-93006888D01*
X139300090Y-92911207D01*
X139275670Y-92831109D01*
X139271824Y-92822896D01*
X139214867Y-92742353D01*
X139137751Y-92683711D01*
X139046570Y-92648187D01*
X138947417Y-92636997D01*
X138846384Y-92651359D01*
G36*
X140472829Y-92904473D02*
X140471250Y-93027029D01*
X140465479Y-93120119D01*
X140453969Y-93187591D01*
X140435170Y-93233295D01*
X140407534Y-93261079D01*
X140369512Y-93274794D01*
X140322434Y-93278298D01*
X140273128Y-93274372D01*
X140235677Y-93260029D01*
X140208532Y-93231418D01*
X140190145Y-93184691D01*
X140178967Y-93115998D01*
X140173449Y-93021490D01*
X140172039Y-92904473D01*
X140172039Y-92644361D01*
X139988224Y-92644361D01*
X139988224Y-93446466D01*
X140080132Y-93446466D01*
X140135538Y-93444221D01*
X140164069Y-93436336D01*
X140172039Y-93421368D01*
X140176840Y-93408037D01*
X140195946Y-93410857D01*
X140234456Y-93429723D01*
X140322721Y-93458827D01*
X140416337Y-93456765D01*
X140506039Y-93425161D01*
X140548756Y-93400197D01*
X140581339Y-93373166D01*
X140605143Y-93339345D01*
X140621521Y-93294008D01*
X140631829Y-93232429D01*
X140637419Y-93149883D01*
X140639648Y-93041645D01*
X140639934Y-92957944D01*
X140639934Y-92644361D01*
X140472829Y-92644361D01*
X140472829Y-92904473D01*
X140472829Y-92904473D01*
G37*
X140472829Y-92904473D02*
X140471250Y-93027029D01*
X140465479Y-93120119D01*
X140453969Y-93187591D01*
X140435170Y-93233295D01*
X140407534Y-93261079D01*
X140369512Y-93274794D01*
X140322434Y-93278298D01*
X140273128Y-93274372D01*
X140235677Y-93260029D01*
X140208532Y-93231418D01*
X140190145Y-93184691D01*
X140178967Y-93115998D01*
X140173449Y-93021490D01*
X140172039Y-92904473D01*
X140172039Y-92644361D01*
X139988224Y-92644361D01*
X139988224Y-93446466D01*
X140080132Y-93446466D01*
X140135538Y-93444221D01*
X140164069Y-93436336D01*
X140172039Y-93421368D01*
X140176840Y-93408037D01*
X140195946Y-93410857D01*
X140234456Y-93429723D01*
X140322721Y-93458827D01*
X140416337Y-93456765D01*
X140506039Y-93425161D01*
X140548756Y-93400197D01*
X140581339Y-93373166D01*
X140605143Y-93339345D01*
X140621521Y-93294008D01*
X140631829Y-93232429D01*
X140637419Y-93149883D01*
X140639648Y-93041645D01*
X140639934Y-92957944D01*
X140639934Y-92644361D01*
X140472829Y-92644361D01*
X140472829Y-92904473D01*
G36*
X140981291Y-92654250D02*
X140896768Y-92700280D01*
X140830639Y-92772946D01*
X140799482Y-92832046D01*
X140786105Y-92884245D01*
X140777438Y-92958659D01*
X140773723Y-93044382D01*
X140775206Y-93130509D01*
X140782129Y-93206133D01*
X140790215Y-93246524D01*
X140817495Y-93301780D01*
X140864740Y-93360470D01*
X140921678Y-93411792D01*
X140978036Y-93444945D01*
X140979410Y-93445471D01*
X141049344Y-93459958D01*
X141132223Y-93460317D01*
X141210983Y-93447128D01*
X141241394Y-93436557D01*
X141319721Y-93392141D01*
X141375817Y-93333947D01*
X141412674Y-93256905D01*
X141433280Y-93155941D01*
X141437942Y-93103056D01*
X141437347Y-93036603D01*
X141258224Y-93036603D01*
X141252190Y-93133570D01*
X141234822Y-93207463D01*
X141207220Y-93254676D01*
X141187556Y-93268177D01*
X141137173Y-93277591D01*
X141077287Y-93274804D01*
X141025511Y-93261256D01*
X141011933Y-93253802D01*
X140976111Y-93210391D01*
X140952467Y-93143954D01*
X140942402Y-93063101D01*
X140947318Y-92976442D01*
X140958305Y-92924289D01*
X140989851Y-92863891D01*
X141039649Y-92826137D01*
X141099623Y-92813083D01*
X141161696Y-92826789D01*
X141209378Y-92860312D01*
X141234435Y-92887971D01*
X141249060Y-92915234D01*
X141256031Y-92952130D01*
X141258127Y-93008690D01*
X141258224Y-93036603D01*
X141437347Y-93036603D01*
X141436678Y-92961934D01*
X141413695Y-92846211D01*
X141368988Y-92755881D01*
X141302555Y-92690940D01*
X141214395Y-92651385D01*
X141195465Y-92646798D01*
X141081694Y-92636030D01*
X140981291Y-92654250D01*
X140981291Y-92654250D01*
G37*
X140981291Y-92654250D02*
X140896768Y-92700280D01*
X140830639Y-92772946D01*
X140799482Y-92832046D01*
X140786105Y-92884245D01*
X140777438Y-92958659D01*
X140773723Y-93044382D01*
X140775206Y-93130509D01*
X140782129Y-93206133D01*
X140790215Y-93246524D01*
X140817495Y-93301780D01*
X140864740Y-93360470D01*
X140921678Y-93411792D01*
X140978036Y-93444945D01*
X140979410Y-93445471D01*
X141049344Y-93459958D01*
X141132223Y-93460317D01*
X141210983Y-93447128D01*
X141241394Y-93436557D01*
X141319721Y-93392141D01*
X141375817Y-93333947D01*
X141412674Y-93256905D01*
X141433280Y-93155941D01*
X141437942Y-93103056D01*
X141437347Y-93036603D01*
X141258224Y-93036603D01*
X141252190Y-93133570D01*
X141234822Y-93207463D01*
X141207220Y-93254676D01*
X141187556Y-93268177D01*
X141137173Y-93277591D01*
X141077287Y-93274804D01*
X141025511Y-93261256D01*
X141011933Y-93253802D01*
X140976111Y-93210391D01*
X140952467Y-93143954D01*
X140942402Y-93063101D01*
X140947318Y-92976442D01*
X140958305Y-92924289D01*
X140989851Y-92863891D01*
X141039649Y-92826137D01*
X141099623Y-92813083D01*
X141161696Y-92826789D01*
X141209378Y-92860312D01*
X141234435Y-92887971D01*
X141249060Y-92915234D01*
X141256031Y-92952130D01*
X141258127Y-93008690D01*
X141258224Y-93036603D01*
X141437347Y-93036603D01*
X141436678Y-92961934D01*
X141413695Y-92846211D01*
X141368988Y-92755881D01*
X141302555Y-92690940D01*
X141214395Y-92651385D01*
X141195465Y-92646798D01*
X141081694Y-92636030D01*
X140981291Y-92654250D01*
G36*
X141774332Y-92641487D02*
X141711052Y-92653488D01*
X141645403Y-92678588D01*
X141638388Y-92681788D01*
X141588604Y-92707966D01*
X141554126Y-92732293D01*
X141542982Y-92747877D01*
X141553594Y-92773293D01*
X141579372Y-92810793D01*
X141590814Y-92824792D01*
X141637968Y-92879894D01*
X141698759Y-92844026D01*
X141756613Y-92820132D01*
X141823460Y-92807360D01*
X141887566Y-92806553D01*
X141937196Y-92818555D01*
X141949106Y-92826045D01*
X141971788Y-92860390D01*
X141974544Y-92899953D01*
X141957572Y-92930860D01*
X141947533Y-92936853D01*
X141917450Y-92944297D01*
X141864571Y-92953046D01*
X141799385Y-92961407D01*
X141787360Y-92962718D01*
X141682663Y-92980828D01*
X141606728Y-93011591D01*
X141556368Y-93057847D01*
X141528396Y-93122437D01*
X141519682Y-93201327D01*
X141531720Y-93291005D01*
X141570809Y-93361426D01*
X141637105Y-93412717D01*
X141730766Y-93445007D01*
X141834737Y-93457747D01*
X141919522Y-93457594D01*
X141988295Y-93446023D01*
X142035263Y-93430049D01*
X142094610Y-93402215D01*
X142149454Y-93369913D01*
X142168947Y-93355695D01*
X142219079Y-93314775D01*
X142098157Y-93192417D01*
X142029417Y-93237907D01*
X141960472Y-93272073D01*
X141886849Y-93289944D01*
X141816077Y-93291829D01*
X141755686Y-93278041D01*
X141713203Y-93248889D01*
X141699486Y-93224292D01*
X141701543Y-93184844D01*
X141735630Y-93154677D01*
X141801652Y-93133846D01*
X141873986Y-93124219D01*
X141985308Y-93105850D01*
X142068008Y-93071194D01*
X142123195Y-93019237D01*
X142151972Y-92948963D01*
X142155959Y-92865647D01*
X142136267Y-92778621D01*
X142091371Y-92712842D01*
X142020869Y-92668008D01*
X141924359Y-92643819D01*
X141852860Y-92639077D01*
X141774332Y-92641487D01*
X141774332Y-92641487D01*
G37*
X141774332Y-92641487D02*
X141711052Y-92653488D01*
X141645403Y-92678588D01*
X141638388Y-92681788D01*
X141588604Y-92707966D01*
X141554126Y-92732293D01*
X141542982Y-92747877D01*
X141553594Y-92773293D01*
X141579372Y-92810793D01*
X141590814Y-92824792D01*
X141637968Y-92879894D01*
X141698759Y-92844026D01*
X141756613Y-92820132D01*
X141823460Y-92807360D01*
X141887566Y-92806553D01*
X141937196Y-92818555D01*
X141949106Y-92826045D01*
X141971788Y-92860390D01*
X141974544Y-92899953D01*
X141957572Y-92930860D01*
X141947533Y-92936853D01*
X141917450Y-92944297D01*
X141864571Y-92953046D01*
X141799385Y-92961407D01*
X141787360Y-92962718D01*
X141682663Y-92980828D01*
X141606728Y-93011591D01*
X141556368Y-93057847D01*
X141528396Y-93122437D01*
X141519682Y-93201327D01*
X141531720Y-93291005D01*
X141570809Y-93361426D01*
X141637105Y-93412717D01*
X141730766Y-93445007D01*
X141834737Y-93457747D01*
X141919522Y-93457594D01*
X141988295Y-93446023D01*
X142035263Y-93430049D01*
X142094610Y-93402215D01*
X142149454Y-93369913D01*
X142168947Y-93355695D01*
X142219079Y-93314775D01*
X142098157Y-93192417D01*
X142029417Y-93237907D01*
X141960472Y-93272073D01*
X141886849Y-93289944D01*
X141816077Y-93291829D01*
X141755686Y-93278041D01*
X141713203Y-93248889D01*
X141699486Y-93224292D01*
X141701543Y-93184844D01*
X141735630Y-93154677D01*
X141801652Y-93133846D01*
X141873986Y-93124219D01*
X141985308Y-93105850D01*
X142068008Y-93071194D01*
X142123195Y-93019237D01*
X142151972Y-92948963D01*
X142155959Y-92865647D01*
X142136267Y-92778621D01*
X142091371Y-92712842D01*
X142020869Y-92668008D01*
X141924359Y-92643819D01*
X141852860Y-92639077D01*
X141774332Y-92641487D01*
G36*
X143595942Y-92662967D02*
X143579290Y-92670806D01*
X143521655Y-92713026D01*
X143467155Y-92774640D01*
X143426461Y-92842483D01*
X143414886Y-92873674D01*
X143404326Y-92929389D01*
X143398029Y-92996721D01*
X143397264Y-93024525D01*
X143397171Y-93112256D01*
X143902110Y-93112256D01*
X143891347Y-93158210D01*
X143864927Y-93212560D01*
X143818738Y-93259531D01*
X143763788Y-93289788D01*
X143728771Y-93296071D01*
X143681283Y-93288446D01*
X143624625Y-93269323D01*
X143605378Y-93260524D01*
X143534201Y-93224976D01*
X143473458Y-93271307D01*
X143438408Y-93302643D01*
X143419758Y-93328507D01*
X143418813Y-93336098D01*
X143435475Y-93354496D01*
X143471990Y-93382455D01*
X143505132Y-93404267D01*
X143594567Y-93443477D01*
X143694831Y-93461225D01*
X143794206Y-93456610D01*
X143873421Y-93432491D01*
X143955080Y-93380824D01*
X144013111Y-93312796D01*
X144049414Y-93224783D01*
X144065888Y-93113156D01*
X144067349Y-93062078D01*
X144061503Y-92945031D01*
X144060785Y-92941626D01*
X143893471Y-92941626D01*
X143888863Y-92952602D01*
X143869924Y-92958655D01*
X143830862Y-92961250D01*
X143765883Y-92961850D01*
X143740863Y-92961861D01*
X143664739Y-92960954D01*
X143616464Y-92957660D01*
X143590500Y-92951121D01*
X143581312Y-92940477D01*
X143580987Y-92937059D01*
X143591473Y-92909896D01*
X143617718Y-92871843D01*
X143629001Y-92858519D01*
X143670888Y-92820836D01*
X143714551Y-92806020D01*
X143738075Y-92804782D01*
X143801717Y-92820269D01*
X143855087Y-92861870D01*
X143888941Y-92922293D01*
X143889541Y-92924262D01*
X143893471Y-92941626D01*
X144060785Y-92941626D01*
X144042061Y-92852868D01*
X144007038Y-92779130D01*
X143964204Y-92726788D01*
X143885012Y-92670032D01*
X143791920Y-92639702D01*
X143692905Y-92636961D01*
X143595942Y-92662967D01*
X143595942Y-92662967D01*
G37*
X143595942Y-92662967D02*
X143579290Y-92670806D01*
X143521655Y-92713026D01*
X143467155Y-92774640D01*
X143426461Y-92842483D01*
X143414886Y-92873674D01*
X143404326Y-92929389D01*
X143398029Y-92996721D01*
X143397264Y-93024525D01*
X143397171Y-93112256D01*
X143902110Y-93112256D01*
X143891347Y-93158210D01*
X143864927Y-93212560D01*
X143818738Y-93259531D01*
X143763788Y-93289788D01*
X143728771Y-93296071D01*
X143681283Y-93288446D01*
X143624625Y-93269323D01*
X143605378Y-93260524D01*
X143534201Y-93224976D01*
X143473458Y-93271307D01*
X143438408Y-93302643D01*
X143419758Y-93328507D01*
X143418813Y-93336098D01*
X143435475Y-93354496D01*
X143471990Y-93382455D01*
X143505132Y-93404267D01*
X143594567Y-93443477D01*
X143694831Y-93461225D01*
X143794206Y-93456610D01*
X143873421Y-93432491D01*
X143955080Y-93380824D01*
X144013111Y-93312796D01*
X144049414Y-93224783D01*
X144065888Y-93113156D01*
X144067349Y-93062078D01*
X144061503Y-92945031D01*
X144060785Y-92941626D01*
X143893471Y-92941626D01*
X143888863Y-92952602D01*
X143869924Y-92958655D01*
X143830862Y-92961250D01*
X143765883Y-92961850D01*
X143740863Y-92961861D01*
X143664739Y-92960954D01*
X143616464Y-92957660D01*
X143590500Y-92951121D01*
X143581312Y-92940477D01*
X143580987Y-92937059D01*
X143591473Y-92909896D01*
X143617718Y-92871843D01*
X143629001Y-92858519D01*
X143670888Y-92820836D01*
X143714551Y-92806020D01*
X143738075Y-92804782D01*
X143801717Y-92820269D01*
X143855087Y-92861870D01*
X143888941Y-92922293D01*
X143889541Y-92924262D01*
X143893471Y-92941626D01*
X144060785Y-92941626D01*
X144042061Y-92852868D01*
X144007038Y-92779130D01*
X143964204Y-92726788D01*
X143885012Y-92670032D01*
X143791920Y-92639702D01*
X143692905Y-92636961D01*
X143595942Y-92662967D01*
G36*
X145166176Y-92653044D02*
X145078755Y-92691694D01*
X145012390Y-92756230D01*
X144966984Y-92846752D01*
X144942442Y-92963358D01*
X144940683Y-92981564D01*
X144939304Y-93109924D01*
X144957176Y-93222436D01*
X144993210Y-93313628D01*
X145012505Y-93342962D01*
X145079715Y-93405046D01*
X145165310Y-93445256D01*
X145261070Y-93461943D01*
X145358773Y-93453457D01*
X145433043Y-93427320D01*
X145496913Y-93383275D01*
X145549114Y-93325527D01*
X145550017Y-93324176D01*
X145571216Y-93288533D01*
X145584993Y-93252692D01*
X145593336Y-93207459D01*
X145598233Y-93143641D01*
X145600391Y-93091308D01*
X145601289Y-93043850D01*
X145434217Y-93043850D01*
X145432584Y-93091094D01*
X145426656Y-93153986D01*
X145416199Y-93194347D01*
X145397341Y-93223062D01*
X145379679Y-93239836D01*
X145317066Y-93274956D01*
X145251552Y-93279650D01*
X145190539Y-93254380D01*
X145160032Y-93226064D01*
X145138049Y-93197529D01*
X145125191Y-93170224D01*
X145119548Y-93134690D01*
X145119209Y-93081464D01*
X145120948Y-93032446D01*
X145124689Y-92962422D01*
X145130619Y-92917004D01*
X145141307Y-92887380D01*
X145159321Y-92864737D01*
X145173597Y-92851795D01*
X145233309Y-92817800D01*
X145297726Y-92816105D01*
X145351741Y-92836241D01*
X145397820Y-92878292D01*
X145425271Y-92947368D01*
X145434217Y-93043850D01*
X145601289Y-93043850D01*
X145602361Y-92987239D01*
X145598996Y-92909408D01*
X145588915Y-92850870D01*
X145570734Y-92804677D01*
X145543070Y-92763882D01*
X145532814Y-92751768D01*
X145468682Y-92691414D01*
X145399894Y-92656160D01*
X145315771Y-92641390D01*
X145274751Y-92640183D01*
X145166176Y-92653044D01*
X145166176Y-92653044D01*
G37*
X145166176Y-92653044D02*
X145078755Y-92691694D01*
X145012390Y-92756230D01*
X144966984Y-92846752D01*
X144942442Y-92963358D01*
X144940683Y-92981564D01*
X144939304Y-93109924D01*
X144957176Y-93222436D01*
X144993210Y-93313628D01*
X145012505Y-93342962D01*
X145079715Y-93405046D01*
X145165310Y-93445256D01*
X145261070Y-93461943D01*
X145358773Y-93453457D01*
X145433043Y-93427320D01*
X145496913Y-93383275D01*
X145549114Y-93325527D01*
X145550017Y-93324176D01*
X145571216Y-93288533D01*
X145584993Y-93252692D01*
X145593336Y-93207459D01*
X145598233Y-93143641D01*
X145600391Y-93091308D01*
X145601289Y-93043850D01*
X145434217Y-93043850D01*
X145432584Y-93091094D01*
X145426656Y-93153986D01*
X145416199Y-93194347D01*
X145397341Y-93223062D01*
X145379679Y-93239836D01*
X145317066Y-93274956D01*
X145251552Y-93279650D01*
X145190539Y-93254380D01*
X145160032Y-93226064D01*
X145138049Y-93197529D01*
X145125191Y-93170224D01*
X145119548Y-93134690D01*
X145119209Y-93081464D01*
X145120948Y-93032446D01*
X145124689Y-92962422D01*
X145130619Y-92917004D01*
X145141307Y-92887380D01*
X145159321Y-92864737D01*
X145173597Y-92851795D01*
X145233309Y-92817800D01*
X145297726Y-92816105D01*
X145351741Y-92836241D01*
X145397820Y-92878292D01*
X145425271Y-92947368D01*
X145434217Y-93043850D01*
X145601289Y-93043850D01*
X145602361Y-92987239D01*
X145598996Y-92909408D01*
X145588915Y-92850870D01*
X145570734Y-92804677D01*
X145543070Y-92763882D01*
X145532814Y-92751768D01*
X145468682Y-92691414D01*
X145399894Y-92656160D01*
X145315771Y-92641390D01*
X145274751Y-92640183D01*
X145166176Y-92653044D01*
G36*
X139091767Y-93902018D02*
X139011892Y-93922785D01*
X138944998Y-93965645D01*
X138912609Y-93997663D01*
X138859515Y-94073353D01*
X138829087Y-94161156D01*
X138818633Y-94269090D01*
X138818580Y-94277815D01*
X138818487Y-94365545D01*
X139323426Y-94365545D01*
X139312662Y-94411499D01*
X139293228Y-94453118D01*
X139259215Y-94496484D01*
X139252100Y-94503407D01*
X139190957Y-94540875D01*
X139121231Y-94547229D01*
X139040973Y-94522578D01*
X139027368Y-94515940D01*
X138985641Y-94495759D01*
X138957692Y-94484261D01*
X138952815Y-94483198D01*
X138935792Y-94493523D01*
X138903327Y-94518785D01*
X138886846Y-94532590D01*
X138852696Y-94564301D01*
X138841482Y-94585239D01*
X138849265Y-94604500D01*
X138853425Y-94609767D01*
X138881603Y-94632818D01*
X138928098Y-94660832D01*
X138960526Y-94677186D01*
X139052575Y-94705999D01*
X139154484Y-94715335D01*
X139250997Y-94704272D01*
X139278026Y-94696352D01*
X139361684Y-94651521D01*
X139423694Y-94582538D01*
X139464415Y-94488734D01*
X139484205Y-94369438D01*
X139486378Y-94307058D01*
X139480034Y-94216238D01*
X139319803Y-94216238D01*
X139304305Y-94222952D01*
X139262648Y-94228220D01*
X139202084Y-94231329D01*
X139161053Y-94231861D01*
X139087249Y-94231348D01*
X139040667Y-94228946D01*
X139015112Y-94223362D01*
X139004391Y-94213301D01*
X139002303Y-94198703D01*
X139016629Y-94153736D01*
X139052698Y-94109293D01*
X139100145Y-94075182D01*
X139147611Y-94061228D01*
X139212081Y-94073606D01*
X139267890Y-94109392D01*
X139306586Y-94160973D01*
X139319803Y-94216238D01*
X139480034Y-94216238D01*
X139477139Y-94174806D01*
X139448624Y-94069438D01*
X139400231Y-93990118D01*
X139331356Y-93936011D01*
X139241395Y-93906283D01*
X139192660Y-93900558D01*
X139091767Y-93902018D01*
X139091767Y-93902018D01*
G37*
X139091767Y-93902018D02*
X139011892Y-93922785D01*
X138944998Y-93965645D01*
X138912609Y-93997663D01*
X138859515Y-94073353D01*
X138829087Y-94161156D01*
X138818633Y-94269090D01*
X138818580Y-94277815D01*
X138818487Y-94365545D01*
X139323426Y-94365545D01*
X139312662Y-94411499D01*
X139293228Y-94453118D01*
X139259215Y-94496484D01*
X139252100Y-94503407D01*
X139190957Y-94540875D01*
X139121231Y-94547229D01*
X139040973Y-94522578D01*
X139027368Y-94515940D01*
X138985641Y-94495759D01*
X138957692Y-94484261D01*
X138952815Y-94483198D01*
X138935792Y-94493523D01*
X138903327Y-94518785D01*
X138886846Y-94532590D01*
X138852696Y-94564301D01*
X138841482Y-94585239D01*
X138849265Y-94604500D01*
X138853425Y-94609767D01*
X138881603Y-94632818D01*
X138928098Y-94660832D01*
X138960526Y-94677186D01*
X139052575Y-94705999D01*
X139154484Y-94715335D01*
X139250997Y-94704272D01*
X139278026Y-94696352D01*
X139361684Y-94651521D01*
X139423694Y-94582538D01*
X139464415Y-94488734D01*
X139484205Y-94369438D01*
X139486378Y-94307058D01*
X139480034Y-94216238D01*
X139319803Y-94216238D01*
X139304305Y-94222952D01*
X139262648Y-94228220D01*
X139202084Y-94231329D01*
X139161053Y-94231861D01*
X139087249Y-94231348D01*
X139040667Y-94228946D01*
X139015112Y-94223362D01*
X139004391Y-94213301D01*
X139002303Y-94198703D01*
X139016629Y-94153736D01*
X139052698Y-94109293D01*
X139100145Y-94075182D01*
X139147611Y-94061228D01*
X139212081Y-94073606D01*
X139267890Y-94109392D01*
X139306586Y-94160973D01*
X139319803Y-94216238D01*
X139480034Y-94216238D01*
X139477139Y-94174806D01*
X139448624Y-94069438D01*
X139400231Y-93990118D01*
X139331356Y-93936011D01*
X139241395Y-93906283D01*
X139192660Y-93900558D01*
X139091767Y-93902018D01*
G36*
X139619793Y-93897387D02*
X139555552Y-93910052D01*
X139518980Y-93928804D01*
X139480507Y-93959957D01*
X139535243Y-94029067D01*
X139568991Y-94070919D01*
X139591907Y-94091338D01*
X139614681Y-94094457D01*
X139648004Y-94084412D01*
X139663646Y-94078729D01*
X139727418Y-94070344D01*
X139785820Y-94088318D01*
X139828696Y-94128922D01*
X139835661Y-94141869D01*
X139843247Y-94176164D01*
X139849101Y-94239367D01*
X139852949Y-94327000D01*
X139854517Y-94434580D01*
X139854539Y-94449884D01*
X139854539Y-94716466D01*
X140038355Y-94716466D01*
X140038355Y-93897650D01*
X139946447Y-93897650D01*
X139893453Y-93899034D01*
X139865845Y-93905192D01*
X139855636Y-93919134D01*
X139854539Y-93932284D01*
X139854539Y-93966918D01*
X139810510Y-93932284D01*
X139760023Y-93908656D01*
X139692200Y-93896973D01*
X139619793Y-93897387D01*
X139619793Y-93897387D01*
G37*
X139619793Y-93897387D02*
X139555552Y-93910052D01*
X139518980Y-93928804D01*
X139480507Y-93959957D01*
X139535243Y-94029067D01*
X139568991Y-94070919D01*
X139591907Y-94091338D01*
X139614681Y-94094457D01*
X139648004Y-94084412D01*
X139663646Y-94078729D01*
X139727418Y-94070344D01*
X139785820Y-94088318D01*
X139828696Y-94128922D01*
X139835661Y-94141869D01*
X139843247Y-94176164D01*
X139849101Y-94239367D01*
X139852949Y-94327000D01*
X139854517Y-94434580D01*
X139854539Y-94449884D01*
X139854539Y-94716466D01*
X140038355Y-94716466D01*
X140038355Y-93897650D01*
X139946447Y-93897650D01*
X139893453Y-93899034D01*
X139865845Y-93905192D01*
X139855636Y-93919134D01*
X139854539Y-93932284D01*
X139854539Y-93966918D01*
X139810510Y-93932284D01*
X139760023Y-93908656D01*
X139692200Y-93896973D01*
X139619793Y-93897387D01*
G36*
X140412968Y-93902613D02*
X140342533Y-93919720D01*
X140322173Y-93928784D01*
X140282707Y-93952523D01*
X140252419Y-93979261D01*
X140230008Y-94013639D01*
X140214174Y-94060300D01*
X140203617Y-94123886D01*
X140197036Y-94209039D01*
X140193132Y-94320402D01*
X140191650Y-94394789D01*
X140186195Y-94716466D01*
X140279380Y-94716466D01*
X140335913Y-94714096D01*
X140365038Y-94705995D01*
X140372566Y-94692391D01*
X140376540Y-94677681D01*
X140394308Y-94680494D01*
X140418520Y-94692288D01*
X140479132Y-94710367D01*
X140557031Y-94715239D01*
X140638965Y-94707270D01*
X140711679Y-94686829D01*
X140718201Y-94683991D01*
X140784658Y-94637305D01*
X140828469Y-94572404D01*
X140848628Y-94496540D01*
X140847088Y-94469284D01*
X140682615Y-94469284D01*
X140668123Y-94505964D01*
X140625155Y-94532249D01*
X140555831Y-94546357D01*
X140518783Y-94548230D01*
X140457041Y-94543434D01*
X140416000Y-94524798D01*
X140405987Y-94515940D01*
X140378860Y-94467746D01*
X140372566Y-94424032D01*
X140372566Y-94365545D01*
X140454030Y-94365545D01*
X140548726Y-94370372D01*
X140615147Y-94385553D01*
X140657114Y-94412140D01*
X140666511Y-94423992D01*
X140682615Y-94469284D01*
X140847088Y-94469284D01*
X140844131Y-94416966D01*
X140813975Y-94340935D01*
X140772829Y-94289552D01*
X140747908Y-94267337D01*
X140723512Y-94252738D01*
X140691769Y-94243837D01*
X140644808Y-94238715D01*
X140574756Y-94235455D01*
X140546970Y-94234517D01*
X140372566Y-94228819D01*
X140372822Y-94176031D01*
X140379576Y-94120543D01*
X140403996Y-94086992D01*
X140453330Y-94065558D01*
X140454654Y-94065176D01*
X140524600Y-94056748D01*
X140593046Y-94067756D01*
X140643913Y-94094525D01*
X140664323Y-94107743D01*
X140686306Y-94105914D01*
X140720134Y-94086764D01*
X140739999Y-94073248D01*
X140778854Y-94044372D01*
X140802922Y-94022726D01*
X140806784Y-94016529D01*
X140790881Y-93984459D01*
X140743895Y-93946159D01*
X140723487Y-93933237D01*
X140664817Y-93910981D01*
X140585748Y-93898372D01*
X140497919Y-93895540D01*
X140412968Y-93902613D01*
X140412968Y-93902613D01*
G37*
X140412968Y-93902613D02*
X140342533Y-93919720D01*
X140322173Y-93928784D01*
X140282707Y-93952523D01*
X140252419Y-93979261D01*
X140230008Y-94013639D01*
X140214174Y-94060300D01*
X140203617Y-94123886D01*
X140197036Y-94209039D01*
X140193132Y-94320402D01*
X140191650Y-94394789D01*
X140186195Y-94716466D01*
X140279380Y-94716466D01*
X140335913Y-94714096D01*
X140365038Y-94705995D01*
X140372566Y-94692391D01*
X140376540Y-94677681D01*
X140394308Y-94680494D01*
X140418520Y-94692288D01*
X140479132Y-94710367D01*
X140557031Y-94715239D01*
X140638965Y-94707270D01*
X140711679Y-94686829D01*
X140718201Y-94683991D01*
X140784658Y-94637305D01*
X140828469Y-94572404D01*
X140848628Y-94496540D01*
X140847088Y-94469284D01*
X140682615Y-94469284D01*
X140668123Y-94505964D01*
X140625155Y-94532249D01*
X140555831Y-94546357D01*
X140518783Y-94548230D01*
X140457041Y-94543434D01*
X140416000Y-94524798D01*
X140405987Y-94515940D01*
X140378860Y-94467746D01*
X140372566Y-94424032D01*
X140372566Y-94365545D01*
X140454030Y-94365545D01*
X140548726Y-94370372D01*
X140615147Y-94385553D01*
X140657114Y-94412140D01*
X140666511Y-94423992D01*
X140682615Y-94469284D01*
X140847088Y-94469284D01*
X140844131Y-94416966D01*
X140813975Y-94340935D01*
X140772829Y-94289552D01*
X140747908Y-94267337D01*
X140723512Y-94252738D01*
X140691769Y-94243837D01*
X140644808Y-94238715D01*
X140574756Y-94235455D01*
X140546970Y-94234517D01*
X140372566Y-94228819D01*
X140372822Y-94176031D01*
X140379576Y-94120543D01*
X140403996Y-94086992D01*
X140453330Y-94065558D01*
X140454654Y-94065176D01*
X140524600Y-94056748D01*
X140593046Y-94067756D01*
X140643913Y-94094525D01*
X140664323Y-94107743D01*
X140686306Y-94105914D01*
X140720134Y-94086764D01*
X140739999Y-94073248D01*
X140778854Y-94044372D01*
X140802922Y-94022726D01*
X140806784Y-94016529D01*
X140790881Y-93984459D01*
X140743895Y-93946159D01*
X140723487Y-93933237D01*
X140664817Y-93910981D01*
X140585748Y-93898372D01*
X140497919Y-93895540D01*
X140412968Y-93902613D01*
G36*
X141418830Y-93901044D02*
X141352740Y-93906006D01*
X141266334Y-94165019D01*
X141179929Y-94424032D01*
X141152836Y-94332124D01*
X141136532Y-94275324D01*
X141115085Y-94198565D01*
X141091925Y-94114191D01*
X141079680Y-94068933D01*
X141033616Y-93897650D01*
X140843573Y-93897650D01*
X140900378Y-94077289D01*
X140928353Y-94165644D01*
X140962147Y-94272221D01*
X140997440Y-94383394D01*
X141028947Y-94482519D01*
X141100710Y-94708111D01*
X141255674Y-94718193D01*
X141297690Y-94579468D01*
X141323601Y-94493291D01*
X141351877Y-94398287D01*
X141376591Y-94314381D01*
X141377566Y-94311042D01*
X141396025Y-94254188D01*
X141412311Y-94215396D01*
X141423718Y-94200727D01*
X141426062Y-94202423D01*
X141434289Y-94225165D01*
X141449922Y-94273880D01*
X141471056Y-94342442D01*
X141495790Y-94424725D01*
X141509173Y-94469986D01*
X141581649Y-94716466D01*
X141735465Y-94716466D01*
X141858429Y-94327946D01*
X141892972Y-94218962D01*
X141924439Y-94119988D01*
X141951344Y-94035676D01*
X141972201Y-93970674D01*
X141985522Y-93929632D01*
X141989572Y-93917641D01*
X141986366Y-93905363D01*
X141961195Y-93899986D01*
X141908814Y-93900524D01*
X141900615Y-93900930D01*
X141803478Y-93906006D01*
X141739860Y-94139953D01*
X141716476Y-94225273D01*
X141695579Y-94300275D01*
X141679009Y-94358447D01*
X141668606Y-94393277D01*
X141666684Y-94398956D01*
X141658719Y-94392426D01*
X141642656Y-94358594D01*
X141620339Y-94302067D01*
X141593615Y-94227450D01*
X141571023Y-94160047D01*
X141484919Y-93896083D01*
X141418830Y-93901044D01*
X141418830Y-93901044D01*
G37*
X141418830Y-93901044D02*
X141352740Y-93906006D01*
X141266334Y-94165019D01*
X141179929Y-94424032D01*
X141152836Y-94332124D01*
X141136532Y-94275324D01*
X141115085Y-94198565D01*
X141091925Y-94114191D01*
X141079680Y-94068933D01*
X141033616Y-93897650D01*
X140843573Y-93897650D01*
X140900378Y-94077289D01*
X140928353Y-94165644D01*
X140962147Y-94272221D01*
X140997440Y-94383394D01*
X141028947Y-94482519D01*
X141100710Y-94708111D01*
X141255674Y-94718193D01*
X141297690Y-94579468D01*
X141323601Y-94493291D01*
X141351877Y-94398287D01*
X141376591Y-94314381D01*
X141377566Y-94311042D01*
X141396025Y-94254188D01*
X141412311Y-94215396D01*
X141423718Y-94200727D01*
X141426062Y-94202423D01*
X141434289Y-94225165D01*
X141449922Y-94273880D01*
X141471056Y-94342442D01*
X141495790Y-94424725D01*
X141509173Y-94469986D01*
X141581649Y-94716466D01*
X141735465Y-94716466D01*
X141858429Y-94327946D01*
X141892972Y-94218962D01*
X141924439Y-94119988D01*
X141951344Y-94035676D01*
X141972201Y-93970674D01*
X141985522Y-93929632D01*
X141989572Y-93917641D01*
X141986366Y-93905363D01*
X141961195Y-93899986D01*
X141908814Y-93900524D01*
X141900615Y-93900930D01*
X141803478Y-93906006D01*
X141739860Y-94139953D01*
X141716476Y-94225273D01*
X141695579Y-94300275D01*
X141679009Y-94358447D01*
X141668606Y-94393277D01*
X141666684Y-94398956D01*
X141658719Y-94392426D01*
X141642656Y-94358594D01*
X141620339Y-94302067D01*
X141593615Y-94227450D01*
X141571023Y-94160047D01*
X141484919Y-93896083D01*
X141418830Y-93901044D01*
G36*
X142060329Y-94716466D02*
X142152237Y-94716466D01*
X142205583Y-94714902D01*
X142233367Y-94708425D01*
X142243370Y-94694358D01*
X142244145Y-94684846D01*
X142245832Y-94665772D01*
X142256470Y-94662114D01*
X142284425Y-94673872D01*
X142306165Y-94684846D01*
X142389628Y-94710851D01*
X142480356Y-94712356D01*
X142554118Y-94692961D01*
X142622806Y-94646105D01*
X142675166Y-94576944D01*
X142703838Y-94495367D01*
X142704568Y-94490806D01*
X142708828Y-94441041D01*
X142710946Y-94369599D01*
X142710776Y-94315566D01*
X142528240Y-94315566D01*
X142524011Y-94387381D01*
X142514392Y-94446574D01*
X142501370Y-94480000D01*
X142452104Y-94525680D01*
X142393610Y-94542055D01*
X142333289Y-94528813D01*
X142281743Y-94489313D01*
X142262222Y-94462747D01*
X142250808Y-94431046D01*
X142245462Y-94384772D01*
X142244145Y-94315268D01*
X142246502Y-94246439D01*
X142252727Y-94185966D01*
X142261552Y-94145496D01*
X142263023Y-94141869D01*
X142298613Y-94098742D01*
X142350560Y-94075064D01*
X142408682Y-94071241D01*
X142462800Y-94087678D01*
X142502734Y-94124780D01*
X142506877Y-94132162D01*
X142519844Y-94177179D01*
X142526908Y-94241907D01*
X142528240Y-94315566D01*
X142710776Y-94315566D01*
X142710689Y-94288170D01*
X142709488Y-94244345D01*
X142701315Y-94135928D01*
X142684330Y-94054528D01*
X142656073Y-93994352D01*
X142614088Y-93949606D01*
X142573328Y-93923340D01*
X142516379Y-93904875D01*
X142445549Y-93898542D01*
X142373019Y-93903700D01*
X142310974Y-93919709D01*
X142278192Y-93938860D01*
X142244145Y-93969672D01*
X142244145Y-93580150D01*
X142060329Y-93580150D01*
X142060329Y-94716466D01*
X142060329Y-94716466D01*
G37*
X142060329Y-94716466D02*
X142152237Y-94716466D01*
X142205583Y-94714902D01*
X142233367Y-94708425D01*
X142243370Y-94694358D01*
X142244145Y-94684846D01*
X142245832Y-94665772D01*
X142256470Y-94662114D01*
X142284425Y-94673872D01*
X142306165Y-94684846D01*
X142389628Y-94710851D01*
X142480356Y-94712356D01*
X142554118Y-94692961D01*
X142622806Y-94646105D01*
X142675166Y-94576944D01*
X142703838Y-94495367D01*
X142704568Y-94490806D01*
X142708828Y-94441041D01*
X142710946Y-94369599D01*
X142710776Y-94315566D01*
X142528240Y-94315566D01*
X142524011Y-94387381D01*
X142514392Y-94446574D01*
X142501370Y-94480000D01*
X142452104Y-94525680D01*
X142393610Y-94542055D01*
X142333289Y-94528813D01*
X142281743Y-94489313D01*
X142262222Y-94462747D01*
X142250808Y-94431046D01*
X142245462Y-94384772D01*
X142244145Y-94315268D01*
X142246502Y-94246439D01*
X142252727Y-94185966D01*
X142261552Y-94145496D01*
X142263023Y-94141869D01*
X142298613Y-94098742D01*
X142350560Y-94075064D01*
X142408682Y-94071241D01*
X142462800Y-94087678D01*
X142502734Y-94124780D01*
X142506877Y-94132162D01*
X142519844Y-94177179D01*
X142526908Y-94241907D01*
X142528240Y-94315566D01*
X142710776Y-94315566D01*
X142710689Y-94288170D01*
X142709488Y-94244345D01*
X142701315Y-94135928D01*
X142684330Y-94054528D01*
X142656073Y-93994352D01*
X142614088Y-93949606D01*
X142573328Y-93923340D01*
X142516379Y-93904875D01*
X142445549Y-93898542D01*
X142373019Y-93903700D01*
X142310974Y-93919709D01*
X142278192Y-93938860D01*
X142244145Y-93969672D01*
X142244145Y-93580150D01*
X142060329Y-93580150D01*
X142060329Y-94716466D01*
G36*
X143113079Y-93899426D02*
X143088072Y-93906922D01*
X143080010Y-93923391D01*
X143079671Y-93930826D01*
X143078224Y-93951534D01*
X143068262Y-93954785D01*
X143041348Y-93940588D01*
X143025362Y-93930888D01*
X142974927Y-93910115D01*
X142914688Y-93899844D01*
X142851526Y-93899054D01*
X142792323Y-93906726D01*
X142743958Y-93921838D01*
X142713314Y-93943372D01*
X142707271Y-93970306D01*
X142710321Y-93977600D01*
X142732554Y-94007877D01*
X142767030Y-94045115D01*
X142773266Y-94051135D01*
X142806127Y-94078815D01*
X142834480Y-94087758D01*
X142874133Y-94081516D01*
X142890018Y-94077369D01*
X142939451Y-94067407D01*
X142974208Y-94071887D01*
X143003560Y-94087686D01*
X143030447Y-94108889D01*
X143050250Y-94135554D01*
X143064012Y-94172767D01*
X143072776Y-94225613D01*
X143077586Y-94299177D01*
X143079486Y-94398545D01*
X143079671Y-94458541D01*
X143079671Y-94716466D01*
X143246776Y-94716466D01*
X143246776Y-93897650D01*
X143163224Y-93897650D01*
X143113079Y-93899426D01*
X143113079Y-93899426D01*
G37*
X143113079Y-93899426D02*
X143088072Y-93906922D01*
X143080010Y-93923391D01*
X143079671Y-93930826D01*
X143078224Y-93951534D01*
X143068262Y-93954785D01*
X143041348Y-93940588D01*
X143025362Y-93930888D01*
X142974927Y-93910115D01*
X142914688Y-93899844D01*
X142851526Y-93899054D01*
X142792323Y-93906726D01*
X142743958Y-93921838D01*
X142713314Y-93943372D01*
X142707271Y-93970306D01*
X142710321Y-93977600D01*
X142732554Y-94007877D01*
X142767030Y-94045115D01*
X142773266Y-94051135D01*
X142806127Y-94078815D01*
X142834480Y-94087758D01*
X142874133Y-94081516D01*
X142890018Y-94077369D01*
X142939451Y-94067407D01*
X142974208Y-94071887D01*
X143003560Y-94087686D01*
X143030447Y-94108889D01*
X143050250Y-94135554D01*
X143064012Y-94172767D01*
X143072776Y-94225613D01*
X143077586Y-94299177D01*
X143079486Y-94398545D01*
X143079671Y-94458541D01*
X143079671Y-94716466D01*
X143246776Y-94716466D01*
X143246776Y-93897650D01*
X143163224Y-93897650D01*
X143113079Y-93899426D01*
G36*
X143632503Y-93904124D02*
X143553890Y-93925100D01*
X143494044Y-93963120D01*
X143451813Y-94012918D01*
X143438685Y-94034170D01*
X143428992Y-94056432D01*
X143422216Y-94084910D01*
X143417837Y-94124811D01*
X143415336Y-94181341D01*
X143414192Y-94259707D01*
X143413888Y-94365116D01*
X143413882Y-94393082D01*
X143413882Y-94716466D01*
X143494092Y-94716466D01*
X143545254Y-94712883D01*
X143583083Y-94703806D01*
X143592561Y-94698208D01*
X143618472Y-94688546D01*
X143644936Y-94698208D01*
X143688508Y-94710270D01*
X143751800Y-94715125D01*
X143821950Y-94713018D01*
X143886100Y-94704196D01*
X143923553Y-94692877D01*
X143996027Y-94646352D01*
X144041320Y-94581786D01*
X144061682Y-94495940D01*
X144061872Y-94493736D01*
X144060085Y-94455653D01*
X143898487Y-94455653D01*
X143884359Y-94498970D01*
X143861348Y-94523348D01*
X143815156Y-94541785D01*
X143754185Y-94549145D01*
X143692011Y-94545523D01*
X143642209Y-94531014D01*
X143628257Y-94521705D01*
X143603875Y-94478693D01*
X143597697Y-94429797D01*
X143597697Y-94365545D01*
X143690142Y-94365545D01*
X143777965Y-94372306D01*
X143844542Y-94391460D01*
X143885958Y-94421316D01*
X143898487Y-94455653D01*
X144060085Y-94455653D01*
X144057470Y-94399944D01*
X144026536Y-94325787D01*
X143968379Y-94269707D01*
X143960340Y-94264605D01*
X143925797Y-94247995D01*
X143883042Y-94237936D01*
X143823274Y-94233047D01*
X143752270Y-94231923D01*
X143597697Y-94231861D01*
X143597697Y-94167065D01*
X143604254Y-94116790D01*
X143620985Y-94083109D01*
X143622944Y-94081316D01*
X143660177Y-94066582D01*
X143716380Y-94060871D01*
X143778493Y-94063677D01*
X143833450Y-94074496D01*
X143866061Y-94090722D01*
X143883732Y-94103720D01*
X143902391Y-94106202D01*
X143928141Y-94095553D01*
X143967087Y-94069158D01*
X144025330Y-94024405D01*
X144030676Y-94020213D01*
X144027937Y-94004700D01*
X144005084Y-93978900D01*
X143970351Y-93950229D01*
X143931970Y-93926106D01*
X143919912Y-93920410D01*
X143875926Y-93909043D01*
X143811473Y-93900935D01*
X143739463Y-93897683D01*
X143736096Y-93897676D01*
X143632503Y-93904124D01*
X143632503Y-93904124D01*
G37*
X143632503Y-93904124D02*
X143553890Y-93925100D01*
X143494044Y-93963120D01*
X143451813Y-94012918D01*
X143438685Y-94034170D01*
X143428992Y-94056432D01*
X143422216Y-94084910D01*
X143417837Y-94124811D01*
X143415336Y-94181341D01*
X143414192Y-94259707D01*
X143413888Y-94365116D01*
X143413882Y-94393082D01*
X143413882Y-94716466D01*
X143494092Y-94716466D01*
X143545254Y-94712883D01*
X143583083Y-94703806D01*
X143592561Y-94698208D01*
X143618472Y-94688546D01*
X143644936Y-94698208D01*
X143688508Y-94710270D01*
X143751800Y-94715125D01*
X143821950Y-94713018D01*
X143886100Y-94704196D01*
X143923553Y-94692877D01*
X143996027Y-94646352D01*
X144041320Y-94581786D01*
X144061682Y-94495940D01*
X144061872Y-94493736D01*
X144060085Y-94455653D01*
X143898487Y-94455653D01*
X143884359Y-94498970D01*
X143861348Y-94523348D01*
X143815156Y-94541785D01*
X143754185Y-94549145D01*
X143692011Y-94545523D01*
X143642209Y-94531014D01*
X143628257Y-94521705D01*
X143603875Y-94478693D01*
X143597697Y-94429797D01*
X143597697Y-94365545D01*
X143690142Y-94365545D01*
X143777965Y-94372306D01*
X143844542Y-94391460D01*
X143885958Y-94421316D01*
X143898487Y-94455653D01*
X144060085Y-94455653D01*
X144057470Y-94399944D01*
X144026536Y-94325787D01*
X143968379Y-94269707D01*
X143960340Y-94264605D01*
X143925797Y-94247995D01*
X143883042Y-94237936D01*
X143823274Y-94233047D01*
X143752270Y-94231923D01*
X143597697Y-94231861D01*
X143597697Y-94167065D01*
X143604254Y-94116790D01*
X143620985Y-94083109D01*
X143622944Y-94081316D01*
X143660177Y-94066582D01*
X143716380Y-94060871D01*
X143778493Y-94063677D01*
X143833450Y-94074496D01*
X143866061Y-94090722D01*
X143883732Y-94103720D01*
X143902391Y-94106202D01*
X143928141Y-94095553D01*
X143967087Y-94069158D01*
X144025330Y-94024405D01*
X144030676Y-94020213D01*
X144027937Y-94004700D01*
X144005084Y-93978900D01*
X143970351Y-93950229D01*
X143931970Y-93926106D01*
X143919912Y-93920410D01*
X143875926Y-93909043D01*
X143811473Y-93900935D01*
X143739463Y-93897683D01*
X143736096Y-93897676D01*
X143632503Y-93904124D01*
G36*
X144329600Y-92658408D02*
X144294368Y-92675814D01*
X144250920Y-92706146D01*
X144219254Y-92739223D01*
X144197566Y-92780757D01*
X144184057Y-92836462D01*
X144176922Y-92912051D01*
X144174360Y-93013236D01*
X144174210Y-93056737D01*
X144174648Y-93152075D01*
X144176464Y-93220211D01*
X144180415Y-93267358D01*
X144187258Y-93299730D01*
X144197749Y-93323540D01*
X144208664Y-93339783D01*
X144278341Y-93408892D01*
X144360394Y-93450461D01*
X144448910Y-93462963D01*
X144537979Y-93444874D01*
X144566197Y-93432082D01*
X144633750Y-93396871D01*
X144633750Y-93948640D01*
X144584448Y-93923145D01*
X144519487Y-93903420D01*
X144439640Y-93898367D01*
X144359908Y-93907696D01*
X144299695Y-93928654D01*
X144249752Y-93968567D01*
X144207079Y-94025681D01*
X144203870Y-94031545D01*
X144190338Y-94059167D01*
X144180455Y-94087008D01*
X144173651Y-94120734D01*
X144169359Y-94166011D01*
X144167009Y-94228502D01*
X144166032Y-94313875D01*
X144165855Y-94409950D01*
X144165855Y-94716466D01*
X144349671Y-94716466D01*
X144349671Y-94151279D01*
X144401085Y-94108017D01*
X144454494Y-94073412D01*
X144505072Y-94067120D01*
X144555930Y-94083312D01*
X144583035Y-94099167D01*
X144603209Y-94121750D01*
X144617557Y-94155880D01*
X144627184Y-94206374D01*
X144633197Y-94278051D01*
X144636700Y-94375728D01*
X144637934Y-94440742D01*
X144642105Y-94708111D01*
X144729835Y-94713162D01*
X144817566Y-94718213D01*
X144817566Y-93059041D01*
X144633750Y-93059041D01*
X144629064Y-93151540D01*
X144613272Y-93215749D01*
X144583777Y-93255699D01*
X144537980Y-93275420D01*
X144491710Y-93279361D01*
X144439332Y-93274832D01*
X144404570Y-93257009D01*
X144382832Y-93233459D01*
X144365720Y-93208129D01*
X144355533Y-93179909D01*
X144351000Y-93140371D01*
X144350851Y-93081082D01*
X144352376Y-93031438D01*
X144355879Y-92956650D01*
X144361093Y-92907551D01*
X144369873Y-92876407D01*
X144384074Y-92855485D01*
X144397476Y-92843392D01*
X144453473Y-92817021D01*
X144519749Y-92812762D01*
X144557804Y-92821846D01*
X144595483Y-92854136D01*
X144620441Y-92916946D01*
X144632538Y-93009834D01*
X144633750Y-93059041D01*
X144817566Y-93059041D01*
X144817566Y-92644361D01*
X144725658Y-92644361D01*
X144670477Y-92646543D01*
X144642008Y-92654291D01*
X144633754Y-92669408D01*
X144633750Y-92669856D01*
X144629920Y-92684660D01*
X144613027Y-92682979D01*
X144579441Y-92666712D01*
X144501182Y-92641827D01*
X144413133Y-92639211D01*
X144329600Y-92658408D01*
X144329600Y-92658408D01*
G37*
X144329600Y-92658408D02*
X144294368Y-92675814D01*
X144250920Y-92706146D01*
X144219254Y-92739223D01*
X144197566Y-92780757D01*
X144184057Y-92836462D01*
X144176922Y-92912051D01*
X144174360Y-93013236D01*
X144174210Y-93056737D01*
X144174648Y-93152075D01*
X144176464Y-93220211D01*
X144180415Y-93267358D01*
X144187258Y-93299730D01*
X144197749Y-93323540D01*
X144208664Y-93339783D01*
X144278341Y-93408892D01*
X144360394Y-93450461D01*
X144448910Y-93462963D01*
X144537979Y-93444874D01*
X144566197Y-93432082D01*
X144633750Y-93396871D01*
X144633750Y-93948640D01*
X144584448Y-93923145D01*
X144519487Y-93903420D01*
X144439640Y-93898367D01*
X144359908Y-93907696D01*
X144299695Y-93928654D01*
X144249752Y-93968567D01*
X144207079Y-94025681D01*
X144203870Y-94031545D01*
X144190338Y-94059167D01*
X144180455Y-94087008D01*
X144173651Y-94120734D01*
X144169359Y-94166011D01*
X144167009Y-94228502D01*
X144166032Y-94313875D01*
X144165855Y-94409950D01*
X144165855Y-94716466D01*
X144349671Y-94716466D01*
X144349671Y-94151279D01*
X144401085Y-94108017D01*
X144454494Y-94073412D01*
X144505072Y-94067120D01*
X144555930Y-94083312D01*
X144583035Y-94099167D01*
X144603209Y-94121750D01*
X144617557Y-94155880D01*
X144627184Y-94206374D01*
X144633197Y-94278051D01*
X144636700Y-94375728D01*
X144637934Y-94440742D01*
X144642105Y-94708111D01*
X144729835Y-94713162D01*
X144817566Y-94718213D01*
X144817566Y-93059041D01*
X144633750Y-93059041D01*
X144629064Y-93151540D01*
X144613272Y-93215749D01*
X144583777Y-93255699D01*
X144537980Y-93275420D01*
X144491710Y-93279361D01*
X144439332Y-93274832D01*
X144404570Y-93257009D01*
X144382832Y-93233459D01*
X144365720Y-93208129D01*
X144355533Y-93179909D01*
X144351000Y-93140371D01*
X144350851Y-93081082D01*
X144352376Y-93031438D01*
X144355879Y-92956650D01*
X144361093Y-92907551D01*
X144369873Y-92876407D01*
X144384074Y-92855485D01*
X144397476Y-92843392D01*
X144453473Y-92817021D01*
X144519749Y-92812762D01*
X144557804Y-92821846D01*
X144595483Y-92854136D01*
X144620441Y-92916946D01*
X144632538Y-93009834D01*
X144633750Y-93059041D01*
X144817566Y-93059041D01*
X144817566Y-92644361D01*
X144725658Y-92644361D01*
X144670477Y-92646543D01*
X144642008Y-92654291D01*
X144633754Y-92669408D01*
X144633750Y-92669856D01*
X144629920Y-92684660D01*
X144613027Y-92682979D01*
X144579441Y-92666712D01*
X144501182Y-92641827D01*
X144413133Y-92639211D01*
X144329600Y-92658408D01*
G04 #@! TD*
M02*
